<svg width="1440" height="2358" viewBox="0 0 1440 2358" fill="none" xmlns="http://www.w3.org/2000/svg">
<path d="M283 2287.75V2196.75H781L748.5 2315.75L283 2287.75Z" fill="#463477" stroke="black"/>
<path d="M260 2183.75L105.5 2292.25L207.5 2328.25L287 2281.25L260 2183.75Z" fill="#5F489D" stroke="black"/>
<mask id="path-3-inside-1_36_48544" fill="white">
<path d="M1440 2290.75H0V2182.75H1440V2290.75ZM260.743 2211L260.574 2211.09L135.638 2280.09L136 2281.5H657.218L657.401 2281.38L766.401 2212.38L768.587 2211H260.743Z"/>
</mask>
<path d="M1440 2290.75H0V2182.75H1440V2290.75ZM260.743 2211L260.574 2211.09L135.638 2280.09L136 2281.5H657.218L657.401 2281.38L766.401 2212.38L768.587 2211H260.743Z" fill="#7B5FBC"/>
<path d="M1440 2290.75V2291.75H1441V2290.75H1440ZM0 2290.75H-1V2291.75H0V2290.75ZM0 2182.75V2181.75H-1V2182.75H0ZM1440 2182.75H1441V2181.75H1440V2182.75ZM260.743 2211V2210H260.484L260.258 2210.13L260.743 2211ZM260.574 2211.09L261.058 2211.97L261.059 2211.97L260.574 2211.09ZM135.638 2280.09L135.154 2279.22L134.476 2279.59L134.669 2280.34L135.638 2280.09ZM136 2281.5L135.032 2281.75L135.225 2282.5H136V2281.5ZM657.218 2281.5V2282.5H657.508L657.753 2282.34L657.218 2281.5ZM657.401 2281.38L657.936 2282.23V2282.23L657.401 2281.38ZM766.401 2212.38L766.936 2213.23L766.936 2213.23L766.401 2212.38ZM768.587 2211L769.122 2211.84L772.036 2210H768.587V2211ZM1440 2290.75V2289.75H0V2290.75V2291.75H1440V2290.75ZM0 2290.75H1V2182.75H0H-1V2290.75H0ZM0 2182.75V2183.75H1440V2182.75V2181.75H0V2182.75ZM1440 2182.75H1439V2290.75H1440H1441V2182.75H1440ZM260.743 2211L260.258 2210.13L260.089 2210.22L260.574 2211.09L261.059 2211.97L261.228 2211.87L260.743 2211ZM260.574 2211.09L260.091 2210.22L135.154 2279.22L135.638 2280.09L136.121 2280.97L261.058 2211.97L260.574 2211.09ZM135.638 2280.09L134.669 2280.34L135.032 2281.75L136 2281.5L136.968 2281.25L136.606 2279.84L135.638 2280.09ZM136 2281.5V2282.5H657.218V2281.5V2280.5H136V2281.5ZM657.218 2281.5L657.753 2282.34L657.936 2282.23L657.401 2281.38L656.867 2280.54L656.683 2280.66L657.218 2281.5ZM657.401 2281.38L657.936 2282.23L766.936 2213.23L766.401 2212.38L765.867 2211.54L656.867 2280.54L657.401 2281.38ZM766.401 2212.38L766.936 2213.23L769.122 2211.84L768.587 2211L768.052 2210.16L765.866 2211.54L766.401 2212.38ZM768.587 2211V2210H260.743V2211V2212H768.587V2211Z" fill="#5B3DA8" mask="url(#path-3-inside-1_36_48544)"/>
<path d="M1309 2040.75V0.75H1388V2040.75H1309Z" fill="url(#paint0_linear_36_48544)" stroke="#5B3DA8" stroke-width="1.5" stroke-linejoin="bevel"/>
<path d="M1388 2182.75V0.75H1485V2182.75H1388Z" fill="#8870C7" stroke="#5B3DA8" stroke-width="1.5" stroke-linejoin="bevel"/>
<path d="M131 2042.75V47.75H52V2042.75H131Z" fill="url(#paint1_linear_36_48544)" stroke="#5B3DA8" stroke-width="1.5" stroke-linejoin="bevel"/>
<path d="M52 2182.75V47.75H-45V2182.75H52Z" fill="#8870C7" stroke="#5B3DA8" stroke-width="1.5" stroke-linejoin="bevel"/>
<path d="M1384.99 764H55.0244L130.139 734.999L1308.86 734.5L1384.99 764Z" fill="url(#paint2_linear_36_48544)" stroke="#5B3DA8" stroke-width="1.5"/>
<path d="M1384.99 996H55.0244L130.139 966.999L1308.86 966.5L1384.99 996Z" fill="url(#paint3_linear_36_48544)" stroke="#5B3DA8" stroke-width="1.5"/>
<mask id="path-11-inside-2_36_48544" fill="white">
<path d="M51 1228.75H1389V1255.75H51V1228.75Z"/>
</mask>
<path d="M51 1228.75H1389V1255.75H51V1228.75Z" fill="#AE86DB"/>
<path d="M1389 1255.75V1257.25H1390.5V1255.75H1389ZM51 1255.75H49.5V1257.25H51V1255.75ZM1389 1228.75H1387.5V1255.75H1389H1390.5V1228.75H1389ZM1389 1255.75V1254.25H51V1255.75V1257.25H1389V1255.75ZM51 1255.75H52.5V1228.75H51H49.5V1255.75H51Z" fill="#5B3DA8" mask="url(#path-11-inside-2_36_48544)"/>
<path d="M1384.99 1228H55.0244L130.139 1199L1308.86 1198.5L1384.99 1228Z" fill="url(#paint4_linear_36_48544)" stroke="#5B3DA8" stroke-width="1.5"/>
<mask id="path-14-inside-3_36_48544" fill="white">
<path d="M51 764.75H1389V791.75H51V764.75Z"/>
</mask>
<path d="M51 764.75H1389V791.75H51V764.75Z" fill="#AE86DB"/>
<path d="M1389 791.75V793.25H1390.5V791.75H1389ZM51 791.75H49.5V793.25H51V791.75ZM1389 764.75H1387.5V791.75H1389H1390.5V764.75H1389ZM1389 791.75V790.25H51V791.75V793.25H1389V791.75ZM51 791.75H52.5V764.75H51H49.5V791.75H51Z" fill="#5B3DA8" mask="url(#path-14-inside-3_36_48544)"/>
<mask id="path-16-inside-4_36_48544" fill="white">
<path d="M51 996.75H1389V1023.75H51V996.75Z"/>
</mask>
<path d="M51 996.75H1389V1023.75H51V996.75Z" fill="#AE86DB"/>
<path d="M1389 1023.75V1025.25H1390.5V1023.75H1389ZM51 1023.75H49.5V1025.25H51V1023.75ZM1389 996.75H1387.5V1023.75H1389H1390.5V996.75H1389ZM1389 1023.75V1022.25H51V1023.75V1025.25H1389V1023.75ZM51 1023.75H52.5V996.75H51H49.5V1023.75H51Z" fill="#5B3DA8" mask="url(#path-16-inside-4_36_48544)"/>
<rect y="2290.75" width="1441" height="67" fill="#5F489D"/>
<defs>
<linearGradient id="paint0_linear_36_48544" x1="1586" y1="1383.3" x2="1224.73" y2="1343.65" gradientUnits="userSpaceOnUse">
<stop stop-color="#8064BF"/>
<stop offset="1" stop-color="#724FC0"/>
</linearGradient>
<linearGradient id="paint1_linear_36_48544" x1="-146" y1="1399.81" x2="215.074" y2="1359.28" gradientUnits="userSpaceOnUse">
<stop stop-color="#8064BF"/>
<stop offset="1" stop-color="#724FC0"/>
</linearGradient>
<linearGradient id="paint2_linear_36_48544" x1="720" y1="764.75" x2="720" y2="733.75" gradientUnits="userSpaceOnUse">
<stop stop-color="#8064BF"/>
<stop offset="1" stop-color="#7B60B9"/>
</linearGradient>
<linearGradient id="paint3_linear_36_48544" x1="720" y1="996.75" x2="720" y2="965.75" gradientUnits="userSpaceOnUse">
<stop stop-color="#8064BF"/>
<stop offset="1" stop-color="#7B60B9"/>
</linearGradient>
<linearGradient id="paint4_linear_36_48544" x1="720" y1="1228.75" x2="720" y2="1197.75" gradientUnits="userSpaceOnUse">
<stop stop-color="#8064BF"/>
<stop offset="1" stop-color="#7B60B9"/>
</linearGradient>
</defs>
</svg>
