<svg width="1440" height="1141" viewBox="0 0 1440 1141" fill="none" xmlns="http://www.w3.org/2000/svg">
<path d="M812.592 807.942L754.5 848V169H1455.68L1499.5 892L812.592 807.942Z" fill="#9CAEFF" stroke="#5B3DA8" stroke-width="1.5"/>
<path d="M475 168V931.5L385 958.5V168H475Z" fill="#9CAEFF" stroke="#5B3DA8" stroke-width="1.5"/>
<path d="M422 167V603.5" stroke="#5B3DA8" stroke-width="1.5"/>
<path d="M131 1034.5L273 992L261.5 168H131V1034.5Z" fill="#9CAEFF" stroke="#5B3DA8" stroke-width="1.5"/>
<path d="M131 168V1034.5L0 1073.5L-12.5 1074L-27.5 602.5L-2.5 168H131Z" fill="#9CAEFF" stroke="#5B3DA8" stroke-width="1.5"/>
<path d="M385 168V958.5L256.5 997V168H385Z" fill="#9CAEFF" stroke="#5B3DA8" stroke-width="1.5"/>
<path d="M475 931.5L567 904V169.5L475 168V931.5Z" fill="#9CAEFF" stroke="#5B3DA8" stroke-width="1.5"/>
<path d="M511.5 920.5V646.5" stroke="#5B3DA8" stroke-width="1.5"/>
<path d="M667 874V168L567 167.5V904L667 874Z" fill="#9CAEFF" stroke="#5B3DA8" stroke-width="1.5"/>
<path d="M754.5 168V848L667 874V168H754.5Z" fill="#9CAEFF" stroke="#5B3DA8" stroke-width="1.5"/>
<path d="M1010 393L760.5 297L131.5 448.5V917.5L-50 991L-27.5 176.5H1452L1470 717L1098 740L1010 393Z" fill="#8A91ED" fill-opacity="0.6"/>
<path d="M764 784L-35.5 959.408V1079.95L436 954.011L917 1058.81L539 1263H1458.5L1469.5 928.824L764 784Z" fill="#8A91ED" stroke="black"/>
<path d="M1026.5 1066.8L548.728 1263H-22.5L-22.4998 1052.85L475.763 921L1026.5 1066.8Z" fill="#C4CDFA"/>
<path d="M1449 963L811.5 839.5V723.5L1449 796.5V963Z" fill="#6764D1" stroke="#5B3DA8" stroke-width="1.5"/>
<path d="M811.5 861.406L670.06 928L655.5 701L811.5 729.954V861.406Z" fill="#6561CF" stroke="#5B3DA8" stroke-width="1.5"/>
<path d="M1086 1035L1046.5 1056V769L1086 774.5V1035Z" fill="#6561CF" stroke="#5B3DA8" stroke-width="1.5"/>
<path d="M686 920L646.5 941V713L686 718.5V920Z" fill="#6561CF" stroke="#5B3DA8" stroke-width="1.5"/>
<path d="M604.5 929V707L646 713V941L604.5 929Z" fill="#B892EB" stroke="#5B3DA8" stroke-width="1.5"/>
<path d="M490.422 943L416.262 910.353L402.736 865.301L398.072 790.867L402.736 747.773L445.413 737L568.547 747.773L574.377 833.307L560.851 910.353L490.422 943Z" fill="#BF98EB" stroke="#5B3DA8" stroke-width="1.5" stroke-linejoin="bevel"/>
<rect x="476.945" y="783.75" width="21.7259" height="144.5" fill="#A168C9" stroke="#5B3DA8" stroke-width="1.5"/>
<path d="M515.257 858.174V786.702L549.012 777V846.532L551.151 851.383L538.315 921.885L516.683 929L518.585 860.762L515.257 858.174Z" fill="#AE86DB" stroke="#5B3DA8" stroke-width="1.5" stroke-linejoin="bevel"/>
<path d="M460.359 858.002V786.682L425.611 777V846.384L423.409 851.225L435.644 921.577L456.933 929V860.584L460.359 858.002Z" fill="#AE86DB" stroke="#5B3DA8" stroke-width="1.5" stroke-linejoin="bevel"/>
<path d="M554.318 910C567.463 881.385 569.797 802.045 569.321 765.951L585.99 764C585.99 824.156 577.179 865.777 572.416 886.263L554.318 910Z" fill="#AE86DB" stroke="#5B3DA8" stroke-width="1.5" stroke-linejoin="bevel"/>
<path d="M420.242 910C407.535 881.385 405.279 802.045 405.739 765.951L389.626 764C389.626 824.156 398.143 865.777 402.747 886.263L420.242 910Z" fill="#AE86DB" stroke="#5B3DA8" stroke-width="1.5" stroke-linejoin="bevel"/>
<path d="M389.735 764.616C389.048 764.042 390.048 746.496 390.439 737.93C454.553 776.5 562.236 750 584.582 732C584.77 733.845 585.599 754.293 585.99 764.286C477.779 820 394.377 768.5 389.735 764.616Z" fill="#8C87E3" stroke="#5B3DA8" stroke-width="1.5" stroke-linejoin="bevel"/>
<path d="M417.157 920.557C410.233 914.018 402.294 895.413 402.294 883C430.367 939.335 552.803 929.672 573.321 885.546C573.321 890.002 573.321 919.92 545.484 933.924C503.76 954.915 452.542 953.976 417.157 920.557Z" fill="#8C87E3" stroke="#5B3DA8" stroke-width="1.5" stroke-linejoin="bevel"/>
<path d="M394.569 839.239C390.802 827.741 390.41 818.542 390.802 810C429.647 873.735 552.302 861.251 583.848 810.329C584.037 812.168 583.378 826.755 580.788 837.925C495.565 915.13 399.198 853.366 394.569 839.239Z" fill="#5B3DA8" stroke="#5B3DA8" stroke-width="1.5" stroke-linejoin="bevel"/>
<path d="M394.569 839.239C390.802 827.741 390.41 818.542 390.802 810C429.647 873.735 552.302 861.251 583.848 810.329C584.037 812.168 583.378 826.755 580.788 837.925C495.565 915.13 399.198 853.366 394.569 839.239Z" fill="#A7B7F7" stroke="#5B3DA8" stroke-width="1.5" stroke-linejoin="bevel"/>
<path d="M487.28 709.75C514.199 709.75 538.542 712.767 556.133 717.631C564.933 720.064 572 722.948 576.849 726.118C581.73 729.309 584.184 732.664 584.184 736C584.184 739.336 581.73 742.691 576.849 745.882C572 749.052 564.933 751.936 556.133 754.369C538.542 759.233 514.199 762.25 487.28 762.25C460.361 762.25 436.018 759.233 418.427 754.369C409.627 751.936 402.56 749.052 397.711 745.882C392.83 742.691 390.376 739.336 390.376 736C390.376 732.664 392.83 729.309 397.711 726.118C402.56 722.948 409.627 720.064 418.427 717.631C436.018 712.767 460.361 709.75 487.28 709.75Z" fill="#E9A4D9" stroke="#5B3DA8" stroke-width="1.5"/>
<path d="M485.697 718.75C508.106 718.75 528.37 720.817 543.011 724.149C550.338 725.817 556.216 727.792 560.244 729.959C562.258 731.043 563.774 732.157 564.778 733.273C565.778 734.386 566.237 735.461 566.237 736.5C566.237 737.539 565.778 738.614 564.778 739.727C563.774 740.843 562.258 741.957 560.244 743.041C556.216 745.208 550.338 747.183 543.011 748.851C528.37 752.183 508.106 754.25 485.697 754.25C463.288 754.25 443.023 752.183 428.382 748.851C421.055 747.183 415.177 745.208 411.149 743.041C409.135 741.957 407.619 740.843 406.615 739.727C405.615 738.614 405.156 737.539 405.156 736.5C405.156 735.461 405.615 734.386 406.615 733.273C407.619 732.157 409.135 731.043 411.149 729.959C415.177 727.792 421.055 725.817 428.382 724.149C443.023 720.817 463.288 718.75 485.697 718.75Z" fill="#EB8DD7" stroke="#5B3DA8" stroke-width="1.5"/>
<rect x="201.785" y="164.097" width="5.76523" height="371.605" fill="#AE86DB" stroke="#5B3DA8" stroke-width="1.5"/>
<rect x="320.451" y="152.125" width="5.76523" height="247.902" fill="#8870C7" stroke="#5B3DA8" stroke-width="1.5"/>
<rect x="382.205" y="154.122" width="5.76523" height="247.902" fill="#8870C7" stroke="#5B3DA8" stroke-width="1.5"/>
<rect x="440.326" y="154.122" width="5.76523" height="247.902" fill="#8870C7" stroke="#5B3DA8" stroke-width="1.5"/>
<rect x="498.449" y="170.083" width="5.76523" height="173.081" fill="#8870C7" stroke="#5B3DA8" stroke-width="1.5"/>
<rect x="545.672" y="166.093" width="5.76523" height="173.081" fill="#8870C7" stroke="#5B3DA8" stroke-width="1.5"/>
<rect x="589.264" y="154.122" width="5.76523" height="102.251" fill="#8870C7" stroke="#5B3DA8" stroke-width="1.5"/>
<rect x="621.957" y="152.125" width="5.76523" height="102.251" fill="#8870C7" stroke="#5B3DA8" stroke-width="1.5"/>
<rect x="144.873" y="170.083" width="5.76523" height="365.619" fill="#AE86DB" stroke="#5B3DA8" stroke-width="1.5"/>
<rect x="91.5957" y="202.005" width="5.76523" height="390.559" fill="#AE86DB" stroke="#5B3DA8" stroke-width="1.5"/>
<rect x="40.25" y="239.278" width="6.5" height="387.725" fill="#AE86DB" stroke="#5B3DA8" stroke-width="1.5"/>
<path d="M310.013 984.378C267.875 989.566 254.515 982.217 253.102 977.894L9.7168 1035.75L169.552 1055.71L310.013 984.378Z" fill="#F7B0CC" stroke="#5B3DA8" stroke-width="1.5"/>
<path d="M9.7168 1035.75L169.552 1055.7V1072.66L9.7168 1052.71V1035.75Z" fill="#463477" stroke="#5B3DA8" stroke-width="1.5"/>
<path d="M310.014 1042.24V998.842L169.553 1072.67V1088.63L310.014 1042.24Z" fill="#8870C7" stroke="#5B3DA8" stroke-width="1.5"/>
<path d="M36.3553 955.944V972.404L-1.78711 964.922V949.958L36.3553 955.944Z" fill="#463477" stroke="#5B3DA8" stroke-width="1.5"/>
<path d="M256.737 901.077C249.472 907.462 281.56 909.391 298.512 909.557L36.3572 955.946L-4.20703 949.461L-2.39072 924.521L256.737 901.077Z" fill="#F7B0CC" stroke="#5B3DA8" stroke-width="1.5"/>
<path d="M298.509 909.558V924.023L36.3555 972.407V955.947L298.509 909.558Z" fill="#5F489D" stroke="#5B3DA8" stroke-width="1.5"/>
<path d="M285.795 894.591V848.203L-1.18164 867.656V888.606L285.795 894.591Z" fill="#8870C7" stroke="#5B3DA8" stroke-width="1.5"/>
<path d="M256.13 824.759C248.381 831.543 272.275 832.906 285.191 832.74L-1.78519 851.195L-2.39062 829.747L256.13 824.759Z" fill="#F7B0CC" stroke="#5B3DA8" stroke-width="1.5"/>
<path d="M285.797 832.741V848.204L-1.17989 867.657H-2.99619L-4.8125 856.184L-1.17989 851.196L285.797 832.741Z" fill="#5F489D" stroke="#5B3DA8" stroke-width="1.5"/>
<path d="M-4.20703 757.922H-1.17985L268.844 755.428C255.767 754.63 254.919 750.107 256.13 747.946L23.0376 742.958L-4.20703 745.452V757.922Z" fill="#F7B0CC" stroke="#5B3DA8" stroke-width="1.5"/>
<path d="M273.686 755.425V770.389L-1.18164 773.382V757.919L273.686 755.425Z" fill="#5F489D" stroke="#5B3DA8" stroke-width="1.5"/>
<path d="M263.394 739.963V692.576L-1.78711 688.087V708.039L263.394 739.963Z" fill="#8870C7" stroke="#5B3DA8" stroke-width="1.5"/>
<path d="M13.3488 661.153L263.394 677.613L-1.78711 674.122V663.148L13.3488 661.153Z" fill="#F7B0CC" stroke="#5B3DA8" stroke-width="1.5"/>
<path d="M89.6357 589.323L256.736 598.801L-0.574219 592.815L89.6357 589.323Z" fill="#F7B0CC" stroke="#5B3DA8" stroke-width="1.5"/>
<path d="M263.394 692.578V677.614L-1.18164 674.123V688.089L263.394 692.578Z" fill="#AE86DB" stroke="#5B3DA8" stroke-width="1.5"/>
<path d="M256.736 661.65V614.763L-2.99609 607.281L3.6637 622.744L256.736 661.65Z" fill="#8870C7" stroke="#5B3DA8" stroke-width="1.5"/>
<path d="M-1.78711 607.282L251.285 614.764V598.803L-1.78711 592.817V607.282Z" fill="#AE86DB" stroke="#5B3DA8" stroke-width="1.5"/>
<path d="M256.734 614.764V598.803H251.285V614.764H256.734Z" fill="#463477" stroke="#5B3DA8" stroke-width="1.5"/>
<path d="M86.002 548.922V535.953L256.735 538.447V586.831L86.002 548.922Z" fill="#8870C7" stroke="#5B3DA8" stroke-width="1.5"/>
<path d="M81.1582 535.953L248.258 538.447V523.982L81.1582 523.483V535.953Z" fill="#AE86DB" stroke="#5B3DA8" stroke-width="1.5"/>
<path d="M248.258 538.447H256.734V523.982H248.258V538.447Z" fill="#463477" stroke="#5B3DA8" stroke-width="1.5"/>
<path d="M256.129 510.017V462.63H249.47L194.375 469.248V483.58L256.129 510.017Z" fill="#8870C7" stroke="#5B3DA8" stroke-width="1.5"/>
<path d="M191.35 469.612L249.471 462.628V448.163L191.35 456.144V469.612Z" fill="#AE86DB" stroke="#5B3DA8" stroke-width="1.5"/>
<path d="M249.471 462.628H256.13V448.163H249.471V462.628Z" fill="#463477" stroke="#5B3DA8" stroke-width="1.5"/>
<path d="M314.857 509.019V463.129H320.306L334.837 469.115L335.442 484.578L314.857 509.019Z" fill="#8870C7" stroke="#5B3DA8" stroke-width="1.5"/>
<path d="M334.837 469.113L320.307 463.127V448.163L340.286 456.144V469.113H334.837Z" fill="#AE86DB" stroke="#5B3DA8" stroke-width="1.5"/>
<path d="M320.306 463.127H314.857V448.163H320.306V463.127Z" fill="#463477" stroke="#5B3DA8" stroke-width="1.5"/>
<path d="M315.463 434.696V385.813H323.939L448.053 399.938V414.744L315.463 434.696Z" fill="#8870C7" stroke="#5B3DA8" stroke-width="1.5"/>
<path d="M323.939 371.349V385.814L454.714 400.779V387.311L323.939 371.349Z" fill="#AE86DB" stroke="#5B3DA8" stroke-width="1.5"/>
<path d="M315.463 385.814V371.349H323.939V385.814H315.463Z" fill="#463477" stroke="#5B3DA8" stroke-width="1.5"/>
<path d="M314.855 355.886L314.25 308.001L322.121 307.502L552.186 325.957V340.922L314.855 355.886Z" fill="#8870C7" stroke="#5B3DA8" stroke-width="1.5"/>
<path d="M322.121 307.5L314.25 307.999V294.531L322.121 293.035V307.5Z" fill="#463477" stroke="#5B3DA8" stroke-width="1.5"/>
<path d="M310.014 278.07V228.688L628.473 242.655V259.614L310.014 278.07Z" fill="#8870C7" stroke="#5B3DA8" stroke-width="1.5"/>
<path d="M310.014 228.689V212.728L631.5 228.689V242.656L310.014 228.689Z" fill="#5F489D" stroke="#5B3DA8" stroke-width="1.5"/>
<path d="M322.123 307.5V293.035L555.216 313.486V325.956L322.123 307.5Z" fill="#5F489D" stroke="#5B3DA8" stroke-width="1.5"/>
<path d="M301.75 192.278V164.345H611.733V192.278H301.75Z" fill="#8870C7" stroke="#5B3DA8" stroke-width="1.5"/>
<path d="M273.686 816.281V770.391L-1.78711 773.383V796.328L273.686 816.281Z" fill="#8870C7" stroke="#5B3DA8" stroke-width="1.5"/>
<path d="M36.3555 987.37V972.405L298.509 924.021V970.909L36.3555 987.37Z" fill="#8870C7" stroke="#5B3DA8" stroke-width="1.5"/>
<path d="M310.014 998.84V984.375L169.553 1055.7V1072.66L310.014 998.84Z" fill="#5F489D" stroke="#5B3DA8" stroke-width="1.5"/>
<path d="M-2.39062 276.575C22.7955 252.233 130.402 191.612 181.056 164.344L147.757 162.349C101.26 187.089 28.2848 234.176 -2.39062 254.627V276.575Z" fill="#AE86DB" stroke="#5B3DA8" stroke-width="1.5"/>
<rect x="10.4668" y="565.135" width="9.39784" height="507.279" fill="#AE86DB" stroke="#5B3DA8" stroke-width="1.5"/>
<rect x="72.25" y="608.196" width="9.5" height="471.493" fill="#8064BF" stroke="#5B3DA8" stroke-width="1.5"/>
<rect x="142.453" y="647.935" width="9.39784" height="492.315" fill="#8064BF" stroke="#5B3DA8" stroke-width="1.5"/>
<path d="M212.538 678.611C129.715 643.096 21.8261 569.373 -6.0239 529.469L-14.5 535.953L-6.0239 560.893C51.6136 614.365 154.013 671.628 198.008 693.575L212.538 678.611Z" fill="#AE86DB" stroke="#5B3DA8" stroke-width="1.5"/>
<path d="M257.5 1L103 109.5L205 145.5L284.5 98.5L257.5 1Z" fill="#5F489D" stroke="black"/>
<path d="M283.5 105V14H781.5L749 133L283.5 105Z" fill="#463477" stroke="black"/>
<mask id="path-88-inside-1_119_308" fill="white">
<path d="M1440.5 108H-1L-0.5 0H1440.5V108ZM257.243 28.25L257.074 28.3438L132.138 97.3438L132.5 98.75H653.718L653.901 98.6338L762.901 29.6338L765.087 28.25H257.243Z"/>
</mask>
<path d="M1440.5 108H-1L-0.5 0H1440.5V108ZM257.243 28.25L257.074 28.3438L132.138 97.3438L132.5 98.75H653.718L653.901 98.6338L762.901 29.6338L765.087 28.25H257.243Z" fill="#7B5FBC"/>
<path d="M1440.5 108V109H1441.5V108H1440.5ZM-1 108L-1.99999 107.995L-2.00464 109H-1V108ZM-0.5 0V-1H-1.49538L-1.49999 -0.00462958L-0.5 0ZM1440.5 0H1441.5V-1H1440.5V0ZM257.243 28.25V27.25H256.984L256.758 27.3756L257.243 28.25ZM257.074 28.3438L257.558 29.2191L257.559 29.2181L257.074 28.3438ZM132.138 97.3438L131.654 96.4684L130.976 96.8429L131.169 97.5932L132.138 97.3438ZM132.5 98.75L131.532 98.9995L131.725 99.75H132.5V98.75ZM653.718 98.75V99.75H654.008L654.253 99.595L653.718 98.75ZM653.901 98.6338L654.436 99.4787V99.4787L653.901 98.6338ZM762.901 29.6338L763.436 30.4787L763.436 30.4787L762.901 29.6338ZM765.087 28.25L765.622 29.0949L768.536 27.25H765.087V28.25ZM1440.5 108V107H-1V108V109H1440.5V108ZM-1 108L-1.07288e-05 108.005L0.499989 0.00462958L-0.5 0L-1.49999 -0.00462958L-1.99999 107.995L-1 108ZM-0.5 0V1H1440.5V0V-1H-0.5V0ZM1440.5 0H1439.5V108H1440.5H1441.5V0H1440.5ZM257.243 28.25L256.758 27.3756L256.589 27.4694L257.074 28.3438L257.559 29.2181L257.728 29.1244L257.243 28.25ZM257.074 28.3438L256.591 27.4684L131.654 96.4684L132.138 97.3438L132.621 98.2191L257.558 29.2191L257.074 28.3438ZM132.138 97.3438L131.169 97.5932L131.532 98.9995L132.5 98.75L133.468 98.5005L133.106 97.0943L132.138 97.3438ZM132.5 98.75V99.75H653.718V98.75V97.75H132.5V98.75ZM653.718 98.75L654.253 99.595L654.436 99.4787L653.901 98.6338L653.367 97.7888L653.183 97.905L653.718 98.75ZM653.901 98.6338L654.436 99.4787L763.436 30.4787L762.901 29.6338L762.367 28.7889L653.367 97.7889L653.901 98.6338ZM762.901 29.6338L763.436 30.4787L765.622 29.0949L765.087 28.25L764.552 27.4051L762.366 28.7889L762.901 29.6338ZM765.087 28.25V27.25H257.243V28.25V29.25H765.087V28.25Z" fill="#5B3DA8" mask="url(#path-88-inside-1_119_308)"/>
<path d="M602.5 718V682L1441.5 790.5V835.5L602.5 718Z" fill="#B892EB" stroke="#5B3DA8" stroke-width="1.5"/>
<path d="M1441.5 683L859.5 633L602.5 682L1439.5 790.5L1441.5 683Z" fill="#F7B0CC"/>
<path d="M603 682.5L602.5 682M602.5 682L859.5 633L1441.5 683L1439.5 790.5L602.5 682Z" stroke="#5B3DA8" stroke-width="1.5"/>
<path d="M336.5 838.562L360.96 809.407H409.016L431.5 838.562V936.032C406.694 955.601 358.737 952.463 336.5 936.032V838.562Z" fill="#BDCCF2" stroke="#5B3DA8" stroke-width="1.5"/>
<ellipse cx="385.173" cy="809.407" rx="38.7906" ry="10.2536" fill="#D9D9D9"/>
<path d="M346.259 801.13V809.407" stroke="black"/>
<path d="M351.818 839.673L365.407 818.054H378.008L370.349 840.785V947.645C360.664 946.755 353.96 944.062 351.818 942.827V839.673Z" fill="#95A7FB" fill-opacity="0.3"/>
<path d="M407.837 798.851C411.185 798.702 414.191 798.669 416.721 798.892C419.265 799.117 421.241 799.596 422.587 800.413C422.828 800.559 423.091 800.959 423.271 801.764C423.442 802.532 423.501 803.495 423.495 804.509C423.49 805.516 423.421 806.536 423.353 807.405C423.287 808.243 423.215 809.004 423.215 809.407C423.215 810.414 422.43 811.568 420.519 812.762C418.646 813.932 415.887 815.013 412.411 815.932C405.47 817.767 395.84 818.911 385.174 818.911C374.508 818.911 364.877 817.767 357.937 815.932C354.461 815.013 351.701 813.932 349.829 812.762C347.918 811.568 347.134 810.414 347.134 809.407C347.134 809.01 347.07 808.253 347.015 807.415C346.958 806.547 346.905 805.528 346.914 804.521C346.924 803.507 346.998 802.543 347.18 801.774C347.371 800.968 347.638 800.562 347.884 800.413C349.23 799.596 351.199 799.117 353.731 798.892C356.249 798.669 359.239 798.702 362.572 798.851C369.199 799.147 377.196 799.903 385.174 799.903C393.152 799.903 401.179 799.147 407.837 798.851Z" fill="#95A7FB" stroke="#5B3DA8" stroke-width="1.5"/>
<path d="M385.174 791.75C395.84 791.75 405.47 792.894 412.411 794.729C415.887 795.647 418.646 796.728 420.518 797.898C422.43 799.093 423.214 800.247 423.214 801.254C423.213 802.261 422.429 803.414 420.518 804.608C418.646 805.778 415.887 806.86 412.411 807.779C405.47 809.614 395.84 810.757 385.174 810.757C374.507 810.757 364.876 809.614 357.935 807.779C354.46 806.861 351.701 805.778 349.829 804.608C347.918 803.414 347.133 802.261 347.133 801.254C347.133 800.247 347.917 799.093 349.829 797.898C351.701 796.728 354.46 795.647 357.935 794.729C364.876 792.894 374.507 791.75 385.174 791.75Z" fill="#BDCCF2" stroke="#5B3DA8" stroke-width="1.5"/>
<path d="M1057.5 569.553L1078.36 544.694H1119.33L1138.5 569.553V652.659C1117.35 669.344 1076.46 666.668 1057.5 652.659V569.553Z" fill="#BDCCF2" stroke="#5B3DA8" stroke-width="1.5"/>
<ellipse cx="1099" cy="544.694" rx="33.0741" ry="8.74252" fill="#D9D9D9"/>
<path d="M1065.82 537.637V544.694" stroke="black"/>
<path d="M1070.56 570.5L1082.15 552.067H1092.89L1086.36 571.448V662.56C1078.1 661.802 1072.39 659.506 1070.56 658.452V570.5Z" fill="#95A7FB" fill-opacity="0.3"/>
<path d="M1118.33 535.804C1121.18 535.677 1123.74 535.649 1125.89 535.839C1128.05 536.03 1129.72 536.437 1130.84 537.12C1131.01 537.22 1131.22 537.522 1131.38 538.202C1131.52 538.844 1131.57 539.657 1131.56 540.518C1131.56 541.373 1131.5 542.238 1131.44 542.978C1131.39 543.688 1131.33 544.345 1131.33 544.694C1131.33 545.493 1130.7 546.447 1129.08 547.461C1127.5 548.45 1125.16 549.369 1122.2 550.151C1116.29 551.712 1108.09 552.686 1099 552.686C1089.91 552.686 1081.71 551.712 1075.81 550.151C1072.85 549.369 1070.51 548.45 1068.92 547.461C1067.3 546.447 1066.68 545.493 1066.68 544.694C1066.68 544.351 1066.62 543.698 1066.58 542.988C1066.53 542.249 1066.48 541.383 1066.49 540.529C1066.5 539.668 1066.56 538.855 1066.71 538.212C1066.87 537.531 1067.09 537.223 1067.26 537.12C1068.39 536.437 1070.05 536.03 1072.2 535.839C1074.34 535.649 1076.89 535.677 1079.73 535.804C1085.37 536.057 1092.2 536.702 1099 536.702C1105.81 536.702 1112.66 536.057 1118.33 535.804Z" fill="#95A7FB" stroke="#5B3DA8" stroke-width="1.5"/>
<path d="M1099 529.75C1108.09 529.75 1116.29 530.725 1122.2 532.286C1125.15 533.068 1127.49 533.986 1129.08 534.976C1130.7 535.989 1131.32 536.944 1131.32 537.742C1131.32 538.541 1130.7 539.496 1129.08 540.51C1127.49 541.499 1125.15 542.417 1122.2 543.199C1116.29 544.76 1108.09 545.735 1099 545.735C1089.91 545.735 1081.71 544.76 1075.81 543.199C1072.85 542.417 1070.51 541.499 1068.92 540.51C1067.3 539.496 1066.68 538.541 1066.68 537.742C1066.68 536.944 1067.3 535.989 1068.92 534.976C1070.51 533.986 1072.85 533.068 1075.81 532.286C1081.71 530.725 1089.91 529.75 1099 529.75Z" fill="#BDCCF2" stroke="#5B3DA8" stroke-width="1.5"/>
<path d="M1000.5 594.542L1017.24 574.594H1050.12L1065.5 594.542V661.233C1048.53 674.622 1015.71 672.475 1000.5 661.233V594.542Z" fill="#BDCCF2" stroke="#5B3DA8" stroke-width="1.5"/>
<ellipse cx="1033.8" cy="574.594" rx="26.541" ry="7.01561" fill="#D9D9D9"/>
<path d="M1007.18 568.931V574.594" stroke="black"/>
<path d="M1010.98 595.303L1020.28 580.511H1028.9L1023.66 596.064V669.178C1017.03 668.57 1012.45 666.727 1010.98 665.882V595.303Z" fill="#95A7FB" fill-opacity="0.3"/>
<path d="M1049.32 567.609C1051.61 567.507 1053.65 567.484 1055.37 567.635C1057.1 567.788 1058.41 568.112 1059.28 568.642C1059.36 568.69 1059.52 568.879 1059.64 569.417C1059.75 569.916 1059.79 570.555 1059.79 571.242C1059.78 571.922 1059.74 572.613 1059.69 573.206C1059.65 573.768 1059.59 574.306 1059.59 574.594C1059.59 575.155 1059.15 575.882 1057.86 576.689C1056.61 577.472 1054.75 578.204 1052.38 578.83C1047.66 580.079 1041.09 580.86 1033.8 580.86C1026.52 580.86 1019.95 580.079 1015.23 578.83C1012.86 578.204 1011 577.472 1009.75 576.689C1008.45 575.882 1008.01 575.155 1008.01 574.594C1008.01 574.313 1007.97 573.778 1007.93 573.216C1007.89 572.624 1007.86 571.933 1007.86 571.254C1007.87 570.567 1007.92 569.927 1008.04 569.427C1008.17 568.889 1008.33 568.693 1008.41 568.642C1009.29 568.112 1010.59 567.788 1012.31 567.635C1014.02 567.484 1016.05 567.507 1018.33 567.609C1022.85 567.811 1028.34 568.329 1033.8 568.329C1039.27 568.329 1044.78 567.811 1049.32 567.609Z" fill="#95A7FB" stroke="#5B3DA8" stroke-width="1.5"/>
<path d="M1033.8 562.75C1041.09 562.75 1047.65 563.532 1052.38 564.78C1054.75 565.406 1056.61 566.138 1057.86 566.921C1059.15 567.728 1059.59 568.455 1059.59 569.016C1059.59 569.576 1059.15 570.303 1057.86 571.11C1056.61 571.893 1054.75 572.625 1052.38 573.251C1047.65 574.5 1041.09 575.281 1033.8 575.281C1026.52 575.281 1019.95 574.5 1015.23 573.251C1012.86 572.625 1011 571.893 1009.74 571.11C1008.45 570.303 1008.01 569.576 1008.01 569.016C1008.01 568.455 1008.45 567.728 1009.74 566.921C1011 566.138 1012.86 565.406 1015.23 564.78C1019.95 563.532 1026.52 562.75 1033.8 562.75Z" fill="#BDCCF2" stroke="#5B3DA8" stroke-width="1.5"/>
<path d="M1395.5 1074.35L1343.5 1109V949.988L1393.3 930L1395.5 1074.35Z" fill="#6F58D6" stroke="#5B3DA8" stroke-width="1.5"/>
<path d="M1126.26 864L1084.5 891.041L1311.96 923.845L1343.06 950L1355.5 945.124L1319.96 912.32L1351.95 901.237V894.144L1126.26 864Z" fill="#BB8FEC" stroke="#5B3DA8" stroke-width="1.5"/>
<path d="M1100.94 880L1084.5 890.701L1311.96 923.694L1343.06 950L1355.5 945.096L1319.96 912.102L1100.94 880Z" fill="#9F7FFB" stroke="#5B3DA8" stroke-width="1.5"/>
<path d="M1367.5 1093L1343.5 1109V949.889L1365.75 941L1367.5 1093Z" fill="#463477" stroke="#5B3DA8" stroke-width="1.5"/>
<path d="M1084.52 891L1068.5 900.768V1047.29L1343.5 1109V950.051L1312.35 923.855L1084.52 891Z" fill="#9C7CE6" stroke="#5B3DA8" stroke-width="1.5"/>
<path d="M1315.5 965.698L1088.5 928V1037.55L1315.5 1085V965.698Z" fill="#9B7DE7" stroke="#5B3DA8" stroke-width="1.5"/>
<path d="M1184.5 927.875V906L1223.5 911.25L1223.05 934L1184.5 927.875Z" fill="#463477" stroke="#5B3DA8" stroke-width="1.5"/>
<path d="M1319.5 912.111L1355.38 945L1393.5 929.889L1351.79 901L1319.5 912.111Z" fill="#6756D7" stroke="#5B3DA8" stroke-width="1.5"/>
<path d="M859.202 775L733.5 797.909L812.625 811L944.5 784.273L859.202 775Z" fill="#C089ED" stroke="#5B3DA8" stroke-width="1.5"/>
<path d="M733.5 952.849L812.5 972V932.057L733.5 914V952.849Z" fill="#EDA1E7" stroke="#5B3DA8" stroke-width="1.5"/>
<path d="M733.5 914.086L812.5 932V892.914L733.5 875V914.086Z" fill="#D79EE5" stroke="#5B3DA8" stroke-width="1.5"/>
<path d="M733.5 874.771L812.5 893V853.229L733.5 835V874.771Z" fill="#F7B0CC" stroke="#5B3DA8" stroke-width="1.5"/>
<path d="M733.5 834.85L812.5 853V811.2L733.5 798V834.85Z" fill="#DB95EF" stroke="#5B3DA8" stroke-width="1.5"/>
<path d="M812.5 972V810.936L944.5 784V930.772L812.5 972Z" fill="#9470E7" stroke="#5B3DA8" stroke-width="1.5"/>
<path d="M836.5 875V838.485L922.5 819V851.565L836.5 875Z" stroke="#5B3DA8" stroke-width="1.5"/>
<path d="M836.5 917V875.077L922.5 851V892.25L836.5 917Z" fill="#9472E8" stroke="#5B3DA8" stroke-width="1.5"/>
<path d="M835.5 965L836.069 917.159L922.5 893V938.273L835.5 965Z" fill="#7260DF" stroke="#5B3DA8" stroke-width="1.5"/>
<path d="M812.5 811.222V844L944.5 813.444V784L812.5 811.222Z" fill="#7B66E0" stroke="#5B3DA8" stroke-width="1.5"/>
<path d="M836.5 838L812.5 843.492V972L835.942 964.861L836.5 838Z" fill="#7260DF" stroke="#5B3DA8" stroke-width="1.5"/>
<path d="M931 905L965 914L1017 891.5L1018.5 871.5L931 905Z" fill="#C089ED" stroke="#5B3DA8" stroke-width="1.5"/>
<path d="M860.5 961.5V886.5L965 914V995.5L860.5 961.5Z" fill="#D79EE5" stroke="#5B3DA8" stroke-width="1.5"/>
<path d="M1012.5 853L891.5 894.5L930.5 905L1019 871.5L1027.5 856.5L1012.5 853Z" fill="#F7B0CC" stroke="#5B3DA8" stroke-width="1.5"/>
<path d="M980 847L860.5 886.5L891 894.5L1013 853L980 847Z" fill="#D79EE5" stroke="#5B3DA8" stroke-width="1.5"/>
<path d="M860.5 937.5V913.5L965 941.5V966L860.5 937.5Z" fill="#EDA1E7" stroke="#5B3DA8" stroke-width="1.5"/>
<path d="M860.5 913.5V886.5L965 914V941.5L860.5 913.5Z" fill="#D99FE7" stroke="#5B3DA8" stroke-width="1.5"/>
<path d="M1019.5 972L965 995.5V914L1019.5 890.5V972Z" fill="#866AE5" stroke="#5B3DA8" stroke-width="1.5"/>
<path d="M1004.5 1043.49V774L1046.5 779.754V1055L1004.5 1043.49Z" fill="#F7B0CC" stroke="#5B3DA8" stroke-width="1.5"/>
<path d="M1088.5 1014.5L1252 1047" stroke="#5B3DA8" stroke-width="1.5"/>
<path d="M1151.5 998L1315 1030.5" stroke="#5B3DA8" stroke-width="1.5"/>
<rect x="848.25" y="392.75" width="242.5" height="11.5" fill="#C4CDFA" stroke="#5B3DA8" stroke-width="1.5"/>
<path d="M437.5 710L413.5 742.5L474 723.5V710H437.5Z" fill="white" stroke="#5B3DA8" stroke-width="1.5"/>
<path d="M1108 648.5L1132 616L1071.5 635V648.5H1108Z" fill="white" stroke="#5B3DA8" stroke-width="1.5"/>
<path d="M486 718L510 750.5L449.5 731.5V718H486Z" fill="white" stroke="#5B3DA8" stroke-width="1.5"/>
<path d="M484.5 706V731.5L510.5 726L484.5 706Z" fill="white" stroke="#5B3DA8" stroke-width="1.5"/>
<path d="M411.5 713V738.5L437.5 733L411.5 713Z" fill="white" stroke="#5B3DA8" stroke-width="1.5"/>
<path d="M1011.5 635V660.5L1037.5 655L1011.5 635Z" fill="white" stroke="#5B3DA8" stroke-width="1.5"/>
<path d="M469.224 759.01L472.931 733.781L446.408 735.442L469.224 759.01Z" fill="white" stroke="#5B3DA8" stroke-width="1.5"/>
<path d="M460.853 728.105L435.686 724L436.928 750.546L460.853 728.105Z" fill="white" stroke="#5B3DA8" stroke-width="1.5"/>
<path d="M1045 625L1033.5 628.5L1045 653.5H1053L1045 625Z" fill="white" stroke="#5B3DA8" stroke-width="1.5"/>
<path d="M1076.08 614.916L1084.36 623.631L1101.56 602.153L1097.98 595L1076.08 614.916Z" fill="white" stroke="#5B3DA8" stroke-width="1.5"/>
<path d="M1046.97 649.916L1033.04 647L1032.5 664.539L1046.97 649.916Z" fill="white" stroke="#5B3DA8" stroke-width="1.5"/>
<path d="M593 423V526" stroke="#5B3DA8" stroke-width="1.5"/>
<path d="M631 611.5V477.5" stroke="#5B3DA8" stroke-width="1.5"/>
<path d="M1440 790L1110 747L1085 674L1093.5 653L1440 683.5V790Z" fill="#D9A1E4" fill-opacity="0.8"/>
<path d="M1145 633.315C1117.8 620.24 1090 630.462 1079.5 637.207L1101.5 657.441L1128.5 644.989L1145 633.315Z" fill="#C2B3ED" stroke="#5B3DA8" stroke-width="1.5"/>
<path d="M1079.5 675.341V637.206C1111.9 651.526 1136.67 640.579 1145 633.315L1146.5 676.898C1115.7 698.689 1089 684.94 1079.5 675.341Z" fill="#8A91ED" stroke="#5B3DA8" stroke-width="1.5"/>
<path d="M1102 658.057C1074.8 649.657 1047 656.224 1036.5 660.557L1058.5 673.557L1085.5 665.557L1102 658.057Z" fill="#C2B3ED" stroke="#5B3DA8" stroke-width="1.5"/>
<path d="M1036.5 685.057V660.557C1068.9 669.757 1093.67 662.724 1102 658.057L1103.5 686.057C1072.7 700.057 1046 691.224 1036.5 685.057Z" fill="#816DCE" stroke="#5B3DA8" stroke-width="1.5"/>
<path d="M259.797 1100.9C284 1112 312.324 1106.26 316.5 1100.9V39.3125V28H256.5V1021.71L259.797 1100.9Z" fill="#8064BF" stroke="#5B3DA8" stroke-width="1.5"/>
<path d="M-0.5 108H1441.5V175H-0.5V108Z" fill="#5F489D"/>
<path d="M257 107.5H316" stroke="#5B3DA8" stroke-width="1.5"/>
<path d="M327 100H248.497L248 107H327V100Z" fill="#7B5FBC"/>
</svg>
