<svg width="88" height="145" viewBox="0 0 88 145" fill="none" xmlns="http://www.w3.org/2000/svg">
<path d="M0.75 43.0561L22.893 16.6633H66.3963L86.75 43.0561V131.293C64.2938 149.007 20.88 146.167 0.75 131.293V43.0561Z" fill="#BDCCF2" stroke="#5B3DA8" stroke-width="1.5"/>
<ellipse cx="44.8123" cy="16.663" rx="35.1157" ry="9.28219" fill="#D9D9D9"/>
<path d="M9.58423 9.17041V16.6633" stroke="black"/>
<path d="M14.6174 44.0623L26.9191 24.4915H38.3261L31.3925 45.0688V141.805C22.6247 141 16.5559 138.562 14.6174 137.443V44.0623Z" fill="#95A7FB" fill-opacity="0.3"/>
<path d="M78.772 8.69067C78.932 8.86286 79.103 9.19174 79.23 9.76001C79.3835 10.447 79.437 11.3138 79.4321 12.2297C79.4273 13.1384 79.366 14.059 79.3042 14.845C79.2448 15.6003 79.1782 16.2949 79.1782 16.6633C79.1781 17.5364 78.4963 18.5617 76.771 19.6399C75.0847 20.6937 72.595 21.6703 69.4517 22.5012C63.1758 24.1601 54.4644 25.1955 44.813 25.1956C35.1615 25.1956 26.4493 24.1601 20.1733 22.5012C17.0301 21.6703 14.5402 20.6937 12.854 19.6399C11.1288 18.5617 10.4469 17.5364 10.4468 16.6633C10.4468 16.3014 10.3889 15.6106 10.3394 14.8547C10.2879 14.0696 10.2399 13.1491 10.2485 12.2405C10.2572 11.3249 10.3238 10.458 10.4868 9.76978C10.6222 9.19835 10.7988 8.86521 10.9634 8.69067H78.772ZM65.3315 7.17896C68.2183 7.05044 70.821 7.01911 73.0366 7.19067H65.1001C65.1775 7.18711 65.2546 7.18238 65.3315 7.17896ZM16.6812 7.19067C18.8863 7.01914 21.4756 7.05044 24.3491 7.17896C24.4258 7.18238 24.5025 7.18711 24.5796 7.19067H16.6812Z" fill="#95A7FB" stroke="#5B3DA8" stroke-width="1.5"/>
<path d="M44.8127 0.75C54.4641 0.750034 63.1756 1.78446 69.4514 3.44336C72.5946 4.27422 75.0845 5.25093 76.7708 6.30469C78.4962 7.383 79.178 8.4091 79.178 9.28223C79.178 10.1553 78.4961 11.1805 76.7708 12.2588C75.0845 13.3126 72.5948 14.2892 69.4514 15.1201C63.1756 16.779 54.4641 17.8144 44.8127 17.8145C35.1612 17.8145 26.449 16.779 20.1731 15.1201C17.0298 14.2892 14.54 13.3126 12.8538 12.2588C11.1284 11.1805 10.4466 10.1553 10.4465 9.28223C10.4465 8.4091 11.1283 7.383 12.8538 6.30469C14.54 5.25093 17.0299 4.27422 20.1731 3.44336C26.449 1.78444 35.1612 0.75 44.8127 0.75Z" fill="#BDCCF2" stroke="#5B3DA8" stroke-width="1.5"/>
</svg>
