<svg width="386" height="356" viewBox="0 0 386 356" fill="none" xmlns="http://www.w3.org/2000/svg">
<path d="M197.988 347L52.4484 301.2L25.9034 237.995L16.75 133.571L25.9034 73.1141L109.657 58L351.308 73.1141L362.75 193.111L336.205 301.2L197.988 347Z" fill="#BF98EB" stroke="#5B3DA8" stroke-width="1.5" stroke-linejoin="bevel"/>
<rect x="171.5" y="123.75" width="43.5" height="204.5" fill="#A168C9" stroke="#5B3DA8" stroke-width="1.5"/>
<path d="M246.75 227.353V125.787L311.637 112V210.809L315.75 217.702L291.075 317.889L249.492 328L253.147 231.03L246.75 227.353Z" fill="#AE86DB" stroke="#5B3DA8" stroke-width="1.5" stroke-linejoin="bevel"/>
<path d="M137.75 227.108V125.758L71.9222 112V210.599L67.75 217.478L90.9288 317.452L131.26 328V230.777L137.75 227.108Z" fill="#AE86DB" stroke="#5B3DA8" stroke-width="1.5" stroke-linejoin="bevel"/>
<path d="M322.75 301C348.482 260.43 353.051 147.94 352.118 96.7661L384.75 94C384.75 179.29 367.502 238.301 358.179 267.345L322.75 301Z" fill="#AE86DB" stroke="#5B3DA8" stroke-width="1.5" stroke-linejoin="bevel"/>
<path d="M61.75 301C36.4327 260.43 31.938 147.94 32.8553 96.7661L0.75 94C0.75 179.29 17.7199 238.301 26.8929 267.345L61.75 301Z" fill="#AE86DB" stroke="#5B3DA8" stroke-width="1.5" stroke-linejoin="bevel"/>
<path d="M0.962312 94.9828C0.227791 93.868 1.57441 69.4368 2.33954 57.3605C95.9912 132.605 369.6 105.666 381.996 49C382.363 51.601 383.985 80.4293 384.75 94.5183C179.543 184.626 1.88046 96.3762 0.962312 94.9828Z" fill="#7A7BE3" stroke="#5B3DA8" stroke-width="1.5" stroke-linejoin="bevel"/>
<path d="M54.6877 315.735C41.2066 306.379 25.7499 279.76 25.75 262C80.4095 342.603 318.799 328.776 358.75 265.643C358.75 272.018 358.75 314.824 304.55 334.861C223.31 364.894 123.586 363.55 54.6877 315.735Z" fill="#8C87E3" stroke="#5B3DA8" stroke-width="1.5" stroke-linejoin="bevel"/>
<path d="M11.3565 201.201C3.98515 184.998 3.21899 172.036 3.98668 160C79.9882 249.808 319.969 232.217 381.691 160.463C382.06 163.055 380.77 183.609 375.703 199.349C208.96 308.137 20.413 221.107 11.3565 201.201Z" fill="#5B3DA8" stroke="#5B3DA8" stroke-width="1.5" stroke-linejoin="bevel"/>
<path d="M11.3565 201.201C3.98515 184.998 3.21899 172.036 3.98668 160C79.9882 249.808 319.969 232.217 381.691 160.463C382.06 163.055 380.77 183.609 375.703 199.349C208.96 308.137 20.413 221.107 11.3565 201.201Z" fill="#A7B7F7" stroke="#5B3DA8" stroke-width="1.5" stroke-linejoin="bevel"/>
<path d="M191.75 0.75C244.446 0.75 292.127 6.56595 326.61 15.9541C343.857 20.6496 357.76 26.2274 367.334 32.3896C376.942 38.5738 382 45.2181 382 52C382 58.7819 376.942 65.4262 367.334 71.6104C357.76 77.7726 343.857 83.3504 326.61 88.0459C292.127 97.4341 244.446 103.25 191.75 103.25C139.054 103.25 91.3731 97.4341 56.8896 88.0459C39.6428 83.3504 25.7397 77.7726 16.166 71.6104C6.5584 65.4262 1.5 58.7819 1.5 52C1.5 45.2181 6.5584 38.5738 16.166 32.3896C25.7397 26.2274 39.6428 20.6496 56.8896 15.9541C91.3731 6.56595 139.054 0.75 191.75 0.75Z" fill="#E9A4D9" stroke="#5B3DA8" stroke-width="1.5"/>
<path d="M190.25 17.75C234.534 17.75 274.603 21.6651 303.581 27.9844C318.076 31.1453 329.755 34.8991 337.793 39.043C341.813 41.1155 344.885 43.2672 346.942 45.46C348.996 47.649 350 49.8332 350 52C350 54.1668 348.996 56.351 346.942 58.54C344.885 60.7328 341.813 62.8845 337.793 64.957C329.755 69.1009 318.076 72.8547 303.581 76.0156C274.603 82.3349 234.534 86.25 190.25 86.25C145.966 86.25 105.897 82.3349 76.9189 76.0156C62.4241 72.8547 50.7446 69.1009 42.707 64.957C38.6872 62.8845 35.6152 60.7328 33.5576 58.54C31.5036 56.351 30.5 54.1668 30.5 52C30.5 49.8332 31.5036 47.649 33.5576 45.46C35.6152 43.2672 38.6872 41.1155 42.707 39.043C50.7446 34.8991 62.4241 31.1453 76.9189 27.9844C105.897 21.6651 145.966 17.75 190.25 17.75Z" fill="#EB8DD7" stroke="#5B3DA8" stroke-width="1.5"/>
</svg>
