<svg width="161" height="154" viewBox="0 0 161 154" fill="none" xmlns="http://www.w3.org/2000/svg">
<path d="M80.5 0.75C124.576 0.75 160.25 34.9194 160.25 77C160.25 119.081 124.576 153.25 80.5 153.25C36.4235 153.25 0.75 119.081 0.75 77C0.75 34.9194 36.4235 0.75 80.5 0.75Z" fill="#AE86DB" stroke="#5B3DA8" stroke-width="1.5"/>
<path d="M80 17.75C115.536 17.75 144.25 44.5508 144.25 77.5C144.25 110.449 115.536 137.25 80 137.25C44.4641 137.25 15.75 110.449 15.75 77.5C15.75 44.5508 44.4641 17.75 80 17.75Z" fill="#FDFDFD" stroke="#5B3DA8" stroke-width="1.5"/>
<path d="M80 23V40" stroke="#5B3DA8" stroke-width="1.5"/>
<path d="M80 132V115" stroke="#5B3DA8" stroke-width="1.5"/>
<path d="M134.505 77.4951L117.505 77.4951" stroke="#5B3DA8" stroke-width="1.5"/>
<path d="M25.5049 77.4951L42.5049 77.4951" stroke="#5B3DA8" stroke-width="1.5"/>
<path d="M118.539 38.9592L106.518 50.98" stroke="#5B3DA8" stroke-width="1.5"/>
<path d="M41.464 116.034L53.4849 104.013" stroke="#5B3DA8" stroke-width="1.5"/>
<path d="M118.539 116.034L106.518 104.013" stroke="#5B3DA8" stroke-width="1.5"/>
<path d="M41.464 38.9592L53.4849 50.98" stroke="#5B3DA8" stroke-width="1.5"/>
</svg>
