<svg width="54" height="54" viewBox="0 0 54 54" fill="none" xmlns="http://www.w3.org/2000/svg">
<path d="M23.2518 3.84938L11.4172 3.04534L4.3868 1.90276L3.17601 12.313L6.3397 24.1197L0.949707 34.3607L8.13636 40.2005L6.3397 49.9337L14.4247 53.1498H23.2518L28.9152 47.4792L43.0151 49.9337L52.2718 47.4792L46.1397 35.1647L53.1701 25.6008L50.2017 15.3599V9.51999L44.6555 3.04534L34.0317 6.13456L27.7434 0.929443L23.2518 3.84938Z" fill="#AFC8FF" stroke="#5B3DA8" stroke-width="1.5"/>
<path d="M17.3112 41.366L14.5269 39.2341L37.1361 14.5068L39.3188 16.3218L17.3112 41.366Z" fill="#D9A1E4" stroke="#5B3DA8" stroke-width="1.5"/>
<path d="M36.535 40.3215L39.3193 38.1896L16.7101 13.4624L14.5274 15.2774L36.535 40.3215Z" fill="#D9A1E4" stroke="#5B3DA8" stroke-width="1.5"/>
</svg>
