<svg width="209" height="213" viewBox="0 0 209 213" fill="none" xmlns="http://www.w3.org/2000/svg">
<path d="M132.329 21.1328L174.823 8.59082L197.009 34.8779V58.5879L208.882 100.166L180.761 138.996L205.289 188.992L168.262 198.958L111.862 188.992L89.209 212.016H53.9004L21.5605 198.958L28.7471 159.441L0 135.731L21.5605 94.1533L8.90527 46.2178L13.749 3.95215L41.8701 8.59082L89.209 11.8555L107.176 0L132.329 21.1328ZM100.238 40.6895L98.4277 42.335L98.9316 42.8896L95.3115 46.1816L94.8076 45.627L91.1875 48.9189L91.6914 49.4736L88.0713 52.7656L87.5674 52.2119L83.9473 55.5039L84.4512 56.0576L80.8311 59.3496L80.3271 58.7959L76.707 62.0879L77.2109 62.6416L73.5908 65.9336L73.0869 65.3799L69.4668 68.6719L69.9717 69.2266L66.3516 72.5186L65.8467 71.9639L62.2275 75.2559L62.7314 75.8105L59.1113 79.1025L58.6074 78.5479L54.9873 81.8398L55.4912 82.3945L51.8711 85.6865L51.3672 85.1318L47.7471 88.4238L48.251 88.9785L44.6309 92.2705L44.127 91.7158L42.3164 93.3623L42.1025 94.1328L42.834 96.5674L43.5527 96.3516V96.3506L45.0146 101.22H45.0156L44.2969 101.436L45.7598 106.304L46.4775 106.088V106.087L47.9404 110.955L47.2227 111.172L48.6846 116.04L49.4033 115.824V115.823L50.8662 120.691L50.1475 120.908L50.8701 123.314H50.8711L51.5293 125.853L52.2559 125.664V125.663L53.5723 130.739L52.8457 130.929L54.1621 136.004L54.8877 135.815L56.2041 140.891L55.4785 141.08L56.7949 146.155L57.5205 145.968V145.967L58.8369 151.042L58.1113 151.231L59.4277 156.307L60.1533 156.119V156.118L61.4697 161.193L60.7441 161.383L62.0605 166.459L62.7861 166.271V166.27L64.1016 171.346H64.1025L63.377 171.534L64.0352 174.072L65.1523 174.523L67.4014 173.146L67.0098 172.507L71.5068 169.753L71.8994 170.394L76.3965 167.641L76.0039 167L80.502 164.246L80.8945 164.887L85.3926 162.134L85 161.493L89.4971 158.739L89.8896 159.38L94.3877 156.627L93.9951 155.986L98.4922 153.232L98.8848 153.873L100.828 152.684L103.096 153.491L103.348 152.785V152.784L108.559 154.64L108.307 155.347L113.518 157.202L113.77 156.496V156.495L118.979 158.351L118.729 159.058L123.939 160.913L124.19 160.207V160.206L129.401 162.062L129.149 162.769L134.36 164.625L134.611 163.918L139.822 165.772L139.571 166.48L142.177 167.408L142.474 167.45L145.436 167.271L145.39 166.521L151.313 166.162L151.359 166.911L157.283 166.552L157.237 165.804L157.236 165.803L163.16 165.443L163.161 165.444L163.207 166.193L166.169 166.014L166.676 164.758L165.042 162.975L164.488 163.48L161.22 159.913L161.772 159.407L158.504 155.84L157.95 156.346L154.682 152.778L155.234 152.272L151.966 148.705L151.412 149.211L148.144 145.644L148.696 145.138L145.428 141.57L144.874 142.076L141.605 138.509L142.158 138.003L138.89 134.436L138.336 134.941L135.067 131.374L135.62 130.868L132.352 127.301L131.798 127.807L128.529 124.239L129.082 123.733L125.813 120.166L125.26 120.672L121.991 117.104L122.544 116.599L119.275 113.031L118.722 113.537L115.453 109.97L116.006 109.464L112.737 105.896L112.184 106.402L108.915 102.835L109.468 102.329L106.199 98.7617L105.645 99.2676L102.376 95.7002H102.377L102.93 95.1943L102.068 94.2539L102.961 93.9482L102.717 93.2383L106.666 91.8818L106.91 92.5908L110.859 91.2344L110.615 90.5254L110.614 90.5244L114.564 89.168L114.809 89.8779L118.758 88.5215L118.514 87.8115L122.462 86.4541L122.463 86.4551L122.706 87.1641L124.226 86.6416L125.832 88.3291L126.375 87.8115V87.8105L130.251 91.8818H130.252L129.708 92.3994L133.584 96.4697L134.127 95.9521L138.004 100.021L137.46 100.539L141.337 104.609L141.88 104.093V104.092L145.756 108.162L145.213 108.68L147.15 110.715L148.308 110.629L149.651 108.713L149.037 108.282L149.036 108.281L151.725 104.451L152.339 104.882L155.026 101.052L154.413 100.621L154.412 100.62L157.1 96.7891L157.101 96.79L157.714 97.2207L160.402 93.3896L159.787 92.958L162.475 89.1279L163.09 89.5596L165.777 85.7285L165.162 85.2969L167.851 81.4668L168.465 81.8975L169.809 79.9824L169.83 79.1533L168.331 76.7598L167.694 77.1572L164.696 72.3691L165.333 71.9707L162.334 67.1826L161.698 67.5791L158.699 62.792L159.336 62.3945L156.337 57.6055L155.701 58.0029L152.703 53.2139L153.339 52.8174L151.84 50.4229L151.344 50.084L148.82 49.6055L148.681 50.3408L143.635 49.3838L143.774 48.6475L138.729 47.6904L138.589 48.4258L133.542 47.4678L133.683 46.7324L128.636 45.7744L128.496 46.5107L123.45 45.5527L123.59 44.8164L118.544 43.8594L118.404 44.5957H118.403L113.357 43.6377L113.498 42.9014L108.451 41.9434L108.312 42.6797L103.265 41.7227H103.266L103.405 40.9863L100.882 40.5068L100.238 40.6895Z" fill="#DEE8FF" fill-opacity="0.6"/>
</svg>
