<svg width="209" height="209" viewBox="0 0 209 209" fill="none" xmlns="http://www.w3.org/2000/svg">
<path d="M132.329 20.8203L174.823 8.46387L197.009 34.3623V57.7217L208.882 98.6855L180.761 136.941L205.289 186.199L168.262 196.017L111.862 186.199L89.209 208.882H53.9004L21.5605 196.017L28.7471 157.084L0 133.725L21.5605 92.7607L8.90527 45.5342L13.749 3.89355L41.8701 8.46387L89.209 11.6797L107.176 0L132.329 20.8203ZM112.761 37.2432L111.314 39.9287L111.975 40.2842L109.081 45.6572L108.421 45.3018L105.528 50.6738L106.188 51.0283L103.294 56.4014L102.635 56.0469L101.417 58.3096L99.3926 58.1807L99.3447 58.9287L99.3438 58.9297L94.3369 58.6113L94.3379 58.6104L94.3848 57.8623L89.3779 57.5439L89.3301 58.292L89.3291 58.293L84.3223 57.9746L84.3232 57.9736L84.3701 57.2256L79.3633 56.9072L79.3154 57.6553L79.3145 57.6562L74.3066 57.3379L74.3076 57.3369L74.3555 56.5889L69.3486 56.2705L69.3008 57.0186L69.2998 57.0195L64.292 56.7012L64.293 56.7002L64.3408 55.9521L59.333 55.6338L59.2861 56.3818L59.2852 56.3828L54.2773 56.0645L54.2783 56.0635L54.3262 55.3154L49.3184 54.9971L49.2715 55.7451L49.2705 55.7461L44.2627 55.4277L44.2637 55.4268L44.3115 54.6787L41.8076 54.5195L41.1104 55.6436L42.4736 58.001L43.1221 57.626L45.8486 62.3418L45.2002 62.7168L47.9268 67.4326L48.5742 67.0576L51.3008 71.7734L50.6523 72.1484L53.3789 76.8643L54.0273 76.4893L56.7529 81.2051L56.1055 81.5801L58.8311 86.2959L59.4795 85.9209L62.2061 90.6367L61.5576 91.0117L62.7148 93.0137L61.6592 95.0352L62.3223 95.3818L59.8301 100.157L59.166 99.8105L56.6738 104.587L57.3379 104.933L54.8447 109.708L54.1807 109.362L51.6885 114.138L52.3525 114.483L49.8604 119.259L49.1963 118.913L46.7031 123.688L47.3672 124.035L44.875 128.811L44.2109 128.464L41.7188 133.24L42.3818 133.586L39.8896 138.361L39.2256 138.016L37.9795 140.403L38.8418 141.474L41.29 140.805L41.0928 140.082L41.0918 140.081L45.9883 138.744L46.1865 139.468L51.082 138.131L50.8838 137.406L55.7793 136.069L55.7803 136.07L55.9785 136.794L60.874 135.456L60.6768 134.733L60.6758 134.732L65.5732 133.396L65.7705 134.119L70.667 132.782L70.4688 132.059L75.3643 130.721L75.5625 131.445L80.459 130.107L80.2607 129.385L80.2598 129.384L85.1572 128.047L85.3545 128.771L87.0498 128.309L87.4307 129.965L88.1602 129.796L89.2734 134.632L88.5439 134.8L89.6562 139.635L90.3857 139.467L91.499 144.302L90.7695 144.47L91.8818 149.306L92.6113 149.137L93.7246 153.973L92.9941 154.141L94.1074 158.976L94.8369 158.808L95.9502 163.643L95.2197 163.812L95.7764 166.229L96.5078 166.811H99.1406V166.061H104.408V166.811H109.675V166.061H114.942V166.811H120.209V166.061H125.476V166.811H130.743V166.061H136.01V166.811H141.277V166.061H146.544V166.811H151.812V166.061H157.078V166.811H159.712L160.184 165.478L158.218 163.886L157.746 164.469H157.745L153.813 161.285L154.286 160.702L150.354 157.519L149.882 158.102L145.95 154.918L146.423 154.335L142.491 151.151L142.019 151.734L138.086 148.55L138.56 147.968L137.091 146.779L138.027 145.149L137.377 144.775L139.889 140.409L140.539 140.783L143.051 136.417L142.4 136.043L144.912 131.677L145.562 132.051L148.074 127.685L147.423 127.31L149.935 122.943L149.936 122.944L150.585 123.318L153.097 118.952L152.447 118.578L152.446 118.577L154.958 114.211L154.959 114.212L155.608 114.586L158.12 110.22L157.47 109.846L159.981 105.479L160.632 105.854L163.144 101.487L162.493 101.113L165.005 96.7471L165.655 97.1211L168.167 92.7549L167.517 92.3809L170.028 88.0146L170.679 88.3887L171.935 86.2051L171.988 85.5732L171.165 83.3281L170.46 83.5869L168.813 79.0967L169.518 78.8398L167.871 74.3506L167.166 74.6084L165.52 70.1201L166.225 69.8613L164.577 65.3721L163.873 65.6299L162.226 61.1416L162.931 60.8838L161.283 56.3945L160.579 56.6514L158.933 52.1641L159.637 51.9053L157.99 47.416L157.285 47.6748L155.639 43.1846L156.343 42.9277L155.52 40.6826L154.876 40.1934L152.289 39.9844L152.229 40.7324H152.228L147.053 40.3145L147.114 39.5664L141.94 39.1494L141.88 39.8965H141.879L136.704 39.4785L136.766 38.7314L131.592 38.3135L131.531 39.0605H131.53L126.355 38.6426L126.417 37.8955L121.243 37.4775L121.183 38.2246L116.009 37.8066L116.068 37.0596L113.481 36.8506L112.761 37.2432Z" fill="#DEE8FF" fill-opacity="0.6"/>
</svg>
