<svg width="210" height="209" viewBox="0 0 210 209" fill="none" xmlns="http://www.w3.org/2000/svg">
<path d="M132.99 20.8203L175.697 8.46289L197.993 34.3623V57.7217L209.927 98.6855L181.664 136.94L206.315 186.199L169.104 196.017L112.422 186.199L89.6543 208.881H54.1699L21.668 196.017L28.8906 157.084L0 133.725L21.668 92.7607L8.9502 45.5342L13.8174 3.89258L42.0801 8.46289L89.6543 11.6797L107.711 0L132.99 20.8203ZM48.6963 36.4482L48.335 38.9756L49.0762 39.0811L48.3525 44.1367L47.6113 44.0312L46.8877 49.0859L47.6299 49.1914L46.9062 54.2461L46.165 54.1416L45.4414 59.1963L46.1836 59.3027L45.46 64.3564L44.7188 64.251L43.9951 69.3066L44.7363 69.4121L44.0137 74.4678L43.2715 74.3613L42.5488 79.417L43.29 79.5225L42.5664 84.5771L41.8252 84.4717L41.1016 89.5273L41.8438 89.6318L41.1201 94.6875L40.3789 94.582L39.6553 99.6367L40.3975 99.7432L39.6738 104.798L38.9316 104.692L38.209 109.747L38.9502 109.853L38.2275 114.908L37.4854 114.803L37.124 117.33L37.6836 118.164L40.3271 118.825L40.5088 118.098V118.097L45.7949 119.421V119.422L45.6123 120.149L50.8975 121.474L51.0801 120.745L56.3652 122.069V122.07L56.1836 122.798L61.4688 124.121L61.6514 123.394V123.393L66.9365 124.717V124.718L66.7549 125.445L72.04 126.77L72.2227 126.042V126.041L77.5078 127.365V127.366L77.3262 128.094L79.5996 128.662L80.4307 130.689L81.124 130.405V130.404L83.0713 135.158V135.159L82.3779 135.443L84.3252 140.197L85.0186 139.913V139.912L86.9658 144.666V144.667L86.2725 144.952L88.2197 149.706L88.9131 149.422L90.8604 154.176L90.167 154.46L92.1143 159.214L92.8076 158.93L94.7549 163.685L94.0615 163.969L95.0352 166.346L95.9102 166.789L98.4697 166.153L98.2881 165.425L98.2871 165.424L103.406 164.151L103.588 164.881L108.707 163.608L108.524 162.879L113.644 161.606L113.645 161.608L113.825 162.336L118.944 161.063L118.762 160.335L123.881 159.062L124.062 159.791L129.182 158.519L128.999 157.79L134.118 156.518L134.3 157.246L139.419 155.974L139.236 155.245L144.355 153.973L144.537 154.701L149.656 153.43L149.474 152.7L154.593 151.428L154.774 152.157L159.894 150.885L159.712 150.156L164.83 148.884L165.012 149.612L167.571 148.976L168.041 147.875L166.678 145.498L166.026 145.871L163.3 141.117L163.951 140.744L161.226 135.989L160.575 136.362H160.574L157.848 131.608L158.499 131.235L155.772 126.481L155.122 126.854L152.396 122.1H152.396L153.047 121.727L150.32 116.973L149.669 117.346L146.943 112.591L147.594 112.219L146.434 110.195L147.493 108.152L146.825 107.807L149.318 102.992L149.985 103.338L152.478 98.5234L151.811 98.1777L154.304 93.3633L154.971 93.709L157.463 88.8945L156.796 88.5488L159.288 83.7344L159.955 84.0801L162.448 79.2656L161.781 78.9199L164.273 74.1055L164.94 74.4512L167.434 69.6377L166.767 69.291L169.259 64.4775L169.926 64.8232L171.172 62.416L170.458 61.3223L167.871 61.4883L167.918 62.2354L162.743 62.5664L162.696 61.8193L157.522 62.1494L157.569 62.8975L152.396 63.2285L152.348 62.4805L147.174 62.8115L147.221 63.5596L142.047 63.8906L142 63.1426L136.825 63.4736L136.872 64.2217L131.698 64.5518L131.651 63.8047L126.477 64.1357L126.523 64.8828L121.35 65.2139L121.303 64.4668L116.128 64.7979L116.175 65.5449L111.001 65.876L110.954 65.1289L105.779 65.46L105.826 66.207L100.652 66.5381L100.605 65.791L95.4307 66.1221L95.4775 66.8691L90.3037 67.2002L90.2568 66.4531L87.96 66.5996L86.2734 65.2422L85.8027 65.8262L81.9756 62.7441L82.4463 62.1602L78.6182 59.0791L78.1475 59.6631L74.3193 56.582H74.3203L74.79 55.998L70.9619 52.917L70.4922 53.501H70.4912L66.6631 50.4199L67.1348 49.8359L63.3066 46.7549L62.8359 47.3379L59.0078 44.2578L59.4785 43.6738L55.6514 40.5918L55.1797 41.1768L51.3525 38.0947L51.8232 37.5107L49.9092 35.9707L48.6963 36.4482Z" fill="#DEE8FF" fill-opacity="0.6"/>
</svg>
