<svg width="209" height="210" viewBox="0 0 209 210" fill="none" xmlns="http://www.w3.org/2000/svg">
<path d="M132.329 20.9248L174.823 8.50684L197.009 34.5342V58.0107L208.882 99.1797L180.761 137.626L205.289 187.131L168.262 196.997L111.862 187.131L89.209 209.927H53.9004L21.5605 196.997L28.7471 157.87L0 134.394L21.5605 93.2256L8.90527 45.7627L13.749 3.91309L41.8701 8.50684L89.209 11.7383L107.176 0L132.329 20.9248ZM104.456 39.335L103.01 42.0439L103.67 42.3955L100.777 47.8115L100.117 47.46L97.2236 52.876L97.8848 53.2285L94.9912 58.6445L94.3311 58.292L93.1133 60.5742L91.0908 60.4443L91.043 61.1914L86.0361 60.8711L86.084 60.123L81.0781 59.8027L81.0293 60.5498L76.0234 60.2285L76.0713 59.4814L71.0645 59.1602L71.0166 59.9082L66.0098 59.5869L66.0576 58.8398L61.0508 58.5186L61.0029 59.2656L55.9961 58.9453L56.0439 58.1973L51.0371 57.877L50.9893 58.624L45.9824 58.3027L46.0312 57.5557L41.0244 57.2354L40.9766 57.9824L35.9697 57.6611L36.0176 56.9141L33.5137 56.7539L32.8848 57.9756L34.5312 59.9971L35.1123 59.5244V59.5234L38.4062 63.5674V63.5684L37.8242 64.042L41.1182 68.0859L41.6992 67.6123V67.6113L44.9922 71.6553V71.6562L44.4111 72.1299L47.7041 76.1738L48.2852 75.7002L51.5781 79.7441H51.5791L50.998 80.2178L54.291 84.2617L54.8721 83.7881V83.7871L58.165 87.832L57.584 88.3057L60.8779 92.3506L61.459 91.877V91.876L64.752 95.9199V95.9209L64.1709 96.3945L65.8174 98.416L66.5459 98.6777L68.9492 98.1963L68.8018 97.4609L68.8008 97.46L73.6074 96.4971L73.7559 97.2334L78.5625 96.2705L78.4141 95.5342L83.2207 94.5713L83.3691 95.3076L88.1748 94.3447L88.0283 93.6094L88.0273 93.6084L92.833 92.6455L92.834 92.6465L92.9814 93.3818L97.7881 92.4189L97.6396 91.6826L102.446 90.7197L102.595 91.4561L107.401 90.4932L107.253 89.7568L112.06 88.7939L112.207 89.5303L112.984 89.375L112.423 90.3457L113.071 90.7197L110.29 95.5342L109.642 95.1602L106.86 99.9746L107.509 100.349L104.728 105.163L104.079 104.789L101.297 109.604L101.945 109.978L99.1641 114.792L98.5156 114.418L95.7344 119.232L96.3828 119.606L93.6006 124.421L92.9531 124.047L91.6982 126.219L89.4609 127.039L89.7178 127.742L84.7334 129.572L84.4766 128.869L79.4922 130.698L79.749 131.401L74.7646 133.23L74.5078 132.528L69.5225 134.357L69.7803 135.061L64.7959 136.89L64.5381 136.187L59.5537 138.017L59.8115 138.719L54.8271 140.549L54.5693 139.846L49.585 141.675L49.8428 142.378L44.8584 144.208L44.6006 143.505L42.1084 144.419L42.0186 145.787L44.3105 146.991L44.6582 146.327L49.2422 148.734H49.2432L48.8936 149.398L53.4775 151.806L53.8262 151.142V151.141L58.4102 153.548L58.0615 154.213L62.6455 156.62L62.9941 155.955L67.5781 158.362L67.2295 159.027L71.8135 161.435L72.1621 160.77L76.7461 163.177L76.3975 163.842L80.9814 166.249L81.3301 165.584L85.9141 167.991V167.992L85.5654 168.655L87.8574 169.859L88.6934 169.766L90.4961 168.225L90.0088 167.654L90.0078 167.653L93.6123 164.572L94.1006 165.144L97.7051 162.062L97.2168 161.491L100.822 158.41L101.311 158.981L104.915 155.9L104.427 155.329L108.031 152.248L108.032 152.249L108.52 152.818L112.125 149.737L111.638 149.168L111.637 149.167L115.241 146.085L115.242 146.086L115.729 146.656L119.334 143.575L118.846 143.004L122.451 139.923L122.939 140.494L124.181 139.434L125.388 140.805L125.951 140.31V140.309L129.344 144.16L128.781 144.656L132.175 148.508L132.737 148.012V148.011L136.131 151.862V151.863L135.568 152.359L138.962 156.211L139.523 155.715L142.917 159.566L142.355 160.062L145.749 163.914L146.311 163.418L149.704 167.27L149.143 167.766L150.839 169.691L152.148 169.125L151.903 166.525L151.157 166.596H151.156L150.667 161.396L151.414 161.326L150.925 156.126L150.177 156.196L149.688 150.997H149.688L150.435 150.927L149.945 145.728L149.198 145.797L148.708 140.598L149.456 140.527L148.966 135.328L148.219 135.398L147.729 130.199H147.73L148.477 130.129L147.987 124.929L147.239 124.999L146.75 119.8L147.498 119.729L147.275 117.366L148.53 115.164L147.878 114.793L147.877 114.792L150.622 109.978L151.274 110.35L154.019 105.535L153.366 105.163L156.11 100.349L156.111 100.35L156.764 100.722L159.508 95.9072L158.856 95.5352L158.855 95.5342L161.6 90.7197L161.601 90.7207L162.252 91.0928L163.624 88.6855L163.446 87.7324L161.75 86.3486L161.276 86.9287L157.882 84.1611L158.356 83.5801L154.963 80.8125L154.489 81.3926L151.096 78.624L151.569 78.0439L148.177 75.2754L147.702 75.8555L144.309 73.0879L144.783 72.5068L141.39 69.7393L140.915 70.3193L137.521 67.5508L137.996 66.9707L136.751 65.9551L137.396 64.5566L136.715 64.2422L136.714 64.2412L138.494 60.3896L139.176 60.7051L140.956 56.8535L140.274 56.5381L142.055 52.6865L142.736 53.002L144.517 49.1504L143.835 48.835L145.615 44.9834L146.297 45.2988L147.187 43.373L146.567 42.3115L143.98 42.1006L143.919 42.8477L138.746 42.4258L138.807 41.6797L133.633 41.2578L133.572 42.0049L128.397 41.584H128.398L128.46 40.8369L123.286 40.416L123.225 41.1621L118.052 40.7412L118.112 39.9941L112.938 39.5732L112.878 40.3203H112.877L107.704 39.8984L107.766 39.1514L105.179 38.9414L104.456 39.335Z" fill="#DEE8FF" fill-opacity="0.6"/>
</svg>
