<svg width="50" height="49" viewBox="0 0 50 49" fill="none" xmlns="http://www.w3.org/2000/svg">
<path d="M24.5356 0.46193L17.7871 8.54528L7.5215 7.85914L8.43753 17.8589L0.468959 24.7547L8.58704 31.2706L7.89641 41.4885L18.5441 40.3685L25.2678 48.1012L31.8197 40.4205L42.0853 41.1066L41.3681 30.9045L49.1378 24.2111L41.0175 17.495L41.7104 7.47729L31.4626 8.39254L24.5356 0.46193Z" fill="#EB8DD7" stroke="#5B3DA8" stroke-width="0.6"/>
<path d="M24.5982 6.06861L20.0121 9.63733L24.7822 22.4829L29.2632 9.53458L24.5982 6.06861Z" fill="#B4AFF2" stroke="#5B3DA8" stroke-width="0.6"/>
<path d="M43.1043 24.0818L39.5189 19.517L26.6132 24.2649L39.6222 28.725L43.1043 24.0818Z" fill="#EEBFE7" stroke="#5B3DA8" stroke-width="0.6"/>
<path d="M6.50083 24.4884L9.98303 19.8452L22.9919 24.3053L10.0863 29.0532L6.50083 24.4884Z" fill="#CEA8E6" stroke="#5B3DA8" stroke-width="0.6"/>
<path d="M11.6376 11.4706L10.93 17.2218L23.4287 22.9477L17.3985 10.6381L11.6376 11.4706Z" fill="#B4AFF2" stroke="#5B3DA8" stroke-width="0.6"/>
<path d="M37.7787 11.1804L38.615 16.9145L26.2478 22.9166L32.0005 10.4761L37.7787 11.1804Z" fill="#EEBFE7" stroke="#5B3DA8" stroke-width="0.6"/>
<path d="M25.0035 42.2008L20.3385 38.7348L24.8195 25.7865L29.5896 38.632L25.0035 42.2008Z" fill="#EEBFE7" stroke="#5B3DA8" stroke-width="0.6"/>
<path d="M11.9264 37.0901L11.09 31.356L23.4573 25.3539L17.7046 37.7944L11.9264 37.0901Z" fill="#CEA8E6" stroke="#5B3DA8" stroke-width="0.6"/>
<path d="M38.0665 36.7983L38.7741 31.0471L26.2754 25.3212L32.3056 37.6308L38.0665 36.7983Z" fill="#EEBFE7" stroke="#5B3DA8" stroke-width="0.6"/>
</svg>
