<svg width="340" height="643" viewBox="0 0 340 643" fill="none" xmlns="http://www.w3.org/2000/svg">
<path d="M247.574 514.303C241.197 510.153 243.518 504.629 245.476 502.386H285.195C289.223 510.125 284.729 513.556 281.978 514.303V544.027C291.255 561.038 311.711 597.753 319.319 608.52C326.928 619.288 323.329 627.681 320.578 630.532C293.586 648.478 225.477 642.73 212.471 633.336C202.066 625.821 206.271 613.661 209.674 608.52L247.574 544.027V514.303Z" fill="#B4AFF2" stroke="#45269B" stroke-width="1.5"/>
<path d="M266.552 548.48V518.201V515.958L274.171 516.799V548.48L275.556 550.022L301.46 634.272C301.46 634.272 287.45 637.164 277.773 637.776C266.691 638.477 253.67 637.776 253.67 637.776L267.522 550.022L266.552 548.48Z" fill="#848AEB" fill-opacity="0.6"/>
<path d="M250.508 545.405V516.551H254.852V547.366L224.304 633.371C224.304 633.371 218.209 631.309 214.636 629.309C211.133 627.348 210.012 624.406 210.012 624.406L250.508 545.405Z" fill="#848AEB" fill-opacity="0.6"/>
<path d="M265.537 498.417C271.122 498.417 276.161 498.782 279.788 499.367C281.607 499.661 283.037 500.005 283.995 500.37C284.478 500.554 284.798 500.727 284.982 500.873C285.017 500.9 285.042 500.925 285.062 500.944C285.042 500.964 285.017 500.989 284.982 501.017C284.798 501.162 284.478 501.335 283.995 501.519C283.037 501.885 281.607 502.229 279.788 502.522C276.161 503.107 271.122 503.473 265.537 503.473C259.953 503.473 254.913 503.107 251.286 502.522C249.467 502.229 248.037 501.885 247.079 501.519C246.596 501.335 246.277 501.162 246.092 501.017C246.057 500.989 246.032 500.964 246.012 500.944C246.032 500.925 246.057 500.9 246.092 500.873C246.277 500.727 246.596 500.554 247.079 500.37C248.037 500.005 249.467 499.661 251.286 499.367C254.913 498.782 259.953 498.417 265.537 498.417Z" fill="#DFE9FF" stroke="#45269B" stroke-width="1.5"/>
<path d="M283.974 502.913C270.091 509.564 253.108 505.685 246.351 502.913C245.463 509.417 248.437 511.658 250.38 511.966L250.381 517.167C261.265 520.566 274.929 518.583 279.881 517.167L280.381 511.966C285.379 510.488 284.576 505.315 283.974 502.913Z" fill="#848AEB"/>
<path d="M247.677 621.171L215.986 616.583L227.361 627.847L240.685 633.161L247.677 621.171Z" fill="#A7B7F7" stroke="#5B3DA8" stroke-width="1.5"/>
<path d="M256.88 634.052L288.451 628.704L274.171 621.47L259.859 620.497L256.88 634.052Z" fill="#A7B7F7" stroke="#5B3DA8" stroke-width="1.5"/>
<path d="M277.88 609.691L299.857 632.978L297.945 617.085L290.808 604.642L277.88 609.691Z" fill="#A7B7F7" stroke="#5B3DA8" stroke-width="1.5"/>
<path d="M256.328 610.667L236.089 622.185L254.805 632.733L256.328 610.667Z" fill="#A7B7F7" stroke="#5B3DA8" stroke-width="1.5"/>
<path d="M297.806 611.667L294.055 634.65L314.019 626.713L297.806 611.667Z" fill="#A7B7F7" stroke="#5B3DA8" stroke-width="1.5"/>
<path d="M270.806 603.667L267.055 626.65L287.019 618.713L270.806 603.667Z" fill="#A7B7F7" stroke="#5B3DA8" stroke-width="1.5"/>
<path d="M246.403 612.175L226.402 600.249L226.456 621.733L246.403 612.175Z" fill="#A7B7F7" stroke="#5B3DA8" stroke-width="1.5"/>
<path d="M263.881 344.154L200.381 198.154L196.881 184.154L204.381 189.654L269.965 344.154L265.381 503.167H260.381L263.881 344.154Z" fill="#A7B7F7" stroke="#5B3DA8" stroke-width="1.5"/>
<path d="M160.322 185.162L187.846 181.638L199.858 162.675L198.866 155.707L196.068 136.052L181.522 137.765L174.821 144.242L168.121 150.719L152.703 159.301L140.749 170.856L156.505 182.372L160.322 185.162Z" fill="#EB8DD7"/>
<path d="M212.131 162.573L235.438 156.362L249.593 138.856L261.561 118.172L262.527 107.439L265.643 99.0823L257.19 99.327L246.149 109.999L232.328 120.995L221.935 128.985L198.866 155.707L199.858 162.675L212.131 162.573Z" fill="#EB8DD7"/>
<path d="M198.866 155.707L221.935 128.985L232.328 120.995L239.062 100.078L241.179 73.7741L235.617 44.8949L232.892 74.1919L222.316 70.1751L213.493 90.5398L216.28 104.165L216.916 120.898L213.545 133.714L198.866 155.707Z" fill="#EB8DD7"/>
<path d="M181.522 137.765L196.068 136.052L198.866 155.707L213.545 133.714L216.916 120.898L216.28 104.165L213.493 90.5398L208.13 84.9917L197.284 84.7431L183.202 102.325L179.216 111.839L175.23 121.352L174.952 136.911L174.821 144.242L181.522 137.765Z" fill="#EB8DD7"/>
<path d="M183.202 102.325L197.284 84.7431L208.13 84.9917L213.493 90.5398L210.476 63.8471L199.015 51.991L196.584 27.6418L185.939 49.9786L168.778 27.3707L189.433 65.6502L170.228 62.087L179.159 89.9147L179.216 111.839L183.202 102.325Z" fill="#EB8DD7"/>
<path d="M175.23 121.352L179.216 111.839L179.159 89.9147L166.817 77.1466L156.13 81.3017L157.682 96.3426L142.437 97.3323L153.09 108.352L148.079 116.577L146.879 133.468L151.524 128.978L164.624 120.284L171.956 124.517L174.952 136.911L175.23 121.352Z" fill="#EB8DD7"/>
<path d="M152.703 159.301L168.121 150.719L174.821 144.242L174.952 136.911L171.956 124.517L154.52 141.372L135.158 148.769L152.703 159.301Z" fill="#E9A4D9"/>
<path d="M140.749 170.856L152.703 159.301L135.158 148.769L154.52 141.372L171.956 124.517L164.624 120.284L151.524 128.978L146.879 133.468L129.12 134.905L119.803 125.266L111.887 136.216L105.42 124.735L96.4119 129.562L96.5041 147.789L106.028 150.023L121.347 155.356L135.753 165.688L140.749 170.856Z" fill="#EB8DD7"/>
<path d="M106.028 150.023L96.5041 147.789L76.5311 119.108L73.3707 133.153L55.925 139.027L61.2257 153.685L59.3498 165.389L85.6224 169.749L97.6739 165.303L115.433 163.866L135.753 165.688L121.347 155.356L106.028 150.023Z" fill="#EB8DD7"/>
<path d="M140.749 170.856L135.753 165.688L115.433 163.866L97.6739 165.303L85.6224 169.749L77.4753 177.624L90.9921 187.493L104.883 193.178L127.502 196.159L141.526 194.363L156.505 182.372L140.749 170.856Z" fill="#EB8DD7"/>
<path d="M149.449 199.055L160.322 185.162L156.505 182.372L141.526 194.363L127.502 196.159L104.883 193.178L90.9921 187.493L77.3469 200.683L37.2513 205.067L85.6763 216.501L102.723 220.112L122.973 214.787L139.55 208.623L149.449 199.055Z" fill="#EB8DD7"/>
<path d="M199.858 162.675L187.846 181.638L199.56 187.965L209.116 193.127C209.116 193.127 217.148 194.346 224.381 194.036C226.225 193.957 228.018 193.779 229.612 193.456L245.585 184.659L261.558 175.862L245.206 158.239L235.438 156.362L212.131 162.573L199.858 162.675Z" fill="#EB8DD7"/>
<path d="M235.438 156.362L245.206 158.239C245.206 158.239 253.684 156.135 258.389 153.288C263.647 150.107 266.179 147.195 269.734 142.62L273.214 137.765L297.505 103.874L271.459 108.603L262.527 107.439L261.561 118.172L249.593 138.856L235.438 156.362Z" fill="#EB8DD7"/>
<path d="M187.846 181.638L160.322 185.162L149.449 199.055L139.55 208.623L137.324 246.67L158.381 241.836L174.791 238.069C178.934 235.357 181.88 232.987 184.599 230.154C186.649 228.019 188.571 225.62 190.78 222.613C195.534 216.143 198.73 212.244 200.235 204.358C201.436 198.064 199.56 187.965 199.56 187.965L187.846 181.638Z" fill="#EB8DD7"/>
<path d="M258.389 153.288C253.684 156.135 245.206 158.239 245.206 158.239L261.558 175.862L245.585 184.659L290.381 193.127L287.381 177.624L312.381 173.654L290.381 155.707L304.881 142.62L273.214 137.765L269.734 142.62C266.179 147.195 263.647 150.107 258.389 153.288Z" fill="#EB8DD7"/>
<path d="M139.55 208.623L122.973 214.787L102.723 220.112L79.3801 238.069L99.3801 244.154L85.6763 279.154L124.881 266.154L131.381 282.654L158.381 241.836L137.324 246.67L139.55 208.623Z" fill="#EB8DD7"/>
<path d="M245.585 184.659L229.612 193.456C228.018 193.779 226.225 193.957 224.381 194.036L245.585 210.035L267.881 199.055L245.585 184.659Z" fill="#EB8DD7"/>
<path d="M174.791 238.069L158.381 241.836L156.505 273.654L181.522 257.654L184.599 230.154C181.88 232.987 178.934 235.357 174.791 238.069Z" fill="#EB8DD7"/>
<path d="M140.749 170.856L152.703 159.301M140.749 170.856L135.753 165.688M140.749 170.856L156.505 182.372M160.322 185.162L187.846 181.638M160.322 185.162L149.449 199.055L139.55 208.623M160.322 185.162L156.505 182.372M187.846 181.638L199.858 162.675M187.846 181.638L209.116 193.127M187.846 181.638L199.56 187.965M199.858 162.675L212.131 162.573L235.438 156.362M199.858 162.675L198.866 155.707M152.703 159.301L168.121 150.719L174.821 144.242M152.703 159.301L135.158 148.769M139.55 208.623L122.973 214.787L102.723 220.112M139.55 208.623L137.324 246.67L158.381 241.836M209.116 193.127L199.56 187.965M209.116 193.127C209.116 193.127 217.148 194.346 224.381 194.036M245.206 158.239L235.438 156.362M245.206 158.239C245.206 158.239 253.684 156.135 258.389 153.288C263.647 150.107 266.179 147.195 269.734 142.62M245.206 158.239L261.558 175.862L245.585 184.659M235.438 156.362L249.593 138.856L261.561 118.172L262.527 107.439M198.866 155.707L196.068 136.052L181.522 137.765L174.821 144.242M198.866 155.707L221.935 128.985L232.328 120.995M198.866 155.707L213.545 133.714L216.916 120.898L216.28 104.165L213.493 90.5398M270.648 141.438C270.335 141.844 270.031 142.238 269.734 142.62M262.527 107.439L265.643 99.0823L257.19 99.327L246.149 109.999L232.328 120.995M262.527 107.439L271.459 108.603L297.505 103.874L273.214 137.765M232.328 120.995L239.062 100.078L241.179 73.7741L235.617 44.8949L232.892 74.1919L222.316 70.1751L213.493 90.5398M213.493 90.5398L208.13 84.9917L197.284 84.7431L183.202 102.325L179.216 111.839M213.493 90.5398L210.476 63.8471L199.015 51.991L196.584 27.6418L185.939 49.9786L168.778 27.3707L189.433 65.6502L170.228 62.087L179.159 89.9147M174.821 144.242L174.952 136.911M179.159 89.9147L179.216 111.839M179.159 89.9147L166.817 77.1466L156.13 81.3017L157.682 96.3426L142.437 97.3323L153.09 108.352L148.079 116.577L146.879 133.468M179.216 111.839L175.23 121.352L174.952 136.911M146.879 133.468L129.12 134.905L119.803 125.266L111.887 136.216L105.42 124.735L96.4119 129.562L96.5041 147.789M146.879 133.468L151.524 128.978L164.624 120.284L171.956 124.517M146.879 133.468L139.037 141.049L135.158 148.769M96.5041 147.789L106.028 150.023L121.347 155.356L135.753 165.688M96.5041 147.789L76.5311 119.108L73.3707 133.153L55.925 139.027L61.2257 153.685L59.3498 165.389L85.6224 169.749M135.753 165.688L115.433 163.866L97.6739 165.303L85.6224 169.749M85.6224 169.749L77.4753 177.624L90.9921 187.493M90.9921 187.493L104.883 193.178L127.502 196.159L141.526 194.363L156.505 182.372M90.9921 187.493L77.3469 200.683L37.2513 205.067L85.6763 216.501L102.723 220.112M135.158 148.769L154.52 141.372L171.956 124.517M171.956 124.517L174.952 136.911M199.56 187.965C199.56 187.965 201.436 198.064 200.235 204.358C198.73 212.244 195.534 216.143 190.78 222.613C188.571 225.62 186.649 228.019 184.599 230.154M102.723 220.112L79.3801 238.069L99.3801 244.154L85.6763 279.154L124.881 266.154L131.381 282.654L158.381 241.836M269.734 142.62L273.214 137.765M158.381 241.836L174.791 238.069C178.934 235.357 181.88 232.987 184.599 230.154M158.381 241.836L156.505 273.654L181.522 257.654L184.599 230.154M245.585 184.659L229.612 193.456C228.018 193.779 226.225 193.957 224.381 194.036M245.585 184.659L290.381 193.127L287.381 177.624L312.381 173.654L290.381 155.707L304.881 142.62L273.214 137.765M245.585 184.659L267.881 199.055L245.585 210.035L224.381 194.036" stroke="#5B3DA8" stroke-width="1.5"/>
</svg>
