<svg width="266" height="552" viewBox="0 0 266 552" fill="none" xmlns="http://www.w3.org/2000/svg">
<path d="M175.693 422.649C169.316 418.499 171.637 412.975 173.595 410.732H213.314C217.342 418.471 212.848 421.901 210.098 422.649V452.372C219.375 469.384 239.831 506.098 247.439 516.866C255.047 527.634 251.448 536.027 248.697 538.878C221.705 556.824 153.596 551.076 140.59 541.682C130.185 534.167 134.39 522.007 137.793 516.866L175.693 452.372V422.649Z" fill="#B4AFF2" stroke="#45269B" stroke-width="1.5"/>
<path d="M194.672 456.826V426.546V424.303L202.29 425.145V456.826L203.675 458.368L229.579 542.617C229.579 542.617 215.569 545.51 205.892 546.122C194.81 546.823 181.789 546.122 181.789 546.122L195.641 458.368L194.672 456.826Z" fill="#848AEB" fill-opacity="0.6"/>
<path d="M178.627 453.751V424.896H182.971V455.712L152.424 541.716C152.424 541.716 146.329 539.655 142.755 537.654C139.252 535.693 138.131 532.752 138.131 532.752L178.627 453.751Z" fill="#848AEB" fill-opacity="0.6"/>
<path d="M193.656 406.763C199.241 406.763 204.28 407.128 207.907 407.713C209.727 408.006 211.156 408.351 212.114 408.716C212.597 408.9 212.917 409.073 213.102 409.219C213.136 409.246 213.161 409.271 213.181 409.29C213.161 409.309 213.136 409.335 213.102 409.362C212.917 409.508 212.597 409.681 212.114 409.865C211.156 410.231 209.727 410.575 207.907 410.868C204.28 411.453 199.241 411.818 193.656 411.818C188.072 411.818 183.033 411.453 179.405 410.868C177.586 410.575 176.156 410.231 175.198 409.865C174.715 409.681 174.396 409.508 174.211 409.362C174.176 409.335 174.151 409.31 174.131 409.29C174.151 409.271 174.176 409.246 174.211 409.219C174.396 409.073 174.715 408.9 175.198 408.716C176.156 408.351 177.586 408.006 179.405 407.713C183.033 407.128 188.072 406.763 193.656 406.763Z" fill="#DFE9FF" stroke="#45269B" stroke-width="1.5"/>
<path d="M212.093 411.259C198.21 417.91 181.227 414.03 174.47 411.259C173.582 417.762 176.556 420.004 178.5 420.312L178.5 425.513C189.384 428.912 203.048 426.929 208 425.513L208.5 420.312C213.498 418.834 212.695 413.661 212.093 411.259Z" fill="#848AEB"/>
<path d="M175.796 529.517L144.105 524.929L155.48 536.192L168.804 541.506L175.796 529.517Z" fill="#A7B7F7" stroke="#5B3DA8" stroke-width="1.5"/>
<path d="M185 542.398L216.57 537.05L202.29 529.816L187.979 528.843L185 542.398Z" fill="#A7B7F7" stroke="#5B3DA8" stroke-width="1.5"/>
<path d="M205.999 518.036L227.977 541.324L226.064 525.431L218.927 512.987L205.999 518.036Z" fill="#A7B7F7" stroke="#5B3DA8" stroke-width="1.5"/>
<path d="M184.448 519.013L164.208 530.53L182.924 541.079L184.448 519.013Z" fill="#A7B7F7" stroke="#5B3DA8" stroke-width="1.5"/>
<path d="M225.925 520.013L222.174 542.995L242.138 535.059L225.925 520.013Z" fill="#A7B7F7" stroke="#5B3DA8" stroke-width="1.5"/>
<path d="M198.925 512.013L195.174 534.995L215.138 527.059L198.925 512.013Z" fill="#A7B7F7" stroke="#5B3DA8" stroke-width="1.5"/>
<path d="M174.522 520.52L154.521 508.595L154.576 530.078L174.522 520.52Z" fill="#A7B7F7" stroke="#5B3DA8" stroke-width="1.5"/>
<path d="M193.415 268.013L162.5 174.013L159 160.013L166.5 165.513L199.5 268.013L193.5 411.513H188.5L193.415 268.013Z" fill="#A7B7F7" stroke="#5B3DA8" stroke-width="1.5"/>
<path d="M128.361 159.09L152.363 157.118L163.524 141.15L162.939 135.07L161.287 117.919L148.607 118.831L142.543 124.183L136.479 129.534L122.773 136.368L111.954 145.917L125.162 156.521L128.361 159.09Z" fill="#EB8DD7"/>
<path d="M174.169 141.545L194.621 137.077L207.583 122.456L218.774 104.994L220.034 95.7269L223.065 88.6043L215.725 88.4836L205.733 97.3021L193.318 106.292L183.991 112.809L162.939 135.07L163.524 141.15L174.169 141.545Z" fill="#EB8DD7"/>
<path d="M162.939 135.07L183.991 112.809L193.318 106.292L199.979 88.4211L202.85 65.6986L199.164 40.441L195.649 65.7346L186.638 61.8357L178.186 79.1447L180.066 91.0675L179.959 105.6L176.531 116.579L162.939 135.07Z" fill="#EB8DD7"/>
<path d="M148.607 118.831L161.287 117.919L162.939 135.07L176.531 116.579L179.959 105.6L180.066 91.0675L178.186 79.1447L173.754 74.1234L164.361 73.4808L151.46 88.1705L147.629 96.2619L143.799 104.353L142.945 117.832L142.543 124.183L148.607 118.831Z" fill="#EB8DD7"/>
<path d="M151.46 88.1705L164.361 73.4808L173.754 74.1234L178.186 79.1447L176.621 55.8831L167.151 45.1525L166.001 23.9457L155.893 42.8929L141.905 22.6161L158.305 56.618L141.795 52.7726L148.443 77.2512L147.629 96.2619L151.46 88.1705Z" fill="#EB8DD7"/>
<path d="M143.799 104.353L147.629 96.2619L148.443 77.2512L138.244 65.6952L128.816 68.877L129.569 81.9787L116.312 82.2366L125.114 92.2105L120.446 99.1445L118.741 113.742L122.945 110.032L134.645 103.01L140.835 106.968L142.945 117.832L143.799 104.353Z" fill="#EB8DD7"/>
<path d="M122.773 136.368L136.479 129.534L142.543 124.183L142.945 117.832L140.835 106.968L125.054 120.896L107.976 126.546L122.773 136.368Z" fill="#E9A4D9"/>
<path d="M111.954 145.917L122.773 136.368L107.976 126.546L125.054 120.896L140.835 106.968L134.645 103.01L122.945 110.032L118.741 113.742L103.287 114.288L95.5885 105.565L88.2941 114.746L83.1391 104.538L75.139 108.368L74.5013 124.175L82.6708 126.487L95.7424 131.714L107.826 141.239L111.954 145.917Z" fill="#EB8DD7"/>
<path d="M82.6708 126.487L74.5013 124.175L58.3136 98.5217L55.0206 110.574L39.6637 114.981L43.6825 127.898L41.5952 137.971L64.2023 142.786L74.8261 139.406L90.2802 138.859L107.826 141.239L95.7424 131.714L82.6708 126.487Z" fill="#EB8DD7"/>
<path d="M111.954 145.917L107.826 141.239L90.2802 138.859L74.8261 139.406L64.2023 142.786L56.8287 149.293L68.1593 158.382L79.979 163.857L99.4725 167.333L111.703 166.328L125.162 156.521L111.954 145.917Z" fill="#EB8DD7"/>
<path d="M118.387 170.707L128.361 159.09L125.162 156.521L111.703 166.328L99.4725 167.333L79.979 163.857L68.1593 158.382L55.8095 169.281L20.8735 171.503L62.4085 183.323L77.046 187.125L94.813 183.305L109.428 178.613L118.387 170.707Z" fill="#EB8DD7"/>
<path d="M163.524 141.15L152.363 157.118L162.27 163.065L170.352 167.917C170.352 167.917 181.245 170.079 188.11 169.009L216.5 155.013L203.017 139.089L194.621 137.077L174.169 141.545L163.524 141.15Z" fill="#EB8DD7"/>
<path d="M194.621 137.077L203.017 139.089C203.017 139.089 210.45 137.598 214.641 135.315C219.325 132.764 221.635 130.34 224.897 126.513L250.5 94.0127L227.732 97.088L220.034 95.7269L218.774 104.994L207.583 122.456L194.621 137.077Z" fill="#EB8DD7"/>
<path d="M152.363 157.118L128.361 159.09L118.387 170.707L109.428 178.613L106 211.513L138.823 205.531C145.31 201.693 148.56 198.625 153.295 192.76C157.671 187.337 160.595 184.082 162.211 177.304C163.5 171.895 162.27 163.065 162.27 163.065L152.363 157.118Z" fill="#EB8DD7"/>
<path d="M111.954 145.917L122.773 136.368M111.954 145.917L107.826 141.239M111.954 145.917L125.162 156.521M128.361 159.09L152.363 157.118M128.361 159.09L118.387 170.707L109.428 178.613M128.361 159.09L125.162 156.521M152.363 157.118L163.524 141.15M152.363 157.118L170.352 167.917M152.363 157.118L162.27 163.065M163.524 141.15L174.169 141.545L194.621 137.077M163.524 141.15L162.939 135.07M122.773 136.368L136.479 129.534L142.543 124.183M122.773 136.368L107.976 126.546M109.428 178.613L94.813 183.305L77.046 187.125L62.4085 183.323L20.8735 171.503L55.8095 169.281L68.1593 158.382M109.428 178.613L106 211.513L138.823 205.531C145.31 201.693 148.56 198.625 153.295 192.76C157.671 187.337 160.595 184.082 162.211 177.304C163.5 171.895 162.27 163.065 162.27 163.065M170.352 167.917C170.352 167.917 181.245 170.079 188.11 169.009L216.5 155.013L203.017 139.089M170.352 167.917L162.27 163.065M203.017 139.089L194.621 137.077M203.017 139.089C203.017 139.089 210.45 137.598 214.641 135.315C219.325 132.764 221.635 130.34 224.897 126.513M194.621 137.077L207.583 122.456L218.774 104.994L220.034 95.7269M162.939 135.07L161.287 117.919L148.607 118.831L142.543 124.183M162.939 135.07L183.991 112.809L193.318 106.292M162.939 135.07L176.531 116.579L179.959 105.6L180.066 91.0675L178.186 79.1447M225.736 125.524C225.449 125.864 225.17 126.193 224.897 126.513M220.034 95.7269L223.065 88.6043L215.725 88.4836L205.733 97.3021L193.318 106.292M220.034 95.7269L227.732 97.088L250.5 94.0127L224.897 126.513M193.318 106.292L199.979 88.4211L202.85 65.6986L199.164 40.441L195.649 65.7346L186.638 61.8357L178.186 79.1447M178.186 79.1447L173.754 74.1234L164.361 73.4808L151.46 88.1705L147.629 96.2619M178.186 79.1447L176.621 55.8831L167.151 45.1525L166.001 23.9457L155.893 42.8929L141.905 22.6161L158.305 56.618L141.795 52.7726L148.443 77.2512M142.543 124.183L142.945 117.832M148.443 77.2512L147.629 96.2619M148.443 77.2512L138.244 65.6952L128.816 68.877L129.569 81.9787L116.312 82.2366L125.114 92.2105L120.446 99.1445L118.741 113.742M147.629 96.2619L143.799 104.353L142.945 117.832M118.741 113.742L103.287 114.288L95.5885 105.565L88.2941 114.746L83.1391 104.538L75.139 108.368L74.5013 124.175M118.741 113.742L122.945 110.032L134.645 103.01L140.835 106.968M118.741 113.742L111.643 120.006L107.976 126.546M74.5013 124.175L82.6708 126.487L95.7424 131.714L107.826 141.239M74.5013 124.175L58.3136 98.5217L55.0206 110.574L39.6637 114.981L43.6825 127.898L41.5952 137.971L64.2023 142.786M107.826 141.239L90.2802 138.859L74.8261 139.406L64.2023 142.786M64.2023 142.786L56.8287 149.293L68.1593 158.382M68.1593 158.382L79.979 163.857L99.4725 167.333L111.703 166.328L125.162 156.521M107.976 126.546L125.054 120.896L140.835 106.968M140.835 106.968L142.945 117.832" stroke="#5B3DA8" stroke-width="1.5"/>
</svg>
