<svg width="43" height="40" viewBox="0 0 43 40" fill="none" xmlns="http://www.w3.org/2000/svg">
<path d="M4.50287 2.70815C4.56773 2.9029 4.51273 3.1627 4.43239 3.36036C4.40749 3.42228 4.28691 3.39481 4.26437 3.43888C4.22035 3.52199 4.28145 3.60003 4.22847 3.68147C4.21033 3.70854 4.01982 3.68126 4.00514 3.70961C3.92621 3.87046 3.97899 4.01733 3.94339 4.17235C3.7684 4.95969 3.72014 5.71607 3.65789 6.51314C3.63726 6.76728 3.47485 7.08825 3.55833 7.35883C3.56825 7.39075 3.73401 7.36654 3.7479 7.37225C3.75018 7.37321 3.75239 7.37416 3.75455 7.37509C3.95336 7.45649 3.62337 7.43751 3.58102 7.49808C3.41218 7.74448 3.40498 8.01321 3.47627 8.24587C3.50712 8.34578 3.83444 8.23458 3.65208 8.34205C3.63976 8.34953 3.46235 8.32911 3.44436 8.35751C3.4038 8.4189 3.43886 8.53331 3.42631 8.58147C3.40122 8.67417 3.40346 8.68945 3.40411 8.77756C3.40355 8.90123 3.31982 9.03869 3.36372 9.16627C3.37362 9.19328 3.5536 9.15169 3.58572 9.19431C3.6178 9.23688 3.60595 9.35363 3.56446 9.3945C3.52294 9.43529 3.38012 9.42276 3.34771 9.43073C3.07405 9.4947 3.45934 9.6147 3.46929 9.63164C3.63942 9.94057 3.43013 10.2114 3.43961 10.5074C3.44724 10.7311 3.52595 10.9627 3.52253 11.1783C3.51756 11.4284 3.42585 11.6466 3.45001 11.8917C3.45234 11.9173 3.66435 11.8809 3.66763 11.9122C3.70229 12.2449 3.689 12.5808 3.5551 12.9187C3.54149 12.9527 3.35328 12.9149 3.32851 12.9492C3.18102 13.1619 2.82136 13.4922 3.63883 13.5917C3.61115 13.7325 3.58322 13.9013 3.42277 14.0299C3.31952 14.113 3.11361 14.0412 3.20337 14.137C3.22338 14.1586 3.40087 14.1246 3.41739 14.1574C3.48675 14.2954 3.43329 14.4521 3.52941 14.5867C3.54939 14.6143 3.70896 14.602 3.73797 14.6091C3.97295 14.6693 3.59096 14.7921 3.56367 14.8173C3.36029 15.0087 3.44639 15.1431 3.44624 15.3151C3.44612 15.3552 3.6594 15.3017 3.667 15.34C3.7035 15.5387 3.69105 15.7481 3.60139 15.9461C3.58093 15.9902 3.39695 15.9554 3.37781 15.9768C3.29568 16.0709 3.6416 16.0814 3.5695 16.1716C3.55474 16.1906 3.39792 16.1846 3.38083 16.1885C3.11249 16.2491 3.49616 16.2844 3.50499 16.2978C3.62525 16.4673 3.22922 16.5889 3.29046 16.7537C3.29819 16.7734 3.49497 16.7229 3.50458 16.7787C3.56983 17.1505 3.52652 17.5471 3.37841 17.9209C3.35565 17.9791 3.20572 17.9422 3.18748 17.9463C2.90255 18.0133 3.28759 18.0407 3.30257 18.0591C3.41077 18.2041 3.09259 18.351 3.55271 18.4388C3.41132 19.0696 3.68511 19.685 3.292 20.3175C3.28746 20.3256 3.09797 20.3165 3.08974 20.3324C2.98862 20.5248 3.28156 20.4805 3.64435 20.5961C3.73545 20.6251 3.304 20.7327 3.27242 20.7422C3.15602 20.7764 2.87381 20.7516 2.85139 20.7626C2.67539 20.8535 3.60547 20.815 3.60883 20.9311C3.60738 20.9348 3.43572 20.924 3.41894 20.9342C3.36628 20.9659 3.43513 20.9941 3.37695 21.0252C3.24232 21.0964 2.79084 21.1323 3.05666 21.2284C3.09116 21.2405 3.61843 21.2069 3.59619 21.3105C3.58686 21.3511 3.60071 21.5354 3.56783 21.5872C3.535 21.6393 3.364 21.6086 3.35673 21.6124C3.13541 21.7561 3.04084 21.7062 2.70965 21.7837C2.37971 21.861 3.17039 21.8215 3.25942 21.8473C3.3482 21.8732 3.16522 21.9783 3.10134 22.0046C3.03744 22.0308 2.92858 22.0029 2.89262 22.0257C2.65778 22.1786 3.28698 22.0802 3.41379 22.1254C3.71405 22.2321 3.12957 22.3356 3.07471 22.4408C3.05989 22.4692 3.19294 22.443 3.20607 22.4676C3.25631 22.5656 3.0747 22.6282 3.24542 22.7376C3.27324 22.7556 3.62832 22.8387 3.37091 22.9044C3.33379 22.9137 3.18698 22.8935 3.15529 22.9367C3.10772 23.0013 3.07858 23.1157 3.12912 23.182C3.16652 23.2309 3.40604 23.1679 3.33274 23.2324C3.30001 23.2611 3.15779 23.213 3.10805 23.2665C3.0583 23.3187 3.06784 23.4547 3.07395 23.5056C3.08017 23.5566 3.26225 23.5241 3.27466 23.528C3.3458 23.5513 3.43631 23.647 3.4363 23.6556C3.46911 24.0875 3.17056 24.4963 3.28231 24.9211C3.29081 24.9541 3.48303 24.9276 3.48631 24.9326C3.56965 25.0441 3.05519 24.9665 2.88548 25.0493C3.27632 25.029 3.20657 25.0773 3.25125 25.1554C3.2731 25.1931 3.42407 25.1691 3.43965 25.1721C3.67098 25.2253 3.37479 25.2723 3.31424 25.284C3.09153 25.3274 3.35662 25.3631 3.20776 25.3924C3.06001 25.4216 2.83881 25.3669 2.84334 25.4439C2.98382 25.4624 3.34842 25.3971 3.40901 25.4543C3.63815 25.6663 3.36006 26.0909 3.33378 26.2637C3.30768 26.4419 3.3347 26.5006 3.28617 26.6041C3.19838 26.7909 3.46848 26.7176 3.59498 26.8289C3.72154 26.9451 3.05248 26.9003 2.90922 26.9201C2.76603 26.9395 2.91412 26.9548 2.83562 26.9769C2.75713 26.9989 2.65865 26.9564 2.62996 27.0052C2.6013 27.0541 2.8591 27.1793 3.00954 27.193C3.32828 27.2224 3.66105 27.1584 3.54606 27.2849C3.53923 27.2921 3.36317 27.2723 3.34592 27.2998C3.33793 27.3132 3.3304 27.3265 3.32329 27.3398C3.2095 27.563 3.19462 27.7689 3.08153 27.9797C3.06469 28.0104 2.86937 27.9821 2.85737 28C2.73166 28.1848 3.06141 28.1196 3.42704 28.2215C2.94001 28.1972 2.64179 28.2506 2.63829 28.3884C2.636 28.4741 2.84881 28.4602 2.99849 28.5159C3.04361 28.5326 2.89724 28.5916 2.99724 28.6028C3.32411 28.6397 3.69052 28.5864 3.544 28.7284C3.53704 28.7345 3.35812 28.7137 3.34716 28.7352C3.27546 28.8719 3.61744 28.8951 3.65796 29.0483C3.68977 29.168 3.47979 29.3778 3.44487 29.5154C2.89725 29.5088 3.02173 29.6373 3.39892 29.6908C3.3828 29.7785 3.40335 29.8777 3.35045 29.9616C3.33242 29.9906 3.17402 29.9701 3.15686 29.9736C2.88763 30.0277 3.25466 30.0684 3.2689 30.0871C3.40703 30.2999 3.12708 30.4565 3.39705 30.6626C3.40677 30.6696 3.78705 30.6853 3.50874 30.7347C3.48956 30.7379 3.31718 30.6714 3.3028 30.7632C3.28845 30.8508 3.08243 31.032 3.25716 31.1583C3.29924 31.1876 3.60701 31.2744 3.36491 31.3344C3.33204 31.3425 3.22307 31.3318 3.1622 31.3432C2.96824 31.38 3.35244 31.4065 3.0252 31.4476C2.698 31.4866 2.45203 31.5838 2.67551 31.7151C2.682 31.7193 2.98629 31.7542 2.98088 31.7939C2.97195 31.859 2.90701 31.9531 2.90793 32.0197C2.90848 32.0517 3.09803 32.0343 3.1014 32.0399C3.20389 32.2616 3.03249 32.4156 2.9549 32.6469C2.94025 32.692 3.19595 32.8162 2.99022 32.8979C2.76503 32.9856 1.83816 32.8724 2.05505 33.0854C2.14174 33.1725 3.3178 33.3061 2.70381 33.4431C2.84831 33.7412 2.52882 34.0083 2.73758 34.3088C2.74682 34.3226 3.07466 34.3731 3.06944 34.4037C3.06109 34.4485 2.90673 34.4724 2.89585 34.5049C2.84634 34.6429 2.97517 34.7721 2.95247 34.9058C2.94422 34.9559 2.78552 34.9362 2.77575 34.9969C2.76617 35.0574 2.97496 35.1006 2.87314 35.1814C2.79556 35.2426 2.36728 35.3027 2.31731 35.3873C2.42526 35.3882 2.50503 35.3927 2.56583 35.4004L2.56606 35.3893C2.74197 35.4182 2.75634 35.469 2.83533 35.5479C2.85592 35.5684 3.0037 35.5552 3.021 35.5653C3.09464 35.6072 2.97114 35.6352 3.05131 35.6757C3.07055 35.6856 3.21441 35.6946 3.23825 35.7033C3.44649 35.778 3.11604 35.8581 3.05852 35.8706C2.84002 35.9206 3.02466 35.9646 2.93659 36.0082C2.84851 36.0513 2.74917 35.9689 2.69353 36.0225C2.57846 36.1331 2.58806 36.2872 2.56981 36.4076C2.56342 36.4556 2.7581 36.4412 2.76163 36.4485C2.80049 36.5539 2.58656 36.634 2.96199 36.7293C1.96911 36.696 3.05137 36.7998 2.83866 36.9229C2.82148 36.9325 2.35405 36.8963 2.29028 36.846C2.22656 36.7957 2.37917 36.7459 2.2787 36.6752C2.25518 36.6583 1.82661 36.5331 1.8012 36.5199C1.60293 36.4143 2.30088 36.4715 2.33964 36.4706C2.7579 36.4592 2.29645 36.3145 2.26619 36.2863C2.12795 36.1548 2.23456 36.0641 2.13572 35.9578C2.07183 35.8886 1.61484 35.8481 1.63238 35.8009C1.68987 35.6462 2.33241 35.6224 1.78579 35.4428C1.68063 35.4089 1.26283 35.4128 1.47212 35.3452L1.47101 35.3998C1.49375 35.3898 1.52407 35.3785 1.56323 35.3655C1.58806 35.3569 1.949 35.2624 1.72135 35.2055C1.69264 35.1983 1.54653 35.1974 1.53433 35.1881C1.45544 35.1252 1.57227 35.0851 1.5174 35.0173C1.46253 34.9495 1.38071 34.8678 1.43168 34.7919C1.46215 34.7471 1.7355 34.6941 1.8026 34.6735C1.99579 34.6178 1.68258 34.5433 1.91585 34.5122C2.15032 34.4799 2.50338 34.5618 2.65661 34.4665C2.27719 34.4539 1.88786 34.4362 1.50634 34.4211C1.52489 34.2021 1.65303 33.9942 1.64155 33.7773C1.63973 33.7511 1.43506 33.7729 1.42785 33.7445C1.39839 33.6225 1.54634 33.521 1.49131 33.3941C1.4479 33.2969 1.23425 33.1856 1.182 33.083C1.61767 33.0279 1.47332 32.8774 1.51516 32.7685C1.52962 32.7312 1.64556 32.7359 1.68393 32.7095C1.82588 32.609 1.44115 32.6498 1.3813 32.6202C1.12582 32.4935 1.99464 32.5035 1.97578 32.3567C1.9751 32.3477 1.51358 32.2506 1.48496 32.237C1.29829 32.1534 1.64637 32.2266 1.68143 32.1765C1.74554 32.0828 1.85712 32.0232 1.72318 31.9124C1.68349 31.881 1.39608 31.7959 1.62019 31.7413C1.64954 31.7338 1.80254 31.7405 1.8116 31.7342C1.96272 31.6202 1.48181 31.6094 1.31987 31.5391C1.158 31.4664 1.49132 31.3727 1.58731 31.3517C1.83558 31.2998 1.69254 31.3954 1.71679 31.3985C2.00542 31.4371 1.95665 31.3618 1.98183 31.3037C2.45353 31.3015 2.42628 31.2186 2.00604 31.2431C1.96014 31.246 2.00353 31.2923 1.98183 31.3037C1.5198 31.2464 1.46169 31.1549 1.89523 31.0643C2.09843 31.0207 2.33421 31.068 2.24941 30.9255C2.21113 30.8606 1.88614 30.8805 1.79823 30.824C1.59761 30.6992 1.90235 30.5276 1.85585 30.3997C1.83898 30.3523 1.66078 30.3966 1.64313 30.3641C1.59572 30.2777 1.7298 30.2017 1.66228 30.1115C1.65593 30.1035 1.46969 30.1209 1.46755 30.0941C1.44769 29.8949 1.56837 29.708 1.57317 29.4983C1.57544 29.394 1.47406 29.2062 1.49533 29.101C1.53115 28.9133 1.80296 28.6878 1.73799 28.5273C1.69642 28.422 1.51019 28.444 1.38359 28.398C1.13818 28.3102 1.5791 28.1642 1.64736 28.1432C1.64962 28.1427 1.69313 28.2316 1.78886 28.1847C1.98804 28.1579 1.64821 28.1442 1.64736 28.1432C1.69146 28.1304 1.7344 27.9506 1.69895 27.9137C1.67957 27.894 1.5032 27.9043 1.49643 27.894C1.37622 27.7129 1.32219 27.5321 1.34076 27.3424L1.34103 27.376C1.34555 27.321 1.35685 27.2653 1.3751 27.2088C1.37858 27.2045 1.57591 27.2072 1.58163 27.1971C1.6667 27.0565 1.42367 26.9689 1.27815 26.8551C1.13276 26.7448 1.17888 26.6526 1.51603 26.5772C1.47165 26.4915 1.61864 26.3584 1.708 26.2867C1.79734 26.2139 1.41326 26.2118 1.40554 26.2058C1.15855 26.0161 1.37568 25.8909 1.40547 25.688C1.42029 25.5916 1.36033 25.3993 1.31594 25.293C1.2802 25.2083 1.36907 25.158 1.30981 25.0829C1.3019 25.0727 1.13122 25.087 1.12457 25.084C0.918148 25.0035 1.33689 25.0349 1.41111 25.0156C1.68101 24.9455 1.82463 24.9026 1.69443 24.795C1.6646 24.7702 1.06129 24.7096 1.02501 24.6635C0.978952 24.6034 1.19513 24.622 1.14144 24.5608C1.13705 24.5555 1.00404 24.5598 1.00901 24.5212C1.03031 24.3426 1.10298 24.1412 1.08515 23.9544C1.08322 23.9291 0.873004 23.9667 0.866755 23.9302C0.837604 23.7589 0.840771 23.5682 0.935324 23.3947C0.959278 23.3527 1.10765 23.3751 1.1513 23.365C1.41537 23.3036 1.02779 23.2349 1.02012 23.2222C0.827153 22.9183 1.17015 22.6708 0.995991 22.3605C0.985801 22.3435 0.569007 22.2214 0.922037 22.1529C0.945524 22.1483 1.30675 22.0798 1.05743 22.0353C1.04183 22.0325 0.856012 22.0734 0.873423 22.0099C0.890794 21.9463 0.763461 21.8477 0.966384 21.7552C1.0303 21.7259 1.39046 21.6512 1.09987 21.5759C1.07959 21.5712 0.424042 21.4598 0.872853 21.403C0.946733 21.3938 1.42313 21.3891 1.17642 21.2975C1.12859 21.28 1.02327 21.3168 0.955651 21.2692C0.851449 21.1963 0.97635 21.0926 0.761758 21.0048C0.723775 20.9895 0.398736 20.9287 0.642576 20.8664C0.680765 20.8567 0.84018 20.8691 0.857192 20.8392C0.938812 20.6964 0.828637 20.555 0.934838 20.4102C0.972147 20.359 1.22983 20.3778 1.2973 20.3236C1.36475 20.2695 1.42815 20.1621 1.30923 20.1103C1.19026 20.0585 0.782268 20.1293 0.747287 20.0482C0.59538 19.6971 0.826012 19.336 0.851409 18.9798C0.855208 18.9268 0.709847 18.9746 0.704926 18.8969C0.686135 18.6098 0.535001 18.1191 0.83946 17.8613C1.08332 17.655 1.28024 17.9006 1.37748 17.7454C1.42385 17.6705 0.945431 17.6042 0.929942 17.5869C0.772796 17.4177 0.980348 17.2914 0.911223 17.137C0.896883 17.1051 0.704774 17.1422 0.694702 17.115C0.658587 17.0222 0.741949 16.9213 0.723657 16.8322C0.715007 16.7923 0.56781 16.8038 0.57814 16.7666C0.601159 16.6775 0.660909 16.5978 0.796608 16.5074C0.808974 16.4991 0.993851 16.547 0.998808 16.4813C1.00631 16.3749 1.13885 16.2395 0.994627 16.1217C0.951255 16.0868 0.614322 16.095 0.844764 16.0108C0.892892 15.9932 1.29802 16.0023 0.945901 15.922C0.887385 15.9086 0.411552 15.7694 0.713307 15.686C0.792723 15.664 1.12231 15.6043 1.06904 15.5623C1.06057 15.5566 0.880289 15.5854 0.861603 15.5499C0.79889 15.4244 0.814395 15.2919 0.753938 15.1626C0.737436 15.1281 0.551686 15.1856 0.53307 15.1339C0.481603 14.992 0.52412 14.8123 0.578695 14.6716C0.599171 14.6196 0.755314 14.6506 0.772086 14.6464C1.0449 14.5784 0.673286 14.5539 0.651093 14.5344C0.518067 14.4131 0.689387 14.3131 0.63998 14.1998C0.626815 14.1686 0.450766 14.1961 0.434826 14.1903C0.278976 14.1295 0.597727 14.1689 0.631503 14.1266C0.72717 14.0078 0.709258 13.8812 0.683208 13.7633C0.67339 13.7203 0.469921 13.7749 0.463477 13.7362C0.421428 13.5069 0.434206 13.2737 0.540506 13.0444C0.560905 13.0016 0.719456 13.0235 0.755233 13.0136C1.00556 12.9457 0.659073 12.8674 0.625717 12.848C0.473424 12.7601 0.611889 12.7202 0.583452 12.6399C0.441979 12.2435 0.519747 11.7477 0.565664 11.3713C0.624451 10.8766 0.763113 10.4905 0.710167 10.0265C0.706981 9.99646 0.498014 10.0331 0.492574 10.0073C0.431979 9.67604 0.504128 9.3462 0.433611 9.02018C0.428201 8.99359 0.230397 9.03808 0.215028 8.99565C0.182029 8.90604 0.189348 8.79001 0.250153 8.69791C0.279431 8.6529 0.451949 8.70687 0.477931 8.6617C0.538804 8.55596 0.54977 8.44959 0.514532 8.34015C0.499136 8.29467 0.297738 8.37002 0.293586 8.3105C0.271135 8.03323 0.24136 7.75228 0.310321 7.4792C0.340247 7.3527 0.389051 7.22827 0.465538 7.10515C0.482792 7.07674 0.895735 7.04336 0.814562 6.98434C0.699645 6.98324 0.564638 6.98758 0.441897 6.98929C0.358128 6.40794 0.483847 5.82143 0.488375 5.23962C0.488535 5.21563 0.270657 5.26361 0.269854 5.21731C0.264565 4.93624 0.195808 4.673 0.405069 4.38524C0.425488 4.35559 0.811422 4.35792 0.750571 4.27589C0.73943 4.25972 0.684452 4.14403 0.599653 4.10999C0.586894 4.10591 0.407661 4.13459 0.401167 4.09369C0.366793 3.86277 0.400435 3.61722 0.503238 3.37998C0.520164 3.34134 0.713019 3.37596 0.726742 3.34856C0.822676 3.156 0.670696 2.95386 0.839109 2.76836C0.952501 2.64355 1.28511 2.67802 1.60917 2.60462C1.65484 2.59242 1.65979 2.51836 1.84937 2.50939C2.32603 2.48398 2.84949 2.50287 3.35743 2.47159C3.46733 2.47433 3.34405 2.33717 3.61203 2.41537C3.63007 2.42306 3.72025 2.49349 3.8106 2.50901C3.87306 2.51957 4.06526 2.49049 4.14554 2.51431C4.22573 2.53768 4.06488 2.57046 4.15958 2.61072C4.25538 2.64946 4.47433 2.62588 4.50287 2.70815ZM2.10709 25.9552C2.28999 25.884 1.6146 25.8885 1.7777 25.9578C1.78638 25.9611 2.09812 25.9589 2.10709 25.9552ZM2.16217 34.0083C2.46215 33.9274 2.02572 33.8588 1.79424 33.9138C1.56304 33.9674 2.07122 34.0336 2.16217 34.0083ZM2.35923 34.9237C2.59575 34.8254 1.63857 34.791 1.83024 34.9063C1.84107 34.913 2.3455 34.9295 2.35923 34.9237ZM1.71124 2.89984C1.72015 2.89801 1.72723 2.84381 1.71833 2.84344C1.50306 2.82145 1.48904 2.92927 1.71124 2.89984ZM2.56854 35.8128C2.70004 35.7901 2.55662 35.6898 2.39336 35.7184C2.26213 35.7408 2.4051 35.8402 2.56854 35.8128ZM2.74524 22.4519C2.75527 22.4506 2.76335 22.4117 2.7065 22.4139C2.52341 22.4212 2.57646 22.4737 2.74524 22.4519ZM2.4321 37.3248C2.49301 37.1051 3.29435 37.0549 3.17838 37.2907C3.15739 37.3333 2.93832 37.1671 2.86115 37.2157C2.72053 37.3044 3.20642 37.4284 2.9301 37.5039C2.87956 37.5175 2.42689 37.3372 2.43105 37.3243C2.4314 37.3245 2.43175 37.3247 2.4321 37.3248ZM2.91723 25.8991C2.92614 25.8976 2.93343 25.8431 2.92455 25.842C2.70957 25.8172 2.69474 25.9269 2.91723 25.8991ZM3.10354 20.1787C3.12249 20.1752 3.13693 20.0498 3.11929 20.0462C2.76706 19.9904 2.73684 20.244 3.10354 20.1787ZM3.43025 29.5174C3.64551 29.5776 3.67039 29.647 3.3992 29.6905C3.41401 29.6338 3.41656 29.5759 3.43025 29.5174Z" fill="#686868"/>
<path d="M2.94841 35.2292C3.16489 35.1631 3.44558 35.2167 3.66499 35.2959C3.7317 35.3204 3.70216 35.4412 3.74963 35.4635C3.8421 35.507 3.92693 35.4455 4.01592 35.498C4.04635 35.5159 4.01544 35.7067 4.04734 35.7212C4.22032 35.7993 4.38244 35.7456 4.55522 35.7802C4.81918 35.8327 5.081 35.8731 5.34476 35.9056C5.93186 35.979 6.52106 36.0123 7.12341 36.0531C7.40618 36.0725 7.7631 36.2335 8.05188 36.1494C8.0862 36.1394 8.06047 35.9737 8.06663 35.9598C8.16348 35.7468 8.14093 36.0835 8.20797 36.1262C8.47712 36.2943 8.77409 36.3007 9.02823 36.229C9.13544 36.198 9.01718 35.8708 9.13183 36.053C9.1398 36.0653 9.11742 36.2428 9.14778 36.2607C9.21609 36.3012 9.34655 36.2658 9.39793 36.2783C9.49877 36.3032 9.5154 36.301 9.61118 36.3002C9.74371 36.3007 9.8994 36.3842 10.0389 36.3402C10.0687 36.3303 10.0238 36.1503 10.0709 36.1181C10.1181 36.086 10.2459 36.0978 10.2887 36.1393C10.3322 36.1809 10.3182 36.3237 10.3266 36.3561C10.3957 36.6298 10.5317 36.2443 10.5505 36.2344C10.8887 36.0643 11.188 36.2736 11.5113 36.2645C11.7538 36.2572 12.017 36.1787 12.2472 36.1827C12.5265 36.1881 12.7602 36.2805 13.0316 36.2571C13.0597 36.2548 13.0215 36.0427 13.0559 36.0395C13.4223 36.0059 13.7903 36.0205 14.1605 36.156C14.1975 36.1698 14.1545 36.3578 14.1917 36.3827C14.4201 36.5313 14.784 36.8926 14.9002 36.0757C15.0547 36.1042 15.2391 36.1331 15.3791 36.2944C15.4693 36.3981 15.388 36.6036 15.4945 36.5144C15.5185 36.4946 15.483 36.3169 15.5194 36.3005C15.6741 36.232 15.84 36.2867 15.9913 36.1914C16.022 36.1717 16.0103 36.012 16.0186 35.983C16.0879 35.7485 16.2193 36.1313 16.2459 36.1588C16.4525 36.3637 16.6008 36.2786 16.7909 36.2801C16.8348 36.2806 16.7789 36.0669 16.821 36.0596C17.0384 36.0247 17.2704 36.039 17.4851 36.1305C17.5332 36.1513 17.4926 36.335 17.5157 36.3543C17.6179 36.4373 17.6342 36.0915 17.7326 36.1644C17.7533 36.1794 17.7445 36.3361 17.7485 36.3533C17.8116 36.6222 17.8559 36.2388 17.8708 36.2301C18.0577 36.1115 18.185 36.5088 18.3678 36.4492C18.3896 36.4417 18.3368 36.2444 18.3985 36.2353C18.807 36.1739 19.2412 36.2217 19.6508 36.3742C19.6565 36.3763 19.6614 36.3794 19.6655 36.3834C19.7069 36.4233 19.6718 36.5488 19.6757 36.5655C19.7442 36.8512 19.7804 36.4665 19.8007 36.4518C19.9611 36.3453 20.1175 36.6653 20.2219 36.2064C20.911 36.3558 21.5923 36.0907 22.2787 36.4933C22.2874 36.4979 22.2739 36.6873 22.2913 36.6957C22.5002 36.7997 22.4572 36.5062 22.5915 36.1451C22.6253 36.0545 22.7358 36.4875 22.7454 36.5193C22.7805 36.6362 22.7482 36.918 22.7598 36.9406C22.8555 37.118 22.8307 36.1874 22.9577 36.1858C22.9617 36.1873 22.9467 36.3588 22.9576 36.3757C22.9912 36.4289 23.0234 36.3605 23.0564 36.4191C23.1321 36.5549 23.1629 37.0069 23.274 36.7426C23.2881 36.7083 23.2611 36.1805 23.3752 36.2044C23.4203 36.2144 23.6203 36.2035 23.6768 36.2372C23.7332 36.2708 23.6963 36.4413 23.7003 36.4486C23.8536 36.6722 23.7971 36.766 23.8759 37.0984C23.9547 37.4295 23.9266 36.6383 23.9568 36.5497C23.9873 36.4614 24.0992 36.646 24.1269 36.7103C24.1546 36.7746 24.1217 36.883 24.1462 36.9194C24.3083 37.1567 24.2131 36.5259 24.2648 36.3999C24.3869 36.1014 24.489 36.6875 24.6039 36.7441C24.635 36.7594 24.6086 36.6259 24.6361 36.6132C24.7444 36.5646 24.811 36.7472 24.9335 36.5783C24.9535 36.5508 25.051 36.1971 25.1179 36.4556C25.1274 36.4929 25.1024 36.6393 25.1491 36.6717C25.219 36.7204 25.3443 36.7514 25.4181 36.702C25.4727 36.6654 25.408 36.4249 25.4777 36.4992C25.5087 36.5324 25.4528 36.6738 25.5109 36.7244C25.5686 36.7751 25.7156 36.7678 25.7717 36.7626C25.8276 36.7572 25.7957 36.5746 25.8001 36.5622C25.8269 36.4915 25.9338 36.4026 25.9433 36.4028C26.42 36.3772 26.8629 36.6826 27.3278 36.5779C27.3642 36.57 27.3388 36.3773 27.3443 36.3741C27.4686 36.2926 27.3732 36.8057 27.4613 36.9768C27.4465 36.5857 27.4983 36.6562 27.5861 36.6128C27.6284 36.5916 27.6044 36.4403 27.6082 36.4247C27.6699 36.1943 27.7154 36.4912 27.727 36.552C27.77 36.7754 27.8139 36.5109 27.8432 36.6602C27.8724 36.8084 27.8082 37.0287 27.8928 37.0254C27.9158 36.8853 27.851 36.5197 27.9149 36.46C28.1544 36.2344 28.6092 36.5193 28.8027 36.5482C28.9967 36.5771 29.0594 36.551 29.1729 36.6011C29.3779 36.6917 29.3014 36.4205 29.4276 36.2957C29.5542 36.1708 29.4953 36.8392 29.5142 36.9827C29.5327 37.1262 29.5517 36.9783 29.5743 37.0571C29.5969 37.1359 29.5492 37.2338 29.6016 37.2632C29.654 37.2926 29.7962 37.0366 29.8142 36.8864C29.8522 36.5681 29.7862 36.2344 29.9256 36.3512C29.9336 36.3581 29.9084 36.5339 29.939 36.5515C30.1811 36.6858 30.4335 36.6932 30.676 36.8119C30.7093 36.8285 30.6803 37.0241 30.6997 37.0359C30.9015 37.1602 30.8283 36.831 30.9376 36.4646C30.9145 36.9518 30.9766 37.2496 31.1298 37.2519C31.222 37.2535 31.2054 37.0408 31.2645 36.8907C31.2824 36.8454 31.3478 36.9913 31.3592 36.8912C31.397 36.564 31.3345 36.1981 31.4926 36.3434C31.4996 36.3503 31.4781 36.5294 31.5021 36.5401C31.6569 36.6106 31.6743 36.2685 31.8416 36.2265C31.9732 36.1936 32.206 36.4015 32.3556 36.435C32.354 36.9827 32.4946 36.8569 32.5509 36.4792C32.6481 36.4944 32.7523 36.4727 32.846 36.5247C32.8782 36.5424 32.8575 36.701 32.8616 36.7181C32.9246 36.9867 32.9657 36.6193 32.9866 36.6048C33.2128 36.4642 33.3984 36.7422 33.6136 36.4696C33.6213 36.4598 33.6328 36.0793 33.6913 36.357C33.6951 36.3761 33.6241 36.5494 33.7258 36.5625C33.8274 36.5757 34.0205 36.7792 34.1608 36.6026C34.1948 36.5601 34.2805 36.2511 34.3504 36.4922C34.3597 36.525 34.3498 36.6341 34.3633 36.6948C34.4069 36.8882 34.4296 36.5036 34.481 36.8302C34.5324 37.1567 34.6385 37.4011 34.7805 37.1755C34.785 37.1689 34.818 36.8641 34.8628 36.8688C34.9342 36.8766 35.0358 36.9399 35.1104 36.9378C35.1462 36.9367 35.1229 36.7475 35.1291 36.744C35.3695 36.6375 35.5408 36.8059 35.7982 36.8787C35.8454 36.8925 35.9807 36.6342 36.0726 36.838C36.1734 37.0612 36.0719 37.9904 36.3018 37.7687C36.3946 37.6801 36.5104 36.5012 36.6786 37.1116C37.0029 36.9598 37.3026 37.272 37.6277 37.0555C37.6422 37.0459 37.688 36.7169 37.7223 36.7213C37.7733 36.7285 37.8015 36.8822 37.838 36.8923C37.9906 36.9384 38.1303 36.8067 38.2776 36.827C38.3334 36.8344 38.3141 36.9934 38.3807 37.0022C38.4473 37.0108 38.4914 36.8014 38.5818 36.9024C38.65 36.9794 38.7187 37.4072 38.8093 37.457C38.8123 37.0349 38.8745 37.0436 38.9849 36.932C39.0061 36.9104 38.9831 36.7635 38.9931 36.7457C39.0339 36.6699 39.0718 36.7916 39.1105 36.7092C39.1199 36.6894 39.1202 36.5452 39.1279 36.5209C39.1932 36.3086 39.3017 36.6327 39.3203 36.6891C39.3918 36.9034 39.4248 36.7159 39.4795 36.8003C39.5342 36.8846 39.4528 36.9902 39.5165 37.0414C39.6488 37.1472 39.8181 37.1237 39.9522 37.1302C40.0056 37.1319 39.9689 36.9396 39.9766 36.9353C40.0871 36.8864 40.1992 37.091 40.2601 36.7076C40.3379 37.6985 40.3269 36.6115 40.485 36.8097C40.4975 36.8257 40.5138 37.2943 40.4661 37.3631C40.4185 37.4319 40.3458 37.2855 40.2795 37.3928C40.2638 37.418 40.1743 37.8572 40.1621 37.8838C40.0661 38.0918 40.0517 37.3916 40.0466 37.3531C39.9884 36.9381 39.879 37.4113 39.8502 37.444C39.718 37.5939 39.6053 37.4956 39.4946 37.6026C39.4222 37.6718 39.4156 38.1305 39.3587 38.1165C39.1695 38.0703 39.1029 37.4305 38.9254 37.9855C38.8873 38.1039 38.9259 38.6052 38.7884 38.2111C38.7797 38.1863 38.6776 37.8258 38.6192 38.0539C38.6118 38.0827 38.6122 38.2288 38.6025 38.2411C38.5374 38.3206 38.4938 38.2042 38.4229 38.2601C38.352 38.3159 38.267 38.3991 38.1856 38.3497C38.1367 38.3201 38.0736 38.0479 38.0501 37.9813C37.9838 37.7894 37.9134 38.1043 37.8721 37.8718C37.8306 37.6382 37.9107 37.2833 37.8024 37.1324C37.7989 37.512 37.7902 37.9017 37.7843 38.2835C37.5476 38.2704 37.3135 38.148 37.0758 38.1651C37.0463 38.1676 37.0768 38.3716 37.0452 38.3795C36.912 38.4121 36.7953 38.2668 36.6569 38.325C36.5498 38.3708 36.4327 38.587 36.321 38.6416C36.252 38.2073 36.0862 38.3551 35.9652 38.3156C35.9229 38.3019 35.9255 38.1859 35.8954 38.1481C35.7817 38.0083 35.8355 38.3921 35.8045 38.4525C35.6716 38.7106 35.6586 37.8418 35.5015 37.8635C35.4933 37.8644 35.3922 38.3277 35.3782 38.3565C35.2893 38.5447 35.3631 38.1954 35.3072 38.1612C35.2051 38.0989 35.1341 37.9884 35.0149 38.1243C34.9801 38.1645 34.8972 38.4533 34.8292 38.2302C34.8202 38.201 34.8248 38.0479 34.8177 38.0389C34.688 37.8898 34.6851 38.3708 34.6114 38.5338C34.5375 38.6968 34.4223 38.365 34.3988 38.2694C34.3373 38.0219 34.4453 38.1635 34.4485 38.1392C34.4867 37.85 34.4033 37.8999 34.3395 37.8756C34.3292 37.404 34.2401 37.4325 34.2733 37.8523C34.2771 37.8982 34.3266 37.8541 34.3395 37.8756C34.2845 38.3385 34.1866 38.3979 34.0776 37.9658C34.0265 37.7632 34.0738 37.5268 33.9198 37.6136C33.8499 37.6528 33.8777 37.9774 33.8162 38.0661C33.6756 38.2684 33.492 37.9659 33.3471 38.014C33.2943 38.0315 33.3462 38.2091 33.3102 38.2271C33.2145 38.2756 33.1297 38.1425 33.0339 38.211C33.0252 38.2175 33.0469 38.4035 33.0171 38.4059C32.7909 38.4281 32.5936 38.3095 32.357 38.3068C32.2427 38.3056 32.0394 38.4088 31.9209 38.3886C31.7153 38.3545 31.4624 38.0847 31.2879 38.151C31.1736 38.1935 31.1993 38.3795 31.1507 38.5065C31.057 38.7526 30.8883 38.3129 30.8656 38.2448C30.8649 38.2425 30.963 38.1983 30.9102 38.103C30.879 37.904 30.8667 38.2439 30.8656 38.2448C30.8506 38.2008 30.6544 38.1592 30.6157 38.195C30.5945 38.2145 30.6071 38.3908 30.596 38.3976C30.3332 38.5564 30.0717 38.6022 29.8046 38.5209C29.7999 38.5173 29.8061 38.32 29.7951 38.3142C29.6403 38.2271 29.5427 38.4688 29.4164 38.6126C29.2903 38.7564 29.1891 38.7088 29.1122 38.3706C29.0164 38.4136 28.8781 38.2646 28.7986 38.1741C28.719 38.0837 28.7099 38.4677 28.703 38.4753C28.4875 38.7193 28.3597 38.5001 28.1346 38.4671C28.0276 38.4507 27.8153 38.5075 27.6993 38.5501C27.6078 38.5845 27.552 38.4948 27.468 38.5528C27.4566 38.5606 27.4691 38.7314 27.4657 38.738C27.3727 38.9431 27.4156 38.5249 27.3957 38.4504C27.3237 38.1794 27.2796 38.0351 27.1591 38.1635C27.1314 38.1929 27.0537 38.7951 27.0032 38.8306C26.9375 38.8756 26.9611 38.6598 26.8923 38.7125C26.8864 38.7168 26.8885 38.8498 26.8458 38.8442C26.6484 38.8199 26.4313 38.7439 26.2259 38.7586C26.1978 38.7601 26.2352 38.9709 26.1947 38.9765C26.0051 39.0028 25.7956 38.9965 25.6095 38.899C25.5637 38.8744 25.5912 38.7264 25.581 38.6826C25.5182 38.4175 25.4349 38.8039 25.4207 38.8114C25.0822 38.9992 24.8205 38.6521 24.4749 38.8212C24.456 38.8311 24.3145 39.2459 24.2469 38.8918C24.2422 38.8682 24.1752 38.5059 24.1209 38.7545C24.1175 38.77 24.1589 38.9565 24.0893 38.938C24.0202 38.9196 23.9083 39.0454 23.8108 38.841C23.7799 38.7766 23.7049 38.4153 23.6173 38.7046C23.6115 38.7248 23.4785 39.3785 23.4247 38.9289C23.4159 38.8548 23.4201 38.3784 23.3142 38.6237C23.2939 38.6712 23.3325 38.7771 23.2787 38.844C23.1963 38.947 23.0848 38.8205 22.9848 39.0337C22.9674 39.0715 22.8949 39.3955 22.8318 39.1507C22.8219 39.1124 22.8383 38.9532 22.8061 38.9357C22.6524 38.8519 22.4927 38.9599 22.3367 38.8516C22.2814 38.8135 22.3067 38.5561 22.2488 38.4878C22.191 38.4196 22.0747 38.3546 22.0157 38.4727C21.9569 38.5909 22.0272 38.9999 21.9375 39.0337C21.5492 39.1805 21.1592 38.9447 20.769 38.9146C20.711 38.9101 20.7609 39.056 20.6756 39.0599C20.4147 39.0724 19.9948 39.175 19.7039 39.0313C19.6449 39.0024 19.591 38.9637 19.5446 38.9123C19.3221 38.6661 19.5946 38.472 19.4259 38.373C19.3445 38.3257 19.2648 38.8034 19.2457 38.8187C19.0598 38.9738 18.922 38.7649 18.7527 38.8324C18.7177 38.8464 18.7553 39.0389 18.7255 39.0487C18.6235 39.0838 18.5155 38.9993 18.4168 39.0167C18.3727 39.025 18.3833 39.1723 18.3426 39.1616C18.2451 39.1376 18.1585 39.0771 18.0621 38.9405C18.0533 38.928 18.108 38.7436 18.0365 38.738C17.9217 38.7295 17.7731 38.5957 17.6425 38.7388C17.6037 38.7818 17.6081 39.1188 17.5191 38.8876C17.5004 38.8393 17.5158 38.4343 17.4234 38.7857C17.4084 38.8441 17.2494 39.3187 17.1621 39.0162C17.139 38.9366 17.0778 38.6065 17.0312 38.6594C17.0249 38.6678 17.0541 38.8483 17.015 38.8667C16.8776 38.9284 16.7316 38.9118 16.5892 38.9712C16.5513 38.9875 16.6118 39.1737 16.5552 39.1919C16.3997 39.2422 16.2051 39.1983 16.0499 39.1428C15.993 39.1219 16.0289 38.966 16.0245 38.9492C15.9529 38.6759 15.9215 39.0474 15.9001 39.0694C15.7671 39.2016 15.6604 39.0296 15.535 39.0783C15.5005 39.0912 15.5288 39.2675 15.5222 39.2834C15.4538 39.4388 15.5005 39.1203 15.4545 39.0863C15.325 38.9899 15.187 39.007 15.0574 39.0324C15.0102 39.0419 15.0678 39.2457 15.0255 39.252C14.7757 39.2926 14.5159 39.2787 14.2692 39.1713C14.2229 39.1507 14.2482 38.9922 14.2378 38.9564C14.1663 38.7057 14.0783 39.0518 14.0561 39.0851C13.9576 39.237 13.915 39.0984 13.8262 39.1265C13.3936 39.2663 12.8511 39.1869 12.4378 39.1402C11.9004 39.0801 11.4774 38.941 10.9664 38.9938C10.9339 38.997 10.9724 39.206 10.9445 39.2114C10.5861 39.2718 10.2225 39.1998 9.86459 39.2707C9.83472 39.2761 9.88378 39.4739 9.83579 39.4893C9.73735 39.5224 9.61269 39.5152 9.51275 39.4545C9.46402 39.4253 9.52321 39.2527 9.47428 39.2267C9.35901 39.166 9.23514 39.1555 9.12097 39.1908C9.0723 39.2062 9.15232 39.4075 9.08867 39.4117C8.64939 39.4449 8.21983 39.493 7.76826 39.2433C7.73718 39.2262 7.69741 38.8134 7.63567 38.8947C7.63443 39.0097 7.63892 39.1447 7.64066 39.2674C7.00542 39.3534 6.36562 39.2306 5.72531 39.2294C5.69861 39.2294 5.75267 39.447 5.69974 39.4481C5.61779 39.45 5.53877 39.4562 5.46201 39.4604C5.23745 39.4728 5.01981 39.4706 4.78667 39.3177C4.75539 39.2974 4.75723 38.9114 4.668 38.9727C4.65243 38.9839 4.5184 39.0398 4.48493 39.1247C4.48058 39.1374 4.51132 39.3165 4.46766 39.3232C4.21327 39.359 3.94356 39.3268 3.68494 39.2253C3.64435 39.2085 3.68047 39.0155 3.65167 39.0019C3.43701 38.9072 3.22038 39.0602 3.01344 38.8929C2.87748 38.7803 2.91559 38.4474 2.83391 38.1238C2.82093 38.0782 2.74022 38.0737 2.72939 37.8842C2.70112 37.4076 2.72309 36.884 2.68816 36.3762C2.68596 36.2665 2.55426 36.3899 2.62597 36.122C2.63351 36.1039 2.71282 36.0132 2.72971 35.9227C2.74092 35.8602 2.70974 35.6682 2.73507 35.5877C2.76088 35.5074 2.79722 35.6681 2.84077 35.5731C2.88525 35.477 2.85617 35.2583 2.94841 35.2292ZM28.4401 37.7699C28.3657 37.5858 28.3583 38.2612 28.4369 38.0992C28.4407 38.0906 28.4439 37.7789 28.4401 37.7699ZM37.3143 37.6386C37.2179 37.3408 37.1529 37.7789 37.2209 38.0089C37.2889 38.2386 37.3436 37.7288 37.3143 37.6386ZM38.3087 37.4198C38.1964 37.1851 38.1799 38.1428 38.2997 37.949C38.3067 37.9381 38.3153 37.4335 38.3087 37.4198ZM3.15782 38.02C3.15757 38.011 3.09623 38.0043 3.09567 38.0132C3.07112 38.2286 3.19088 38.242 3.15782 38.02ZM39.2953 37.1819C39.2601 37.0524 39.1596 37.2021 39.2032 37.3631C39.2384 37.4927 39.339 37.343 39.2953 37.1819ZM24.6097 37.0737C24.6085 37.0636 24.5657 37.0549 24.5671 37.1118C24.5715 37.295 24.6304 37.2428 24.6097 37.0737ZM40.9729 37.1691C40.7249 37.1333 40.5738 36.3424 40.8438 36.4314C40.8927 36.4475 40.7387 36.6838 40.801 36.755C40.915 36.8849 40.9901 36.3881 41.1066 36.6541C41.1277 36.7028 40.987 37.1729 40.9724 37.1702C40.9726 37.1699 40.9727 37.1695 40.9729 37.1691ZM28.3937 36.9589C28.3922 36.95 28.3332 36.9418 28.3318 36.9507C28.301 37.1652 28.4198 37.1818 28.3937 36.9589ZM22.1235 36.6796C22.1201 36.6606 21.9827 36.6443 21.9785 36.6619C21.9109 37.0133 22.1885 37.0473 22.1235 36.6796ZM32.358 36.4496C32.4216 36.2338 32.4985 36.2082 32.5506 36.4789C32.4866 36.4647 32.4222 36.4627 32.358 36.4496Z" fill="#686868"/>
<path d="M38.8587 36.7779C38.7838 36.5854 38.8255 36.3266 38.8954 36.1238C38.9168 36.0585 39.0388 36.0817 39.0592 36.0381C39.0988 35.9527 39.0338 35.8794 39.0824 35.7942C39.099 35.7653 39.2908 35.7838 39.3039 35.7537C39.3745 35.5913 39.3144 35.45 39.3414 35.2877C39.4748 34.4908 39.4836 33.736 39.504 32.9372C39.5112 32.6812 39.6564 32.3503 39.5592 32.0883C39.5476 32.0573 39.3833 32.09 39.3692 32.0851C39.152 32.0073 39.4893 32.0098 39.5289 31.9472C39.6241 31.7952 39.6585 31.634 39.6517 31.4758C39.6478 31.3805 39.627 31.2867 39.5945 31.198C39.5586 31.101 39.2374 31.2281 39.414 31.1124C39.4259 31.1043 39.6041 31.1151 39.6206 31.0861C39.6577 31.0202 39.6164 30.904 39.6265 30.8575C39.6468 30.765 39.6438 30.7501 39.6386 30.6633C39.6332 30.5458 39.7083 30.389 39.6583 30.2705C39.6471 30.2445 39.4695 30.2949 39.4352 30.2547C39.401 30.2146 39.4068 30.0991 39.4461 30.0566C39.4855 30.0143 39.6288 30.019 39.6607 30.0095C39.9306 29.9303 39.5392 29.827 39.5283 29.8102C39.3429 29.5196 39.5363 29.2225 39.5121 28.9376C39.4929 28.717 39.4014 28.4814 39.394 28.2727C39.3856 28.0205 39.4655 27.7967 39.4287 27.5561C39.425 27.5305 39.2152 27.5782 39.2103 27.5469C39.1576 27.2107 39.1538 26.8828 39.2692 26.5336C39.281 26.4986 39.471 26.5268 39.4939 26.4909C39.6303 26.2756 39.9716 25.9225 39.15 25.8665C39.1701 25.7232 39.1893 25.5562 39.3426 25.4183C39.4413 25.3298 39.6508 25.3907 39.556 25.2997C39.5349 25.2791 39.3595 25.3226 39.3412 25.2906C39.2646 25.1561 39.3097 24.9968 39.2066 24.8678C39.1852 24.8414 39.0265 24.8621 38.9971 24.8566C38.7593 24.8091 39.1342 24.6662 39.1601 24.6395C39.3531 24.4379 39.2598 24.3066 39.2509 24.1358C39.2489 24.0959 39.0388 24.1605 39.0291 24.1227C38.9821 23.9265 38.9835 23.7177 39.0624 23.5136C39.0804 23.4686 39.266 23.4934 39.284 23.4712C39.361 23.3731 39.015 23.3811 39.0822 23.2874C39.096 23.2676 39.2529 23.2653 39.2697 23.2605C39.5345 23.1857 39.1495 23.171 39.1399 23.1581C39.0108 22.9957 39.3998 22.8523 39.3298 22.6907C39.321 22.6715 39.1272 22.7323 39.1146 22.6773C39.0298 22.3109 39.0517 21.911 39.1796 21.5305C39.1992 21.4712 39.3509 21.5 39.3689 21.4949C39.6498 21.4128 39.2639 21.406 39.2479 21.3885C39.1321 21.2493 39.4419 21.0855 38.9778 21.0227C39.0852 20.3857 38.7786 19.7853 39.137 19.133C39.1411 19.1247 39.3308 19.1236 39.3381 19.1072C39.4287 18.9097 39.1386 18.9697 38.77 18.8737C38.6775 18.8495 39.1025 18.7184 39.1335 18.7074C39.2479 18.667 39.531 18.6764 39.5528 18.6642C39.7236 18.5642 38.797 18.6531 38.7874 18.5375C38.7886 18.5338 38.9606 18.5351 38.9768 18.5241C39.0277 18.4896 38.9574 18.4652 39.0138 18.431C39.1444 18.3526 39.5933 18.2922 39.3226 18.2105C39.2875 18.2002 38.7628 18.2625 38.7794 18.1576C38.7864 18.116 38.7627 17.9341 38.7927 17.8803C38.8226 17.8265 38.995 17.8479 39.0021 17.8437C39.2153 17.6882 39.3124 17.7328 39.6389 17.6373C39.9641 17.542 39.1768 17.6245 39.0865 17.6036C38.9964 17.5825 39.1733 17.4672 39.2357 17.4373C39.298 17.4075 39.4083 17.4296 39.4429 17.4047C39.6691 17.2403 39.0462 17.3724 38.9172 17.3346C38.6116 17.2455 39.1895 17.1094 39.2385 17.0012C39.2517 16.9719 39.1203 17.0055 39.1058 16.9815C39.0503 16.8863 39.2281 16.8121 39.0517 16.7133C39.023 16.6971 38.6639 16.6345 38.9174 16.5553C38.9539 16.544 39.1016 16.5559 39.1309 16.5113C39.1749 16.4445 39.1976 16.3277 39.1435 16.2638C39.1034 16.2166 38.8678 16.2932 38.9373 16.2242C38.9684 16.1936 39.1131 16.2342 39.1598 16.1775C39.2065 16.1211 39.1896 15.9882 39.1807 15.9379C39.1717 15.8877 38.9917 15.93 38.9791 15.9268C38.9068 15.9077 38.8112 15.8178 38.8107 15.8092C38.7537 15.3746 39.0293 14.9528 38.894 14.5366C38.8837 14.5041 38.6933 14.5413 38.6897 14.5365C38.6002 14.4297 39.1182 14.4785 39.283 14.386C38.8939 14.4283 38.9609 14.376 38.9118 14.3001C38.8879 14.2635 38.7385 14.2962 38.7228 14.294C38.4889 14.2555 38.782 14.1912 38.8418 14.1762C39.0617 14.1205 38.795 14.0998 38.942 14.0622C39.0878 14.0247 39.3118 14.0669 39.3029 13.9901C39.1616 13.9795 38.8013 14.0654 38.7375 14.0116C38.4965 13.8088 38.7507 13.3778 38.7665 13.1973C38.7824 13.0187 38.7522 12.9644 38.7947 12.8588C38.8714 12.6656 38.606 12.7543 38.4731 12.6481C38.3401 12.5415 39.0106 12.5462 39.1525 12.5184C39.2943 12.4909 39.1456 12.4845 39.2227 12.4581C39.2998 12.4318 39.4005 12.468 39.4264 12.4181C39.4522 12.3682 39.1875 12.2586 39.0365 12.2536C38.7166 12.2428 38.3882 12.3266 38.4955 12.193C38.5019 12.1853 38.6788 12.1949 38.6944 12.1662C38.812 11.9335 38.8025 11.7025 38.9051 11.4769C38.9195 11.4458 39.1164 11.4575 39.127 11.4393C39.2373 11.244 38.9139 11.3355 38.5412 11.2622C39.0286 11.2478 39.3214 11.1686 39.3137 11.0297C39.3092 10.9463 39.0982 10.9769 38.9446 10.9347C38.8983 10.922 39.0395 10.8525 38.9389 10.8496C38.6101 10.8388 38.2495 10.925 38.3837 10.7676C38.3901 10.7607 38.5702 10.7675 38.5793 10.7446C38.6392 10.5968 38.2968 10.6057 38.244 10.4571C38.2027 10.3418 38.3947 10.1142 38.4182 9.97413C38.9645 9.9359 38.8299 9.81699 38.4495 9.79376C38.4583 9.70469 38.4303 9.61566 38.4757 9.52308C38.4912 9.49196 38.6508 9.4998 38.6676 9.49477C38.9314 9.41729 38.5621 9.40596 38.5464 9.38786C38.4497 9.26498 38.5166 9.147 38.5115 9.03464C38.5081 8.96305 38.4786 8.89364 38.371 8.82661C38.3607 8.82034 37.9805 8.83649 38.2537 8.76374C38.2725 8.75898 38.4499 8.8112 38.4565 8.71795C38.4631 8.62486 38.6542 8.4395 38.4689 8.31988C38.4243 8.2915 38.1106 8.23453 38.3468 8.15496C38.3789 8.14431 38.4884 8.14565 38.5481 8.12934C38.7383 8.07688 38.3532 8.08308 38.6759 8.01493C38.9987 7.9496 39.2354 7.8296 39.0016 7.71674C38.9947 7.71308 38.6886 7.70368 38.6905 7.66294C38.6939 7.59676 38.7513 7.50671 38.7443 7.43488C38.7409 7.4017 38.5536 7.43603 38.5498 7.43049C38.4285 7.21403 38.5868 7.05515 38.6439 6.81127C38.6547 6.76613 38.3895 6.66687 38.5873 6.56621C38.8042 6.45912 39.7373 6.49169 39.5029 6.29788C39.4093 6.22249 38.226 6.18681 38.826 5.99646C38.6568 5.71461 38.9523 5.41795 38.7205 5.13895C38.7102 5.12585 38.3794 5.10077 38.3822 5.06904C38.387 5.02193 38.5392 4.98865 38.5476 4.95564C38.5866 4.81508 38.4488 4.69479 38.4629 4.55829C38.4679 4.50621 38.6276 4.51671 38.6337 4.45594C38.6398 4.39565 38.4289 4.36646 38.5264 4.27725C38.6007 4.20972 39.0261 4.13802 39.0728 4.05079C38.6509 4.06331 38.6573 4.00427 38.5429 3.91113C38.5206 3.89237 38.3745 3.91821 38.3564 3.90933C38.2795 3.87268 38.4001 3.83376 38.3167 3.80072C38.2967 3.79266 38.1526 3.7963 38.1281 3.78992C37.9142 3.73775 38.2359 3.62533 38.2921 3.60838C38.5051 3.53964 38.3171 3.51349 38.4008 3.46048C38.4845 3.40923 38.591 3.48225 38.6415 3.42374C38.7459 3.30552 38.7222 3.15025 38.7309 3.03224C38.7335 2.98374 38.5405 3.01329 38.5365 3.00628C38.4894 2.90601 38.6977 2.81323 38.318 2.73669C39.3115 2.72393 38.2242 2.67049 38.4348 2.53336C38.4519 2.52278 38.9195 2.55551 38.9846 2.5998C39.0495 2.64493 38.8991 2.69396 39.0031 2.75657C39.0274 2.77113 39.4627 2.86722 39.4891 2.87506C39.6942 2.95608 38.9941 2.95154 38.9555 2.95435C38.5392 2.99336 39.0109 3.10331 39.0435 3.12578C39.1924 3.24382 39.0947 3.34199 39.2029 3.43655C39.2729 3.50018 39.7317 3.49978 39.7186 3.54707C39.6756 3.71178 39.0378 3.78942 39.5975 3.92936C39.7169 3.95919 40.2166 3.90628 39.8271 4.04298C39.8026 4.05324 39.4455 4.15393 39.6756 4.19748C39.7046 4.20288 39.8506 4.1967 39.8632 4.20485C39.9449 4.25933 39.8304 4.30601 39.8888 4.3638C39.9472 4.42251 40.0339 4.49764 39.9878 4.57183C39.9602 4.6152 39.6911 4.68419 39.6256 4.70867C39.4368 4.77686 39.7547 4.82992 39.5243 4.87547C39.2928 4.92401 38.9347 4.8709 38.789 4.97511C39.1683 4.95864 39.5578 4.94624 39.9393 4.9317C39.9374 5.14756 39.8269 5.36501 39.8562 5.57451C39.8602 5.60079 40.0623 5.5616 40.0719 5.58949C40.1115 5.70861 39.9727 5.82293 40.0382 5.94237C40.0898 6.03551 40.3124 6.1328 40.373 6.22608C39.9433 6.3134 40.1005 6.45868 40.0681 6.56927C40.0568 6.60744 39.9409 6.61263 39.9049 6.64185C39.772 6.75247 40.1518 6.67962 40.214 6.70348C40.4792 6.80605 39.6133 6.87827 39.6443 7.01852C39.6456 7.02571 40.1138 7.08485 40.1435 7.09557C40.3366 7.16283 39.9836 7.11973 39.9529 7.17241C39.8968 7.26822 39.7911 7.34425 39.9339 7.44202C39.9761 7.46997 40.2693 7.52405 40.0508 7.60073C40.0222 7.61081 39.8692 7.61706 39.8607 7.62416C39.7199 7.75222 40.2 7.72211 40.3673 7.77889C40.5348 7.83819 40.2106 7.96039 40.1167 7.98868C39.8736 8.06069 40.0082 7.95451 39.9837 7.95342C39.6929 7.93954 39.7478 8.00992 39.7275 8.06907C39.2577 8.11083 39.2917 8.1896 39.7084 8.13039C39.7539 8.12376 39.7069 8.08208 39.7275 8.06907C40.1927 8.08646 40.2581 8.17061 39.834 8.30176C39.6352 8.36245 39.3966 8.3384 39.4928 8.47042C39.5362 8.52967 39.8583 8.48218 39.9506 8.53085C40.1442 8.63307 39.9151 8.80122 39.9214 8.93111C39.9219 8.94197 39.9242 8.95252 39.9289 8.9627C39.9496 9.00824 40.1235 8.94959 40.1438 8.98029C40.1982 9.06181 40.0708 9.14752 40.1454 9.22986C40.1524 9.23731 40.3365 9.20421 40.3409 9.23123C40.378 9.43918 40.2721 9.62189 40.285 9.83772C40.2913 9.94216 40.4078 10.1225 40.3952 10.2287C40.3744 10.4138 40.1227 10.6727 40.2 10.8217C40.2498 10.9212 40.4337 10.8846 40.5635 10.9191C40.8151 10.9855 40.3878 11.1719 40.3214 11.1979C40.3192 11.1987 40.2686 11.112 40.177 11.1673C39.9807 11.2105 40.3205 11.197 40.3214 11.1979C40.2786 11.2148 40.2503 11.3987 40.2884 11.4297C40.3093 11.4472 40.4842 11.4231 40.4918 11.4324C40.6672 11.6546 40.731 11.8983 40.6672 12.142C40.664 12.1465 40.4668 12.1554 40.4617 12.1658C40.3851 12.3116 40.6326 12.3828 40.7845 12.4879C40.9363 12.5931 40.8957 12.6895 40.5634 12.7829C40.6126 12.8659 40.4732 13.0021 40.3882 13.0813C40.3033 13.1605 40.6869 13.1406 40.695 13.1464C40.9528 13.3266 40.7426 13.457 40.7245 13.6636C40.7153 13.762 40.7861 13.9514 40.8364 14.0546C40.8768 14.1362 40.7909 14.1919 40.8543 14.264C40.8628 14.2738 41.0324 14.2499 41.0392 14.2525C41.2498 14.3217 40.83 14.3136 40.757 14.3371C40.4914 14.4225 40.3505 14.4734 40.4865 14.5733C40.5176 14.5963 41.1233 14.6228 41.1621 14.6664C41.2114 14.7232 40.9946 14.7174 41.0517 14.7766C41.0564 14.7817 41.1889 14.77 41.1862 14.8096C41.175 14.9901 41.1133 15.192 41.1416 15.3787C41.1449 15.4042 41.3527 15.3546 41.361 15.3912C41.3999 15.5644 41.407 15.7521 41.3221 15.9291C41.3005 15.9726 41.1511 15.9583 41.1081 15.9708C40.8479 16.0473 41.2387 16.0953 41.2471 16.1077C41.4568 16.4043 41.1274 16.6648 41.3185 16.9681C41.3296 16.9845 41.7525 17.0839 41.4037 17.1707C41.3805 17.1766 41.0234 17.2637 41.2749 17.2952C41.2906 17.2972 41.4739 17.246 41.46 17.3108C41.4461 17.3755 41.5787 17.4674 41.3811 17.571C41.3189 17.6037 40.9633 17.698 41.2576 17.7572C41.2781 17.7609 41.9387 17.836 41.4936 17.9171C41.4204 17.9304 40.9449 17.961 41.1963 18.0393C41.245 18.0542 41.3482 18.0117 41.4183 18.0557C41.5263 18.123 41.4072 18.2335 41.6263 18.3095C41.665 18.3227 41.9929 18.3658 41.7527 18.441C41.7151 18.4528 41.5553 18.4491 41.5399 18.4798C41.4661 18.6262 41.5839 18.7629 41.4857 18.913C41.4512 18.9662 41.1928 18.9613 41.1284 19.019C41.064 19.0767 41.0065 19.1872 41.128 19.2323C41.2496 19.2774 41.6531 19.1847 41.6925 19.2639C41.8632 19.6081 41.6523 19.9794 41.6461 20.3375C41.6452 20.3906 41.7878 20.335 41.7969 20.4124C41.831 20.6976 42.0083 21.1804 41.7181 21.4541C41.4856 21.6731 41.2758 21.4385 41.187 21.5986C41.1447 21.6758 41.626 21.7162 41.6424 21.7326C41.8084 21.8933 41.6079 22.0313 41.6852 22.1816C41.7012 22.2126 41.8911 22.1654 41.9026 22.1919C41.9436 22.2826 41.8657 22.3877 41.8887 22.4753C41.8995 22.5147 42.0458 22.4951 42.0375 22.5331C42.0193 22.6238 41.964 22.7071 41.8333 22.8045C41.8214 22.8133 41.6342 22.7754 41.6328 22.8413C41.631 22.9479 41.5058 23.0901 41.6561 23.1996C41.7012 23.2321 42.0372 23.206 41.8116 23.3021C41.7645 23.3224 41.3594 23.3347 41.7154 23.3968C41.7746 23.4074 42.2571 23.5211 41.9602 23.6204C41.8821 23.6466 41.5562 23.7238 41.6116 23.7628C41.6204 23.768 41.7989 23.7297 41.8194 23.7641C41.8887 23.8862 41.8802 24.018 41.9475 24.1451C41.9658 24.1788 42.1482 24.1114 42.1696 24.162C42.2285 24.3013 42.1956 24.483 42.1486 24.6264C42.1309 24.6793 41.9734 24.6567 41.9568 24.6618C41.688 24.7441 42.0604 24.7489 42.0836 24.7669C42.2228 24.8806 42.0571 24.9904 42.1125 25.1009C42.1273 25.1315 42.3016 25.0946 42.3178 25.0996C42.4767 25.1521 42.1563 25.1296 42.1248 25.1737C42.0356 25.2974 42.0603 25.424 42.0924 25.5381C42.1045 25.5807 42.3047 25.5152 42.3132 25.5537C42.3674 25.7808 42.3674 26.0187 42.2729 26.2482C42.2548 26.2924 42.0953 26.2787 42.0601 26.2905C41.8138 26.372 42.164 26.4325 42.1983 26.4502C42.3551 26.5305 42.219 26.5778 42.2516 26.6569C42.4135 27.0411 42.3619 27.5384 42.3365 27.9234C42.3034 28.4149 42.1851 28.8058 42.2631 29.2747C42.2679 29.3041 42.4747 29.2569 42.4814 29.282C42.5587 29.6013 42.5045 29.9402 42.5923 30.2648C42.5991 30.2919 42.7942 30.2359 42.8119 30.2788C42.8496 30.3667 42.8482 30.4805 42.7922 30.5746C42.7653 30.6204 42.5902 30.5765 42.5666 30.6223C42.5109 30.7256 42.5067 30.846 42.5472 30.9483C42.5649 30.9924 42.7622 30.9074 42.7694 30.9659C42.7807 31.0502 42.7925 31.1329 42.8019 31.2145C42.8383 31.5344 42.8417 31.8457 42.6607 32.1763C42.6448 32.2037 42.2347 32.2645 42.3187 32.3178C42.4336 32.3128 42.5682 32.3014 42.6906 32.2933C42.8047 32.8689 42.7099 33.46 42.7359 34.0428C42.737 34.067 42.9521 34.0074 42.9553 34.0539C42.9754 34.3348 43.0573 34.588 42.8639 34.893C42.845 34.9229 42.4592 34.9371 42.5244 35.0173C42.5363 35.0321 42.5979 35.1526 42.6838 35.1758C42.6967 35.179 42.8744 35.1424 42.8828 35.1804C42.9295 35.4133 42.9087 35.6599 42.8182 35.9004C42.8031 35.9378 42.6089 35.9154 42.5965 35.9421C42.5106 36.1383 42.6732 36.336 42.5146 36.5306C42.4077 36.6615 42.0738 36.6438 41.7538 36.7338C41.7089 36.7486 41.7075 36.8221 41.5188 36.8425C41.0438 36.8906 40.52 36.8956 40.0142 36.9519C39.9597 36.958 39.9639 36.9837 39.9477 36.998C39.9399 37.0098 39.9251 36.9929 39.8966 36.9793C39.8679 36.9659 39.8292 37.0289 39.7618 37.0115C39.7442 37.0135 39.6509 36.9488 39.5599 36.9391C39.497 36.9318 39.3065 36.9701 39.2252 36.9507C39.144 36.9327 39.3029 36.8911 39.2064 36.8572C39.1086 36.8216 38.8915 36.8601 38.8587 36.7779ZM40.0091 13.4391C39.8304 13.5195 40.5045 13.4764 40.3378 13.4177C40.3289 13.4149 40.0178 13.435 40.0091 13.4391ZM39.3183 5.39014C39.0261 5.49771 39.4667 5.52761 39.6929 5.45535C39.9186 5.37976 39.4069 5.35807 39.3183 5.39014ZM39.0539 4.5028C38.8241 4.61733 39.7814 4.58794 39.5829 4.48716C39.5717 4.48136 39.0672 4.4962 39.0539 4.5028ZM41.6368 36.444C41.628 36.4465 41.6235 36.4976 41.6326 36.4996C41.8486 36.5101 41.8572 36.4034 41.6368 36.444ZM38.7853 3.62118C38.6564 3.65626 38.8083 3.74463 38.9683 3.70151C39.097 3.66601 38.9455 3.57829 38.7853 3.62118ZM39.5669 16.972C39.5569 16.9739 39.551 17.0133 39.6076 17.008C39.79 16.9907 39.7342 16.941 39.5669 16.972ZM38.8572 2.16008C38.78 2.33962 37.9748 2.39845 38.1102 2.12725C38.1351 2.08177 38.3391 2.27796 38.4205 2.22872C38.5665 2.15078 38.0997 1.96655 38.3848 1.92187C38.4363 1.9159 38.8625 2.15191 38.8582 2.16069C38.8579 2.16048 38.8575 2.16028 38.8572 2.16008ZM39.2034 13.5406C39.1946 13.5426 39.1903 13.5963 39.1992 13.5969C39.4152 13.6088 39.424 13.5006 39.2034 13.5406ZM39.3326 19.2612C39.3139 19.2657 39.3062 19.3914 39.324 19.394C39.6787 19.4305 39.6953 19.1764 39.3326 19.2612ZM38.4326 9.97089C38.2131 9.92827 38.1826 9.8604 38.4492 9.79405C38.4392 9.85271 38.4414 9.91122 38.4326 9.97089Z" fill="#686868"/>
<path d="M38.1635 4.23677C37.9517 4.30307 37.6638 4.25041 37.4512 4.17169C37.3815 4.14741 37.4104 4.0266 37.3637 4.0044C37.2759 3.96101 37.1899 4.02286 37.0976 3.97075C37.0683 3.95285 37.0971 3.76208 37.0664 3.74765C36.8945 3.67007 36.7359 3.72421 36.558 3.69045C35.7025 3.52305 34.853 3.48411 33.9938 3.43103C33.705 3.41391 33.3536 3.25547 33.0644 3.34219C33.0307 3.35248 33.0576 3.51796 33.0516 3.53192C32.9579 3.74575 32.9786 3.40873 32.9098 3.36678C32.632 3.20139 32.3427 3.19757 32.0881 3.27204C31.9817 3.30414 32.1029 3.63008 31.9869 3.44906C31.9788 3.43684 31.9992 3.25916 31.9688 3.24152C31.9 3.20186 31.7724 3.2386 31.7187 3.22675C31.6147 3.20304 31.5994 3.20544 31.5048 3.20724C31.3756 3.20817 31.2165 3.1267 31.0758 3.1725C31.0459 3.18279 31.0928 3.36218 31.0466 3.39492C31.001 3.42757 30.8755 3.41731 30.8312 3.37638C30.7871 3.33542 30.7993 3.19242 30.7905 3.16012C30.7176 2.8874 30.5862 3.27461 30.5675 3.28482C30.2341 3.45937 29.9242 3.25464 29.6086 3.26835C29.3647 3.2794 29.1055 3.36203 28.8743 3.36187C28.5943 3.36117 28.3598 3.2728 28.0902 3.30109C28.0618 3.30387 28.1042 3.51526 28.0695 3.51909C27.7023 3.55944 27.3329 3.55195 26.964 3.42387C26.9267 3.41085 26.9659 3.22199 26.9282 3.1978C26.6975 3.05388 26.3231 2.70051 26.2268 3.51966C26.0802 3.49553 25.9023 3.47181 25.7599 3.33104C25.7537 3.32485 25.7475 3.31842 25.7414 3.31176C25.6483 3.21007 25.7254 3.00282 25.6206 3.09436C25.597 3.11476 25.6365 3.29164 25.6004 3.30876C25.4487 3.38066 25.2779 3.32982 25.1299 3.4282C25.0997 3.44864 25.1148 3.60801 25.1072 3.63714C25.0433 3.87312 24.9034 3.49311 24.8756 3.4662C24.6624 3.26582 24.5174 3.35378 24.3275 3.35601C24.2831 3.35645 24.3438 3.569 24.3013 3.57713C24.081 3.6164 23.8525 3.60644 23.6339 3.51896C23.5849 3.499 23.6226 3.31461 23.5989 3.29572C23.4944 3.21463 23.4842 3.56068 23.3844 3.4895C23.3634 3.47494 23.3694 3.31804 23.3651 3.30098C23.2973 3.03324 23.26 3.41727 23.2452 3.42623C23.0596 3.54809 22.9253 3.15306 22.7431 3.21561C22.7214 3.22349 22.7774 3.4199 22.7159 3.42995C22.3076 3.49799 21.8699 3.45674 21.4589 3.30954C21.3948 3.28692 21.436 3.13689 21.4315 3.11866C21.3587 2.83388 21.3272 3.21899 21.3069 3.234C21.1466 3.34251 20.9888 3.02434 20.8885 3.48453C20.1964 3.34317 19.5123 3.6144 18.8226 3.21546C18.8138 3.21085 18.8264 3.02145 18.8089 3.01307C18.5986 2.91012 18.6434 3.20346 18.5109 3.56503C18.4776 3.65582 18.3659 3.22318 18.3558 3.19149C18.3199 3.0747 18.3516 2.79279 18.3398 2.77024C18.2427 2.59319 18.2703 3.52369 18.1423 3.52561C18.1383 3.52411 18.1529 3.35259 18.142 3.33569C18.108 3.28264 18.0759 3.35111 18.0427 3.29254C17.9666 3.15697 17.9351 2.70505 17.8253 2.9695C17.8111 3.00381 17.8397 3.53153 17.7243 3.5078C17.6783 3.49791 17.4767 3.5089 17.4203 3.47515C17.3638 3.44146 17.4009 3.271 17.3968 3.26366C17.244 3.03997 17.3005 2.94624 17.2226 2.61377C17.145 2.28253 17.1713 3.07377 17.1409 3.16233C17.1102 3.25065 16.9973 3.06579 16.9697 3.00142C16.942 2.93704 16.9753 2.82872 16.9509 2.79234C16.7889 2.55462 16.8826 3.18559 16.8303 3.3115C16.7067 3.60961 16.6084 3.02311 16.4925 2.96602C16.4613 2.95059 16.4872 3.08418 16.4595 3.09678C16.35 3.14487 16.2839 2.96191 16.1606 3.13004C16.1402 3.15744 16.0417 3.51044 15.9755 3.2515C15.9662 3.21416 15.9925 3.06789 15.9456 3.03514C15.8756 2.986 15.7501 2.95396 15.6756 3.00273C15.6205 3.03882 15.6832 3.27993 15.6141 3.20494C15.5834 3.17145 15.6406 3.03058 15.583 2.97942C15.5261 2.9283 15.3789 2.93407 15.3222 2.9387C15.2659 2.94346 15.296 3.12639 15.2914 3.13869C15.2635 3.20914 15.1553 3.29681 15.1459 3.29653C14.6675 3.31647 14.225 3.00402 13.7599 3.09905C13.7228 3.10623 13.7445 3.29936 13.7388 3.30244C13.611 3.38125 13.7186 2.87031 13.6335 2.69738C13.6399 3.08873 13.589 3.0171 13.5001 3.05848C13.4573 3.07874 13.4778 3.23059 13.4736 3.24603C13.4065 3.47498 13.3681 3.17705 13.3581 3.11606C13.3207 2.89171 13.2711 3.15505 13.2448 3.00504C13.219 2.85615 13.2891 2.63754 13.2039 2.63869C13.1772 2.77823 13.2334 3.14537 13.1673 3.20338C12.9191 3.42306 12.4701 3.12492 12.2788 3.08945C12.0833 3.05407 12.0194 3.07787 11.9081 3.02371C11.7083 2.92566 11.773 3.19942 11.6404 3.31924C11.5072 3.43891 11.5937 2.77346 11.5803 2.62929C11.5675 2.48519 11.5426 2.63216 11.5232 2.55249C11.5039 2.47284 11.5554 2.37701 11.5045 2.3455C11.4532 2.31404 11.3037 2.56389 11.2775 2.71312C11.2253 3.02944 11.2774 3.36571 11.1415 3.24284C11.1338 3.23556 11.167 3.0611 11.1369 3.04211C10.9004 2.89716 10.6448 2.87722 10.4119 2.74571C10.3795 2.72733 10.4192 2.53367 10.4002 2.52075C10.2031 2.38546 10.2592 2.71826 10.1281 3.07781C10.1793 2.59272 10.1342 2.29198 9.984 2.28056C9.89133 2.27333 9.89507 2.48663 9.82629 2.63278C9.80557 2.67684 9.74923 2.5271 9.73145 2.62625C9.67279 2.9503 9.71121 3.31958 9.56258 3.16421C9.55614 3.15686 9.58934 2.97958 9.56627 2.96725C9.41526 2.88647 9.37227 3.2265 9.20142 3.25626C9.06948 3.27979 8.84374 3.05388 8.6993 3.00813C8.74578 2.46248 8.59416 2.57598 8.50499 2.94731C8.4095 2.92372 8.30266 2.93572 8.2118 2.87493C8.18085 2.85421 8.21687 2.6983 8.21434 2.68086C8.17677 2.40747 8.10084 2.76924 8.07846 2.78157C8.04835 2.79643 8.01964 2.8047 7.99203 2.8083L8.02026 2.80998C7.82876 2.8495 7.66796 2.66321 7.47308 2.89638C7.46522 2.90599 7.44335 3.286 7.39217 3.00691C7.38892 2.98768 7.46456 2.81639 7.36315 2.80052C7.26141 2.78463 7.07473 2.57592 6.92878 2.74846C6.89346 2.79 6.79883 3.09647 6.73572 2.85344C6.72734 2.82044 6.74033 2.71164 6.72857 2.65059C6.69052 2.45607 6.65679 2.83983 6.61472 2.51194C6.57264 2.18407 6.47365 1.93673 6.32518 2.15827C6.32047 2.1647 6.27879 2.46847 6.23404 2.46247C6.16282 2.45265 6.06291 2.38653 5.98815 2.3866C5.95242 2.38674 5.9704 2.5765 5.96411 2.57981C5.72092 2.67965 5.55436 2.50673 5.29868 2.42752C5.25142 2.41262 5.1104 2.66753 5.02346 2.46157C4.92801 2.23612 5.05143 1.30942 4.81497 1.52586C4.73902 1.59459 4.63467 2.34994 4.51675 2.35139C4.48664 2.3527 4.45321 2.30327 4.41672 2.17793C4.09488 2.33412 3.78025 2.03257 3.46337 2.26716C3.44899 2.27757 3.42198 2.60868 3.38832 2.60629C3.33751 2.60214 3.2992 2.45057 3.26264 2.44285C3.10711 2.40684 2.97692 2.54874 2.83007 2.54062C2.77304 2.53802 2.77996 2.37784 2.71248 2.37485C2.64409 2.37217 2.62078 2.58447 2.52046 2.49249C2.44661 2.42216 2.33378 2.00333 2.23797 1.96312C2.27824 2.3833 2.21398 2.3811 2.11691 2.50381C2.09808 2.52762 2.13681 2.67115 2.12875 2.68995C2.09623 2.76969 2.04556 2.65285 2.01668 2.73908C2.00961 2.7598 2.02548 2.90307 2.02066 2.92809C1.97991 3.14634 1.8375 2.83673 1.8117 2.783C1.71453 2.57875 1.70576 2.76873 1.64109 2.69169C1.57632 2.61471 1.64467 2.49981 1.57452 2.45697C1.43028 2.36824 1.26341 2.41369 1.12902 2.42551C1.07577 2.43107 1.13822 2.61669 1.1312 2.62191C1.02777 2.68542 0.888931 2.49854 0.882242 2.88677C0.663278 1.91727 0.831419 2.99113 0.6454 2.81833C0.631103 2.80426 0.545103 2.3433 0.582965 2.26806C0.621335 2.19282 0.715047 2.32702 0.765167 2.21138C0.777401 2.18415 0.805898 1.73641 0.814625 1.70832C0.882064 1.48877 0.994268 2.18026 1.00434 2.21767C1.11977 2.62061 1.16318 2.13723 1.1893 2.10077C1.30235 1.93442 1.42875 2.0174 1.52761 1.89729C1.59265 1.81956 1.54316 1.3635 1.60371 1.37029C1.80536 1.39284 1.94147 2.02136 2.06448 1.44987C2.09058 1.32811 1.99922 0.83345 2.18276 1.2107C2.19405 1.23449 2.33588 1.58256 2.37351 1.34977C2.37829 1.32041 2.36396 1.175 2.37279 1.16181C2.43397 1.07616 2.48947 1.18786 2.55887 1.12561C2.62829 1.06338 2.71157 0.972781 2.80028 1.01533C2.85473 1.04063 2.9416 1.30697 2.97026 1.37166C3.05403 1.55785 3.10364 1.23878 3.16331 1.46776C3.22139 1.69804 3.16406 2.0575 3.28253 2.20095C3.26174 1.82189 3.24603 1.43245 3.22847 1.05103C3.48117 1.04817 3.73299 1.15874 3.98398 1.13385C4.01494 1.1304 3.9767 0.927429 4.00984 0.918492C4.15157 0.88172 4.2783 1.02443 4.42336 0.964402C4.4489 0.953776 4.47453 0.934559 4.50013 0.910532L4.54441 0.910702C4.63324 0.830615 4.72672 0.693153 4.81504 0.65277C4.87535 1.08847 5.04569 0.94459 5.16634 0.987019C5.20883 1.00169 5.20331 1.11762 5.23266 1.15614C5.34349 1.29869 5.29903 0.913719 5.33173 0.854048C5.47213 0.59944 5.46325 1.46831 5.62151 1.4507C5.63003 1.45006 5.74352 0.989587 5.7586 0.961119C5.85294 0.775357 5.76946 1.12264 5.8245 1.15825C5.92554 1.22336 5.99332 1.33573 6.11692 1.20324C6.15278 1.16398 6.24425 0.877601 6.30629 1.10259C6.31445 1.13205 6.30549 1.28495 6.31243 1.2941C6.4384 1.44691 6.45445 0.966164 6.533 0.805276C6.61147 0.644425 6.71715 0.979373 6.73791 1.07565C6.7923 1.32474 6.68844 1.18019 6.68448 1.20438C6.63807 1.49238 6.72291 1.44482 6.78602 1.47092C6.78285 1.94263 6.87283 1.91666 6.8515 1.49607C6.84902 1.45013 6.79825 1.49279 6.78602 1.47092C6.85416 1.00981 6.9535 0.953132 7.05037 1.38818C7.09582 1.59208 7.04182 1.8271 7.19787 1.74458C7.26855 1.70732 7.24988 1.38201 7.3135 1.29503C7.45883 1.09659 7.63364 1.40379 7.77938 1.35933C7.83231 1.34319 7.78513 1.16432 7.82145 1.14716C7.90359 1.10768 7.97455 1.2011 8.05445 1.18714L8.15073 1.19288C8.16358 1.1915 8.17693 1.18712 8.19093 1.17862C8.19977 1.17302 8.1977 0.985876 8.22606 0.986237C8.44333 0.985436 8.62132 1.12073 8.85285 1.14266C8.96186 1.153 9.16773 1.06561 9.28212 1.09432C9.47516 1.14287 9.70761 1.42896 9.88225 1.37344C9.99732 1.33811 9.98361 1.15082 10.0392 1.02702C10.1448 0.786925 10.282 1.23529 10.3014 1.30456C10.3019 1.30686 10.2031 1.34549 10.2494 1.44366C10.2688 1.64406 10.3003 1.30537 10.3014 1.30456C10.313 1.34935 10.5068 1.40163 10.5451 1.36782C10.5666 1.34942 10.5638 1.17273 10.5749 1.16646C10.8396 1.02147 11.0967 0.987867 11.3579 1.08056C11.3624 1.0843 11.3477 1.28112 11.3584 1.28745C11.5055 1.38091 11.6114 1.14328 11.7421 1.00447C11.8744 0.865753 11.9681 0.916728 12.0321 1.25751C12.1274 1.21786 12.2607 1.37154 12.3363 1.46451C12.4113 1.55748 12.4328 1.17394 12.4397 1.16655C12.6587 0.929389 12.7809 1.15221 13.0002 1.19126C13.1046 1.2105 13.3199 1.15909 13.4328 1.11908C13.5234 1.08688 13.5765 1.17777 13.6613 1.1216C13.6727 1.1141 13.664 0.942983 13.6676 0.936457C13.7644 0.733433 13.7129 1.15059 13.7311 1.22552C13.7974 1.498 13.8389 1.64323 13.9595 1.51719C13.9874 1.48833 14.0754 0.887688 14.126 0.853115C14.1918 0.809268 14.1645 1.02465 14.2338 0.973211C14.2398 0.969004 14.24 0.835938 14.2824 0.842283C14.4786 0.869974 14.6884 0.949293 14.8948 0.937341C14.9227 0.936215 14.8886 0.724922 14.9284 0.719815C15.1147 0.696018 15.3227 0.704755 15.5062 0.804008C15.551 0.829101 15.5225 0.976811 15.5321 1.02071C15.5914 1.28636 15.6776 0.900734 15.6916 0.893399C16.03 0.708417 16.2848 1.05712 16.6302 0.889446C16.6487 0.879619 16.7895 0.465392 16.8556 0.819673C16.8601 0.843245 16.9258 1.20574 16.9807 0.95728C16.9841 0.941736 16.9432 0.75519 17.0126 0.773778C17.082 0.792322 17.1932 0.666766 17.2887 0.87124C17.3191 0.935652 17.3931 1.29703 17.4803 1.00767C17.4861 0.987485 17.6183 0.333767 17.6725 0.783362C17.6813 0.857369 17.6779 1.33381 17.7831 1.08843C17.8029 1.04087 17.7649 0.935024 17.8177 0.868095C17.8985 0.764946 18.0091 0.891251 18.108 0.677789C18.1253 0.640004 18.1965 0.315755 18.2604 0.560322C18.2704 0.598625 18.2545 0.757885 18.2868 0.77525C18.4413 0.858553 18.596 0.749903 18.7527 0.857478C18.808 0.895269 18.7841 1.15278 18.8424 1.22074C18.9007 1.28869 19.0181 1.35299 19.0749 1.23449C19.1323 1.11594 19.0603 0.707395 19.1486 0.673049C19.534 0.5238 19.9219 0.756283 20.3123 0.78247C20.3697 0.786397 20.3188 0.640922 20.4031 0.63617C20.7154 0.618091 21.2495 0.466647 21.5315 0.77023C21.7554 1.0135 21.488 1.21116 21.6566 1.30794C21.738 1.35407 21.8109 0.875361 21.8297 0.859801C22.0138 0.701968 22.154 0.908804 22.321 0.838804C22.3556 0.824276 22.3152 0.632372 22.3447 0.622138C22.4453 0.585468 22.5554 0.668159 22.6527 0.649205C22.6963 0.640256 22.6834 0.493135 22.7242 0.503179C22.8218 0.525506 22.9094 0.584591 23.0075 0.719546C23.0165 0.731842 22.9651 0.917141 23.0365 0.921535C23.152 0.928123 23.3003 1.0594 23.4288 0.913922C23.467 0.870177 23.4564 0.533319 23.55 0.762854C23.5696 0.810788 23.5616 1.21605 23.6473 0.863029C23.6618 0.804364 23.8096 0.326971 23.9023 0.627723C23.9268 0.706881 23.9941 1.03576 24.0397 0.981947C24.0459 0.973404 24.0132 0.79348 24.0519 0.774342C24.1889 0.710025 24.3345 0.723719 24.4742 0.661462C24.5115 0.644476 24.4476 0.459524 24.5035 0.440184C24.6567 0.386739 24.8545 0.426462 25.0085 0.478765C25.0653 0.498404 25.0331 0.65505 25.0379 0.671755C25.1148 0.943479 25.1381 0.571423 25.159 0.548914C25.2889 0.413907 25.3996 0.583506 25.523 0.532053C25.5571 0.518321 25.5249 0.342768 25.5311 0.326722C25.5959 0.16976 25.5564 0.489238 25.6032 0.522236C25.6149 0.530612 25.6268 0.538075 25.6387 0.544698C25.7613 0.611916 25.8896 0.592712 26.0058 0.567086C26.0527 0.556488 25.9907 0.354005 26.0329 0.346861C26.2803 0.300781 26.5447 0.309007 26.7942 0.411398C26.8411 0.431052 26.8189 0.589989 26.83 0.625594C26.9069 0.874746 26.9884 0.526904 27.0091 0.493217C27.1022 0.339457 27.1505 0.4771 27.2393 0.44723C27.6728 0.298871 28.2166 0.368379 28.634 0.408035C29.1755 0.458893 29.5965 0.591683 30.1141 0.531353C30.1465 0.527736 30.1051 0.319289 30.1329 0.313477C30.4932 0.247998 30.8515 0.315485 31.2186 0.239919C31.2483 0.234108 31.1972 0.036958 31.2446 0.0209459C31.3426 -0.0133249 31.4627 -0.00734962 31.5678 0.0520267C31.6183 0.0806433 31.5592 0.253973 31.6098 0.279291C31.7276 0.338638 31.8502 0.347901 31.9644 0.311388C32.013 0.295418 31.9308 0.094963 31.9945 0.0900603C32.4384 0.0520764 32.8648 8.24686e-05 33.323 0.24595C33.3543 0.262843 33.3974 0.675238 33.4587 0.593431C33.459 0.478498 33.4535 0.343535 33.4508 0.220809C34.0904 0.129625 34.7284 0.248607 35.3733 0.246441C35.401 0.246281 35.3449 0.0290123 35.3985 0.0275886C35.7042 0.0192963 35.9921 -0.0522497 36.3152 0.153851C36.3467 0.174011 36.3432 0.560086 36.4328 0.498409C36.4495 0.487138 36.5863 0.430629 36.6174 0.345709C36.6216 0.332915 36.5905 0.153913 36.6336 0.147081C36.8929 0.110207 37.155 0.141804 37.4198 0.242356C37.4604 0.259006 37.4248 0.452117 37.4536 0.465643C37.6693 0.559731 37.8893 0.406092 38.0956 0.573018C38.2261 0.685715 38.1999 1.01822 38.2756 1.34197C38.2885 1.38757 38.3671 1.39212 38.3822 1.58149C38.4108 2.05802 38.386 2.58178 38.42 3.08959C38.4267 3.19906 38.5572 3.07611 38.4783 3.34402C38.4794 3.36172 38.3996 3.45245 38.382 3.54294C38.3688 3.60554 38.4037 3.79745 38.3744 3.87802C38.3523 3.95826 38.3177 3.79757 38.2697 3.89271C38.2294 3.98874 38.2605 4.20735 38.1635 4.23677ZM12.6783 1.87965C12.7472 2.06578 12.7743 1.3909 12.6912 1.5505C12.6872 1.55901 12.6747 1.87051 12.6783 1.87965ZM3.75376 1.66909C3.86417 1.96248 3.91606 1.52243 3.83619 1.29522C3.75588 1.06838 3.71904 1.58024 3.75376 1.66909ZM2.74889 1.95252C2.88268 2.17689 2.82323 1.22092 2.71384 1.42439C2.70735 1.43592 2.74103 1.93951 2.74889 1.95252ZM37.9516 1.4463C37.9534 1.4552 38.0132 1.46184 38.0138 1.45293C38.0378 1.23746 37.9187 1.22432 37.9516 1.4463ZM1.77879 2.29061C1.82893 2.41505 1.912 2.25484 1.84974 2.09992C1.79974 1.97523 1.71586 2.13583 1.77879 2.29061ZM16.4882 2.63638C16.4894 2.64644 16.5323 2.65535 16.5312 2.59846C16.5276 2.41526 16.4683 2.46718 16.4882 2.63638ZM0.108087 2.53751C0.361381 2.53356 0.62732 3.29325 0.350244 3.2461C0.299514 3.23774 0.414811 2.9806 0.342504 2.91976C0.208078 2.80936 0.215366 3.3112 0.0570503 3.06732C0.0281856 3.02264 0.093499 2.53593 0.108348 2.53635C0.108261 2.53674 0.108174 2.53712 0.108087 2.53751ZM12.7009 2.69161C12.7021 2.70057 12.7614 2.71047 12.7631 2.70164C12.8003 2.48808 12.6811 2.46803 12.7009 2.69161ZM18.9783 3.02823C18.9823 3.0472 19.119 3.06267 19.1231 3.04506C19.1882 2.6933 18.9118 2.66099 18.9783 3.02823ZM8.69806 2.99337C8.61491 3.20309 8.53381 3.22186 8.50526 2.94761C8.56822 2.96737 8.6333 2.97486 8.69806 2.99337Z" fill="#686868"/>
</svg>
