<svg width="224" height="516" viewBox="0 0 224 516" fill="none" xmlns="http://www.w3.org/2000/svg">
<g filter="url(#filter0_d_216_8670)">
<path d="M182.414 204.103L151.965 225.326V237.067L160.529 273.191L165.286 304.8L170.52 341.376L180.987 363.954L200.018 405.948L217.145 453.362L220 495.808L206.678 492.196L202.872 501.678L177.181 506.194L152.441 508L130.079 501.678L132.458 482.713L142.449 467.36L130.079 435.751L117.709 394.208L100.582 322.411L98.6784 281.319L96.7753 268.676L95.348 281.319L96.7753 319.701L95.348 335.506L92.0176 361.696V399.175L95.348 426.268L98.6784 446.137L108.194 463.748L111.048 482.713L95.348 484.519L98.6784 498.969L83.9295 508H43.9648L27.3128 501.678L23.9824 492.196L7.80617 495.808L4 482.713L10.6608 442.524L7.80617 423.559L15.4185 391.047L10.6608 356.277L18.2731 322.411L21.1278 286.738L24.9339 257.838L34.4493 221.714L55.859 193.717L57.7621 181.074L71.0837 165.269L82.5022 155.787L75.3656 146.304L65.3745 133.209L67.2775 104.761L78.2203 83.5378H62.5198L53.956 75.8613L51.1013 61.4116L62.5198 41.9947L75.3656 21.6747L112.952 0L127.225 4.064H140.546L155.295 13.0951L165.286 39.2853L170.044 43.8009L184.317 69.9911L191.454 97.9875L205.727 117.404L219.524 130.951L205.727 143.143L191.454 146.304V152.626L184.317 160.302L188.599 174.3L179.559 176.558L182.414 204.103Z" fill="white"/>
</g>
<defs>
<filter id="filter0_d_216_8670" x="0" y="0" width="224" height="516" filterUnits="userSpaceOnUse" color-interpolation-filters="sRGB">
<feFlood flood-opacity="0" result="BackgroundImageFix"/>
<feColorMatrix in="SourceAlpha" type="matrix" values="0 0 0 0 0 0 0 0 0 0 0 0 0 0 0 0 0 0 127 0" result="hardAlpha"/>
<feOffset dy="4"/>
<feGaussianBlur stdDeviation="2"/>
<feComposite in2="hardAlpha" operator="out"/>
<feColorMatrix type="matrix" values="0 0 0 0 0 0 0 0 0 0 0 0 0 0 0 0 0 0 0.25 0"/>
<feBlend mode="normal" in2="BackgroundImageFix" result="effect1_dropShadow_216_8670"/>
<feBlend mode="normal" in="SourceGraphic" in2="effect1_dropShadow_216_8670" result="shape"/>
</filter>
</defs>
</svg>
