<svg width="115" height="389" viewBox="0 0 115 389" fill="none" xmlns="http://www.w3.org/2000/svg">
<path d="M35.8828 364.499L48.8828 344.499L68.8828 343.999L80.8828 364.499L60.8828 387.499L35.8828 364.499Z" fill="#D9A1E4" stroke="#5B3DA8" stroke-width="1.5"/>
<path d="M41.8828 363.252L51.4161 351.297L66.0828 350.999L74.8828 363.252L60.3828 379.999L41.8828 363.252Z" fill="#F7B0CC" stroke="#5B3DA8" stroke-width="1.5"/>
<path d="M68.8828 336.999H48.8828V344.499L68.8828 343.999V336.999Z" fill="#F7B0CC" stroke="#5B3DA8" stroke-width="1.5"/>
<path d="M54.8828 106.553V165.82L54.8831 171.499L56.9857 176.999L60.8828 169.88V106.553V100.999L57.652 95.9986L54.8828 100.999V106.553Z" fill="#EB8DD7" stroke="#5B3DA8" stroke-width="1.5"/>
<path d="M33.3828 124.605L49.0495 113.999L57.6661 138.999L65.4995 113.999L80.3828 122.332L57.6661 138.999L33.3828 124.605Z" fill="#EEBFE7"/>
<path d="M57.6661 138.999L49.0495 113.999L33.3828 124.605L57.6661 138.999ZM57.6661 138.999L65.4995 113.999L80.3828 122.332L57.6661 138.999Z" stroke="#5B3DA8" stroke-width="1.5"/>
<path d="M113.383 245.999L63.3828 168.499H52.8828L0.882812 245.999L52.8828 336.999H65.8828L113.383 245.999Z" fill="#EB8DD7" stroke="#5B3DA8" stroke-width="1.5"/>
<path d="M106.383 249.999L56.8828 326.999V202.999L106.383 249.999Z" fill="#EEBFE7" stroke="#5B3DA8" stroke-width="1.5"/>
<path d="M56.8828 202.999V177.499L106.383 245.499V249.999L56.8828 202.999Z" fill="#ECD0E6" stroke="#5B3DA8" stroke-width="1.5"/>
<path d="M56.8828 177.499L8.38281 246.499V250.499L56.8828 202.999V177.499Z" fill="#D9A1E4" stroke="#5B3DA8" stroke-width="1.5"/>
<path d="M56.8828 327.499L8.38281 250.499L56.8828 202.999V327.499Z" fill="#C2B3ED" fill-opacity="0.7" stroke="#5B3DA8" stroke-width="1.5"/>
<path d="M56.8828 202.999L8.38281 250.499L56.8828 264.499V202.999Z" fill="#B4AFF2" stroke="#5B3DA8" stroke-width="1.5"/>
<path d="M56.8828 202.999L106.383 249.999L56.8828 264.499V202.999Z" fill="#EEBFE7" stroke="#5B3DA8" stroke-width="1.5"/>
<path d="M81.6499 129.221L83.9926 147.999L57.3955 139.237L76.381 158.05L61.9571 167.081L57.3955 139.237L81.6499 129.221Z" fill="#D9A1E4"/>
<path d="M57.3955 139.237L83.9926 147.999L81.6499 129.221L57.3955 139.237ZM57.3955 139.237L76.381 158.05L61.9571 167.081L57.3955 139.237Z" stroke="#5B3DA8" stroke-width="1.5"/>
<path d="M56.7189 167.584L39.5274 159.675L57.3099 139.406L31.4524 149.516L31.3828 132.499L57.3099 139.406L56.7189 167.584Z" fill="#CEA8E6"/>
<path d="M57.3099 139.406L39.5274 159.675L56.7189 167.584L57.3099 139.406ZM57.3099 139.406L31.4524 149.516L31.3828 132.499L57.3099 139.406Z" stroke="#5B3DA8" stroke-width="1.5"/>
<path d="M54.9643 60.5099L54.303 1.24623L54.2399 -4.43164L56.3363 -9.95537L60.4152 -2.88163L61.1218 60.4412L61.1838 65.9953L57.924 71.032L55.0262 66.064L54.9643 60.5099Z" fill="#EB8DD7" stroke="#5B3DA8" stroke-width="1.5"/>
<path d="M50.5628 82.1621L57.7185 70.5777L54.7689 66.0777L45.0631 82.2234L54.7689 100.616L57.7185 96.0831L50.5628 82.1621Z" fill="#EB8DD7" stroke="#5B3DA8" stroke-width="1.5"/>
<path d="M65.5642 82.1621L58.4084 70.5777L61.358 66.0777L71.0638 82.2234L61.358 100.616L58.4084 96.0831L65.5642 82.1621Z" fill="#EB8DD7" stroke="#5B3DA8" stroke-width="1.5"/>
</svg>
