<svg width="124" height="299" viewBox="0 0 124 299" fill="none" xmlns="http://www.w3.org/2000/svg">
<path d="M53.8568 165.622L60.7281 154.044L67.856 165.465L67.9564 174.465L60.9959 178.043L53.9461 173.621L53.8568 165.622Z" fill="#F7B0CC" stroke="#5B3DA8" stroke-width="1.5"/>
<path d="M55.0879 163.544L61.0876 154.543L66.5887 163.543L65.4148 168.945L60.7035 171.061L56.2108 167.903L55.0879 163.544Z" fill="#CEA8E6" stroke="#5B3DA8" stroke-width="1.5"/>
<path d="M57.9818 56.5099L57.3206 -2.75377L57.2575 -8.43164L59.3539 -13.9554L63.4328 -6.88163L64.1394 56.4412L64.2013 61.9953L60.9415 67.032L58.0438 62.064L57.9818 56.5099Z" fill="#EB8DD7" stroke="#5B3DA8" stroke-width="1.5"/>
<path d="M57.8948 124.183L57.5889 96.7731L57.5599 94.1471L60.6134 92.0317L63.5676 94.8288L63.8944 124.116L63.923 126.684L60.7183 129.033L57.9234 126.751L57.8948 124.183Z" fill="#EB8DD7" stroke="#5B3DA8" stroke-width="1.5"/>
<path d="M60.9943 178.041L44.2185 198.229L18.6978 196.514L20.9766 221.49L1.16751 238.712L21.3504 254.988L19.635 280.509L46.1055 277.713L62.822 297.028L79.109 277.845L104.63 279.56L102.845 254.079L122.16 237.362L101.972 220.586L103.692 195.566L78.2164 197.85L60.9943 178.041Z" fill="#EB8DD7" stroke="#5B3DA8" stroke-width="1.5"/>
<path d="M61.1497 192.041L49.7484 200.954L61.6071 233.038L72.747 200.698L61.1497 192.041Z" fill="#B4AFF2" stroke="#5B3DA8" stroke-width="1.5"/>
<path d="M107.158 237.032L98.2441 225.63L66.1602 237.489L98.5008 248.629L107.158 237.032Z" fill="#EEBFE7" stroke="#5B3DA8" stroke-width="1.5"/>
<path d="M16.1615 238.047L24.8184 226.45L57.159 237.59L25.075 249.449L16.1615 238.047Z" fill="#CEA8E6" stroke="#5B3DA8" stroke-width="1.5"/>
<path d="M28.9292 205.533L27.17 219.898L58.2422 234.199L43.251 203.454L28.9292 205.533Z" fill="#B4AFF2" stroke="#5B3DA8" stroke-width="1.5"/>
<path d="M93.9187 204.808L95.9979 219.13L65.2526 234.121L79.554 203.049L93.9187 204.808Z" fill="#EEBFE7" stroke="#5B3DA8" stroke-width="1.5"/>
<path d="M62.1575 282.287L50.5602 273.63L61.7 241.289L73.5587 273.373L62.1575 282.287Z" fill="#EEBFE7" stroke="#5B3DA8" stroke-width="1.5"/>
<path d="M29.6458 269.522L27.5666 255.2L58.3119 240.209L44.0105 271.281L29.6458 269.522Z" fill="#CEA8E6" stroke="#5B3DA8" stroke-width="1.5"/>
<path d="M94.6333 268.793L96.3925 254.429L65.3203 240.127L80.3115 270.873L94.6333 268.793Z" fill="#EEBFE7" stroke="#5B3DA8" stroke-width="1.5"/>
<path d="M53.5764 140.628L60.7322 129.044L57.7826 124.544L48.0768 140.69L57.7826 159.083L60.7322 154.55L53.5764 140.628Z" fill="#EB8DD7" stroke="#5B3DA8" stroke-width="1.5"/>
<path d="M68.5798 140.628L61.424 129.044L64.3736 124.544L74.0795 140.69L64.3736 159.083L61.424 154.55L68.5798 140.628Z" fill="#EB8DD7" stroke="#5B3DA8" stroke-width="1.5"/>
<path d="M53.5784 78.1597L60.7342 66.5754L57.7846 62.0754L48.0787 78.2211L57.7846 96.6139L60.7342 92.0807L53.5784 78.1597Z" fill="#EB8DD7" stroke="#5B3DA8" stroke-width="1.5"/>
<path d="M68.5798 78.1597L61.424 66.5754L64.3736 62.0754L74.0795 78.2211L64.3736 96.6139L61.424 92.0807L68.5798 78.1597Z" fill="#EB8DD7" stroke="#5B3DA8" stroke-width="1.5"/>
</svg>
