<svg width="75" height="250" viewBox="0 0 75 250" fill="none" xmlns="http://www.w3.org/2000/svg">
<path d="M33.9698 234.705V138.163H52.0888L60.0949 234.705C60.432 245.47 54.2027 248.161 51.2498 248.497C36.6522 250.16 33.6888 239.527 33.9698 234.705Z" fill="#7A7BE3" stroke="#5B3DA8" stroke-width="1.5"/>
<path d="M30.5078 112.988L33.8187 109.392H54.015L56.6637 112.988L54.015 116.585H33.8187L30.5078 112.988Z" fill="#F7B0CC" stroke="#5B3DA8" stroke-width="1.5"/>
<path d="M30.6709 120.181L33.9818 116.585H54.1781L56.8268 120.181L54.1781 123.778H33.9818L30.6709 120.181Z" fill="#F7B0CC" stroke="#5B3DA8" stroke-width="1.5"/>
<path d="M30.6709 127.374L33.9818 123.778H54.1781L56.8268 127.374L54.1781 130.97H33.9818L30.6709 127.374Z" fill="#F7B0CC" stroke="#5B3DA8" stroke-width="1.5"/>
<path d="M30.6709 134.567L33.9818 130.97H54.1781L56.8268 134.567L54.1781 138.163H33.9818L30.6709 134.567Z" fill="#F7B0CC" stroke="#5B3DA8" stroke-width="1.5"/>
<path d="M5.16908 6.40305L8.76551 1.17188C17.1572 9.45457 31.325 30.2049 20.8626 46.9447C10.4003 63.6844 18.465 67.8694 23.8052 67.8694H73.5013C77.1632 82.2551 65.0007 84.7617 58.4617 84.2168L57.8078 102.853L53.8844 109.392H33.9406L30.0172 102.853V84.2168C-4.24704 81.0781 -1.47887 64.164 4.18823 56.0992C21.7127 32.2974 12.144 13.051 5.16908 6.40305Z" fill="#8870C7" stroke="#5B3DA8" stroke-width="1.5"/>
<path d="M6.80366 4.11441L8.76775 1.17188C17.1594 9.45457 31.3272 30.2049 20.8649 46.9447C10.4025 63.6844 18.4672 67.8694 23.8074 67.8694H61.7334C68.9263 80.2934 49.3036 78.4682 42.1152 78.6587C-0.0666127 79.7761 3.30405 63.946 8.7658 54.1375C24.7869 25.3661 13.7786 10.7624 6.80366 4.11441Z" fill="#BF98EB" stroke="#5B3DA8" stroke-width="1.5"/>
<path d="M40.147 231.998V138.163H54.2058L60.4179 231.998C60.6794 242.46 55.846 245.075 53.5548 245.402C42.2283 247.019 39.929 236.684 40.147 231.998Z" fill="#7B5FBC" stroke="#5B3DA8" stroke-width="1.5"/>
<path d="M50.6152 209.534C54.0277 209.534 56.7305 212.16 56.7305 215.323C56.7304 218.486 54.0277 221.112 50.6152 221.112C47.2026 221.112 44.4991 218.486 44.499 215.323C44.499 212.16 47.2026 209.534 50.6152 209.534Z" fill="#EB8DD7" stroke="#5B3DA8" stroke-width="1.5"/>
</svg>
