<svg width="496" height="120" viewBox="0 0 496 120" fill="none" xmlns="http://www.w3.org/2000/svg">
<path d="M1.83887 115L118.339 1H466.339L431.339 115H1.83887Z" fill="#AFC8FF" stroke="#5B3DA8" stroke-width="1.5"/>
<path d="M173.361 11.7498L146.343 10.7994L130.472 9.78093L124.866 16.8446L128.951 25.0098L113.773 31.8161L128.731 36.0457L121.961 42.6274L139.697 45.0968L160.012 45.3964L174.581 41.7185L206.367 43.8722L228.335 42.5113L217.557 33.8988L236.327 27.6102L232.268 20.5202L233.849 16.5346L222.838 11.9276L197.552 13.6753L184.489 9.90945L173.361 11.7498Z" fill="#DEE8FF" fill-opacity="0.6" stroke="#5B3DA8"/>
<path d="M340.288 13.9963L312.373 13.0092L295.978 11.9497L290.16 19.3139L294.35 27.825L278.642 34.9221L294.083 39.3291L287.064 46.1909L305.381 48.7627L326.372 49.0722L341.44 45.2364L374.276 47.4772L396.981 46.0555L385.875 37.079L405.293 30.5212L401.125 23.1309L402.774 18.976L391.413 14.1749L365.278 16.0002L351.794 12.0764L340.288 13.9963Z" fill="#DEE8FF" fill-opacity="0.6" stroke="#5B3DA8"/>
<path d="M140.664 58.7625L110.924 57.5702L93.4569 56.2906L87.2588 65.1851L91.7231 75.4649L74.9882 84.0369L91.4388 89.3597L83.96 97.6476L103.475 100.754L125.838 101.128L141.891 96.4947L176.874 99.2011L201.063 97.4841L189.231 86.6421L209.919 78.7214L205.478 69.7954L207.234 64.777L195.131 58.9782L167.287 61.1828L152.922 56.4436L140.664 58.7625Z" fill="#DEE8FF" fill-opacity="0.6" stroke="#5B3DA8"/>
<path d="M315.032 63.1283L284.527 62.0487L266.61 60.8896L260.248 68.949L264.822 78.2633L247.652 86.0307L264.523 90.8533L256.847 98.363L276.864 101.177L299.802 101.515L316.271 97.3171L352.153 99.7686L376.965 98.2123L364.835 88.3887L386.059 81.2114L381.509 73.1237L383.313 68.5765L370.9 63.3226L342.339 65.3208L327.606 61.0269L315.032 63.1283Z" fill="#DEE8FF" fill-opacity="0.6" stroke="#5B3DA8"/>
<path d="M171.497 21.3076L151.465 15.7704L139.357 29.3513L163.058 31.5027L169.5 38.0679L212.066 35.6654L202.027 29.0471L219.648 21.1168L171.497 21.3076Z" stroke="#5B3DA8" stroke-linejoin="bevel" stroke-dasharray="5 5"/>
<path d="M321.417 66.4195L279.41 76.0136L282.93 81.7294L287.679 91.6417L312.956 87.7433L339.154 91.0081L354.8 90.9603L317.388 76.5737L333.547 75.2335L346.928 80.1663L363.37 74.4663L353.771 68.7537L321.417 66.4195Z" stroke="#5B3DA8" stroke-linejoin="bevel" stroke-dasharray="5 5"/>
<path d="M332.928 41.3806L370.439 41.9339L357.786 38.332L382.966 27.7746L376.357 19.6514L352.026 18.6948L343.642 22.4133L308.25 21.2083L318.533 28.1051L300.372 36.3753L330.373 34.4271L332.928 41.3806Z" stroke="#5B3DA8" stroke-linejoin="bevel" stroke-dasharray="5 5"/>
<path d="M151.388 75.47L134.262 83.5734L101.052 87.0033L128.494 92.7057L153.844 86.4178L168.842 93.3804L169.657 82.0678L182.359 75.9879L166.705 70.902L175.276 66.0115L149.106 64.8398L140.077 69.408L102.01 67.9326L119.971 77.0422L151.388 75.47Z" stroke="#5B3DA8" stroke-linejoin="bevel" stroke-dasharray="5 5"/>
<path d="M442.574 112.003C445.741 111.813 456.505 62.2434 465.928 38.5504C470.652 41.974 477.916 43.3576 480.958 43.6214C479.191 48.8572 459.157 99.1587 456.321 116.641C449.097 118.206 444.146 114.201 442.574 112.003Z" fill="#7A7BE3" stroke="#5B3DA8" stroke-linejoin="bevel"/>
<path d="M483.335 23.2644L488.65 25.0578L487.394 28.7794L482.079 26.986L480.997 30.1942L486.312 31.9876L485.576 34.1692C479.932 34.4377 478.728 35.9087 478.832 36.6107L473.15 34.6936C472.531 32.6552 469.099 30.5635 467.46 29.7724L476.553 2.82324L486.304 2.96839L494.149 8.76002L490.295 20.1813L484.98 18.3879L483.335 23.2644Z" fill="url(#paint0_linear_81_2)" stroke="#5B3DA8" stroke-linejoin="bevel"/>
<path d="M481.994 16.9526L487.399 16.0604L479.77 9.62712L482.688 4.60834C478.479 3.53108 477.934 5.38665 478.76 6.57045L478.11 8.49538C475.228 8.32351 475.268 10.0617 475.648 10.9522L481.994 16.9526Z" fill="url(#paint1_linear_81_2)" stroke="#5B3DA8" stroke-linejoin="bevel"/>
<path d="M480.501 12.2972C481.349 14.0195 484.372 16.3714 486.31 16.2573C494.226 15.7911 491.994 5.36627 486.237 4.36999C479.872 3.26837 478.846 8.93475 480.501 12.2972Z" fill="#E6E6E6" stroke="#5B3DA8" stroke-linejoin="bevel"/>
<path d="M486.2 9.60908C486.636 9.78157 486.833 10.2701 486.634 10.7027C486.436 11.1351 485.921 11.341 485.485 11.1688C485.05 10.9965 484.852 10.5084 485.05 10.0758C485.248 9.64307 485.764 9.43668 486.2 9.60908Z" fill="#626262" stroke="#5B3DA8"/>
<path d="M467.958 37.3807L465.928 38.5543C469.877 41.3731 477.349 43.027 480.592 43.5016L479.322 41.2149L480.621 37.365L469.257 33.5309L467.958 37.3807Z" fill="#474747" stroke="#5B3DA8" stroke-linejoin="bevel"/>
<defs>
<linearGradient id="paint0_linear_81_2" x1="486.304" y1="2.96839" x2="475.349" y2="35.4357" gradientUnits="userSpaceOnUse">
<stop stop-color="#8B8B8B"/>
<stop offset="1" stop-color="#5D5D5D"/>
</linearGradient>
<linearGradient id="paint1_linear_81_2" x1="484.083" y1="5.07879" x2="480.272" y2="16.3718" gradientUnits="userSpaceOnUse">
<stop stop-color="#CBCACA"/>
<stop offset="1" stop-color="#A8A5A5"/>
</linearGradient>
</defs>
</svg>
