<svg width="395" height="234" viewBox="0 0 395 234" fill="none" xmlns="http://www.w3.org/2000/svg">
<g filter="url(#filter0_d_24_20890)">
<path d="M105.585 9.24821L12.8133 15.2184L4 48.6308L12.8133 219.53L124.603 225.5L274.892 219.53L390.897 208.505L382.971 109.685V9.24821L182 0L105.585 9.24821Z" fill="white"/>
<path d="M23 34.0236C23.0645 34.9269 23.0254 36.1362 22.9614 37.0403C22.9416 37.3217 22.8336 37.1801 22.8152 37.3797C22.7792 37.7614 22.8363 38.1316 22.7923 38.5013C22.7773 38.6279 22.6072 38.4726 22.5953 38.6058C22.531 39.3295 22.5833 40.0176 22.5577 40.7487C22.5161 41.9409 22.4867 43.1255 22.4652 44.3187C22.4209 46.7088 22.4094 49.1263 22.3939 51.5753C22.3865 52.7836 22.256 54.2472 22.3418 55.4956C22.352 55.6397 22.498 55.5515 22.5106 55.5787C22.7032 56.0077 22.4035 55.8688 22.3683 56.1533C22.2297 57.2849 22.2359 58.5314 22.3104 59.6125C22.3426 60.0761 22.6277 59.6054 22.471 60.0767C22.4605 60.1092 22.3021 59.9948 22.2874 60.1209C22.2545 60.4038 22.2914 60.9447 22.2827 61.168C22.2651 61.5959 22.268 61.676 22.2729 62.0737C22.2783 62.6198 22.2118 63.2892 22.2575 63.8781C22.2677 64.0037 22.4252 63.8344 22.456 64.0346C22.4867 64.2346 22.4824 64.7695 22.4478 64.9518C22.4131 65.1337 22.2857 65.0588 22.2573 65.0914C22.0181 65.3636 22.3667 65.9687 22.3765 66.0489C22.5448 67.5007 22.3752 68.7515 22.4013 70.1067C22.4217 71.1471 22.5064 72.2416 22.5172 73.2316C22.5292 74.3984 22.4624 75.3978 22.5009 76.5355C22.5048 76.656 22.6905 76.5108 22.6956 76.658C22.7498 78.2158 22.7624 79.7626 22.6696 81.3216C22.6601 81.477 22.4901 81.2807 22.4707 81.4362C22.3556 82.3883 22.0632 83.9064 22.7974 84.4539C22.7843 85.1013 22.7736 85.8835 22.6421 86.464C22.5575 86.8385 22.3684 86.4811 22.4564 86.9369C22.476 87.0398 22.6308 86.9017 22.6483 87.0562C22.7219 87.7082 22.6879 88.4161 22.7856 89.0597C22.8058 89.1904 22.9465 89.1511 22.9729 89.1876C23.1872 89.4956 22.859 90.0218 22.837 90.1356C22.6739 91.0008 22.763 91.6315 22.7794 92.4325C22.7832 92.6187 22.9676 92.3936 22.978 92.5727C23.0297 93.5019 23.0392 94.4651 22.9798 95.3778C22.9661 95.5809 22.7991 95.3991 22.7842 95.4964C22.7209 95.9254 23.0294 96.0117 22.9747 96.4224C22.9636 96.509 22.8236 96.4643 22.8088 96.4805C22.5766 96.7333 22.9213 96.9378 22.9306 97.0009C23.0553 97.7993 22.7164 98.3219 22.789 99.0944C22.798 99.1868 22.9673 98.9729 22.982 99.233C23.0426 100.293 23.0688 101.392 23.0605 102.479C23.0552 103.17 23.036 103.855 23.0026 104.522C22.9895 104.789 22.8517 104.603 22.836 104.62C22.5909 104.902 22.9367 105.069 22.9523 105.156C23.0665 105.84 22.8021 106.489 23.2225 106.942C23.1777 109.854 23.5065 112.74 23.2502 115.636C23.2474 115.673 23.0775 115.613 23.0725 115.687C23.0112 116.572 23.2652 116.393 23.6053 116.963C23.6906 117.106 23.3232 117.567 23.2966 117.608C23.1982 117.756 22.9434 117.616 22.9252 117.665C22.7825 118.071 23.6038 117.975 23.6246 118.513C23.6239 118.529 23.4696 118.465 23.4562 118.51C23.4142 118.652 23.4798 118.789 23.4329 118.928C23.3241 119.246 22.9281 119.372 23.1797 119.845C23.2123 119.905 23.676 119.794 23.6726 120.275C23.6709 120.468 23.712 121.312 23.6912 121.551C23.6704 121.791 23.5133 121.633 23.5075 121.65C23.3338 122.3 23.2416 122.06 22.9596 122.392C22.6787 122.724 23.3756 122.607 23.459 122.735C23.5422 122.862 23.3967 123.336 23.3442 123.453C23.2917 123.571 23.1902 123.43 23.162 123.534C22.9783 124.225 23.5218 123.82 23.6421 124.039C23.9267 124.557 23.424 124.988 23.3929 125.47C23.3846 125.602 23.4985 125.49 23.5143 125.607C23.5757 126.068 23.4251 126.352 23.5955 126.869C23.6234 126.954 23.9531 127.359 23.7357 127.646C23.7043 127.687 23.5702 127.581 23.5495 127.78C23.5183 128.076 23.5124 128.606 23.5691 128.918C23.611 129.149 23.8129 128.874 23.7591 129.169C23.7351 129.299 23.6001 129.065 23.5653 129.31C23.5305 129.555 23.5629 130.181 23.5774 130.416C23.592 130.652 23.7482 130.516 23.7599 130.535C23.8274 130.647 23.925 131.096 23.9265 131.135C24.0344 133.159 23.8451 135.035 24.0255 136.994C24.0395 137.15 24.2053 137.038 24.2092 137.062C24.3051 137.59 23.8323 137.192 23.6976 137.57C24.0413 137.5 23.9887 137.722 24.0439 138.092C24.0707 138.27 24.2002 138.166 24.2147 138.182C24.4306 138.438 24.1762 138.633 24.1246 138.683C23.935 138.869 24.1779 139.052 24.0512 139.179C23.9256 139.305 23.718 139.037 23.7373 139.396C23.8659 139.49 24.1773 139.209 24.2425 139.479C24.4885 140.485 24.3259 142.41 24.3398 143.237C24.3529 144.052 24.3893 144.325 24.3679 144.804C24.3295 145.67 24.5537 145.335 24.6906 145.873C24.8274 146.408 24.2233 146.174 24.1001 146.258C23.9769 146.341 24.1118 146.417 24.0467 146.515C23.9816 146.613 23.8851 146.413 23.8699 146.636C23.8547 146.857 24.1109 147.448 24.2479 147.523C24.5377 147.676 24.8193 147.388 24.7452 147.98C24.7407 148.014 24.5798 147.913 24.5706 148.043C24.5025 149.065 24.5498 150.132 24.4977 151.169C24.4902 151.31 24.3108 151.193 24.3045 151.276C24.2381 152.126 24.514 151.812 24.8624 152.265C24.426 152.181 24.1762 152.459 24.2076 153.1C24.2264 153.484 24.4114 153.415 24.5574 153.66C24.6015 153.734 24.487 154.017 24.5782 154.062C24.8762 154.21 25.1863 153.937 25.0928 154.603C25.0883 154.632 24.925 154.549 24.9208 154.649C24.8939 155.317 25.2004 155.375 25.2755 156.075C25.335 156.637 25.2047 157.628 25.2101 158.259C24.7248 158.27 24.8694 158.863 25.2172 159.088C25.2221 159.301 25.2362 159.519 25.2452 159.733C25.2575 159.933 25.266 160.138 25.2584 160.331C25.2531 160.469 25.1062 160.39 25.0924 160.409C24.8751 160.691 25.2131 160.843 25.2325 160.929C25.4285 161.867 25.2427 162.67 25.5539 163.569C25.565 163.601 25.9051 163.629 25.6787 163.892C25.663 163.909 25.4869 163.619 25.5082 164.049C25.5288 164.47 25.4128 165.309 25.6144 165.885C25.6628 166.023 25.9641 166.367 25.7743 166.681C25.7485 166.723 25.6487 166.687 25.5996 166.748C25.4431 166.945 25.7905 167.018 25.5187 167.253C25.2467 167.484 25.0661 167.952 25.3129 168.538C25.3202 168.557 25.6005 168.678 25.6111 168.865C25.6271 169.155 25.6068 169.608 25.6334 169.918C25.6463 170.068 25.8057 169.958 25.8109 169.984C25.9855 170.987 25.8955 171.729 25.9195 172.814C25.9232 173.009 26.1995 173.578 26.0507 173.969C25.8884 174.403 25.0327 174.047 25.3095 175.002C25.4197 175.376 26.5034 175.802 26.0245 176.547C26.2756 177.903 26.1117 179.194 26.429 180.549C26.4431 180.61 26.7513 180.779 26.7607 180.922C26.7738 181.132 26.65 181.27 26.6555 181.424C26.6749 182.067 26.8476 182.645 26.8912 183.271C26.908 183.507 26.7591 183.433 26.7797 183.72C26.8006 184.006 27.0029 184.164 26.9534 184.56C26.915 184.855 26.5675 185.179 26.564 185.567C26.9374 185.542 26.957 185.804 27.1055 186.259C27.1341 186.346 27.2532 186.237 27.2734 186.277C27.3584 186.439 27.2689 186.613 27.3594 186.768C27.3812 186.806 27.5083 186.794 27.5333 186.824C27.7502 187.076 27.5163 187.567 27.4754 187.649C27.3204 187.967 27.5019 188.092 27.454 188.329C27.4061 188.565 27.2737 188.235 27.2596 188.507C27.2311 189.075 27.3368 189.785 27.4005 190.349C27.4266 190.574 27.5769 190.4 27.5846 190.432C27.6848 190.892 27.5643 191.384 27.9339 191.599C27.9062 191.613 27.8806 191.627 27.8568 191.64C27.1712 192.028 28.0493 191.89 27.9811 192.549C27.9755 192.602 27.5771 192.74 27.4838 192.545C27.3908 192.35 27.475 192.024 27.3428 191.758C27.3382 191.749 27.3248 191.734 27.3053 191.715C27.1924 191.6 26.8729 191.354 26.8475 191.312C26.6138 190.93 27.2224 190.796 27.2535 190.77C27.588 190.482 27.1156 190.071 27.072 189.952C26.8726 189.411 26.9032 188.927 26.7548 188.469C26.6588 188.172 26.2517 188.188 26.2365 187.945C26.1871 187.144 26.7193 186.798 26.1501 186.103C26.0287 185.953 25.6035 186.156 25.89 185.545C25.908 185.506 26.1805 185.041 25.9543 184.816C25.9258 184.787 25.7971 184.802 25.7821 184.761C25.6835 184.49 25.7677 184.299 25.6883 184.003C25.6085 183.702 25.5003 183.358 25.51 183.005C25.5156 182.793 25.7306 182.511 25.7797 182.405C25.9217 182.106 25.616 181.837 25.8048 181.645C25.9943 181.45 26.3395 181.763 26.4294 181.291C26.093 181.306 25.7457 181.298 25.4064 181.302C25.3245 180.301 25.3438 179.307 25.2398 178.299C25.2268 178.176 25.0579 178.318 25.0392 178.186C24.9608 177.623 25.0471 177.126 24.945 176.538C24.8664 176.095 24.6327 175.605 24.5453 175.141C24.9048 174.826 24.7149 174.123 24.7084 173.617C24.7057 173.437 24.8091 173.44 24.832 173.309C24.9153 172.811 24.5955 173.07 24.5314 172.943C24.2582 172.406 25.0206 172.287 24.9476 171.624C24.9441 171.59 24.5007 171.196 24.4703 171.138C24.2737 170.773 24.6076 171.064 24.6187 170.824C24.638 170.375 24.7135 170.091 24.5528 169.587C24.5055 169.442 24.222 169.103 24.397 168.808C24.4198 168.769 24.5566 168.779 24.5622 168.748C24.6509 168.192 24.2248 168.209 24.0559 167.902C23.8874 167.6 24.1431 167.101 24.2198 166.994C24.4181 166.718 24.3287 167.184 24.3512 167.196C24.6193 167.339 24.5479 166.992 24.5481 166.718C24.9615 166.646 24.9065 166.265 24.5466 166.433C24.5073 166.452 24.5628 166.662 24.5481 166.718C24.1204 166.507 24.0361 166.102 24.3825 165.617C24.5447 165.388 24.7694 165.578 24.6419 164.925C24.5839 164.625 24.3066 164.769 24.2083 164.516C23.9846 163.945 24.1908 163.129 24.1026 162.532C24.0702 162.311 23.9298 162.54 23.9023 162.389C23.8288 161.99 23.9179 161.607 23.8276 161.218C23.8191 161.182 23.6616 161.284 23.6499 161.159C23.6069 160.714 23.593 160.288 23.5824 159.852L23.5809 159.828C23.5796 159.362 23.5814 158.856 23.5538 158.335C23.5282 157.855 23.3893 156.993 23.3801 156.49C23.3629 155.618 23.5445 154.537 23.4469 153.8C23.3837 153.316 23.2245 153.426 23.1016 153.229C22.8632 152.847 23.2152 152.114 23.2704 152.013C23.2722 152.01 23.3331 152.428 23.4058 152.2C23.5751 152.06 23.2714 152.018 23.2704 152.013C23.3057 151.942 23.3003 151.122 23.2601 150.955C23.2382 150.865 23.0848 150.924 23.0764 150.877C22.8789 149.769 22.7825 148.662 22.7984 147.526C22.8006 147.506 22.9766 147.527 22.9794 147.48C23.0241 146.821 22.7901 146.422 22.6363 145.883C22.4828 145.348 22.5046 144.926 22.7884 144.59C22.7305 144.181 22.8347 143.595 22.8988 143.257C22.9629 142.918 22.621 142.887 22.6128 142.857C22.353 141.937 22.5227 141.411 22.5073 140.446C22.501 139.997 22.4092 139.092 22.3492 138.603C22.3013 138.218 22.3701 137.981 22.3026 137.624C22.2936 137.576 22.1446 137.632 22.1381 137.617C21.9386 137.225 22.3173 137.4 22.3795 137.314C22.6058 137.001 22.7253 136.813 22.5891 136.308C22.5578 136.192 22.0097 135.872 21.9688 135.657C21.9165 135.378 22.1122 135.476 22.0526 135.183C22.0477 135.157 21.9302 135.168 21.9273 134.988C21.9123 134.155 21.9396 133.226 21.8897 132.36C21.8833 132.241 21.7033 132.402 21.6909 132.23C21.633 131.417 21.6019 130.541 21.6554 129.744C21.6691 129.549 21.8051 129.665 21.8422 129.621C22.0659 129.35 21.7091 129.004 21.7 128.943C21.4747 127.508 21.7376 126.392 21.5303 124.93C21.5184 124.851 21.1273 124.25 21.4301 123.962C21.4502 123.942 21.7603 123.655 21.531 123.425C21.5167 123.41 21.3582 123.586 21.3632 123.291C21.3681 122.996 21.2387 122.526 21.4042 122.111C21.4564 121.981 21.7645 121.661 21.4941 121.289C21.4753 121.265 20.8747 120.697 21.2648 120.47C21.3291 120.433 21.7521 120.453 21.5181 120.003C21.4728 119.917 21.3849 120.08 21.3172 119.851C21.2129 119.499 21.308 119.03 21.1036 118.603C21.0674 118.529 20.7689 118.218 20.9763 117.95C21.0088 117.908 21.1525 117.98 21.1631 117.843C21.2139 117.187 21.0945 116.517 21.1674 115.852C21.193 115.617 21.425 115.728 21.477 115.482C21.5289 115.235 21.5697 114.746 21.4564 114.495C21.3431 114.244 20.9905 114.535 20.9477 114.155C20.7614 112.498 20.9166 110.85 20.8914 109.19C20.8877 108.944 20.7647 109.152 20.7501 108.791C20.6951 107.458 20.4983 105.154 20.7381 103.988C20.93 103.053 21.1347 104.216 21.2024 103.504C21.2346 103.16 20.8014 102.803 20.7856 102.72C20.7741 102.662 20.7643 102.606 20.756 102.55C20.6491 101.835 20.7901 101.298 20.7169 100.626C20.7005 100.476 20.5339 100.628 20.5219 100.501C20.4793 100.065 20.5421 99.6048 20.5161 99.1884C20.504 99.0017 20.3744 99.0399 20.3795 98.8676C20.3902 98.4553 20.4347 98.0897 20.5456 97.6847C20.5558 97.6478 20.7252 97.8899 20.7226 97.5851C20.7179 97.0917 20.8215 96.4771 20.6812 95.9134C20.639 95.7461 20.3404 95.7476 20.5366 95.3801C20.5775 95.303 20.9385 95.39 20.6174 94.9771C20.564 94.9076 20.1272 94.2116 20.3871 93.8572C20.4555 93.7635 20.7425 93.5215 20.691 93.3203C20.683 93.293 20.5256 93.4073 20.5055 93.2399C20.4375 92.6496 20.4385 92.0323 20.3726 91.4251C20.3547 91.2631 20.195 91.5091 20.1736 91.2676C20.1146 90.6025 20.1359 89.7763 20.1716 89.1223C20.1851 88.882 20.3266 89.0443 20.3412 89.0265C20.5774 88.7399 20.245 88.5824 20.2236 88.4898C20.0947 87.9141 20.2382 87.4717 20.1845 86.9375C20.1701 86.7904 20.0161 86.8987 20.0014 86.8696C19.8578 86.5688 20.1443 86.7885 20.1707 86.5954C20.2455 86.0535 20.2188 85.4577 20.186 84.9101C20.1737 84.7098 19.9975 84.9394 19.9886 84.7596C19.9325 83.6978 19.9247 82.5896 20.0017 81.5525C20.0166 81.3573 20.1591 81.4767 20.1901 81.4355C20.4073 81.1524 20.0934 80.7437 20.0624 80.6502C19.9204 80.2221 20.0404 80.0524 20.0091 79.6737C19.8539 77.8159 19.8886 75.5327 19.9043 73.7724C19.9241 71.4849 20.0238 69.7185 19.9496 67.539C19.945 67.4017 19.7616 67.5435 19.7553 67.4253C19.6824 65.8766 19.7287 64.3712 19.6487 62.8222C19.6425 62.6956 19.4693 62.8811 19.4534 62.6782C19.4195 62.2622 19.4203 61.7392 19.4695 61.3114C19.4932 61.1046 19.6491 61.3788 19.6698 61.1708C19.7185 60.6845 19.7228 60.1818 19.6864 59.6777C19.6705 59.4661 19.4954 59.7884 19.4888 59.5134C19.4408 57.6509 19.3812 55.8228 19.5863 53.9308C19.6004 53.8012 19.9653 53.6905 19.8908 53.41C19.7888 53.3906 19.6691 53.3935 19.5603 53.386C19.4611 50.6662 19.5501 47.9773 19.5322 45.26C19.5313 45.1435 19.34 45.3473 19.3374 45.1221C19.3343 44.8624 19.3292 44.6094 19.3242 44.3621C19.3038 43.3283 19.2863 42.3257 19.4263 41.2758C19.4433 41.1425 19.7858 41.2022 19.7288 40.8186C19.7185 40.7547 19.6649 40.173 19.5887 40.0237C19.5772 40.0038 19.4192 40.1106 19.412 39.9257C19.3728 38.8421 19.3936 37.7096 19.4761 36.6213C19.4897 36.4494 19.662 36.6294 19.6732 36.5077C19.7512 35.6257 19.6089 34.6606 19.7516 33.821C19.8477 33.2551 20.144 33.458 20.4289 33.1564C20.469 33.1092 20.4709 32.7674 20.6387 32.7428C21.0608 32.6906 21.5259 32.8556 21.9755 32.7798C22.072 32.7524 21.9628 32.3354 22.1999 32.5714C22.2158 32.5941 22.298 32.9241 22.3788 33.0111C22.4345 33.0655 22.6041 32.9621 22.6761 33.0766C22.7481 33.1992 22.6064 33.3219 22.6919 33.525C22.7783 33.7137 22.9716 33.6283 23 34.0236ZM23.1852 141.728C23.3336 141.411 22.7339 141.394 22.8928 141.722C22.9012 141.738 23.178 141.745 23.1852 141.728ZM25.794 179.268C26.021 178.845 25.6095 178.598 25.4322 178.903C25.255 179.208 25.7253 179.396 25.794 179.268ZM26.3812 183.45C26.5417 182.959 25.6901 182.966 25.9107 183.456C25.9233 183.484 26.3719 183.479 26.3812 183.45ZM20.5301 34.5439C20.5379 34.5356 20.5424 34.2969 20.5344 34.284C20.3426 34.154 20.3341 34.6522 20.5301 34.5439ZM27.0295 187.59C27.1268 187.431 26.9477 187.018 26.8263 187.218C26.7288 187.38 26.9083 187.789 27.0295 187.59ZM23.1017 125.495C23.1104 125.489 23.1111 125.31 23.0609 125.316C22.8992 125.335 22.9553 125.583 23.1017 125.495ZM28.327 194.644C27.9996 194.136 28.1033 193.654 28.2219 193.478C28.3549 193.292 28.5136 193.396 28.651 193.876C28.7046 194.059 28.3016 193.569 28.324 193.82C28.3459 194.058 28.5062 194.21 28.6562 194.318C28.8139 194.431 28.9269 194.487 29.0311 194.673C29.0531 194.705 28.9159 194.779 28.7296 194.769C28.5455 194.765 28.3433 194.673 28.3249 194.643C28.3256 194.644 28.3263 194.644 28.327 194.644ZM23.8944 141.516C23.902 141.509 23.8976 141.26 23.8895 141.254C23.6933 141.128 23.7021 141.631 23.8944 141.516ZM23.0622 114.975C23.0785 114.961 23.0732 114.383 23.057 114.364C22.7357 114.074 22.7455 115.243 23.0622 114.975ZM25.1977 158.27C25.4032 158.522 25.4447 158.858 25.2173 159.087C25.2148 158.817 25.2007 158.533 25.1977 158.27Z" fill="#686868"/>
<path d="M31.1171 193.628C33.0537 193.603 35.6054 193.712 37.5358 193.838C38.1394 193.877 37.8305 193.975 38.254 194.007C39.0587 194.069 39.8301 194.038 40.6364 194.111C40.9012 194.135 40.5657 194.293 40.8441 194.315C42.3799 194.434 43.8364 194.438 45.3957 194.527C48.2938 194.693 51.171 194.854 54.065 195.016C58.8734 195.299 63.5596 195.941 68.3374 196.382C70.8796 196.629 73.9691 197.011 76.5873 197.104C76.8928 197.115 76.72 196.957 76.7788 196.948C77.704 196.818 77.4022 197.098 77.9827 197.171C80.3453 197.465 82.9871 197.604 85.2821 197.637C86.2498 197.651 85.2871 197.32 86.2636 197.522C86.3319 197.536 86.0766 197.683 86.3456 197.71C86.9773 197.771 88.0837 197.782 88.5711 197.81C89.492 197.864 89.6125 197.866 90.4782 197.894C91.6626 197.932 93.052 198.046 94.2965 198.039C94.5631 198.037 94.2134 197.868 94.6399 197.85C95.0634 197.833 96.2209 197.87 96.5848 197.914C96.9622 197.959 96.7991 198.082 96.8655 198.113C97.2521 198.292 98.03 198.187 98.5203 198.108C98.7142 198.075 98.8597 198.047 98.9083 198.045C102.006 197.95 104.603 198.17 107.507 198.192C109.698 198.207 112.057 198.156 114.129 198.171C116.632 198.189 118.728 198.278 121.138 198.262C121.393 198.26 121.093 198.072 121.406 198.07C124.707 198.045 128.008 198.054 131.291 198.164C131.623 198.175 131.197 198.343 131.528 198.364C133.549 198.49 136.75 198.794 137.943 198.063C139.316 198.08 140.971 198.094 142.2 198.228C142.991 198.313 142.227 198.501 143.194 198.415C143.413 198.395 143.127 198.24 143.454 198.223C144.833 198.151 146.345 198.186 147.709 198.088C147.986 198.068 147.909 197.927 147.987 197.901C148.646 197.687 149.752 198.014 149.993 198.036C151.824 198.198 153.157 198.107 154.862 198.087C155.257 198.082 154.787 197.899 155.167 197.888C157.136 197.832 159.182 197.816 161.115 197.868C161.546 197.88 161.153 198.049 161.359 198.063C162.266 198.123 162.461 197.813 163.328 197.864C163.511 197.874 163.411 198.015 163.444 198.029C163.969 198.259 164.421 197.912 164.555 197.902C166.256 197.769 167.344 198.102 168.989 198.019C169.186 198.009 168.74 197.843 169.291 197.824C172.971 197.702 176.862 197.663 180.501 197.712C181.072 197.719 180.668 197.861 180.704 197.877C181.296 198.116 181.664 197.766 181.848 197.748C183.294 197.619 184.674 197.866 185.648 197.434C190.742 197.407 195.873 197.106 200.917 197.06C201.999 197.049 203.001 197.052 204.073 197.067C204.152 197.068 204.018 197.242 204.175 197.242C206.05 197.253 205.662 197.009 206.897 196.632C207.208 196.537 208.154 196.876 208.242 196.899C208.558 196.988 208.248 197.253 208.353 197.268C209.218 197.382 209.043 196.566 210.167 196.507C210.202 196.506 210.063 196.666 210.157 196.676C210.445 196.708 210.755 196.631 211.048 196.668C211.729 196.751 211.961 197.14 212.981 196.848C213.107 196.811 212.891 196.355 213.903 196.318C214.289 196.305 216.108 196.185 216.602 196.182C217.112 196.18 216.773 196.353 216.81 196.357C218.183 196.467 217.666 196.583 218.361 196.832C219.07 197.078 218.829 196.392 219.102 196.295C219.374 196.198 220.367 196.292 220.623 196.33C220.872 196.369 220.574 196.487 220.793 196.504C222.24 196.609 221.388 196.111 221.857 195.964C222.961 195.616 223.868 196.066 224.885 196.034C225.161 196.025 224.926 195.925 225.173 195.894C226.149 195.77 226.747 195.882 227.837 195.636C228.012 195.597 228.889 195.204 229.481 195.38C229.567 195.406 229.344 195.556 229.764 195.547C230.39 195.533 231.509 195.456 232.168 195.349C232.656 195.27 232.072 195.112 232.698 195.118C232.977 195.121 232.478 195.295 233 195.29C233.516 195.286 234.831 195.151 235.33 195.097C235.829 195.044 235.54 194.91 235.579 194.895C235.817 194.809 236.766 194.636 236.851 194.628C241.116 194.184 245.088 194.071 249.245 193.639C249.57 193.606 249.339 193.453 249.389 193.446C250.493 193.285 249.652 193.808 250.446 193.897C250.301 193.561 250.785 193.585 251.557 193.487C251.934 193.439 251.718 193.321 251.751 193.305C252.299 193.058 252.723 193.291 252.822 193.337C253.204 193.507 253.593 193.244 253.859 193.357C254.125 193.47 253.547 193.707 254.314 193.649C254.5 193.524 254.041 193.285 254.362 193.168C254.398 193.155 254.444 193.143 254.502 193.134C256.657 192.777 260.716 192.776 262.467 192.701C264.211 192.625 264.766 192.571 265.789 192.559C267.625 192.539 266.936 192.336 268.074 192.164C269.209 191.993 268.685 192.614 268.856 192.732C269.023 192.85 269.191 192.711 269.395 192.77C269.598 192.829 269.171 192.938 269.642 192.94C270.116 192.941 271.386 192.649 271.545 192.507C271.884 192.208 271.286 191.942 272.541 191.983C272.613 191.985 272.387 192.152 272.664 192.154C274.838 192.164 277.105 192.062 279.28 192.066C279.581 192.067 279.321 192.252 279.496 192.255C281.309 192.281 280.649 192.02 281.628 191.65C281.425 192.091 281.986 192.33 283.359 192.27C284.185 192.234 284.037 192.053 284.564 191.896C284.722 191.849 285.312 191.952 285.414 191.859C285.751 191.554 285.184 191.254 286.609 191.321C286.672 191.324 286.48 191.491 286.696 191.491C288.086 191.493 288.24 191.183 289.739 191.082C290.915 191.002 293.015 191.098 294.357 191.072C294.349 191.558 295.61 191.394 296.108 191.038C296.981 191.016 297.917 190.958 298.76 190.97C299.05 190.973 298.865 191.122 298.903 191.135C299.473 191.35 299.837 191.009 300.024 190.989C302.052 190.782 303.724 190.961 305.651 190.642C305.719 190.63 305.818 190.289 306.348 190.514C306.382 190.529 305.747 190.709 306.661 190.683C307.57 190.659 309.303 190.77 310.565 190.563C310.873 190.512 311.635 190.208 312.264 190.396C312.349 190.422 312.262 190.522 312.384 190.571C312.781 190.727 312.98 190.378 313.446 190.649C313.908 190.919 314.873 191.097 316.137 190.846C316.178 190.839 316.464 190.557 316.872 190.544C317.524 190.525 318.414 190.545 319.099 190.515C319.422 190.501 319.208 190.342 319.264 190.336C321.136 190.177 322.583 190.221 324.445 190.212C324.714 190.208 324.991 190.203 325.278 190.197C325.716 190.186 326.878 189.898 327.736 190.035C328.649 190.187 327.769 191.055 329.816 190.756C330.668 190.635 331.635 189.542 333.185 190.009C336.088 189.735 338.792 189.887 341.699 189.572C341.832 189.558 342.218 189.25 342.535 189.241C343.002 189.228 343.258 189.354 343.584 189.35C344.947 189.336 346.218 189.171 347.519 189.143C348.028 189.132 347.859 189.278 348.459 189.266C349.044 189.254 349.456 189.055 350.26 189.12C350.864 189.17 351.5 189.53 352.31 189.553C352.339 189.179 352.875 189.172 353.881 189.052C354.072 189.028 353.865 188.903 353.955 188.885C354.32 188.81 354.652 188.912 355.009 188.832C355.095 188.813 355.096 188.686 355.166 188.663C355.737 188.465 356.736 188.741 356.89 188.79C357.552 188.974 357.819 188.807 358.327 188.881C358.816 188.956 358.088 189.049 358.655 189.094C359.837 189.189 361.36 189.189 362.559 189.252C363.025 189.277 362.716 189.091 362.783 189.09C363.789 189.096 364.758 189.371 365.352 189.121C365.647 189.632 365.783 189.613 366.057 189.549C366.319 189.48 366.668 189.376 367.324 189.523C367.43 189.545 367.548 189.975 367.099 189.993C366.8 190.003 366.412 189.903 366.012 189.824L365.994 189.821C365.819 189.777 365.616 189.746 365.424 189.746C365.28 189.74 364.465 190.03 364.353 190.047C363.508 190.152 363.429 189.535 363.382 189.496C362.901 189.093 361.887 189.472 361.634 189.495C360.445 189.591 359.446 189.497 358.454 189.591C357.796 189.653 357.747 190.06 357.236 190.051C355.546 190.025 354.943 189.47 353.348 189.997C353.012 190.11 353.378 190.544 352.127 190.226C352.044 190.206 351.147 189.911 350.607 190.13C350.543 190.157 350.549 190.286 350.464 190.3C349.898 190.387 349.479 190.297 348.857 190.367C348.233 190.437 347.452 190.538 346.735 190.52C346.293 190.51 345.715 190.291 345.51 190.24C344.925 190.092 344.265 190.397 343.91 190.205C343.535 190.013 344.242 189.67 343.271 189.575C343.248 189.913 343.18 190.261 343.135 190.601C341.016 190.676 338.895 190.661 336.773 190.774C336.505 190.788 336.788 190.956 336.5 190.977C335.33 191.06 334.245 190.982 333.025 191.092C332.048 191.18 331.035 191.422 330.016 191.521C329.371 191.167 327.909 191.372 326.812 191.392C326.438 191.399 326.457 191.296 326.188 191.276C325.166 191.204 325.658 191.519 325.381 191.587C325.021 191.675 324.753 191.667 324.517 191.615L324.505 191.615C323.979 191.49 323.622 191.134 322.623 191.19C322.548 191.193 321.66 191.641 321.532 191.672C320.735 191.872 321.394 191.535 320.887 191.526C319.971 191.508 319.332 191.437 318.262 191.601C317.953 191.649 317.215 191.935 316.592 191.763C316.51 191.74 316.548 191.603 316.484 191.598C315.323 191.512 315.306 191.939 314.642 192.111C313.981 192.282 312.947 192.029 312.731 191.953C312.172 191.756 313.149 191.842 313.177 191.82C313.515 191.55 312.767 191.624 312.188 191.626C312.089 191.212 311.293 191.269 311.597 191.629C311.631 191.668 312.073 191.611 312.188 191.626C311.707 192.056 310.828 192.144 309.836 191.8C309.375 191.639 309.799 191.413 308.417 191.545C307.79 191.605 308.04 191.883 307.493 191.983C306.238 192.213 304.583 192.011 303.275 192.106C302.803 192.141 303.27 192.28 302.948 192.309C302.094 192.386 301.327 192.299 300.469 192.395C300.391 192.404 300.588 192.561 300.321 192.574C298.288 192.676 296.513 192.644 294.391 192.73C293.364 192.771 291.535 192.94 290.472 192.967C288.631 193.015 286.354 192.875 284.785 193.004C283.762 193.087 283.992 193.242 283.558 193.374C282.72 193.629 281.202 193.308 280.996 193.257C280.989 193.256 281.872 193.176 281.396 193.113C281.114 192.95 281.006 193.256 280.996 193.257C280.861 193.225 279.099 193.269 278.748 193.317C278.559 193.344 278.673 193.495 278.574 193.505C276.224 193.756 273.868 193.911 271.472 193.961C271.43 193.96 271.484 193.782 271.385 193.782C270.004 193.775 269.124 194.036 267.991 194.224C266.853 194.412 265.955 194.42 265.258 194.158C264.407 194.244 263.153 194.184 262.447 194.145C261.74 194.107 261.65 194.453 261.59 194.463C259.665 194.795 258.516 194.673 256.501 194.778C256.003 194.804 255.228 194.867 254.489 194.936C253.781 195.002 253.103 195.073 252.609 195.128C251.774 195.221 251.306 195.178 250.536 195.29C250.434 195.305 250.55 195.448 250.519 195.456C249.69 195.705 250.066 195.303 249.887 195.251C249.253 195.062 248.825 194.968 247.77 195.172C247.518 195.219 246.838 195.813 246.395 195.884C245.803 195.976 246.009 195.766 245.397 195.868C245.345 195.876 245.365 195.992 244.988 196.022C243.216 196.16 241.283 196.277 239.444 196.47C239.193 196.496 239.534 196.65 239.171 196.691C237.47 196.881 235.599 197.061 233.926 197.136C233.515 197.154 233.759 196.998 233.666 196.968C233.102 196.787 232.353 197.202 232.229 197.22C229.195 197.675 226.836 197.576 223.725 197.972C223.552 197.995 222.282 198.461 221.671 198.191C221.63 198.173 221.038 197.895 220.537 198.152C220.506 198.168 220.883 198.307 220.245 198.336C219.635 198.363 218.599 198.546 217.747 198.42C217.479 198.38 216.784 198.105 216.006 198.41C215.964 198.431 214.716 199.087 214.257 198.715C214.18 198.653 214.238 198.228 213.276 198.5C213.091 198.553 213.438 198.627 212.946 198.715C212.195 198.848 211.212 198.79 210.288 199.027C210.133 199.068 209.472 199.39 208.905 199.201C208.816 199.171 208.975 199.022 208.68 199.021C207.308 199.014 205.853 199.177 204.462 199.142C203.96 199.129 204.207 198.891 203.679 198.853C203.161 198.814 202.136 198.799 201.588 198.925C201.089 199.041 201.565 199.335 201.012 199.431C200.964 199.439 200.907 199.446 200.841 199.452C197.323 199.718 193.824 199.625 190.315 199.702C189.791 199.714 190.22 199.831 189.46 199.856C186.623 199.954 181.746 200.207 179.279 199.99C177.304 199.817 179.78 199.588 178.271 199.535C177.54 199.51 176.764 199.95 176.591 199.967C174.89 200.141 173.683 199.981 172.15 200.071C171.832 200.09 172.148 200.254 171.877 200.268C170.948 200.317 169.976 200.261 169.094 200.293C168.698 200.307 168.773 200.436 168.408 200.433C167.531 200.428 166.758 200.388 165.907 200.281C165.829 200.272 166.348 200.099 165.703 200.105C164.658 200.115 163.354 200.018 162.156 200.163C161.8 200.207 161.791 200.506 161.019 200.312C160.857 200.272 161.057 199.91 160.166 200.235C160.018 200.289 158.525 200.731 157.783 200.473C157.587 200.405 157.085 200.119 156.657 200.172C156.599 200.18 156.834 200.337 156.479 200.358C155.229 200.429 153.912 200.431 152.625 200.498C152.282 200.517 152.796 200.676 152.284 200.698C150.875 200.759 149.113 200.739 147.734 200.703C147.226 200.689 147.576 200.548 147.538 200.533C146.941 200.297 146.594 200.629 146.396 200.651C145.169 200.779 144.232 200.635 143.103 200.687C142.791 200.701 143.014 200.855 142.952 200.87C142.308 201.013 142.786 200.727 142.377 200.7C141.23 200.623 139.961 200.647 138.803 200.677C138.377 200.688 138.857 200.866 138.475 200.874C136.22 200.924 133.874 200.922 131.672 200.834C131.256 200.818 131.517 200.676 131.43 200.645C130.832 200.425 129.963 200.734 129.763 200.764C128.857 200.9 128.494 200.778 127.687 200.804C123.749 200.935 118.883 200.858 115.166 200.797C110.316 200.718 106.553 200.561 101.933 200.541C101.642 200.539 101.933 200.729 101.683 200.73C100.623 200.731 99.5172 200.717 98.4789 200.699C96.2586 200.659 94.1395 200.594 91.9039 200.571C91.6371 200.568 92.0163 200.755 91.5888 200.756C90.7109 200.759 89.5705 200.715 88.6868 200.63C88.2434 200.589 88.8437 200.457 88.3982 200.418C87.3706 200.327 86.2738 200.275 85.2249 200.262C84.7832 200.257 85.4409 200.463 84.8686 200.443C80.8784 200.299 77.0068 200.124 73.0084 199.603C72.7373 199.568 72.5099 199.184 71.9278 199.211C71.8767 199.309 71.8701 199.428 71.843 199.535C66.0751 199.191 60.3676 198.331 54.7307 197.98C54.4928 197.967 54.8936 198.182 54.4338 198.158C54.2669 198.15 54.1003 198.143 53.934 198.136C51.3849 198.032 48.9015 197.971 46.3021 197.699C46.0248 197.67 46.1734 197.333 45.3641 197.357C45.2252 197.362 43.9913 197.366 43.6734 197.43C43.6296 197.44 43.8501 197.606 43.4511 197.598C41.1539 197.548 38.7617 197.443 36.4641 197.292C36.1012 197.267 36.4913 197.106 36.234 197.087C34.3571 196.953 32.3256 197.043 30.5498 196.866C29.358 196.748 29.8003 196.46 29.1722 196.165C29.0724 196.123 28.3386 196.111 28.3038 195.943C28.2086 195.52 28.5673 195.059 28.4213 194.608C28.3986 194.51 27.3954 194.612 27.9832 194.379C28.0289 194.363 28.7488 194.289 28.9295 194.211C29.0531 194.157 28.8293 193.984 29.0866 193.916C29.3416 193.848 29.6104 193.994 30.0415 193.916C30.4511 193.837 30.2759 193.64 31.1171 193.628ZM259.225 193.982C258.558 193.861 258.5 194.464 259.2 194.276C259.234 194.266 259.259 193.988 259.225 193.982ZM338.9 190.211C338.015 189.986 337.467 190.4 338.073 190.576C338.668 190.753 339.174 190.278 338.9 190.211ZM347.815 189.658C346.803 189.485 346.682 190.339 347.742 190.129C347.806 190.118 347.875 189.668 347.815 189.658ZM32.117 196.121C32.1022 196.113 31.5832 196.097 31.565 196.104C31.2803 196.29 32.3379 196.322 32.117 196.121ZM356.667 189.228C356.365 189.116 355.435 189.262 355.839 189.399C356.169 189.508 357.051 189.367 356.667 189.228ZM224.936 196.322C224.925 196.314 224.548 196.337 224.559 196.387C224.599 196.546 225.118 196.458 224.936 196.322ZM371.708 189.608C369.467 189.882 368.111 189.214 370.487 189.104C370.921 189.074 369.579 189.42 370.135 189.429C371.163 189.441 371.77 188.906 372.832 188.975C373.024 188.989 371.84 189.597 371.704 189.609C371.705 189.609 371.707 189.608 371.708 189.608ZM258.801 193.289C258.787 193.282 258.263 193.308 258.251 193.317C257.98 193.525 259.035 193.472 258.801 193.289ZM202.668 197.292C202.642 197.276 201.411 197.311 201.368 197.328C200.738 197.665 203.23 197.595 202.668 197.292ZM294.378 191.084C294.948 190.869 295.637 190.817 296.106 191.038C295.533 191.049 294.956 191.071 294.378 191.084Z" fill="#686868"/>
<path d="M371.442 186.419C371.306 185.529 371.248 184.384 371.234 183.492C371.23 183.216 371.35 183.344 371.351 183.15C371.353 182.764 371.267 182.437 371.276 182.055C371.281 181.934 371.463 182.065 371.464 181.938C371.465 181.233 371.35 180.561 371.311 179.859C371.107 176.325 370.777 172.896 370.431 169.336C370.318 168.181 370.295 166.718 370.084 165.535C370.059 165.396 369.923 165.497 369.907 165.472C369.671 165.073 369.983 165.177 369.989 164.894C370.011 163.795 369.874 162.581 369.686 161.535C369.605 161.087 369.37 161.569 369.478 161.106C369.485 161.074 369.654 161.166 369.656 161.043C369.659 160.765 369.565 160.244 369.55 160.025C369.522 159.606 369.511 159.531 369.464 159.147C369.401 158.619 369.395 157.959 369.287 157.393C369.264 157.273 369.125 157.454 369.073 157.264C369.021 157.075 368.969 156.556 368.984 156.376C368.998 156.195 369.133 156.254 369.158 156.219C369.367 155.929 368.954 155.375 368.936 155.301C368.614 153.917 368.648 152.692 368.474 151.368C368.396 150.786 368.293 150.175 368.197 149.57C368.13 149.152 368.067 148.741 368.019 148.348C367.88 147.21 367.843 146.237 367.69 145.133C367.674 145.016 367.504 145.176 367.484 145.033C367.275 143.521 367.12 142.013 367.084 140.484C367.081 140.332 367.267 140.508 367.273 140.355C367.308 139.413 367.489 137.917 366.719 137.433C366.688 136.804 366.647 136.036 366.743 135.459C366.805 135.09 367.015 135.426 366.9 134.987C366.874 134.887 366.728 135.032 366.702 134.882C366.59 134.252 366.585 133.557 366.454 132.93C366.427 132.803 366.289 132.85 366.261 132.816C366.031 132.531 366.333 131.992 366.35 131.881C366.472 131.031 366.356 130.417 366.308 129.635C366.297 129.453 366.122 129.681 366.104 129.506C366.016 128.594 365.975 127.662 366.006 126.76C366.014 126.563 366.186 126.733 366.198 126.639C366.249 126.221 365.938 126.146 365.982 125.738C365.99 125.652 366.132 125.693 366.146 125.676C366.371 125.426 366.022 125.236 366.011 125.174C365.866 124.39 366.194 123.88 366.106 123.123C366.095 123.034 365.93 123.245 365.91 122.993C365.889 122.714 365.87 122.431 365.853 122.142C365.772 120.709 365.762 119.228 365.825 117.823C365.837 117.562 365.975 117.742 365.991 117.725C366.235 117.449 365.888 117.287 365.872 117.202C365.754 116.536 366.017 115.898 365.596 115.457C365.637 112.613 365.327 109.79 365.618 106.963C365.622 106.927 365.791 106.987 365.797 106.915C365.869 106.054 365.613 106.225 365.28 105.663C365.197 105.521 365.571 105.076 365.598 105.037C365.699 104.894 365.952 105.034 365.971 104.986C366.119 104.593 365.296 104.676 365.284 104.15C365.285 104.133 365.438 104.199 365.452 104.154C365.497 104.016 365.433 103.882 365.482 103.746C365.596 103.437 365.994 103.319 365.751 102.855C365.719 102.796 365.254 102.897 365.266 102.427C365.271 102.24 365.245 101.412 365.271 101.179C365.296 100.946 365.45 101.102 365.456 101.086C365.643 100.457 365.73 100.692 366.019 100.373C366.307 100.055 365.607 100.155 365.527 100.029C365.446 99.9034 365.602 99.4417 365.657 99.3281C365.712 99.2145 365.81 99.3529 365.84 99.2523C366.039 98.5852 365.487 98.9679 365.372 98.7515C365.098 98.2423 365.611 97.8294 365.653 97.3575C365.665 97.2298 365.548 97.336 365.535 97.2226C365.485 96.7748 365.642 96.4989 365.485 95.99C365.459 95.9063 365.14 95.4998 365.365 95.2266C365.397 95.188 365.528 95.2939 365.554 95.1012C365.593 94.8133 365.613 94.2968 365.565 93.9908C365.529 93.7634 365.32 94.0281 365.382 93.7399C365.41 93.6119 365.538 93.8463 365.58 93.606C365.621 93.3668 365.606 92.7598 365.599 92.5299C365.591 92.298 365.431 92.4274 365.42 92.4088C365.355 92.2961 365.271 91.8534 365.271 91.8144C365.223 89.839 365.473 88.0139 365.362 86.092C365.353 85.9416 365.184 86.0437 365.18 86.0207C365.103 85.5072 365.562 85.9088 365.71 85.5469C365.364 85.6033 365.424 85.3868 365.383 85.0228C365.362 84.8476 365.229 84.9445 365.215 84.9286C365.009 84.6706 365.27 84.4884 365.324 84.4416C365.52 84.2707 365.284 84.0808 365.416 83.9624C365.546 83.8436 365.743 84.1122 365.737 83.7621C365.612 83.6653 365.291 83.9278 365.236 83.6629C365.027 82.6674 365.267 80.7979 365.288 79.9913C365.309 79.1951 365.285 78.9263 365.327 78.4627C365.338 78.3367 365.343 78.2373 365.341 78.1571C365.334 77.6895 365.147 77.8482 365.052 77.4038C364.939 76.8836 365.532 77.1345 365.659 77.0591C365.786 76.9848 365.654 76.9018 365.724 76.8086C365.793 76.7154 365.881 76.9159 365.906 76.6976C365.931 76.4763 365.703 75.8996 365.57 75.816C365.287 75.6536 364.992 75.9211 365.094 75.3468C365.101 75.3139 365.256 75.42 365.272 75.2942C365.388 74.2898 365.394 73.2575 365.5 72.251C365.515 72.1146 365.688 72.2365 365.699 72.1573C365.81 71.3221 365.518 71.618 365.194 71.1648C365.626 71.2692 365.89 71.0112 365.894 70.3818C365.896 70.0058 365.708 70.0646 365.576 69.8188C365.536 69.7443 365.666 69.4774 365.578 69.4294C365.289 69.2701 364.963 69.5186 365.095 68.8652C365.101 68.8367 365.259 68.9282 365.269 68.8297C365.335 68.1929 365.033 68.115 365 67.4202C364.974 66.884 365.167 65.9123 365.203 65.2985C365.688 65.314 365.582 64.7358 365.25 64.4921C365.268 64.094 365.254 63.6586 365.305 63.2731C365.322 63.1394 365.462 63.229 365.477 63.2123C365.718 62.9564 365.395 62.7816 365.383 62.6939C365.271 61.7549 365.529 60.9957 365.302 60.0979C365.293 60.066 364.957 60.009 365.207 59.774C365.224 59.7588 365.373 60.056 365.391 59.6363C365.41 59.2154 365.603 58.4264 365.456 57.8399C365.421 57.6979 365.153 57.3367 365.371 57.053C365.401 57.0154 365.497 57.0586 365.551 57.0044C365.725 56.8291 365.386 56.7265 365.679 56.521C365.972 56.3166 366.195 55.8841 366.004 55.2915C365.999 55.272 365.731 55.1299 365.738 54.945C365.749 54.6572 365.807 54.2589 365.813 53.9505C365.813 53.9406 365.814 53.9308 365.814 53.9212C365.815 53.7743 365.646 53.866 365.643 53.8405C365.562 52.8464 365.72 52.1405 365.797 51.0772C365.811 50.8823 365.588 50.32 365.772 49.9427C365.974 49.5297 366.793 49.9651 366.606 49.0082C366.53 48.6231 365.491 48.1273 366.036 47.4406C365.912 46.0992 366.196 44.8606 366.01 43.5158C366.002 43.4554 365.711 43.2622 365.716 43.1203C365.723 42.9101 365.86 42.7948 365.869 42.644C365.912 42.0124 365.797 41.4359 365.817 40.8259C365.824 40.5953 365.964 40.6765 365.973 40.4011C365.981 40.1253 365.796 39.9413 365.886 39.5686C365.954 39.2862 366.334 39.0055 366.378 38.6309C366.004 38.6164 366.012 38.3592 365.913 37.9029C365.894 37.815 365.764 37.9092 365.748 37.8677C365.681 37.6986 365.789 37.5414 365.716 37.3817C365.698 37.3427 365.571 37.341 365.549 37.3091C365.361 37.0384 365.648 36.59 365.697 36.5138C365.887 36.2198 365.721 36.0817 365.795 35.8559C365.87 35.6309 365.964 35.967 366.009 35.7042C366.101 35.1584 366.079 34.4564 366.083 33.9029C366.084 33.6818 365.914 33.8331 365.91 33.8015C365.866 33.3433 366.045 32.8819 365.705 32.6288C366.581 32.308 365.619 32.3544 365.791 31.699C365.805 31.6477 366.22 31.5798 366.282 31.7776C366.344 31.9754 366.215 32.2759 366.311 32.5491C366.334 32.6142 366.724 32.9853 366.748 33.0359C366.934 33.4326 366.314 33.4912 366.28 33.5124C365.913 33.753 366.333 34.2051 366.362 34.3252C366.497 34.8734 366.41 35.3391 366.506 35.7966C366.567 36.0957 366.974 36.1254 366.962 36.3607C366.921 37.143 366.355 37.4162 366.846 38.1539C366.951 38.3121 367.395 38.1538 367.046 38.7217C367.024 38.7579 366.704 39.1762 366.906 39.4209C366.931 39.4515 367.061 39.4506 367.072 39.4909C367.142 39.7614 367.038 39.9392 367.087 40.2346C367.136 40.5291 367.209 40.8816 367.165 41.218C367.138 41.4202 366.896 41.6781 366.837 41.7754C366.666 42.0493 366.944 42.3409 366.737 42.5107C366.53 42.6811 366.217 42.346 366.081 42.7935C366.417 42.8112 366.762 42.8505 367.101 42.8784C367.085 43.86 366.972 44.8252 366.981 45.81C366.982 45.9321 367.164 45.8083 367.17 45.9392C367.195 46.4907 367.063 46.973 367.11 47.546C367.148 47.9897 367.335 48.4769 367.379 48.9416C366.992 49.22 367.117 49.9104 367.076 50.4098C367.063 50.5841 366.96 50.571 366.925 50.6959C366.796 51.1653 367.139 50.9481 367.191 51.0774C367.413 51.6325 366.643 51.6692 366.655 52.3226C366.655 52.3572 367.06 52.7825 367.085 52.8421C367.247 53.2136 366.941 52.9017 366.908 53.1319C366.864 53.4329 366.799 53.6732 366.809 53.964C366.812 54.0791 366.827 54.2026 366.859 54.3414C366.892 54.485 367.143 54.8364 366.941 55.1127C366.915 55.149 366.78 55.1268 366.771 55.1562C366.631 55.692 367.057 55.7106 367.196 56.0205C367.336 56.33 367.034 56.7986 366.948 56.8938C366.725 57.1422 366.857 56.6992 366.836 56.685C366.582 56.5203 366.621 56.8671 366.595 57.1299C366.177 57.1617 366.196 57.5312 366.57 57.4034C366.611 57.3889 366.575 57.1828 366.595 57.1299C367.001 57.3686 367.047 57.7745 366.657 58.2164C366.475 58.4232 366.268 58.2214 366.335 58.8596C366.365 59.1492 366.654 59.0417 366.729 59.298C366.898 59.8828 366.619 60.6367 366.652 61.2363C366.664 61.455 366.825 61.2443 366.839 61.394C366.876 61.7881 366.753 62.1367 366.808 62.5331C366.814 62.5692 366.979 62.4832 366.98 62.607C366.987 63.5423 366.872 64.3544 366.86 65.3304C366.854 65.8015 366.939 66.6442 366.917 67.1341C366.881 67.9837 366.636 69.0199 366.692 69.7434C366.728 70.2154 366.893 70.1182 367.005 70.3168C367.222 70.702 366.831 71.3977 366.771 71.4878C366.768 71.49 366.73 71.0876 366.645 71.3021C366.469 71.4269 366.77 71.4833 366.771 71.4878C366.731 71.549 366.694 72.3609 366.725 72.5211C366.742 72.6089 366.899 72.5598 366.905 72.6056C367.045 73.6884 367.087 74.778 367.018 75.8798C367.015 75.8995 366.84 75.8704 366.835 75.9168C366.759 76.5428 366.975 76.9676 367.104 77.4818C367.164 77.7242 367.188 77.9463 367.166 78.1471C367.141 78.3717 367.055 78.5684 366.896 78.7363C366.936 79.1364 366.807 79.7018 366.729 80.0307C366.65 80.3601 366.991 80.405 366.998 80.4339C367.219 81.3241 367.029 81.8487 367.007 82.7824C366.995 83.2254 367.053 84.1067 367.095 84.5833C367.129 84.9604 367.051 85.1903 367.106 85.542C367.113 85.5897 367.264 85.5399 367.27 85.5544C367.455 85.9407 367.083 85.7578 367.018 85.8387C366.781 86.1318 366.655 86.3126 366.773 86.8139C366.8 86.9318 367.337 87.2562 367.371 87.4661C367.414 87.7384 367.221 87.6375 367.271 87.9235C367.275 87.948 367.393 87.9414 367.39 88.1188C367.377 88.9354 367.32 89.8314 367.343 90.6812C367.346 90.7977 367.531 90.6457 367.538 90.8141C367.571 91.6007 367.577 92.4673 367.501 93.2335C367.482 93.4228 367.349 93.3064 367.311 93.348C367.079 93.6033 367.427 93.9574 367.434 94.0152C367.62 95.4156 367.329 96.4995 367.503 97.9275C367.513 98.0057 367.89 98.5987 367.581 98.8721C367.561 98.8908 367.244 99.1618 367.469 99.3919C367.483 99.4062 367.645 99.2379 367.634 99.5264C367.622 99.8153 367.742 100.276 367.568 100.675C367.514 100.802 367.199 101.105 367.462 101.474C367.481 101.498 368.071 102.062 367.677 102.277C367.612 102.312 367.189 102.286 367.415 102.727C367.459 102.812 367.55 102.655 367.613 102.878C367.711 103.22 367.609 103.679 367.806 104.097C367.841 104.17 368.135 104.478 367.923 104.735C367.89 104.775 367.748 104.703 367.735 104.837C367.674 105.47 367.785 106.131 367.704 106.775C367.675 107.003 367.444 106.892 367.39 107.131C367.335 107.37 367.288 107.85 367.399 108.095C367.51 108.34 367.865 108.06 367.904 108.43C368.074 110.043 367.908 111.65 367.929 113.263C367.932 113.502 368.055 113.3 368.069 113.652C368.121 114.951 368.323 117.189 368.093 118.323C367.908 119.239 367.694 118.104 367.632 118.801C367.603 119.136 368.04 119.475 368.056 119.555C368.224 120.341 368.061 120.886 368.151 121.593C368.17 121.737 368.334 121.587 368.348 121.71C368.36 121.813 368.366 121.918 368.368 122.023C368.376 122.352 368.351 122.682 368.377 122.984C368.392 123.164 368.521 123.122 368.519 123.291C368.517 123.696 368.48 124.05 368.378 124.443C368.369 124.479 368.194 124.246 368.204 124.545C368.22 125.03 368.132 125.622 368.288 126.17C368.335 126.33 368.633 126.319 368.448 126.679C368.409 126.756 368.046 126.684 368.38 127.076C368.435 127.144 368.893 127.797 368.646 128.155C368.581 128.249 368.303 128.494 368.361 128.685C368.37 128.711 368.524 128.595 368.55 128.755C368.639 129.33 368.662 129.926 368.754 130.511C368.779 130.666 368.928 130.423 368.959 130.653C369.047 131.296 369.064 132.102 369.061 132.729C369.06 132.965 368.91 132.814 368.897 132.832C368.676 133.124 369.016 133.258 369.042 133.346C369.201 133.895 369.082 134.33 369.168 134.846C369.191 134.987 369.338 134.873 369.354 134.9C369.516 135.181 369.217 134.987 369.202 135.175C369.159 135.703 369.224 136.281 369.293 136.806C369.319 136.997 369.479 136.765 369.5 136.936C369.628 137.959 369.717 139.024 369.724 140.034C369.725 140.223 369.573 140.12 369.546 140.163C369.352 140.458 369.699 140.822 369.738 140.909C369.915 141.31 369.81 141.483 369.875 141.847C370.191 143.62 370.386 145.836 370.557 147.533C370.617 148.129 370.669 148.692 370.718 149.236C370.853 150.724 370.964 152.058 371.188 153.586C371.208 153.721 371.374 153.56 371.393 153.677C371.633 155.171 371.748 156.634 371.993 158.133C372.012 158.255 372.165 158.056 372.202 158.251C372.28 158.654 372.334 159.153 372.331 159.579C372.329 159.783 372.145 159.533 372.147 159.738C372.15 160.217 372.199 160.705 372.288 161.187C372.326 161.392 372.466 161.058 372.501 161.326C372.743 163.117 372.996 164.911 372.984 166.763C372.984 166.89 372.633 167.044 372.735 167.299C372.838 167.307 372.957 167.291 373.066 167.287C373.441 169.915 373.62 172.524 373.901 175.186C373.913 175.297 374.084 175.083 374.108 175.298C374.246 176.551 374.434 177.753 374.38 179.051C374.375 179.183 374.029 179.156 374.121 179.526C374.137 179.592 374.242 180.14 374.332 180.286C374.345 180.304 374.493 180.184 374.517 180.366C374.653 181.418 374.732 182.527 374.742 183.593C374.743 183.767 374.556 183.601 374.555 183.724C374.552 184.592 374.772 185.519 374.696 186.351C374.645 186.921 374.332 186.726 374.072 187.055C374.035 187.105 374.059 187.434 373.894 187.475C373.477 187.559 373 187.43 372.558 187.541C372.464 187.573 372.606 187.994 372.35 187.761C372.333 187.749 372.225 187.417 372.139 187.35C372.079 187.299 371.918 187.416 371.837 187.307C371.756 187.193 371.888 187.061 371.788 186.877C371.686 186.689 371.501 186.795 371.442 186.419ZM366.38 81.5094C366.219 81.817 366.818 81.8576 366.672 81.5273C366.664 81.5113 366.388 81.4936 366.38 81.5094ZM366.52 44.8168C366.254 45.2135 366.641 45.4855 366.846 45.2074C367.051 44.9289 366.601 44.6958 366.52 44.8168ZM366.342 40.7016C366.133 41.1651 366.981 41.2405 366.811 40.7425C366.801 40.7137 366.354 40.6746 366.342 40.7016ZM373.863 185.71C373.855 185.716 373.87 185.957 373.879 185.96C374.08 186.07 374.049 185.589 373.863 185.71ZM366.134 36.6193C366.02 36.7633 366.152 37.1814 366.295 37.001C366.41 36.8556 366.277 36.4392 366.134 36.6193ZM365.945 97.3396C365.936 97.3445 365.931 97.5204 365.982 97.516C366.144 97.5011 366.094 97.2574 365.945 97.3396ZM366.099 29.6819C366.074 30.7075 365.376 31.3314 365.449 30.2158C365.462 30.0136 365.675 30.6502 365.737 30.3926C365.849 29.9204 365.407 29.6121 365.64 29.1294C365.682 29.0421 366.102 29.6236 366.1 29.6837C366.1 29.6831 366.1 29.6825 366.099 29.6819ZM365.663 81.6916C365.655 81.6996 365.649 81.9394 365.657 81.9455C365.848 82.0748 365.86 81.588 365.663 81.6916ZM365.799 107.611C365.782 107.625 365.781 108.19 365.797 108.208C366.115 108.494 366.118 107.352 365.799 107.611ZM365.216 65.2889C365.027 65.0197 365.008 64.7052 365.25 64.4933C365.234 64.7604 365.23 65.0216 365.216 65.2889Z" fill="#686868"/>
<path d="M26.5835 35.8271C28.5566 35.8284 31.1328 35.9846 33.0812 36.1463C33.6917 36.1967 33.3756 36.289 33.7986 36.3289C34.6212 36.4068 35.3975 36.3906 36.2085 36.4784C36.4786 36.5082 36.1331 36.6598 36.417 36.6871C37.9717 36.836 39.4363 36.8673 41.0092 36.986C43.5524 37.1782 46.081 37.3663 48.609 37.5541C53.7094 37.9183 58.8675 38.0019 64.1215 38.0605C66.7017 38.0865 69.8421 38.2178 72.5107 38.1195C72.8218 38.1079 72.6345 37.9627 72.6935 37.9499C73.6183 37.7527 73.3164 38.0539 73.9226 38.0856C76.3308 38.2101 79.0171 38.1771 81.3278 38.0722C82.3186 38.0268 81.3233 37.755 82.3159 37.8981C82.3844 37.9078 82.1403 38.0696 82.408 38.0805C83.0288 38.1048 84.1893 38.0502 84.662 38.0512C85.0483 38.0522 85.2938 38.0519 85.5125 38.0498C85.8252 38.0466 86.0867 38.0397 86.5889 38.0247C87.7677 37.9909 89.172 38.0051 90.4329 37.8944C90.7023 37.8702 90.3358 37.7316 90.7639 37.6782C91.1916 37.6258 92.3294 37.5618 92.7148 37.57C93.1012 37.5791 92.9474 37.717 93.0176 37.7407C93.5954 37.9431 94.8844 37.4949 95.0517 37.4706C98.1212 37.054 100.78 36.9397 103.67 36.5674C105.864 36.2834 108.196 35.8906 110.284 35.5954C112.768 35.2448 114.888 35.0133 117.301 34.638C117.556 34.5985 117.229 34.4566 117.541 34.4079C119.799 34.0558 122.05 33.7277 124.314 33.4501C125.355 33.3225 126.395 33.1932 127.437 33.0648C127.767 33.0242 127.371 33.2566 127.702 33.2257C129.732 33.0373 132.966 32.7694 134.023 31.8325C135.385 31.603 137.041 31.3136 138.286 31.2278C139.089 31.1726 138.359 31.4924 139.31 31.2371C139.525 31.1801 139.213 31.0769 139.537 31.0031C140.903 30.6923 142.419 30.4774 143.775 30.1745C144.052 30.1124 143.953 29.985 144.028 29.947C144.657 29.6354 145.823 29.804 146.065 29.7943C147.93 29.708 149.265 29.4629 150.984 29.2724C151.385 29.2288 150.89 29.0925 151.276 29.0439C151.328 29.0375 151.38 29.0311 151.432 29.0248C153.341 28.7909 155.315 28.5217 157.211 28.3208C157.639 28.2759 157.272 28.495 157.478 28.4816C158.398 28.4184 158.548 28.0855 159.424 28.0177C159.608 28.003 159.527 28.1559 159.562 28.1658C160.126 28.3209 160.521 27.9169 160.656 27.8884C162.341 27.5244 163.479 27.7056 165.116 27.4073C165.313 27.3711 164.839 27.265 165.396 27.1738C169.064 26.5705 172.986 26.0705 176.665 25.7694C177.237 25.7224 176.846 25.9021 176.884 25.9139C177.494 26.0966 177.834 25.7145 178.02 25.68C179.47 25.4184 180.882 25.5537 181.83 25.0491C184.129 24.8649 186.423 24.6592 188.715 24.4816C192.633 24.1784 196.55 23.9391 200.466 23.9735C200.545 23.9738 200.413 24.1482 200.57 24.1481C202.462 24.15 202.087 23.9081 203.323 23.5328C203.635 23.4385 204.61 23.7809 204.695 23.8056C205.009 23.8962 204.699 24.159 204.803 24.1746C205.665 24.2963 205.491 23.478 206.646 23.4311C206.682 23.431 206.537 23.5887 206.634 23.5999C206.937 23.6352 207.233 23.5632 207.53 23.6039C208.21 23.6986 208.463 24.0896 209.485 23.8188C209.614 23.784 209.399 23.3234 210.429 23.3089C210.841 23.303 212.659 23.2336 213.171 23.2479C213.681 23.2618 213.337 23.4237 213.373 23.429C214.748 23.5849 214.235 23.6839 214.93 23.9576C215.625 24.2306 215.414 23.5357 215.69 23.4492C215.971 23.3626 216.982 23.4978 217.229 23.5482C217.476 23.5984 217.172 23.7028 217.392 23.7289C218.859 23.8995 218.023 23.3633 218.5 23.2388C219.625 22.9447 220.517 23.4417 221.558 23.4667C221.838 23.4735 221.607 23.3608 221.855 23.3435C222.845 23.2769 223.434 23.4251 224.563 23.2502C224.746 23.2217 225.648 22.8885 226.242 23.1049C226.326 23.1361 226.093 23.2708 226.513 23.2906C227.144 23.3202 228.271 23.3243 228.955 23.2666C229.453 23.2241 228.878 23.0227 229.505 23.0759C229.783 23.0997 229.271 23.2353 229.793 23.2696C230.325 23.3037 231.655 23.2709 232.162 23.2563C232.664 23.2417 232.386 23.0854 232.426 23.0736C232.675 23.0061 233.65 22.9081 233.731 22.9066C235.4 22.8649 237.019 22.8674 238.616 22.8725C241.184 22.8803 243.691 22.8946 246.287 22.7463C246.614 22.7278 246.389 22.5649 246.439 22.5603C247.574 22.4472 246.69 22.9342 247.492 23.0561C247.364 22.7141 247.834 22.7595 248.629 22.6894C249.014 22.6551 248.798 22.5296 248.833 22.5144C249.393 22.2876 249.802 22.5337 249.906 22.5832C250.293 22.7651 250.693 22.5135 250.956 22.6347C251.219 22.7548 250.637 22.9751 251.401 22.9393C251.611 22.8061 251.028 22.507 251.607 22.4292C253.79 22.1321 257.898 22.2171 259.662 22.1842C261.432 22.1481 261.982 22.1081 263.026 22.1194C263.607 22.127 263.949 22.1094 264.172 22.0774C264.623 22.0102 264.549 21.8772 265.344 21.7788C266.481 21.6352 265.947 22.243 266.114 22.3653C266.281 22.4877 266.459 22.3516 266.666 22.4157C266.866 22.4798 266.439 22.5786 266.907 22.5915C267.378 22.6041 268.675 22.3421 268.84 22.2047C269.187 21.9134 268.605 21.6331 269.856 21.7036C269.928 21.7079 269.698 21.8696 269.975 21.878C272.179 21.9394 274.468 21.8903 276.669 21.9451C276.973 21.9529 276.706 22.1322 276.882 22.1387C278.709 22.2075 278.058 21.9306 279.049 21.584C278.831 22.0205 279.399 22.2715 280.784 22.2442C281.62 22.2279 281.476 22.0426 282.011 21.8984C282.171 21.855 282.765 21.972 282.871 21.8812C283.218 21.5844 282.658 21.2713 284.091 21.3714C284.154 21.3762 283.957 21.5388 284.175 21.5441C285.583 21.5788 285.743 21.2726 287.262 21.2071C288.452 21.1557 290.573 21.3027 291.928 21.3104C291.909 21.7959 293.185 21.6638 293.7 21.3213C294.581 21.3211 295.532 21.288 296.381 21.3221C296.673 21.3337 296.483 21.4769 296.52 21.4915C297.089 21.7216 297.47 21.391 297.659 21.3757C299.716 21.2241 301.395 21.4511 303.356 21.1916C303.426 21.1823 303.538 20.8441 304.065 21.0856C304.098 21.1022 303.454 21.2611 304.373 21.2651C305.306 21.2688 307.036 21.4373 308.327 21.2764C308.629 21.2375 309.429 20.9612 310.05 21.1742C310.133 21.2031 310.042 21.2998 310.161 21.3535C310.556 21.5244 310.777 21.1836 311.231 21.4732C311.517 21.6628 312.062 21.8216 312.723 21.8549C313.091 21.8725 313.5 21.856 313.937 21.7917C313.972 21.7863 314.296 21.5197 314.7 21.5303C315.337 21.5468 316.258 21.6236 316.947 21.6438C317.271 21.6531 317.069 21.479 317.125 21.4777C319.304 21.4592 320.862 21.6888 323.182 21.9596C323.615 22.0096 324.861 21.9056 325.665 22.1885C326.544 22.5017 325.518 23.1848 327.596 23.2824C328.433 23.3266 329.657 22.4671 331.064 23.261C333.106 23.522 335.01 23.9527 337.006 24.1672L337.017 24.1681C337.905 24.2072 338.732 24.2267 339.646 24.2087C339.78 24.206 340.215 23.9334 340.523 23.9512C340.978 23.978 341.227 24.1257 341.563 24.1502C342.947 24.2551 344.206 24.2002 345.555 24.2891C346.061 24.3224 345.877 24.4536 346.471 24.4935C347.091 24.5351 347.492 24.3715 348.306 24.5083C348.936 24.6133 349.502 25.0267 350.336 25.1235C350.394 24.7527 350.941 24.7939 351.96 24.7636C352.151 24.7574 351.956 24.6137 352.047 24.6041C352.412 24.5616 352.759 24.6938 353.116 24.6461C353.203 24.6347 353.216 24.5076 353.287 24.4911C353.873 24.3441 354.865 24.7079 355.011 24.7699C355.662 25.0116 355.947 24.8686 356.45 24.986C356.941 25.103 356.191 25.1326 356.765 25.2275C357.95 25.4233 359.483 25.5502 360.689 25.6945C361.161 25.7504 360.858 25.5441 360.926 25.5481C361.932 25.6203 362.912 25.937 363.515 25.6855C364.058 26.6612 364.134 25.6795 365.514 26.1246C365.627 26.1626 365.677 26.5953 365.246 26.571C364.807 26.546 364.201 26.308 363.589 26.3108C363.445 26.3097 362.594 26.5803 362.475 26.5892C361.606 26.6585 361.549 26.0305 361.512 25.9907C361.033 25.5602 359.989 25.8662 359.737 25.8696C358.536 25.8763 357.51 25.6951 356.518 25.7051C355.838 25.7089 355.772 26.1116 355.25 26.0571C353.558 25.8831 352.971 25.2741 351.346 25.6578C350.987 25.7396 351.305 26.2041 350.095 25.7777C350.014 25.7503 349.121 25.3752 348.576 25.5458C348.507 25.5673 348.502 25.6966 348.412 25.7023C347.796 25.7368 347.444 25.6136 346.785 25.6266C346.123 25.6397 345.378 25.6738 344.625 25.5914C344.196 25.5432 343.639 25.2742 343.427 25.2047C342.816 25.0045 342.192 25.2541 341.823 25.0308C341.455 24.8066 342.211 24.5267 341.222 24.3474C341.17 24.6816 341.068 25.0224 340.994 25.3576C339.668 25.29 338.338 25.1877 336.98 25.1035L336.908 25.0983C336.098 24.9958 335.29 24.881 334.478 24.768C334.209 24.7306 334.458 24.9502 334.167 24.914C332.945 24.7592 331.913 24.4461 330.67 24.2835C329.706 24.1576 328.635 24.1709 327.641 24.0707C327.095 23.5972 325.595 23.5228 324.531 23.3743C324.161 23.3219 324.195 23.2225 323.927 23.1612C322.934 22.9385 323.37 23.324 323.086 23.3507C321.883 23.4743 321.842 22.6973 320.423 22.6241C320.356 22.6197 319.401 22.9765 319.285 22.9972C318.479 23.1243 319.163 22.8477 318.658 22.7937C317.753 22.6981 317.112 22.5768 316.032 22.6695C315.719 22.697 314.96 22.9367 314.352 22.7312C314.271 22.7042 314.318 22.5692 314.253 22.5604C313.322 22.4439 313.114 22.6931 312.719 22.8697C312.623 22.9149 312.515 22.9556 312.38 22.9846C311.706 23.1265 310.675 22.8324 310.457 22.7479C309.896 22.5291 310.887 22.6539 310.914 22.6325C311.268 22.3765 310.5 22.4203 309.927 22.3997C309.846 21.982 309.032 22.009 309.328 22.3802C309.362 22.4207 309.813 22.3808 309.927 22.3997C309.422 22.8104 308.538 22.8652 307.542 22.4872C307.082 22.3102 307.526 22.0978 306.117 22.1833C305.487 22.2222 305.735 22.5081 305.175 22.5907C303.896 22.7792 302.231 22.527 300.913 22.5844C300.435 22.6052 300.903 22.7573 300.576 22.7769C299.7 22.8298 298.943 22.7211 298.068 22.7932C297.99 22.7999 298.184 22.9622 297.914 22.9679C295.858 23.0146 294.065 22.9361 291.92 22.9688C290.884 22.9845 289.03 23.108 287.955 23.1098C286.093 23.1133 283.799 22.9193 282.207 23.011C281.174 23.07 281.4 23.2302 280.959 23.352C280.11 23.5879 278.577 23.2319 278.375 23.1761C278.37 23.1742 279.257 23.1155 278.781 23.0415C278.501 22.8714 278.386 23.1751 278.375 23.1761C278.235 23.1401 276.458 23.1435 276.099 23.1836C275.907 23.2054 276.019 23.359 275.919 23.3674C273.537 23.5635 271.155 23.663 268.729 23.656C268.687 23.654 268.746 23.4776 268.646 23.4751C267.25 23.4356 266.348 23.6752 265.206 23.836C264.851 23.885 264.526 23.9178 264.228 23.9318C263.508 23.965 262.936 23.8991 262.446 23.706C261.58 23.7716 260.329 23.6817 259.605 23.6273C258.895 23.5723 258.794 23.9166 258.734 23.9255C256.783 24.2136 255.627 24.0659 253.584 24.1235C252.611 24.1504 250.684 24.2852 249.63 24.3662C248.798 24.4309 248.289 24.3716 247.524 24.4519C247.42 24.4627 247.531 24.6099 247.499 24.617C246.647 24.8304 247.047 24.4448 246.867 24.3854C246.212 24.1686 245.815 24.0551 244.719 24.204C244.464 24.2383 243.744 24.7941 243.282 24.8388C242.689 24.8957 242.89 24.6988 242.276 24.7624C242.222 24.7676 242.24 24.8851 241.846 24.8907C240.826 24.9056 239.754 24.9046 238.663 24.9102C237.851 24.914 237.016 24.9221 236.202 24.9444C235.949 24.9509 236.278 25.131 235.911 25.1434C234.178 25.2018 232.279 25.2329 230.59 25.1803C230.174 25.1667 230.432 25.0305 230.341 24.9935C229.774 24.77 229.009 25.1278 228.876 25.1371C225.787 25.3669 223.42 25.1106 220.279 25.3386C220.11 25.3515 218.798 25.7525 218.204 25.4548C218.165 25.4349 217.568 25.1299 217.064 25.3641C217.032 25.3788 217.399 25.5338 216.767 25.535C216.133 25.5364 215.122 25.6769 214.245 25.5224C213.967 25.4738 213.31 25.1736 212.495 25.4562C212.441 25.4756 211.197 26.0957 210.729 25.7134C210.654 25.6504 210.716 25.2256 209.745 25.477C209.559 25.5257 209.902 25.6074 209.411 25.6841C208.659 25.8022 207.655 25.7272 206.735 25.9522C206.575 25.9919 205.898 26.3059 205.337 26.112C205.249 26.0817 205.407 25.934 205.115 25.9305C203.725 25.9137 202.278 26.0738 200.866 26.0457C200.366 26.0361 200.61 25.7959 200.086 25.7612C199.562 25.7263 198.514 25.7225 197.974 25.8564C197.437 25.9902 198.049 26.3197 197.239 26.3939C194.452 26.6501 191.673 26.7175 188.9 26.865C188.152 26.9051 187.424 26.9498 186.676 27.0074C186.154 27.0479 186.596 27.1395 185.832 27.2093C182.995 27.4611 178.132 28.1163 175.654 28.1571C173.656 28.1866 176.111 27.7061 174.598 27.8076C173.868 27.8576 173.139 28.38 172.968 28.4163C171.281 28.7778 170.065 28.7603 168.538 29.0391C168.224 29.0967 168.558 29.221 168.291 29.2682C167.371 29.4321 166.393 29.5006 165.515 29.6474C165.119 29.714 165.212 29.8321 164.849 29.877C163.973 29.9874 163.194 30.0517 162.33 30.0614C162.25 30.0624 162.752 29.8205 162.101 29.915C161.059 30.0665 159.744 30.1487 158.557 30.4558C158.208 30.5469 158.231 30.8458 157.436 30.7568C157.268 30.7382 157.416 30.3546 156.571 30.7926C156.42 30.8675 154.978 31.4988 154.187 31.3315C153.983 31.2876 153.44 31.0635 153.009 31.1634C152.951 31.1781 153.209 31.3078 152.847 31.3682C152.478 31.4291 152.084 31.4847 151.705 31.5329C150.805 31.6476 149.898 31.7574 149.002 31.9085C148.665 31.966 149.194 32.0646 148.686 32.1461C147.296 32.3694 145.56 32.5843 144.19 32.7561C143.686 32.8188 144.01 32.6265 143.971 32.6177C143.346 32.4737 143.05 32.8576 142.861 32.9092C141.669 33.2294 140.721 33.2443 139.61 33.4914C139.303 33.5595 139.551 33.6727 139.492 33.6979C138.88 33.9507 139.303 33.5858 138.895 33.6307C137.748 33.7562 136.488 34.011 135.344 34.2496C134.923 34.3375 135.432 34.4254 135.053 34.5023C132.816 34.9607 130.465 35.3777 128.232 35.6427C127.814 35.6919 128.052 35.511 127.961 35.4937C127.324 35.3717 126.493 35.8096 126.297 35.8685C125.597 36.0792 125.218 36.0827 124.698 36.1396C124.549 36.1557 124.39 36.1762 124.209 36.2074C120.298 36.8829 115.434 37.5424 111.705 38.0386C106.844 38.6834 103.045 39.0799 98.3747 39.6127C98.0776 39.6459 98.3969 39.7995 98.1408 39.8304C94.8327 40.2197 91.5497 40.4042 88.2074 40.6019C87.9325 40.6176 88.336 40.7772 87.8957 40.808C87.1982 40.8574 86.3552 40.8847 85.5822 40.8761C85.3625 40.8735 85.1457 40.8683 84.9382 40.8605C84.4915 40.8441 85.0872 40.6785 84.6361 40.6651C83.6058 40.6328 82.4964 40.645 81.4295 40.6954C80.9823 40.717 81.6621 40.8834 81.079 40.8974C77.071 40.9967 73.1421 41.087 69.0899 40.8838C68.8124 40.8697 68.5664 40.5051 67.9767 40.5789C67.9329 40.6809 67.936 40.8005 67.9172 40.9093C62.0818 40.9953 56.3077 40.8613 50.4243 40.5968C50.1777 40.585 50.6017 40.7985 50.1134 40.7759C49.5469 40.7493 48.9754 40.7215 48.4232 40.6903C46.2487 40.5676 44.1012 40.4487 41.8682 40.1746C41.5892 40.1408 41.7537 39.8073 40.9266 39.8152C40.7811 39.8167 39.5391 39.7976 39.2175 39.8556C39.1733 39.8646 39.392 40.0354 38.9908 40.0196C36.6721 39.9257 34.2446 39.7739 31.9344 39.5798C31.5616 39.5482 31.9659 39.3951 31.7011 39.3712C29.8167 39.2029 27.7624 39.2566 25.9708 39.0575C24.7668 38.9253 25.2244 38.6427 24.5866 38.3419C24.4992 38.299 23.7479 38.2835 23.7133 38.1159C23.6169 37.6923 23.9841 37.2326 23.8384 36.7807C23.8101 36.6819 22.7962 36.7844 23.3923 36.5509C23.4387 36.5345 24.1765 36.4627 24.3573 36.3865C24.4868 36.3334 24.256 36.159 24.5218 36.0926C24.7736 36.0261 25.0579 36.1744 25.4881 36.1011C25.9101 36.0272 25.74 35.8277 26.5835 35.8271ZM256.36 23.3906C255.689 23.2542 255.618 23.8558 256.327 23.6839C256.362 23.6749 256.394 23.3972 256.36 23.3906ZM336.722 24.5859C335.878 24.2275 335.235 24.5294 335.826 24.8112C336.426 25.0912 336.981 24.6938 336.722 24.5859ZM345.802 24.8281C344.795 24.5668 344.588 25.4056 345.69 25.2915C345.754 25.2852 345.861 24.8432 345.802 24.8281ZM27.562 38.3339C27.5533 38.3255 27.0172 38.3015 27.0025 38.309C26.7108 38.4902 27.7849 38.5382 27.562 38.3339ZM354.75 25.1874C354.453 25.0489 353.51 25.1119 353.902 25.284C354.222 25.4224 355.126 25.3597 354.75 25.1874ZM221.593 23.7579C221.582 23.7492 221.196 23.7509 221.205 23.8011C221.235 23.9626 221.771 23.9034 221.593 23.7579ZM369.681 27.6783C368.966 27.4871 368.372 27.2076 367.991 26.9564C367.344 26.5114 367.206 26.2046 368.172 26.5333L368.151 26.5248C368.315 26.5778 368.513 26.6474 368.75 26.7325C369.158 26.885 367.791 26.6411 368.294 26.8817C369.235 27.3279 370.003 27.052 370.974 27.5158C371.151 27.6013 369.809 27.7201 369.677 27.6782C369.679 27.6783 369.68 27.6783 369.681 27.6783ZM255.948 22.6881C255.939 22.6806 255.397 22.6953 255.387 22.7036C255.104 22.9053 256.185 22.8761 255.948 22.6881ZM199.044 24.2098C199.015 24.1941 197.772 24.2449 197.733 24.263C197.103 24.6078 199.612 24.506 199.044 24.2098ZM291.95 21.323C292.532 21.1223 293.227 21.0886 293.698 21.3211C293.116 21.3175 292.535 21.3251 291.95 21.323Z" fill="#686868"/>
</g>
<defs>
<filter id="filter0_d_24_20890" x="0" y="0" width="394.896" height="233.5" filterUnits="userSpaceOnUse" color-interpolation-filters="sRGB">
<feFlood flood-opacity="0" result="BackgroundImageFix"/>
<feColorMatrix in="SourceAlpha" type="matrix" values="0 0 0 0 0 0 0 0 0 0 0 0 0 0 0 0 0 0 127 0" result="hardAlpha"/>
<feOffset dy="4"/>
<feGaussianBlur stdDeviation="2"/>
<feComposite in2="hardAlpha" operator="out"/>
<feColorMatrix type="matrix" values="0 0 0 0 0 0 0 0 0 0 0 0 0 0 0 0 0 0 0.25 0"/>
<feBlend mode="normal" in2="BackgroundImageFix" result="effect1_dropShadow_24_20890"/>
<feBlend mode="normal" in="SourceGraphic" in2="effect1_dropShadow_24_20890" result="shape"/>
</filter>
</defs>
</svg>
