<svg width="233" height="223" viewBox="0 0 233 223" fill="none" xmlns="http://www.w3.org/2000/svg">
<path d="M3.78348 65.6061L171.219 187.59L188.749 171.797L182.121 44.3541L18.451 49.5794L3.78348 65.6061Z" fill="white" stroke="black"/>
<path d="M167.403 60.1101C167.532 60.7349 167.554 61.5256 167.536 62.1656C167.529 62.3499 167.415 62.2669 167.405 62.3959C167.387 62.6463 167.461 62.9007 167.434 63.1527C167.424 63.2351 167.248 63.1486 167.241 63.2348C167.208 63.7105 167.289 64.1769 167.292 64.6592C167.308 67.0721 167.41 69.4395 167.495 71.8519C167.523 72.6511 167.434 73.6234 167.554 74.4551C167.568 74.5524 167.712 74.4846 167.725 74.5025C167.929 74.7747 167.626 74.6987 167.598 74.8868C167.489 75.6358 167.528 76.4698 167.629 77.1796C167.672 77.4843 167.946 77.1588 167.801 77.478C167.791 77.5002 167.63 77.4318 167.618 77.5172C167.593 77.7135 167.643 78.0664 167.639 78.2131C167.632 78.4959 167.636 78.5425 167.65 78.8107C167.669 79.178 167.618 79.6224 167.676 80.0078C167.689 80.0907 167.843 79.9706 167.878 80.1021C167.913 80.2335 167.921 80.5885 167.89 80.7108C167.859 80.8329 167.731 80.7893 167.703 80.8123C167.47 81.0017 167.831 81.3936 167.843 81.4436C168.041 82.3883 167.897 83.2312 167.949 84.1287C167.989 84.8193 168.093 85.5379 168.121 86.1932C168.154 86.9764 168.103 87.6269 168.159 88.3857C168.165 88.4656 168.348 88.3616 168.356 88.4592C168.434 89.4849 168.469 90.5175 168.396 91.5484C168.388 91.6523 168.216 91.5281 168.199 91.6323C168.096 92.2727 167.822 93.2831 168.561 93.6213C168.555 94.0505 168.553 94.5708 168.427 94.9594C168.346 95.2103 168.154 94.9804 168.246 95.2789C168.267 95.3463 168.42 95.2495 168.439 95.3511C168.519 95.7788 168.491 96.2541 168.594 96.6751C168.616 96.7609 168.756 96.7301 168.783 96.7534C168.999 96.9494 168.675 97.3101 168.654 97.3863C168.498 97.9662 168.591 98.3797 168.613 98.9111C168.618 99.0345 168.8 98.8794 168.812 98.9978C168.869 99.6121 168.884 100.251 168.828 100.858C168.816 100.993 168.648 100.877 168.633 100.942C168.572 101.228 168.88 101.276 168.827 101.55C168.816 101.608 168.676 101.583 168.662 101.594C168.431 101.768 168.776 101.894 168.785 101.935C168.912 102.461 168.575 102.817 168.649 103.327C168.658 103.388 168.827 103.242 168.842 103.414C168.862 103.641 168.878 103.871 168.891 104.102L168.889 104.073C168.979 105.031 169.008 106 168.972 106.909C168.965 107.085 168.824 106.971 168.808 106.984C168.57 107.184 168.919 107.27 168.937 107.326C169.066 107.763 168.817 108.203 169.248 108.488C169.273 110.452 169.658 112.312 169.456 114.256C169.454 114.281 169.283 114.252 169.28 114.3C169.234 114.882 169.484 114.75 169.833 115.1C169.921 115.186 169.562 115.514 169.536 115.545C169.441 115.651 169.184 115.57 169.167 115.605C169.032 115.887 169.85 115.775 169.88 116.136C169.88 116.148 169.725 116.113 169.712 116.144C169.673 116.242 169.74 116.33 169.696 116.426C169.593 116.646 169.2 116.754 169.459 117.052C169.492 117.089 169.953 116.99 169.958 117.308C169.959 117.435 170.013 117.989 169.995 118.145C169.978 118.301 169.819 118.208 169.813 118.219C169.649 118.65 169.554 118.499 169.277 118.73C169.001 118.965 169.695 118.852 169.781 118.933C169.866 119.015 169.728 119.344 169.677 119.426C169.627 119.508 169.523 119.42 169.497 119.491C169.324 119.963 169.86 119.662 169.983 119.802C170.275 120.132 169.779 120.446 169.754 120.767C169.748 120.854 169.86 120.774 169.877 120.849C169.944 121.147 169.797 121.341 169.974 121.668C170.002 121.721 170.336 121.966 170.123 122.175C170.092 122.204 169.957 122.14 169.939 122.276C169.912 122.477 169.913 122.834 169.973 123.04C170.018 123.193 170.216 122.998 170.166 123.198C170.143 123.287 170.006 123.137 169.974 123.303C169.942 123.468 169.981 123.877 169.998 124.031C170.015 124.185 170.169 124.088 170.181 124.099C170.25 124.17 170.352 124.458 170.354 124.484C170.482 125.82 170.31 127.068 170.505 128.365C170.52 128.469 170.685 128.386 170.689 128.401C170.789 128.75 170.314 128.508 170.182 128.767C170.525 128.703 170.474 128.854 170.532 129.098C170.56 129.215 170.689 129.14 170.703 129.149C170.92 129.309 170.668 129.452 170.617 129.487C170.429 129.619 170.672 129.726 170.546 129.814C170.422 129.903 170.213 129.739 170.234 129.971C170.363 130.026 170.672 129.828 170.739 130C170.988 130.626 170.841 131.968 170.856 132.489C170.872 133.021 170.909 133.197 170.89 133.525C170.855 134.111 171.078 133.879 171.216 134.227C171.354 134.574 170.75 134.447 170.627 134.508C170.505 134.568 170.639 134.613 170.575 134.68C170.51 134.747 170.413 134.621 170.398 134.767C170.384 134.915 170.64 135.288 170.777 135.328C171.066 135.416 171.346 135.203 171.274 135.608C171.27 135.631 171.109 135.569 171.1 135.658C171.035 136.364 171.083 137.064 171.029 137.729C171.022 137.827 170.842 137.754 170.836 137.811C170.771 138.399 171.046 138.168 171.394 138.457C170.958 138.42 170.709 138.615 170.739 139.041C170.758 139.296 170.942 139.237 171.087 139.391C171.131 139.437 171.016 139.625 171.107 139.65C171.404 139.737 171.713 139.527 171.62 139.992C171.615 140.012 171.452 139.961 171.448 140.031C171.42 140.478 171.726 140.507 171.799 140.97C171.855 141.33 171.721 141.987 171.724 142.419C171.24 142.448 171.381 142.836 171.727 142.967C171.734 143.241 171.774 143.505 171.749 143.787C171.74 143.881 171.596 143.831 171.581 143.844C171.358 144.041 171.691 144.135 171.709 144.193C171.882 144.826 171.673 145.331 171.962 145.939C171.972 145.96 172.311 145.97 172.078 146.15C172.061 146.161 171.893 145.974 171.903 146.258C171.913 146.54 171.773 147.082 171.96 147.476C172.005 147.57 172.296 147.791 172.098 147.997C172.071 148.025 171.972 148.004 171.921 148.045C171.759 148.176 172.104 148.214 171.826 148.373C171.549 148.542 171.356 148.864 171.585 149.244C171.592 149.256 171.868 149.329 171.874 149.452C171.881 149.643 171.847 149.938 171.865 150.151C171.874 150.252 172.036 150.175 172.041 150.192C172.185 150.849 172.075 151.358 172.064 152.064C172.062 152.187 172.321 152.572 172.16 152.835C171.985 153.131 171.141 152.892 171.388 153.534C171.488 153.803 172.552 154.01 172.053 154.547C172.259 155.43 172.054 156.303 172.328 157.193C172.34 157.233 172.641 157.327 172.647 157.43C172.654 157.577 172.526 157.667 172.527 157.768C172.528 158.194 172.685 158.581 172.713 158.982C172.725 159.14 172.579 159.105 172.594 159.291C172.608 159.471 172.809 159.582 172.754 159.837C172.723 159.98 172.529 160.159 172.426 160.337L172.424 160.323C172.384 160.388 172.356 160.454 172.352 160.521C172.725 160.489 172.737 160.661 172.866 160.96C172.891 161.017 173.014 160.941 173.033 160.968C173.111 161.076 173.013 161.192 173.096 161.294C173.115 161.319 173.243 161.309 173.266 161.329C173.47 161.498 173.208 161.826 173.162 161.882C172.989 162.095 173.161 162.177 173.098 162.334C173.035 162.493 172.925 162.271 172.893 162.453C172.827 162.828 172.882 163.303 172.904 163.677C172.914 163.828 173.076 163.712 173.082 163.733C173.149 164.04 172.993 164.367 173.346 164.509C172.489 164.799 173.446 164.689 173.309 165.146C173.298 165.18 172.888 165.263 172.816 165.133C172.743 165.004 172.855 164.79 172.745 164.612C172.719 164.57 172.311 164.348 172.285 164.316C172.079 164.059 172.695 163.974 172.728 163.956C173.082 163.767 172.641 163.49 172.606 163.411C172.446 163.05 172.51 162.729 172.392 162.427C172.316 162.23 171.91 162.241 171.91 162.082C171.91 161.56 172.459 161.324 171.921 160.886C171.805 160.794 171.376 160.943 171.682 160.538C171.689 160.527 171.739 160.472 171.783 160.4L171.788 160.437C171.848 160.323 171.893 160.169 171.758 160.081C171.729 160.062 171.601 160.081 171.587 160.054C171.492 159.884 171.576 159.734 171.502 159.541C171.428 159.35 171.325 159.105 171.344 158.874C171.354 158.73 171.575 158.524 171.627 158.456C171.777 158.259 171.478 158.068 171.672 157.943C171.867 157.809 172.202 158.001 172.306 157.69C171.97 157.711 171.624 157.718 171.286 157.732C171.233 157.061 171.284 156.395 171.213 155.731C171.204 155.649 171.031 155.748 171.017 155.661C170.956 155.28 171.059 154.956 170.976 154.566C170.91 154.248 170.695 153.967 170.621 153.646C170.989 153.409 170.824 152.977 170.832 152.629C170.834 152.508 170.938 152.508 170.964 152.419C171.062 152.079 170.736 152.265 170.675 152.181C170.419 151.836 171.184 151.746 171.131 151.299C171.128 151.276 170.697 151.013 170.669 150.982C170.484 150.752 170.808 150.931 170.826 150.777C170.86 150.492 170.942 150.287 170.796 149.951C170.753 149.846 170.481 149.647 170.664 149.444C170.688 149.418 170.824 149.421 170.83 149.401C170.935 149.031 170.509 149.052 170.349 148.853C170.189 148.649 170.457 148.306 170.537 148.239C170.743 148.056 170.64 148.36 170.663 148.366C170.926 148.452 170.865 148.23 170.873 148.053C171.288 147.996 171.244 147.75 170.88 147.868C170.84 147.882 170.889 148.016 170.873 148.053C170.452 147.93 170.379 147.662 170.738 147.323C170.906 147.166 171.124 147.279 171.015 146.855C170.966 146.667 170.685 146.763 170.593 146.6C170.386 146.231 170.613 145.679 170.539 145.277C170.513 145.135 170.367 145.286 170.343 145.189C170.281 144.932 170.381 144.689 170.299 144.424C170.292 144.4 170.132 144.472 170.124 144.388C170.054 143.734 170.119 143.206 170.07 142.536C170.046 142.21 169.911 141.64 169.905 141.319C169.892 140.761 170.072 139.985 169.978 139.53C169.917 139.219 169.758 139.3 169.635 139.174C169.398 138.93 169.749 138.427 169.805 138.358C169.806 138.356 169.867 138.631 169.94 138.476C170.109 138.376 169.806 138.361 169.805 138.358C169.84 138.316 169.833 137.739 169.794 137.646C169.772 137.59 169.619 137.634 169.611 137.605C169.415 136.904 169.316 136.149 169.33 135.397C169.332 135.384 169.508 135.39 169.511 135.359C169.555 134.932 169.32 134.675 169.165 134.329C169.011 133.983 169.03 133.692 169.312 133.453C169.252 133.17 169.355 132.799 169.418 132.571C169.48 132.347 169.139 132.342 169.131 132.324C168.868 131.737 169.034 131.367 169.012 130.717C169.003 130.42 168.907 129.844 168.844 129.522C168.794 129.268 168.86 129.107 168.79 128.872C168.781 128.84 168.633 128.885 168.626 128.876C168.424 128.624 168.803 128.722 168.865 128.661C169.088 128.441 169.206 128.307 169.065 127.969C169.033 127.893 168.484 127.717 168.442 127.579C168.387 127.402 168.583 127.455 168.522 127.268C168.517 127.252 168.4 127.265 168.395 127.147C168.373 126.597 168.392 125.985 168.333 125.396C168.325 125.315 168.147 125.434 168.133 125.318C168.067 124.783 168.028 124.221 168.073 123.692C168.084 123.562 168.221 123.632 168.258 123.601C168.478 123.411 168.118 123.196 168.108 123.156C167.864 122.193 168.115 121.469 167.888 120.511C167.875 120.459 167.477 120.082 167.775 119.873C167.794 119.858 168.1 119.65 167.867 119.507C167.853 119.498 167.697 119.626 167.698 119.426C167.698 119.228 167.561 118.908 167.721 118.637C167.771 118.55 168.074 118.327 167.799 118.099C167.78 118.084 167.172 117.746 167.558 117.574C167.621 117.546 168.044 117.535 167.803 117.251C167.756 117.197 167.671 117.309 167.6 117.162C167.491 116.937 167.577 116.617 167.366 116.342C167.328 116.294 167.025 116.102 167.227 115.91C167.259 115.879 167.404 115.92 167.412 115.826C167.45 115.374 167.321 114.964 167.382 114.521C167.403 114.366 167.637 114.425 167.684 114.26C167.732 114.096 167.763 113.769 167.645 113.609C167.527 113.449 167.181 113.664 167.131 113.413C166.912 112.308 167.035 111.227 166.974 110.135C166.965 109.972 166.847 110.118 166.824 109.879C166.739 108.988 166.489 107.477 166.7 106.702C166.868 106.074 167.101 106.827 167.151 106.353C167.175 106.124 166.734 105.915 166.716 105.861C166.536 105.338 166.69 104.946 166.591 104.462C166.571 104.361 166.409 104.475 166.393 104.39C166.387 104.356 166.382 104.322 166.378 104.287L166.374 104.218C166.355 103.961 166.401 103.694 166.377 103.451C166.365 103.328 166.235 103.357 166.24 103.243C166.25 102.97 166.294 102.727 166.404 102.456C166.414 102.431 166.584 102.586 166.58 102.385C166.574 102.058 166.676 101.649 166.533 101.28C166.491 101.171 166.192 101.181 166.387 100.932C166.427 100.88 166.788 100.926 166.466 100.663C166.412 100.618 165.972 100.171 166.23 99.9284C166.298 99.8645 166.583 99.6957 166.531 99.5643C166.523 99.5465 166.366 99.6269 166.345 99.5169C166.274 99.129 166.271 98.7192 166.201 98.3208C166.182 98.2143 166.024 98.3821 166.001 98.2231C165.937 97.7859 165.952 97.2358 165.983 96.8044C165.994 96.6454 166.137 96.7478 166.151 96.7355C166.385 96.5383 166.052 96.4456 166.029 96.3851C165.896 96.008 166.035 95.7089 165.976 95.3587C165.96 95.2621 165.807 95.339 165.793 95.3204C165.646 95.1267 165.935 95.2618 165.959 95.1333C166.028 94.7732 165.996 94.3783 165.957 94.0181C165.943 93.886 165.769 94.0442 165.758 93.9257C165.69 93.2236 165.67 92.4972 165.733 91.8036C165.746 91.6735 165.89 91.7473 165.92 91.7187C166.133 91.5214 165.815 91.2662 165.782 91.2054C165.635 90.9287 165.752 90.8128 165.716 90.5634C165.535 89.3395 165.534 87.8219 165.52 86.6656C165.501 85.1496 165.567 83.9776 165.449 82.5388C165.442 82.4473 165.262 82.5505 165.253 82.4718C165.149 81.4629 165.162 80.449 165.047 79.4397C165.038 79.3556 164.869 79.4877 164.849 79.3532C164.805 79.0772 164.794 78.7277 164.833 78.4479C164.852 78.3114 165.014 78.483 165.03 78.3459C165.067 78.0298 165.059 77.6827 165.01 77.3564C164.989 77.2177 164.822 77.4392 164.809 77.2581C164.715 76.0417 164.607 74.8248 164.759 73.5658C164.77 73.4804 165.131 73.3823 165.049 73.2088C164.947 73.202 164.827 73.2105 164.718 73.2118C164.542 71.4217 164.548 69.6402 164.438 67.8483C164.433 67.7743 164.249 67.9161 164.239 67.7731C164.179 66.9158 164.064 66.0972 164.189 65.2308C164.201 65.1413 164.545 65.1578 164.473 64.9055C164.46 64.8598 164.384 64.4856 164.302 64.3982C164.29 64.3862 164.137 64.4661 164.122 64.3483C164.038 63.6184 164.012 62.8926 164.042 62.1701C164.047 62.0541 164.228 62.1598 164.233 62.0773C164.27 61.515 164.075 60.8752 164.161 60.3393C164.218 59.9812 164.528 60.081 164.783 59.8366C164.819 59.7963 164.793 59.6113 164.952 59.5534C165.358 59.4298 165.839 59.4776 166.27 59.3338C166.369 59.2994 166.155 58.8932 166.45 59.0938C166.474 59.1089 166.613 59.4167 166.696 59.442C166.758 59.4764 166.913 59.3688 166.998 59.4482C167.081 59.5253 166.959 59.6739 167.057 59.7815C167.158 59.9076 167.343 59.812 167.403 60.1101ZM169.697 131.549C169.843 131.328 169.244 131.346 169.405 131.558C169.413 131.568 169.689 131.56 169.697 131.549ZM171.735 156.362C171.975 156.071 171.572 155.908 171.386 156.124C171.2 156.337 171.663 156.451 171.735 156.362ZM172.202 159.129C172.372 158.794 171.524 158.841 171.733 159.156C171.745 159.175 172.192 159.15 172.202 159.129ZM164.981 60.7168C164.988 60.712 164.977 60.5503 164.969 60.5486C164.771 60.486 164.792 60.8066 164.981 60.7168ZM172.722 161.844C172.828 161.738 172.673 161.468 172.541 161.601C172.435 161.707 172.589 161.977 172.722 161.844ZM169.464 120.799C169.473 120.796 169.471 120.677 169.421 120.683C169.26 120.705 169.319 120.865 169.464 120.799ZM173.119 166.537C173.083 165.839 173.742 165.357 173.735 166.115C173.733 166.252 173.484 165.845 173.438 166.023C173.354 166.354 173.812 166.516 173.611 166.866C173.574 166.928 173.12 166.578 173.118 166.535C173.118 166.536 173.119 166.536 173.119 166.537ZM170.403 131.372C170.411 131.367 170.405 131.2 170.397 131.196C170.2 131.121 170.212 131.459 170.403 131.372ZM169.257 113.832C169.273 113.822 169.256 113.439 169.24 113.427C168.914 113.254 168.946 114.029 169.257 113.832ZM171.712 142.427C171.916 142.594 171.955 142.806 171.727 142.966C171.726 142.789 171.714 142.609 171.712 142.427Z" fill="#686868"/>
<path d="M168.431 165.047C167.645 164.494 166.66 163.664 165.941 163.014C165.72 162.815 165.904 162.823 165.75 162.678C165.434 162.384 165.117 162.206 164.817 161.915C164.723 161.822 164.955 161.788 164.854 161.693C164.276 161.157 163.67 160.75 163.072 160.249C160.097 157.764 157.103 155.423 154.016 153C153.956 152.954 153.896 152.906 153.835 152.857C152.882 152.094 151.778 151.1 150.727 150.392C150.599 150.306 150.584 150.479 150.554 150.471C150.075 150.345 150.375 150.198 150.157 149.985C149.27 149.127 148.217 148.325 147.253 147.678C146.846 147.405 147.066 147.934 146.766 147.506C146.745 147.477 146.939 147.426 146.841 147.332C146.618 147.119 146.127 146.789 145.943 146.636C145.595 146.347 145.534 146.303 145.188 146.044C144.717 145.689 144.183 145.197 143.662 144.854C143.548 144.78 143.596 145.015 143.407 144.909C143.218 144.803 142.765 144.45 142.63 144.303C142.496 144.156 142.638 144.104 142.627 144.061C142.539 143.691 141.816 143.577 141.741 143.532C140.403 142.719 139.454 141.778 138.269 140.905C137.389 140.256 136.378 139.59 135.545 138.966C134.537 138.21 133.735 137.513 132.74 136.8C132.635 136.724 132.645 136.966 132.516 136.874C131.158 135.904 129.829 134.904 128.563 133.819C128.436 133.71 128.708 133.704 128.587 133.586C127.837 132.869 126.736 131.658 125.815 131.879C125.273 131.448 124.616 130.931 124.2 130.448C123.932 130.137 124.353 130.22 123.91 129.993C123.811 129.941 123.834 130.154 123.691 130.067C123.093 129.702 122.51 129.213 121.903 128.872C121.779 128.803 121.727 128.94 121.68 128.937C121.287 128.907 121.038 128.302 120.955 128.211C120.318 127.519 119.729 127.18 119.035 126.669C118.874 126.551 118.953 126.844 118.794 126.735C117.973 126.172 117.146 125.551 116.406 124.91C116.242 124.767 116.498 124.753 116.425 124.678C116.099 124.348 115.837 124.536 115.52 124.225C115.454 124.16 115.577 124.078 115.572 124.056C115.499 123.707 115.114 123.847 115.055 123.813C114.299 123.391 114.062 122.783 113.36 122.336C113.276 122.283 113.355 122.557 113.124 122.399C111.59 121.348 110.025 120.157 108.613 118.965C108.393 118.781 108.636 118.793 108.631 118.769C108.542 118.392 108.189 118.557 108.106 118.513C107.456 118.158 107.062 117.522 106.42 117.56C103.97 115.623 101.319 114 99.0154 111.907C98.986 111.881 99.1404 111.786 99.0814 111.734C98.3648 111.106 98.3608 111.424 97.6668 111.32C97.4921 111.293 97.3265 110.703 97.3086 110.655C97.2437 110.481 97.5184 110.371 97.4881 110.325C97.2319 109.948 96.8148 110.663 96.3409 110.326C96.3269 110.314 96.4771 110.235 96.4462 110.194C96.3503 110.068 96.1932 110.03 96.1032 109.901C95.8981 109.607 96.0322 109.211 95.4784 109.103C95.408 109.09 95.2172 109.528 94.8124 109.213C94.6545 109.089 93.9029 108.565 93.7127 108.392C93.5223 108.22 93.7524 108.199 93.7413 108.183C93.2972 107.623 93.5573 107.706 93.4485 107.267C93.3396 106.83 93.0114 107.457 92.8526 107.44C92.6949 107.424 92.3797 106.999 92.3102 106.879C92.2418 106.761 92.4237 106.772 92.3522 106.682C91.8771 106.086 91.889 106.78 91.6282 106.732C91.0136 106.619 90.9565 105.942 90.5671 105.605C90.4593 105.512 90.4853 105.675 90.376 105.611C89.9443 105.358 89.7938 105.053 89.2496 104.851C89.1606 104.818 88.611 104.813 88.5056 104.458C88.4915 104.409 88.6492 104.372 88.5232 104.24C88.5183 104.235 88.5131 104.23 88.5074 104.225C88.2715 104.006 87.821 103.654 87.5199 103.495C87.2976 103.378 87.4084 103.717 87.1902 103.483C87.0935 103.378 87.3761 103.424 87.1884 103.237C87.0019 103.051 86.4588 102.677 86.2428 102.531C86.0311 102.388 86.0527 102.6 86.0295 102.597C85.8911 102.577 85.447 102.361 85.4122 102.337C83.6313 101.114 82.1384 99.7431 80.354 98.6191C80.2133 98.5301 80.2073 98.7336 80.1849 98.7215C79.6769 98.4574 80.3031 98.3382 80.0638 97.9883C79.914 98.306 79.7571 98.1213 79.4102 97.9281C79.243 97.8354 79.2522 98.0047 79.2301 98.0062C78.8843 98.0152 78.8625 97.6807 78.8519 97.6079C78.807 97.3365 78.504 97.4121 78.4729 97.23C78.4414 97.0487 78.7958 97.0561 78.4785 96.8409C78.3198 96.8823 78.3701 97.3103 78.1011 97.1891C77.0954 96.7381 75.5422 95.3671 74.8244 94.8466C74.1187 94.3339 73.864 94.1887 73.4642 93.863C72.7434 93.2761 72.8932 93.6683 72.3552 93.4369C71.8105 93.2012 72.3771 92.8702 72.379 92.7178C72.3822 92.5665 72.2348 92.6248 72.1898 92.51C72.1451 92.3955 72.375 92.4465 72.1925 92.2915C72.0092 92.1359 71.3492 91.9635 71.2062 92.0276C70.8993 92.1606 70.9786 92.5705 70.5108 92.1302C70.484 92.1048 70.6689 92.0416 70.5621 91.9508C69.7196 91.2392 68.7716 90.5948 67.918 89.8978C67.7997 89.801 68.0089 89.7325 67.9412 89.6746C67.2388 89.0731 67.3504 89.4984 66.7569 89.4928C67.0898 89.1961 67.0043 88.8218 66.4233 88.4329C66.0762 88.2005 66.0322 88.3976 65.7354 88.3602C65.6468 88.3494 65.4737 88.0796 65.3781 88.1226C65.0698 88.266 65.123 88.6899 64.5948 88.1858C64.572 88.1634 64.7429 88.0863 64.6576 88.0184C64.1093 87.5809 63.873 87.7879 63.2161 87.3993C62.7106 87.1009 61.9164 86.3588 61.3749 85.9689C61.6519 85.5704 61.0504 85.3099 60.6525 85.4497C60.2981 85.2021 59.882 84.9537 59.5528 84.6846C59.4393 84.592 59.5961 84.5264 59.589 84.5037C59.4821 84.1503 59.1499 84.3226 59.0608 84.2799C58.1243 83.82 57.5579 83.1602 56.6043 82.8323C56.5702 82.8206 56.3393 83.0727 56.2516 82.7235C56.2465 82.7001 56.6021 82.7467 56.2204 82.4868C55.8452 82.2311 55.202 81.6032 54.582 81.3913C54.4294 81.3382 53.9502 81.3561 53.8035 81.0085C53.7842 80.9617 53.8745 80.9047 53.8531 80.8272C53.7833 80.5791 53.5048 80.8053 53.4667 80.4375C53.4265 80.0684 53.1466 79.6324 52.489 79.4497C52.4686 79.4436 52.1944 79.5888 52.027 79.4771C51.7596 79.2982 51.3942 78.9987 51.1121 78.8211C50.9763 78.7358 50.9728 78.9323 50.9477 78.9199C49.9706 78.409 49.4051 77.8724 48.4498 77.1871C48.2785 77.0635 47.6306 76.9217 47.3814 76.5483C47.1178 76.1585 47.8463 75.7415 47.1042 75.3647C47.0592 75.3417 47.0091 75.3189 46.9533 75.2963C46.5542 75.1341 45.5388 75.7238 45.1971 74.8612C43.8832 74.1759 42.8935 73.2058 41.5542 72.5599C41.4934 72.5303 41.1573 72.6588 41.0296 72.5705C40.8414 72.4396 40.8079 72.2548 40.6741 72.1563C40.1215 71.7447 39.5209 71.4884 38.9775 71.1067C38.7681 70.96 38.9198 70.8917 38.6727 70.7182C38.4288 70.5469 38.152 70.5854 37.8644 70.2858C37.6417 70.055 37.5999 69.571 37.2817 69.3041C37.0604 69.6058 36.8307 69.4424 36.36 69.2438C36.2699 69.206 36.2822 69.3713 36.2358 69.359C36.0459 69.3117 35.9612 69.1242 35.7753 69.0864C35.73 69.0769 35.6567 69.1814 35.6157 69.1797C35.263 69.1678 35.0196 68.6546 34.9771 68.565C34.8156 68.2249 34.6004 68.2788 34.4362 68.0757C34.2742 67.874 34.6323 68.0062 34.4197 67.8053C33.9787 67.3891 33.335 66.9695 32.8389 66.6172C32.6405 66.4773 32.6791 66.7118 32.6485 66.695C32.211 66.4433 31.9001 66.0043 31.4769 66.1219C31.6965 65.2035 31.1798 66.0178 30.6945 65.4603C30.6564 65.416 30.8373 65.0357 31.0495 65.1109C31.2613 65.1859 31.4559 65.4817 31.7563 65.5765C31.8276 65.5994 32.3846 65.5148 32.4435 65.5272C32.9064 65.6263 32.6013 66.1694 32.6009 66.2108C32.6056 66.6625 33.2538 66.6025 33.3788 66.6538C33.9465 66.8859 34.3194 67.2487 34.7853 67.4533C35.092 67.5893 35.3464 67.271 35.5521 67.4266C36.2349 67.9421 36.1671 68.5808 37.1098 68.624C37.312 68.6337 37.419 68.1709 37.7363 68.8048C37.757 68.8453 37.9603 69.3662 38.2945 69.3465C38.3366 69.344 38.4076 69.2357 38.4505 69.2513C38.7358 69.3573 38.8392 69.5502 39.1373 69.6891C39.4286 69.8235 39.7962 69.979 40.0754 70.2161C40.2462 70.3605 40.3506 70.7182 40.4058 70.8252C40.5619 71.1318 40.9847 71.076 41.0253 71.349C41.0685 71.6248 40.5887 71.6861 40.9279 72.0684C41.1275 71.7973 41.352 71.5317 41.562 71.265C42.4543 71.8638 43.2811 72.5312 44.1942 73.1039C44.3088 73.1754 44.2918 72.9492 44.4149 73.0204C44.9355 73.3227 45.3094 73.7169 45.8676 74.0146C46.2942 74.2407 46.8481 74.3684 47.3016 74.6012C47.313 74.7027 47.3524 74.796 47.4119 74.8833C47.6306 75.2128 48.1576 75.4583 48.5032 75.7117C48.6583 75.8249 48.5924 75.9048 48.69 76.0067C49.0623 76.391 49.0374 75.9719 49.1854 76.0028C49.8136 76.1321 49.4543 76.8156 50.0604 77.1789C50.092 77.1981 50.7054 77.1023 50.7737 77.1154C51.2009 77.1899 50.7526 77.2713 50.9484 77.4319C51.3074 77.726 51.5304 77.9841 52.0495 78.1724C52.2011 78.2268 52.6655 78.2196 52.8135 78.5485C52.8334 78.5919 52.7418 78.6943 52.7648 78.7184C53.1881 79.1454 53.4386 78.7999 53.7957 78.8567C54.1537 78.9141 54.4372 79.4444 54.4825 79.5741C54.5982 79.9084 54.2515 79.5376 54.2268 79.5473C53.9375 79.6663 54.2905 79.8397 54.5167 80.0101C54.3261 80.3841 54.68 80.5809 54.7573 80.1887C54.765 80.1455 54.5548 80.0572 54.5167 80.0101C54.9482 79.7996 55.3587 80.0001 55.5638 80.5867C55.6598 80.8617 55.3616 80.9188 55.9938 81.2338C56.281 81.3772 56.3374 81.0716 56.6117 81.1547C57.2425 81.3476 57.7998 82.0261 58.378 82.3495C58.5894 82.468 58.4769 82.2077 58.6246 82.2843C59.0149 82.4858 59.2651 82.7886 59.669 82.9785C59.7057 82.9955 59.7134 82.804 59.8297 82.8769C60.7008 83.4195 61.3917 83.9954 62.2977 84.5913C62.722 84.8703 63.5658 85.3149 63.9946 85.6189C64.7593 86.1583 65.5795 86.9872 66.2807 87.3822C66.7302 87.6354 66.7279 87.4362 66.9751 87.4653C67.4547 87.5222 67.8753 88.2706 67.9238 88.3755C67.925 88.3787 67.5352 88.1659 67.6848 88.3671C67.7013 88.59 67.9192 88.3734 67.9238 88.3755C67.9564 88.444 68.6801 88.9715 68.8487 89.0464C68.9395 89.0863 68.9808 88.9261 69.0265 88.9494C70.0876 89.4902 71.1045 90.1249 72.0768 90.8685C72.0924 90.8828 71.9685 91.01 72.0066 91.042C72.5375 91.4937 73.0307 91.5691 73.5875 91.7928C74.1313 92.0079 74.487 92.3007 74.6036 92.7424C74.9927 92.9611 75.4274 93.4173 75.6799 93.6868C75.932 93.956 76.166 93.704 76.1959 93.7163C77.1491 94.1063 77.4854 94.5722 78.329 95.1876C78.7194 95.4735 79.5393 95.9774 80.0024 96.2514C80.3668 96.4662 80.5201 96.6688 80.8659 96.8456C80.9124 96.8695 80.9553 96.7151 80.9717 96.7193C81.4273 96.8139 81.0475 97.0015 81.0828 97.1062C81.2102 97.4865 81.3046 97.7074 81.8217 97.9278C81.939 97.9776 82.5431 97.7477 82.7504 97.8535C83.0192 97.9919 82.8171 98.0842 83.1024 98.2259C83.1268 98.2382 83.1893 98.1381 83.3466 98.2537C84.0895 98.7971 84.83 99.3964 85.6199 99.9336C85.7265 100.007 85.6987 99.7592 85.853 99.8612C86.5639 100.331 87.3533 100.892 87.9898 101.446C88.1457 101.582 87.9648 101.615 87.979 101.673C88.0686 102.023 88.586 101.969 88.643 102.001C89.0086 102.204 89.3354 102.422 89.6452 102.648C90.462 103.244 91.1724 103.912 92.1659 104.483C92.2402 104.525 92.9897 104.607 93.0499 105.034C93.0543 105.063 93.1073 105.494 93.4464 105.465C93.4676 105.464 93.4137 105.223 93.6649 105.421C93.9149 105.619 94.3893 105.82 94.6397 106.221C94.719 106.347 94.7989 106.797 95.2841 106.829C95.3158 106.829 96.174 106.73 96.1239 107.184C96.1157 107.259 95.8395 107.58 96.3634 107.687C96.464 107.707 96.3801 107.532 96.6151 107.627C96.9754 107.772 97.3192 108.156 97.8099 108.275C97.8962 108.295 98.3446 108.263 98.4421 108.6C98.4575 108.653 98.3089 108.72 98.4184 108.817C98.9386 109.281 99.5875 109.628 100.11 110.122C100.293 110.294 100.057 110.405 100.232 110.606C100.408 110.807 100.801 111.16 101.083 111.234C101.366 111.308 101.334 110.839 101.685 111.054C103.207 111.989 104.515 113.189 105.937 114.25C106.148 114.407 106.047 114.174 106.364 114.399C107.532 115.227 109.609 116.573 110.453 117.523C111.132 118.285 110.017 117.688 110.581 118.207C110.854 118.456 111.423 118.347 111.502 118.388C112.282 118.785 112.66 119.288 113.325 119.699C113.463 119.783 113.435 119.552 113.551 119.626C113.947 119.876 114.3 120.226 114.67 120.476C114.836 120.589 114.883 120.461 115.026 120.577C115.371 120.855 115.654 121.128 115.931 121.48C115.956 121.512 115.647 121.488 115.907 121.685C116.33 122.002 116.79 122.485 117.355 122.741C117.523 122.817 117.704 122.579 117.897 122.974C117.937 123.056 117.642 123.285 118.19 123.3C118.282 123.303 119.142 123.411 119.285 123.848C119.322 123.963 119.353 124.348 119.555 124.438C119.583 124.449 119.582 124.25 119.737 124.343C120.279 124.673 120.807 125.078 121.363 125.42C121.512 125.511 121.4 125.225 121.618 125.365C122.219 125.751 122.911 126.307 123.445 126.76C123.641 126.927 123.417 126.934 123.423 126.957C123.523 127.331 123.86 127.17 123.952 127.213C124.521 127.486 124.807 127.886 125.296 128.192C125.43 128.277 125.432 128.084 125.466 128.091C125.81 128.174 125.448 128.258 125.596 128.404C126.012 128.816 126.539 129.186 127.02 129.513C127.197 129.633 127.11 129.344 127.268 129.454C128.213 130.106 129.149 130.812 129.993 131.554C130.151 131.693 129.962 131.728 129.978 131.78C130.09 132.138 130.625 132.153 130.724 132.189C131.174 132.354 131.245 132.559 131.585 132.78C133.267 133.871 135.187 135.383 136.676 136.541C138.598 138.037 140.067 139.285 141.952 140.636C142.074 140.724 142.063 140.484 142.169 140.558C143.53 141.508 144.79 142.532 146.149 143.474C146.261 143.552 146.208 143.293 146.392 143.414C146.77 143.661 147.217 144.006 147.541 144.316C147.699 144.468 147.375 144.415 147.536 144.565C147.924 144.924 148.363 145.267 148.802 145.559C148.989 145.682 148.826 145.336 149.06 145.508C150.689 146.699 152.25 147.827 153.746 149.241C153.847 149.337 153.716 149.697 153.998 149.821C154.077 149.753 154.148 149.657 154.221 149.576C154.684 149.909 155.13 150.24 155.562 150.565C157.435 151.978 159.249 153.455 161.127 154.897C161.225 154.972 161.172 154.688 161.363 154.833C162.457 155.665 163.552 156.428 164.562 157.439C164.661 157.538 164.389 157.761 164.759 157.977C164.829 158.019 165.336 158.348 165.514 158.39C165.539 158.395 165.543 158.198 165.709 158.319C166.646 159.002 167.6 159.778 168.461 160.563C168.597 160.688 168.338 160.704 168.434 160.793C169.122 161.437 170.025 161.973 170.646 162.661C171.066 163.127 170.704 163.214 170.774 163.641C170.789 163.706 171.079 163.953 170.985 164.095C170.746 164.447 170.316 164.69 170.08 165.08C170.05 165.118 170.152 165.202 170.174 165.243C170.191 165.27 170.14 165.238 170.093 165.218C170.051 165.209 170.136 165.359 170.06 165.363C170.064 165.384 169.762 165.231 169.642 165.237C169.562 165.243 169.537 165.442 169.398 165.42C169.259 165.398 169.249 165.206 169.03 165.137C168.826 165.082 168.762 165.279 168.431 165.047ZM76.8174 94.8989C76.9987 95.2209 77.3771 94.755 77.0001 94.6705C76.9815 94.667 76.8078 94.8827 76.8174 94.8989ZM43.0289 72.9042C43.2557 73.3661 43.7088 73.1971 43.5654 72.8615C43.4202 72.5248 42.9604 72.7644 43.0289 72.9042ZM39.1518 70.5923C39.4619 71.0473 39.9952 70.383 39.4477 70.226C39.4158 70.2165 39.1336 70.5657 39.1518 70.5923ZM169.548 162.776C169.542 162.78 169.76 162.961 169.767 162.957C169.999 162.897 169.577 162.547 169.548 162.776ZM35.3198 68.2703C35.3847 68.4535 35.8387 68.6018 35.7552 68.3726C35.6878 68.1881 35.2371 68.0412 35.3198 68.2703ZM90.724 105.358C90.7241 105.369 90.8749 105.485 90.901 105.442C90.9844 105.302 90.7393 105.185 90.724 105.358ZM29.075 63.9188C29.9716 64.598 30.1235 65.5642 29.1695 64.789C28.9968 64.6485 29.6891 64.8846 29.4954 64.6692C29.141 64.2757 28.6064 64.4346 28.3139 63.9352C28.2615 63.8447 29.0249 63.8791 29.0772 63.9192C29.0764 63.9191 29.0757 63.9189 29.075 63.9188ZM76.5692 95.5997C76.5701 95.6099 76.786 95.7667 76.7958 95.764C77.0223 95.6889 76.5873 95.3727 76.5692 95.5997ZM99.69 112.189C99.692 112.211 100.187 112.584 100.213 112.584C100.656 112.519 99.656 111.763 99.69 112.189ZM61.373 85.9521C61.0209 85.9501 60.7159 85.7779 60.6535 85.4507C60.888 85.6189 61.1322 85.7807 61.373 85.9521Z" fill="#686868"/>
<path d="M30.7941 61.3675C31.5525 61.149 32.5667 61.0031 33.3418 60.9329C33.5847 60.9107 33.4825 61.0381 33.652 61.0275C33.8818 61.0133 34.091 60.957 34.3116 60.9203C34.4115 60.9036 34.5137 60.8912 34.6199 60.8882C34.7373 60.8856 34.6226 61.0749 34.7445 61.0687C35.4032 61.0362 35.9997 60.9232 36.6456 60.9003C39.8155 60.8083 42.8193 60.9544 45.9097 61.1511C46.9282 61.2183 48.1568 61.4339 49.2093 61.4278C49.3321 61.4269 49.2676 61.2755 49.2915 61.2647C49.6665 61.1001 49.5282 61.3902 49.7645 61.4437C50.7015 61.6554 51.7507 61.7359 52.6632 61.7393C53.0518 61.7404 52.6829 61.4225 53.0623 61.6124C53.0885 61.6253 52.9802 61.7749 53.0848 61.7986C53.3214 61.852 53.7811 61.855 53.9656 61.88C54.322 61.929 54.3826 61.9316 54.7215 61.9566C54.9344 61.973 55.1653 62.0063 55.4017 62.0376C55.6831 62.0744 55.9636 62.1089 56.237 62.1104C56.3438 62.1105 56.2152 61.9397 56.3869 61.9255C56.5607 61.9113 57.0075 61.9602 57.1562 62.01C57.3039 62.0597 57.2298 62.1803 57.2542 62.2113C57.4554 62.4721 57.9984 62.1761 58.0652 62.1727C59.2848 62.1251 60.2961 62.3803 61.4292 62.4205C62.2876 62.451 63.2071 62.4039 64.0305 62.4182C65.0011 62.4357 65.8422 62.5182 66.7892 62.4922C66.8888 62.4896 66.7695 62.3024 66.8916 62.2988C67.0027 62.2956 67.1152 62.2925 67.229 62.2896C68.4122 62.2596 69.6118 62.2609 70.7998 62.3477C70.9301 62.3574 70.7667 62.5272 70.8972 62.5468C71.6996 62.6631 72.9776 62.9541 73.4288 62.219C73.9717 62.2312 74.6288 62.24 75.1185 62.3699C75.4349 62.4534 75.1368 62.6435 75.5174 62.5543C75.6033 62.5343 75.4858 62.38 75.615 62.3621C76.1606 62.2865 76.759 62.318 77.2962 62.218C77.4056 62.1973 77.3707 62.0568 77.401 62.0302C77.656 61.8149 78.1032 62.1409 78.1992 62.1623C78.9293 62.3219 79.4556 62.2301 80.1293 62.2099C80.2856 62.2053 80.0938 62.022 80.2442 62.0108C81.0239 61.9548 81.8339 61.9406 82.6002 61.9955C82.7711 62.0081 82.6207 62.1761 82.7029 62.1904C83.0657 62.2515 83.1323 61.9427 83.4776 61.9953C83.551 62.006 83.5154 62.1462 83.5293 62.1609C83.7467 62.3917 83.9127 62.046 83.9654 62.0364C84.6333 61.9077 85.0802 62.2437 85.7254 62.1672C85.8026 62.1577 85.6197 61.9896 85.8389 61.9735C87.2969 61.8653 88.8328 61.8484 90.2841 61.9243C90.5076 61.936 90.3547 62.0748 90.3694 62.0904C90.6045 62.3341 90.746 61.9872 90.8171 61.9711C90.926 61.9487 91.0325 61.94 91.1357 61.9377C91.5965 61.927 92.0095 62.0331 92.312 61.6902C94.7596 61.7218 97.1674 61.3438 99.6162 61.6027C99.6472 61.6057 99.5989 61.7754 99.6607 61.7805C100.408 61.8448 100.251 61.5908 100.732 61.2546C100.849 61.1738 101.208 61.5116 101.272 61.5638C101.274 61.5661 101.276 61.5678 101.278 61.569C101.4 61.6689 101.285 61.9221 101.325 61.9409C101.664 62.0879 101.583 61.2655 102.038 61.2512C102.052 61.2522 101.998 61.4056 102.036 61.4196C102.153 61.4634 102.271 61.3995 102.388 61.4483C102.653 61.5615 102.759 61.9591 103.159 61.7149C103.211 61.6832 103.115 61.2178 103.523 61.2291C103.683 61.2339 104.397 61.208 104.598 61.2338C104.798 61.2594 104.665 61.4132 104.679 61.4194C105.225 61.6061 105.018 61.6936 105.295 61.9825C105.573 62.2704 105.482 61.5713 105.59 61.4907C105.697 61.4103 106.097 61.5666 106.194 61.6219C106.292 61.6771 106.173 61.7753 106.26 61.8059C106.836 62.0063 106.503 61.4532 106.69 61.3384C107.131 61.0667 107.484 61.5807 107.891 61.6252C108.001 61.6372 107.909 61.5202 108.008 61.5076C108.393 61.4594 108.629 61.6182 109.069 61.4637C109.142 61.4385 109.491 61.1215 109.728 61.3483C109.76 61.381 109.67 61.5116 109.834 61.5387C110.081 61.5795 110.526 61.6034 110.791 61.5578C110.987 61.5241 110.761 61.3125 111.007 61.3768C111.117 61.4055 110.915 61.532 111.121 61.5756C111.327 61.619 111.849 61.61 112.049 61.6047C112.248 61.5992 112.138 61.4379 112.154 61.4269C112.251 61.3639 112.633 61.2841 112.667 61.2842C114.369 61.258 115.937 61.5354 117.594 61.463C117.725 61.4576 117.64 61.2859 117.66 61.2833C118.106 61.217 117.75 61.6668 118.058 61.8226C118.033 61.6065 118.094 61.5501 118.22 61.5302C118.296 61.5182 118.396 61.5196 118.515 61.5069C118.666 61.4905 118.586 61.3552 118.6 61.3416C118.827 61.1411 118.979 61.4069 119.018 61.4614C119.163 61.6618 119.329 61.4305 119.427 61.5647C119.526 61.6978 119.29 61.8885 119.591 61.8914C119.677 61.7689 119.46 61.4407 119.689 61.3923C120.555 61.2085 122.157 61.5005 122.848 61.5455C123.538 61.59 123.762 61.5734 124.163 61.6294C124.887 61.7308 124.627 61.4829 125.082 61.3858C125.537 61.2888 125.3 61.874 125.362 62.003C125.422 62.132 125.495 62.0032 125.573 62.0753C125.65 62.1475 125.476 62.229 125.662 62.2606C125.847 62.2922 126.363 62.081 126.433 61.95C126.58 61.6724 126.359 61.37 126.849 61.4884C126.878 61.4954 126.781 61.6482 126.889 61.6671C127.748 61.8121 128.643 61.8456 129.5 61.9752C129.618 61.9933 129.508 62.1634 129.576 62.1759C130.291 62.3061 130.042 62.0073 130.444 61.6936C130.344 62.1226 130.555 62.3924 131.1 62.4087C131.428 62.4186 131.376 62.2288 131.591 62.1011C131.655 62.0627 131.884 62.1975 131.928 62.1099C132.073 61.8235 131.862 61.4944 132.42 61.6362C132.445 61.6429 132.363 61.7997 132.448 61.8112C132.996 61.8861 133.069 61.5847 133.663 61.5596C134.129 61.5401 134.954 61.7389 135.484 61.7762C135.465 62.2611 135.97 62.1568 136.176 61.8246C136.521 61.8423 136.891 61.8271 137.225 61.876C137.339 61.8927 137.263 62.0325 137.277 62.0478C137.496 62.2876 137.648 61.9631 137.723 61.9508C138.035 61.9049 138.322 61.9136 138.605 61.9276C139.051 61.9499 139.481 61.9859 139.953 61.837C139.981 61.8282 140.024 61.4912 140.23 61.7367C140.243 61.7536 139.99 61.9077 140.351 61.9184C140.713 61.9292 141.396 62.1061 141.897 61.9456C142.018 61.907 142.323 61.6307 142.572 61.8419C142.605 61.8706 142.57 61.9676 142.618 62.0209C142.773 62.1906 142.853 61.8491 143.037 62.1364C143.22 62.4236 143.599 62.6359 144.103 62.429C144.12 62.423 144.236 62.1514 144.395 62.1532C144.65 62.1565 145.012 62.2069 145.277 62.2006C145.405 62.1975 145.32 62.0313 145.342 62.0278C146.196 61.919 146.807 62.0564 147.724 62.1011C147.894 62.1096 148.369 61.8701 148.699 62.0429C149.061 62.232 148.713 63.064 149.531 62.8474C149.86 62.7606 150.251 61.7061 150.861 62.2304C152.01 62.0647 153.085 62.3094 154.237 62.0814C154.289 62.0712 154.444 61.7748 154.565 61.7748C154.747 61.7755 154.853 61.9083 154.982 61.9131C155.527 61.9365 156.018 61.8036 156.544 61.8042C156.743 61.8041 156.674 61.9473 156.915 61.9471C157.152 61.9469 157.305 61.7562 157.628 61.8349C157.874 61.895 158.125 62.2658 158.452 62.2991C158.452 62.1146 158.506 62.0212 158.604 61.9606C158.712 61.8981 158.865 61.8703 159.061 61.8138C159.138 61.7922 159.051 61.6648 159.087 61.6479C159.234 61.576 159.363 61.6797 159.504 61.6021C159.538 61.5835 159.535 61.4558 159.562 61.4334C159.784 61.2381 160.182 61.5129 160.251 61.5608C160.505 61.7428 160.622 61.5731 160.819 61.6419C161.016 61.7107 160.73 61.8129 160.956 61.8515C161.428 61.931 162.031 61.893 162.507 61.8861C162.698 61.8825 162.563 61.7156 162.59 61.7112C162.981 61.6574 163.385 61.8287 163.593 61.4832C163.853 62.243 163.841 61.6058 164.205 61.5322C164.258 61.5214 164.319 61.5219 164.39 61.5391C164.434 61.5502 164.523 61.9605 164.352 62.0329C164.317 62.0477 164.277 62.0546 164.234 62.0569C164.069 62.066 163.863 62.0073 163.677 62.088C163.621 62.112 163.31 62.5094 163.267 62.534C162.932 62.7269 162.865 62.1082 162.846 62.0746C162.633 61.7124 162.254 62.1419 162.15 62.1738C161.683 62.3195 161.282 62.2441 160.891 62.3507C160.63 62.4199 160.626 62.8266 160.419 62.8205C159.75 62.8003 159.494 62.2415 158.877 62.7535C158.775 62.8382 158.843 63.1217 158.642 63.0891C158.586 63.0797 158.509 63.0438 158.397 62.9692C158.363 62.9483 157.996 62.641 157.789 62.8501C157.763 62.8765 157.768 63.0058 157.734 63.0178C157.511 63.0957 157.343 62.9982 157.097 63.0558C156.844 63.1138 156.547 63.1974 156.253 63.1632C156.081 63.1427 155.848 62.9092 155.761 62.8529C155.525 62.6906 155.276 62.9777 155.126 62.7765C154.974 62.5744 155.25 62.251 154.861 62.1298C154.858 62.4663 154.836 62.8123 154.824 63.151C153.978 63.1665 153.143 63.0837 152.296 63.1235C152.191 63.1288 152.303 63.3063 152.192 63.3166C151.718 63.3592 151.297 63.2422 150.806 63.307C150.425 63.3579 150.013 63.5603 149.613 63.6187C149.36 63.2403 148.771 63.3856 148.339 63.3604C148.188 63.3517 148.196 63.2488 148.088 63.2177C147.68 63.1029 147.878 63.4385 147.768 63.4945C147.298 63.7333 147.238 62.9648 146.679 62.9952C146.65 62.9966 146.293 63.4139 146.244 63.4404C145.93 63.6129 146.189 63.2986 145.99 63.272C145.624 63.2234 145.371 63.1299 144.946 63.2571C144.822 63.2947 144.528 63.5551 144.283 63.3608C144.251 63.3354 144.267 63.1996 144.241 63.192C143.777 63.0663 143.77 63.4923 143.507 63.6401C143.244 63.7878 142.831 63.4983 142.747 63.4144C142.527 63.1974 142.913 63.3189 142.925 63.2972C143.06 63.0395 142.762 63.087 142.535 63.0677C142.497 62.6503 142.18 62.6784 142.298 63.0492C142.312 63.0897 142.489 63.0491 142.535 63.0677C142.339 63.4796 141.988 63.5354 141.599 63.1552C141.417 62.977 141.586 62.7668 141.037 62.8467C140.788 62.8826 140.886 63.1697 140.666 63.2492C140.163 63.4305 139.509 63.1633 138.989 63.2047C138.801 63.2198 138.984 63.3776 138.855 63.3932C138.768 63.404 138.683 63.4042 138.6 63.3996C138.356 63.386 138.124 63.3309 137.869 63.3746C137.837 63.3801 137.913 63.5453 137.805 63.5468C136.996 63.5611 136.291 63.4484 135.446 63.4337C135.039 63.4269 134.306 63.5058 133.885 63.4795C133.153 63.4353 132.258 63.1758 131.632 63.2189C131.223 63.2463 131.309 63.4132 131.131 63.5212C130.788 63.7305 130.202 63.3249 130.124 63.2624C130.121 63.2603 130.473 63.2307 130.288 63.1412C130.184 62.9621 130.128 63.2617 130.124 63.2624C130.072 63.2221 129.373 63.1656 129.233 63.1931C129.157 63.2083 129.195 63.3656 129.155 63.3705C128.215 63.4841 127.277 63.4962 126.332 63.3954C126.315 63.3918 126.345 63.2179 126.306 63.2115C125.76 63.1178 125.402 63.3212 124.947 63.435C124.491 63.5488 124.134 63.4963 123.875 63.1891C123.533 63.2174 123.048 63.0718 122.768 62.9841C122.489 62.8964 122.441 63.2354 122.416 63.2415C121.639 63.4373 121.199 63.2322 120.399 63.1852C120.019 63.1623 119.265 63.1977 118.853 63.2287C118.591 63.2488 118.414 63.1994 118.198 63.2038C118.146 63.2049 118.091 63.2091 118.032 63.2183C117.992 63.2246 118.031 63.3766 118.018 63.3822C117.682 63.5593 117.847 63.1911 117.779 63.1242C117.531 62.8809 117.378 62.751 116.948 62.8602C116.849 62.8852 116.556 63.4159 116.377 63.4458C116.142 63.4838 116.232 63.2933 115.987 63.3381C115.966 63.3418 115.969 63.4596 115.818 63.4536C115.116 63.4274 114.351 63.3573 113.621 63.3701C113.521 63.3714 113.649 63.5582 113.505 63.5631C112.83 63.5863 112.089 63.5828 111.431 63.5C111.268 63.4791 111.369 63.3474 111.333 63.3088C111.115 63.0752 110.812 63.4195 110.761 63.4265C109.557 63.6017 108.629 63.3045 107.402 63.4723C107.335 63.482 106.826 63.8573 106.592 63.5476C106.577 63.527 106.341 63.21 106.145 63.4338C106.133 63.4478 106.277 63.6104 106.031 63.5984C105.782 63.5866 105.386 63.7055 105.045 63.5314C104.934 63.4767 104.675 63.1618 104.358 63.4252C104.338 63.4435 103.855 64.0336 103.671 63.6396C103.642 63.5747 103.656 63.1521 103.282 63.3786C103.21 63.4225 103.347 63.513 103.154 63.577C102.86 63.6757 102.468 63.5739 102.11 63.7729C102.049 63.808 101.789 64.1025 101.565 63.8924C101.53 63.8594 101.589 63.7166 101.475 63.7045C101.43 63.6997 101.386 63.6961 101.342 63.6935C100.838 63.6641 100.323 63.7546 99.8179 63.6856C99.6208 63.6594 99.7138 63.4276 99.507 63.3752C99.3033 63.3226 98.8917 63.2824 98.6844 63.3965C98.4779 63.5107 98.7261 63.862 98.411 63.9065C97.0418 64.1013 95.6411 63.9675 94.2489 64.0046C94.0387 64.0104 94.2178 64.1316 93.9157 64.1489C93.1969 64.1905 92.1674 64.2906 91.2427 64.2983C90.7243 64.3022 90.2311 64.2763 89.8741 64.1912C89.0834 64.0046 90.0617 63.7934 89.4576 63.7298C89.1693 63.6994 88.8776 64.1344 88.8065 64.1507C88.1382 64.3145 87.6537 64.1479 87.0482 64.2306C86.9228 64.2478 87.0535 64.4135 86.9465 64.4262C86.5765 64.4713 86.1957 64.4106 85.8415 64.439C85.686 64.4521 85.72 64.5814 85.5755 64.5772C85.2281 64.5687 84.9206 64.5261 84.5783 64.4173C84.547 64.4074 84.7484 64.2367 84.4914 64.2409C84.077 64.2481 83.5566 64.1478 83.0868 64.2909C82.947 64.3339 82.9519 64.6324 82.6403 64.4382C82.575 64.3976 82.6428 64.0362 82.3009 64.3593C82.2431 64.4131 81.6643 64.8532 81.3621 64.595C81.2824 64.5271 81.0741 64.2414 80.9064 64.2937C80.8837 64.302 80.9819 64.4588 80.8418 64.4796C80.3469 64.5504 79.826 64.5523 79.3172 64.6209C79.1815 64.6395 79.3904 64.798 79.1878 64.8204C78.6305 64.8824 77.9321 64.8645 77.3833 64.8313C77.1812 64.8187 77.3157 64.6766 77.3006 64.6621C77.0568 64.427 76.9289 64.7598 76.8509 64.7816C76.3678 64.9126 75.992 64.7705 75.5451 64.8258C75.422 64.8406 75.5146 64.9943 75.4904 65.009C75.24 65.1535 75.4211 64.8664 75.2579 64.8406C74.8009 64.7673 74.2956 64.7956 73.8391 64.8293C73.6718 64.8419 73.866 65.0177 73.715 65.0269C72.8211 65.0849 71.8883 65.0936 71.0112 65.0156C70.8465 65.0006 70.9463 64.8582 70.9113 64.8271C70.6735 64.6097 70.3285 64.9228 70.2509 64.9537C69.8958 65.0946 69.745 64.9743 69.4278 65.0043C68.7534 65.0683 68.0137 65.0956 67.2691 65.101C66.2741 65.1084 65.2793 65.0755 64.4301 65.0434C62.4873 64.9694 60.9649 64.7957 59.1028 64.7078C58.9838 64.7019 59.0912 64.8955 58.9885 64.8927C57.6963 64.8493 56.4656 64.6682 55.2226 64.6303C55.1926 64.6293 55.1626 64.6284 55.1325 64.6276C55.0261 64.6244 55.167 64.8108 54.9957 64.8115C54.6448 64.8142 54.2037 64.7743 53.8552 64.6942C53.6855 64.6555 53.9259 64.5201 53.7548 64.4843C53.3548 64.4002 52.9256 64.3588 52.5087 64.3596C52.332 64.3603 52.5855 64.5578 52.3568 64.5448C50.7983 64.4601 49.2694 64.3962 47.7142 64.0815C47.6087 64.06 47.5312 63.6889 47.2987 63.7477C47.2763 63.8484 47.2713 63.968 47.2584 64.0762C44.9992 64.0235 42.776 63.8165 40.5393 63.8158C40.4458 63.8159 40.6089 64.0084 40.4285 64.0098C39.3746 64.0191 38.3728 64.1057 37.3079 63.9942C37.2019 63.9838 37.2327 63.6376 36.9244 63.7163C36.8702 63.7297 36.413 63.8204 36.3044 63.9083C36.29 63.9212 36.3894 64.0704 36.2455 64.0915C35.8057 64.155 35.3639 64.2143 34.9331 64.2737C34.4922 64.3364 34.0492 64.387 33.6162 64.4234C33.4723 64.4351 33.5897 64.2392 33.487 64.2461C32.7457 64.2988 31.9964 64.5832 31.2831 64.5825C30.8074 64.582 30.9125 64.258 30.6051 64.032C30.5613 64 30.2792 64.0604 30.2249 63.901C30.086 63.4998 30.1166 63.016 29.9535 62.5919C29.935 62.5465 29.8354 62.5725 29.7539 62.5775C29.7128 62.5801 29.6829 62.5755 29.6516 62.5586C29.6385 62.5365 29.6753 62.4875 29.7193 62.416C29.7387 62.3942 30.0086 62.2485 30.0619 62.1547C30.1 62.0893 29.9717 61.9437 30.0556 61.8518C30.1415 61.7595 30.2857 61.8734 30.4333 61.7555C30.58 61.637 30.4653 61.4627 30.7941 61.3675ZM121.51 62.5933C121.253 62.424 121.201 63.0211 121.486 62.8846C121.5 62.8772 121.523 62.6016 121.51 62.5933ZM153.135 62.632C152.782 62.3789 152.565 62.7734 152.81 62.9699C153.057 63.1662 153.242 62.7088 153.135 62.632ZM156.669 62.3254C156.264 62.1308 156.228 62.9807 156.65 62.7951C156.675 62.7845 156.692 62.3367 156.669 62.3254ZM31.7179 63.7027C31.7137 63.6953 31.5051 63.7318 31.5032 63.7403C31.4342 63.9492 31.8458 63.8773 31.7179 63.7027ZM160.172 62C160.044 61.8892 159.689 62.033 159.85 62.1706C159.979 62.2813 160.332 62.1377 160.172 62ZM107.906 61.917C107.902 61.9081 107.75 61.9025 107.754 61.9528C107.767 62.1149 107.977 62.0658 107.906 61.917ZM166.153 61.6508C165.261 61.7548 164.665 61.1109 165.607 61.0712C165.779 61.062 165.271 61.3425 165.496 61.3758C165.913 61.4352 166.108 60.9589 166.551 61.1239C166.632 61.1545 166.205 61.6469 166.151 61.652C166.152 61.6516 166.152 61.6512 166.153 61.6508ZM121.377 61.8715C121.372 61.8635 121.162 61.8512 121.157 61.8589C121.039 62.0462 121.461 62.071 121.377 61.8715ZM99.0624 61.7902C99.0503 61.7737 98.5622 61.7806 98.5479 61.797C98.3093 62.119 99.293 62.1061 99.0624 61.7902ZM135.492 61.7892C135.723 61.6014 135.996 61.5823 136.175 61.8243C135.949 61.809 135.72 61.8041 135.492 61.7892Z" fill="#686868"/>
</svg>
