<svg width="257" height="253" viewBox="0 0 257 253" fill="none" xmlns="http://www.w3.org/2000/svg">
<path d="M249.409 116.268L53.268 182.927L41.2295 162.634L85.4645 42.9315L240.173 96.6036L249.409 116.268Z" fill="white" stroke="black"/>
<path d="M94.8299 62.3525C94.5207 62.9105 94.2651 63.6591 94.0918 64.2755C94.0437 64.4534 94.1772 64.4081 94.1479 64.5342C94.0913 64.7788 93.9445 64.9994 93.8958 65.2483C93.8807 65.3298 94.0744 65.2996 94.0549 65.3838C93.9456 65.848 93.7292 66.2691 93.5831 66.7287C92.8504 69.0278 92.0484 71.2576 91.2499 73.5356C90.9852 74.2902 90.7811 75.245 90.4191 76.0033C90.3766 76.092 90.2599 75.9847 90.2419 75.9977C89.9663 76.197 90.2783 76.2146 90.2487 76.4024C90.1296 77.1498 89.8446 77.9345 89.5372 78.5822C89.405 78.8602 89.241 78.4682 89.2844 78.8161C89.2871 78.8401 89.4612 78.8228 89.4468 78.9076C89.4127 79.1027 89.2604 79.4248 89.22 79.5659C89.1431 79.8381 89.125 79.8814 89.0314 80.1331C88.9045 80.4782 88.8212 80.9178 88.6507 81.2683C88.6136 81.3436 88.5027 81.1833 88.4299 81.2983C88.3573 81.4133 88.2445 81.75 88.2374 81.8759C88.2304 82.0016 88.3664 81.9984 88.3859 82.0285C88.5522 82.2787 88.0904 82.5453 88.0648 82.5896C87.5945 83.4326 87.4813 84.2802 87.1648 85.1216C86.9209 85.769 86.6076 86.4241 86.386 87.0414C86.1218 87.7794 85.9771 88.4156 85.6974 89.1233C85.6682 89.1979 85.5241 89.0441 85.488 89.135C85.1084 90.0911 84.7679 91.0666 84.5309 92.0726C84.5071 92.1739 84.7087 92.1066 84.6943 92.2113C84.6015 92.8532 84.5632 93.8996 83.7565 94.0024C83.6345 94.414 83.482 94.9114 83.4864 95.3198C83.489 95.5834 83.7411 95.4212 83.5642 95.6787C83.5245 95.7369 83.4069 95.5989 83.3585 95.6903C83.1552 96.0749 83.04 96.5369 82.8166 96.9081C82.7707 96.9837 82.646 96.9126 82.6136 96.9269C82.3485 97.0496 82.5503 97.4903 82.5478 97.5693C82.5246 98.1695 82.3125 98.5365 82.1339 99.0375C82.0925 99.1538 81.9641 98.9514 81.9179 99.061C81.6804 99.6304 81.4766 100.236 81.349 100.832C81.3211 100.965 81.5156 100.904 81.51 100.97C81.4837 101.262 81.1747 101.216 81.144 101.493C81.1371 101.552 81.2785 101.569 81.2892 101.584C81.458 101.819 81.0912 101.836 81.0698 101.873C80.7921 102.337 81.0081 102.778 80.786 103.243C80.7591 103.299 80.6413 103.109 80.5758 103.268C80.489 103.479 80.405 103.694 80.3241 103.911L80.3346 103.884C79.9639 104.771 79.6479 105.688 79.4119 106.566C79.3659 106.736 79.5351 106.67 79.546 106.687C79.7136 106.948 79.3549 106.927 79.3216 106.975C79.0679 107.353 79.1748 107.848 78.6786 107.992C78.0706 109.859 77.1498 111.521 76.7642 113.437C76.759 113.461 76.9305 113.484 76.9196 113.531C76.79 114.101 76.5905 113.9 76.1531 114.131C76.0441 114.187 76.2891 114.606 76.3044 114.643C76.3639 114.773 76.633 114.773 76.6394 114.811C76.6843 115.12 75.9366 114.77 75.8003 115.106C75.7973 115.117 75.9558 115.13 75.9584 115.164C75.9668 115.269 75.8759 115.333 75.8898 115.437C75.9229 115.678 76.266 115.898 75.9303 116.105C75.8872 116.131 75.4766 115.899 75.3779 116.202C75.3387 116.323 75.1226 116.835 75.0929 116.989C75.063 117.144 75.2425 117.102 75.2444 117.115C75.2733 117.574 75.409 117.459 75.6047 117.762C75.7977 118.069 75.169 117.753 75.0635 117.805C74.9578 117.859 74.9913 118.214 75.0153 118.307C75.0392 118.401 75.1643 118.347 75.1684 118.423C75.1934 118.925 74.7708 118.478 74.6115 118.575C74.235 118.803 74.6148 119.251 74.5429 119.564C74.5234 119.649 74.4399 119.54 74.401 119.607C74.2484 119.871 74.331 120.1 74.0658 120.359C74.0223 120.402 73.6308 120.537 73.772 120.8C73.7928 120.836 73.9409 120.816 73.918 120.95C73.8838 121.151 73.7769 121.491 73.658 121.67C73.5701 121.802 73.4388 121.557 73.4271 121.763C73.4221 121.855 73.5981 121.752 73.579 121.92C73.5602 122.088 73.4013 122.467 73.3394 122.609C73.2773 122.751 73.1589 122.612 73.1441 122.619C73.0577 122.666 72.8746 122.911 72.8651 122.935C72.3449 124.172 72.1382 125.415 71.5659 126.596C71.5206 126.69 71.3881 126.562 71.3796 126.575C71.1804 126.879 71.7062 126.788 71.7547 127.075C71.4466 126.912 71.4501 127.072 71.3225 127.287C71.2608 127.391 71.1605 127.28 71.1437 127.285C70.8888 127.373 71.0875 127.584 71.1257 127.634C71.2662 127.815 71.0021 127.845 71.0957 127.967C71.1884 128.089 71.4364 127.994 71.3471 128.21C71.2077 128.224 70.9713 127.943 70.8567 128.087C70.4321 128.61 70.174 129.935 70.0046 130.429C69.8313 130.932 69.7438 131.088 69.6643 131.407C69.5229 131.977 69.3791 131.69 69.144 131.981C68.9093 132.27 69.5231 132.33 69.6221 132.424C69.7215 132.518 69.5797 132.52 69.6215 132.604C69.6634 132.687 69.7934 132.595 69.7638 132.74C69.7339 132.885 69.3779 133.165 69.2357 133.162C68.9332 133.16 68.7291 132.874 68.6778 133.282C68.675 133.305 68.8472 133.294 68.8291 133.381C68.6807 134.074 68.4267 134.729 68.2806 135.38C68.2586 135.475 68.4513 135.459 68.4403 135.515C68.3276 136.096 68.1338 135.794 67.716 135.966C68.143 136.06 68.3229 136.321 68.1669 136.719C68.0736 136.957 67.9151 136.846 67.7308 136.949C67.6754 136.98 67.7294 137.193 67.6353 137.19C67.3254 137.185 67.0927 136.893 67.0438 137.364C67.0421 137.385 67.2129 137.385 67.1963 137.452C67.0902 137.888 66.7892 137.825 66.5819 138.245C66.4207 138.572 66.3536 139.239 66.2219 139.651C66.6756 139.823 66.4254 140.15 66.0563 140.173C65.9679 140.432 65.8519 140.672 65.7913 140.95C65.7716 141.042 65.9247 141.037 65.9344 141.053C66.0893 141.308 65.7428 141.299 65.709 141.349C65.3555 141.902 65.4044 142.446 64.9483 142.941C64.9323 142.958 64.606 142.866 64.7748 143.107C64.7867 143.123 65.0029 142.995 64.909 143.263C64.816 143.529 64.7882 144.088 64.4925 144.409C64.4218 144.485 64.078 144.609 64.2062 144.865C64.2238 144.9 64.3238 144.91 64.3603 144.963C64.4758 145.137 64.1356 145.071 64.3538 145.305C64.5683 145.549 64.6563 145.914 64.3245 146.208C64.3144 146.218 64.0289 146.205 63.9875 146.321C63.9235 146.501 63.8678 146.793 63.7872 146.991C63.7487 147.085 63.617 146.962 63.6077 146.978C63.2741 147.562 63.2283 148.081 63.0282 148.758C62.994 148.876 62.632 149.167 62.7074 149.465C62.7866 149.8 63.6635 149.824 63.2365 150.363C63.0611 150.59 61.984 150.471 62.301 151.132C61.8414 151.914 61.7776 152.808 61.2513 153.576C61.2278 153.611 60.9121 153.611 60.8759 153.708C60.8251 153.846 60.9204 153.97 60.8897 154.066C60.7627 154.473 60.4971 154.796 60.3511 155.17C60.2927 155.317 60.4428 155.327 60.3732 155.501C60.3061 155.668 60.0813 155.714 60.0581 155.974C60.0449 156.12 60.1766 156.348 60.2222 156.549L60.2281 156.537C60.2467 156.61 60.254 156.681 60.2379 156.747C59.892 156.605 59.8285 156.766 59.6169 157.013C59.576 157.06 59.4811 156.951 59.4555 156.97C59.3489 157.051 59.4074 157.19 59.2983 157.263C59.2719 157.281 59.1534 157.234 59.1252 157.246C58.8802 157.346 59.0325 157.737 59.0596 157.804C59.1619 158.06 58.9729 158.086 58.9863 158.256C58.9994 158.426 59.1706 158.247 59.1471 158.43C59.0987 158.808 58.9052 159.245 58.772 159.595C58.7176 159.737 58.5974 159.578 58.5859 159.596C58.431 159.869 58.4822 160.227 58.1031 160.259C58.835 160.79 57.9541 160.401 57.9489 160.877C57.9492 160.914 58.3154 161.115 58.4235 161.012C58.5312 160.91 58.4878 160.673 58.646 160.535C58.6833 160.503 59.139 160.413 59.1736 160.39C59.4461 160.206 58.8835 159.941 58.8575 159.915C58.576 159.629 59.0796 159.495 59.1362 159.431C59.3966 159.133 59.4306 158.808 59.6327 158.554C59.7639 158.388 60.1489 158.52 60.1958 158.369C60.3514 157.87 59.8972 157.482 60.5412 157.224C60.679 157.169 61.0443 157.44 60.8731 156.962C60.8688 156.95 60.8374 156.882 60.8177 156.8L60.8017 156.834C60.7779 156.707 60.7811 156.547 60.9364 156.503C60.9689 156.494 61.0857 156.55 61.1079 156.528C61.2488 156.395 61.2132 156.226 61.3413 156.064C61.4687 155.903 61.6399 155.7 61.6906 155.474C61.7238 155.333 61.5744 155.071 61.5448 154.99C61.4597 154.758 61.8025 154.664 61.6539 154.487C61.5074 154.302 61.1312 154.385 61.1243 154.057C61.4386 154.177 61.7668 154.287 62.0857 154.401C62.3355 153.776 62.4848 153.125 62.75 152.512C62.7829 152.437 62.9187 152.583 62.9585 152.503C63.1296 152.158 63.1281 151.818 63.3231 151.471C63.4809 151.187 63.7693 150.982 63.9353 150.697C63.6551 150.362 63.9413 149.999 64.037 149.664C64.0704 149.548 63.972 149.517 63.9731 149.424C63.9808 149.07 64.2373 149.345 64.3195 149.283C64.6666 149.029 63.9629 148.716 64.1469 148.306C64.1565 148.284 64.6469 148.161 64.6827 148.14C64.9274 147.976 64.5648 148.05 64.5932 147.897C64.6456 147.615 64.628 147.395 64.8674 147.118C64.9404 147.031 65.259 146.922 65.1449 146.673C65.1299 146.641 64.9989 146.603 64.9989 146.582C65.009 146.198 65.4092 146.345 65.6212 146.202C65.8348 146.056 65.6802 145.648 65.6238 145.561C65.4817 145.325 65.4896 145.645 65.4664 145.645C65.1896 145.648 65.314 145.454 65.359 145.282C64.9801 145.105 65.095 144.883 65.4074 145.104C65.4414 145.129 65.3543 145.243 65.359 145.282C65.7969 145.29 65.9465 145.056 65.7052 144.626C65.5914 144.427 65.3491 144.47 65.5799 144.096C65.6823 143.932 65.9224 144.107 66.0578 143.979C66.3661 143.688 66.3136 143.094 66.5032 142.731C66.5706 142.604 66.6651 142.792 66.7163 142.706C66.8526 142.479 66.8294 142.218 66.9859 141.989C67.0002 141.968 67.1311 142.085 67.1643 142.007C67.4255 141.403 67.5202 140.88 67.7663 140.254C67.886 139.95 68.1845 139.446 68.2864 139.142C68.4642 138.613 68.5234 137.818 68.7483 137.412C68.8995 137.133 69.0272 137.258 69.1819 137.174C69.4811 137.011 69.2947 136.427 69.2627 136.344C69.2615 136.342 69.1218 136.587 69.0985 136.417C68.9669 136.271 69.2608 136.347 69.2627 136.344C69.2407 136.294 69.42 135.745 69.4845 135.668C69.522 135.621 69.655 135.709 69.6718 135.683C70.0665 135.072 70.3859 134.381 70.5964 133.659C70.5982 133.646 70.4289 133.599 70.4352 133.569C70.52 133.148 70.8206 132.973 71.0713 132.688C71.3221 132.403 71.39 132.12 71.1921 131.808C71.3338 131.556 71.3452 131.171 71.3534 130.935C71.3603 130.702 71.6875 130.799 71.7009 130.784C72.1262 130.302 72.0781 129.899 72.2923 129.285C72.3891 129.004 72.6518 128.483 72.808 128.194C72.9315 127.967 72.9157 127.793 73.0523 127.59C73.0707 127.562 73.199 127.649 73.2081 127.642C73.4761 127.461 73.0847 127.442 73.044 127.366C72.8961 127.09 72.8237 126.927 73.0588 126.646C73.1121 126.583 73.6887 126.578 73.7699 126.459C73.8745 126.305 73.6716 126.298 73.7859 126.138C73.7955 126.124 73.9036 126.171 73.9429 126.06C74.1272 125.542 74.2913 124.951 74.5234 124.407C74.5547 124.332 74.6894 124.498 74.7375 124.392C74.9592 123.901 75.1636 123.376 75.2786 122.857C75.3061 122.73 75.1546 122.756 75.129 122.715C74.9749 122.469 75.3831 122.37 75.4043 122.335C75.9235 121.488 75.8994 120.722 76.4007 119.875C76.4284 119.83 76.9213 119.588 76.6992 119.299C76.6845 119.28 76.4548 118.991 76.7192 118.923C76.7358 118.919 76.8464 119.087 76.9054 118.896C76.9639 118.706 77.1903 118.442 77.1178 118.136C77.096 118.038 76.8726 117.735 77.2035 117.599C77.2261 117.59 77.9072 117.448 77.59 117.169C77.5377 117.123 77.1375 116.987 77.4517 116.788C77.5123 116.75 77.56 116.883 77.6718 116.764C77.8436 116.581 77.8559 116.25 78.1396 116.05C78.1895 116.015 78.5363 115.922 78.4006 115.679C78.3793 115.64 78.2292 115.636 78.2493 115.544C78.3475 115.101 78.5923 114.748 78.6661 114.307C78.6918 114.152 78.4514 114.139 78.4549 113.968C78.4584 113.797 78.5257 113.475 78.6857 113.358C78.8458 113.24 79.1125 113.548 79.2349 113.324C79.7729 112.334 79.9774 111.265 80.3603 110.241C80.4172 110.088 80.4867 110.262 80.5794 110.041C80.9254 109.215 81.6136 107.848 81.6425 107.045C81.6686 106.395 81.2222 107.045 81.3154 106.578C81.361 106.352 81.8446 106.283 81.8776 106.237C82.2053 105.791 82.1744 105.371 82.413 104.938C82.4623 104.848 82.5831 105.005 82.6234 104.928C82.6395 104.898 82.6543 104.867 82.6682 104.835L82.6933 104.77C82.7873 104.531 82.8229 104.262 82.9177 104.037C82.9661 103.923 83.0811 103.989 83.1105 103.879C83.1822 103.615 83.2129 103.37 83.1887 103.079C83.1865 103.052 82.9779 103.15 83.0412 102.958C83.144 102.649 83.1688 102.228 83.4145 101.918C83.4879 101.826 83.7698 101.924 83.6581 101.629C83.6349 101.567 83.2762 101.504 83.6627 101.349C83.7271 101.322 84.2801 101.026 84.106 100.717C84.0603 100.636 83.8379 100.39 83.9272 100.28C83.9403 100.266 84.0659 100.389 84.1187 100.29C84.3021 99.9413 84.4268 99.5509 84.6121 99.1913C84.6619 99.0952 84.7627 99.3024 84.832 99.1575C85.0227 98.7589 85.1721 98.2293 85.2715 97.8085C85.3078 97.6532 85.141 97.7085 85.131 97.6925C84.9665 97.4347 85.3124 97.4454 85.3517 97.3942C85.5916 97.074 85.5476 96.747 85.7078 96.4302C85.7516 96.3426 85.8747 96.4615 85.8945 96.4481C86.0919 96.3068 85.7763 96.35 85.7912 96.22C85.832 95.8555 85.9808 95.4883 86.1249 95.1559C86.1779 95.0341 86.2966 95.2368 86.3422 95.1268C86.6156 94.4767 86.8514 93.7892 86.9971 93.1082C87.024 92.9802 86.8646 93.0079 86.8441 92.9716C86.6991 92.7197 87.0794 92.5709 87.1283 92.5224C87.3514 92.3021 87.2735 92.1565 87.3826 91.9292C87.919 90.8145 88.3714 89.3658 88.7285 88.266C89.198 86.8244 89.4832 85.6857 90.0241 84.3472C90.0583 84.262 90.1998 84.4142 90.2315 84.3416C90.6306 83.4092 90.92 82.4375 91.3297 81.5079C91.3635 81.4303 91.4852 81.6067 91.5449 81.4843C91.6685 81.2339 91.7836 80.9036 91.8293 80.6247C91.8519 80.4888 91.6461 80.6044 91.6718 80.4688C91.73 80.1559 91.8415 79.8271 91.9849 79.53C92.0462 79.4038 92.1397 79.665 92.2063 79.496C92.6571 78.3624 93.1224 77.2327 93.3517 75.9855C93.3671 75.9008 93.0517 75.6999 93.1814 75.5585C93.2812 75.5825 93.3926 75.6261 93.4961 75.6597C94.1967 74.003 94.7207 72.3003 95.3593 70.6225C95.3857 70.5531 95.5196 70.7434 95.5715 70.6098C95.8835 69.809 96.2373 69.0619 96.3755 68.1974C96.3908 68.1084 96.0574 68.0219 96.2011 67.8024C96.2272 67.7626 96.411 67.4279 96.5149 67.3688C96.5301 67.361 96.6529 67.4829 96.7016 67.3747C96.9991 66.7029 97.2397 66.0176 97.4263 65.319C97.4559 65.2068 97.2521 65.2539 97.2717 65.1736C97.4037 64.6258 97.78 64.0729 97.857 63.5357C97.9093 63.1768 97.5839 63.18 97.4128 62.8707C97.3908 62.8216 97.4704 62.6527 97.3362 62.5502C96.9849 62.3113 96.5112 62.2137 96.1425 61.9482C96.0589 61.8862 96.3836 61.5619 96.0422 61.6656C96.0153 61.6731 95.7902 61.9253 95.7036 61.9249C95.6347 61.9394 95.5182 61.7904 95.414 61.8412C95.3111 61.8899 95.3841 62.0682 95.2583 62.1417C95.124 62.2319 94.9762 62.0858 94.8299 62.3525ZM71.3911 129.875C71.317 129.622 71.8835 129.816 71.6669 129.971C71.6558 129.979 71.3945 129.888 71.3911 129.875ZM62.0639 152.96C61.9219 152.61 62.3552 152.575 62.4689 152.836C62.583 153.095 62.107 153.065 62.0639 152.96ZM60.7956 155.463C60.7327 155.091 61.5286 155.389 61.2354 155.627C61.2181 155.642 60.7988 155.485 60.7956 155.463ZM96.9621 63.6522C96.9564 63.6454 97.015 63.4942 97.0233 63.4951C97.2315 63.4944 97.1153 63.794 96.9621 63.6522ZM59.4917 157.9C59.4214 157.766 59.6504 157.555 59.7368 157.721C59.8064 157.854 59.5788 158.066 59.4917 157.9ZM74.8104 119.682C74.8033 119.676 74.8403 119.563 74.8862 119.584C75.0336 119.652 74.9293 119.788 74.8104 119.682ZM57.7164 162.262C57.9589 161.606 57.4722 160.95 57.2542 161.676C57.2146 161.807 57.5736 161.492 57.5651 161.676C57.5467 162.017 57.0609 162.036 57.149 162.43C57.1661 162.501 57.7034 162.301 57.7178 162.261C57.7173 162.261 57.7169 162.261 57.7164 162.262ZM70.7689 129.497C70.7631 129.49 70.8185 129.332 70.8273 129.331C71.0374 129.317 70.9258 129.636 70.7689 129.497ZM77.0808 113.092C77.0685 113.077 77.1981 112.716 77.2173 112.71C77.5802 112.642 77.3192 113.372 77.0808 113.092ZM66.2315 139.662C65.9866 139.76 65.8861 139.952 66.0564 140.172C66.1101 140.003 66.1751 139.835 66.2315 139.662Z" fill="#686868"/>
<path d="M62.6362 162.234C63.5516 161.94 64.7387 161.44 65.6186 161.034C65.8886 160.909 65.7103 160.862 65.9004 160.769C66.2896 160.582 66.645 160.507 67.0184 160.318C67.1357 160.257 66.9244 160.156 67.0493 160.096C67.7606 159.756 68.4598 159.547 69.1796 159.247C72.7591 157.759 76.3138 156.415 79.9824 155.02C80.0533 154.993 80.1252 154.966 80.1981 154.937C81.3346 154.492 82.684 153.872 83.8984 153.508C84.0455 153.464 84.0086 153.634 84.0402 153.635C84.5349 153.657 84.2918 153.428 84.5636 153.29C85.6655 152.734 86.909 152.281 88.0219 151.95C88.4924 151.811 88.1251 152.25 88.5378 151.931C88.5666 151.909 88.3967 151.803 88.5188 151.742C88.7946 151.606 89.3616 151.436 89.5832 151.345C90.0011 151.173 90.0727 151.149 90.4799 151.005C91.0352 150.806 91.6909 150.494 92.2911 150.322C92.4211 150.285 92.3053 150.496 92.5176 150.451C92.7298 150.405 93.2678 150.203 93.4399 150.103C93.6116 150.003 93.4917 149.911 93.5148 149.873C93.709 149.547 94.4335 149.652 94.5182 149.631C96.0373 149.253 97.2236 148.637 98.6139 148.156C99.6478 147.798 100.81 147.463 101.792 147.115C102.979 146.693 103.952 146.266 105.114 145.882C105.237 145.841 105.155 146.069 105.305 146.019C106.891 145.497 108.457 144.937 109.988 144.278C110.142 144.211 109.885 144.125 110.035 144.049C110.965 143.587 112.376 142.758 113.189 143.243C113.835 142.992 114.616 142.695 115.157 142.357C115.505 142.14 115.079 142.094 115.569 142.009C115.679 141.989 115.594 142.185 115.756 142.145C116.435 141.974 117.137 141.681 117.819 141.536C117.957 141.506 117.967 141.653 118.012 141.664C118.396 141.752 118.814 141.249 118.92 141.187C119.734 140.715 120.397 140.567 121.212 140.286C121.401 140.221 121.239 140.477 121.422 140.421C122.374 140.127 123.348 139.78 124.246 139.388C124.445 139.3 124.204 139.211 124.297 139.161C124.706 138.943 124.9 139.201 125.294 138.998C125.378 138.955 125.284 138.841 125.295 138.821C125.469 138.51 125.795 138.757 125.861 138.743C126.708 138.565 127.116 138.054 127.919 137.837C128.015 137.811 127.859 138.049 128.125 137.967C129.903 137.42 131.751 136.749 133.454 136.031C133.718 135.92 133.483 135.859 133.495 135.838C133.693 135.504 133.98 135.767 134.073 135.75C134.798 135.604 135.364 135.114 135.966 135.341C138.88 134.22 141.894 133.46 144.716 132.147C144.752 132.131 144.633 131.994 144.705 131.962C145.576 131.576 145.485 131.88 146.179 131.987C146.353 132.014 146.687 131.499 146.718 131.459C146.832 131.312 146.603 131.125 146.645 131.09C147.002 130.807 147.187 131.614 147.74 131.432C147.757 131.425 147.637 131.305 147.679 131.275C147.808 131.183 147.969 131.194 148.093 131.098C148.377 130.878 148.367 130.46 148.928 130.521C148.999 130.53 149.05 131.005 149.531 130.824C149.718 130.753 150.592 130.476 150.825 130.368C151.058 130.26 150.844 130.172 150.86 130.16C151.45 129.757 151.177 129.76 151.411 129.373C151.646 128.987 151.772 129.683 151.929 129.715C152.085 129.746 152.512 129.434 152.614 129.341C152.714 129.248 152.537 129.205 152.632 129.14C153.263 128.713 153.045 129.372 153.309 129.403C153.929 129.478 154.185 128.849 154.657 128.642C154.788 128.586 154.714 128.734 154.838 128.706C155.325 128.592 155.559 128.346 156.139 128.315C156.234 128.31 156.76 128.468 156.966 128.161C156.994 128.119 156.855 128.036 157.014 127.948C157.02 127.945 157.027 127.941 157.034 127.938C157.324 127.798 157.859 127.597 158.194 127.535C158.441 127.489 158.234 127.78 158.512 127.621C158.636 127.55 158.352 127.51 158.587 127.387C158.82 127.265 159.45 127.069 159.7 126.994C159.945 126.92 159.861 127.117 159.884 127.121C160.022 127.142 160.51 127.069 160.551 127.056C162.615 126.418 164.448 125.553 166.486 125.011C166.647 124.968 166.592 125.164 166.617 125.159C167.18 125.058 166.618 124.758 166.95 124.495C166.999 124.843 167.204 124.713 167.592 124.632C167.78 124.593 167.72 124.752 167.741 124.76C168.069 124.872 168.189 124.559 168.221 124.492C168.344 124.246 168.611 124.409 168.695 124.244C168.779 124.08 168.438 123.982 168.805 123.871C168.944 123.958 168.769 124.351 169.062 124.316C170.156 124.184 172.047 123.337 172.887 123.054C173.713 122.774 174 122.711 174.478 122.519C175.341 122.173 175.081 122.503 175.664 122.442C176.254 122.379 175.812 121.895 175.855 121.749C175.897 121.603 176.02 121.703 176.097 121.607C176.174 121.511 175.94 121.491 176.16 121.397C176.381 121.303 177.063 121.335 177.18 121.439C177.434 121.657 177.236 122.025 177.814 121.743C177.847 121.727 177.689 121.612 177.818 121.557C178.834 121.128 179.931 120.795 180.953 120.383C181.095 120.326 180.915 120.199 180.997 120.163C181.847 119.798 181.614 120.171 182.182 120.342C181.952 119.96 182.145 119.628 182.816 119.429C183.216 119.311 183.2 119.512 183.494 119.565C183.582 119.581 183.827 119.375 183.906 119.444C184.158 119.673 183.981 120.061 184.635 119.737C184.663 119.723 184.523 119.598 184.625 119.559C185.278 119.304 185.442 119.572 186.185 119.397C186.757 119.262 187.736 118.79 188.369 118.578C188.223 118.116 188.874 118.046 189.213 118.298C189.625 118.167 190.096 118.053 190.49 117.894C190.626 117.84 190.496 117.73 190.509 117.711C190.717 117.405 190.983 117.669 191.08 117.654C192.111 117.494 192.848 117.032 193.856 117.003C193.892 117.002 194.038 117.311 194.225 117.004C194.237 116.983 193.884 116.922 194.325 116.787C194.76 116.655 195.561 116.246 196.216 116.229C196.377 116.223 196.829 116.383 197.073 116.095C197.105 116.056 197.036 115.975 197.079 115.907C197.22 115.691 197.418 115.99 197.564 115.65C197.712 115.309 198.109 114.976 198.791 114.997C198.813 114.998 199.031 115.218 199.224 115.161C199.533 115.07 199.971 114.893 200.293 114.807C200.448 114.766 200.393 114.954 200.42 114.95C201.505 114.753 202.205 114.409 203.321 114.039C203.521 113.972 204.182 114.029 204.531 113.747C204.898 113.453 204.327 112.838 205.148 112.699C205.197 112.691 205.252 112.684 205.312 112.679C205.741 112.643 206.535 113.508 207.118 112.786C208.576 112.522 209.81 111.89 211.281 111.672C211.347 111.662 211.63 111.885 211.778 111.838C211.997 111.769 212.084 111.603 212.241 111.548C212.891 111.32 213.541 111.254 214.173 111.051C214.416 110.973 214.292 110.863 214.579 110.771C214.863 110.68 215.116 110.799 215.48 110.598C215.761 110.444 215.945 109.995 216.328 109.834C216.45 110.188 216.718 110.101 217.226 110.051C217.323 110.042 217.262 110.196 217.31 110.198C217.506 110.209 217.642 110.055 217.831 110.075C217.877 110.079 217.916 110.201 217.956 110.211C218.296 110.305 218.681 109.887 218.748 109.814C219.004 109.538 219.193 109.653 219.41 109.508C219.625 109.364 219.244 109.383 219.506 109.255C220.051 108.989 220.791 108.779 221.369 108.591C221.6 108.516 221.493 108.728 221.528 108.722C222.02 108.611 222.448 108.285 222.817 108.523C222.88 107.581 223.131 108.512 223.761 108.124C223.81 108.093 223.751 107.676 223.526 107.685C223.301 107.693 223.027 107.918 222.712 107.919C222.637 107.92 222.131 107.673 222.071 107.668C221.599 107.625 221.729 108.234 221.717 108.273C221.578 108.703 220.977 108.453 220.843 108.465C220.232 108.518 219.768 108.753 219.262 108.81C218.929 108.849 218.781 108.469 218.538 108.556C217.733 108.845 217.607 109.475 216.695 109.236C216.499 109.185 216.534 108.712 216.043 109.223C216.011 109.255 215.662 109.692 215.349 109.574C215.309 109.559 215.274 109.434 215.228 109.436C214.924 109.453 214.768 109.606 214.442 109.65C214.124 109.692 213.727 109.731 213.39 109.874C213.184 109.961 212.978 110.272 212.893 110.357C212.653 110.604 212.266 110.425 212.146 110.673C212.022 110.924 212.462 111.125 212.025 111.389C211.915 111.071 211.78 110.751 211.658 110.433C210.628 110.74 209.64 111.131 208.598 111.406C208.468 111.44 208.551 111.229 208.412 111.261C207.825 111.395 207.351 111.66 206.73 111.778C206.255 111.867 205.688 111.824 205.186 111.911C205.145 112.005 205.08 112.082 204.997 112.148C204.69 112.397 204.114 112.475 203.709 112.614C203.527 112.676 203.566 112.772 203.443 112.84C202.973 113.096 203.121 112.704 202.971 112.689C202.332 112.626 202.472 113.385 201.785 113.552C201.75 113.561 201.192 113.287 201.123 113.279C200.693 113.223 201.097 113.434 200.862 113.529C200.432 113.703 200.143 113.883 199.591 113.909C199.43 113.916 198.989 113.771 198.75 114.041C198.718 114.076 198.775 114.201 198.746 114.217C198.214 114.499 198.078 114.095 197.72 114.043C197.361 113.991 196.933 114.413 196.851 114.523C196.641 114.808 197.082 114.557 197.103 114.574C197.344 114.773 196.955 114.834 196.689 114.929C196.759 115.343 196.363 115.426 196.406 115.028C196.411 114.985 196.638 114.963 196.689 114.929C196.339 114.6 195.888 114.669 195.518 115.168C195.344 115.402 195.612 115.546 194.914 115.658C194.598 115.71 194.635 115.401 194.348 115.399C193.689 115.396 192.955 115.878 192.306 116.014C192.069 116.065 192.254 115.85 192.09 115.879C191.658 115.955 191.329 116.17 190.887 116.231C190.847 116.236 190.896 116.051 190.763 116.086C189.77 116.345 188.939 116.689 187.897 116.989C187.409 117.129 186.471 117.302 185.971 117.465C185.081 117.753 184.051 118.3 183.264 118.469C182.76 118.577 182.821 118.387 182.577 118.341C182.102 118.253 181.478 118.842 181.4 118.928C181.398 118.931 181.834 118.844 181.631 118.991C181.549 119.199 181.405 118.928 181.4 118.928C181.349 118.984 180.501 119.272 180.318 119.294C180.219 119.305 180.227 119.14 180.177 119.148C179.003 119.349 177.843 119.652 176.694 120.073C176.674 120.082 176.755 120.24 176.709 120.26C176.068 120.533 175.575 120.458 174.976 120.506C174.393 120.55 173.967 120.724 173.724 121.111C173.287 121.204 172.737 121.51 172.415 121.692C172.095 121.874 171.946 121.564 171.914 121.567C170.888 121.656 170.428 122 169.44 122.337C168.982 122.494 168.049 122.731 167.526 122.855C167.114 122.952 166.907 123.099 166.525 123.165C166.473 123.174 166.478 123.014 166.461 123.013C165.998 122.968 166.305 123.26 166.24 123.35C166.005 123.675 165.849 123.858 165.29 123.914C165.163 123.927 164.655 123.528 164.425 123.567C164.128 123.619 164.293 123.768 163.979 123.818C163.952 123.822 163.922 123.708 163.737 123.772C162.866 124.07 161.981 124.422 161.067 124.7C160.944 124.738 161.044 124.51 160.866 124.561C160.048 124.798 159.127 125.099 158.355 125.438C158.165 125.522 158.328 125.607 158.298 125.658C158.108 125.966 157.63 125.76 157.566 125.774C157.157 125.859 156.78 125.97 156.417 126.093C155.46 126.42 154.583 126.846 153.464 127.096C153.381 127.114 152.641 126.969 152.456 127.359C152.444 127.385 152.265 127.782 151.949 127.653C151.93 127.645 152.053 127.431 151.754 127.546C151.456 127.66 150.944 127.711 150.585 128.019C150.472 128.116 150.262 128.522 149.789 128.408C149.759 128.399 148.969 128.049 148.882 128.497C148.868 128.571 149.036 128.96 148.504 128.906C148.402 128.896 148.534 128.753 148.281 128.774C147.894 128.806 147.452 129.07 146.948 129.037C146.859 129.031 146.441 128.867 146.248 129.16C146.217 129.205 146.339 129.314 146.206 129.374C145.571 129.662 144.848 129.801 144.203 130.116C143.977 130.227 144.169 130.403 143.942 130.543C143.714 130.682 143.234 130.902 142.942 130.889C142.65 130.876 142.82 130.437 142.422 130.538C140.69 130.978 139.084 131.735 137.411 132.324C137.163 132.412 137.329 132.22 136.959 132.34C135.598 132.783 133.215 133.451 132.126 134.106C131.252 134.632 132.493 134.394 131.8 134.721C131.466 134.878 130.955 134.604 130.867 134.62C130.005 134.767 129.494 135.135 128.737 135.329C128.58 135.369 128.676 135.157 128.543 135.193C128.09 135.314 127.649 135.542 127.221 135.672C127.029 135.729 127.023 135.594 126.851 135.662C126.44 135.824 126.088 136.001 125.719 136.255C125.686 136.278 125.988 136.347 125.681 136.457C125.183 136.635 124.6 136.959 123.984 137.035C123.801 137.057 123.699 136.777 123.398 137.096C123.335 137.163 123.548 137.469 123.021 137.321C122.932 137.296 122.079 137.144 121.813 137.518C121.742 137.617 121.599 137.975 121.379 138.001C121.349 138.003 121.409 137.814 121.234 137.856C120.618 138.01 119.994 138.239 119.361 138.401C119.192 138.444 119.384 138.204 119.134 138.272C118.445 138.462 117.62 138.787 116.974 139.061C116.737 139.162 116.95 139.235 116.937 139.255C116.73 139.582 116.457 139.329 116.356 139.343C115.731 139.434 115.339 139.731 114.781 139.878C114.628 139.918 114.684 139.734 114.649 139.731C114.296 139.707 114.617 139.895 114.432 139.991C113.912 140.261 113.299 140.456 112.742 140.625C112.538 140.687 112.706 140.438 112.523 140.495C111.427 140.837 110.324 141.232 109.297 141.69C109.105 141.776 109.275 141.865 109.244 141.91C109.031 142.219 108.515 142.073 108.41 142.079C107.932 142.103 107.803 142.278 107.413 142.387C105.482 142.928 103.199 143.801 101.433 144.464C99.1529 145.32 97.3796 146.075 95.1779 146.804C95.0356 146.851 95.1173 146.626 94.9939 146.665C93.4117 147.167 91.9044 147.77 90.3266 148.265C90.196 148.306 90.324 148.075 90.1125 148.136C89.6783 148.259 89.1488 148.455 88.7475 148.655C88.5516 148.753 88.8763 148.799 88.6783 148.894C88.201 149.122 87.6793 149.318 87.1737 149.466C86.9585 149.529 87.217 149.247 86.9422 149.341C85.0329 149.994 83.2069 150.606 81.358 151.511C81.2329 151.573 81.2509 151.956 80.9454 151.99C80.8899 151.902 80.8509 151.789 80.805 151.689C80.2638 151.87 79.7393 152.053 79.231 152.235C77.0225 153.027 74.8506 153.898 72.6289 154.716C72.5126 154.759 72.6479 154.503 72.4229 154.585C71.1308 155.054 69.8587 155.456 68.5932 156.121C68.4692 156.186 68.6626 156.48 68.2448 156.576C68.1657 156.595 67.584 156.758 67.4011 156.746C67.3763 156.743 67.431 156.553 67.2362 156.619C66.1386 156.994 64.9973 157.45 63.9417 157.944C63.7745 158.023 64.0169 158.115 63.8991 158.172C63.0507 158.582 62.0289 158.825 61.2315 159.297C60.6919 159.617 61.0118 159.808 60.8178 160.195C60.784 160.252 60.4331 160.402 60.4816 160.565C60.6044 160.972 60.943 161.332 61.0525 161.775C61.0693 161.82 60.9471 161.87 60.9142 161.903C60.8898 161.924 60.9484 161.908 60.9985 161.903C61.0416 161.907 60.9154 162.024 60.9877 162.051C60.9775 162.07 61.3107 162.013 61.4237 162.055C61.4982 162.084 61.4632 162.282 61.6023 162.302C61.7411 162.323 61.808 162.142 62.0373 162.142C62.2494 162.149 62.2514 162.357 62.6362 162.234ZM170.969 122.511C170.7 122.764 170.477 122.207 170.862 122.239C170.881 122.241 170.983 122.498 170.969 122.511ZM209.77 111.562C209.416 111.936 209.034 111.64 209.271 111.362C209.51 111.083 209.877 111.449 209.77 111.562ZM214.159 110.508C213.728 110.85 213.417 110.057 213.986 110.07C214.019 110.071 214.185 110.488 214.159 110.508ZM62.2452 159.733C62.2504 159.739 61.9883 159.847 61.9826 159.841C61.7786 159.715 62.2861 159.506 62.2452 159.733ZM218.509 109.431C218.392 109.587 217.915 109.593 218.063 109.399C218.182 109.243 218.656 109.237 218.509 109.431ZM154.581 128.36C154.577 128.371 154.399 128.437 154.387 128.388C154.348 128.23 154.617 128.191 154.581 128.36ZM225.765 107.134C224.707 107.516 224.275 108.393 225.416 107.937C225.623 107.854 224.892 107.873 225.141 107.725C225.596 107.455 226.059 107.766 226.487 107.376C226.564 107.305 225.825 107.111 225.763 107.134C225.764 107.134 225.765 107.134 225.765 107.134ZM170.997 123.254C170.993 123.263 170.741 123.349 170.732 123.343C170.538 123.204 171.048 123.032 170.997 123.254ZM143.989 132.215C143.98 132.235 143.396 132.445 143.372 132.436C142.968 132.243 144.148 131.819 143.989 132.215ZM188.375 118.563C188.712 118.666 189.054 118.592 189.211 118.298C188.938 118.389 188.656 118.471 188.375 118.563Z" fill="#686868"/>
<path d="M224.881 104.187C224.222 103.752 223.297 103.311 222.578 103.014C222.353 102.92 222.413 103.072 222.254 103.012C222.039 102.93 221.856 102.814 221.656 102.713C221.566 102.668 221.472 102.626 221.371 102.591C221.26 102.554 221.313 102.769 221.199 102.726C220.58 102.499 220.044 102.214 219.434 102C216.435 100.969 213.523 100.215 210.514 99.4839C209.522 99.2451 208.285 99.0855 207.282 98.7666C207.165 98.7292 207.271 98.6039 207.252 98.5865C206.943 98.3178 206.988 98.6359 206.747 98.6167C205.789 98.5401 204.764 98.3049 203.892 98.0367C203.52 97.9221 203.967 97.7283 203.548 97.7968C203.519 97.8013 203.578 97.9764 203.471 97.9679C203.23 97.9485 202.79 97.8146 202.606 97.7836C202.251 97.7244 202.193 97.7088 201.862 97.6319C201.654 97.5842 201.423 97.5474 201.188 97.5069C200.909 97.4584 200.631 97.4078 200.369 97.3279C200.267 97.2962 200.441 97.1715 200.281 97.1068C200.119 97.0416 199.678 96.9553 199.521 96.9587C199.366 96.9622 199.401 97.0994 199.368 97.1217C199.098 97.3109 198.668 96.8667 198.605 96.8436C197.455 96.4354 196.414 96.3783 195.32 96.0796C194.491 95.8534 193.627 95.5349 192.837 95.3037C191.905 95.0316 191.077 94.8603 190.181 94.5538C190.087 94.5217 190.256 94.3784 190.141 94.3387C190.036 94.3025 189.929 94.2661 189.821 94.2295C188.701 93.849 187.555 93.4933 186.395 93.2229C186.268 93.1934 186.373 93.4041 186.243 93.3839C185.442 93.2563 184.135 93.154 183.923 92.318C183.401 92.1681 182.771 91.9811 182.265 91.9595C181.938 91.9451 182.166 92.2152 181.829 92.0168C181.753 91.9722 181.911 91.8599 181.793 91.8043C181.295 91.5699 180.714 91.4219 180.231 91.1667C180.133 91.1143 180.208 90.9906 180.187 90.9562C180.007 90.6748 179.484 90.853 179.386 90.8449C178.641 90.7801 178.166 90.5359 177.529 90.3163C177.381 90.2654 177.618 90.1475 177.478 90.0919C176.75 89.8066 175.981 89.5521 175.233 89.3766C175.066 89.3378 175.16 89.5429 175.077 89.5321C174.713 89.4826 174.741 89.1679 174.396 89.1154C174.322 89.1038 174.315 89.2483 174.297 89.2582C174.021 89.4138 173.965 89.0344 173.918 89.0096C173.318 88.688 172.792 88.8759 172.199 88.611C172.128 88.5789 172.352 88.4728 172.148 88.3922C170.788 87.8553 169.327 87.3822 167.918 87.0231C167.702 86.9677 167.806 87.1457 167.788 87.1563C167.491 87.319 167.459 86.9457 167.396 86.9092C167.298 86.8554 167.199 86.8154 167.101 86.7825C166.665 86.6353 166.239 86.6137 166.052 86.1963C163.706 85.4985 161.519 84.4214 159.104 83.9402C159.074 83.9338 159.07 84.1102 159.009 84.0967C158.277 83.9359 158.502 83.74 158.143 83.2761C158.055 83.1639 157.612 83.3798 157.535 83.4106C157.532 83.412 157.53 83.4131 157.528 83.4137C157.382 83.4728 157.416 83.7487 157.372 83.7547C157.005 83.7943 157.327 83.0334 156.897 82.8844C156.883 82.8811 156.889 83.0437 156.849 83.0457C156.724 83.0526 156.631 82.9567 156.504 82.9683C156.217 82.9974 155.997 83.3455 155.689 82.9936C155.649 82.9479 155.878 82.532 155.486 82.4216C155.331 82.3784 154.657 82.1413 154.457 82.1061C154.259 82.0712 154.341 82.2576 154.325 82.2593C153.748 82.275 153.92 82.4201 153.569 82.6135C153.218 82.8057 153.514 82.1655 153.435 82.0564C153.356 81.9478 152.928 81.978 152.819 82.0021C152.709 82.0257 152.793 82.1547 152.701 82.1582C152.091 82.178 152.573 81.7489 152.43 81.5839C152.089 81.1932 151.599 81.5788 151.198 81.5004C151.089 81.479 151.211 81.3947 151.121 81.3534C150.767 81.1927 150.494 81.274 150.121 80.9959C150.058 80.9499 149.819 80.5434 149.526 80.6897C149.485 80.7111 149.533 80.8629 149.368 80.8398C149.12 80.8054 148.689 80.6959 148.449 80.5734C148.271 80.4828 148.55 80.3481 148.296 80.3362C148.183 80.331 148.338 80.5118 148.128 80.4922C147.919 80.4725 147.423 80.3086 147.233 80.2439C147.046 80.1797 147.198 80.0582 147.186 80.043C147.113 79.9541 146.772 79.7643 146.739 79.7543C145.122 79.223 143.542 79.0212 141.981 78.4593C141.859 78.4154 141.991 78.2767 141.972 78.2683C141.566 78.0722 141.773 78.6077 141.432 78.6646C141.52 78.4657 141.478 78.3937 141.364 78.3373C141.295 78.3032 141.199 78.2748 141.09 78.2275C140.95 78.1668 141.067 78.0614 141.058 78.0444C140.901 77.7854 140.676 77.9938 140.622 78.0342C140.424 78.1823 140.335 77.9124 140.201 78.0111C140.068 78.109 140.236 78.361 139.948 78.2744C139.902 78.1317 140.207 77.8831 140.002 77.7687C139.231 77.3357 137.614 77.1379 136.941 76.9753C136.269 76.8126 136.061 76.7303 135.661 76.6644C134.939 76.5458 135.261 76.3864 134.856 76.1584C134.45 75.9303 134.502 76.5595 134.405 76.6644C134.309 76.7697 134.277 76.6248 134.182 76.6707C134.087 76.7166 134.229 76.8461 134.042 76.8212C133.856 76.7963 133.426 76.4411 133.398 76.2953C133.34 75.9863 133.641 75.7634 133.138 75.7306C133.109 75.7289 133.156 75.9035 133.047 75.8894C132.184 75.7725 131.319 75.5383 130.462 75.4069C130.344 75.3891 130.399 75.5844 130.33 75.5759C129.608 75.4875 129.935 75.2763 129.645 74.8574C129.612 75.2966 129.331 75.4914 128.806 75.345C128.49 75.2568 128.596 75.0912 128.429 74.9054C128.379 74.8495 128.12 74.9102 128.104 74.8133C128.051 74.4967 128.35 74.2452 127.775 74.2147C127.75 74.2138 127.781 74.3878 127.697 74.3736C127.151 74.2821 127.171 73.9724 126.611 73.7719C126.172 73.6146 125.326 73.5592 124.809 73.4371C124.682 73.9056 124.231 73.6559 124.133 73.2774C123.799 73.1918 123.45 73.0671 123.117 73.0145C123.003 72.9965 123.034 73.1527 123.016 73.163C122.735 73.3268 122.686 72.9717 122.619 72.9379C122.334 72.801 122.058 72.7242 121.784 72.6534C121.351 72.5419 120.93 72.4483 120.523 72.1657C120.5 72.1492 120.559 71.8147 120.289 71.9878C120.272 71.9999 120.468 72.2224 120.119 72.1251C119.77 72.0277 119.066 71.9935 118.635 71.6912C118.531 71.6183 118.322 71.264 118.022 71.3916C117.982 71.4091 117.986 71.5121 117.925 71.5487C117.726 71.6646 117.751 71.3148 117.49 71.5344C117.23 71.754 116.805 71.844 116.385 71.4965C116.371 71.486 116.341 71.1921 116.188 71.1465C115.944 71.0738 115.584 71.0144 115.332 70.9292C115.211 70.8884 115.341 70.7548 115.321 70.745C114.539 70.3872 113.915 70.3367 113.026 70.1065C112.861 70.0642 112.479 69.6943 112.112 69.7608C111.71 69.8338 111.795 70.7316 111.079 70.2816C110.791 70.1008 110.73 68.9776 109.992 69.2969C108.944 68.7968 107.846 68.7108 106.813 68.1504C106.767 68.1252 106.707 67.796 106.591 67.7601C106.418 67.7068 106.277 67.802 106.152 67.7682C105.625 67.6283 105.196 67.3556 104.693 67.1996C104.504 67.1404 104.527 67.2975 104.296 67.2256C104.07 67.1548 103.981 66.9273 103.649 66.9065C103.397 66.8907 103.047 67.1701 102.725 67.1045C102.78 66.9285 102.756 66.8233 102.68 66.736C102.595 66.6442 102.458 66.5725 102.287 66.46C102.221 66.4166 102.341 66.3208 102.312 66.2939C102.193 66.1815 102.039 66.2422 101.927 66.126C101.901 66.0983 101.941 65.9772 101.922 65.9478C101.768 65.6952 101.306 65.8392 101.227 65.8645C100.93 65.9628 100.869 65.7659 100.66 65.7729C100.452 65.7803 100.694 65.9629 100.467 65.9324C99.9929 65.868 99.4286 65.6524 98.9761 65.5041C98.7949 65.4439 98.9732 65.3247 98.9486 65.3123C98.5909 65.1446 98.1543 65.188 98.0587 64.7963C97.5843 65.4444 97.7856 64.8396 97.4596 64.661C97.4127 64.6351 97.3546 64.6175 97.2813 64.6127C97.236 64.6102 97.0291 64.9755 97.1704 65.0953C97.1998 65.12 97.2357 65.1384 97.2758 65.1533C97.4306 65.2111 97.6455 65.2166 97.7988 65.3488C97.8446 65.3883 98.0234 65.8601 98.0574 65.8966C98.3201 66.1805 98.5684 65.6098 98.5958 65.5831C98.9076 65.3009 99.1417 65.8237 99.2307 65.8848C99.6336 66.163 100.039 66.2102 100.38 66.4282C100.609 66.572 100.492 66.9616 100.691 67.0172C101.336 67.1971 101.747 66.7397 102.183 67.4118C102.256 67.5233 102.106 67.7735 102.308 67.8024C102.364 67.8099 102.449 67.7987 102.578 67.7608C102.616 67.7508 103.059 67.5667 103.193 67.8278C103.21 67.8606 103.168 67.9828 103.196 68.0042C103.386 68.1451 103.575 68.1019 103.793 68.2299C104.017 68.3606 104.276 68.5289 104.567 68.5836C104.737 68.6152 105.029 68.4615 105.129 68.4336C105.402 68.3489 105.554 68.697 105.758 68.5496C105.964 68.402 105.796 68.0111 106.203 68.011C106.106 68.3333 106.024 68.6701 105.935 68.9971C106.738 69.2634 107.56 69.4328 108.357 69.7228C108.455 69.759 108.295 69.8951 108.399 69.9381C108.838 70.1197 109.275 70.1331 109.724 70.341C110.073 70.503 110.407 70.819 110.77 70.9934C111.125 70.7074 111.644 71.0213 112.064 71.126C112.211 71.1625 112.234 71.0619 112.346 71.0643C112.769 71.076 112.481 71.3377 112.57 71.4239C112.947 71.7916 113.233 71.0758 113.757 71.2709C113.785 71.281 114.001 71.7855 114.04 71.8253C114.289 72.0836 114.135 71.7064 114.333 71.7404C114.697 71.8026 114.966 71.7885 115.334 72.0364C115.441 72.1091 115.644 72.4452 115.936 72.3327C115.974 72.318 116 72.1836 116.027 72.1841C116.507 72.2022 116.387 72.6109 116.594 72.8302C116.801 73.0494 117.282 72.8958 117.387 72.8407C117.661 72.699 117.257 72.7002 117.252 72.676C117.199 72.3897 117.469 72.5236 117.693 72.5729C117.852 72.1855 118.147 72.3069 117.924 72.6256C117.899 72.6602 117.742 72.5688 117.693 72.5729C117.757 73.0243 118.075 73.182 118.56 72.9349C118.787 72.8189 118.688 72.5677 119.188 72.8073C119.415 72.9157 119.236 73.1607 119.423 73.302C119.849 73.6248 120.553 73.5643 121.037 73.7584C121.213 73.8288 120.991 73.9249 121.109 73.9782C121.189 74.0144 121.27 74.0397 121.35 74.06C121.588 74.1198 121.825 74.1361 122.056 74.2538C122.085 74.2684 121.963 74.4038 122.065 74.4371C122.834 74.6914 123.541 74.7936 124.351 75.0308C124.742 75.1454 125.418 75.4386 125.828 75.5388C126.541 75.7145 127.472 75.733 128.057 75.9603C128.439 76.1079 128.307 76.2418 128.445 76.3978C128.71 76.6996 129.391 76.4868 129.484 76.4504C129.487 76.4492 129.16 76.3164 129.363 76.2859C129.516 76.1458 129.481 76.4486 129.484 76.4504C129.545 76.4272 130.23 76.5813 130.355 76.6492C130.423 76.6862 130.34 76.8251 130.376 76.8416C131.24 77.2297 132.132 77.5203 133.065 77.7053C133.082 77.7067 133.105 77.5317 133.144 77.5372C133.693 77.6103 133.974 77.9108 134.375 78.1551C134.777 78.3993 135.133 78.4553 135.472 78.2391C135.79 78.3678 136.296 78.3732 136.589 78.3725C136.882 78.3719 136.827 78.7098 136.849 78.723C137.532 79.1411 138.014 79.0763 138.791 79.2693C139.161 79.3604 139.871 79.6187 140.255 79.7708C140.499 79.8678 140.683 79.8733 140.887 79.9417C140.937 79.9583 140.988 79.9786 141.041 80.0049C141.078 80.023 140.996 80.1564 141.006 80.1655C141.274 80.4346 141.226 80.034 141.311 79.9904C141.62 79.8317 141.805 79.7535 142.183 79.9855C142.27 80.039 142.392 80.6325 142.554 80.7145C142.767 80.8205 142.738 80.612 142.959 80.7277C142.978 80.7375 142.939 80.8489 143.085 80.8881C143.763 81.0718 144.515 81.2326 145.208 81.4619C145.303 81.4928 145.125 81.633 145.261 81.6806C145.899 81.9037 146.607 82.1206 147.26 82.2375C147.422 82.2659 147.365 82.1102 147.41 82.0839C147.688 81.926 147.875 82.3445 147.921 82.3665C149.019 82.8919 149.993 82.884 151.115 83.4092C151.176 83.4385 151.55 83.9481 151.866 83.7222C151.886 83.7069 152.206 83.4746 152.326 83.7464C152.334 83.7634 152.148 83.8758 152.386 83.9375C152.628 84.0004 152.97 84.2316 153.348 84.167C153.47 84.1477 153.81 83.9239 154.035 84.2699C154.049 84.2933 154.335 85.0004 154.627 84.6788C154.674 84.6255 154.786 84.2178 155.077 84.5455C155.132 84.6087 154.975 84.6544 155.14 84.7729C155.391 84.9544 155.796 84.974 156.078 85.2704C156.126 85.3221 156.286 85.6806 156.563 85.5467C156.606 85.5256 156.592 85.3715 156.705 85.394C156.749 85.4027 156.792 85.4124 156.834 85.4228C157.325 85.5449 157.789 85.7844 158.292 85.8688C158.488 85.9024 158.468 85.6535 158.681 85.6649C158.892 85.6753 159.296 85.7594 159.46 85.93C159.624 86.1004 159.282 86.362 159.57 86.4982C160.819 87.0915 162.196 87.3804 163.514 87.8299C163.713 87.8979 163.506 87.9603 163.789 88.0668C164.463 88.3203 165.417 88.7221 166.297 89.0045C166.791 89.1624 167.269 89.2844 167.636 89.3093C168.446 89.3664 167.575 88.8737 168.17 88.9926C168.455 89.0494 168.604 89.5514 168.667 89.5882C169.256 89.9434 169.768 89.9284 170.322 90.1875C170.436 90.2412 170.262 90.3605 170.361 90.4045C170.701 90.5576 171.082 90.6129 171.412 90.7454C171.557 90.8041 171.486 90.9175 171.625 90.9564C171.959 91.0517 172.265 91.1025 172.624 91.1004C172.657 91.1002 172.516 90.8774 172.76 90.9578C173.153 91.088 173.68 91.147 174.086 91.4233C174.207 91.506 174.113 91.7896 174.469 91.6968C174.543 91.6774 174.586 91.3123 174.816 91.7224C174.855 91.7909 175.277 92.3833 175.642 92.2267C175.739 92.1856 176.022 91.9748 176.167 92.0746C176.186 92.0892 176.046 92.2097 176.173 92.2713C176.625 92.4861 177.121 92.6429 177.587 92.8596C177.711 92.9178 177.464 93.007 177.651 93.0887C178.165 93.3136 178.837 93.5043 179.371 93.6358C179.567 93.6838 179.481 93.5081 179.5 93.4989C179.803 93.3469 179.826 93.7027 179.894 93.7467C180.316 94.0154 180.717 93.9916 181.127 94.1773C181.24 94.228 181.106 94.3472 181.125 94.3685C181.321 94.581 181.234 94.2529 181.397 94.2769C181.855 94.3428 182.329 94.5201 182.755 94.6881C182.911 94.7499 182.673 94.86 182.815 94.9137C183.651 95.2349 184.539 95.5207 185.399 95.7071C185.561 95.7418 185.508 95.5761 185.551 95.5569C185.843 95.42 186.079 95.8216 186.144 95.8741C186.441 96.1143 186.621 96.0443 186.915 96.1673C187.539 96.429 188.238 96.675 188.947 96.9017C189.895 97.2047 190.854 97.4692 191.674 97.6912C193.551 98.1984 195.056 98.4854 196.86 98.9554C196.976 98.9851 196.816 99.138 196.915 99.1659C198.161 99.5088 199.39 99.702 200.588 100.036C200.617 100.044 200.646 100.052 200.675 100.06C200.777 100.088 200.588 100.224 200.751 100.276C201.085 100.383 201.518 100.476 201.875 100.503C202.048 100.517 201.859 100.316 202.033 100.333C202.44 100.371 202.862 100.46 203.26 100.584C203.428 100.638 203.127 100.751 203.35 100.806C204.863 101.189 206.341 101.583 207.92 101.745C208.027 101.756 208.211 101.425 208.416 101.55C208.407 101.653 208.376 101.768 208.357 101.875C210.529 102.497 212.713 102.961 214.849 103.625C214.938 103.653 214.725 103.789 214.897 103.844C215.901 104.166 216.831 104.547 217.881 104.757C217.985 104.779 218.059 104.439 218.33 104.606C218.378 104.635 218.787 104.857 218.865 104.973C218.875 104.99 218.735 105.103 218.866 105.166C219.268 105.357 219.672 105.545 220.065 105.73C220.468 105.921 220.875 106.101 221.278 106.265C221.412 106.319 221.358 106.097 221.454 106.134C222.146 106.405 222.777 106.899 223.458 107.111C223.913 107.252 223.909 106.911 224.269 106.787C224.321 106.769 224.572 106.911 224.671 106.775C224.923 106.433 225.038 105.962 225.32 105.606C225.351 105.568 225.438 105.622 225.515 105.651C225.553 105.666 225.583 105.67 225.618 105.664C225.637 105.646 225.616 105.589 225.596 105.507C225.584 105.481 225.369 105.261 225.346 105.156C225.329 105.082 225.495 104.981 225.442 104.869C225.388 104.755 225.216 104.821 225.11 104.664C225.006 104.508 225.167 104.375 224.881 104.187ZM137.907 78.3736C138.202 78.2884 138.074 78.874 137.843 78.6589C137.832 78.6478 137.892 78.3777 137.907 78.3736ZM107.702 69.0039C108.114 68.8672 108.204 69.3084 107.912 69.4232C107.618 69.5372 107.577 69.0453 107.702 69.0039ZM104.419 67.6601C104.863 67.5946 104.645 68.4167 104.297 68.1139C104.277 68.0967 104.393 67.6639 104.419 67.6601ZM223.305 106.141C223.311 106.136 223.499 106.232 223.499 106.241C223.502 106.461 223.131 106.27 223.305 106.141ZM101.171 66.3072C101.326 66.2395 101.623 66.4825 101.428 66.5662C101.272 66.6334 100.977 66.3911 101.171 66.3072ZM151.096 81.7744C151.103 81.7672 151.249 81.807 151.231 81.8538C151.17 82.0048 150.984 81.8953 151.096 81.7744ZM95.5651 64.195C96.3851 64.5594 97.1463 64.1222 96.2585 63.804C96.0966 63.7439 96.4989 64.163 96.2741 64.1279C95.8584 64.0606 95.8131 63.5476 95.3416 63.5735C95.2549 63.5785 95.5164 64.1758 95.5661 64.1966C95.5658 64.1961 95.5654 64.1955 95.5651 64.195ZM138.249 77.7243C138.256 77.7181 138.46 77.7686 138.462 77.7776C138.519 77.9914 138.109 77.8897 138.249 77.7243ZM159.577 84.284C159.594 84.2718 160.058 84.4235 160.067 84.4435C160.199 84.8218 159.263 84.5169 159.577 84.284ZM124.797 73.4471C124.632 73.1991 124.377 73.0996 124.134 73.2775C124.355 73.3301 124.575 73.3936 124.797 73.4471Z" fill="#686868"/>
</svg>
