<svg width="233" height="224" viewBox="0 0 233 224" fill="none" xmlns="http://www.w3.org/2000/svg">
<path d="M187.677 13.3023L110.297 205.467L87.0631 201.36L25.1649 89.7615L166.746 7.48056L187.677 13.3023Z" fill="white" stroke="black"/>
<path d="M45.996 95.3265C46.2174 95.9248 46.6182 96.6068 46.9725 97.1401C47.076 97.2927 47.1287 97.1619 47.2052 97.2663C47.3537 97.4687 47.4252 97.7239 47.5821 97.9231C47.6341 97.9877 47.7375 97.8212 47.7886 97.8909C48.0692 98.2765 48.2473 98.7152 48.5005 99.1256C49.7656 101.18 50.9329 103.243 52.1391 105.334C52.5386 106.026 53.1293 106.804 53.4681 107.573C53.5076 107.663 53.3501 107.681 53.3483 107.703C53.3197 108.042 53.5364 107.817 53.6595 107.962C54.1485 108.54 54.5575 109.268 54.848 109.923C54.9725 110.204 54.5684 110.073 54.8604 110.267C54.8805 110.281 54.9808 110.138 55.0357 110.204C55.1614 110.357 55.3062 110.682 55.3869 110.805C55.5431 111.041 55.5641 111.083 55.6938 111.318C55.8728 111.639 56.1516 111.989 56.3061 112.347C56.339 112.424 56.1452 112.404 56.185 112.534C56.2248 112.664 56.4065 112.969 56.4973 113.056C56.588 113.144 56.6742 113.038 56.7098 113.043C57.0079 113.08 56.9089 113.604 56.9257 113.653C57.2582 114.559 57.8268 115.198 58.2583 115.986C58.59 116.593 58.8824 117.258 59.2058 117.828C59.593 118.51 59.9809 119.035 60.3351 119.708C60.3725 119.779 60.162 119.788 60.2074 119.875C60.6846 120.786 61.202 121.68 61.8101 122.516C61.8714 122.6 61.9519 122.403 62.0218 122.483C62.4479 122.972 63.2162 123.683 62.768 124.362C63.0005 124.722 63.2782 125.162 63.5907 125.425C63.7922 125.595 63.8336 125.298 63.9134 125.601C63.9316 125.669 63.7503 125.668 63.7881 125.764C63.9471 126.169 64.2222 126.558 64.3579 126.969C64.3853 127.053 64.2501 127.101 64.2398 127.135C64.1599 127.416 64.6257 127.551 64.6839 127.604C65.1237 128.013 65.2637 128.413 65.527 128.875C65.5882 128.982 65.351 128.948 65.4039 129.054C65.6807 129.606 66.0068 130.155 66.3755 130.641C66.4579 130.748 66.5389 130.561 66.5855 130.609C66.7892 130.819 66.5529 131.023 66.7432 131.227C66.783 131.271 66.8882 131.175 66.9066 131.176C67.195 131.202 66.9688 131.491 66.9828 131.531C67.1535 132.044 67.6287 132.168 67.8362 132.64C67.8608 132.696 67.64 132.662 67.7183 132.816C67.8216 133.019 67.9294 133.223 68.0412 133.425L68.0274 133.4C68.4583 134.259 68.9474 135.097 69.4591 135.848C69.5581 135.994 69.6185 135.823 69.6379 135.825C69.9457 135.869 69.6956 136.127 69.7101 136.184C69.8317 136.623 70.2762 136.864 70.0619 137.334C71.0811 139.013 71.7402 140.795 72.9414 142.337C72.9561 142.356 73.0854 142.241 73.1142 142.28C73.4615 142.75 73.1791 142.77 73.0688 143.252C73.0402 143.372 73.5177 143.459 73.556 143.472C73.6931 143.511 73.8684 143.307 73.9013 143.327C74.1653 143.495 73.4123 143.833 73.5778 144.156C73.5842 144.165 73.6974 144.053 73.7247 144.074C73.81 144.136 73.7991 144.246 73.8876 144.304C74.0912 144.436 74.4817 144.319 74.4202 144.709C74.4117 144.758 73.968 144.918 74.133 145.19C74.1993 145.299 74.4467 145.797 74.5442 145.92C74.6419 146.044 74.7273 145.88 74.7381 145.887C75.1055 146.165 75.1067 145.987 75.4638 146.036C75.8221 146.09 75.1732 146.361 75.1438 146.475C75.1153 146.59 75.4066 146.796 75.4929 146.839C75.5792 146.881 75.62 146.751 75.6804 146.798C76.0772 147.106 75.4627 147.135 75.4325 147.319C75.36 147.754 75.9469 147.757 76.1379 148.017C76.1895 148.087 76.0521 148.079 76.0773 148.152C76.1784 148.44 76.4056 148.526 76.4292 148.897C76.4333 148.957 76.2801 149.342 76.5715 149.406C76.6129 149.415 76.6938 149.289 76.7806 149.394C76.9106 149.551 77.0989 149.854 77.157 150.061C77.1998 150.213 76.9285 150.153 77.077 150.296C77.1431 150.36 77.1804 150.16 77.2952 150.284C77.4098 150.407 77.5935 150.775 77.6608 150.914C77.728 151.054 77.5452 151.053 77.5413 151.069C77.5206 151.165 77.587 151.464 77.5991 151.487C78.1975 152.688 79.0052 153.655 79.5268 154.859C79.5686 154.954 79.385 154.971 79.3899 154.987C79.4899 155.336 79.7642 154.878 80.0131 155.028C79.6889 155.156 79.812 155.257 79.8921 155.494C79.9304 155.609 79.7814 155.613 79.7742 155.629C79.6745 155.879 79.9644 155.866 80.0266 155.869C80.2559 155.881 80.106 156.101 80.2596 156.109C80.4123 156.119 80.5024 155.869 80.6075 156.077C80.5274 156.192 80.1601 156.188 80.1947 156.369C80.3146 157.032 81.1509 158.092 81.4144 158.542C81.6826 159.001 81.7443 159.17 81.9341 159.438C82.2743 159.917 81.9625 159.839 82.0296 160.207C82.0962 160.574 82.5413 160.147 82.6778 160.134C82.8137 160.119 82.7227 160.228 82.8134 160.251C82.9039 160.273 82.919 160.115 83.0092 160.232C83.0997 160.349 83.0802 160.802 82.9853 160.908C82.7861 161.135 82.4363 161.104 82.7118 161.408C82.7279 161.426 82.8316 161.288 82.8861 161.359C83.3146 161.923 83.6454 162.543 84.0436 163.078C84.1012 163.157 84.215 163 84.2502 163.045C84.6167 163.509 84.2617 163.459 84.1195 163.888C84.4694 163.626 84.7847 163.66 84.9842 164.037C85.1039 164.263 84.9164 164.311 84.8744 164.518C84.8617 164.58 85.0589 164.678 84.9951 164.748C84.7892 164.979 84.4161 164.965 84.7412 165.31C84.7559 165.325 84.8671 165.195 84.9075 165.252C85.1684 165.616 84.9242 165.803 85.1079 166.234C85.2502 166.569 85.7123 167.055 85.9386 167.424C86.3647 167.192 86.4501 167.595 86.2267 167.89C86.3654 168.126 86.4718 168.371 86.6424 168.597C86.6994 168.672 86.7956 168.553 86.8145 168.557C87.1085 168.605 86.8754 168.862 86.8916 168.92C87.0802 169.549 87.5247 169.867 87.6021 170.535C87.6044 170.558 87.3223 170.746 87.6154 170.775C87.6352 170.776 87.6786 170.529 87.8208 170.775C87.9618 171.019 88.3673 171.404 88.4179 171.838C88.4295 171.941 88.2995 172.283 88.5772 172.353C88.6147 172.362 88.6875 172.292 88.7521 172.3C88.9588 172.325 88.6868 172.54 89.0067 172.527C89.3313 172.524 89.6656 172.695 89.6722 173.139C89.6729 173.152 89.4772 173.361 89.5379 173.468C89.6326 173.633 89.8178 173.866 89.9152 174.056C89.9614 174.147 89.7827 174.167 89.7882 174.184C90.0136 174.818 90.3772 175.191 90.7597 175.784C90.8275 175.887 90.8115 176.351 91.0868 176.489C91.3922 176.647 91.9821 175.997 92.1124 176.673C92.17 176.954 91.3775 177.693 92.0852 177.883C92.3784 178.742 93.015 179.374 93.2539 180.274C93.2647 180.314 93.0589 180.553 93.1087 180.644C93.1802 180.772 93.3367 180.781 93.3895 180.867C93.6148 181.229 93.6865 181.64 93.8749 181.995C93.9487 182.136 94.0538 182.028 94.1402 182.194C94.2231 182.354 94.1117 182.555 94.2936 182.742C94.3954 182.847 94.6545 182.896 94.8364 182.992L94.8307 182.98C94.8987 183.014 94.9572 183.054 94.9965 183.109C94.6635 183.279 94.7442 183.432 94.7931 183.754C94.8024 183.816 94.6574 183.816 94.6559 183.848C94.6471 183.981 94.7913 184.028 94.7755 184.159C94.7718 184.19 94.6586 184.249 94.6492 184.278C94.5658 184.53 94.9615 184.669 95.0299 184.692C95.2905 184.782 95.1871 184.942 95.3243 185.042C95.4619 185.143 95.4379 184.897 95.5613 185.034C95.8164 185.317 96.0211 185.749 96.2001 186.078C96.2716 186.212 96.0728 186.199 96.0795 186.22C96.1851 186.515 96.4902 186.71 96.2669 187.018C97.1466 186.81 96.2775 187.224 96.6349 187.538C96.6629 187.562 97.054 187.415 97.0466 187.266C97.0395 187.118 96.8316 186.997 96.8305 186.787C96.8302 186.737 97.0592 186.333 97.0643 186.292C97.1023 185.965 96.535 186.219 96.4979 186.222C96.0973 186.249 96.3247 185.78 96.3127 185.695C96.2568 185.303 96.0323 185.065 95.9718 184.747C95.9319 184.539 96.2827 184.333 96.1986 184.199C95.9219 183.756 95.3313 183.847 95.5559 183.19C95.6046 183.051 96.0481 182.95 95.5738 182.768C95.5619 182.764 95.4902 182.743 95.4152 182.705L95.4307 182.739C95.3188 182.674 95.1991 182.567 95.2671 182.421C95.2815 182.39 95.4 182.338 95.3981 182.307C95.3888 182.113 95.238 182.031 95.1985 181.828C95.1598 181.626 95.1172 181.364 94.9793 181.178C94.8938 181.061 94.5977 181.003 94.5173 180.973C94.2857 180.886 94.4381 180.565 94.2068 180.562C93.9709 180.552 93.7886 180.892 93.5355 180.683C93.8315 180.523 94.1288 180.346 94.4232 180.179C94.1121 179.582 93.716 179.044 93.4243 178.443C93.3887 178.369 93.5879 178.361 93.5537 178.28C93.4036 177.925 93.1446 177.704 93.0087 177.33C92.8966 177.025 92.9294 176.673 92.8219 176.361C92.3851 176.355 92.296 175.901 92.1049 175.611C92.0384 175.509 91.9509 175.564 91.8811 175.502C91.6179 175.266 91.9933 175.25 92.0001 175.148C92.034 174.719 91.3379 175.048 91.1466 174.641C91.1363 174.62 91.3631 174.168 91.3706 174.127C91.4056 173.834 91.2255 174.158 91.1278 174.036C90.9486 173.813 90.7698 173.682 90.7161 173.32C90.6977 173.208 90.8226 172.895 90.56 172.82C90.5256 172.81 90.4118 172.885 90.3956 172.871C90.1113 172.613 90.4834 172.406 90.5136 172.152C90.5416 171.894 90.1321 171.746 90.0288 171.731C89.7571 171.685 90.005 171.888 89.9898 171.905C89.8116 172.117 89.7461 171.897 89.6452 171.751C89.2634 171.922 89.1706 171.691 89.5418 171.598C89.5826 171.588 89.6119 171.728 89.6452 171.751C89.9368 171.424 89.8569 171.158 89.3736 171.06C89.148 171.016 89.0225 171.228 88.8901 170.81C88.8325 170.625 89.1216 170.557 89.1126 170.371C89.0931 169.947 88.6084 169.6 88.4574 169.22C88.4045 169.085 88.6089 169.136 88.5775 169.042C88.4942 168.79 88.281 168.638 88.2092 168.369C88.2028 168.345 88.3767 168.322 88.3395 168.246C88.0516 167.654 87.7168 167.241 87.403 166.646C87.2505 166.357 87.0637 165.803 86.899 165.527C86.614 165.047 86.05 164.484 85.8887 164.048C85.7764 163.752 85.9542 163.737 85.9911 163.564C86.0632 163.232 85.4985 162.992 85.415 162.962C85.4124 162.962 85.5069 163.227 85.363 163.134C85.1666 163.139 85.4157 162.965 85.415 162.962C85.3626 162.946 85.063 162.452 85.0472 162.353C85.0357 162.294 85.1892 162.251 85.1806 162.221C84.975 161.523 84.6592 160.83 84.2491 160.2C84.2404 160.19 84.0943 160.288 84.0758 160.264C83.8121 159.925 83.875 159.582 83.8229 159.207C83.7706 158.831 83.6 158.595 83.2341 158.541C83.1356 158.269 82.8515 158.01 82.6775 157.85C82.5052 157.692 82.7927 157.508 82.7898 157.488C82.7019 156.851 82.3653 156.625 82.0392 156.062C81.8892 155.805 81.6654 155.266 81.5483 154.959C81.4569 154.718 81.3145 154.616 81.2496 154.38C81.2408 154.348 81.3903 154.308 81.3909 154.296C81.4286 153.975 81.159 154.26 81.0749 154.241C80.7688 154.173 80.598 154.121 80.5382 153.76C80.5251 153.678 80.8974 153.238 80.8606 153.099C80.8122 152.919 80.6741 153.068 80.6274 152.877C80.6233 152.861 80.7295 152.81 80.6706 152.707C80.3981 152.23 80.0573 151.72 79.7962 151.189C79.7601 151.117 79.9737 151.123 79.9243 151.017C79.6969 150.529 79.4322 150.032 79.114 149.606C79.0355 149.503 78.9561 149.634 78.9087 149.627C78.6214 149.583 78.8129 149.209 78.8002 149.171C78.4964 148.224 77.9002 147.743 77.5852 146.811C77.5687 146.76 77.7069 146.229 77.3432 146.209C77.3189 146.207 76.9498 146.193 77.071 145.948C77.0786 145.933 77.2779 145.959 77.1717 145.79C77.0662 145.622 77.0132 145.277 76.7343 145.133C76.6453 145.085 76.2701 145.057 76.3827 144.718C76.3912 144.695 76.7275 144.086 76.3091 144.144C76.2404 144.154 75.8763 144.369 75.9301 144.001C75.9409 143.93 76.0727 143.981 76.0551 143.818C76.0286 143.569 75.7854 143.343 75.8192 142.998C75.8255 142.938 75.9811 142.614 75.7078 142.558C75.665 142.549 75.5635 142.66 75.5073 142.585C75.2351 142.221 75.1272 141.806 74.841 141.462C74.7406 141.342 74.5739 141.515 74.4466 141.401C74.3193 141.287 74.1191 141.026 74.1344 140.828C74.1497 140.63 74.557 140.629 74.4669 140.39C74.0672 139.336 73.3902 138.484 72.8634 137.526C72.785 137.383 72.9622 137.444 72.8547 137.229C72.4547 136.429 71.8665 135.015 71.277 134.47C70.8012 134.026 71.0028 134.789 70.7093 134.413C70.568 134.231 70.8313 133.82 70.818 133.765C70.6932 133.225 70.355 132.975 70.1821 132.512C70.1464 132.416 70.344 132.427 70.3119 132.346C70.2994 132.314 70.2855 132.282 70.2705 132.251L70.2375 132.19C70.1174 131.962 69.9368 131.76 69.8282 131.542C69.7735 131.43 69.8985 131.386 69.834 131.292C69.6809 131.066 69.5151 130.883 69.2783 130.711C69.2567 130.695 69.195 130.917 69.091 130.744C68.9232 130.464 68.6202 130.171 68.5456 129.783C68.5239 129.667 68.7822 129.518 68.4854 129.41C68.4233 129.387 68.1419 129.618 68.2759 129.223C68.2979 129.157 68.4338 128.545 68.0867 128.476C67.9952 128.457 67.6637 128.466 67.6386 128.326C67.6362 128.307 67.8116 128.292 67.7711 128.188C67.6261 127.821 67.4115 127.472 67.2597 127.097C67.2194 126.996 67.4422 127.055 67.3775 126.908C67.1997 126.504 66.8956 126.045 66.6414 125.695C66.5474 125.566 66.4805 125.729 66.4618 125.726C66.1592 125.683 66.3929 125.427 66.3797 125.364C66.2934 124.973 66.0168 124.794 65.8811 124.466C65.8432 124.375 66.0136 124.359 66.0164 124.336C66.0381 124.094 65.865 124.361 65.7761 124.265C65.5264 123.997 65.3451 123.644 65.187 123.318C65.1293 123.199 65.3604 123.241 65.3068 123.135C64.9922 122.503 64.6248 121.876 64.2035 121.322C64.1241 121.218 64.0411 121.357 64.0002 121.349C63.7147 121.294 63.8498 120.909 63.845 120.84C63.8235 120.528 63.6623 120.492 63.5611 120.261C63.0659 119.127 62.2627 117.839 61.6619 116.851C60.8752 115.555 60.1979 114.596 59.5359 113.314C59.4937 113.232 59.7013 113.224 59.667 113.153C59.2204 112.242 58.6725 111.389 58.235 110.472C58.1982 110.396 58.4112 110.419 58.3574 110.294C58.2482 110.037 58.0728 109.734 57.8912 109.517C57.8029 109.412 57.7564 109.643 57.6703 109.535C57.471 109.287 57.2945 108.988 57.1628 108.686C57.1071 108.557 57.3661 108.656 57.2814 108.496C56.716 107.414 56.163 106.325 55.3671 105.338C55.3129 105.271 54.9549 105.379 54.9323 105.188C55.0156 105.128 55.1213 105.072 55.2143 105.016C54.4152 103.404 53.4662 101.897 52.6106 100.318C52.5753 100.253 52.8068 100.276 52.7394 100.149C52.3359 99.3905 52.0002 98.6351 51.4349 97.9665C51.3775 97.8969 51.0944 98.0932 51.0218 97.8411C51.0086 97.7954 50.8747 97.4378 50.8977 97.3205C50.9017 97.3039 51.0741 97.2903 51.0239 97.1828C50.7086 96.5192 50.346 95.8899 49.9381 95.2928C49.8724 95.1971 49.7752 95.3824 49.7271 95.3152C49.3979 94.8579 49.2241 94.212 48.8671 93.8033C48.6291 93.5296 48.4193 93.7784 48.0732 93.7064C48.0217 93.691 47.9456 93.5205 47.7804 93.5554C47.3702 93.6659 46.9873 93.9614 46.5456 94.0678C46.444 94.0907 46.4099 93.6331 46.2659 93.9596C46.254 93.9848 46.2984 94.3199 46.2416 94.3853C46.2077 94.447 46.0188 94.4382 45.9893 94.5502C45.9591 94.66 46.1419 94.721 46.1156 94.8643C46.0964 95.0249 45.8893 95.0416 45.996 95.3265ZM81.8991 157.13C81.6584 157.021 82.1752 156.718 82.1517 156.984C82.15 156.997 81.9111 157.136 81.8991 157.13ZM93.3164 179.255C92.9589 179.135 93.2146 178.784 93.4864 178.867C93.7573 178.95 93.4247 179.292 93.3164 179.255ZM94.3868 181.849C94.0643 181.655 94.8086 181.245 94.7984 181.623C94.7986 181.646 94.4059 181.861 94.3868 181.849ZM48.3719 94.5577C48.3629 94.5576 48.2865 94.4146 48.2926 94.4089C48.4278 94.2506 48.5792 94.534 48.3719 94.5577ZM95.3841 184.427C95.237 184.393 95.2261 184.082 95.4086 184.125C95.5548 184.159 95.5668 184.469 95.3841 184.427ZM76.4013 147.89C76.3919 147.892 76.3304 147.79 76.3763 147.769C76.5242 147.702 76.5592 147.869 76.4013 147.89ZM97.5329 188.617C97.1943 188.006 96.3792 187.947 96.7876 188.586C96.8612 188.702 96.8567 188.224 96.9903 188.35C97.237 188.587 96.9345 188.967 97.2908 189.158C97.3551 189.19 97.5545 188.653 97.5332 188.616C97.5331 188.616 97.533 188.617 97.5329 188.617ZM81.2062 157.355C81.1973 157.355 81.1135 157.21 81.1186 157.202C81.2454 157.034 81.4142 157.327 81.2062 157.355ZM72.886 141.871C72.867 141.871 72.6778 141.538 72.6857 141.519C72.8705 141.199 73.254 141.874 72.886 141.871ZM85.9531 167.424C85.8681 167.674 85.9477 167.875 86.2261 167.89C86.1328 167.738 86.0477 167.579 85.9531 167.424Z" fill="#686868"/>
<path d="M100.719 184.871C101.093 183.985 101.488 182.759 101.754 181.827C101.836 181.541 101.683 181.646 101.737 181.441C101.849 181.024 102.024 180.706 102.124 180.299C102.155 180.171 101.94 180.265 101.976 180.131C102.182 179.37 102.48 178.704 102.722 177.963C103.928 174.279 105.228 170.707 106.563 167.016C106.588 166.945 106.614 166.873 106.64 166.799C107.044 165.647 107.454 164.219 107.97 163.061C108.033 162.921 108.137 163.06 108.159 163.037C108.498 162.676 108.166 162.711 108.238 162.415C108.535 161.217 109.003 159.979 109.478 158.92C109.679 158.472 109.773 159.037 109.8 158.516C109.802 158.48 109.611 158.539 109.644 158.407C109.721 158.109 109.962 157.569 110.038 157.342C110.179 156.912 110.208 156.843 110.364 156.44C110.576 155.889 110.767 155.189 111.028 154.622C111.085 154.499 111.169 154.724 111.273 154.533C111.377 154.343 111.575 153.803 111.611 153.608C111.647 153.412 111.5 153.443 111.485 153.401C111.365 153.041 111.917 152.56 111.957 152.483C112.661 151.084 112.967 149.783 113.509 148.415C113.912 147.398 114.416 146.299 114.792 145.328C115.247 144.153 115.557 143.136 116.024 142.004C116.073 141.885 116.193 142.095 116.253 141.949C116.891 140.407 117.488 138.854 117.987 137.264C118.037 137.103 117.803 137.242 117.844 137.078C118.1 136.073 118.392 134.463 119.29 134.162C119.521 133.509 119.805 132.723 119.902 132.093C119.964 131.687 119.652 131.98 119.906 131.553C119.963 131.457 120.056 131.649 120.131 131.5C120.445 130.874 120.681 130.15 121.015 129.539C121.083 129.415 121.2 129.503 121.239 129.476C121.555 129.242 121.447 128.598 121.469 128.477C121.642 127.552 121.962 126.953 122.281 126.151C122.354 125.966 122.442 126.256 122.52 126.08C122.917 125.168 123.29 124.203 123.578 123.266C123.641 123.058 123.416 123.182 123.439 123.079C123.541 122.627 123.863 122.648 123.966 122.217C123.988 122.126 123.84 122.122 123.832 122.101C123.71 121.766 124.11 121.681 124.143 121.621C124.56 120.863 124.439 120.221 124.798 119.47C124.841 119.381 124.919 119.654 125.031 119.398C125.775 117.694 126.472 115.855 127.038 114.096C127.126 113.823 126.927 113.962 126.919 113.94C126.795 113.572 127.181 113.525 127.228 113.444C127.591 112.799 127.589 112.05 128.153 111.742C129.204 108.802 130.593 106.021 131.438 103.025C131.45 102.988 131.268 102.988 131.291 102.913C131.566 102.001 131.737 102.268 132.271 101.812C132.405 101.697 132.232 101.109 132.223 101.059C132.185 100.877 131.894 100.929 131.895 100.874C131.913 100.419 132.646 100.804 132.869 100.267C132.874 100.249 132.705 100.262 132.71 100.211C132.724 100.053 132.837 99.9376 132.846 99.7811C132.864 99.4227 132.54 99.1575 132.952 98.7726C133.005 98.7244 133.399 98.9949 133.575 98.5131C133.644 98.3246 134.003 97.4816 134.074 97.2348C134.144 96.9878 133.937 97.0915 133.938 97.0721C134.018 96.3621 133.842 96.5707 133.702 96.1407C133.562 95.7118 134.172 96.0695 134.298 95.9712C134.423 95.8738 134.466 95.3464 134.461 95.2084C134.457 95.0716 134.308 95.1778 134.321 95.0633C134.409 94.3063 134.766 94.9012 134.962 94.722C135.423 94.3011 135.113 93.6965 135.264 93.2038C135.307 93.0678 135.371 93.2202 135.43 93.1083C135.662 92.6647 135.628 92.3264 135.983 91.867C136.041 91.7916 136.504 91.4961 136.405 91.1394C136.391 91.0904 136.238 91.1421 136.275 90.964C136.277 90.9572 136.278 90.9501 136.28 90.9426C136.364 90.6314 136.56 90.0945 136.731 89.8005C136.858 89.5833 136.943 89.9294 137.004 89.615C137.031 89.4754 136.816 89.6641 136.876 89.406C136.935 89.1491 137.197 88.5439 137.303 88.3057C137.407 88.0722 137.502 88.2642 137.52 88.2494C137.626 88.1585 137.888 87.7404 137.905 87.7011C138.768 85.721 139.308 83.7671 140.225 81.8684C140.298 81.7183 140.41 81.8878 140.423 81.8656C140.714 81.3725 140.12 81.6032 140.137 81.1796C140.433 81.3697 140.468 81.1299 140.66 80.7823C140.752 80.6151 140.834 80.7636 140.854 80.7531C141.152 80.5776 140.993 80.2823 140.964 80.2149C140.858 79.961 141.155 79.8646 141.085 79.6936C141.016 79.5232 140.719 79.7172 140.874 79.3666C141.03 79.3176 141.215 79.7073 141.379 79.4619C141.993 78.5466 142.584 76.5609 142.917 75.7392C143.243 74.9306 143.382 74.6725 143.549 74.1844C143.849 73.3048 143.93 73.7168 144.264 73.2355C144.601 72.747 143.945 72.7664 143.863 72.6382C143.78 72.5116 143.936 72.483 143.913 72.3617C143.89 72.2409 143.722 72.406 143.795 72.1778C143.868 71.9487 144.336 71.4529 144.492 71.4315C144.822 71.3817 144.972 71.7714 145.136 71.15C145.145 71.1143 144.955 71.1586 144.997 71.0251C145.335 69.9752 145.797 68.9264 146.152 67.883C146.201 67.7382 145.987 67.791 146.014 67.706C146.291 66.8238 146.422 67.2436 146.922 66.9244C146.483 66.8491 146.357 66.4864 146.644 65.8487C146.815 65.4678 146.957 65.6115 147.189 65.4226C147.258 65.3665 147.262 65.046 147.366 65.0318C147.703 64.9901 147.883 65.3778 148.064 64.6705C148.071 64.6393 147.885 64.6645 147.922 64.5617C148.155 63.9002 148.465 63.9506 148.816 63.273C149.087 62.7521 149.367 61.7019 149.62 61.0843C149.174 60.8931 149.546 60.3534 149.958 60.2613C150.127 59.8635 150.348 59.4323 150.485 59.0297C150.532 58.8911 150.364 58.9185 150.358 58.8954C150.262 58.5391 150.635 58.5092 150.688 58.4258C151.238 57.5396 151.369 56.6799 152.004 55.8966C152.027 55.8686 152.356 55.9601 152.246 55.6175C152.238 55.595 151.961 55.8229 152.147 55.4002C152.33 54.9846 152.542 54.1112 152.956 53.6031C153.057 53.4772 153.473 53.2385 153.413 52.8659C153.405 52.816 153.298 52.8155 153.275 52.7384C153.203 52.491 153.559 52.5354 153.397 52.2033C153.235 51.869 153.241 51.3508 153.702 50.8475C153.716 50.8315 154.026 50.8094 154.109 50.626C154.241 50.3326 154.392 49.8849 154.537 49.5849C154.607 49.4405 154.714 49.6054 154.729 49.5816C155.287 48.6306 155.482 47.8759 155.929 46.7885C156.009 46.5929 156.484 46.1295 156.497 45.6808C156.514 45.2105 155.675 45.2427 156.105 44.53C156.131 44.4867 156.162 44.4408 156.197 44.3921C156.449 44.0431 157.623 44.0052 157.456 43.0927C158.207 41.8153 158.533 40.4682 159.326 39.2108C159.362 39.1535 159.715 39.0844 159.777 38.9419C159.867 38.7311 159.798 38.5567 159.859 38.4022C160.109 37.7604 160.483 37.2248 160.742 36.6132C160.842 36.3779 160.677 36.4003 160.794 36.1223C160.91 35.8477 161.166 35.7337 161.251 35.3273C161.317 35.0135 161.096 34.5809 161.225 34.1859C161.572 34.3245 161.681 34.0643 161.975 33.6464C162.031 33.5667 162.108 33.7134 162.141 33.6784C162.277 33.5377 162.25 33.3338 162.387 33.2032C162.421 33.1712 162.538 33.221 162.572 33.1978C162.865 33.0008 162.799 32.4366 162.788 32.3381C162.745 31.9641 162.956 31.8958 162.987 31.6366C163.018 31.3796 162.784 31.6815 162.858 31.3985C163.012 30.8119 163.335 30.115 163.569 29.5533C163.664 29.3296 163.755 29.5489 163.772 29.5184C164.01 29.0731 164.041 28.5361 164.462 28.4116C163.789 27.749 164.659 28.166 164.775 27.436C164.784 27.3783 164.429 27.1515 164.289 27.3278C164.149 27.5036 164.141 27.8575 163.936 28.0972C163.888 28.1544 163.371 28.3777 163.327 28.4194C162.987 28.7487 163.534 29.0477 163.556 29.0825C163.791 29.4681 163.21 29.7607 163.131 29.8704C162.772 30.368 162.648 30.8733 162.362 31.2937C162.174 31.5715 161.789 31.4364 161.697 31.6772C161.391 32.4762 161.787 32.9819 161.01 33.5181C160.844 33.6334 160.508 33.2976 160.575 34.0033C160.579 34.0486 160.682 34.5981 160.388 34.7585C160.351 34.7786 160.234 34.7245 160.206 34.7604C160.02 35.0015 160.034 35.2198 159.855 35.4955C159.679 35.7639 159.45 36.0905 159.339 36.4395C159.27 36.6525 159.371 37.0112 159.381 37.1312C159.411 37.4739 159.023 37.6506 159.133 37.9036C159.243 38.1604 159.682 37.9582 159.597 38.4622C159.284 38.338 158.953 38.2316 158.634 38.1167C158.194 39.0973 157.846 40.1014 157.375 41.0709C157.316 41.1922 157.211 40.9914 157.144 41.117C156.863 41.6492 156.754 42.1816 156.439 42.7299C156.197 43.1476 155.795 43.5494 155.533 43.9871C155.577 44.0792 155.593 44.1792 155.589 44.2848C155.578 44.6801 155.261 45.1675 155.102 45.5656C155.031 45.7437 155.129 45.7765 155.1 45.9147C154.988 46.4378 154.787 46.0693 154.678 46.1738C154.214 46.6163 154.881 47.0057 154.559 47.6349C154.542 47.668 153.971 47.9116 153.921 47.959C153.598 48.2485 154.021 48.08 153.94 48.32C153.791 48.7596 153.739 49.0966 153.398 49.5314C153.299 49.6578 152.901 49.8977 152.95 50.255C152.956 50.3025 153.088 50.3408 153.081 50.3734C152.948 50.9597 152.553 50.7995 152.28 51.0368C152.007 51.2752 152.047 51.8752 152.078 52.0091C152.157 52.354 152.254 51.8558 152.28 51.8509C152.589 51.7986 152.381 52.1327 152.28 52.3971C152.639 52.6133 152.443 52.9677 152.17 52.676C152.141 52.6434 152.272 52.4572 152.28 52.3971C151.802 52.4471 151.56 52.8346 151.697 53.4408C151.761 53.7249 152.044 53.6154 151.675 54.2175C151.508 54.4913 151.298 54.2619 151.109 54.4777C150.676 54.9755 150.563 55.8462 150.244 56.4269C150.128 56.6393 150.085 56.359 150 56.5022C149.776 56.8798 149.724 57.2693 149.482 57.6443C149.46 57.6781 149.352 57.5198 149.292 57.6433C148.841 58.565 148.56 59.4195 148.107 60.4049C147.895 60.8662 147.415 61.6904 147.213 62.1754C146.85 63.038 146.593 64.1756 146.208 64.8821C145.961 65.335 145.857 65.1648 145.663 65.3205C145.286 65.6228 145.326 66.4804 145.341 66.595C145.341 66.5983 145.559 66.2114 145.539 66.4613C145.643 66.659 145.343 66.5908 145.341 66.595C145.349 66.6704 145.015 67.5011 144.912 67.654C144.856 67.736 144.736 67.622 144.71 67.6659C144.096 68.6869 143.57 69.7638 143.139 70.9096C143.134 70.9301 143.306 70.9723 143.291 71.0196C143.08 71.6839 142.701 72.0092 142.348 72.4939C142 72.9645 141.854 73.4012 141.989 73.8377C141.775 74.2292 141.648 74.8465 141.576 75.2089C141.505 75.5707 141.173 75.4809 141.154 75.5072C140.553 76.343 140.514 76.9163 140.125 77.8852C139.945 78.3345 139.517 79.1962 139.269 79.674C139.074 80.0493 139.051 80.3023 138.852 80.6354C138.825 80.6803 138.707 80.5721 138.695 80.5844C138.359 80.906 138.78 80.8638 138.806 80.9714C138.899 81.3614 138.936 81.5988 138.614 82.0597C138.541 82.164 137.907 82.2891 137.787 82.4887C137.633 82.7485 137.853 82.7197 137.686 82.991C137.672 83.0144 137.566 82.9625 137.494 83.144C137.152 83.9984 136.841 84.899 136.456 85.7731C136.404 85.8916 136.296 85.667 136.22 85.8351C135.865 86.61 135.493 87.5042 135.247 88.3111C135.187 88.5094 135.358 88.4415 135.376 88.4978C135.486 88.8423 135.018 89.0706 134.987 89.128C134.785 89.494 134.623 89.8519 134.48 90.2076C134.103 91.1459 133.854 92.0891 133.314 93.0996C133.273 93.1746 132.681 93.6409 132.857 94.0355C132.868 94.0622 133.052 94.4561 132.749 94.6112C132.73 94.6208 132.648 94.3879 132.54 94.6895C132.433 94.9898 132.137 95.4116 132.137 95.8842C132.137 96.0334 132.307 96.4574 131.912 96.7409C131.886 96.7583 131.105 97.129 131.388 97.4871C131.435 97.5462 131.839 97.6723 131.452 98.0409C131.377 98.1112 131.355 97.9182 131.206 98.1233C130.978 98.4375 130.889 98.9449 130.536 99.3057C130.474 99.3689 130.077 99.5792 130.172 99.9163C130.187 99.9693 130.349 99.9474 130.308 100.088C130.112 100.757 129.746 101.396 129.564 102.091C129.5 102.334 129.76 102.303 129.717 102.566C129.674 102.83 129.528 103.337 129.328 103.55C129.127 103.763 128.906 103.348 128.723 103.716C127.927 105.315 127.453 107.026 126.809 108.679C126.713 108.925 126.676 108.673 126.526 109.032C125.974 110.353 124.926 112.595 124.713 113.848C124.541 114.854 125.171 113.757 124.966 114.495C124.867 114.852 124.327 115.06 124.281 115.137C123.83 115.887 123.777 116.514 123.43 117.215C123.358 117.359 123.259 117.149 123.2 117.272C122.996 117.694 122.882 118.178 122.701 118.587C122.62 118.77 122.513 118.687 122.453 118.861C122.308 119.279 122.212 119.661 122.163 120.106C122.159 120.146 122.409 119.962 122.292 120.267C122.102 120.76 121.968 121.414 121.624 121.93C121.521 122.083 121.242 121.978 121.288 122.414C121.297 122.506 121.668 122.544 121.212 122.846C121.136 122.898 120.464 123.445 120.574 123.891C120.603 124.009 120.781 124.351 120.657 124.535C120.639 124.559 120.534 124.39 120.453 124.551C120.167 125.117 119.934 125.741 119.644 126.326C119.566 126.482 119.509 126.18 119.398 126.414C119.093 127.059 118.801 127.897 118.588 128.565C118.51 128.811 118.704 128.697 118.711 128.72C118.824 129.09 118.453 129.132 118.398 129.218C118.06 129.751 118.029 130.242 117.777 130.76C117.708 130.903 117.604 130.741 117.58 130.765C117.331 131.017 117.683 130.896 117.635 131.099C117.501 131.669 117.249 132.261 117.014 132.794C116.928 132.989 116.848 132.699 116.773 132.875C116.317 133.928 115.897 135.023 115.574 136.1C115.514 136.302 115.693 136.231 115.706 136.283C115.802 136.646 115.355 136.943 115.291 137.026C114.997 137.404 115.046 137.616 114.874 137.983C114.025 139.799 113.198 142.099 112.549 143.871C111.711 146.158 111.127 147.994 110.244 150.139C110.187 150.277 110.069 150.068 110.018 150.187C109.367 151.714 108.841 153.25 108.187 154.769C108.134 154.895 108.041 154.647 107.95 154.847C107.76 155.257 107.563 155.786 107.453 156.221C107.399 156.433 107.646 156.217 107.589 156.429C107.451 156.939 107.259 157.463 107.042 157.943C106.949 158.146 106.903 157.767 106.796 158.036C106.045 159.91 105.319 161.693 104.8 163.685C104.765 163.82 105.066 164.056 104.893 164.31C104.79 164.295 104.679 164.25 104.574 164.221C104.358 164.749 104.154 165.266 103.961 165.77C103.121 167.961 102.365 170.175 101.536 172.392C101.493 172.509 101.387 172.24 101.303 172.463C100.815 173.749 100.291 174.976 99.9696 176.368C99.9382 176.505 100.287 176.549 100.087 176.929C100.05 177.002 99.7944 177.549 99.6658 177.68C99.6475 177.697 99.5394 177.531 99.4624 177.722C99.0303 178.798 98.632 179.961 98.3183 181.084C98.2691 181.262 98.4964 181.138 98.4631 181.264C98.2207 182.175 97.7385 183.108 97.5761 184.02C97.4669 184.638 97.8203 184.52 97.9873 184.92C98.0081 184.982 97.8933 185.346 98.0488 185.416C98.4374 185.588 98.9307 185.566 99.3378 185.772C99.3833 185.789 99.3412 185.914 99.3448 185.96C99.3447 185.992 99.3709 185.938 99.3998 185.896C99.4309 185.866 99.4378 186.039 99.5049 186.001C99.5126 186.021 99.6872 185.732 99.7923 185.673C99.8631 185.636 99.9906 185.792 100.097 185.699C100.202 185.607 100.109 185.439 100.258 185.265C100.402 185.109 100.561 185.243 100.719 184.871ZM141.254 76.8395C141.271 77.2086 140.703 77.014 140.978 76.7426C140.992 76.7297 141.253 76.8206 141.254 76.8395ZM158.258 40.2842C158.31 40.796 157.836 40.8928 157.78 40.5321C157.725 40.1696 158.242 40.1293 158.258 40.2842ZM160.321 36.2693C160.299 36.8194 159.495 36.5386 159.876 36.1153C159.898 36.0904 160.323 36.2371 160.321 36.2693ZM98.5679 183.536C98.5761 183.537 98.4868 183.805 98.4784 183.806C98.25 183.878 98.4226 183.357 98.5679 183.536ZM162.341 32.2698C162.383 32.4595 162.077 32.8258 162.026 32.5872C161.985 32.395 162.29 32.0316 162.341 32.2698ZM135.001 93.0778C135.006 93.0872 134.94 93.2658 134.895 93.243C134.75 93.1686 134.896 92.9393 135.001 93.0778ZM165.332 25.2706C164.931 26.3217 165.315 27.2217 165.713 26.0587C165.785 25.8481 165.323 26.4151 165.373 26.1298C165.465 25.6083 166.003 25.4598 165.986 24.8813C165.983 24.7768 165.353 25.2104 165.33 25.2721C165.331 25.2716 165.332 25.2711 165.332 25.2706ZM141.836 77.3023C141.84 77.3114 141.74 77.5589 141.731 77.5617C141.499 77.6181 141.7 77.1194 141.836 77.3023ZM131.015 103.621C131.025 103.641 130.803 104.22 130.781 104.233C130.371 104.414 130.819 103.242 131.015 103.621ZM149.613 61.0691C149.91 60.8808 150.078 60.5732 149.957 60.2626C149.847 60.5295 149.726 60.7961 149.613 61.0691Z" fill="#686868"/>
<path d="M162.523 24.0178C161.764 24.2343 160.827 24.6478 160.132 24.9991C159.914 25.1088 160.068 25.1628 159.919 25.2435C159.717 25.3532 159.509 25.4164 159.303 25.5021C159.209 25.5409 159.116 25.5845 159.024 25.6383C158.923 25.6982 159.121 25.798 159.014 25.8573C158.439 26.1788 157.873 26.3989 157.313 26.7217C154.576 28.3231 152.105 30.0384 149.589 31.8426C148.76 32.4392 147.833 33.2729 146.937 33.8253C146.832 33.8896 146.807 33.7271 146.781 33.7306C146.375 33.7897 146.646 33.9624 146.474 34.133C145.792 34.8089 144.945 35.4331 144.172 35.9194C143.843 36.1262 143.988 35.6611 143.767 36.0232C143.751 36.0481 143.922 36.1176 143.846 36.1931C143.674 36.3637 143.286 36.6098 143.142 36.7288C142.866 36.9591 142.816 36.9934 142.542 37.1942C142.37 37.3209 142.192 37.4715 142.008 37.6232C141.789 37.8036 141.569 37.9814 141.338 38.1276C141.247 38.1842 141.266 37.9713 141.113 38.0501C140.958 38.1302 140.605 38.4084 140.505 38.5294C140.406 38.6498 140.533 38.7128 140.529 38.752C140.496 39.0798 139.879 39.1164 139.82 39.149C138.761 39.7547 138.038 40.5069 137.099 41.1414C136.387 41.622 135.582 42.0692 134.891 42.5176C134.077 43.0467 133.408 43.5623 132.591 44.0419C132.505 44.0925 132.507 43.8706 132.401 43.9322C132.305 43.9883 132.208 44.0452 132.11 44.1031C131.091 44.7046 130.074 45.3411 129.113 46.0442C129.007 46.1215 129.236 46.1789 129.135 46.2646C128.517 46.7884 127.587 47.7123 126.815 47.3279C126.361 47.6258 125.808 47.9815 125.462 48.3511C125.237 48.5896 125.591 48.5928 125.221 48.7188C125.138 48.7474 125.155 48.5542 125.036 48.6075C124.534 48.8325 124.043 49.1762 123.534 49.376C123.43 49.4163 123.386 49.2787 123.346 49.2722C123.015 49.2247 122.809 49.7381 122.739 49.8072C122.204 50.3293 121.709 50.5303 121.127 50.8702C120.992 50.949 121.058 50.6919 120.924 50.7621C120.233 51.1277 119.539 51.5448 118.918 51.9973C118.78 52.0986 118.996 52.1614 118.934 52.2171C118.659 52.4611 118.439 52.2345 118.174 52.462C118.117 52.51 118.222 52.61 118.218 52.6299C118.155 52.9407 117.831 52.7355 117.782 52.7554C117.147 53 116.946 53.5218 116.358 53.7987C116.288 53.8316 116.354 53.5921 116.159 53.6945C114.866 54.3753 113.554 55.1746 112.363 56.0079C112.18 56.1362 112.383 56.1729 112.379 56.194C112.309 56.5252 112.005 56.3059 111.936 56.33C111.832 56.3687 111.737 56.4177 111.648 56.4704C111.252 56.7055 110.958 57.0143 110.519 56.8837C108.46 58.2073 106.218 59.1623 104.278 60.6793C104.253 60.6982 104.384 60.8166 104.335 60.8536C103.735 61.304 103.733 61.0055 103.148 60.9752C103.005 60.9689 102.88 61.4453 102.853 61.5235C102.852 61.5268 102.852 61.5293 102.851 61.531C102.8 61.6804 103.032 61.8343 103.008 61.8717C102.798 62.1757 102.432 61.4351 102.038 61.6641C102.027 61.6723 102.154 61.7739 102.129 61.8058C102.053 61.9051 101.919 61.9132 101.845 62.0169C101.68 62.2534 101.801 62.6468 101.333 62.6512C101.272 62.652 101.107 62.2067 100.767 62.432C100.634 62.5211 100.014 62.8775 99.8572 63.0059C99.7016 63.1333 99.8959 63.1934 99.887 63.2062C99.5226 63.654 99.7445 63.6185 99.6626 64.0103C99.5794 64.4018 99.2867 63.7602 99.1525 63.7491C99.0189 63.7378 98.7625 64.0822 98.7097 64.1803C98.6559 64.2791 98.8088 64.2993 98.7514 64.3713C98.3686 64.8466 98.3578 64.2013 98.139 64.2026C97.6205 64.2062 97.5933 64.8292 97.2722 65.0822C97.1848 65.151 97.2009 65.003 97.1108 65.0444C96.7583 65.2078 96.642 65.4677 96.1876 65.5694C96.1118 65.587 95.6477 65.5031 95.5677 65.8205C95.5571 65.8657 95.7034 65.9282 95.5781 66.0385C95.3906 66.2037 95.0259 66.4597 94.7766 66.5617C94.5923 66.637 94.6721 66.3378 94.4972 66.5228C94.4195 66.6052 94.6575 66.6057 94.5061 66.7516C94.3547 66.8974 93.9072 67.1664 93.7344 67.2681C93.5632 67.3685 93.5706 67.1737 93.5512 67.1728C93.4361 67.1704 93.0699 67.3051 93.041 67.3233C91.5833 68.203 90.4001 69.2692 88.9564 70.0857C88.8432 70.1501 88.824 69.9596 88.8058 69.9679C88.3922 70.1481 88.9327 70.3407 88.7534 70.6364C88.6603 70.4398 88.5785 70.4245 88.4613 70.4742C88.3903 70.5044 88.3063 70.5584 88.1991 70.6105C88.0621 70.6768 88.0585 70.5194 88.0395 70.5154C87.7407 70.4656 87.7523 70.7716 87.7479 70.8387C87.7309 71.0856 87.4683 70.977 87.4557 71.143C87.4427 71.3081 87.7434 71.3451 87.4901 71.5067C87.3518 71.4486 87.3624 71.0551 87.1422 71.1356C86.3107 71.4383 85.1065 72.5348 84.5444 72.939C83.9828 73.3422 83.7844 73.4467 83.4739 73.7066C82.9133 74.1764 83.0021 73.8287 82.5652 73.9871C82.1274 74.1462 82.6384 74.5169 82.6548 74.6589C82.6721 74.8001 82.5415 74.7298 82.5141 74.832C82.4869 74.9341 82.6775 74.9111 82.537 75.0361C82.3968 75.161 81.847 75.2554 81.7185 75.1812C81.4461 75.0241 81.4733 74.6506 81.1204 75.0105C81.1002 75.0314 81.2631 75.1098 81.1814 75.1832C80.5301 75.761 79.7889 76.2635 79.13 76.828C79.0396 76.9057 79.2234 76.9914 79.1719 77.0383C78.6344 77.5276 78.6874 77.1422 78.1805 77.089C78.4924 77.4 78.4563 77.7407 78.0031 78.043C77.7299 78.2253 77.6739 78.0364 77.4239 78.0421C77.3489 78.0436 77.2263 78.2793 77.1423 78.2284C76.8674 78.0624 76.872 77.6715 76.4738 78.0874C76.4566 78.1061 76.6092 78.1956 76.5433 78.2504C76.1181 78.6044 75.8961 78.3876 75.3794 78.6809C74.9736 78.9112 74.3796 79.5168 73.95 79.829C74.2225 80.2306 73.7393 80.4094 73.3884 80.2369C73.1054 80.4347 72.7833 80.6178 72.5262 80.8361C72.4383 80.9107 72.577 80.989 72.5729 81.0095C72.5142 81.3289 72.2131 81.1345 72.1435 81.1635C71.854 81.2901 71.6159 81.4491 71.3832 81.611C71.0165 81.8664 70.6706 82.1249 70.1915 82.2486C70.1636 82.2557 69.9485 81.9927 69.904 82.3099C69.9016 82.3313 70.1981 82.3278 69.8972 82.5284C69.5958 82.7294 69.1104 83.2412 68.6004 83.3705C68.477 83.4021 68.0724 83.3292 67.9733 83.64C67.9604 83.6819 68.0414 83.7457 68.0289 83.8163C67.9872 84.0425 67.7384 83.7953 67.7349 84.1362C67.7314 84.4771 67.5225 84.8578 66.9853 84.9495C66.9685 84.9529 66.7262 84.784 66.5918 84.8701C66.3775 85.0078 66.0974 85.2422 65.8685 85.3778C65.759 85.4425 65.7425 85.2569 65.722 85.2656C64.9405 85.6255 64.4953 86.0656 63.7409 86.5895C63.6015 86.6866 63.0718 86.7352 62.8828 87.0569C62.6763 87.4089 63.4123 87.9301 62.6039 88.1796C62.2789 88.2804 61.3881 87.5934 61.149 88.3611C60.0863 88.8295 59.3045 89.6064 58.2067 90.0233C58.1571 90.0424 57.8683 89.8732 57.7658 89.9373C57.6124 90.0339 57.5925 90.2029 57.4856 90.2754C57.0356 90.584 56.5494 90.7311 56.1032 91.0105C55.9347 91.1157 56.0686 91.2008 55.864 91.3284C55.6627 91.4539 55.4322 91.3731 55.2003 91.6108C55.0235 91.792 55.0072 92.2394 54.7472 92.4411C54.6497 92.2845 54.5545 92.2338 54.4386 92.2347C54.3139 92.2389 54.1701 92.2961 53.9732 92.3524C53.897 92.3745 53.9031 92.2206 53.8637 92.2252C53.7009 92.2421 53.6464 92.3984 53.4853 92.4075C53.4472 92.4094 53.3817 92.2998 53.3471 92.295C53.055 92.2472 52.8629 92.6911 52.8302 92.768C52.7113 93.057 52.5221 92.9751 52.3911 93.138C52.2612 93.3003 52.5578 93.2355 52.3865 93.388C52.0284 93.7055 51.4969 93.9927 51.0894 94.2391C50.9256 94.3371 50.9515 94.1242 50.926 94.1348C50.5656 94.2966 50.3138 94.6559 49.9545 94.473C50.1364 95.2552 49.8093 94.7082 49.4612 94.8389C49.411 94.8575 49.3598 94.8901 49.3083 94.9425C49.2769 94.9752 49.4189 95.3703 49.6019 95.3413C49.6398 95.3352 49.6771 95.3199 49.7146 95.2992C49.8593 95.2196 50.0037 95.0602 50.2039 95.0303C50.2637 95.0213 50.738 95.1935 50.7878 95.1914C51.1743 95.1774 50.9036 94.617 50.9013 94.5788C50.8906 94.1584 51.4396 94.3219 51.544 94.2943C52.0176 94.1703 52.3175 93.894 52.7056 93.7773C52.9639 93.6976 53.1832 94.04 53.3549 93.9256C53.9121 93.5538 53.833 92.9443 54.627 93.0519C54.7591 93.0693 54.851 93.3462 55.0048 93.2117C55.047 93.1742 55.0937 93.1027 55.1492 92.9801C55.1665 92.9446 55.3154 92.4893 55.6013 92.5573C55.6371 92.566 55.7019 92.678 55.7365 92.6705C55.9677 92.618 56.0582 92.4464 56.2969 92.3653C56.5425 92.2802 56.8389 92.1937 57.0698 92.0091C57.2049 91.9006 57.2787 91.5791 57.3225 91.4854C57.4368 91.2226 57.7999 91.3343 57.8207 91.0841C57.8431 90.8318 57.4376 90.7037 57.703 90.3951C57.8842 90.6787 58.086 90.9606 58.2757 91.2414C59.0012 90.8065 59.6655 90.2939 60.4053 89.8787C60.4968 89.8277 60.4956 90.0378 60.5958 89.9873C61.0201 89.7725 61.3147 89.4506 61.7655 89.2454C62.1159 89.0865 62.573 89.0396 62.9425 88.8777C62.9566 88.4227 63.5331 88.2338 63.8867 87.9833C64.0098 87.8962 63.9488 87.8129 64.0238 87.7294C64.3086 87.4161 64.3192 87.8052 64.4422 87.7944C64.9672 87.7479 64.6109 87.0645 65.1007 86.7943C65.1263 86.7799 65.6499 86.9449 65.7055 86.9414C66.0636 86.9211 65.6772 86.7919 65.8323 86.6637C66.1163 86.429 66.2813 86.2157 66.7094 86.0982C66.8341 86.0646 67.2216 86.1295 67.3265 85.835C67.3403 85.7964 67.2551 85.6895 67.2729 85.6694C67.6001 85.3168 67.8313 85.6747 68.1328 85.6606C68.4341 85.6465 68.6308 85.1823 68.6576 85.0666C68.7293 84.766 68.4664 85.0734 68.4451 85.0612C68.1936 84.9145 68.4712 84.7971 68.6542 84.66C68.4647 84.2863 68.749 84.1418 68.8448 84.5192C68.8548 84.5607 68.6833 84.6198 68.6542 84.66C69.0383 84.9057 69.3654 84.7672 69.4943 84.2384C69.5544 83.9907 69.2991 83.9023 69.8071 83.6792C70.0374 83.5777 70.1065 83.8731 70.3351 83.824C70.8581 83.711 71.2713 83.1379 71.734 82.8977C71.9018 82.8107 71.8299 83.0416 71.9475 82.9866C72.027 82.9496 72.0987 82.905 72.1667 82.8571C72.3669 82.7161 72.5343 82.5466 72.7742 82.4482C72.8037 82.4363 72.8273 82.6163 72.919 82.5608C73.6129 82.1441 74.1514 81.6749 74.8598 81.2151C75.2016 80.9935 75.8648 80.6723 76.208 80.4268C76.8059 80.0012 77.4275 79.307 77.9813 79.0118C78.3421 78.8188 78.3579 79.0058 78.5659 79.0031C78.9676 78.999 79.2501 78.3443 79.2834 78.2497C79.2844 78.2467 78.9707 78.4078 79.0799 78.234C79.0732 78.0269 79.2797 78.2513 79.2834 78.2497C79.3056 78.1884 79.8687 77.77 80.002 77.7192C80.0745 77.6918 80.1257 77.8453 80.1618 77.8285C81.0192 77.4268 81.8213 76.94 82.5698 76.3537C82.5819 76.3418 82.4642 76.2103 82.4939 76.1842C82.9078 75.8152 83.3187 75.7983 83.7654 75.6535C84.2123 75.5085 84.4871 75.275 84.5442 74.8771C84.8492 74.7199 85.1836 74.3393 85.3741 74.1169C85.5645 73.8945 85.7848 74.1567 85.8091 74.1487C86.5718 73.9031 86.8369 73.4956 87.49 73.0324C87.8003 72.8114 88.4589 72.4418 88.8248 72.2498C89.0574 72.1281 89.1814 71.9924 89.3668 71.8818C89.4117 71.855 89.4603 71.8297 89.5149 71.8064C89.5527 71.7903 89.6001 71.9398 89.6137 71.938C89.9926 71.9101 89.6576 71.6852 89.68 71.5923C89.761 71.2549 89.8228 71.0632 90.2449 70.9282C90.3424 70.8968 90.8713 71.192 91.0397 71.1222C91.2585 71.0303 91.0817 70.9161 91.3135 70.8241C91.3332 70.8161 91.3926 70.918 91.5175 70.8329C92.0987 70.4389 92.7109 69.9739 93.3367 69.598C93.4219 69.5463 93.4123 69.7725 93.537 69.7005C94.1223 69.3622 94.7485 68.9669 95.2633 68.5477C95.3903 68.4437 95.2348 68.3856 95.2446 68.334C95.3063 68.02 95.7449 68.1519 95.7922 68.1307C96.9062 67.6413 97.5355 66.8978 98.6651 66.39C98.7273 66.3626 99.3575 66.4114 99.3923 66.0246C99.3938 65.9993 99.4265 65.6051 99.711 65.6912C99.7286 65.6967 99.6928 65.9108 99.8949 65.7705C100.1 65.6284 100.499 65.5196 100.696 65.191C100.761 65.0858 100.813 64.682 101.222 64.737C101.249 64.7419 101.971 64.9865 101.918 64.5551C101.908 64.4848 101.673 64.1338 102.11 64.1275C102.194 64.1267 102.126 64.2758 102.324 64.2279C102.625 64.1561 102.904 63.8618 103.313 63.8411C103.383 63.8385 103.76 63.9507 103.839 63.6535C103.851 63.607 103.725 63.5173 103.815 63.4466C103.85 63.419 103.886 63.3926 103.922 63.3671C104.334 63.0749 104.818 62.879 105.211 62.5527C105.364 62.426 105.162 62.2787 105.31 62.1247C105.455 61.9722 105.782 61.72 106.019 61.707C106.254 61.6944 106.23 62.1239 106.521 61.9946C107.785 61.4345 108.902 60.5789 110.103 59.8728C110.284 59.7663 110.196 59.964 110.462 59.8187C111.093 59.4731 112.02 59.0126 112.808 58.5292C113.25 58.2578 113.654 57.9746 113.912 57.7133C114.484 57.1362 113.542 57.4752 114.021 57.1013C114.249 56.9228 114.727 57.1371 114.796 57.1133C115.45 56.8982 115.772 56.5002 116.33 56.2496C116.445 56.1977 116.422 56.4075 116.519 56.3616C116.857 56.2038 117.148 55.9505 117.463 55.787C117.602 55.7157 117.642 55.8434 117.762 55.7633C118.052 55.572 118.291 55.373 118.523 55.0993C118.545 55.0743 118.283 55.0363 118.504 54.9037C118.859 54.6903 119.247 54.3295 119.721 54.2019C119.863 54.1643 120.017 54.4201 120.178 54.0902C120.212 54.0212 119.963 53.7507 120.424 53.8436C120.502 53.8586 121.226 53.9252 121.345 53.5461C121.377 53.4463 121.402 53.0936 121.572 53.0492C121.596 53.0441 121.595 53.2291 121.725 53.1726C122.183 52.9704 122.625 52.6961 123.093 52.4846C123.218 52.4285 123.125 52.6736 123.309 52.5854C123.814 52.3426 124.397 51.9575 124.845 51.6385C125.01 51.5208 124.82 51.4715 124.825 51.4512C124.908 51.1226 125.192 51.3372 125.27 51.3144C125.749 51.1694 125.993 50.8499 126.401 50.66C126.513 50.6073 126.516 50.7867 126.544 50.7864C126.833 50.7763 126.528 50.6287 126.652 50.5204C127.001 50.2161 127.445 49.9724 127.85 49.7591C127.998 49.6811 127.927 49.9332 128.06 49.861C128.849 49.4366 129.644 48.9497 130.347 48.4189C130.479 48.3189 130.318 48.2511 130.332 48.2062C130.418 47.8957 130.877 47.9785 130.959 47.9636C131.335 47.895 131.399 47.7131 131.684 47.5705C132.29 47.2674 132.931 46.8987 133.566 46.5087C134.414 45.9879 135.24 45.4329 135.943 44.9558C137.552 43.8638 138.751 42.9099 140.284 41.8488C140.381 41.7807 140.393 42.0018 140.478 41.945C141.551 41.2236 142.499 40.418 143.533 39.7273C143.558 39.7106 143.583 39.6939 143.608 39.6773C143.697 39.6181 143.676 39.8509 143.822 39.7608C144.121 39.5772 144.474 39.3096 144.727 39.0571C144.85 38.9343 144.575 38.9469 144.701 38.8258C144.996 38.5426 145.338 38.2801 145.692 38.0599C145.842 37.9669 145.732 38.2687 145.919 38.1365C147.196 37.239 148.458 36.3748 149.611 35.2839C149.689 35.2098 149.558 34.854 149.786 34.7806C149.859 34.8542 149.926 34.953 149.994 35.0379C151.883 33.7963 153.658 32.4429 155.555 31.2573C155.634 31.2078 155.598 31.4576 155.752 31.3631C156.651 30.8127 157.546 30.3554 158.39 29.6966C158.475 29.6316 158.265 29.3543 158.568 29.2577C158.621 29.2403 159.057 29.075 159.196 29.0921C159.215 29.0954 159.21 29.2746 159.343 29.2163C159.749 29.0371 160.156 28.8534 160.552 28.6755C160.96 28.4951 161.362 28.3033 161.749 28.1047C161.877 28.0384 161.673 27.9345 161.764 27.8859C162.421 27.5379 163.207 27.3821 163.812 27.0037C164.215 26.7512 163.954 26.5321 164.095 26.1775C164.115 26.1272 164.386 26.0289 164.348 25.865C164.253 25.4511 163.971 25.057 163.885 24.6109C163.876 24.5626 163.975 24.5319 164.046 24.4929C164.083 24.4734 164.105 24.4536 164.123 24.4227C164.122 24.3971 164.065 24.375 163.99 24.3376C163.962 24.3294 163.656 24.3489 163.561 24.2976C163.494 24.2622 163.526 24.0708 163.406 24.0373C163.284 24.0046 163.222 24.1775 163.035 24.1557C162.847 24.133 162.852 23.9244 162.523 24.0178ZM86.2342 73.1189C86.3624 72.8391 86.7229 73.318 86.4088 73.3532C86.3932 73.3543 86.2273 73.133 86.2342 73.1189ZM59.4328 89.9067C59.5982 89.5049 59.9912 89.7246 59.8877 90.021C59.7823 90.3181 59.3827 90.0285 59.4328 89.9067ZM56.2735 91.5187C56.5135 91.1393 56.9942 91.8412 56.5379 91.9073C56.5117 91.9112 56.2595 91.5408 56.2735 91.5187ZM162.977 26.4877C162.976 26.4793 163.173 26.3997 163.179 26.4059C163.348 26.5466 162.961 26.7037 162.977 26.4877ZM53.1295 93.0989C53.1794 92.9371 53.557 92.8709 53.4937 93.0727C53.4426 93.2351 53.0668 93.3006 53.1295 93.0989ZM97.4136 65.3379C97.4126 65.3281 97.5382 65.243 97.5616 65.2878C97.6367 65.432 97.4322 65.5018 97.4136 65.3379ZM47.8725 95.9711C48.6835 95.5872 48.8485 94.725 48.0283 95.1905C47.8771 95.274 48.4572 95.2424 48.284 95.3899C47.9618 95.6612 47.5435 95.361 47.2556 95.7353C47.2029 95.8043 47.8261 95.9956 47.8743 95.9714C47.8737 95.9713 47.8731 95.9712 47.8725 95.9711ZM85.9651 72.4359C85.9651 72.4264 86.1361 72.3051 86.1446 72.309C86.3436 72.4055 85.9993 72.6498 85.9651 72.4359ZM104.847 60.545C104.849 60.5245 105.266 60.2718 105.287 60.2781C105.66 60.4247 104.819 60.935 104.847 60.545ZM73.95 79.8444C73.6546 79.8075 73.4125 79.9362 73.3892 80.2362C73.5728 80.1033 73.7646 79.9778 73.95 79.8444Z" fill="#686868"/>
</svg>
