<svg width="309" height="118" viewBox="0 0 309 118" fill="none" xmlns="http://www.w3.org/2000/svg">
<path d="M47.9655 71.6304L27.1084 76.1567L47.9655 91.9988L91.9469 76.1567L100.108 54.4304L62.0214 48.9988L47.9655 71.6304Z" fill="#FAFAFA"/>
<path d="M89.2513 79.6304L68.1084 84.1567L89.2513 99.9988L133.835 84.1567L142.108 62.4304L103.5 56.9988L89.2513 79.6304Z" fill="#FAFAFA"/>
<path d="M245.108 55.9546L266.307 51.7598L245.494 35.2998L200.671 50.5314L191.997 72.4086L230.449 78.6381L245.108 55.9546Z" fill="#FAFAFA"/>
<path d="M171.655 51.3648L192.854 47.17L172.041 30.71L127.218 45.9416L118.544 67.8187L156.996 74.0483L171.655 51.3648Z" fill="#FAFAFA"/>
<path d="M154.108 67.9079L200.108 46.9988L191.368 81.9988L154.108 67.9079Z" fill="white"/>
<path d="M220.108 77.9079L266.108 56.9988L257.368 91.9988L220.108 77.9079Z" fill="white"/>
<path d="M188.108 44.9106L234.108 24.0015L225.368 59.0015L188.108 44.9106Z" fill="white"/>
<path d="M226.108 73.3552L181.339 57.9988L178.108 104.999L206.724 87.781L226.108 96.6225V73.3552Z" fill="#FAFAFA"/>
<path d="M133.108 43.3564L88.3392 28L85.1084 75L113.724 57.7822L133.108 66.6238V43.3564Z" fill="#FAFAFA"/>
<path d="M132.305 103.686L178.93 97.4807L161.216 54.5111L143.259 82.3712L122.11 83.12L132.305 103.686Z" fill="#FAFAFA"/>
<path d="M168.974 49.1746L215.599 42.9698L197.885 9.07467e-05L179.928 27.8602L158.779 28.609L168.974 49.1746Z" fill="#FAFAFA"/>
<path d="M13.8652 87.1582L60.4909 80.9534L42.7765 37.9837L24.8194 65.8439L3.67031 66.5927L13.8652 87.1582Z" fill="#FAFAFA"/>
<path d="M64.9736 58.176L111.599 51.9712L93.8849 9.00156L75.9278 36.8617L54.7787 37.6105L64.9736 58.176Z" fill="#FAFAFA"/>
<path d="M125.681 20.8649L131.886 67.4907L174.856 49.7762L146.996 31.8192L146.247 10.6701L125.681 20.8649Z" fill="#FAFAFA"/>
<path d="M283.687 38.1139L244.365 63.925L278.962 94.9616L283.06 62.0701L301.792 52.2237L283.687 38.1139Z" fill="#FAFAFA"/>
<path d="M186.406 18.3141L147.084 44.1252L181.68 75.1617L185.779 42.2703L204.511 32.4239L186.406 18.3141Z" fill="#FAFAFA"/>
</svg>
