<svg width="309" height="89" viewBox="0 0 309 89" fill="none" xmlns="http://www.w3.org/2000/svg">
<path d="M154.108 39.1066L200.108 18.1975L191.368 53.1975L154.108 39.1066Z" fill="white"/>
<path d="M47.9655 42.8291L27.1084 47.3554L47.9655 63.1975L91.9469 47.3554L100.108 25.6291L62.0214 20.1975L47.9655 42.8291Z" fill="#FAFAFA"/>
<path d="M89.2513 50.8291L68.1084 55.3554L89.2513 71.1975L133.835 55.3554L142.108 33.6291L103.5 28.1975L89.2513 50.8291Z" fill="#FAFAFA"/>
<path d="M245.108 27.1534L266.307 22.9586L245.494 6.49856L200.671 21.7302L191.997 43.6073L230.449 49.8368L245.108 27.1534Z" fill="#FAFAFA"/>
<path d="M171.655 22.5635L192.854 18.3687L172.041 1.90872L127.218 17.1403L118.544 39.0175L156.996 45.247L171.655 22.5635Z" fill="#FAFAFA"/>
<path d="M220.108 49.1066L266.108 28.1975L257.368 63.1975L220.108 49.1066Z" fill="white"/>
<path d="M226.108 44.5539L181.339 29.1975L178.108 76.1975L206.724 58.9797L226.108 67.8213V44.5539Z" fill="#FAFAFA"/>
<path d="M132.305 74.8843L178.93 68.6795L161.216 25.7098L143.259 53.5699L122.11 54.3187L132.305 74.8843Z" fill="#FAFAFA"/>
<path d="M13.8652 58.3569L60.4909 52.1521L42.7765 9.18246L24.8194 37.0426L3.67031 37.7914L13.8652 58.3569Z" fill="#FAFAFA"/>
<path d="M283.687 9.3126L244.365 35.1238L278.962 66.1603L283.06 33.2689L301.792 23.4224L283.687 9.3126Z" fill="#FAFAFA"/>
</svg>
