<svg width="145" height="155" viewBox="0 0 145 155" fill="none" xmlns="http://www.w3.org/2000/svg">
<path d="M31.7528 145.244L14.5737 37.8919L130.55 37.7539L112.543 146.21L31.7528 145.244Z" fill="#F7B0CC" stroke="#5B3DA8" stroke-width="1.5"/>
<path d="M141.934 1.60547L136.549 37.4814H7.74658L2.43115 1.60547H141.934ZM69.2554 11.5186V14.6084H62.9155V18.1865H81.312V14.6084H75.2192V11.5186H69.2554Z" fill="#D9D9D9"/>
<path d="M141.934 1.60547L136.549 37.4814H7.74658L2.43115 1.60547H141.934ZM69.2554 11.5186V14.6084H62.9155V18.1865H81.312V14.6084H75.2192V11.5186H69.2554Z" fill="#C4CDFA"/>
<path d="M131.792 34.7218L136.483 37.4125L141.865 1.60547L135.793 5.81401L131.792 34.7218Z" fill="#8064BF" stroke="#5B3DA8" stroke-width="1.5"/>
<path d="M10.255 35.4908L3.60781 3.92303L17.3895 2.73156L21.8921 35.5057L10.255 35.4908Z" fill="#8C87E3" fill-opacity="0.3"/>
<path d="M20.3691 41.3415L14.5737 37.8579L130.757 37.7539L124.755 41.3415H20.3691Z" fill="#AE86DB" stroke="#5B3DA8" stroke-width="1.5"/>
<path d="M12.642 34.7218L7.81256 37.4125L2.43115 1.60547L8.50249 5.81401L12.642 34.7218Z" fill="#8064BF" stroke="#5B3DA8" stroke-width="1.5"/>
<path d="M8.50249 5.81641L2.43115 1.67686H141.658L135.794 5.81641H8.50249Z" fill="#AE86DB" stroke="#5B3DA8" stroke-width="1.5"/>
<path d="M12.6057 34.7227L7.77881 37.4824H136.519L131.692 34.7227H12.6057Z" fill="#463477" stroke="#5B3DA8" stroke-width="1.5"/>
<path d="M71.478 49.7709H45.5845H43.4526L44.4742 75.5755L101.946 75.2277L99.8143 48.2148L71.478 49.7709Z" fill="white"/>
<path d="M47.5579 53.0937C47.582 53.1999 47.5671 53.3387 47.543 53.4463C47.5355 53.4805 47.4951 53.4654 47.4882 53.4892C47.4745 53.5314 47.496 53.5779 47.4793 53.6197C47.4737 53.6345 47.41 53.6191 47.4055 53.6346C47.3814 53.7226 47.4008 53.8017 47.391 53.8854C47.343 54.3083 47.3372 54.7284 47.3266 55.152C47.3234 55.2964 47.2735 55.468 47.3046 55.6108C47.3083 55.6274 47.3631 55.6151 47.3678 55.6181C47.4396 55.6654 47.3274 55.6534 47.314 55.6872C47.2633 55.8216 47.2621 55.9527 47.2863 56.0807C47.2872 56.0851 47.2881 56.0895 47.289 56.0939C47.3005 56.1459 47.408 56.0885 47.3487 56.1442C47.3447 56.148 47.2854 56.1371 47.2798 56.1519C47.2671 56.1853 47.2803 56.248 47.2768 56.2744C47.2697 56.3252 47.2706 56.3337 47.272 56.3821C47.2733 56.4452 47.2474 56.5221 47.2637 56.5913C47.2673 56.6061 47.3266 56.5838 47.3378 56.6072C47.349 56.6302 47.3467 56.6951 47.3334 56.716C47.3201 56.7372 47.2725 56.7304 47.2618 56.7345C47.1717 56.7683 47.3013 56.8344 47.3048 56.8435C47.3655 57.0123 47.2995 57.1575 47.3065 57.3182C47.3121 57.4424 47.3412 57.5642 47.3429 57.6817C47.3448 57.8221 47.3169 57.9334 47.3283 58.0685C47.3294 58.0826 47.3994 58.063 47.4009 58.0803C47.4169 58.2621 47.4169 58.4428 47.3769 58.626C47.3729 58.6442 47.3098 58.6237 47.302 58.642C47.2557 58.7536 47.1408 58.9371 47.4138 58.9916C47.4064 59.0662 47.3994 59.1575 47.3478 59.2274C47.3146 59.2725 47.2452 59.233 47.2764 59.2854C47.2833 59.2973 47.3418 59.279 47.3478 59.2969C47.3727 59.3731 47.357 59.4564 47.3908 59.5295C47.3978 59.5444 47.4507 59.538 47.4604 59.5419C47.5393 59.5747 47.414 59.6407 47.4053 59.6544C47.3403 59.7577 47.3708 59.833 47.373 59.9246C47.3735 59.9462 47.4437 59.9177 47.4467 59.9383C47.4615 60.0455 47.4602 60.1583 47.4332 60.2671C47.427 60.2913 47.3654 60.2719 47.3593 60.2837C47.3333 60.3353 47.4484 60.3404 47.4257 60.389C47.421 60.3992 47.3688 60.3958 47.3632 60.3978C47.2748 60.4302 47.4028 60.4496 47.4059 60.4568C47.4482 60.5483 47.3182 60.6139 47.3409 60.7042C47.3437 60.715 47.4084 60.6876 47.4124 60.7181C47.4392 60.9189 47.4303 61.1346 47.3862 61.3369C47.3795 61.3682 47.3291 61.3482 47.3231 61.3504C47.2293 61.3862 47.3577 61.4013 47.3629 61.4112C47.4009 61.4895 47.2972 61.5691 47.4514 61.6173C47.4132 61.959 47.5128 62.293 47.3912 62.6353C47.3898 62.6397 47.3267 62.6346 47.3242 62.6433C47.2933 62.7481 47.3901 62.7247 47.5123 62.7873C47.543 62.803 47.4011 62.8609 47.3908 62.866C47.3526 62.8843 47.2584 62.871 47.2511 62.8769C47.1939 62.9258 47.5025 62.905 47.5053 62.9676C47.5048 62.9696 47.4476 62.9638 47.4422 62.9693C47.4252 62.9864 47.4484 63.0017 47.4296 63.0185C47.3858 63.0571 47.2363 63.0766 47.3261 63.129C47.3377 63.1357 47.5124 63.1173 47.5066 63.174C47.5041 63.1964 47.5114 63.2966 47.5012 63.324C47.491 63.352 47.4337 63.3355 47.4314 63.3375C47.3599 63.4149 47.3277 63.3881 47.2188 63.43C47.1102 63.4719 47.3724 63.4504 47.4024 63.4643C47.4323 63.4783 47.373 63.5356 47.3522 63.5499C47.3313 63.5643 47.2947 63.5491 47.2831 63.5615C47.2073 63.6442 47.415 63.5907 47.4578 63.6151C47.5591 63.6726 47.3664 63.729 47.3497 63.7866C47.3452 63.8022 47.3891 63.7877 47.3938 63.8012C47.4119 63.8547 47.3525 63.8888 47.4109 63.9475C47.4204 63.957 47.5396 64.0013 47.455 64.037C47.4428 64.042 47.3937 64.0312 47.3838 64.0546C47.369 64.0894 47.361 64.1516 47.3788 64.1878C47.3919 64.2145 47.4706 64.1799 47.4472 64.2153C47.4368 64.231 47.3888 64.2047 47.3731 64.2341C47.3573 64.2633 47.3625 64.3363 47.3653 64.364C47.3681 64.3915 47.4282 64.3738 47.4324 64.3759C47.4563 64.3883 47.4878 64.4396 47.488 64.4443C47.5054 64.6783 47.4125 64.9033 47.4561 65.1297C47.4595 65.1476 47.5229 65.1329 47.5241 65.1356C47.5535 65.1961 47.3814 65.1547 47.3263 65.2003C47.4558 65.1885 47.4334 65.2149 47.4495 65.2579C47.4574 65.2786 47.5071 65.265 47.5124 65.2667C47.59 65.2945 47.4924 65.3204 47.4724 65.3269C47.3991 65.3507 47.4877 65.3694 47.4387 65.3856C47.3901 65.4018 47.3157 65.3725 47.3185 65.4144C47.3654 65.4242 47.4855 65.3879 47.5066 65.4188C47.5862 65.5354 47.5003 65.7611 47.4946 65.8581C47.4888 65.9546 47.4987 65.9855 47.4843 66.0422C47.4582 66.1439 47.5467 66.1032 47.5906 66.1639C47.6346 66.2248 47.4115 66.2038 47.3643 66.2148C47.317 66.2257 47.3665 66.2333 47.3407 66.2454C47.315 66.2575 47.2816 66.2351 47.2729 66.2614C47.2642 66.2876 47.3519 66.3547 47.4022 66.3617C47.5086 66.3766 47.618 66.34 47.582 66.4102C47.5799 66.4142 47.521 66.4039 47.5158 66.4193C47.476 66.5413 47.4786 66.6659 47.4439 66.7866C47.4391 66.8033 47.3736 66.7914 47.3701 66.8011C47.3328 66.9024 47.4407 66.8622 47.5645 66.9116C47.4023 66.9062 47.3047 66.9406 47.307 67.0164C47.3083 67.062 47.3785 67.0512 47.4296 67.0785C47.4449 67.0867 47.3978 67.1211 47.4313 67.1255C47.5407 67.1402 47.6609 67.1046 47.6158 67.1849C47.6137 67.1884 47.5538 67.1801 47.5507 67.192C47.5304 67.2691 47.6443 67.2733 47.6616 67.3552C47.6751 67.4193 47.6108 67.5374 47.6027 67.6118C47.4209 67.618 47.4655 67.686 47.592 67.709C47.5889 67.7574 47.5982 67.8084 47.5829 67.8553C47.5776 67.8714 47.5246 67.8633 47.519 67.8655C47.4311 67.9 47.5539 67.9156 47.5591 67.9257C47.6103 68.0354 47.5218 68.1306 47.6167 68.2338C47.6201 68.2374 47.7466 68.2382 47.6557 68.2708C47.6494 68.2729 47.5905 68.24 47.5882 68.2905C47.5859 68.3414 47.5222 68.4384 47.5837 68.5057C47.5985 68.5219 47.7028 68.5602 47.6242 68.5978C47.6135 68.6029 47.5771 68.5994 47.5572 68.6069C47.4939 68.6309 47.622 68.6371 47.5147 68.6668C47.4074 68.6964 47.3284 68.752 47.4062 68.8193C47.4085 68.8215 47.5103 68.8338 47.5097 68.8561C47.5086 68.8916 47.4896 68.9429 47.4919 68.9795C47.493 68.9971 47.5553 68.9832 47.5566 68.9862C47.5968 69.1031 47.5444 69.1899 47.5256 69.3182C47.522 69.3418 47.6105 69.4052 47.5447 69.4533C47.4727 69.5061 47.1622 69.4684 47.2406 69.5792C47.2719 69.6238 47.6655 69.6651 47.4664 69.7563C47.5234 69.9141 47.4261 70.0674 47.5046 70.2245C47.5081 70.2316 47.6183 70.2497 47.6175 70.2668C47.6161 70.292 47.5657 70.308 47.5631 70.3262C47.551 70.4022 47.5976 70.4693 47.5939 70.5424C47.5926 70.5701 47.5394 70.5627 47.5379 70.5958C47.5364 70.6289 47.6068 70.6479 47.5752 70.694C47.551 70.7288 47.4105 70.7685 47.3958 70.8138C47.536 70.8096 47.5344 70.8403 47.5737 70.8933C47.5813 70.9034 47.6296 70.8901 47.6357 70.8948C47.6617 70.9139 47.6221 70.9343 47.6503 70.9523C47.657 70.9567 47.7049 70.9549 47.7131 70.9584C47.7849 70.9878 47.6796 71.0458 47.6613 71.0557C47.5916 71.0939 47.6545 71.1077 47.6277 71.1359C47.6008 71.164 47.5641 71.1253 47.5484 71.1575C47.516 71.2242 47.5273 71.3078 47.528 71.374C47.5285 71.4005 47.5916 71.3797 47.5932 71.3834C47.6117 71.4373 47.5461 71.4954 47.6746 71.5203C47.3474 71.5722 47.7079 71.5518 47.6454 71.6327C47.6403 71.6391 47.4852 71.6536 47.4613 71.6309C47.4375 71.6083 47.4846 71.5704 47.4476 71.5392C47.4389 71.5318 47.2913 71.4936 47.2822 71.4879C47.2112 71.4434 47.4433 71.4267 47.456 71.4237C47.5925 71.3893 47.4332 71.3418 47.4217 71.3279C47.3692 71.2645 47.3995 71.2075 47.3617 71.1542C47.3372 71.1194 47.1849 71.1224 47.1883 71.0941C47.1997 71 47.4107 70.9583 47.2228 70.8782C47.1827 70.861 47.0172 70.8869 47.1451 70.8137C47.1532 70.8091 47.2707 70.754 47.1938 70.7281C47.1841 70.7248 47.1356 70.727 47.1313 70.7224C47.1036 70.6912 47.1413 70.6681 47.1213 70.6337C47.1013 70.5994 47.0719 70.5583 47.0866 70.5176C47.0954 70.493 47.1845 70.4581 47.2061 70.4456C47.2684 70.4103 47.1624 70.3798 47.2387 70.3563C47.3154 70.3326 47.4349 70.3674 47.4827 70.3118C47.3566 70.3152 47.2271 70.3162 47.1003 70.3184C47.0997 70.2013 47.1356 70.0842 47.125 69.9667C47.1235 69.9522 47.0564 69.97 47.0531 69.9545C47.0396 69.889 47.0854 69.8293 47.0632 69.7618C47.0458 69.7096 46.9717 69.6547 46.9512 69.6003C47.094 69.5606 47.0415 69.4802 47.0521 69.4199C47.0558 69.3988 47.0943 69.3986 47.1063 69.3832C47.1503 69.3251 47.0241 69.3568 47.0034 69.3423C46.915 69.28 47.2031 69.262 47.1926 69.1846C47.1922 69.1805 47.0363 69.1368 47.0265 69.1303C46.9622 69.089 47.0797 69.1207 47.0898 69.0927C47.1084 69.0415 47.1437 69.0052 47.0961 68.9481C47.0821 68.9314 46.9845 68.894 47.0572 68.8574C47.0667 68.8525 47.1176 68.8528 47.1204 68.8491C47.1672 68.7828 47.0075 68.7879 46.9519 68.7536C46.8963 68.7192 47.0041 68.6579 47.0354 68.6451C47.1162 68.6114 47.0714 68.6666 47.0796 68.6679C47.1763 68.683 47.1581 68.6424 47.1648 68.6106C47.3211 68.5993 47.3099 68.5557 47.1712 68.5776C47.1561 68.58 47.1717 68.6039 47.1648 68.6106C47.0101 68.5895 46.9883 68.5419 47.1296 68.4824C47.1958 68.4545 47.2752 68.4748 47.2433 68.4001C47.2288 68.3662 47.1216 68.3842 47.091 68.3549C47.0209 68.2879 47.1176 68.1929 47.0987 68.1217C47.0918 68.0959 47.0339 68.1238 47.0272 68.1063C47.0092 68.0597 47.0516 68.0161 47.0269 67.9697C47.0246 67.9655 46.9633 67.9786 46.9619 67.9639C46.95 67.8526 46.9854 67.7537 46.9815 67.6364C46.9795 67.5798 46.9412 67.4803 46.9455 67.4216C46.9527 67.3198 47.0372 67.1922 47.0117 67.1058C46.9953 67.0498 46.9341 67.0649 46.8909 67.0424C46.8074 66.9991 46.95 66.9102 46.9721 66.8981C46.9728 66.8977 46.9895 66.9457 47.0201 66.9184C47.0855 66.9005 46.9724 66.8986 46.9721 66.8981C46.9864 66.8902 46.9963 66.7926 46.9837 66.7739C46.9768 66.7637 46.9185 66.7721 46.916 66.7667C46.8581 66.6401 46.8377 66.5095 46.8594 66.3768C46.8605 66.3744 46.9261 66.3751 46.9278 66.3696C46.9537 66.2921 46.8715 66.2468 46.8213 66.1862C46.7711 66.1255 46.7849 66.0757 46.8957 66.0332C46.8795 65.9862 46.9263 65.9158 46.9547 65.8753C46.9832 65.8348 46.8555 65.8347 46.8529 65.8314C46.7677 65.7273 46.8379 65.6622 46.8446 65.5508C46.8479 65.4984 46.8249 65.3928 46.8085 65.336C46.7954 65.291 46.8241 65.2624 46.8032 65.2215C46.8004 65.2159 46.7439 65.224 46.7417 65.2224C46.6718 65.1787 46.8114 65.1952 46.8358 65.1845C46.9244 65.1458 46.9714 65.1222 46.9265 65.0645C46.9162 65.0512 46.7148 65.0198 46.7021 64.9953C46.6859 64.9634 46.758 64.9727 46.7392 64.9394C46.7376 64.9365 46.6935 64.939 46.6945 64.9177C46.6988 64.8188 46.7199 64.7106 46.7112 64.6092C46.7101 64.5954 46.6408 64.6162 46.6382 64.5962C46.6259 64.5023 46.6241 64.4004 46.6529 64.3061C46.6603 64.283 46.7099 64.2951 46.7243 64.2896C46.8111 64.2556 46.6812 64.2182 46.6785 64.2112C46.6098 64.0449 46.7202 63.9144 46.6577 63.7435C46.6541 63.7342 46.5137 63.668 46.6301 63.631C46.6378 63.6284 46.7569 63.5916 46.6733 63.5671C46.6681 63.5656 46.607 63.5879 46.6118 63.5533C46.6166 63.5186 46.5729 63.465 46.639 63.415C46.6598 63.3992 46.7784 63.3589 46.6808 63.3185C46.674 63.3159 46.4545 63.2555 46.6028 63.2244C46.6272 63.2193 46.7855 63.2167 46.7021 63.1666C46.686 63.157 46.6515 63.1771 46.6284 63.1511C46.5927 63.1112 46.6327 63.0548 46.5601 63.0073C46.5472 62.9991 46.4384 62.9662 46.5185 62.9327C46.5311 62.9275 46.5842 62.9341 46.5895 62.918C46.6146 62.8418 46.5759 62.764 46.6091 62.685C46.6208 62.6571 46.7067 62.6674 46.7283 62.6379C46.75 62.6085 46.7695 62.5503 46.7292 62.5223C46.689 62.4943 46.5544 62.5325 46.5416 62.4885C46.4862 62.2992 46.5576 62.101 46.5611 61.9087C46.5616 61.8802 46.514 61.9059 46.5113 61.864C46.501 61.7094 46.4438 61.44 46.5416 61.3029C46.6197 61.1904 46.6886 61.3251 46.7188 61.2401C46.7331 61.1992 46.5732 61.1625 46.5678 61.153C46.5132 61.0607 46.5804 60.9924 46.5553 60.9092C46.5501 60.892 46.4868 60.9118 46.4831 60.8972C46.4698 60.8473 46.4961 60.793 46.4888 60.7439C46.4854 60.722 46.4366 60.7281 46.4395 60.7078C46.4459 60.6591 46.4647 60.6156 46.5086 60.5669C46.5126 60.5625 46.5747 60.5886 46.5754 60.553C46.5765 60.4955 46.6187 60.4227 46.5692 60.3594C46.5543 60.3407 46.4424 60.3445 46.5178 60.2986C46.5336 60.289 46.6684 60.2946 46.5502 60.25C46.5306 60.2424 46.3705 60.1661 46.4696 60.1214C46.4957 60.1095 46.6045 60.0776 46.5862 60.0548C46.5833 60.0518 46.5238 60.0671 46.5171 60.0479C46.4945 59.9796 46.498 59.9099 46.4761 59.8382C46.4701 59.8193 46.4092 59.8504 46.4023 59.8222C46.3832 59.7446 46.3949 59.647 46.4111 59.571C46.4172 59.543 46.4696 59.5599 46.4751 59.5577C46.5649 59.5213 46.441 59.5075 46.4334 59.4971C46.3876 59.4332 46.4431 59.3769 46.4251 59.3154C46.4203 59.2983 46.3622 59.3131 46.3568 59.3099C46.3042 59.2764 46.4107 59.2984 46.4213 59.2754C46.4515 59.211 46.4438 59.1414 46.4337 59.079C46.4298 59.056 46.3629 59.0848 46.3603 59.0642C46.3433 58.9416 46.3442 58.8095 46.3766 58.6887C46.3828 58.6658 46.4358 58.6778 46.4475 58.6726C46.5299 58.6364 46.4137 58.5949 46.4023 58.5835C46.3505 58.5346 46.396 58.513 46.3854 58.4687C46.3332 58.2552 46.3523 57.984 46.3627 57.7817C46.3756 57.5122 46.4166 57.3033 46.3929 57.0526C46.3915 57.0361 46.3225 57.0557 46.3203 57.0416C46.2958 56.8603 46.3155 56.684 46.2877 56.5052C46.2856 56.4907 46.2204 56.5144 46.2147 56.4913C46.2027 56.445 46.2036 56.3814 46.2225 56.3308C46.2317 56.3062 46.2897 56.3362 46.2978 56.3115C46.3166 56.254 46.3188 56.1941 46.3058 56.1384C46.3003 56.1156 46.2388 56.1509 46.2324 56.1257C46.2322 56.1247 46.232 56.1237 46.232 56.1225C46.2158 55.9004 46.1952 55.6925 46.2732 55.467C46.2786 55.4516 46.4154 55.4324 46.3877 55.4018C46.3495 55.4011 46.3046 55.4031 46.2639 55.4038C46.2284 55.0879 46.2627 54.7745 46.2565 54.4564C46.2562 54.4427 46.1844 54.4695 46.1835 54.4429C46.1782 54.2946 46.1517 54.1467 46.2176 53.9925C46.224 53.9766 46.3523 53.9787 46.331 53.9343C46.3271 53.9256 46.3073 53.8627 46.2787 53.8441C46.2744 53.8418 46.2152 53.857 46.2125 53.8348C46.1981 53.7102 46.206 53.5763 46.2372 53.4488C46.2422 53.4272 46.3068 53.4472 46.311 53.4318C46.3404 53.3272 46.2873 53.2182 46.3408 53.1167C46.3769 53.0494 46.4879 53.0684 46.5947 53.03C46.6097 53.023 46.6104 52.9837 46.6733 52.9784C46.8314 52.9662 47.0057 52.9788 47.1742 52.9631C47.2106 52.962 47.1687 52.9027 47.2582 52.9355C47.2642 52.9375 47.295 52.9758 47.3253 52.9842C47.3461 52.99 47.4097 52.9749 47.4367 52.9879C47.4636 53.0006 47.4106 53.0188 47.4425 53.0395C47.475 53.0632 47.5473 53.0468 47.5579 53.0937ZM47.0819 65.6932C47.1416 65.6544 46.9172 65.6586 46.9725 65.6955C46.9755 65.6973 47.079 65.6952 47.0819 65.6932ZM47.3046 70.0776C47.4015 70.0259 47.2547 69.9997 47.1798 70.0364C47.105 70.0732 47.2753 70.0934 47.3046 70.0776ZM47.3978 70.5658C47.4734 70.5071 47.1552 70.5119 47.222 70.5685C47.2257 70.5718 47.3934 70.5692 47.3978 70.5658ZM46.6324 53.1901C46.6354 53.1895 46.637 53.1608 46.634 53.1596C46.5622 53.1471 46.5589 53.2057 46.6324 53.1901ZM47.4972 71.05C47.5394 71.0309 47.4877 70.9833 47.4351 71.007C47.3929 71.0262 47.4446 71.0739 47.4972 71.05ZM47.2404 63.7928C47.2437 63.7921 47.2458 63.7708 47.227 63.772C47.1662 63.776 47.1846 63.8048 47.2404 63.7928ZM47.5362 71.8788C47.543 71.7557 47.8023 71.6703 47.7784 71.8049C47.7741 71.8293 47.6924 71.7564 47.6701 71.7882C47.6294 71.8463 47.7958 71.8766 47.7099 71.9378C47.6942 71.9489 47.5353 71.8858 47.5359 71.8786C47.536 71.8786 47.5361 71.8787 47.5362 71.8788ZM47.3502 65.6609C47.3532 65.66 47.3547 65.6309 47.3518 65.6303C47.28 65.6176 47.2767 65.6763 47.3502 65.6609ZM47.3266 62.5598C47.3328 62.5579 47.3358 62.4901 47.3299 62.4882C47.2121 62.4579 47.2056 62.595 47.3266 62.5598ZM47.5979 67.6132C47.6708 67.6419 47.6809 67.6797 47.5921 67.7089C47.5955 67.677 47.5949 67.6452 47.5979 67.6132Z" fill="#8064BF"/>
<path d="M49.039 70.9735C49.315 70.9504 49.6764 70.9668 49.9529 70.992C50.0408 70.9998 49.9966 71.0401 50.059 71.0473C50.1678 71.0614 50.2896 71.0403 50.3974 71.0574C50.4349 71.0632 50.389 71.1268 50.4285 71.1315C50.653 71.1565 50.8627 71.1379 51.0783 71.1486C52.1713 71.2011 53.2634 71.2114 54.3613 71.2267C54.7355 71.2315 55.1762 71.2833 55.5507 71.2537C55.5942 71.2502 55.5676 71.1952 55.5758 71.1906C55.7056 71.1192 55.6636 71.2313 55.7499 71.2451C56.0965 71.2979 56.4412 71.3 56.778 71.2765C56.7866 71.2759 56.7953 71.2752 56.8038 71.2746C56.9399 71.2637 56.8017 71.1555 56.9402 71.2155C56.9499 71.2195 56.9158 71.2786 56.9535 71.2844C57.0388 71.2975 57.2031 71.285 57.2712 71.2888C57.4024 71.2965 57.4243 71.2956 57.5503 71.2947C57.7149 71.2942 57.9113 71.3209 58.0929 71.3054C58.1316 71.3019 58.0795 71.2424 58.1413 71.2314C58.2025 71.2204 58.37 71.2235 58.4238 71.237C58.4774 71.2506 58.4552 71.2981 58.4648 71.3089C58.5436 71.3994 58.7278 71.2704 58.752 71.267C59.196 71.2082 59.5671 71.2758 59.9848 71.2705C60.3082 71.2663 60.627 71.2385 60.9322 71.2381C61.2973 71.2377 61.5833 71.2669 61.9353 71.2569C61.9721 71.256 61.9281 71.1858 61.9731 71.1844C62.4472 71.1704 62.9162 71.1724 63.3881 71.2143C63.4349 71.2186 63.3754 71.2815 63.4222 71.2894C63.7074 71.337 64.1724 71.4539 64.3411 71.1814C64.534 71.1896 64.7706 71.1976 64.947 71.2499C65.0607 71.2836 64.9514 71.3527 65.0905 71.3221C65.1219 71.3152 65.0802 71.2565 65.1274 71.2507C65.3278 71.2266 65.5424 71.2432 65.7355 71.2102C65.775 71.2034 65.7635 71.1504 65.7746 71.1407C65.8677 71.0621 66.0268 71.1882 66.0614 71.197C66.3232 71.2632 66.5219 71.2334 66.76 71.2322C66.816 71.2319 66.7489 71.1614 66.8028 71.1586C67.0825 71.1449 67.3755 71.1474 67.6554 71.1756C67.7177 71.1821 67.6613 71.2435 67.6911 71.2497C67.8224 71.2763 67.8471 71.1612 67.9711 71.1844C67.9971 71.1892 67.9831 71.2414 67.9879 71.247C68.0632 71.3358 68.1262 71.2079 68.1454 71.2049C68.3871 71.1636 68.5446 71.2943 68.7813 71.2726C68.8097 71.2698 68.7449 71.2048 68.8246 71.2012C69.3485 71.1765 69.9081 71.1876 70.4288 71.2338C70.5094 71.2409 70.4526 71.2911 70.4577 71.2971C70.5414 71.3913 70.5933 71.263 70.6196 71.2579C70.8266 71.2207 71.0231 71.3253 71.1636 71.1716C72.047 71.2133 72.9243 71.117 73.8012 71.2422C73.8124 71.2436 73.7932 71.3067 73.8155 71.3093C74.0844 71.3412 74.0336 71.2442 74.2079 71.1225C74.2516 71.092 74.3881 71.2345 74.4002 71.2449C74.4441 71.2833 74.4002 71.3774 74.4149 71.3847C74.5361 71.4425 74.5125 71.1336 74.6754 71.1314C74.6806 71.1319 74.6599 71.189 74.6736 71.1945C74.7163 71.2118 74.7582 71.1886 74.8001 71.2077C74.8961 71.2518 74.9319 71.4016 75.077 71.3123C75.0954 71.3008 75.0648 71.1258 75.2114 71.1322C75.2695 71.1349 75.5301 71.1286 75.6004 71.1391C75.6721 71.1496 75.6237 71.2067 75.6288 71.2091C75.8226 71.2814 75.7499 71.3133 75.848 71.4227C75.9463 71.5317 75.9161 71.2691 75.9553 71.2393C75.9945 71.2096 76.1373 71.2694 76.1726 71.2904C76.2078 71.3114 76.1647 71.3479 76.1959 71.3596C76.4031 71.4363 76.2848 71.228 76.3522 71.1854C76.5114 71.0846 76.6392 71.278 76.787 71.2952C76.827 71.2999 76.7938 71.2559 76.8294 71.2513C76.9697 71.2336 77.0527 71.2934 77.2107 71.2357C77.2365 71.2262 77.3632 71.1074 77.4474 71.1924C77.4594 71.2046 77.4265 71.2536 77.4862 71.2638C77.5753 71.279 77.736 71.2876 77.8318 71.2701C77.9025 71.2572 77.8202 71.1782 77.9098 71.2019C77.9496 71.2125 77.8767 71.2603 77.9514 71.2763C78.0257 71.2923 78.2157 71.2878 78.2881 71.2853C78.3594 71.2827 78.3196 71.2225 78.3253 71.2184C78.3598 71.1945 78.4964 71.1635 78.5085 71.1634C79.118 71.1482 79.6929 71.2433 80.2854 71.2019C80.3322 71.1987 80.3002 71.1351 80.3073 71.1339C80.4673 71.1051 80.343 71.2769 80.4559 71.3325C80.438 71.2028 80.5045 71.2254 80.6175 71.2097C80.672 71.2021 80.6417 71.1521 80.6466 71.1469C80.7266 71.0695 80.7843 71.1675 80.7991 71.1875C80.8537 71.2611 80.9111 71.1726 80.9483 71.2217C80.9855 71.2705 80.9023 71.3447 81.0112 71.3423C81.0412 71.2954 80.9587 71.1749 81.0412 71.1542C81.3516 71.0757 81.9294 71.1637 82.1807 71.1704C82.4307 71.1771 82.5121 71.1675 82.6577 71.1824C82.9192 71.2094 82.8224 71.1205 82.9842 71.0771C83.1466 71.0338 83.0703 71.2567 83.0943 71.3041C83.1179 71.3515 83.1424 71.302 83.1714 71.3279C83.2003 71.3537 83.1389 71.387 83.2062 71.3959C83.2735 71.4049 83.4563 71.3177 83.4796 71.2675C83.5287 71.1612 83.4442 71.0514 83.623 71.0881C83.6333 71.0902 83.6008 71.149 83.6401 71.1544C83.9532 71.1953 84.2767 71.1939 84.5871 71.2297C84.6299 71.2347 84.5925 71.3001 84.6174 71.3037C84.8768 71.3419 84.7829 71.2336 84.9234 71.1102C84.8936 71.2724 84.9733 71.3704 85.1704 71.3688C85.289 71.3679 85.2676 71.2975 85.3437 71.2467C85.3665 71.2314 85.4511 71.2789 85.4659 71.2454C85.5147 71.1362 85.4343 71.0156 85.6381 71.0614C85.647 71.0636 85.6195 71.1234 85.6502 71.1266C85.8484 71.1476 85.8707 71.0337 86.0849 71.0171C86.2528 71.0042 86.5532 71.0696 86.7456 71.0784C86.7439 71.2603 86.9249 71.2163 86.997 71.0899C87.1225 71.0934 87.2557 71.0846 87.376 71.1004C87.4173 71.1058 87.3909 71.1588 87.3962 71.1644C87.4772 71.2526 87.5296 71.1299 87.5563 71.1248C87.8463 71.0745 88.0848 71.1639 88.3621 71.0699C88.372 71.0665 88.3863 70.9399 88.462 71.0312C88.4669 71.0375 88.3756 71.0962 88.5068 71.099C88.6387 71.1017 88.8843 71.1662 89.0649 71.1053C89.1086 71.0906 89.2182 70.9866 89.3083 71.0656C89.3203 71.0763 89.3078 71.1127 89.3252 71.1327C89.3815 71.1962 89.41 71.0681 89.4766 71.1757C89.5432 71.2834 89.6798 71.3629 89.8622 71.2856C89.868 71.2834 89.91 71.1816 89.9678 71.1824C90.0598 71.1839 90.1913 71.2032 90.2866 71.2013C90.3324 71.2004 90.3023 71.1379 90.3102 71.1366C90.6178 71.0974 90.8381 71.1505 91.1695 71.1705C91.2302 71.1743 91.4036 71.0863 91.5222 71.1525C91.6522 71.225 91.524 71.5353 91.8193 71.4579C91.9382 71.4269 92.084 71.0334 92.3013 71.2334C92.7165 71.1777 93.1052 71.2764 93.521 71.1991C93.5397 71.1956 93.5976 71.0856 93.6417 71.0865C93.7072 71.0881 93.7439 71.1386 93.7907 71.1414C93.9869 71.1542 94.1658 71.1081 94.3552 71.1124C94.4271 71.1139 94.4027 71.167 94.4884 71.1688C94.5741 71.1706 94.6303 71.1003 94.747 71.1323C94.8352 71.1568 94.9244 71.2977 95.0408 71.3127C95.0433 71.1725 95.1231 71.1743 95.2644 71.1354C95.2916 71.1279 95.2617 71.0795 95.2745 71.0734C95.3267 71.0476 95.3758 71.0873 95.4253 71.0593C95.4373 71.0526 95.4372 71.0047 95.4471 70.9965C95.5304 70.9249 95.6708 71.0307 95.6949 71.0491C95.7873 71.1191 95.8292 71.0563 95.8998 71.0834C95.9703 71.1105 95.866 71.1469 95.948 71.1628C96.1181 71.1958 96.3365 71.1851 96.5085 71.185C96.5772 71.1847 96.5295 71.1214 96.5393 71.1199C96.681 71.1018 96.8255 71.1678 96.9026 71.0395C97.0055 71.3673 96.9878 71.0064 97.1918 71.0696C97.2078 71.0747 97.2303 71.23 97.1692 71.2537C97.1081 71.2774 97.0143 71.23 96.9296 71.2667C96.9095 71.2754 96.7959 71.4227 96.7803 71.4318C96.6577 71.5025 96.6371 71.2701 96.6304 71.2575C96.5545 71.1206 96.4157 71.2796 96.3784 71.291C96.2086 71.343 96.0634 71.3122 95.9215 71.3496C95.8286 71.3738 95.8216 71.5263 95.7484 71.5226C95.5051 71.5104 95.4175 71.299 95.1911 71.4864C95.1426 71.5263 95.1935 71.6922 95.0161 71.5636C95.0048 71.5555 94.8731 71.4374 94.7983 71.5142C94.789 71.5239 94.7899 71.5724 94.7774 71.5767C94.6939 71.6041 94.6374 71.5662 94.5462 71.586C94.4551 71.6057 94.3456 71.6347 94.2412 71.6197C94.1782 71.6107 94.0964 71.5213 94.0661 71.4996C93.9803 71.4369 93.8908 71.5427 93.8372 71.4662C93.7832 71.3893 93.8852 71.27 93.7456 71.2217C93.7421 71.3479 93.732 71.4774 93.7254 71.6044C93.4212 71.6039 93.1206 71.5672 92.8144 71.5768C92.7765 71.5781 92.8162 71.6454 92.7755 71.6485C92.6041 71.6616 92.4537 71.6152 92.2763 71.6368C92.139 71.6538 91.9892 71.7275 91.8459 71.7475C91.7567 71.6044 91.5428 71.6562 91.3873 71.645C91.3328 71.6412 91.336 71.6026 91.2971 71.5905C91.1505 71.546 91.2206 71.6726 91.1809 71.6932C91.0104 71.781 90.9919 71.4927 90.7899 71.5024C90.7792 71.5029 90.6504 71.6584 90.6326 71.6682C90.519 71.7322 90.6129 71.6149 90.5412 71.6045C90.4102 71.5854 90.3191 71.5499 90.1663 71.597C90.1215 71.6109 90.015 71.7082 89.9268 71.6352C89.9152 71.6256 89.9209 71.5747 89.9116 71.5718C89.7439 71.5244 89.7416 71.6842 89.647 71.7395C89.5523 71.7949 89.4037 71.6865 89.3733 71.6551C89.2939 71.5739 89.4329 71.6192 89.437 71.6111C89.4856 71.5144 89.3785 71.5323 89.2964 71.5253C89.2825 71.3688 89.168 71.3797 89.2114 71.5186C89.2163 71.5338 89.2799 71.5184 89.2964 71.5253C89.2265 71.6799 89.1008 71.7013 88.96 71.5594C88.8941 71.493 88.9545 71.4137 88.7575 71.445C88.668 71.4591 88.7044 71.5665 88.6253 71.597C88.4443 71.6664 88.2071 71.5689 88.0205 71.5872C87.9527 71.5938 88.0195 71.652 87.9733 71.6586C87.8505 71.6762 87.7416 71.6333 87.6186 71.6576C87.6075 71.6599 87.6356 71.7213 87.5972 71.7226C87.3069 71.7335 87.0537 71.6972 86.7485 71.7001C86.6013 71.7015 86.3391 71.739 86.1872 71.7341C85.9234 71.726 85.6006 71.6403 85.3737 71.6651C85.2266 71.6809 85.2597 71.7423 85.1972 71.7853C85.0765 71.8685 84.8595 71.725 84.8303 71.7027C84.8294 71.702 84.9556 71.6858 84.8878 71.6549C84.8477 71.5893 84.8318 71.7024 84.8303 71.7027C84.8111 71.6884 84.5587 71.6776 84.5089 71.69C84.4818 71.6968 84.4978 71.7552 84.4837 71.7577C84.149 71.8144 83.8081 71.8337 83.4654 71.8107C83.4594 71.8096 83.4676 71.7439 83.4534 71.7422C83.2547 71.7156 83.129 71.7973 82.9666 71.847C82.8041 71.8967 82.6759 71.8824 82.5768 71.7712C82.453 71.7869 82.2748 71.7395 82.1724 71.7106C82.0699 71.6817 82.0574 71.8094 82.0484 71.8121C81.7698 71.8963 81.6076 71.8254 81.3188 71.8177C81.183 71.8138 80.9067 71.8359 80.7576 71.8517C80.6395 71.8645 80.568 71.8355 80.4595 71.856C80.4448 71.8587 80.4604 71.9153 80.456 71.9175C80.3356 71.987 80.3921 71.8475 80.3667 71.823C80.2749 71.734 80.2182 71.6867 80.064 71.7311C80.0284 71.7413 79.927 71.9424 79.8622 71.955C79.778 71.9709 79.809 71.8988 79.7207 71.9173C79.7131 71.9188 79.7152 71.963 79.66 71.9617C79.4035 71.9565 79.1248 71.9343 78.8606 71.9421C78.8245 71.943 78.8717 72.0125 78.8195 72.015C78.5744 72.0264 78.3098 72.0272 78.0676 71.9974C78.0084 71.9899 78.0448 71.9403 78.0318 71.9259C77.9519 71.8387 77.8421 71.9682 77.8238 71.9709C77.3849 72.038 77.0568 71.9262 76.607 71.9871C76.5826 71.9907 76.3969 72.1304 76.3121 72.0136C76.3062 72.0059 76.2222 71.8864 76.1504 71.9697C76.146 71.9749 76.1981 72.0363 76.1084 72.0311C76.0188 72.0259 75.8755 72.0692 75.7521 72.0025C75.7131 71.9816 75.62 71.8625 75.5057 71.9598C75.4981 71.9666 75.3198 72.1855 75.2535 72.0368C75.2428 72.0124 75.2516 71.854 75.1132 71.9369C75.0868 71.9529 75.1356 71.9876 75.0657 72.0105C74.9587 72.0458 74.8161 72.0053 74.6856 72.0774C74.6629 72.0901 74.5667 72.1988 74.4877 72.1182C74.4753 72.1056 74.4978 72.0525 74.4566 72.0471C74.2609 72.0212 74.0554 72.0591 73.8533 72.0251C73.782 72.0132 73.8173 71.9273 73.7429 71.9053C73.6685 71.8834 73.5192 71.8633 73.4426 71.9032C73.3659 71.9433 73.4518 72.0783 73.3364 72.0906C72.8393 72.1442 72.3316 72.0706 71.8327 72.0652C71.7586 72.0644 71.8205 72.1123 71.7115 72.1146C71.3092 72.1232 70.6036 72.1777 70.2574 72.0785C69.9732 71.9991 70.3295 71.9316 70.1119 71.9006C70.0069 71.8858 69.8959 72.0454 69.8708 72.0507C69.6255 72.1043 69.4549 72.0364 69.2363 72.0606C69.1912 72.0656 69.2363 72.1292 69.1979 72.1327C69.0672 72.1455 68.9287 72.1186 68.8004 72.1254C68.7433 72.1286 68.7544 72.1774 68.7018 72.1743C68.576 72.1674 68.4651 72.1482 68.3429 72.1038C68.3317 72.0997 68.4057 72.0379 68.3134 72.0368C68.164 72.0351 67.979 71.9921 67.8098 72.041C67.7597 72.0557 67.7588 72.1676 67.6469 72.0917C67.6235 72.0758 67.6514 71.941 67.5239 72.0588C67.5024 72.0784 67.2884 72.2377 67.1819 72.138C67.1538 72.1118 67.0815 72.0026 67.0206 72.0207C67.0123 72.0235 67.0463 72.0833 66.9957 72.0898C66.8163 72.1116 66.6355 72.1074 66.4473 72.1286C66.3976 72.1343 66.4724 72.1956 66.3984 72.2022C66.1949 72.2205 65.9427 72.2077 65.7469 72.1907C65.6746 72.1843 65.7239 72.1321 65.7185 72.1266C65.633 72.0364 65.5849 72.1601 65.5571 72.1676C65.3867 72.2127 65.246 72.1566 65.0845 72.1739C65.0396 72.1785 65.0722 72.2369 65.0633 72.2422C64.9713 72.2945 65.039 72.1882 64.9803 72.1773C64.8159 72.1464 64.6345 72.1534 64.4713 72.1629C64.4114 72.1664 64.4796 72.2337 64.4258 72.2361C64.1055 72.2518 63.7626 72.2495 63.4521 72.2158C63.3934 72.2093 63.4296 72.1564 63.4172 72.1446C63.3316 72.0618 63.2121 72.1776 63.1814 72.1889C63.0494 72.2402 62.9976 72.1945 62.8817 72.2045C62.322 72.2545 61.6198 72.2324 61.0953 72.2198C60.3967 72.2039 59.8585 72.1606 59.2046 72.1815C59.1619 72.1828 59.2058 72.252 59.169 72.254C58.6961 72.2766 58.2398 72.2549 57.7729 72.2808C57.7351 72.2828 57.7904 72.3482 57.7298 72.3536C57.6087 72.3652 57.4427 72.3636 57.3136 72.3441C57.2506 72.3347 57.3342 72.2769 57.2709 72.2686C57.1234 72.2491 56.9682 72.2463 56.8224 72.2587C56.7656 72.2636 56.8403 72.32 56.7909 72.3306C56.7861 72.3316 56.7803 72.3322 56.7732 72.3323C56.1956 72.3461 55.6537 72.3644 55.0753 72.2839C55.036 72.2783 54.9997 72.1413 54.9176 72.1687C54.9118 72.2069 54.9127 72.2518 54.9105 72.2926C54.0862 72.3246 53.2772 72.2869 52.449 72.2897C52.4133 72.2898 52.4758 72.3619 52.4069 72.3625C52.0227 72.3662 51.6342 72.3911 51.2404 72.3236C51.1998 72.317 51.2178 72.1887 51.1008 72.2095C51.0786 72.2133 50.9115 72.2325 50.861 72.2609C50.8548 72.2652 50.8882 72.3246 50.8304 72.327C50.504 72.3401 50.1614 72.3307 49.8303 72.2983C49.775 72.293 49.8329 72.2286 49.7937 72.2243C49.5244 72.1938 49.2383 72.2459 48.9789 72.1914C48.8079 72.1547 48.8682 72.0438 48.778 71.9367C48.7632 71.9216 48.6585 71.9207 48.653 71.8577C48.6369 71.6994 48.6845 71.5251 48.661 71.3565C48.6674 71.3195 48.4828 71.3634 48.5968 71.2724C48.6042 71.2663 48.7051 71.2356 48.7312 71.2054C48.7479 71.1845 48.7157 71.1209 48.7511 71.094C48.7883 71.0671 48.8305 71.1203 48.8863 71.0885C48.9495 71.0563 48.9156 70.9838 49.039 70.9735ZM81.712 71.5816C81.6171 71.5216 81.6061 71.7461 81.7072 71.6911C81.7121 71.6882 81.7169 71.5846 81.712 71.5816ZM93.12 71.3979C92.9952 71.3006 92.9127 71.4472 93.0008 71.5225C93.0889 71.5977 93.1581 71.4274 93.12 71.3979ZM94.3968 71.3088C94.2517 71.2327 94.2332 71.551 94.3867 71.4847C94.3957 71.4809 94.4053 71.3132 94.3968 71.3088ZM49.1982 71.9003C49.1977 71.8974 49.1213 71.8955 49.1188 71.8984C49.0789 71.9702 49.232 71.974 49.1982 71.9003ZM95.6641 71.2132C95.6185 71.1708 95.4898 71.2222 95.5463 71.275C95.5919 71.3174 95.7208 71.266 95.6641 71.2132ZM76.7924 71.4046C76.7908 71.4013 76.7357 71.399 76.7371 71.4179C76.7416 71.4787 76.818 71.4606 76.7924 71.4046ZM97.8201 71.1807C97.5012 71.173 97.3045 70.9129 97.6519 70.9378C97.7148 70.9424 97.5176 71.0234 97.5979 71.0461C97.7448 71.0872 97.8398 70.921 97.9904 71.0074C98.0177 71.0232 97.8383 71.1817 97.8195 71.1811C97.8197 71.1809 97.8199 71.1808 97.8201 71.1807ZM81.6544 71.3129C81.6524 71.3099 81.5769 71.3081 81.5751 71.3111C81.5352 71.3828 81.6873 71.3866 81.6544 71.3129ZM73.5989 71.3061C73.5945 71.2998 73.4188 71.2961 73.4132 71.302C73.323 71.4196 73.6783 71.4274 73.5989 71.3061ZM86.7487 71.0832C86.8305 71.0105 86.9294 71.0007 86.9967 71.0898C86.9143 71.0861 86.8314 71.0865 86.7487 71.0832Z" fill="#8064BF"/>
<path d="M97.2436 70.9628C97.2182 70.8623 97.2311 70.7253 97.2537 70.6198C97.2605 70.5852 97.3012 70.5999 97.3079 70.578C97.3209 70.5356 97.299 70.4961 97.3147 70.4498C97.3201 70.4344 97.3841 70.4494 97.3883 70.4333C97.4116 70.3558 97.3904 70.2692 97.3992 70.1913C97.4407 69.7767 97.4401 69.3749 97.4434 68.9589C97.4443 68.8192 97.4915 68.6546 97.4576 68.5112C97.4536 68.4945 97.3991 68.508 97.3943 68.5051C97.3217 68.4598 97.4341 68.47 97.4469 68.4374C97.4977 68.31 97.4936 68.1612 97.465 68.0441C97.4526 67.9928 97.3462 68.0517 97.4045 67.9955C97.4084 67.9916 97.4678 68.0012 97.4732 67.9865C97.4852 67.9533 97.4709 67.8917 97.474 67.8658C97.4801 67.8155 97.4791 67.8082 97.4769 67.7631C97.4745 67.7014 97.499 67.6254 97.4815 67.5583C97.4776 67.5439 97.4187 67.5669 97.4071 67.5444C97.3954 67.5221 97.3966 67.4589 97.4096 67.439C97.4225 67.4181 97.4702 67.4237 97.4808 67.4194C97.5703 67.3846 97.4395 67.3231 97.4358 67.3142C97.3722 67.1526 97.4354 67.0075 97.4255 66.8535C97.4177 66.7346 97.3861 66.6124 97.3823 66.5011C97.378 66.3678 97.4033 66.2516 97.3897 66.1248C97.3883 66.1112 97.3187 66.1316 97.3168 66.1151C97.2973 65.938 97.2939 65.7632 97.3303 65.5841C97.334 65.566 97.3975 65.5849 97.4049 65.5667C97.4488 65.4533 97.5604 65.2773 97.2863 65.2304C97.2922 65.1569 97.2973 65.0668 97.3475 64.9969C97.3797 64.9521 97.4499 64.9883 97.4178 64.9391C97.4106 64.928 97.3524 64.9468 97.3462 64.9299C97.3198 64.8585 97.3339 64.7772 97.2986 64.7061C97.2913 64.6916 97.2386 64.6991 97.2288 64.6955C97.1492 64.6651 97.2731 64.5975 97.2815 64.5839C97.3443 64.4794 97.3126 64.413 97.3084 64.3219C97.3075 64.3008 97.2379 64.3303 97.2344 64.3102C97.2174 64.2061 97.2163 64.0946 97.2412 63.9894C97.2469 63.9663 97.3089 63.9832 97.3147 63.9719C97.3397 63.9223 97.2245 63.9192 97.2463 63.8715C97.2507 63.8615 97.303 63.8636 97.3085 63.8614C97.3962 63.8278 97.2678 63.8119 97.2646 63.8049C97.2204 63.7168 97.349 63.6498 97.3244 63.5624C97.3213 63.5519 97.2572 63.5802 97.2526 63.5505C97.2217 63.3567 97.2261 63.1471 97.2658 62.9484C97.2719 62.918 97.3226 62.9361 97.3286 62.9338C97.4216 62.8968 97.2929 62.8853 97.2875 62.8758C97.2479 62.8009 97.3499 62.7212 97.1947 62.6782C97.2255 62.3435 97.1185 62.02 97.2327 61.6873C97.234 61.6831 97.2972 61.6863 97.2995 61.6779C97.3281 61.5758 97.2319 61.6014 97.1083 61.5431C97.0773 61.5284 97.2177 61.4679 97.228 61.4626C97.2657 61.4436 97.3602 61.4544 97.3673 61.4484C97.4218 61.4003 97.1329 61.4254 97.1123 61.3704C97.1119 61.3727 97.1115 61.371 97.1114 61.3692C97.1117 61.3672 97.1691 61.3707 97.1743 61.3651C97.1907 61.3475 97.1669 61.3334 97.1851 61.3161C97.2273 61.2767 97.376 61.2514 97.2844 61.2047C97.2725 61.1989 97.0986 61.2237 97.1024 61.1696C97.104 61.148 97.0928 61.0511 97.1018 61.0238C97.1108 60.9962 97.1687 61.0097 97.171 61.0076C97.2393 60.9295 97.2725 60.9546 97.3796 60.9085C97.4862 60.8621 97.2252 60.8952 97.1946 60.8828C97.1642 60.8704 97.221 60.812 97.2412 60.7973C97.2614 60.7824 97.2986 60.7954 97.3096 60.7828C97.3819 60.6999 97.1767 60.7611 97.1329 60.7399C97.0291 60.6882 97.2191 60.6243 97.2332 60.5686C97.237 60.5535 97.1939 60.5695 97.1885 60.5569C97.168 60.5067 97.2256 60.4685 97.1645 60.415C97.1546 60.4058 97.0336 60.3708 97.1161 60.3307C97.1281 60.3251 97.1776 60.3331 97.1863 60.3097C97.1994 60.2746 97.2043 60.214 97.1847 60.1806C97.1702 60.1557 97.0935 60.1937 97.115 60.1578C97.1246 60.1419 97.1739 60.1649 97.188 60.1353C97.2022 60.1057 97.1932 60.0358 97.189 60.0097C97.1848 59.9836 97.1258 60.004 97.1215 60.0022C97.0969 59.9916 97.0625 59.9426 97.0622 59.9382C97.0319 59.7113 97.1114 59.4904 97.0532 59.2723C97.0487 59.2552 96.9863 59.2738 96.985 59.2713C96.9518 59.2152 97.1261 59.2429 97.1782 59.1954C97.0497 59.216 97.0703 59.1883 97.0514 59.1478C97.0422 59.1283 96.9934 59.145 96.9881 59.1437C96.9088 59.1223 97.0045 59.0906 97.024 59.083C97.0956 59.0553 97.0058 59.0429 97.0536 59.0238C97.101 59.0046 97.1772 59.0275 97.1716 58.9871C97.1241 58.9811 97.0068 59.0249 96.9837 58.9966C96.8965 58.89 96.9659 58.665 96.9644 58.5703C96.9631 58.4769 96.9509 58.4478 96.961 58.392C96.9792 58.2905 96.8941 58.3378 96.8457 58.2822C96.7972 58.2264 97.0211 58.2289 97.0674 58.2143C97.1137 58.1999 97.0638 58.1966 97.0885 58.1828C97.1132 58.169 97.1482 58.1879 97.1549 58.1618C97.1617 58.1361 97.0689 58.0774 97.0184 58.075C96.9112 58.0692 96.8049 58.1137 96.8354 58.0428C96.8373 58.0387 96.8967 58.044 96.9008 58.0286C96.9311 57.9077 96.919 57.7868 96.9444 57.6666C96.9479 57.6501 97.0141 57.6564 97.0169 57.6467C97.0465 57.5456 96.942 57.5932 96.8149 57.5547C96.977 57.5473 97.0718 57.5064 97.0641 57.4333C97.0595 57.3894 96.9902 57.4052 96.9374 57.3826C96.9215 57.3758 96.9661 57.3391 96.9324 57.3373C96.8224 57.3313 96.7049 57.3747 96.7443 57.2934C96.7462 57.2898 96.8065 57.2936 96.8088 57.2817C96.8237 57.205 96.7098 57.2088 96.6872 57.13C96.6695 57.0682 96.7263 56.9484 96.7302 56.8759C96.8553 56.864 96.8709 56.8302 96.8265 56.8054C96.8067 56.7944 96.7748 56.7852 96.7354 56.7806C96.7358 56.7336 96.7239 56.6838 96.7368 56.6373C96.7412 56.6212 96.7946 56.6264 96.8001 56.6239C96.8861 56.5856 96.7628 56.5767 96.7571 56.5672C96.7006 56.4628 96.7848 56.3656 96.6859 56.2698C96.6824 56.2664 96.5559 56.2711 96.6455 56.2354C96.6517 56.2331 96.7119 56.2626 96.7122 56.2133C96.7125 56.1642 96.7725 56.0666 96.7088 56.0034C96.6934 55.9879 96.5879 55.9545 96.6652 55.9149C96.6757 55.9097 96.7122 55.9117 96.7318 55.9038C96.7943 55.8781 96.6661 55.8765 96.7724 55.8439C96.8788 55.8115 96.956 55.755 96.8764 55.6924C96.874 55.6903 96.7719 55.6816 96.7719 55.66C96.7721 55.6254 96.7897 55.5752 96.7865 55.5396C96.7849 55.5224 96.723 55.5378 96.7216 55.5349C96.6784 55.4218 96.7288 55.3361 96.745 55.2108C96.7481 55.1879 96.6584 55.1282 96.7232 55.08C96.7943 55.0273 97.1053 55.0574 97.0251 54.9516C96.993 54.9091 96.5987 54.8761 96.7964 54.7839C96.737 54.6312 96.8324 54.4815 96.7521 54.3296C96.7486 54.3228 96.6382 54.3064 96.6388 54.2899C96.6399 54.2653 96.6902 54.2491 96.6926 54.2314C96.7039 54.1572 96.6567 54.0927 96.6598 54.0215C96.6608 53.9946 96.714 54.0012 96.7153 53.969C96.7165 53.9369 96.646 53.9191 96.6772 53.8741C96.7011 53.8401 96.8414 53.8 96.8557 53.7557C96.7156 53.7612 96.7169 53.7313 96.6773 53.6802C96.6696 53.6703 96.6214 53.6838 96.6152 53.6792C96.5891 53.6609 96.6286 53.6406 96.6003 53.6234C96.5935 53.6192 96.5457 53.6214 96.5374 53.6181C96.4654 53.5902 96.5704 53.5328 96.5886 53.5229C96.658 53.4851 96.595 53.4723 96.6217 53.4447C96.6484 53.4171 96.6854 53.4545 96.7009 53.4231C96.7329 53.3579 96.7211 53.277 96.7201 53.2124C96.7194 53.1867 96.6565 53.2074 96.6549 53.2038C96.6361 53.1515 96.7014 53.0944 96.5728 53.0712C96.8997 53.0183 96.5393 53.0408 96.6014 52.9616C96.6064 52.9554 96.7615 52.9402 96.7855 52.9621C96.8094 52.9839 96.7625 53.0211 96.7997 53.0512C96.8084 53.0583 96.9562 53.0944 96.9653 53.0998C97.0365 53.1426 96.8045 53.1605 96.7919 53.1636C96.6555 53.198 96.8151 53.2431 96.8266 53.2565C96.8794 53.3176 96.8495 53.3732 96.8876 53.4246C96.9122 53.4582 97.0646 53.4539 97.0613 53.4815C97.0505 53.573 96.8398 53.6153 97.0282 53.6915C97.0684 53.7078 97.2338 53.681 97.1064 53.7533C97.0983 53.7579 96.9812 53.8128 97.0583 53.837C97.0681 53.8401 97.1165 53.8374 97.1208 53.8419C97.1488 53.8717 97.1113 53.8946 97.1316 53.9276C97.1518 53.9607 97.1815 53.9999 97.1672 54.0397C97.1586 54.0637 97.0699 54.0985 97.0484 54.1109C96.9864 54.1459 97.0927 54.1742 97.0166 54.198C96.9402 54.222 96.8204 54.1897 96.7731 54.2443C96.8991 54.2394 97.0286 54.2368 97.1554 54.2329C97.1572 54.3466 97.1227 54.4605 97.1348 54.5739C97.1364 54.588 97.2033 54.5697 97.2068 54.5846C97.2212 54.6477 97.1762 54.7063 97.1994 54.7711C97.2176 54.8212 97.2926 54.8732 97.3139 54.9252C97.172 54.9669 97.2258 55.0429 97.2163 55.1015C97.2131 55.1219 97.1745 55.123 97.1629 55.1382C97.12 55.1953 97.2456 55.1617 97.2666 55.1752C97.3562 55.2332 97.0685 55.2576 97.0807 55.3322C97.0812 55.3362 97.238 55.3745 97.248 55.3804C97.3132 55.4186 97.1951 55.3911 97.1856 55.4184C97.1682 55.4682 97.1339 55.5049 97.1829 55.5585C97.1973 55.5741 97.2958 55.6072 97.2242 55.6447C97.2148 55.6496 97.1639 55.6509 97.1612 55.6546C97.1162 55.7198 97.2757 55.7099 97.3323 55.7411C97.3888 55.7722 97.283 55.8347 97.2522 55.8483C97.1724 55.8836 97.2154 55.8287 97.2073 55.8278C97.1101 55.8165 97.1296 55.8552 97.1239 55.8862C96.968 55.9027 96.9807 55.9445 97.1186 55.9183C97.1336 55.9154 97.1172 55.8929 97.1239 55.8862C97.2792 55.9011 97.3024 55.9458 97.1634 56.0088C97.0982 56.0383 97.0181 56.0217 97.0527 56.0928C97.0683 56.1252 97.1748 56.1035 97.2065 56.1303C97.2789 56.1914 97.1861 56.2868 97.208 56.3547C97.216 56.3792 97.2726 56.3496 97.2801 56.3661C97.3001 56.4097 97.2596 56.454 97.2864 56.4972C97.2889 56.5011 97.3495 56.4854 97.3516 56.4994C97.3655 56.5858 97.3481 56.6661 97.3467 56.7527C97.3463 56.7728 97.3469 56.7931 97.3488 56.8139C97.3538 56.8676 97.398 56.9603 97.3973 57.017C97.3964 57.1147 97.3208 57.2444 97.3522 57.3249C97.3724 57.3774 97.4324 57.3583 97.477 57.3765C97.5634 57.4116 97.4276 57.508 97.4065 57.5216C97.4057 57.522 97.3857 57.477 97.3571 57.5057C97.2932 57.5281 97.4061 57.5211 97.4065 57.5216C97.3928 57.5303 97.3901 57.6252 97.4041 57.6425C97.4118 57.6517 97.4692 57.639 97.4721 57.644C97.5394 57.7625 97.5696 57.8856 97.5582 58.0162C97.5573 58.0186 97.4918 58.0233 97.4905 58.0288C97.4708 58.1064 97.556 58.1429 97.6108 58.1987C97.6654 58.2531 97.6556 58.3043 97.5483 58.3536C97.5679 58.3973 97.5267 58.4704 97.5012 58.5113C97.4758 58.5528 97.6031 58.543 97.606 58.5461C97.6987 58.6409 97.6334 58.7101 97.6347 58.8197C97.6352 58.8722 97.6654 58.9726 97.6855 59.0265C97.7016 59.0691 97.675 59.0993 97.6986 59.1383C97.7017 59.1434 97.7575 59.1317 97.7599 59.1331C97.8324 59.1705 97.692 59.1643 97.6684 59.1763C97.5826 59.2201 97.5372 59.2462 97.5858 59.3004C97.5969 59.3124 97.7998 59.3295 97.8141 59.3529C97.8323 59.3832 97.7598 59.3788 97.7807 59.4106C97.7824 59.4134 97.8263 59.4081 97.8266 59.4291C97.8283 59.5245 97.8137 59.6318 97.8283 59.7313C97.8302 59.745 97.8981 59.7202 97.9019 59.7399C97.9195 59.8298 97.9272 59.9327 97.9032 60.0249C97.8971 60.0479 97.8469 60.0387 97.8329 60.045C97.748 60.0831 97.8797 60.113 97.8827 60.1192C97.9598 60.2766 97.8563 60.4153 97.9263 60.5759C97.9303 60.5843 98.0736 60.6438 97.959 60.685C97.9513 60.6878 97.834 60.7289 97.9185 60.7489C97.9238 60.7502 97.9839 60.7254 97.9805 60.7596C97.9772 60.7934 98.0234 60.8458 97.9594 60.8971C97.9392 60.9134 97.8224 60.9578 97.9216 60.9934C97.9285 60.9955 98.1502 61.0453 98.0033 61.0824C97.9791 61.0884 97.8211 61.0974 97.9063 61.1421C97.9228 61.1507 97.9564 61.1298 97.9806 61.154C98.0177 61.1912 97.9799 61.2481 98.0543 61.2927C98.056 61.2936 98.0591 61.2949 98.0633 61.2965L98.064 61.3067C98.0927 61.3181 98.1678 61.3447 98.0984 61.3753C98.086 61.3808 98.0327 61.3755 98.0278 61.3915C98.0045 61.4676 98.0449 61.5425 98.0134 61.6195C98.0024 61.6468 97.9163 61.639 97.8953 61.668C97.8743 61.697 97.856 61.7537 97.8968 61.7797C97.9377 61.8057 98.0714 61.7654 98.0851 61.8075C98.1448 61.9921 98.0777 62.1861 98.0783 62.3719C98.0784 62.3996 98.1255 62.3733 98.1291 62.4141C98.1429 62.5676 98.2056 62.8244 98.1109 62.9613C98.0352 63.0731 97.9634 62.9434 97.9351 63.0268C97.9216 63.0671 98.0823 63.0989 98.0879 63.1079C98.1444 63.1965 98.0786 63.2644 98.1054 63.3447C98.111 63.3613 98.1739 63.3405 98.1779 63.3547C98.1922 63.4031 98.167 63.4554 98.1754 63.5035C98.1793 63.5247 98.2279 63.5176 98.2254 63.5375C98.22 63.5851 98.2022 63.6279 98.1593 63.6765C98.1554 63.6809 98.0928 63.6569 98.0928 63.6916C98.093 63.7477 98.0523 63.8197 98.1031 63.8802C98.1184 63.8982 98.2301 63.8917 98.1556 63.9371C98.1401 63.9469 98.0052 63.9438 98.1242 63.9848C98.144 63.9917 98.3056 64.0626 98.2074 64.1087C98.1816 64.1208 98.0735 64.1546 98.0923 64.1764C98.0952 64.1793 98.1544 64.163 98.1615 64.1816C98.1855 64.2474 98.1836 64.3176 98.2068 64.3843C98.2131 64.4021 98.2734 64.3711 98.2809 64.3977C98.3014 64.4708 98.2918 64.5685 98.2771 64.6431C98.2716 64.6707 98.2189 64.6553 98.2135 64.6576C98.1245 64.6953 98.2486 64.7061 98.2564 64.7161C98.3035 64.7787 98.249 64.8318 98.2681 64.8904C98.2732 64.9065 98.3311 64.8911 98.3365 64.894C98.3898 64.9249 98.2829 64.9062 98.2727 64.929C98.2439 64.9931 98.253 65.0614 98.2645 65.1227C98.2687 65.1452 98.3351 65.1153 98.3381 65.1356C98.3576 65.2554 98.3589 65.3782 98.3291 65.5005C98.3234 65.5232 98.2702 65.5125 98.2585 65.5179C98.177 65.5553 98.294 65.5946 98.3055 65.6046C98.3582 65.65 98.3132 65.6718 98.3245 65.7139C98.381 65.9223 98.3666 66.1792 98.3605 66.3832C98.3523 66.6413 98.3154 66.8483 98.3437 67.0923C98.3455 67.1081 98.4141 67.0878 98.4165 67.1014C98.4443 67.2767 98.4277 67.4476 98.4588 67.6225C98.4612 67.6367 98.5259 67.612 98.532 67.6346C98.545 67.6814 98.5449 67.7379 98.5269 67.7892C98.5182 67.8136 98.4596 67.7853 98.4521 67.8097C98.4343 67.8666 98.4332 67.9257 98.4473 67.9807C98.4534 68.0041 98.5187 67.9643 98.5213 67.9949C98.5411 68.205 98.5655 68.4113 98.4912 68.6317C98.4861 68.6465 98.3497 68.6677 98.3779 68.6966C98.4161 68.6965 98.4609 68.6936 98.5016 68.6922C98.5425 69.0005 98.5134 69.307 98.5247 69.6159C98.5252 69.6291 98.5965 69.602 98.5978 69.6274C98.6054 69.7715 98.634 69.9119 98.5708 70.0672C98.5646 70.0825 98.4363 70.0828 98.4582 70.1248C98.4622 70.133 98.4829 70.1929 98.5118 70.2111C98.5162 70.2133 98.5751 70.1973 98.5782 70.2192C98.5946 70.3436 98.5884 70.4687 98.5593 70.5973C98.5545 70.6173 98.4897 70.6001 98.4857 70.6143C98.4577 70.7148 98.5125 70.823 98.4603 70.922C98.4248 70.9838 98.3139 70.9717 98.2076 71.0111C98.1925 71.015 98.1925 71.0577 98.1296 71.0621C97.9716 71.0761 97.7973 71.0673 97.629 71.0846C97.593 71.0915 97.634 71.1245 97.5453 71.1118C97.5391 71.107 97.5079 71.0722 97.4776 71.0652C97.4567 71.0606 97.3933 71.0748 97.3662 71.0642C97.3393 71.0544 97.3918 71.0316 97.3597 71.0132C97.3271 70.994 97.2549 71.0095 97.2436 70.9628ZM97.3878 58.6983C97.3311 58.7408 97.5545 58.7197 97.4967 58.6877C97.4936 58.6862 97.3905 58.6961 97.3878 58.6983ZM96.9538 54.4694C96.8576 54.521 97.0046 54.544 97.0791 54.5074C97.1535 54.4707 96.9829 54.4537 96.9538 54.4694ZM96.8557 53.9965C96.7806 54.0544 97.0987 54.046 97.0314 53.9919C97.0276 53.9888 96.86 53.9932 96.8557 53.9965ZM98.1677 70.8551C98.1648 70.8559 98.1635 70.8835 98.1664 70.8838C98.2384 70.8942 98.241 70.8392 98.1677 70.8551ZM96.7527 53.527C96.7106 53.546 96.7627 53.5918 96.815 53.5683C96.8572 53.5493 96.8051 53.5034 96.7527 53.527ZM97.3421 60.5572C97.3388 60.558 97.3377 60.5785 97.3564 60.5763C97.4169 60.5694 97.3973 60.5429 97.3421 60.5572ZM96.7094 52.7217C96.7033 52.8413 96.4443 52.9263 96.4676 52.7952C96.4719 52.7715 96.5538 52.8417 96.576 52.8107C96.6165 52.7539 96.4499 52.7257 96.5355 52.6656C96.5512 52.6547 96.7104 52.7149 96.7098 52.7219C96.7097 52.7219 96.7096 52.7218 96.7094 52.7217ZM97.1226 58.7503C97.1197 58.7513 97.1203 58.7801 97.1233 58.7803C97.1958 58.7873 97.1948 58.7295 97.1226 58.7503ZM97.2989 61.7586C97.2927 61.7606 97.2912 61.826 97.2971 61.8278C97.4156 61.854 97.4191 61.7216 97.2989 61.7586ZM96.7349 56.8742C96.6897 56.86 96.6675 56.8409 96.6764 56.8206C96.6822 56.8075 96.7011 56.7939 96.7353 56.7807C96.7347 56.7921 96.7346 56.8034 96.7347 56.8147C96.7349 56.8345 96.7356 56.8543 96.7349 56.8742Z" fill="#8064BF"/>
<path d="M48.0733 52.5145C48.3541 52.4884 48.7192 52.5027 48.9961 52.5272C49.0831 52.5347 49.0396 52.5752 49.1008 52.5822C49.2159 52.5959 49.3292 52.5749 49.4425 52.5918C49.4811 52.5976 49.4339 52.6612 49.4745 52.6659C49.6953 52.6909 49.904 52.6726 50.1274 52.6838C51.228 52.7395 52.3108 52.7601 53.4212 52.7903C53.7887 52.8002 54.2316 52.8586 54.6128 52.8353C54.6578 52.8325 54.6312 52.7771 54.6398 52.7726C54.6418 52.7715 54.6439 52.7705 54.6458 52.7695C54.7718 52.7069 54.7296 52.8151 54.8152 52.8304C55.1597 52.892 55.5413 52.9061 55.8722 52.8951C56.0134 52.8904 55.8763 52.7761 56.0154 52.8423C56.025 52.8468 55.9876 52.9043 56.0257 52.9118C56.1117 52.9288 56.2793 52.9243 56.3457 52.9315C56.4751 52.9456 56.4985 52.9459 56.6202 52.9515C56.7889 52.9596 56.9871 52.9972 57.1683 52.9918C57.2067 52.9905 57.1586 52.9282 57.2202 52.9206C57.2814 52.9131 57.4457 52.9255 57.4985 52.942C57.5524 52.9587 57.5271 53.0049 57.5363 53.0161C57.6118 53.1111 57.8061 52.9931 57.8297 52.991C58.2725 52.9577 58.6467 53.0471 59.0604 53.0648C59.3718 53.078 59.7114 53.0683 60.0071 53.083C60.3619 53.1009 60.6616 53.1444 61.0073 53.1501C61.0435 53.1508 61.0034 53.0787 61.0477 53.0794C61.5205 53.0865 61.9906 53.1073 62.4583 53.1657C62.5057 53.1716 62.4431 53.2323 62.4904 53.242C62.7777 53.2997 63.2326 53.4306 63.4091 53.1628C63.6075 53.1766 63.839 53.1906 64.0174 53.2472C64.1284 53.2835 64.0192 53.35 64.157 53.3226C64.1882 53.3165 64.1483 53.2568 64.195 53.2522C64.3925 53.2325 64.6089 53.2536 64.8035 53.2241C64.8433 53.218 64.8328 53.1648 64.8441 53.1553C64.9397 53.0785 65.0975 53.2072 65.1307 53.2166C65.3894 53.287 65.5848 53.2599 65.8256 53.2615C65.8821 53.2619 65.8152 53.1906 65.8697 53.1884C66.1407 53.1785 66.4084 53.1824 66.6764 53.2081C66.6914 53.2096 66.7064 53.2111 66.7214 53.2128C66.7822 53.2196 66.7267 53.2807 66.7558 53.2871C66.8844 53.3144 66.9123 53.1994 67.0369 53.2232C67.0632 53.2281 67.0488 53.2802 67.0537 53.2859C67.1295 53.375 67.1941 53.2473 67.2135 53.2444C67.4556 53.2039 67.6108 53.3349 67.8486 53.3135C67.8767 53.3108 67.813 53.2457 67.8912 53.2421C68.4144 53.2179 68.9771 53.2277 69.4959 53.2715C69.5773 53.2782 69.5202 53.3286 69.5254 53.3346C69.6104 53.4284 69.6625 53.2999 69.689 53.2946C69.8963 53.2564 70.0924 53.3597 70.2319 53.2051C71.1163 53.2409 71.9932 53.1356 72.8725 53.2497C72.8837 53.251 72.8653 53.3143 72.8876 53.3166C73.1569 53.3451 73.1021 53.2487 73.2761 53.1248C73.3199 53.0936 73.4593 53.2342 73.4716 53.2445C73.5164 53.2823 73.4735 53.3769 73.4883 53.3841C73.6112 53.4401 73.5834 53.1316 73.7468 53.1271C73.752 53.1275 73.7321 53.1849 73.7459 53.1902C73.7889 53.2068 73.8305 53.1831 73.8727 53.2015C73.9694 53.2443 74.0075 53.3935 74.1509 53.3021C74.1691 53.2902 74.136 53.1157 74.2823 53.12C74.3408 53.1218 74.5979 53.1116 74.6705 53.1209C74.7429 53.1302 74.695 53.1881 74.7002 53.1904C74.8966 53.2595 74.8238 53.2926 74.9244 53.4004C75.0249 53.5077 74.9903 53.2457 75.0291 53.2153C75.068 53.1849 75.2123 53.2423 75.2479 53.2627C75.2835 53.2831 75.241 53.3203 75.2724 53.3315C75.4811 53.4047 75.3591 53.1984 75.4258 53.1547C75.5831 53.0512 75.7134 53.2424 75.861 53.257C75.9008 53.2609 75.8671 53.2176 75.9023 53.2123C76.0419 53.1922 76.128 53.2504 76.2854 53.1898C76.3111 53.1799 76.4359 53.0588 76.5222 53.1421C76.5344 53.1541 76.5023 53.2038 76.5624 53.2128C76.6522 53.2263 76.8131 53.2318 76.9083 53.2126C76.9785 53.1983 76.895 53.1209 76.9847 53.1429C77.0246 53.1527 76.9529 53.2019 77.0276 53.2164C77.1016 53.231 77.2915 53.2229 77.3632 53.2189C77.435 53.2149 77.3937 53.1555 77.3994 53.1512C77.4338 53.1267 77.5705 53.0929 77.5827 53.0926C78.1969 53.0651 78.7662 53.1481 79.3635 53.0933C79.4104 53.0891 79.3768 53.0262 79.384 53.0249C79.5437 52.9925 79.423 53.1671 79.5371 53.2201C79.5164 53.0908 79.5834 53.112 79.6955 53.0937C79.7495 53.0849 79.7182 53.0356 79.723 53.0303C79.8005 52.9511 79.8614 53.0477 79.8765 53.0673C79.933 53.1397 79.9883 53.0499 80.0266 53.0982C80.0648 53.1461 79.9835 53.2221 80.0921 53.2173C80.1208 53.1697 80.0359 53.0511 80.1176 53.0285C80.4239 52.943 81.0077 53.017 81.2598 53.0175C81.5105 53.018 81.5881 53.0065 81.7351 53.0178C82.0004 53.0381 81.9002 52.9517 82.0615 52.9042C82.2227 52.8567 82.152 53.0815 82.1773 53.1283C82.202 53.1751 82.2251 53.125 82.2546 53.1501C82.2839 53.1752 82.2238 53.21 82.2908 53.2173C82.3592 53.2245 82.5412 53.1326 82.5629 53.0818C82.6092 52.9743 82.5223 52.8667 82.7014 52.8987C82.7117 52.9006 82.6809 52.9602 82.7201 52.9646C83.0325 52.9974 83.3548 52.9874 83.6703 53.0146C83.7135 53.0184 83.6777 53.0848 83.7028 53.0877C83.9638 53.1188 83.8666 53.0132 84.0024 52.886C83.9771 53.049 84.0595 53.1447 84.2582 53.1376C84.3768 53.1334 84.3534 53.0636 84.4276 53.0108C84.4498 52.9948 84.5347 53.0399 84.5482 53.0061C84.5937 52.8955 84.5081 52.7773 84.7159 52.8172C84.7249 52.8191 84.6988 52.8797 84.73 52.8821C84.9314 52.8973 84.9481 52.7829 85.1621 52.7602C85.3351 52.7422 85.6288 52.7991 85.8266 52.8019C85.8306 52.9838 86.0099 52.9345 86.0762 52.8061C86.2 52.8059 86.3385 52.7928 86.4575 52.805C86.4987 52.8091 86.4741 52.8629 86.4795 52.8683C86.5279 52.9184 86.5641 52.8969 86.591 52.8691C86.6093 52.849 86.624 52.8257 86.6352 52.8229C86.9303 52.7571 87.1605 52.8347 87.4399 52.7258C87.4496 52.7219 87.4575 52.5948 87.5377 52.682C87.5428 52.688 87.4552 52.7514 87.5857 52.7473C87.7142 52.7433 87.9671 52.7945 88.1447 52.7241C88.1877 52.7072 88.291 52.5975 88.3833 52.6718C88.3958 52.6818 88.3851 52.7189 88.4037 52.7378C88.4645 52.7982 88.4868 52.6687 88.5598 52.7727C88.6326 52.8766 88.7744 52.9486 88.9484 52.862C88.9532 52.8595 88.9915 52.7555 89.0498 52.7533C89.1433 52.7497 89.2752 52.762 89.3696 52.7551C89.4148 52.7517 89.3817 52.6909 89.3894 52.6892C89.6983 52.6333 89.9147 52.675 90.2523 52.6766C90.3138 52.6771 90.4773 52.5801 90.6029 52.6395C90.7369 52.7048 90.6277 53.0215 90.9146 52.9284C91.033 52.8909 91.1603 52.4898 91.385 52.6777C91.7994 52.599 92.1924 52.676 92.6032 52.5754C92.6221 52.5709 92.6745 52.4577 92.7185 52.4561C92.7839 52.454 92.8226 52.5025 92.8684 52.5026C93.0702 52.5039 93.2425 52.4479 93.4327 52.4412C93.504 52.4386 93.4798 52.4933 93.5685 52.49C93.6561 52.4866 93.7068 52.4133 93.8237 52.4386C93.9162 52.4576 94.0108 52.5933 94.1286 52.6014C94.1229 52.4612 94.2058 52.4582 94.3412 52.4112C94.3687 52.402 94.3351 52.3555 94.3479 52.3486C94.4001 52.3196 94.4519 52.3564 94.4989 52.3255C94.5104 52.3181 94.5074 52.2703 94.5165 52.2615C94.5939 52.1852 94.744 52.2821 94.7668 52.2992C94.864 52.3634 94.9038 52.298 94.9736 52.3209C95.0448 52.3437 94.9425 52.3865 95.0268 52.3972C95.1984 52.4197 95.4173 52.3953 95.5889 52.3842C95.6572 52.3795 95.6057 52.3194 95.6153 52.3173C95.7571 52.29 95.9017 52.3467 95.9732 52.2133C96.0958 52.5336 96.0577 52.1746 96.2629 52.2236C96.28 52.2275 96.3111 52.3811 96.2541 52.4088C96.1923 52.4369 96.099 52.3957 96.0148 52.4383C95.9967 52.4481 95.8912 52.6029 95.8768 52.6128C95.7566 52.6916 95.7236 52.4608 95.7152 52.4487C95.63 52.3171 95.5001 52.4847 95.4654 52.4982C95.2967 52.5611 95.155 52.5389 95.0109 52.5853C94.9224 52.615 94.9241 52.7676 94.8491 52.7685C94.6072 52.771 94.5054 52.5653 94.29 52.7658C94.2438 52.8085 94.307 52.9709 94.1178 52.8533C94.1057 52.8459 93.9704 52.7356 93.8983 52.8167C93.8893 52.8269 93.8931 52.8753 93.8806 52.8803C93.7962 52.9128 93.7426 52.8779 93.6512 52.903C93.5578 52.9282 93.455 52.9632 93.3482 52.9542C93.2838 52.9489 93.1958 52.8645 93.1656 52.8444C93.0779 52.7867 92.9934 52.8974 92.9341 52.8242C92.8752 52.7505 92.9694 52.6257 92.8289 52.5853C92.8327 52.7115 92.8301 52.8414 92.8308 52.9684C92.525 52.9854 92.2214 52.9656 91.9187 52.992C91.8804 52.9955 91.9243 53.0604 91.8833 53.0659C91.7098 53.0886 91.5636 53.0502 91.3817 53.0819C91.2487 53.1062 91.1026 53.1881 90.9565 53.2162C90.8615 53.078 90.6529 53.1412 90.4928 53.1388C90.4394 53.1379 90.4403 53.0992 90.4015 53.0892C90.2543 53.0525 90.3303 53.1752 90.292 53.1979C90.1279 53.2948 90.0858 53.0084 89.89 53.0286C89.8796 53.0296 89.7598 53.1918 89.7421 53.2026C89.6312 53.2727 89.7196 53.1505 89.6466 53.144C89.5108 53.1322 89.4214 53.1014 89.2711 53.1566C89.2274 53.1728 89.1259 53.2757 89.0323 53.2076C89.02 53.1987 89.0231 53.1475 89.0135 53.1452C88.8441 53.1067 88.852 53.2663 88.7605 53.3266C88.6694 53.3868 88.5131 53.2867 88.4803 53.257C88.3951 53.1802 88.5392 53.2178 88.5428 53.2095C88.5872 53.1103 88.4781 53.1341 88.3961 53.1314C88.3743 52.9759 88.2619 52.9927 88.3121 53.1292C88.3178 53.1441 88.3796 53.1253 88.3961 53.1314C88.3358 53.2894 88.2129 53.3173 88.0634 53.1832C87.9932 53.1204 88.0511 53.0379 87.8516 53.0798C87.7635 53.0986 87.8053 53.2039 87.729 53.2384C87.5567 53.317 87.3053 53.2327 87.1249 53.2603C87.0583 53.2705 87.1274 53.3251 87.082 53.3341C86.9613 53.358 86.8499 53.3209 86.7262 53.3517C86.715 53.3546 86.7468 53.4144 86.7079 53.4178C86.6803 53.4202 86.6529 53.4223 86.6258 53.424L86.6153 53.4246C86.3636 53.4348 86.1206 53.4127 85.848 53.4233C85.6971 53.4293 85.4415 53.4742 85.2866 53.4738C85.0208 53.4735 84.6914 53.3971 84.4691 53.4281C84.3235 53.448 84.3578 53.5085 84.2965 53.5531C84.1774 53.6397 83.9554 53.5023 83.9266 53.4808C83.9258 53.4801 84.0503 53.4605 83.9823 53.4315C83.9408 53.367 83.928 53.4805 83.9266 53.4808C83.9075 53.4669 83.6543 53.4631 83.6037 53.4769C83.5764 53.4845 83.5942 53.5424 83.5799 53.5452C83.2459 53.611 82.9045 53.6393 82.5628 53.6251C82.5567 53.6242 82.5633 53.5584 82.549 53.557C82.3479 53.5356 82.2246 53.6205 82.0634 53.6743C81.902 53.728 81.7696 53.7171 81.6687 53.6084C81.5469 53.6271 81.3681 53.5841 81.2646 53.5577C81.1611 53.5314 81.1514 53.6594 81.1425 53.6622C80.8659 53.7532 80.7026 53.6862 80.4101 53.6854C80.2731 53.6848 80.0001 53.7131 79.8501 53.7324C79.7315 53.7478 79.6608 53.7204 79.5526 53.7434C79.5379 53.7464 79.5548 53.8026 79.5504 53.805C79.4314 53.8772 79.4849 53.7364 79.4589 53.7125C79.3648 53.6256 79.307 53.5795 79.1521 53.6274C79.1163 53.6383 79.0195 53.8417 78.9545 53.8556C78.8702 53.8734 78.8998 53.8007 78.8114 53.8211C78.8038 53.8227 78.8069 53.8669 78.7518 53.8668C78.4952 53.8671 78.2179 53.8507 77.9522 53.864C77.9159 53.8656 77.9647 53.9341 77.9123 53.9377C77.6666 53.9541 77.3985 53.9603 77.1573 53.9352C77.098 53.9288 77.1335 53.8785 77.1202 53.8644C77.0391 53.7788 76.9321 53.9104 76.9138 53.9134C76.4775 53.9888 76.139 53.8833 75.6939 53.9519C75.6697 53.9559 75.4867 54.0988 75.3997 53.9835C75.3938 53.9758 75.3077 53.8578 75.237 53.9423C75.2327 53.9476 75.2859 54.0081 75.1959 54.0044C75.1059 54.0007 74.9625 54.0463 74.8371 53.9817C74.7974 53.9614 74.7016 53.8438 74.5878 53.9429C74.5804 53.9498 74.4067 54.1715 74.3381 54.0239C74.327 53.9995 74.3335 53.8411 74.1965 53.926C74.1703 53.9425 74.2196 53.9764 74.1501 54.0004C74.0437 54.0373 73.9004 53.9988 73.7705 54.0728C73.748 54.0859 73.6526 54.1959 73.5718 54.1165C73.5591 54.104 73.5812 54.0506 73.5395 54.0458C73.341 54.0227 73.1364 54.0633 72.9345 54.0319C72.863 54.0208 72.8972 53.9345 72.8226 53.9135C72.7479 53.8925 72.5985 53.8742 72.5222 53.9151C72.4459 53.956 72.5336 54.09 72.4181 54.1037C71.9138 54.1632 71.4126 54.0947 70.9089 54.0936C70.8339 54.0934 70.897 54.1408 70.7867 54.144C70.3823 54.1561 69.681 54.2147 69.3261 54.1169C69.0436 54.0387 69.3962 53.9698 69.181 53.9396C69.0784 53.9251 68.9657 54.0851 68.941 54.0905C68.6943 54.1448 68.5277 54.0771 68.3036 54.1015C68.2578 54.1066 68.3036 54.1701 68.2646 54.1737C68.1316 54.1866 67.9922 54.1597 67.8669 54.1663C67.8094 54.1695 67.8205 54.2183 67.7676 54.2151C67.6412 54.208 67.53 54.1886 67.4082 54.1439C67.3971 54.1398 67.4711 54.0781 67.379 54.0767C67.2324 54.0746 67.0399 54.031 66.8695 54.079C66.8187 54.0934 66.8172 54.2054 66.7078 54.1287C66.6951 54.1198 66.6982 54.0741 66.6817 54.0556C66.6682 54.0408 66.6419 54.0433 66.5848 54.0951C66.5629 54.1145 66.3467 54.2723 66.2416 54.1716C66.2135 54.1451 66.144 54.0353 66.0814 54.0527C66.073 54.0555 66.107 54.1156 66.0553 54.1216C65.8724 54.1416 65.6869 54.1353 65.5013 54.1538C65.4513 54.1589 65.5256 54.2212 65.4512 54.2268C65.2461 54.2422 64.9977 54.2254 64.7967 54.2046C64.7236 54.1969 64.7745 54.1456 64.7692 54.14C64.6844 54.0482 64.6335 54.171 64.6053 54.178C64.4311 54.2197 64.2923 54.1605 64.1316 54.1741C64.087 54.1777 64.1179 54.2368 64.109 54.2419C64.0166 54.292 64.0861 54.1874 64.0283 54.1751C63.8631 54.1403 63.6788 54.1425 63.5152 54.1476C63.4533 54.1495 63.5218 54.2186 63.4663 54.2195C63.1396 54.2262 62.8036 54.2134 62.4885 54.1688C62.4286 54.1602 62.4675 54.1087 62.4553 54.0964C62.371 54.0107 62.2437 54.122 62.2149 54.1322C62.0851 54.1787 62.0314 54.131 61.9159 54.1366C61.3486 54.1649 60.6513 54.1112 60.1191 54.0717C59.4232 54.0206 58.8887 53.947 58.2261 53.93C58.1839 53.9288 58.2232 54.0004 58.1869 54.0003C57.7187 53.9959 57.2605 53.9474 56.7945 53.9481C56.7564 53.948 56.8089 54.0164 56.7469 54.0185C56.6193 54.0233 56.4622 54.0134 56.3351 53.9875C56.2737 53.975 56.3587 53.9214 56.2969 53.91C56.1533 53.8834 55.9978 53.8732 55.8482 53.8791C55.7846 53.8818 55.8781 53.9524 55.7958 53.9506C55.4068 53.9434 55.0248 53.9423 54.6408 53.9151C54.4648 53.9031 54.2964 53.885 54.1206 53.8577C54.081 53.8516 54.0466 53.714 53.9633 53.7402C53.9569 53.7783 53.9571 53.8232 53.9543 53.8639C53.1357 53.8837 52.3149 53.8362 51.4932 53.8324C51.4578 53.8322 51.5192 53.9048 51.4508 53.9049C51.0618 53.9056 50.6844 53.9282 50.2845 53.8593C50.2444 53.8526 50.2629 53.7243 50.1469 53.7448C50.1276 53.7485 49.9506 53.7673 49.9059 53.7956C49.8998 53.7999 49.9321 53.8593 49.8761 53.8617C49.5473 53.8743 49.2062 53.8651 48.8754 53.834C48.8223 53.8288 48.8776 53.7642 48.8399 53.76C48.5733 53.7306 48.2826 53.7847 48.0269 53.733C47.8551 53.6983 47.9177 53.5866 47.8227 53.4808C47.8119 53.4657 47.7013 53.4665 47.6972 53.4036C47.6789 53.2455 47.7226 53.0706 47.6972 52.9023C47.6975 52.8657 47.5374 52.9106 47.6308 52.8192C47.6366 52.813 47.7419 52.7807 47.7658 52.7502C47.784 52.729 47.7485 52.6659 47.7859 52.6384C47.819 52.6111 47.8626 52.6637 47.9219 52.6312C47.983 52.5983 47.9522 52.526 48.0733 52.5145ZM80.8007 53.4399C80.7041 53.3822 80.6984 53.6069 80.7985 53.5495C80.8033 53.5465 80.8056 53.4428 80.8007 53.4399ZM92.2126 52.7965C92.0821 52.7064 92.0108 52.8572 92.1014 52.9275C92.1906 52.9978 92.2534 52.8238 92.2126 52.7965ZM93.4849 52.635C93.3376 52.5672 93.3372 52.8861 93.4852 52.8112C93.4937 52.8069 93.4934 52.6389 93.4849 52.635ZM48.2429 53.4398C48.2405 53.4369 48.1682 53.4355 48.1645 53.4386C48.1262 53.5107 48.2763 53.5132 48.2429 53.4398ZM94.7467 52.4648C94.7003 52.4251 94.5717 52.4844 94.6326 52.5335C94.6825 52.573 94.8055 52.5141 94.7467 52.4648ZM75.8683 53.3663C75.8667 53.363 75.8118 53.3617 75.8135 53.3805C75.819 53.4412 75.8947 53.4218 75.8683 53.3663ZM96.8995 52.2732C96.5792 52.3017 96.3608 52.0602 96.7057 52.0504C96.7685 52.0483 96.5819 52.1495 96.6637 52.1637C96.8143 52.1892 96.8893 52.013 97.0488 52.0813C97.0778 52.0939 96.9179 52.2722 96.899 52.2736C96.8991 52.2734 96.8993 52.2733 96.8995 52.2732ZM80.7365 53.1727C80.7345 53.1698 80.6586 53.1697 80.6569 53.1727C80.6184 53.2454 80.7714 53.2455 80.7365 53.1727ZM72.6712 53.316C72.6669 53.3098 72.4912 53.3083 72.4856 53.3142C72.3969 53.4329 72.7522 53.4364 72.6712 53.316ZM85.8299 52.8066C85.9098 52.7315 86.0074 52.7189 86.0758 52.806C85.995 52.8047 85.9129 52.8075 85.8299 52.8066Z" fill="#8064BF"/>
<path d="M35.4903 144.319L19.4038 40.9883L32.0978 40.8599L46.5975 144.207L35.4903 144.319Z" fill="#EB8DD7" fill-opacity="0.3"/>
<g style="mix-blend-mode:screen">
<path d="M57.1355 125.368L49.2723 126.617L48.8384 128.68L44.6628 130.146L45.9101 132.536L43.6324 138.183L40.216 133.568L40.7041 131.83L39.3212 132.183L37.9384 132.536L35.3354 134.451L37.9384 133.568L36.3657 138.998L37.3961 144.211H40.216L43.0359 141.043L44.6628 143.56L45.9101 138.998L44.6628 137.206L49.7603 143.288L55.9967 143.56L53.6106 140.573V138.998L47.3743 132.536H50.3026H59.0335L63.6972 129.223L57.1355 125.368Z" fill="#C4CDFA" style="mix-blend-mode:plus-lighter"/>
<path d="M44.6628 112.986L41.6802 118.199V122.055L46.6693 116.624L48.0792 119.774L45.9101 124.119L48.0792 124.77L44.6628 126.617H49.2723L51.0076 124.77L55.9967 122.87H53.6106L57.1355 119.122L57.7863 115.375L51.0076 119.122V118.199L52.038 114.018L49.2723 115.918V111.954L45.9101 108.859V107.501L44.6628 106.632V112.986Z" fill="#C4CDFA" style="mix-blend-mode:plus-lighter"/>
<path d="M46.6693 116.624L41.6802 122.055L43.0359 124.77L44.6628 126.617L48.0792 124.77L45.9101 124.119L48.0792 119.774L46.6693 116.624Z" fill="#C4CDFA" style="mix-blend-mode:plus-lighter"/>
<path fill-rule="evenodd" clip-rule="evenodd" d="M49.2723 126.617H44.6628L43.0359 124.77L41.6802 122.055L40.216 118.199L37.9384 116.624L36.908 119.122L37.3961 122.87L36.3657 124.119L34.6846 125.911L38.7518 127.757H40.216L39.3212 132.183L40.7041 131.83L40.216 133.568L43.6324 138.183L45.9101 132.536L44.6628 130.146L48.8384 128.68L49.2723 126.617ZM41.6802 129.223V127.757L43.0359 126.617L43.6324 128.409L41.6802 129.223Z" fill="#C4CDFA" style="mix-blend-mode:plus-lighter"/>
<path d="M37.3961 127.757L33.5458 129.223L31.3766 134.451H35.3354L37.9384 132.536L39.3212 132.183L40.216 127.757H38.7518H37.3961Z" fill="#C4CDFA" style="mix-blend-mode:plus-lighter"/>
<path d="M41.6802 127.757V129.223L43.6324 128.409L43.0359 126.617L41.6802 127.757Z" fill="#C4CDFA" style="mix-blend-mode:plus-lighter"/>
<path d="M33.5458 129.223L37.3961 127.757H38.7518L34.6846 125.911L36.3657 124.119L37.3961 122.87L36.908 119.122L37.9384 116.624L40.216 118.199L41.6802 122.055V118.199L36.908 111.628L31.3766 111.248L30.4547 114.018L33.5458 118.199L34.6846 122.87L33.5458 122.055H27.5264L28.5568 124.77L28.5567 126.617L31.3766 128.409L32.9493 127.757L33.5458 129.223Z" fill="#C4CDFA" style="mix-blend-mode:plus-lighter"/>
<path d="M31.4999 137.421L31.3766 135.794L35.3354 134.451H31.3766L33.5458 129.223L30.4547 130.981L29.8901 133.568L30.4547 135.207L31.4999 137.421Z" fill="#C4CDFA" style="mix-blend-mode:plus-lighter"/>
<path d="M72.0536 104.037L64.1843 105.286L63.7501 107.35L59.5712 108.816L60.8195 111.205L58.5401 116.853L55.121 112.237L55.6094 110.499L54.2255 110.852L52.8416 111.205L50.2366 113.12L52.8416 112.237L51.2677 117.668L52.2989 122.881L55.935 128.366L56.5863 126.411L59.5712 122.229L60.8195 117.668L59.5712 115.875L64.6727 121.958L70.9139 122.229L68.526 119.242V117.668L62.2848 111.205H65.2154H73.9531L78.6204 107.893L72.0536 104.037Z" fill="#B1C1F5" style="mix-blend-mode:plus-lighter"/>
<path d="M59.5712 91.6554L56.5863 96.8687V100.724L61.5793 95.2939L62.9903 98.4436L60.8195 102.788L62.9903 103.44L59.5712 105.286H64.1843L65.921 103.44L70.9139 101.539H68.526L72.0536 97.7919L72.7049 94.0449L65.921 97.7919V96.8687L66.9521 92.6872L64.1843 94.5879V90.6236L60.8195 87.5283V86.1706L59.5712 85.3018V91.6554Z" fill="#B1C1F5" style="mix-blend-mode:plus-lighter"/>
<path d="M61.5793 95.2939L56.5863 100.724L57.9431 103.44L59.5712 105.286L62.9903 103.44L60.8195 102.788L62.9903 98.4436L61.5793 95.2939Z" fill="#B1C1F5" style="mix-blend-mode:plus-lighter"/>
<path fill-rule="evenodd" clip-rule="evenodd" d="M64.1843 105.286H59.5712L57.9431 103.44L56.5863 100.724L55.121 96.8687L52.8416 95.2939L51.8104 97.7919L52.2989 101.539L51.2677 102.788L49.5853 104.58L53.6557 106.426H55.121L54.2255 110.852L55.6094 110.499L55.121 112.237L58.5401 116.853L60.8195 111.205L59.5712 108.816L63.7501 107.35L64.1843 105.286ZM56.5863 107.893V106.426L57.9431 105.286L58.5401 107.078L56.5863 107.893Z" fill="#B1C1F5" style="mix-blend-mode:plus-lighter"/>
<path d="M52.2989 106.426L48.4456 107.893L46.2748 113.12H50.2366L52.8416 111.205L54.2255 110.852L55.121 106.426H53.6557H52.2989Z" fill="#B1C1F5" style="mix-blend-mode:plus-lighter"/>
<path d="M56.5863 106.426V107.893L58.5401 107.078L57.9431 105.286L56.5863 106.426Z" fill="#B1C1F5" style="mix-blend-mode:plus-lighter"/>
<path d="M48.4456 107.893L52.2989 106.426H53.6557L49.5853 104.58L51.2677 102.788L52.2989 101.539L51.8104 97.7919L52.8416 95.2939L55.121 96.8687L56.5863 100.724V96.8687L51.8104 90.2978L46.2748 89.9177L45.3522 92.6872L48.4456 96.8687L49.5853 101.539L48.4456 100.724H42.4215L38.0798 105.286H43.4527L46.2748 107.078L47.8486 106.426L48.4456 107.893Z" fill="#B1C1F5" style="mix-blend-mode:plus-lighter"/>
<path d="M43.9954 116.853L46.2748 114.464L50.2366 113.12H46.2748L48.4456 107.893L42.4215 110.065L38.0798 115.875L37.5371 119.242L43.9954 116.853Z" fill="#B1C1F5" style="mix-blend-mode:plus-lighter"/>
<path d="M115.128 108.23L107.419 106.225L106.195 107.941L101.779 107.612L101.966 110.3L97.6159 114.562L96.332 108.965L97.4753 107.568L96.0661 107.338L94.6569 107.107L91.5034 107.819L94.2437 108.052L90.6271 112.397L89.4842 117.585L90.619 124.065L91.9986 122.535L96.4077 119.899L99.378 116.22L98.952 114.079L101.19 121.692L106.799 124.439L105.808 120.747L106.438 119.305L103.308 110.887L105.993 112.06L113.998 115.557L119.601 114.391L115.128 108.23Z" fill="#AE86DB" style="mix-blend-mode:plus-lighter"/>
<path d="M108.651 91.8919L103.829 95.4729L102.285 99.0049L109.034 96.0287L109.065 99.4787L105.337 102.59L107.064 104.055L103.193 104.378L107.419 106.225L109.749 105.228L115.085 105.486L112.897 104.53L117.629 102.509L119.727 99.3375L112.011 100.055L112.381 99.2091L115 95.7913L111.703 96.4246L113.29 92.7931L111.447 88.6108L111.991 87.3671L111.195 86.0716L108.651 91.8919Z" fill="#AE86DB" style="mix-blend-mode:plus-lighter"/>
<path d="M109.034 96.0287L102.285 99.0049L102.44 102.035L103.193 104.378L107.064 104.055L105.337 102.59L109.065 99.4787L109.034 96.0287Z" fill="#AE86DB" style="mix-blend-mode:plus-lighter"/>
<path fill-rule="evenodd" clip-rule="evenodd" d="M107.419 106.225L103.193 104.378L102.44 102.035L102.285 99.0049L102.486 94.8864L101.029 92.5314L99.0836 94.407L98.0306 98.0351L96.5857 98.7665L94.3267 99.7348L97.3164 103.055L98.6588 103.642L96.0661 107.338L97.4753 107.568L96.332 108.965L97.6159 114.562L101.966 110.3L101.779 107.612L106.195 107.941L107.419 106.225ZM99.4141 105.571L100.001 104.228L101.701 103.727L101.53 105.607L99.4141 105.571Z" fill="#AE86DB" style="mix-blend-mode:plus-lighter"/>
<path d="M96.0734 102.512L91.9561 102.313L87.8738 106.233L91.5034 107.819L94.6569 107.107L96.0661 107.338L98.6588 103.642L97.3164 103.055L96.0734 102.512Z" fill="#AE86DB" style="mix-blend-mode:plus-lighter"/>
<path d="M100.001 104.228L99.4141 105.571L101.53 105.607L101.701 103.727L100.001 104.228Z" fill="#AE86DB" style="mix-blend-mode:plus-lighter"/>
<path d="M91.9561 102.313L96.0734 102.512L97.3164 103.055L94.3267 99.7348L96.5857 98.7665L98.0306 98.0351L99.0836 94.407L101.029 92.5314L102.486 94.8864L102.285 99.0049L103.829 95.4729L102.085 87.542L97.1653 84.9781L95.211 87.1459L96.3706 92.2146L95.5445 96.949L94.8266 95.7466L89.3076 93.3355L83.5033 95.7764L88.4256 97.9269L90.2934 100.698L91.9963 100.731L91.9561 102.313Z" fill="#AE86DB" style="mix-blend-mode:plus-lighter"/>
<path d="M84.2908 108.74L87.3359 107.464L91.5034 107.819L87.8738 106.233L91.9561 102.313L85.5672 101.892L79.2627 105.477L77.4172 108.344L84.2908 108.74Z" fill="#AE86DB" style="mix-blend-mode:plus-lighter"/>
<path d="M106.251 130.769L98.5458 128.765L97.3219 130.482L92.9085 130.154L93.0946 132.842L88.746 137.106L87.4638 131.508L88.6069 130.111L87.1984 129.881L85.79 129.65L82.6379 130.363L85.3768 130.596L81.7611 134.942L80.6176 140.132L76.7059 143.291L83.1297 145.082L87.5372 142.444L90.5068 138.764L90.0815 136.622L92.3169 144.237L99.7803 142.444L96.9323 143.291L97.563 141.848L94.4363 133.429L97.1196 134.601L105.12 138.098L110.72 136.93L106.251 130.769Z" fill="#BDCCF2" style="mix-blend-mode:plus-lighter"/>
<path d="M99.7803 114.429L94.9596 118.012L93.4157 121.545L100.162 118.567L100.193 122.017L96.4652 125.13L98.1919 126.595L94.322 126.919L98.5458 128.765L100.875 127.768L106.208 128.024L104.022 127.069L108.752 125.047L110.849 121.874L103.137 122.593L103.507 121.747L106.125 118.328L102.83 118.962L104.417 115.33L102.576 111.147L103.12 109.903L102.325 108.607L99.7803 114.429Z" fill="#BDCCF2" style="mix-blend-mode:plus-lighter"/>
<path d="M100.162 118.567L93.4157 121.545L93.5706 124.576L94.322 126.919L98.1919 126.595L96.4652 125.13L100.193 122.017L100.162 118.567Z" fill="#BDCCF2" style="mix-blend-mode:plus-lighter"/>
<path fill-rule="evenodd" clip-rule="evenodd" d="M98.5458 128.765L94.322 126.919L93.5706 124.576L93.4157 121.545L93.618 117.425L92.1616 115.07L90.2171 116.947L89.1639 120.576L87.7196 121.308L85.4615 122.277L88.449 125.597L89.7907 126.183L87.1984 129.881L88.6069 130.111L87.4638 131.508L88.746 137.106L93.0946 132.842L92.9085 130.154L97.3219 130.482L98.5458 128.765ZM90.5452 128.113L91.1323 126.77L92.8313 126.268L92.6603 128.149L90.5452 128.113Z" fill="#BDCCF2" style="mix-blend-mode:plus-lighter"/>
<path d="M87.2067 125.054L83.0915 124.856L79.0104 128.777L82.6379 130.363L85.79 129.65L87.1984 129.881L89.7907 126.183L88.449 125.597L87.2067 125.054Z" fill="#BDCCF2" style="mix-blend-mode:plus-lighter"/>
<path d="M91.1323 126.77L90.5452 128.113L92.6603 128.149L92.8313 126.268L91.1323 126.77Z" fill="#BDCCF2" style="mix-blend-mode:plus-lighter"/>
<path d="M83.0915 124.856L87.2067 125.054L88.449 125.597L85.4615 122.277L87.7196 121.308L89.1639 120.576L90.2171 116.947L92.1616 115.07L93.618 117.425L93.4157 121.545L94.9596 118.012L93.2181 110.08L88.3018 107.516L86.348 109.685L87.5059 114.754L86.6793 119.49L85.962 118.287L80.4462 115.877L74.6442 118.32L79.5637 120.47L81.43 123.241L83.132 123.273L83.0915 124.856Z" fill="#BDCCF2" style="mix-blend-mode:plus-lighter"/>
<path d="M75.4287 131.286L78.4725 130.008L82.6379 130.363L79.0104 128.777L83.0915 124.856L76.7059 124.436L70.4037 128.023L68.5586 130.891L75.4287 131.286Z" fill="#BDCCF2" style="mix-blend-mode:plus-lighter"/>
<path d="M89.7735 119.499L82.0639 117.494L80.8397 119.21L76.4241 118.881L76.6108 121.569L72.2609 125.831L70.977 120.234L72.1204 118.837L70.7111 118.607L69.3019 118.376L66.1484 119.088L68.8887 119.321L65.2722 123.666L64.1292 128.855L65.2641 135.334L66.6436 133.804L71.0527 131.168L74.023 127.489L73.597 125.348L75.8352 132.961L81.4443 135.708L80.4526 132.016L81.0833 130.574L77.9533 122.156L80.6382 123.329L88.6432 126.826L94.2457 125.66L89.7735 119.499Z" fill="#C4CDFA" style="mix-blend-mode:plus-lighter"/>
<path d="M83.296 103.161L78.4737 106.742L76.9297 110.274L83.6786 107.298L83.7101 110.748L79.9815 113.859L81.7094 115.324L77.8376 115.647L82.0639 117.494L84.3943 116.497L89.7297 116.755L87.542 115.799L92.2744 113.778L94.3715 110.607L86.6559 111.324L87.0256 110.478L89.6448 107.06L86.3479 107.694L87.9354 104.062L86.0923 99.8798L86.636 98.6362L85.8404 97.3406L83.296 103.161Z" fill="#C4CDFA" style="mix-blend-mode:plus-lighter"/>
<path d="M83.6786 107.298L76.9297 110.274L77.0854 113.304L77.8376 115.647L81.7094 115.324L79.9815 113.859L83.7101 110.748L83.6786 107.298Z" fill="#C4CDFA" style="mix-blend-mode:plus-lighter"/>
<path fill-rule="evenodd" clip-rule="evenodd" d="M82.0639 117.494L77.8376 115.647L77.0854 113.304L76.9297 110.274L77.1313 106.155L75.6736 103.8L73.7286 105.676L72.6756 109.304L71.2307 110.036L68.9717 111.004L71.9614 114.324L73.3039 114.911L70.7111 118.607L72.1204 118.837L70.977 120.234L72.2609 125.831L76.6108 121.569L76.4241 118.881L80.8397 119.21L82.0639 117.494ZM74.0592 116.84L74.6463 115.497L76.346 114.996L76.1753 116.876L74.0592 116.84Z" fill="#C4CDFA" style="mix-blend-mode:plus-lighter"/>
<path d="M70.7184 113.781L66.6011 113.582L62.5188 117.502L66.1484 119.088L69.3019 118.376L70.7111 118.607L73.3039 114.911L71.9614 114.324L70.7184 113.781Z" fill="#C4CDFA" style="mix-blend-mode:plus-lighter"/>
<path d="M74.6463 115.497L74.0592 116.84L76.1753 116.876L76.346 114.996L74.6463 115.497Z" fill="#C4CDFA" style="mix-blend-mode:plus-lighter"/>
<path d="M66.6011 113.582L70.7184 113.781L71.9614 114.324L68.9717 111.004L71.2307 110.036L72.6756 109.304L73.7286 105.676L75.6736 103.8L77.1313 106.155L76.9297 110.274L78.4737 106.742L76.7296 98.8111L71.8104 96.2472L69.856 98.415L71.0156 103.484L70.1896 108.218L69.4716 107.016L63.9526 104.605L58.1483 107.045L63.0706 109.196L64.9385 111.967L66.6413 112L66.6011 113.582Z" fill="#C4CDFA" style="mix-blend-mode:plus-lighter"/>
<path d="M58.9358 120.009L61.9809 118.733L66.1484 119.088L62.5188 117.502L66.6011 113.582L60.2122 113.161L53.9077 116.746L52.0622 119.613L58.9358 120.009Z" fill="#C4CDFA" style="mix-blend-mode:plus-lighter"/>
<path d="M60.796 100.583L53.0863 98.5777L51.8622 100.294L47.4466 99.9649L47.6333 102.653L43.2834 106.915L41.9994 101.318L43.1428 99.9213L41.7336 99.6908L40.3244 99.4602L37.1709 100.172L39.9112 100.405L36.2946 104.75L35.1516 109.939L36.2865 116.418L37.666 114.888L42.0752 112.252L45.0454 108.573L44.6195 106.432L46.8576 114.045L52.4668 116.792L51.4751 113.1L52.1058 111.658L48.9757 103.24L51.6606 104.413L59.6657 107.91L65.2682 106.744L60.796 100.583Z" fill="#CEA8E6" style="mix-blend-mode:plus-lighter"/>
<path d="M54.3185 84.2449L49.4962 87.8259L47.9522 91.3579L54.7011 88.3817L54.7325 91.8318L51.004 94.9426L52.7319 96.4084L48.8601 96.7313L53.0863 98.5777L55.4168 97.5814L60.7522 97.8387L58.5645 96.883L63.2968 94.8624L65.394 91.6905L57.6784 92.4078L58.0481 91.5621L60.6673 88.1443L57.3704 88.7776L58.9579 85.1461L57.1148 80.9638L57.6584 79.7201L56.8628 78.4246L54.3185 84.2449Z" fill="#CEA8E6" style="mix-blend-mode:plus-lighter"/>
<path d="M54.7011 88.3817L47.9522 91.3579L48.1078 94.3883L48.8601 96.7313L52.7319 96.4084L51.004 94.9426L54.7325 91.8318L54.7011 88.3817Z" fill="#CEA8E6" style="mix-blend-mode:plus-lighter"/>
<path fill-rule="evenodd" clip-rule="evenodd" d="M53.0863 98.5777L48.8601 96.7313L48.1078 94.3883L47.9522 91.3579L48.1537 87.2394L46.6961 84.8844L44.7511 86.7601L43.698 90.3881L42.2532 91.1195L39.9942 92.0878L42.9839 95.4083L44.3263 95.9948L41.7336 99.6908L43.1428 99.9213L41.9994 101.318L43.2834 106.915L47.6333 102.653L47.4466 99.9649L51.8622 100.294L53.0863 98.5777ZM45.0816 97.9245L45.6688 96.5813L47.3685 96.0797L47.1978 97.9603L45.0816 97.9245Z" fill="#CEA8E6" style="mix-blend-mode:plus-lighter"/>
<path d="M41.7409 94.8653L37.6235 94.6662L33.5413 98.5861L37.1709 100.172L40.3244 99.4602L41.7336 99.6908L44.3263 95.9948L42.9839 95.4083L41.7409 94.8653Z" fill="#CEA8E6" style="mix-blend-mode:plus-lighter"/>
<path d="M45.6688 96.5813L45.0816 97.9245L47.1978 97.9603L47.3685 96.0797L45.6688 96.5813Z" fill="#CEA8E6" style="mix-blend-mode:plus-lighter"/>
<path d="M37.6235 94.6662L41.7409 94.8653L42.9839 95.4083L39.9942 92.0878L42.2532 91.1195L43.698 90.3881L44.7511 86.7601L46.6961 84.8844L48.1537 87.2394L47.9522 91.3579L49.4962 87.8259L47.7521 79.895L42.8328 77.3312L40.8785 79.499L42.0381 84.5676L41.212 89.302L40.4941 88.0996L34.9751 85.6885L29.1707 88.1294L34.0931 90.2799L35.9609 93.0511L37.6638 93.0841L37.6235 94.6662Z" fill="#CEA8E6" style="mix-blend-mode:plus-lighter"/>
<path d="M29.9583 101.093L33.0034 99.8166L37.1709 100.172L33.5413 98.5861L37.6235 94.6662L31.2347 94.2449L24.9302 97.83L23.0847 100.697L29.9583 101.093Z" fill="#CEA8E6" style="mix-blend-mode:plus-lighter"/>
</g>
<path d="M20.3687 41.3442L35.6851 140.624L30.0967 147.179L14.5734 37.8945L20.3687 41.3442Z" fill="#8064BF" stroke="#5B3DA8" stroke-width="1.5"/>
<path d="M35.3406 140.629L30.0972 146.976H114.475L109.438 140.629H35.3406Z" fill="#463477" stroke="#5B3DA8" stroke-width="1.5"/>
<path d="M124.893 41.3442L109.439 140.624L115.027 147.179L130.551 37.8945L124.893 41.3442Z" fill="#8064BF" stroke="#5B3DA8" stroke-width="1.5"/>
</svg>
