<svg width="128" height="137" viewBox="0 0 128 137" fill="none" xmlns="http://www.w3.org/2000/svg">
<path d="M30.659 129.76L13.7333 35.6879L115.675 33.5949L101.691 129.235L30.659 129.76Z" fill="#F7B0CC" stroke="#5B3DA8" stroke-width="1.5"/>
<path d="M125.068 1.62242L120.945 33.25L7.72529 35.4399L2.44336 3.99414L125.068 1.62242ZM60.915 11.1529L60.9675 13.8691L55.3944 13.9769L55.4717 17.9762L72.4968 17.6469L72.4195 13.6476L67.0631 13.7512L67.0105 11.035L60.915 11.1529Z" fill="#D9D9D9"/>
<path d="M125.068 1.62242L120.945 33.25L7.72529 35.4399L2.44336 3.99414L125.068 1.62242ZM60.915 11.1529L60.9675 13.8691L55.3944 13.9769L55.4717 17.9762L72.4968 17.6469L72.4195 13.6476L67.0631 13.7512L67.0105 11.035L60.915 11.1529Z" fill="#C4CDFA"/>
<path d="M116.715 30.9054L120.885 33.1908L125.006 1.62451L119.741 5.42708L116.715 30.9054Z" fill="#8064BF" stroke="#5B3DA8" stroke-width="1.5"/>
<path d="M9.89805 33.6458L3.51845 6.01042L15.6125 4.7288L20.1275 33.461L9.89805 33.6458Z" fill="#8C87E3" fill-opacity="0.3"/>
<path d="M18.8861 38.6217L13.7327 35.6581L115.857 33.5914L110.642 36.847L18.8861 38.6217Z" fill="#AE86DB" stroke="#5B3DA8" stroke-width="1.5"/>
<path d="M11.9818 32.9311L7.78244 35.3784L2.44336 3.99512L7.85168 7.59125L11.9818 32.9311Z" fill="#8064BF" stroke="#5B3DA8" stroke-width="1.5"/>
<path d="M7.85239 7.59136L2.44525 4.05588L124.827 1.68885L119.743 5.42725L7.85239 7.59136Z" fill="#AE86DB" stroke="#5B3DA8" stroke-width="1.5"/>
<path d="M11.9504 32.9316L7.75444 35.4395L120.918 33.2507L116.628 30.907L11.9504 32.9316Z" fill="#463477" stroke="#5B3DA8" stroke-width="1.5"/>
<path d="M63.954 45.1558L41.1934 45.596L39.3194 45.6322L40.6561 68.2974L91.1687 67.0145L88.8355 43.3062L63.954 45.1558Z" fill="white"/>
<path d="M43.0747 48.4797C43.1 48.5725 43.0867 48.695 43.0639 48.7902C43.0569 48.8204 43.0163 48.8081 43.0096 48.8292C42.9965 48.8667 43.0185 48.907 43.0024 48.9442C42.9969 48.9573 42.933 48.9454 42.9287 48.9591C42.9057 49.0371 42.926 49.1062 42.9172 49.1799C42.8742 49.553 42.8735 49.9226 42.8679 50.2953C42.8664 50.4224 42.8185 50.5745 42.8513 50.6993C42.8552 50.7138 42.9098 50.7016 42.9146 50.7041C42.9869 50.744 42.8746 50.7362 42.8616 50.7663C42.8125 50.8857 42.8129 51.001 42.8386 51.113C42.8395 51.1168 42.8405 51.1206 42.8415 51.1244C42.8536 51.1699 42.9603 51.1168 42.9017 51.1672C42.8977 51.1707 42.8384 51.1626 42.8329 51.1757C42.8207 51.2053 42.8346 51.2602 42.8314 51.2835C42.8249 51.3284 42.8259 51.3357 42.8279 51.3783C42.8299 51.4337 42.8049 51.502 42.822 51.5625C42.8258 51.5754 42.8848 51.5543 42.8963 51.5746C42.9078 51.5946 42.9063 51.6517 42.8932 51.6704C42.8802 51.6894 42.8325 51.6846 42.8219 51.6885C42.7322 51.7204 42.8625 51.7753 42.8662 51.7833C42.9288 51.9302 42.8645 52.0595 42.8735 52.2006C42.8806 52.3097 42.9111 52.4161 42.9142 52.5193C42.9177 52.6427 42.8912 52.7413 42.9041 52.8598C42.9054 52.8722 42.9751 52.8532 42.9769 52.8684C42.995 53.0279 42.9972 53.1868 42.9594 53.3489C42.9555 53.365 42.8923 53.3485 42.8847 53.3648C42.8397 53.464 42.727 53.6282 43.0006 53.6695C42.9941 53.7352 42.9881 53.8157 42.9374 53.8784C42.9048 53.9189 42.8349 53.8859 42.8667 53.9312C42.8737 53.9414 42.932 53.9239 42.9382 53.9395C42.964 54.0059 42.9493 54.0795 42.9839 54.143C42.9911 54.1559 43.0439 54.149 43.0537 54.1522C43.1329 54.1791 43.0085 54.2402 42.9999 54.2525C42.9361 54.3449 42.9676 54.4104 42.9709 54.4909C42.9716 54.5098 43.0414 54.483 43.0447 54.5011C43.0608 54.595 43.0608 54.6942 43.0351 54.7906C43.0292 54.812 42.9673 54.7965 42.9614 54.8069C42.936 54.8529 43.0511 54.8546 43.029 54.8979C43.0244 54.907 42.9722 54.9053 42.9666 54.9072C42.8787 54.9378 43.0068 54.9518 43.01 54.9581C43.0534 55.0375 42.9243 55.0983 42.948 55.1772C42.9509 55.1866 43.0153 55.1609 43.0196 55.1877C43.0488 55.3636 43.0424 55.5535 43.0008 55.7324C42.9944 55.7601 42.9439 55.7438 42.9379 55.7458C42.8446 55.7796 42.973 55.7898 42.9784 55.7983C43.0173 55.8663 42.9146 55.9388 43.0692 55.9774C43.0351 56.2788 43.1387 56.5701 43.0212 56.874C43.0198 56.8779 42.9567 56.875 42.9543 56.8827C42.9247 56.9756 43.0211 56.9527 43.144 57.0047C43.1749 57.0178 43.0338 57.0722 43.0235 57.0769C42.9855 57.094 42.8913 57.0845 42.884 57.0899C42.8274 57.1343 43.1356 57.1085 43.1391 57.1635C43.1387 57.1652 43.0815 57.1615 43.0761 57.1665C43.0593 57.1819 43.0827 57.1948 43.064 57.2101C43.0208 57.2451 42.8716 57.2658 42.9619 57.3098C42.9736 57.3153 43.1481 57.2949 43.1429 57.3449C43.1406 57.3646 43.1491 57.4525 43.1392 57.4769C43.1294 57.5018 43.072 57.4887 43.0696 57.4905C42.9991 57.5603 42.9666 57.5375 42.8582 57.5771C42.7503 57.6166 43.0121 57.5912 43.0422 57.6028C43.0722 57.6143 43.0137 57.6661 42.993 57.6792C42.9723 57.6924 42.9356 57.6799 42.9241 57.6911C42.8493 57.7657 43.0563 57.7136 43.0993 57.734C43.2013 57.782 43.0093 57.8364 42.9934 57.8874C42.9891 57.9012 43.0327 57.8874 43.0376 57.8992C43.0564 57.9458 42.9974 57.9772 43.0564 58.0274C43.066 58.0356 43.1856 58.0716 43.1015 58.105C43.0894 58.1097 43.0402 58.1014 43.0306 58.1222C43.0162 58.1532 43.0089 58.2081 43.0272 58.2395C43.0406 58.2627 43.1188 58.2303 43.0959 58.262C43.0856 58.276 43.0373 58.2541 43.022 58.2803C43.0066 58.3064 43.0127 58.3704 43.0158 58.3948C43.0189 58.4189 43.0787 58.4018 43.0829 58.4036C43.107 58.4139 43.1391 58.4583 43.1393 58.4624C43.1595 58.6677 43.0694 58.8678 43.1156 59.0659C43.1192 59.0815 43.1824 59.067 43.1836 59.0693C43.2138 59.1218 43.0412 59.0897 42.9867 59.1311C43.116 59.1175 43.0939 59.1413 43.1105 59.1787C43.1186 59.1967 43.1682 59.1835 43.1735 59.1849C43.2514 59.2075 43.1541 59.2327 43.1342 59.2388C43.0612 59.2616 43.1501 59.2759 43.1013 59.2913C43.0529 59.3067 42.9782 59.2828 42.9814 59.3195C43.0285 59.327 43.1481 59.2921 43.1695 59.3188C43.2504 59.4194 43.1673 59.62 43.1627 59.7054C43.158 59.7904 43.1683 59.8173 43.1546 59.8675C43.1297 59.9576 43.2177 59.9197 43.2623 59.9719C43.3069 60.0244 43.0838 60.0114 43.0367 60.0223C42.9896 60.033 43.0391 60.0384 43.0135 60.0497C42.988 60.061 42.9543 60.0421 42.9459 60.0654C42.9375 60.0887 43.026 60.1455 43.0763 60.1505C43.1828 60.161 43.2918 60.1261 43.2566 60.1887C43.2545 60.1923 43.1956 60.1847 43.1905 60.1983C43.1522 60.3066 43.1563 60.4161 43.1231 60.5231C43.1184 60.5379 43.0529 60.529 43.0494 60.5377C43.0134 60.6276 43.1207 60.5896 43.245 60.63C43.0829 60.6293 42.9857 60.6619 42.9889 60.7285C42.9908 60.7686 43.0609 60.7573 43.1122 60.7801C43.1276 60.787 43.081 60.8183 43.1145 60.8214C43.2239 60.8316 43.3437 60.7974 43.2996 60.8691C43.2975 60.8722 43.2375 60.8664 43.2346 60.8769C43.2152 60.9452 43.3291 60.9462 43.3474 61.0177C43.3617 61.0738 43.2988 61.1792 43.2916 61.2448C43.1099 61.2547 43.1553 61.3135 43.282 61.3306C43.2795 61.3732 43.2894 61.4178 43.2746 61.4595C43.2696 61.4738 43.2165 61.4679 43.2109 61.47C43.1235 61.5025 43.2464 61.5131 43.2517 61.5219C43.3042 61.6171 43.2169 61.703 43.3129 61.7914C43.3164 61.7945 43.4428 61.7921 43.3523 61.823C43.3461 61.825 43.2868 61.7975 43.2851 61.842C43.2834 61.8868 43.2209 61.9737 43.2832 62.0313C43.2982 62.0452 43.4029 62.0763 43.3247 62.1114C43.3141 62.116 43.2777 62.1139 43.2579 62.1209C43.1949 62.1436 43.323 62.1459 43.2161 62.1747C43.1092 62.2034 43.0309 62.2542 43.1095 62.3114C43.1118 62.3133 43.2137 62.3217 43.2133 62.3412C43.2126 62.3725 43.1943 62.4181 43.197 62.4502C43.1983 62.4657 43.2604 62.4519 43.2617 62.4545C43.3034 62.5563 43.252 62.634 43.2347 62.7472C43.2314 62.768 43.3206 62.8216 43.2554 62.8655C43.1841 62.9137 42.8733 62.8882 42.9529 62.9837C42.9848 63.0221 43.3787 63.0488 43.1807 63.1339C43.2396 63.2712 43.1441 63.4084 43.2245 63.5447C43.2281 63.5508 43.3384 63.5641 43.3378 63.5791C43.3368 63.6013 43.2866 63.6166 43.2842 63.6326C43.2729 63.6998 43.3203 63.7577 43.3175 63.822C43.3165 63.8464 43.2633 63.8412 43.2622 63.8703C43.2611 63.8994 43.3317 63.9144 43.3006 63.9557C43.2769 63.987 43.1368 64.0253 43.1227 64.0655C43.2628 64.0583 43.2615 64.0854 43.3015 64.131C43.3092 64.1398 43.3573 64.1269 43.3635 64.1309C43.3897 64.147 43.3503 64.166 43.3787 64.1811C43.3855 64.1848 43.4333 64.182 43.4416 64.1849C43.5137 64.2089 43.4091 64.2625 43.3909 64.2718C43.3218 64.3071 43.3848 64.3176 43.3583 64.3431C43.3318 64.3685 43.2946 64.3353 43.2793 64.364C43.2478 64.4234 43.2601 64.4967 43.2615 64.5549C43.2623 64.5781 43.3251 64.5584 43.3267 64.5616C43.3459 64.6085 43.281 64.6612 43.4098 64.6799C43.0833 64.7336 43.4434 64.7069 43.3819 64.7795C43.3769 64.7852 43.222 64.8018 43.1979 64.7824C43.1738 64.7631 43.2204 64.7287 43.1831 64.7021C43.1743 64.6958 43.0263 64.6658 43.0172 64.6611C42.9457 64.6236 43.1775 64.6033 43.1901 64.6003C43.3261 64.5668 43.1663 64.5289 43.1547 64.517C43.1015 64.4625 43.1311 64.4116 43.0927 64.3657C43.0678 64.3357 42.9155 64.342 42.9187 64.3171C42.929 64.234 43.1393 64.1922 42.9506 64.1264C42.9103 64.1123 42.7451 64.139 42.8721 64.0716C42.8802 64.0673 42.997 64.016 42.9198 63.9951C42.91 63.9924 42.8616 63.9956 42.8573 63.9916C42.8292 63.9649 42.8666 63.9436 42.8462 63.9139C42.8258 63.8842 42.796 63.8488 42.8102 63.8126C42.8187 63.7908 42.9073 63.7579 42.9287 63.7464C42.9906 63.7138 42.8843 63.6896 42.9603 63.667C43.0367 63.6443 43.1565 63.672 43.2036 63.622C43.0777 63.6281 42.9482 63.6321 42.8215 63.6372C42.8196 63.5342 42.854 63.4303 42.842 63.3273C42.8404 63.3145 42.7735 63.3318 42.7701 63.3182C42.7557 63.261 42.8008 63.2074 42.7779 63.1486C42.7599 63.1031 42.6851 63.0567 42.664 63.0093C42.8062 62.9709 42.7528 62.9015 42.7627 62.8483C42.7661 62.8296 42.8046 62.8284 42.8164 62.8146C42.8597 62.7624 42.7339 62.7934 42.713 62.7812C42.624 62.7285 42.9117 62.7057 42.9003 62.6379C42.8998 62.6343 42.7436 62.5997 42.7336 62.5942C42.6689 62.5594 42.7867 62.5845 42.7965 62.5596C42.8145 62.5142 42.8493 62.4813 42.8011 62.4323C42.7868 62.4179 42.6889 62.3875 42.7611 62.3534C42.7705 62.349 42.8214 62.348 42.8242 62.3447C42.8702 62.2852 42.7106 62.2936 42.6546 62.2648C42.5986 62.2359 42.7056 62.1794 42.7367 62.1673C42.8172 62.1357 42.7731 62.1854 42.7812 62.1863C42.8781 62.1972 42.8594 62.162 42.8657 62.1338C43.0218 62.1201 43.0101 62.082 42.8717 62.1046C42.8566 62.1072 42.8725 62.1278 42.8657 62.1338C42.7108 62.119 42.6885 62.0777 42.829 62.0219C42.8948 61.9958 42.9744 62.0117 42.9416 61.9468C42.9268 61.9173 42.8199 61.9358 42.7889 61.9108C42.7181 61.8536 42.8136 61.7677 42.7938 61.7056C42.7867 61.683 42.7291 61.709 42.7222 61.6937C42.7036 61.6532 42.7456 61.6139 42.7203 61.5736C42.718 61.57 42.6569 61.583 42.6553 61.5702C42.642 61.4726 42.6762 61.3847 42.6709 61.2817C42.6683 61.2319 42.6288 61.1454 42.6325 61.0937C42.6384 61.0039 42.7214 60.8897 42.6948 60.8144C42.6778 60.7655 42.6168 60.7803 42.5734 60.7616C42.4894 60.7255 42.6308 60.6439 42.6528 60.6327C42.6535 60.6324 42.6707 60.6741 42.701 60.6494C42.7662 60.632 42.6531 60.6332 42.6528 60.6327C42.667 60.6254 42.6757 60.5393 42.6629 60.5232C42.6559 60.5144 42.5977 60.5232 42.5952 60.5186C42.5358 60.4086 42.5138 60.2943 42.534 60.177C42.535 60.1749 42.6006 60.1739 42.6023 60.169C42.6272 60.1003 42.5446 60.0624 42.4936 60.0104C42.4427 59.9582 42.456 59.9141 42.5662 59.8741C42.5494 59.8331 42.5953 59.77 42.6233 59.7337C42.6513 59.6974 42.5237 59.7005 42.521 59.6976C42.4346 59.6082 42.5041 59.5492 42.5094 59.4511C42.5121 59.4049 42.4879 59.3126 42.4708 59.2631C42.4571 59.2239 42.4855 59.198 42.4641 59.1625C42.4613 59.1577 42.4049 59.1662 42.4026 59.1648C42.3323 59.1281 42.472 59.1392 42.4963 59.1292C42.5843 59.093 42.6311 59.0711 42.5855 59.0215C42.5751 59.01 42.3734 58.9873 42.3604 58.9661C42.3438 58.9385 42.416 58.9449 42.3968 58.916C42.3952 58.9135 42.3511 58.9168 42.3519 58.898C42.355 58.811 42.3748 58.7154 42.3649 58.6264C42.3637 58.6143 42.2947 58.6342 42.2918 58.6167C42.2784 58.5345 42.2754 58.4449 42.3031 58.3612C42.3101 58.3408 42.3599 58.3503 42.3742 58.345C42.4605 58.313 42.3303 58.2833 42.3275 58.2772C42.2568 58.1326 42.3657 58.0152 42.3012 57.8664C42.2974 57.8584 42.1564 57.8036 42.2722 57.7682C42.2799 57.7658 42.3985 57.7304 42.3147 57.7109C42.3095 57.7097 42.2486 57.7309 42.253 57.7003C42.2575 57.6697 42.2131 57.6237 42.2786 57.5781C42.2992 57.5636 42.4173 57.5253 42.3192 57.4922C42.3124 57.49 42.0923 57.4423 42.2402 57.4113C42.2645 57.4063 42.4226 57.4001 42.3388 57.3581C42.3225 57.3501 42.2883 57.3686 42.2648 57.3463C42.2287 57.3121 42.268 57.2615 42.1949 57.2215C42.1819 57.2146 42.0727 57.1883 42.1524 57.1569C42.1649 57.152 42.2181 57.1566 42.2232 57.1423C42.2474 57.0746 42.2078 57.0072 42.24 56.9368C42.2514 56.912 42.3374 56.919 42.3586 56.8926C42.3799 56.8661 42.3988 56.8145 42.3582 56.7908C42.3176 56.7672 42.1835 56.8041 42.1703 56.7658C42.1126 56.6007 42.1817 56.4246 42.1829 56.2555C42.1831 56.2303 42.1357 56.2541 42.1325 56.2173C42.1205 56.0816 42.0601 55.8461 42.1561 55.7232C42.2329 55.6224 42.3034 55.7391 42.3325 55.6637C42.3464 55.6273 42.1861 55.599 42.1806 55.5908C42.1249 55.5109 42.1913 55.4492 42.1653 55.3767C42.1599 55.3617 42.0968 55.3806 42.0929 55.3679C42.079 55.3244 42.1047 55.2759 42.0968 55.2329C42.0931 55.2138 42.0444 55.2204 42.0471 55.2024C42.0529 55.1594 42.0712 55.1208 42.1144 55.0769C42.1184 55.0729 42.1808 55.0943 42.1811 55.063C42.1815 55.0124 42.2228 54.9473 42.1725 54.8928C42.1575 54.8768 42.0457 54.8829 42.1205 54.8407C42.1361 54.8318 42.2709 54.8335 42.1523 54.7971C42.1326 54.791 41.9717 54.7278 42.0703 54.686C42.0962 54.675 42.2045 54.6442 42.186 54.6246C42.1831 54.622 42.1237 54.637 42.1168 54.6202C42.0935 54.5608 42.0961 54.4994 42.0733 54.4369C42.0671 54.4204 42.0066 54.4493 41.9994 54.4246C41.9794 54.3568 41.9899 54.2707 42.0053 54.2035C42.011 54.1787 42.0635 54.1923 42.069 54.1902C42.1583 54.1561 42.0344 54.1469 42.0266 54.1379C41.9801 54.0829 42.0349 54.0321 42.0162 53.9784C42.0112 53.9635 41.9533 53.9779 41.9479 53.9752C41.8949 53.9471 42.0016 53.9638 42.0119 53.9433C42.0414 53.8859 42.0328 53.825 42.0219 53.7703C42.0178 53.7502 41.9513 53.7772 41.9484 53.7591C41.93 53.6517 41.9293 53.5355 41.9603 53.4285C41.9662 53.4082 42.0193 53.4174 42.031 53.4126C42.1128 53.3788 41.9963 53.3451 41.9847 53.3353C41.9324 53.2937 41.9776 53.2735 41.9665 53.2348C41.9117 53.0483 41.9277 52.8094 41.9356 52.6313C41.9453 52.394 41.9838 52.2093 41.9572 51.9894C41.9555 51.975 41.8868 51.9939 41.8845 51.9815C41.8578 51.8227 41.8755 51.6672 41.8456 51.5106C41.8432 51.4979 41.7784 51.5204 41.7724 51.5002C41.7599 51.4598 41.76 51.4038 41.7783 51.3589C41.7872 51.337 41.8456 51.362 41.8533 51.3401C41.8715 51.289 41.8729 51.2363 41.8593 51.1877C41.8535 51.1678 41.7924 51.2003 41.7858 51.1783C41.7856 51.1775 41.7854 51.1765 41.7853 51.1755C41.7665 50.9806 41.7435 50.7983 41.8188 50.5981C41.824 50.5844 41.9604 50.5642 41.9324 50.538C41.8942 50.5383 41.8494 50.5411 41.8087 50.5428C41.7695 50.2658 41.8 49.9894 41.79 49.7099C41.7896 49.6978 41.7182 49.7231 41.7169 49.6998C41.7099 49.5695 41.6817 49.44 41.7457 49.3029C41.7519 49.2887 41.8802 49.2874 41.8584 49.2489C41.8544 49.2414 41.8338 49.1866 41.805 49.1709C41.8007 49.169 41.7417 49.1838 41.7387 49.1643C41.7228 49.0551 41.7292 48.9372 41.7588 48.8243C41.7636 48.8052 41.8284 48.8212 41.8324 48.8076C41.8605 48.7149 41.8061 48.6203 41.8584 48.5297C41.8937 48.4697 42.0049 48.4837 42.1112 48.4473C42.1261 48.4408 42.1264 48.4062 42.1891 48.4C42.347 48.3854 42.5214 48.3922 42.6896 48.3743C42.7259 48.3726 42.6834 48.3208 42.7732 48.3479C42.7792 48.3496 42.8105 48.3825 42.8408 48.3891C42.8618 48.3937 42.9251 48.3789 42.9522 48.3896C42.9793 48.4002 42.9265 48.4175 42.9587 48.4349C42.9914 48.4549 43.0635 48.4387 43.0747 48.4797ZM42.7483 59.5705C42.8075 59.5349 42.5833 59.5442 42.639 59.5752C42.6419 59.5767 42.7454 59.5723 42.7483 59.5705ZM43.0229 63.4204C43.119 63.3726 42.9721 63.3531 42.8976 63.3872C42.8233 63.4214 42.9937 63.435 43.0229 63.4204ZM43.1218 63.8474C43.1966 63.7939 42.8786 63.8059 42.9461 63.8541C42.9499 63.8569 43.1174 63.8505 43.1218 63.8474ZM42.1508 48.5871C42.1537 48.5866 42.1551 48.5613 42.152 48.5603C42.0801 48.5511 42.0775 48.6027 42.1508 48.5871ZM43.2268 64.2708C43.2689 64.2529 43.2166 64.2123 43.1643 64.2345C43.1223 64.2523 43.1746 64.293 43.2268 64.2708ZM42.8842 57.8955C42.8875 57.8948 42.8893 57.876 42.8705 57.8776C42.8098 57.8826 42.8286 57.9074 42.8842 57.8955ZM43.2757 64.9985C43.281 64.8902 43.5392 64.8087 43.5169 64.9277C43.5128 64.9492 43.4304 64.8871 43.4084 64.9156C43.3684 64.9677 43.5351 64.9903 43.45 65.0462C43.4344 65.0564 43.2748 65.0047 43.2753 64.9984C43.2755 64.9984 43.2756 64.9985 43.2757 64.9985ZM43.0161 59.5355C43.019 59.5347 43.0202 59.509 43.0173 59.5086C42.9453 59.4992 42.9428 59.5509 43.0161 59.5355ZM42.9557 56.8092C42.9619 56.8074 42.9641 56.7477 42.9582 56.7462C42.84 56.7225 42.8352 56.8431 42.9557 56.8092ZM43.2868 61.2462C43.36 61.2697 43.3705 61.3026 43.2821 61.3305C43.2852 61.3024 43.2841 61.2743 43.2868 61.2462Z" fill="#8064BF"/>
<path d="M44.5882 64.0851C44.8304 64.0577 45.1485 64.0685 45.3921 64.0894C45.4695 64.0958 45.4315 64.1368 45.4865 64.143C45.5824 64.1554 45.6891 64.1325 45.7842 64.1479C45.8173 64.1532 45.7782 64.2174 45.8131 64.2215C46.011 64.243 46.1949 64.2212 46.3846 64.2285C47.3465 64.2641 48.3068 64.2574 49.2723 64.2556C49.6012 64.2547 49.9898 64.2996 50.3183 64.2642C50.3565 64.26 50.3319 64.2055 50.3391 64.2007C50.4517 64.1274 50.4171 64.2401 50.4933 64.2525C50.799 64.2999 51.1021 64.2967 51.3977 64.268C51.4053 64.2672 51.4128 64.2664 51.4203 64.2656C51.5397 64.2526 51.416 64.1466 51.539 64.2044C51.5476 64.2083 51.5188 64.2679 51.5521 64.2732C51.6274 64.2849 51.7715 64.2698 51.8315 64.2726C51.947 64.2782 51.9662 64.277 52.0769 64.2742C52.2217 64.271 52.3948 64.2948 52.5541 64.2764C52.5881 64.2724 52.5411 64.2136 52.5951 64.2017C52.6487 64.1898 52.796 64.1902 52.8436 64.2029C52.891 64.2156 52.8725 64.2635 52.8812 64.2741C52.9523 64.3634 53.1115 64.2316 53.1328 64.2278C53.5218 64.1621 53.8494 64.224 54.2165 64.2122C54.5007 64.2029 54.7804 64.1702 55.0487 64.165C55.3696 64.159 55.6216 64.1837 55.9308 64.1683C55.9632 64.1668 55.923 64.0973 55.9625 64.0952C56.379 64.0738 56.7913 64.0685 57.207 64.1032C57.2483 64.1067 57.1973 64.1705 57.2386 64.1777C57.4903 64.2208 57.9015 64.3305 58.0441 64.0554C58.2138 64.0606 58.4219 64.065 58.5781 64.1146C58.6788 64.1465 58.5841 64.2172 58.7058 64.1844C58.7333 64.1771 58.6954 64.119 58.7368 64.1126C58.9124 64.0853 59.1014 64.0986 59.2705 64.0626C59.305 64.0551 59.2938 64.0024 59.3034 63.9925C59.3836 63.9125 59.5261 64.036 59.5567 64.0444C59.7882 64.1065 59.9622 64.0736 60.1715 64.0687C60.2207 64.0676 60.1603 63.9981 60.2076 63.9945C60.4532 63.9764 60.7108 63.9744 60.9574 63.9983C61.0123 64.0037 60.964 64.0661 60.9903 64.0718C61.1063 64.0963 61.1257 63.9808 61.2351 64.0022C61.2581 64.0065 61.2469 64.0589 61.2512 64.0645C61.3192 64.1521 61.372 64.0233 61.3887 64.0199C61.6004 63.9749 61.7416 64.1031 61.9492 64.0777C61.974 64.0745 61.9157 64.0106 61.9857 64.0057C62.4458 63.9729 62.9379 63.9753 63.3967 64.0134C63.4676 64.0193 63.4187 64.0703 63.4233 64.0762C63.4989 64.1691 63.5419 64.0401 63.5648 64.0346C63.7461 63.9942 63.9209 64.0957 64.0412 63.9398C64.8186 63.9679 65.5878 63.858 66.3613 63.9695C66.3712 63.9708 66.3556 64.0342 66.3753 64.0364C66.6124 64.0642 66.5656 63.9679 66.7163 63.8436C66.7541 63.8124 66.8771 63.9528 66.8879 63.963C66.9273 64.0007 66.8907 64.0954 66.9037 64.1026C67.0115 64.1584 66.9843 63.8499 67.1275 63.8453C67.132 63.8456 67.115 63.9031 67.1272 63.9084C67.1651 63.925 67.2015 63.9012 67.2387 63.9196C67.324 63.9622 67.3586 64.1114 67.4843 64.0199C67.5002 64.0081 67.4697 63.8336 67.5987 63.8377C67.6498 63.8396 67.8788 63.8293 67.9408 63.8386C68.004 63.848 67.9626 63.9058 67.9672 63.9082C68.1391 63.9774 68.0758 64.0104 68.1644 64.1183C68.253 64.2257 68.221 63.9638 68.2548 63.9333C68.2886 63.903 68.4155 63.9606 68.4469 63.981C68.4783 64.0015 68.4411 64.0386 68.4688 64.0499C68.6526 64.1233 68.5442 63.9169 68.6026 63.8733C68.7405 63.77 68.8568 63.9614 68.9871 63.9763C69.0224 63.9804 68.9923 63.9369 69.0234 63.9317C69.1464 63.9119 69.2207 63.9704 69.3583 63.9102C69.3808 63.9004 69.4897 63.7797 69.5655 63.8633C69.5763 63.8754 69.5484 63.9249 69.6011 63.9341C69.6797 63.9479 69.8212 63.954 69.905 63.9351C69.9669 63.9211 69.8929 63.8433 69.9722 63.8657C70.0074 63.8757 69.9443 63.9245 70.0103 63.9394C70.076 63.9542 70.2429 63.9468 70.3065 63.9432C70.3691 63.9395 70.3329 63.8799 70.3378 63.8757C70.3676 63.8513 70.487 63.8182 70.4977 63.8179C71.0332 63.7933 71.5405 63.8795 72.0605 63.8289C72.1015 63.825 72.0721 63.7619 72.0783 63.7606C72.2184 63.7293 72.1127 63.903 72.213 63.9568C72.1946 63.8274 72.2535 63.8491 72.3526 63.8316C72.4003 63.8231 72.3726 63.7737 72.3768 63.7684C72.4455 63.6897 72.4983 63.7868 72.5117 63.8065C72.5613 63.8793 72.6099 63.7899 72.6436 63.8385C72.6773 63.8867 72.6057 63.9621 72.7014 63.9581C72.7268 63.9107 72.6518 63.7915 72.7239 63.7695C72.9951 63.6862 73.5049 63.7653 73.7259 63.7681C73.9458 63.7709 74.0172 63.7601 74.1455 63.7727C74.3759 63.7957 74.2889 63.7083 74.4303 63.6625C74.5722 63.6166 74.5097 63.8406 74.5318 63.8876C74.5536 63.9346 74.5741 63.8849 74.6001 63.9103C74.626 63.9357 74.5727 63.9698 74.6321 63.9778C74.6914 63.9857 74.8503 63.8957 74.8697 63.8452C74.9107 63.7381 74.8341 63.6296 74.9921 63.6635C75.0011 63.6655 74.9738 63.7248 75.0085 63.7296C75.2846 63.7656 75.5689 63.7593 75.8425 63.7902C75.8802 63.7945 75.8487 63.8605 75.8707 63.8638C76.0995 63.8979 76.0147 63.7912 76.1356 63.6656C76.1128 63.8282 76.185 63.9249 76.3582 63.9203C76.4624 63.9176 76.4422 63.8475 76.508 63.7956C76.5277 63.7799 76.6031 63.826 76.6154 63.7924C76.6559 63.6824 76.5827 63.5631 76.7629 63.6057C76.7707 63.6078 76.7479 63.668 76.7749 63.6707C76.9496 63.6887 76.9667 63.5744 77.1547 63.5546C77.302 63.539 77.5675 63.5998 77.7368 63.6056C77.7391 63.7875 77.8973 63.7407 77.9581 63.6133C78.0684 63.6148 78.1853 63.604 78.2914 63.6179C78.3279 63.6226 78.3057 63.676 78.3105 63.6816C78.3835 63.7685 78.427 63.645 78.4504 63.6395C78.7043 63.5848 78.9159 63.6704 79.1577 63.5722C79.1662 63.5686 79.1762 63.4419 79.2446 63.532C79.2491 63.5382 79.1701 63.5983 79.2854 63.599C79.4014 63.5997 79.6187 63.6604 79.7762 63.5968C79.8142 63.5814 79.9084 63.4757 79.9893 63.5533C80.0001 63.5638 79.9899 63.6004 80.0056 63.6201C80.0563 63.6827 80.0788 63.5542 80.1395 63.6608C80.2003 63.7674 80.3221 63.8448 80.4808 63.7647C80.4858 63.7624 80.5207 63.66 80.5714 63.6599C80.6524 63.6599 80.7684 63.6773 80.8521 63.6739C80.8924 63.6722 80.8646 63.6102 80.8715 63.6089C81.1411 63.5649 81.3359 63.6146 81.6276 63.6295C81.681 63.6323 81.8316 63.5417 81.9372 63.606C82.0531 63.6765 81.9469 63.9887 82.2048 63.9068C82.3087 63.874 82.4286 63.4783 82.6238 63.6749C82.9877 63.6128 83.3315 63.7055 83.6953 63.6218C83.7117 63.6181 83.7603 63.5072 83.7991 63.5074C83.8567 63.5079 83.89 63.558 83.9312 63.56C84.1039 63.5697 84.2603 63.5209 84.4268 63.5223C84.49 63.5227 84.4697 63.5762 84.5451 63.5767C84.6205 63.5771 84.6685 63.506 84.7716 63.5362C84.8497 63.5593 84.9311 63.6988 85.0337 63.7121C85.033 63.5718 85.1032 63.5724 85.2266 63.5313C85.2503 63.5234 85.223 63.4755 85.2341 63.4692C85.2794 63.4425 85.3235 63.4816 85.3664 63.4528C85.3768 63.4458 85.3757 63.398 85.3842 63.3896C85.456 63.3167 85.5816 63.4204 85.6032 63.4384C85.6859 63.507 85.7214 63.4435 85.784 63.4695C85.8465 63.4955 85.7556 63.5336 85.8281 63.5482C85.9783 63.5785 86.17 63.5645 86.3213 63.5618C86.3816 63.5604 86.3384 63.4978 86.3469 63.4962C86.4711 63.4759 86.5996 63.5397 86.6646 63.4102C86.7619 63.7363 86.7388 63.3758 86.9194 63.4358C86.9337 63.4407 86.9567 63.5957 86.9034 63.6203C86.8502 63.6449 86.7668 63.5989 86.6931 63.637C86.6756 63.6459 86.5789 63.795 86.5653 63.8043C86.4591 63.8769 86.4361 63.6449 86.4299 63.6323C86.3603 63.4966 86.2416 63.6578 86.2091 63.6697C86.0609 63.7243 85.9326 63.6958 85.8086 63.7354C85.7275 63.761 85.7245 63.9135 85.6601 63.911C85.446 63.9025 85.3645 63.6925 85.1695 63.8833C85.1276 63.924 85.1759 64.089 85.0172 63.9632C85.0072 63.9553 84.8889 63.8393 84.8248 63.9172C84.8167 63.927 84.8186 63.9755 84.8077 63.9799C84.7348 64.0087 84.6844 63.9717 84.6047 63.9928C84.525 64.0139 84.4294 64.0447 84.3372 64.0312C84.2817 64.0232 84.2079 63.9351 84.1808 63.9138C84.1041 63.8525 84.0276 63.9597 83.9789 63.884C83.9298 63.8079 84.017 63.6871 83.8932 63.641C83.8928 63.7672 83.8866 63.8969 83.8835 64.0238C83.6161 64.0281 83.351 63.996 83.0821 64.0103C83.0488 64.0122 83.0851 64.0788 83.0494 64.0826C82.899 64.0983 82.7658 64.0543 82.6103 64.0786C82.4899 64.0977 82.3599 64.1737 82.2343 64.1959C82.1529 64.0542 81.9659 64.1093 81.829 64.1005C81.781 64.0975 81.783 64.0589 81.7486 64.0475C81.6188 64.0051 81.683 64.1306 81.6485 64.1518C81.5005 64.2423 81.4782 63.9543 81.3009 63.9672C81.2915 63.9678 81.1815 64.1253 81.166 64.1354C81.0675 64.2011 81.1476 64.0824 81.0843 64.0731C80.9688 64.056 80.888 64.0219 80.7546 64.0713C80.7155 64.0859 80.6239 64.1848 80.5449 64.1132C80.5345 64.1038 80.5385 64.0528 80.5302 64.0501C80.3818 64.0052 80.3832 64.1651 80.3011 64.2219C80.219 64.2786 80.0861 64.1726 80.0588 64.1417C79.9873 64.0617 80.1104 64.1049 80.1139 64.0967C80.1546 63.9993 80.0608 64.0188 79.9885 64.0131C79.973 63.8568 79.8726 63.8695 79.9136 64.0077C79.9182 64.0228 79.9738 64.0064 79.9885 64.0131C79.9302 64.1687 79.8202 64.192 79.6935 64.0524C79.6341 63.987 79.6856 63.9068 79.513 63.9411C79.4347 63.9566 79.4689 64.0634 79.4 64.0951C79.2424 64.1673 79.0318 64.0734 78.8681 64.0946C78.8087 64.1023 78.8687 64.1594 78.8281 64.1667C78.7206 64.1862 78.6239 64.145 78.5163 64.1712C78.5066 64.1737 78.5326 64.2347 78.4989 64.2365C78.2439 64.252 78.0206 64.2196 77.7524 64.2271C77.623 64.2308 77.3933 64.2723 77.2596 64.2698C77.0275 64.2658 76.742 64.1851 76.5431 64.2133C76.4141 64.2315 76.4445 64.2924 76.3904 64.3362C76.286 64.4213 76.0923 64.2812 76.0662 64.2594C76.0654 64.2587 76.176 64.2405 76.1157 64.2107C76.0791 64.1457 76.0674 64.2591 76.0662 64.2594C76.049 64.2453 75.8269 64.2384 75.7834 64.2517C75.7597 64.2589 75.775 64.317 75.7626 64.3197C75.4696 64.3815 75.1704 64.4061 74.8686 64.3884C74.8633 64.3874 74.8691 64.3216 74.8566 64.3201C74.6814 64.2966 74.5726 64.3803 74.4309 64.4324C74.289 64.4846 74.1761 64.4723 74.0867 64.3626C73.9781 64.3803 73.8205 64.3356 73.7298 64.3083C73.6392 64.281 73.6308 64.4089 73.623 64.4117C73.3798 64.5002 73.2358 64.4318 72.9818 64.4286C72.8623 64.4268 72.6198 64.4531 72.4891 64.4713C72.3856 64.4858 72.3221 64.458 72.2272 64.4801C72.2144 64.4831 72.2292 64.5394 72.2253 64.5418C72.121 64.6131 72.1677 64.4727 72.1449 64.4486C72.0623 64.3611 72.0115 64.3146 71.8769 64.3614C71.8458 64.3721 71.7609 64.5748 71.7042 64.5883C71.6304 64.6055 71.6562 64.533 71.579 64.5529C71.5724 64.5545 71.5752 64.5986 71.5266 64.5982C71.301 64.597 71.0555 64.5791 70.8234 64.591C70.7917 64.5925 70.8346 64.6612 70.7889 64.6645C70.5737 64.6797 70.341 64.6845 70.1275 64.6585C70.0753 64.6519 70.1063 64.6018 70.0945 64.5876C70.0225 64.5017 69.9287 64.6329 69.9126 64.6358C69.5282 64.7097 69.2374 64.603 68.8433 64.6708C68.8219 64.6748 68.6616 64.8173 68.5846 64.7019C68.5793 64.6942 68.503 64.5761 68.4416 64.6605C68.4378 64.6658 68.4849 64.7264 68.406 64.7226C68.3271 64.7188 68.202 64.7642 68.0922 64.6995C68.0574 64.6791 67.9731 64.5615 67.8747 64.6606C67.8681 64.6675 67.7159 64.8892 67.6546 64.7415C67.6446 64.7172 67.6491 64.5588 67.5291 64.6438C67.5063 64.6602 67.5498 64.6941 67.4889 64.7181C67.3956 64.7551 67.2694 64.7167 67.1562 64.7909C67.1365 64.804 67.0542 64.914 66.983 64.8348C66.9719 64.8223 66.9906 64.7689 66.9542 64.7641C66.7817 64.7413 66.6018 64.7824 66.4234 64.7515C66.3605 64.7406 66.3897 64.6543 66.3239 64.6335C66.258 64.6127 66.1264 64.5948 66.0598 64.636C65.9933 64.6772 66.0716 64.8109 65.9705 64.825C65.5345 64.8862 65.0867 64.8206 64.648 64.8229C64.5829 64.8232 64.6383 64.8701 64.5425 64.8741C64.1891 64.889 63.57 64.9544 63.2635 64.8606C63.012 64.7856 63.3238 64.7126 63.1319 64.6849C63.0393 64.6718 62.9451 64.8331 62.9231 64.8388C62.7086 64.8962 62.5572 64.8309 62.3656 64.8585C62.326 64.8642 62.367 64.9271 62.3333 64.9312C62.2186 64.946 62.0964 64.9212 61.9838 64.93C61.9336 64.9341 61.9444 64.9828 61.8981 64.9805C61.7874 64.9755 61.6894 64.958 61.5811 64.9155C61.5712 64.9117 61.6349 64.8487 61.5538 64.849C61.4224 64.8496 61.2589 64.8095 61.1111 64.861C61.0674 64.8765 61.069 64.9884 60.969 64.9142C60.9481 64.8987 60.9698 64.7636 60.8602 64.8832C60.8417 64.9031 60.6569 65.0657 60.5612 64.9677C60.536 64.942 60.4702 64.834 60.417 64.853C60.4098 64.856 60.4409 64.9151 60.3966 64.9224C60.2393 64.947 60.0803 64.9456 59.9152 64.9697C59.8717 64.9762 59.9387 65.0364 59.8738 65.0441C59.6954 65.0655 59.4734 65.0567 59.3008 65.0427C59.2372 65.0374 59.2794 64.9845 59.2746 64.979C59.1976 64.8902 59.1578 65.0146 59.1336 65.0226C58.9847 65.0703 58.8599 65.0164 58.7182 65.0362C58.6789 65.0415 58.7087 65.0993 58.701 65.1048C58.6213 65.1585 58.6785 65.0512 58.6267 65.0412C58.4816 65.0129 58.3223 65.0226 58.179 65.0347C58.1264 65.0392 58.1877 65.1053 58.1405 65.1086C57.8593 65.1292 57.5578 65.1323 57.2841 65.1034C57.2324 65.0978 57.2631 65.0444 57.252 65.0327C57.175 64.9514 57.0724 65.0689 57.0456 65.0807C56.9307 65.134 56.8842 65.0891 56.7825 65.101C56.2915 65.1596 55.6738 65.1484 55.2125 65.144C54.598 65.139 54.124 65.104 53.5497 65.1351C53.5121 65.137 53.5522 65.2056 53.5198 65.2081C53.1046 65.238 52.703 65.2234 52.2932 65.2565C52.26 65.2591 52.3099 65.3237 52.2568 65.33C52.1506 65.3435 52.0046 65.3445 51.8907 65.3269C51.8351 65.3185 51.9074 65.2595 51.8516 65.2521C51.7216 65.235 51.5851 65.2346 51.4572 65.2492C51.4073 65.255 51.4741 65.3102 51.4309 65.3216C51.4268 65.3227 51.4217 65.3234 51.4155 65.3236C50.9079 65.3463 50.432 65.373 49.9219 65.3015C49.8872 65.2966 49.8524 65.1602 49.7808 65.1888C49.7766 65.2271 49.7783 65.2719 49.7772 65.3128C49.0532 65.3576 48.3413 65.3324 47.6133 65.3481C47.582 65.3488 47.6384 65.4198 47.5778 65.4216C47.2402 65.4312 46.8992 65.4621 46.5516 65.4007C46.5157 65.3948 46.5289 65.2662 46.4265 65.2888C46.4071 65.293 46.2606 65.3147 46.2168 65.3439C46.2114 65.3483 46.242 65.4072 46.1913 65.4105C45.9046 65.4287 45.6032 65.4246 45.3115 65.3974C45.2628 65.3929 45.3123 65.3276 45.2778 65.3239C45.0404 65.2976 44.79 65.354 44.5609 65.3036C44.4098 65.2696 44.4605 65.1578 44.379 65.0521C44.3656 65.0372 44.2736 65.0379 44.2675 64.975C44.25 64.817 44.2882 64.642 44.2639 64.4738C44.27 64.4367 44.1034 64.4834 44.2055 64.3906C44.212 64.3844 44.3001 64.3522 44.3225 64.3217C44.3368 64.3005 44.3071 64.2374 44.3377 64.2099C44.3698 64.1825 44.408 64.235 44.4565 64.2024C44.5113 64.1692 44.48 64.0972 44.5882 64.0851ZM73.3225 64.1865C73.2378 64.1279 73.2328 64.3525 73.3205 64.296C73.3248 64.293 73.3268 64.1894 73.3225 64.1865ZM83.347 63.8268C83.2353 63.7314 83.1658 63.8793 83.2448 63.9532C83.3238 64.027 83.381 63.8557 83.347 63.8268ZM84.4675 63.718C84.3383 63.6442 84.3287 63.9627 84.4623 63.894C84.4701 63.8901 84.4751 63.7223 84.4675 63.718ZM44.7476 65.0092C44.7471 65.0063 44.6799 65.0055 44.6777 65.0086C44.6442 65.0809 44.7788 65.0823 44.7476 65.0092ZM85.5795 63.603C85.5386 63.5613 85.4265 63.6146 85.4773 63.6665C85.5182 63.7082 85.6305 63.6549 85.5795 63.603ZM68.9941 64.0857C68.9927 64.0824 68.9442 64.0809 68.9458 64.0997C68.951 64.1605 69.0178 64.1412 68.9941 64.0857ZM87.4741 63.5373C87.1936 63.5345 87.0153 63.2774 87.3212 63.2971C87.3766 63.3006 87.2049 63.3847 87.2759 63.4061C87.406 63.445 87.486 63.2773 87.6202 63.3614C87.6445 63.3768 87.4901 63.538 87.4736 63.5377C87.4738 63.5375 87.4739 63.5374 87.4741 63.5373ZM73.2662 63.9187C73.2644 63.9158 73.198 63.9151 73.1965 63.9181C73.1629 63.9904 73.2967 63.9919 73.2662 63.9187ZM66.1848 64.0365C66.1808 64.0303 66.0263 64.0294 66.0215 64.0353C65.9446 64.1543 66.2571 64.1566 66.1848 64.0365ZM77.7396 63.6104C77.81 63.5364 77.8968 63.5252 77.9577 63.6132C77.8852 63.6108 77.8124 63.6124 77.7396 63.6104Z" fill="#8064BF"/>
<path d="M86.8739 63.3553C86.8476 63.2677 86.8591 63.1469 86.8806 63.0535C86.8871 63.0229 86.9279 63.0347 86.9344 63.0153C86.9469 62.9777 86.9247 62.9435 86.9399 62.9024C86.9452 62.8887 87.0092 62.9002 87.0133 62.8859C87.0358 62.8172 87.0138 62.7416 87.0218 62.6728C87.0591 62.307 87.0546 61.9537 87.054 61.5877C87.0535 61.4648 87.0991 61.3188 87.0638 61.1936C87.0597 61.179 87.0053 61.1923 87.0005 61.1898C86.9275 61.152 87.0399 61.158 87.0525 61.1289C87.102 61.0155 87.0965 60.8847 87.0668 60.7825C87.0539 60.7378 86.9481 60.7924 87.0058 60.7414C87.0097 60.7379 87.0692 60.7447 87.0744 60.7316C87.0861 60.7021 87.0712 60.6483 87.074 60.6254C87.0797 60.5811 87.0785 60.5746 87.076 60.535C87.073 60.4808 87.0967 60.4133 87.0786 60.3547C87.0746 60.3422 87.016 60.364 87.0041 60.3445C86.9923 60.3253 86.9928 60.2696 87.0056 60.2518C87.0183 60.233 87.0661 60.2367 87.0766 60.2327C87.1657 60.1996 87.0344 60.149 87.0306 60.1413C86.9655 60.0009 87.0273 59.8715 87.016 59.7363C87.0071 59.632 86.9743 59.5253 86.9695 59.4275C86.964 59.3104 86.9882 59.2075 86.9733 59.0963C86.9718 59.0844 86.9025 59.1042 86.9005 59.0898C86.8793 58.9345 86.8743 58.7809 86.909 58.6223C86.9125 58.6063 86.9761 58.6212 86.9833 58.605C87.0261 58.5041 87.136 58.3462 86.8618 58.3124C86.8669 58.2475 86.8712 58.1682 86.9207 58.1053C86.9525 58.065 87.0229 58.095 86.9904 58.0526C86.9831 58.043 86.9252 58.0611 86.9188 58.0464C86.8918 57.9844 86.9051 57.9124 86.8692 57.8508C86.8617 57.8383 86.8091 57.8463 86.7993 57.8434C86.7195 57.8188 86.8427 57.756 86.851 57.7438C86.9127 57.6502 86.8805 57.5927 86.8754 57.5126C86.8743 57.4941 86.805 57.5219 86.8014 57.5043C86.7834 57.4133 86.7813 57.3152 86.8052 57.222C86.8107 57.2015 86.8728 57.2147 86.8785 57.2046C86.903 57.1603 86.7879 57.1607 86.8092 57.1181C86.8135 57.1092 86.8657 57.1096 86.8713 57.1076C86.9586 57.0756 86.8302 57.0651 86.8269 57.0591C86.7819 56.9828 86.9098 56.9204 86.8844 56.8441C86.8813 56.835 86.8175 56.8616 86.8126 56.8356C86.78 56.666 86.7824 56.4815 86.8202 56.3056C86.8261 56.2786 86.8769 56.2932 86.8828 56.291C86.9754 56.256 86.8468 56.2493 86.8413 56.2412C86.801 56.1763 86.9022 56.1034 86.7468 56.0698C86.7745 55.7746 86.6646 55.4929 86.7758 55.1972C86.7771 55.1934 86.8402 55.1945 86.8425 55.187C86.8701 55.0964 86.7742 55.1216 86.6502 55.0737C86.6191 55.0616 86.7589 55.0045 86.7691 54.9996C86.8066 54.9818 86.9011 54.9888 86.9082 54.9833C86.9621 54.9395 86.6737 54.9694 86.6527 54.9216C86.6524 54.9242 86.652 54.9227 86.6518 54.9211C86.6521 54.9194 86.7095 54.9207 86.7146 54.9156C86.7309 54.8997 86.707 54.888 86.7251 54.8723C86.767 54.8363 86.9153 54.8097 86.8234 54.7713C86.8115 54.7665 86.638 54.7935 86.6414 54.7457C86.6429 54.7267 86.631 54.6418 86.6399 54.6176C86.6487 54.593 86.7066 54.6031 86.7088 54.6012C86.7765 54.5305 86.8099 54.5516 86.9165 54.5078C87.0226 54.4638 86.7622 54.5007 86.7316 54.4907C86.7011 54.4807 86.7574 54.4277 86.7775 54.4141C86.7976 54.4004 86.8349 54.4107 86.8458 54.3993C86.9174 54.3241 86.7129 54.3842 86.6691 54.3668C86.5651 54.3245 86.7544 54.2626 86.7681 54.2131C86.7718 54.1997 86.7289 54.215 86.7235 54.2041C86.7027 54.1606 86.7599 54.1252 86.6987 54.08C86.6887 54.0722 86.5676 54.0451 86.6499 54.0073C86.6618 54.002 86.7113 54.0075 86.7198 53.9866C86.7327 53.9553 86.7372 53.9018 86.7175 53.873C86.7029 53.8516 86.6265 53.8874 86.6478 53.8552C86.6573 53.8408 86.7066 53.8596 86.7206 53.8331C86.7346 53.8066 86.7253 53.7453 86.7209 53.7225C86.7165 53.6996 86.6577 53.7194 86.6534 53.718C86.6288 53.7094 86.5943 53.6674 86.5939 53.6635C86.5625 53.4648 86.641 53.2678 86.582 53.0776C86.5775 53.0627 86.5153 53.0811 86.514 53.079C86.4806 53.0306 86.6547 53.0493 86.7065 53.0058C86.5784 53.0281 86.5988 53.0031 86.5798 52.968C86.5705 52.9512 86.5219 52.9675 86.5166 52.9665C86.4374 52.9503 86.5328 52.9192 86.5522 52.9119C86.6236 52.8851 86.534 52.8772 86.5816 52.8587C86.6288 52.8403 86.7049 52.858 86.6992 52.8226C86.6518 52.8189 86.5348 52.8613 86.5117 52.8371C86.4243 52.7462 86.4929 52.5457 86.4912 52.4623C86.4896 52.3801 86.4774 52.3549 86.4873 52.3054C86.5053 52.2153 86.4205 52.2599 86.372 52.2126C86.3236 52.165 86.5469 52.1596 86.5931 52.1452C86.6392 52.131 86.5894 52.1297 86.6141 52.1167C86.6387 52.1037 86.6737 52.1192 86.6803 52.096C86.6869 52.0731 86.5943 52.0246 86.5438 52.0241C86.4369 52.0227 86.331 52.0655 86.3612 52.002C86.3631 51.9983 86.4224 52.0009 86.4264 51.9873C86.4563 51.8797 86.444 51.7736 86.469 51.6668C86.4725 51.6521 86.5386 51.6555 86.5414 51.6468C86.5706 51.5567 86.4665 51.6022 86.3396 51.5726C86.5013 51.5606 86.5957 51.5213 86.5878 51.4573C86.5831 51.4187 86.5141 51.435 86.4613 51.4168C86.4454 51.4114 86.4898 51.3776 86.4562 51.3771C86.3463 51.3754 86.2293 51.4175 86.2683 51.3446C86.2702 51.3414 86.3304 51.3427 86.3326 51.3322C86.3472 51.2641 86.2335 51.2712 86.2107 51.2025C86.1927 51.1485 86.2489 51.0411 86.2525 50.9771C86.3773 50.9626 86.3927 50.9325 86.3483 50.912C86.3285 50.9029 86.2966 50.8958 86.2572 50.893C86.2574 50.8516 86.2452 50.8081 86.2579 50.7667C86.2622 50.7524 86.3155 50.7554 86.321 50.753C86.4067 50.7166 86.2834 50.7126 86.2777 50.7044C86.2207 50.6141 86.3042 50.526 86.2047 50.4446C86.2012 50.4417 86.0749 50.4496 86.1641 50.4155C86.1703 50.4133 86.2306 50.4374 86.2306 50.3941C86.2306 50.3508 86.2898 50.2631 86.2256 50.2094C86.2102 50.1962 86.1045 50.1698 86.1815 50.1328C86.1919 50.1278 86.2284 50.1286 86.2479 50.121C86.3101 50.0967 86.182 50.0989 86.288 50.0672C86.394 50.0356 86.4707 49.9838 86.3906 49.9309C86.3883 49.9292 86.2862 49.9244 86.286 49.9054C86.2859 49.875 86.303 49.8303 86.2995 49.799C86.2978 49.784 86.2361 49.7992 86.2347 49.7967C86.1906 49.6984 86.2401 49.6216 86.2552 49.5109C86.2581 49.4908 86.1678 49.4407 86.2322 49.3965C86.3027 49.3482 86.6138 49.3663 86.5326 49.2754C86.5001 49.239 86.1058 49.2204 86.3025 49.134C86.2416 49.0014 86.3354 48.8672 86.2536 48.7357C86.25 48.7298 86.1396 48.7183 86.14 48.7037C86.1408 48.6821 86.1909 48.6665 86.1931 48.6509C86.2037 48.5853 86.1558 48.5298 86.1581 48.4671C86.1589 48.4434 86.2121 48.4478 86.213 48.4195C86.2139 48.3913 86.1432 48.3774 86.174 48.337C86.1975 48.3065 86.3372 48.2677 86.351 48.2283C86.2111 48.2368 86.2121 48.2104 86.1719 48.1665C86.1641 48.158 86.1161 48.171 86.1099 48.1672C86.0836 48.1517 86.1228 48.1329 86.0944 48.1185C86.0875 48.1149 86.0398 48.1181 86.0315 48.1154C85.9592 48.0927 86.0635 48.0395 86.0816 48.0304C86.1506 47.9954 86.0875 47.9857 86.1138 47.9608C86.1402 47.9358 86.1776 47.9678 86.1927 47.9398C86.2239 47.8816 86.2113 47.8108 86.2096 47.754C86.2086 47.7315 86.1459 47.7512 86.1443 47.7481C86.125 47.7026 86.1895 47.6508 86.0608 47.6336C86.387 47.5788 86.027 47.6077 86.0882 47.5365C86.0931 47.5309 86.248 47.5136 86.2722 47.5322C86.2963 47.5508 86.2499 47.5847 86.2873 47.6102C86.2961 47.6162 86.4442 47.6443 86.4534 47.6488C86.525 47.6846 86.2934 47.7063 86.2808 47.7093C86.1449 47.743 86.3049 47.7786 86.3165 47.7901C86.37 47.8425 86.3406 47.8922 86.3793 47.9364C86.4043 47.9653 86.5565 47.9577 86.5535 47.982C86.5437 48.0627 86.3336 48.1053 86.5228 48.1675C86.5631 48.1808 86.7281 48.153 86.6015 48.2198C86.5936 48.224 86.4771 48.2754 86.5544 48.2947C86.5642 48.2971 86.6126 48.2935 86.617 48.2973C86.6452 48.3228 86.608 48.3439 86.6286 48.3724C86.6492 48.401 86.6793 48.4347 86.6654 48.4701C86.657 48.4914 86.5688 48.5243 86.5474 48.5357C86.4858 48.5681 86.5923 48.5903 86.5166 48.6131C86.4404 48.6362 86.3204 48.6109 86.2737 48.6602C86.3996 48.6526 86.529 48.6469 86.6556 48.6402C86.6586 48.7401 86.6253 48.8411 86.6385 48.9405C86.6403 48.9528 86.7069 48.935 86.7106 48.948C86.7256 49.0031 86.6812 49.0557 86.705 49.1121C86.7237 49.1557 86.7992 49.1994 86.821 49.2445C86.6795 49.285 86.734 49.3503 86.7251 49.402C86.722 49.4201 86.6835 49.4221 86.672 49.4358C86.6297 49.4871 86.7549 49.4541 86.776 49.4654C86.866 49.514 86.5789 49.5433 86.5917 49.6085C86.5922 49.612 86.7492 49.6414 86.7593 49.6463C86.8248 49.6781 86.7065 49.6572 86.6972 49.6815C86.6802 49.7257 86.6463 49.7589 86.6957 49.8046C86.7103 49.8179 86.809 49.8443 86.7377 49.8792C86.7284 49.8838 86.6776 49.8864 86.6749 49.8897C86.6304 49.9483 86.7897 49.9351 86.8465 49.9609C86.9032 49.9866 86.798 50.0445 86.7673 50.0574C86.6879 50.0907 86.7304 50.0412 86.7222 50.0406C86.6251 50.0335 86.6449 50.067 86.6394 50.0944C86.4838 50.1133 86.4968 50.1498 86.6343 50.1227C86.6493 50.1197 86.6328 50.1004 86.6394 50.0944C86.7946 50.103 86.8182 50.1416 86.6798 50.201C86.6149 50.2288 86.5347 50.2166 86.5698 50.2781C86.5857 50.3061 86.6918 50.2839 86.7237 50.3066C86.7965 50.3581 86.7044 50.4447 86.7267 50.5037C86.7348 50.525 86.7912 50.4973 86.7988 50.5116C86.819 50.5493 86.7788 50.5894 86.8059 50.6266C86.8084 50.63 86.8688 50.6143 86.871 50.6265C86.8854 50.702 86.8684 50.7731 86.8673 50.8493C86.8671 50.8669 86.8677 50.8847 86.8698 50.903C86.875 50.95 86.9195 51.0301 86.919 51.0799C86.9185 51.1658 86.8434 51.2824 86.875 51.3522C86.8954 51.3977 86.9552 51.3789 86.9997 51.3934C87.086 51.4214 86.9508 51.5108 86.9297 51.5235C86.929 51.5238 86.9088 51.4849 86.8805 51.5112C86.8168 51.533 86.9294 51.523 86.9297 51.5235C86.9161 51.5316 86.9137 51.6152 86.9277 51.63C86.9353 51.6379 86.9926 51.6247 86.9955 51.629C87.0629 51.7311 87.0934 51.8385 87.0822 51.954C87.0814 51.9561 87.0161 51.9624 87.0148 51.9673C86.9953 52.0364 87.0804 52.0657 87.1352 52.113C87.1898 52.1591 87.1802 52.2046 87.0733 52.2517C87.0929 52.2895 87.052 52.3554 87.0267 52.3923C87.0015 52.4297 87.1284 52.4168 87.1314 52.4194C87.2241 52.4999 87.1591 52.5631 87.1608 52.6597C87.1615 52.706 87.1919 52.7935 87.2122 52.8403C87.2285 52.8774 87.202 52.905 87.2257 52.9385C87.2288 52.943 87.2845 52.9308 87.2868 52.9319C87.3594 52.9626 87.2193 52.9617 87.1957 52.973C87.1102 53.0144 87.065 53.0389 87.1137 53.0851C87.1249 53.0953 87.3275 53.1038 87.3419 53.124C87.3602 53.1502 87.2877 53.1486 87.3087 53.176C87.3104 53.1784 87.3542 53.1723 87.3546 53.1908C87.3567 53.2749 87.3427 53.3699 87.3578 53.4572C87.3597 53.4692 87.4274 53.4452 87.4313 53.4625C87.4493 53.5412 87.4575 53.6317 87.4341 53.7136C87.4281 53.7341 87.3779 53.7276 87.364 53.7335C87.2794 53.7698 87.411 53.7921 87.4141 53.7975C87.4919 53.9338 87.3894 54.0592 87.4603 54.1986C87.4644 54.2059 87.6078 54.254 87.4936 54.2937C87.4861 54.2964 87.3691 54.3361 87.4536 54.3512C87.4589 54.3522 87.5188 54.3286 87.5157 54.3588C87.5126 54.3887 87.559 54.4335 87.4955 54.4806C87.4754 54.4955 87.3591 54.5381 87.4584 54.5665C87.4653 54.5682 87.6871 54.6055 87.5406 54.6425C87.5165 54.6485 87.3587 54.6611 87.4441 54.698C87.4606 54.7051 87.4941 54.6857 87.5184 54.7063C87.5558 54.7379 87.5184 54.7892 87.593 54.8263C87.5947 54.8271 87.5979 54.8281 87.602 54.8294L87.603 54.8395C87.6317 54.8488 87.707 54.8702 87.638 54.899C87.6256 54.9041 87.5723 54.901 87.5676 54.9152C87.545 54.9827 87.586 55.0475 87.5552 55.1161C87.5444 55.1404 87.4583 55.1359 87.4376 55.162C87.4169 55.1881 87.3992 55.2385 87.4402 55.2602C87.4813 55.282 87.6145 55.2429 87.6286 55.2796C87.6899 55.4403 87.6246 55.6128 87.6269 55.7763C87.6272 55.8006 87.674 55.7763 87.678 55.812C87.6931 55.9467 87.7581 56.1709 87.6648 56.2939C87.5901 56.3943 87.5172 56.2822 87.4897 56.3564C87.4766 56.3921 87.6374 56.4157 87.6431 56.4235C87.7004 56.4999 87.6353 56.5615 87.6628 56.6313C87.6685 56.6458 87.7312 56.6258 87.7353 56.6381C87.7501 56.6803 87.7253 56.7271 87.7341 56.7691C87.7382 56.7877 87.7867 56.7801 87.7844 56.7977C87.7795 56.8398 87.7621 56.8779 87.7197 56.9218C87.7158 56.9258 87.653 56.9063 87.6534 56.9369C87.654 56.9862 87.614 57.0507 87.6654 57.1025C87.6808 57.1179 87.7924 57.1091 87.7184 57.1511C87.7029 57.1601 87.5681 57.1611 87.6874 57.1939C87.7073 57.1995 87.8694 57.2575 87.7717 57.3007C87.746 57.3121 87.6384 57.3447 87.6573 57.3634C87.6603 57.3659 87.7193 57.3499 87.7265 57.3661C87.751 57.4233 87.7498 57.4851 87.7736 57.5431C87.7801 57.5586 87.8401 57.5297 87.8477 57.5529C87.8689 57.6166 87.8603 57.7029 87.8463 57.7689C87.841 57.7934 87.7882 57.7812 87.7828 57.7834C87.6942 57.819 87.8183 57.8251 87.8263 57.8337C87.8739 57.8875 87.8199 57.9357 87.8396 57.9867C87.8448 58.0008 87.9025 57.9856 87.9079 57.9881C87.9614 58.0138 87.8545 58.0002 87.8445 58.0205C87.8163 58.0777 87.826 58.1375 87.838 58.1912C87.8425 58.2108 87.9085 58.1828 87.9118 58.2005C87.9323 58.3054 87.9348 58.4134 87.9062 58.5218C87.9007 58.5419 87.8474 58.534 87.8358 58.539C87.7547 58.5741 87.8719 58.6055 87.8836 58.614C87.9367 58.6526 87.8918 58.6729 87.9036 58.7096C87.962 58.8914 87.9499 59.1178 87.9458 59.2975C87.9401 59.5247 87.9051 59.7078 87.9357 59.9217C87.9376 59.9356 88.006 59.9158 88.0085 59.9277C88.038 60.0812 88.023 60.232 88.0557 60.385C88.0582 60.3974 88.1227 60.374 88.129 60.3937C88.1424 60.4345 88.1429 60.4843 88.1254 60.5299C88.117 60.5515 88.0581 60.5282 88.0508 60.5499C88.0336 60.6004 88.0331 60.6525 88.0476 60.7005C88.054 60.7209 88.1188 60.6841 88.1218 60.711C88.1435 60.8952 88.1698 61.0761 88.0978 61.2719C88.0928 61.2851 87.9568 61.3074 87.9852 61.332C88.0234 61.331 88.0681 61.3272 88.1088 61.3248C88.1526 61.595 88.1265 61.8654 88.1407 62.1368C88.1414 62.1484 88.2124 62.1226 88.214 62.145C88.223 62.2716 88.2529 62.3943 88.1913 62.5326C88.1852 62.5462 88.057 62.5499 88.0793 62.5862C88.0834 62.5934 88.1047 62.6455 88.1338 62.6608C88.1381 62.6626 88.1969 62.647 88.2001 62.6661C88.2178 62.7751 88.2128 62.8853 88.185 62.9992C88.1804 63.0169 88.1155 63.0036 88.1116 63.0162C88.0847 63.1053 88.1405 63.199 88.0893 63.2875C88.0545 63.3428 87.9435 63.3351 87.8377 63.3725C87.8227 63.3763 87.8231 63.4139 87.7603 63.4195C87.6026 63.4359 87.4283 63.4327 87.2603 63.4523C87.2244 63.4597 87.2657 63.4863 87.1769 63.4784C87.1707 63.4743 87.1392 63.4446 87.1088 63.4392C87.0879 63.4357 87.0247 63.4499 86.9975 63.4413C86.9705 63.4333 87.0227 63.412 86.9904 63.3966C86.9577 63.3806 86.8857 63.3961 86.8739 63.3553ZM86.914 52.5609C86.8576 52.6002 87.0805 52.5742 87.0227 52.5479C87.0196 52.5467 86.9168 52.5589 86.914 52.5609ZM86.4566 48.8534C86.361 48.9012 86.5082 48.9177 86.5822 48.8835C86.6561 48.8493 86.4856 48.8388 86.4566 48.8534ZM86.3536 48.4401C86.2792 48.4929 86.597 48.4773 86.5292 48.4315C86.5254 48.4289 86.3579 48.437 86.3536 48.4401ZM87.7963 63.2363C87.7934 63.2371 87.7924 63.2615 87.7953 63.2616C87.8673 63.2689 87.8694 63.2205 87.7963 63.2363ZM86.2457 48.0298C86.2038 48.0476 86.2563 48.0866 86.3084 48.0645C86.3503 48.0468 86.2978 48.0077 86.2457 48.0298ZM86.8768 54.1997C86.8736 54.2005 86.8725 54.2186 86.8913 54.2161C86.9516 54.2082 86.9318 54.1855 86.8768 54.1997ZM86.1935 47.3228C86.1886 47.428 85.9308 47.5094 85.9526 47.3935C85.9566 47.3725 86.0393 47.4322 86.0611 47.4044C86.1009 47.3535 85.9341 47.3328 86.019 47.2778C86.0345 47.2678 86.1943 47.3168 86.1939 47.323C86.1937 47.3229 86.1936 47.3229 86.1935 47.3228ZM86.6496 52.6155C86.6467 52.6165 86.6474 52.6419 86.6503 52.642C86.7227 52.6457 86.7215 52.5949 86.6496 52.6155ZM86.8426 55.258C86.8364 55.2599 86.8355 55.3176 86.8414 55.3189C86.96 55.3388 86.9623 55.2222 86.8426 55.258ZM86.2572 50.9755C86.212 50.9644 86.1897 50.9483 86.1985 50.9301C86.2042 50.9184 86.223 50.9058 86.2571 50.8931C86.2566 50.9031 86.2566 50.9131 86.2567 50.923C86.257 50.9405 86.2578 50.958 86.2572 50.9755Z" fill="#8064BF"/>
<path d="M43.4248 47.8794C43.6713 47.8493 43.9928 47.8582 44.2369 47.8784C44.3136 47.8847 44.2762 47.9258 44.3302 47.9318C44.4317 47.9438 44.5309 47.921 44.6309 47.9363C44.665 47.9415 44.6248 48.0058 44.6606 48.0098C44.8553 48.0314 45.0384 48.0098 45.2351 48.0175C46.204 48.0557 47.1564 48.0583 48.1332 48.0694C48.4565 48.0729 48.8469 48.1237 49.1816 48.0937C49.2211 48.0901 49.1967 48.0352 49.2041 48.0305C49.2059 48.0294 49.2077 48.0284 49.2094 48.0274C49.3192 47.9625 49.2841 48.0715 49.3596 48.0852C49.664 48.1405 49.9999 48.147 50.2908 48.1292C50.415 48.1215 50.2926 48.0102 50.416 48.0734C50.4245 48.0777 50.3925 48.136 50.4261 48.1427C50.5021 48.1578 50.6494 48.1498 50.7078 48.1555C50.8219 48.1669 50.8425 48.1667 50.9496 48.1696C51.0981 48.1741 51.2728 48.2073 51.4321 48.1978C51.4659 48.1956 51.4227 48.1344 51.4767 48.1255C51.5305 48.1166 51.6752 48.1253 51.7218 48.1407C51.7694 48.1561 51.7478 48.2028 51.756 48.2139C51.8237 48.3072 51.9929 48.1848 52.0137 48.1822C52.4025 48.1389 52.7327 48.2198 53.0965 48.2284C53.3705 48.2347 53.6688 48.2174 53.9289 48.2258C54.2411 48.236 54.505 48.273 54.809 48.2715C54.8408 48.2714 54.8044 48.2002 54.8433 48.1999C55.259 48.1972 55.6724 48.2084 56.0843 48.2575C56.1261 48.2625 56.072 48.3245 56.1138 48.3331C56.3672 48.3852 56.7693 48.5074 56.9198 48.2363C57.0943 48.2463 57.298 48.256 57.4558 48.3093C57.554 48.3436 57.4592 48.412 57.5798 48.3821C57.6071 48.3755 57.571 48.3165 57.612 48.311C57.7852 48.2877 57.9757 48.3049 58.1461 48.272C58.181 48.2652 58.1708 48.2122 58.1806 48.2025C58.2631 48.124 58.4042 48.2499 58.4335 48.2587C58.6622 48.3246 58.8334 48.2942 59.0451 48.2917C59.0948 48.2911 59.0346 48.221 59.0824 48.2178C59.3203 48.2033 59.5556 48.2029 59.7917 48.2241C59.8049 48.2254 59.8181 48.2267 59.8313 48.2281C59.8849 48.2339 59.8374 48.2959 59.8631 48.3018C59.9767 48.327 59.9988 48.2116 60.1088 48.2335C60.132 48.2379 60.1204 48.2903 60.1248 48.2959C60.1933 48.3837 60.2475 48.2551 60.2645 48.2518C60.4764 48.2075 60.6155 48.336 60.8241 48.3109C60.8487 48.3077 60.7914 48.2437 60.86 48.2389C61.3194 48.2065 61.8142 48.2077 62.2711 48.2438C62.3429 48.2492 62.2937 48.3005 62.2984 48.3064C62.3752 48.3989 62.4181 48.2697 62.4414 48.264C62.6227 48.2227 62.7973 48.3231 62.9167 48.1664C63.6948 48.1892 64.4634 48.0715 65.2389 48.1732C65.2488 48.1744 65.234 48.2379 65.2537 48.2399C65.4911 48.2647 65.4408 48.1691 65.5909 48.0428C65.6287 48.011 65.7544 48.1497 65.7655 48.1597C65.8057 48.1969 65.7701 48.2921 65.7833 48.2991C65.8926 48.3534 65.8612 48.0453 66.0048 48.0386C66.0093 48.0389 65.9931 48.0966 66.0054 48.1017C66.0436 48.1177 66.0796 48.0934 66.1171 48.1113C66.203 48.1527 66.2399 48.3014 66.364 48.208C66.3797 48.1959 66.3467 48.0219 66.4753 48.0241C66.5268 48.0252 66.7526 48.0115 66.8166 48.0198C66.8805 48.0281 66.8397 48.0866 66.8443 48.0888C67.0186 48.1553 66.9553 48.1893 67.0462 48.2957C67.137 48.4017 67.1006 48.1403 67.1341 48.1093C67.1676 48.0784 67.2957 48.1339 67.3275 48.1538C67.3593 48.1737 67.3227 48.2114 67.3506 48.2222C67.5357 48.2926 67.4238 48.088 67.4815 48.0434C67.6174 47.9378 67.7363 48.1271 67.8664 48.1398C67.9015 48.1432 67.8708 48.1003 67.9017 48.0946C68.0239 48.0727 68.1009 48.1297 68.2379 48.067C68.2604 48.0568 68.3673 47.934 68.445 48.0162C68.456 48.0281 68.429 48.0781 68.482 48.0863C68.5612 48.0986 68.7029 48.102 68.7861 48.0815C68.8476 48.0663 68.7723 47.99 68.8517 48.0109C68.887 48.0202 68.8251 48.0702 68.8911 48.0838C68.9565 48.0975 69.1232 48.0868 69.1863 48.0819C69.2493 48.077 69.2116 48.0181 69.2165 48.0138C69.2461 47.9888 69.3656 47.9532 69.3762 47.9528C69.9156 47.9172 70.4181 47.9929 70.9419 47.9305C70.9831 47.9257 70.9521 47.8633 70.9583 47.8619C71.098 47.8274 70.996 48.0034 71.0976 48.055C71.0763 47.926 71.1358 47.9463 71.2339 47.9267C71.2812 47.9171 71.2525 47.8683 71.2565 47.8629C71.3229 47.7827 71.3787 47.8785 71.3924 47.898C71.4438 47.9696 71.4903 47.8791 71.5251 47.9269C71.5598 47.9743 71.4901 48.0513 71.5855 48.0451C71.6096 47.9972 71.5322 47.8798 71.6035 47.8561C71.8707 47.7667 72.3858 47.8334 72.6075 47.8307C72.8279 47.8281 72.8958 47.8156 73.0253 47.8251C73.2592 47.8421 73.1689 47.757 73.3097 47.7075C73.4503 47.6581 73.3935 47.8836 73.4168 47.93C73.4397 47.9765 73.4588 47.9262 73.4853 47.9509C73.5117 47.9757 73.4597 48.0112 73.5188 48.0176C73.5791 48.024 73.7369 47.9298 73.7548 47.8788C73.7929 47.7708 73.7139 47.6643 73.8722 47.6941C73.8812 47.6959 73.8556 47.7558 73.8902 47.7597C74.1657 47.7886 74.4488 47.7748 74.7269 47.798C74.7649 47.8013 74.735 47.8681 74.7572 47.8708C74.9875 47.8987 74.8994 47.7943 75.0158 47.6655C74.9975 47.8287 75.0722 47.9234 75.2468 47.9139C75.351 47.9083 75.3287 47.8388 75.3926 47.7851C75.4118 47.7689 75.4875 47.8129 75.4986 47.7789C75.5359 47.6678 75.4578 47.5507 75.6414 47.5881C75.6495 47.5899 75.6279 47.6508 75.6554 47.6528C75.8329 47.6656 75.8448 47.551 76.0324 47.5258C76.184 47.5057 76.4437 47.5591 76.6177 47.5596C76.6257 47.7414 76.7821 47.6899 76.8373 47.5608C76.9462 47.5591 77.0676 47.5444 77.1725 47.5552C77.2088 47.5588 77.1885 47.6129 77.1934 47.6183C77.2372 47.6677 77.2686 47.6458 77.2915 47.6177C77.3069 47.5974 77.3192 47.574 77.329 47.5712C77.5868 47.5027 77.7914 47.5782 78.0342 47.4668C78.0426 47.4628 78.0461 47.3357 78.119 47.4221C78.1237 47.4281 78.0483 47.4922 78.163 47.4869C78.2759 47.4818 78.4999 47.5307 78.6542 47.4587C78.6915 47.4414 78.7794 47.3309 78.8627 47.4042C78.8738 47.4142 78.8655 47.4513 78.8824 47.4701C78.9375 47.5298 78.9536 47.4003 79.0206 47.5034C79.0875 47.6066 79.2143 47.6773 79.365 47.5892C79.3691 47.5867 79.3999 47.4824 79.4512 47.4796C79.5333 47.4752 79.6496 47.4864 79.7325 47.4786C79.7722 47.4748 79.7414 47.4143 79.7482 47.4126C80.0183 47.354 80.2099 47.3936 80.5069 47.3923C80.561 47.3922 80.7021 47.2939 80.8143 47.3521C80.934 47.4161 80.8466 47.7336 81.0965 47.6379C81.1996 47.5994 81.3005 47.1976 81.5034 47.3834C81.8658 47.3011 82.2137 47.3746 82.5723 47.2705C82.5888 47.2658 82.6317 47.1523 82.6704 47.1503C82.7279 47.1476 82.7633 47.1957 82.8036 47.1955C82.9812 47.195 83.1312 47.1377 83.2983 47.1294C83.361 47.1262 83.3412 47.181 83.4191 47.1769C83.4961 47.1728 83.5387 47.0991 83.6422 47.1234C83.7242 47.1417 83.8111 47.2764 83.9151 47.2835C83.9061 47.1436 83.979 47.1398 84.0967 47.0918C84.1208 47.0823 84.0898 47.0362 84.1009 47.0292C84.146 46.9998 84.1926 47.0361 84.2332 47.0048C84.243 46.9973 84.2391 46.9496 84.2468 46.9408C84.3127 46.8639 84.4475 46.9594 84.468 46.9764C84.5554 47.0397 84.5885 46.974 84.6506 46.9964C84.7139 47.0186 84.6251 47.0621 84.6996 47.0722C84.8512 47.0933 85.0431 47.0672 85.1938 47.0548C85.2538 47.0496 85.2067 46.9899 85.2152 46.9877C85.3391 46.9594 85.468 47.015 85.527 46.8811C85.6442 47.2002 85.6003 46.8418 85.7823 46.8893C85.7974 46.8931 85.8293 47.0463 85.78 47.0744C85.7264 47.1029 85.643 47.0625 85.5702 47.1055C85.5546 47.1155 85.4662 47.2709 85.4538 47.281C85.3502 47.3606 85.3146 47.1303 85.3068 47.1182C85.2281 46.9874 85.1185 47.1558 85.0884 47.1696C84.9418 47.2337 84.8164 47.2128 84.6909 47.2603C84.6139 47.2906 84.6197 47.4431 84.5538 47.4445C84.341 47.449 84.2456 47.2443 84.0617 47.4464C84.0222 47.4895 84.0824 47.6512 83.9126 47.5353C83.9017 47.528 83.7796 47.4189 83.7184 47.5006C83.7108 47.5109 83.7155 47.5592 83.7047 47.5642C83.6313 47.5974 83.5832 47.563 83.5034 47.5888C83.422 47.6148 83.3324 47.6506 83.2383 47.6426C83.1814 47.6378 83.1017 47.5542 83.0746 47.5345C82.9958 47.4775 82.9245 47.5889 82.8703 47.5162C82.8164 47.4431 82.8958 47.3177 82.7711 47.2785C82.778 47.4045 82.7793 47.5343 82.7835 47.6612C82.5148 47.6808 82.2472 47.6636 81.9816 47.6927C81.948 47.6965 81.9884 47.761 81.9525 47.7668C81.8004 47.791 81.6707 47.7539 81.5116 47.7872C81.3953 47.8126 81.269 47.8958 81.1413 47.9251C81.0539 47.7879 80.8721 47.8529 80.7312 47.8519C80.6842 47.8514 80.6839 47.8128 80.6495 47.8032C80.519 47.7678 80.5892 47.8897 80.5561 47.9127C80.4144 48.011 80.3695 47.7252 80.1978 47.7472C80.1887 47.7483 80.0877 47.9114 80.0725 47.9224C79.9768 47.9933 80.0513 47.8705 79.9868 47.8646C79.867 47.8541 79.7876 47.8241 79.6569 47.8806C79.6189 47.8972 79.5324 48.0009 79.4482 47.9337C79.4371 47.9249 79.4384 47.8738 79.4299 47.8715C79.2799 47.8346 79.2911 47.994 79.2123 48.0551C79.1338 48.1161 78.9936 48.0174 78.9639 47.988C78.8868 47.9121 79.0146 47.9484 79.0176 47.9401C79.054 47.8406 78.9586 47.8653 78.8864 47.8634C78.863 47.7081 78.7646 47.726 78.8124 47.8619C78.8178 47.8767 78.8717 47.8574 78.8864 47.8634C78.8377 48.0218 78.7303 48.0507 78.5952 47.9181C78.5316 47.856 78.5803 47.773 78.406 47.8167C78.329 47.8363 78.3687 47.9412 78.3025 47.9763C78.1531 48.0564 77.9296 47.9744 77.7717 48.0037C77.7134 48.0145 77.7756 48.0684 77.7359 48.0778C77.6304 48.1028 77.5313 48.0668 77.4234 48.0987C77.4137 48.1017 77.4432 48.1612 77.4091 48.1649C77.3849 48.1676 77.3609 48.1699 77.337 48.1718L77.3266 48.1726C77.1055 48.1858 76.8912 48.1665 76.6518 48.1804C76.5192 48.1881 76.2955 48.2361 76.1593 48.2376C75.9255 48.2404 75.634 48.1681 75.4392 48.2017C75.3117 48.2234 75.3434 48.2834 75.2906 48.3288C75.1879 48.4167 74.9893 48.2821 74.9635 48.261C74.9628 48.2602 75.0718 48.2391 75.0113 48.211C74.9732 48.147 74.9647 48.2606 74.9635 48.261C74.9464 48.2473 74.7237 48.2465 74.6795 48.261C74.6557 48.2689 74.6727 48.3265 74.6602 48.3295C74.368 48.3994 74.0685 48.4319 73.7677 48.4219C73.7623 48.421 73.7665 48.3552 73.7539 48.3539C73.5766 48.335 73.4702 48.4215 73.3297 48.4772C73.1891 48.533 73.0724 48.5237 72.9811 48.4162C72.8744 48.4365 72.7162 48.3957 72.6245 48.3707C72.5329 48.3456 72.5274 48.4737 72.5197 48.4766C72.2786 48.5711 72.1334 48.5061 71.8762 48.509C71.7557 48.5101 71.5163 48.5419 71.3849 48.5631C71.281 48.58 71.2181 48.5535 71.1235 48.5778C71.1107 48.5811 71.1269 48.6371 71.1231 48.6395C71.0202 48.7131 71.0638 48.5717 71.0405 48.5482C70.9556 48.4625 70.9037 48.4172 70.7687 48.467C70.7374 48.4784 70.6571 48.6829 70.6003 48.6977C70.5265 48.7165 70.5509 48.6435 70.4736 48.665C70.467 48.6668 70.4708 48.7108 70.4223 48.7115C70.1967 48.7151 69.9525 48.7023 69.7191 48.719C69.6872 48.7211 69.7318 48.789 69.6858 48.7932C69.4701 48.8129 69.2345 48.8225 69.0218 48.8006C68.9695 48.795 68.9995 48.7443 68.9875 48.7303C68.9143 48.6458 68.8232 48.7787 68.8072 48.782C68.4253 48.8632 68.1252 48.7622 67.7354 48.8367C67.7142 48.841 67.5566 48.9863 67.4775 48.8722C67.4721 48.8646 67.3936 48.7478 67.3335 48.8332C67.3298 48.8386 67.378 48.8984 67.2988 48.8959C67.2196 48.8934 67.0945 48.941 66.9827 48.8781C66.9474 48.8583 66.8605 48.7421 66.7626 48.8427C66.7563 48.8497 66.6086 49.0736 66.5449 48.927C66.5346 48.9028 66.5367 48.7443 66.4182 48.8311C66.3955 48.8479 66.4396 48.8812 66.3791 48.9061C66.2863 48.9444 66.1595 48.9079 66.0469 48.9837C66.0274 48.9971 65.9461 49.1083 65.8732 49.0301C65.8618 49.0178 65.8799 48.9641 65.8432 48.9599C65.6681 48.9395 65.4891 48.983 65.3109 48.9543C65.2478 48.9443 65.276 48.8575 65.2099 48.8376C65.1438 48.8176 65.0119 48.8014 64.9458 48.8434C64.8796 48.8853 64.9597 49.0181 64.8585 49.0334C64.4163 49.1 63.9741 49.0387 63.5312 49.0448C63.4653 49.0457 63.5218 49.0922 63.4248 49.097C63.0695 49.1149 62.4541 49.1839 62.1399 49.0915C61.8898 49.0175 62.1984 48.9434 62.0086 48.9164C61.9181 48.9035 61.8224 49.0651 61.8007 49.0709C61.5849 49.129 61.4371 49.0638 61.2405 49.0917C61.2003 49.0974 61.2419 49.1603 61.2077 49.1645C61.091 49.1794 60.9679 49.1546 60.8578 49.1632C60.8074 49.1673 60.8181 49.2159 60.7716 49.2136C60.6602 49.2085 60.5621 49.1908 60.454 49.148C60.4442 49.1441 60.5079 49.0813 60.4269 49.0814C60.298 49.0816 60.1278 49.041 59.9789 49.0917C59.9346 49.107 59.9355 49.2189 59.8378 49.1441C59.8264 49.1354 59.8282 49.0896 59.8133 49.0714C59.8012 49.0569 59.7781 49.0598 59.7289 49.1124C59.7101 49.1322 59.523 49.2935 59.4286 49.1946C59.4033 49.1686 59.3401 49.06 59.2854 49.0785C59.278 49.0814 59.3091 49.1409 59.2638 49.1477C59.1034 49.1708 58.94 49.1676 58.7771 49.1894C58.7333 49.1953 58.7998 49.2563 58.7345 49.2632C58.5544 49.2821 58.3355 49.2696 58.1584 49.2525C58.094 49.246 58.1378 49.1939 58.133 49.1883C58.0567 49.0981 58.0142 49.2217 57.9896 49.2292C57.8371 49.274 57.7139 49.2174 57.5728 49.2339C57.5337 49.2383 57.562 49.2968 57.5542 49.3021C57.4739 49.3539 57.5331 49.248 57.482 49.2368C57.3361 49.205 57.174 49.2107 57.0303 49.2188C56.9758 49.2219 57.0373 49.2898 56.9884 49.2917C56.7012 49.3046 56.4055 49.2982 56.1275 49.2598C56.0747 49.2524 56.1081 49.2001 56.0971 49.1881C56.0216 49.1041 55.9114 49.2179 55.8863 49.2286C55.7729 49.2778 55.7248 49.2311 55.6234 49.239C55.1248 49.2788 54.5106 49.2397 54.042 49.2118C53.4291 49.1757 52.958 49.1141 52.3752 49.1119C52.338 49.1117 52.3736 49.1824 52.3416 49.1831C51.9299 49.1893 51.5266 49.1511 51.1171 49.1621C51.0836 49.1629 51.1307 49.2301 51.0763 49.2335C50.9643 49.2411 50.8262 49.2347 50.7142 49.2115C50.6601 49.2003 50.7339 49.1449 50.6795 49.1349C50.553 49.1113 50.4162 49.1045 50.285 49.1135C50.2292 49.1175 50.3124 49.1861 50.2401 49.1861C49.8986 49.1869 49.5636 49.1933 49.2265 49.1728C49.0717 49.1639 48.9233 49.1487 48.7683 49.1245C48.7334 49.1191 48.7005 48.9821 48.6278 49.0097C48.6229 49.0479 48.624 49.0928 48.6223 49.1336C47.9032 49.1675 47.181 49.134 46.4588 49.1437C46.4277 49.1442 46.4831 49.2157 46.423 49.2169C46.0812 49.224 45.7501 49.2527 45.3973 49.1902C45.3619 49.1842 45.3755 49.0556 45.2739 49.0779C45.2571 49.0819 45.102 49.1035 45.0632 49.1325C45.058 49.1369 45.0876 49.1958 45.0385 49.1991C44.7498 49.2168 44.4499 49.2129 44.1586 49.1867C44.1118 49.1824 44.159 49.117 44.1258 49.1133C43.8909 49.0879 43.6367 49.1462 43.4109 49.0981C43.2593 49.0658 43.3118 48.9534 43.2259 48.8488C43.2161 48.834 43.1189 48.8362 43.1139 48.7734C43.0942 48.6157 43.1286 48.4401 43.1023 48.2723C43.1023 48.2357 42.9602 48.2827 43.0419 48.1901C43.047 48.1839 43.1389 48.1501 43.1593 48.1193C43.1749 48.0979 43.1422 48.0353 43.1744 48.0073C43.203 47.9796 43.2426 48.0315 43.2941 47.9982C43.3471 47.9644 43.3184 47.8926 43.4248 47.8794ZM72.2138 48.2587C72.1275 48.2022 72.1278 48.4269 72.2145 48.3683C72.2187 48.3652 72.2183 48.2615 72.2138 48.2587ZM82.2348 47.4948C82.1175 47.4059 82.0589 47.5571 82.1405 47.6266C82.221 47.6961 82.2714 47.5217 82.2348 47.4948ZM83.3496 47.3225C83.2181 47.256 83.2267 47.5747 83.3548 47.4985C83.3622 47.4942 83.3573 47.3263 83.3496 47.3225ZM43.5942 48.802C43.5921 48.7991 43.5286 48.7988 43.5254 48.8019C43.4933 48.8745 43.6252 48.8748 43.5942 48.802ZM84.4551 47.142C84.4131 47.1027 84.3016 47.1629 84.3566 47.2116C84.4016 47.2506 84.5082 47.1908 84.4551 47.142ZM67.8753 48.249C67.8738 48.2457 67.8255 48.2451 67.8274 48.2639C67.8337 48.3246 67.8998 48.3041 67.8753 48.249ZM86.3446 46.9364C86.063 46.9656 85.8632 46.7255 86.1663 46.7146C86.2215 46.7123 86.0606 46.8138 86.1331 46.8277C86.2666 46.8528 86.3266 46.6769 86.4696 46.7448C86.4955 46.7573 86.3608 46.9354 86.3441 46.9369C86.3443 46.9367 86.3444 46.9366 86.3446 46.9364ZM72.151 47.9924C72.1492 47.9895 72.0825 47.9904 72.081 47.9935C72.0489 48.0666 72.1834 48.0648 72.151 47.9924ZM65.0635 48.2424C65.0595 48.2363 64.905 48.2372 64.9002 48.2432C64.8248 48.3631 65.1373 48.3616 65.0635 48.2424ZM76.6207 47.5643C76.6892 47.4882 76.7746 47.4745 76.8369 47.5607C76.7659 47.5604 76.6938 47.5642 76.6207 47.5643Z" fill="#8064BF"/>
<path d="M80.4117 114.541L78.1913 118.31L74.6975 118.873L73.7494 118.296L71.0751 116.67L72.2268 114.669L73.5816 114.1L74.9363 113.532L77.1376 111.831L79.5546 110.816L80.2446 113.815L80.4117 114.541Z" fill="#BB61A8"/>
<path d="M73.9203 120.645L71.5725 123.637L68.1566 124.6L64.416 125.05L62.8008 124.523L61.3964 124.455L61.9569 123.246L64.1892 122.309L66.641 120.989L68.4443 119.979L73.7494 118.296L74.6975 118.873L73.9203 120.645Z" fill="#BB61A8"/>
<path d="M73.7494 118.296L68.4443 119.979L66.641 120.989L63.1917 120.666L59.2488 119.338L55.4096 116.739L59.824 118.164L59.8989 116.382L63.3979 116.368L65.1991 117.618L67.5843 118.75L69.6507 119.057L73.7494 118.296Z" fill="#BB61A8"/>
<path d="M72.2268 114.669L71.0751 116.67L73.7494 118.296L69.6507 119.057L67.5843 118.75L65.1991 117.618L63.3979 116.368L62.9271 115.246L63.5648 113.659L66.9872 112.711L68.6133 112.724L70.2395 112.738L72.5112 113.664L73.5816 114.1L72.2268 114.669Z" fill="#BB61A8"/>
<path d="M66.9872 112.711L63.5648 113.659L62.9271 115.246L63.3979 116.368L59.7174 114.273L58.7114 111.876L55.3342 110.011L59.232 109.856L57.0221 105.965L61.2859 111.336L61.9625 108.331L65.44 111.354L68.6133 112.724L66.9872 112.711Z" fill="#BB61A8"/>
<path d="M70.2395 112.738L68.6133 112.724L65.44 111.354L64.3566 108.773L65.6224 107.482L67.7055 108.641L68.7959 106.494L69.731 108.722L71.2341 108.507L73.7562 109.382L72.8171 109.776L70.7435 111.134L70.9014 112.46L72.5112 113.664L70.2395 112.738Z" fill="#BB61A8"/>
<path d="M77.1376 111.831L74.9363 113.532L73.5816 114.1L72.5112 113.664L70.9014 112.46L74.4269 110.98L76.7013 108.634L77.1376 111.831Z" fill="#BB61A8"/>
<path d="M79.5546 110.816L77.1376 111.831L76.7013 108.634L74.4269 110.98L70.9014 112.46L70.7435 111.134L72.8171 109.776L73.7562 109.382L75.0674 106.898L74.2496 104.949L76.3279 104.482L75.066 102.832L76.3249 101.827L78.9604 102.972L78.6925 104.491L78.5138 107.042L79.116 109.771L79.5546 110.816Z" fill="#BB61A8"/>
<path d="M78.6925 104.491L78.9604 102.972L76.0451 98.2965L78.2765 98.7109L80.2114 96.5479L82.006 98.2265L83.8185 98.6816L82.8183 102.759L81.4255 104.23L80.1142 106.714L79.116 109.771L78.5138 107.042L78.6925 104.491Z" fill="#BB61A8"/>
<path d="M79.5546 110.816L79.116 109.771L80.1142 106.714L81.4255 104.23L82.8183 102.759L84.4656 102.068L85.056 104.64L85.0168 107.006L84.0438 110.468L82.9125 112.389L80.2446 113.815L79.5546 110.816Z" fill="#BB61A8"/>
<path d="M83.1002 113.828L80.4117 114.541L80.2446 113.815L82.9125 112.389L84.0438 110.468L85.0168 107.006L85.056 104.64L87.8149 103.482L90.9407 97.9442L89.5896 105.671L89.0539 108.366L87.0244 110.969L85.1015 112.988L83.1002 113.828Z" fill="#BB61A8"/>
<path d="M74.6975 118.873L78.1913 118.31L78.3806 120.401L78.535 122.106C78.535 122.106 78.0273 124.058 77.3094 125.097L72.7757 128.633L71.2378 125.169L71.5725 123.637L73.9203 120.645L74.6975 118.873Z" fill="#BB61A8"/>
<path d="M71.5725 123.637L71.2378 125.169C71.2378 125.169 70.4062 126.266 69.7014 126.771C68.9139 127.336 68.3348 127.522 67.4509 127.753L60.1115 129.37L62.4147 125.89L62.8008 124.523L64.416 125.05L68.1566 124.6L71.5725 123.637Z" fill="#BB61A8"/>
<path d="M78.1913 118.31L80.4117 114.541L83.1002 113.828L85.1015 112.988L90.7529 115.029L87.1794 119.924C86.0387 120.681 85.28 120.97 83.9465 121.281C82.7137 121.568 81.9501 121.789 80.714 121.517C79.7273 121.3 78.3806 120.401 78.3806 120.401L78.1913 118.31Z" fill="#BB61A8"/>
<path d="M58.5794 107.06L54.6971 109.077L51.4373 107.699L50.9396 106.708L49.536 103.91L51.5743 102.825L53.0243 103.062L54.4743 103.299L57.2427 103.025L59.8295 103.448L58.8232 106.356L58.5794 107.06Z" fill="#D173BD"/>
<path d="M49.8381 108.789L46.2608 110.079L42.854 109.083L39.4452 107.478L38.3557 106.175L37.2011 105.372L38.3182 104.644L40.7074 105.035L43.4858 105.218L45.5501 105.319L50.9396 106.708L51.4373 107.699L49.8381 108.789Z" fill="#D173BD"/>
<path d="M50.9396 106.708L45.5501 105.319L43.4858 105.218L40.734 103.113L38.0964 99.8956L36.2219 95.6548L39.2073 99.2052L40.2164 97.7346L43.1893 99.5799L44.0525 101.595L45.4736 103.82L47.0619 105.177L50.9396 106.708Z" fill="#D173BD"/>
<path d="M51.5743 102.825L49.536 103.91L50.9396 106.708L47.0619 105.177L45.4736 103.82L44.0525 101.595L43.1893 99.5799L43.3856 98.3792L44.7682 97.3726L48.1722 98.3849L49.5434 99.2592L50.9146 100.133L52.3486 102.124L53.0243 103.062L51.5743 102.825Z" fill="#D173BD"/>
<path d="M48.1722 98.3849L44.7682 97.3726L43.3856 98.3792L43.1893 99.5799L41.1816 95.851L41.601 93.2853L39.7282 89.9125L43.1142 91.8496L43.3059 87.379L44.0697 94.1937L46.2374 92.0065L47.5809 96.4139L49.5434 99.2592L48.1722 98.3849Z" fill="#D173BD"/>
<path d="M50.9146 100.133L49.5434 99.2592L47.5809 96.4139L48.0325 93.6508L49.7902 93.2289L50.9406 95.3168L53.0045 94.0752L52.6147 96.4599L54.0028 97.0752L55.6759 99.1555L54.6709 98.9912L52.1926 99.0421L51.6231 100.249L52.3486 102.124L50.9146 100.133Z" fill="#D173BD"/>
<path d="M57.2427 103.025L54.4743 103.299L53.0243 103.062L52.3486 102.124L51.6231 100.249L55.3964 100.866L58.5692 100.084L57.2427 103.025Z" fill="#D173BD"/>
<path d="M59.8295 103.448L57.2427 103.025L58.5692 100.084L55.3964 100.866L51.6231 100.249L52.1926 99.0421L54.6709 98.9912L55.6759 99.1555L58.1056 97.7459L58.4465 95.6602L60.4559 96.3673L60.2621 94.299L61.8627 94.1148L63.4885 96.4843L62.4555 97.6295L60.9502 99.6968L60.0124 102.33L59.8295 103.448Z" fill="#D173BD"/>
<path d="M62.4555 97.6295L63.4885 96.4843L63.4988 90.9742L65.1702 92.5096L67.958 91.7031L68.5883 94.0782L69.883 95.4258L66.8713 98.3513L64.9106 98.8582L62.481 100.268L60.0124 102.33L60.9502 99.6968L62.4555 97.6295Z" fill="#D173BD"/>
<path d="M59.8295 103.448L60.0124 102.33L62.481 100.268L64.9106 98.8582L66.8713 98.3513L68.6343 98.6395L67.7701 101.132L66.4814 103.117L63.8191 105.536L61.841 106.563L58.8232 106.356L59.8295 103.448Z" fill="#D173BD"/>
<path d="M61.2362 107.883L58.5794 107.06L58.8232 106.356L61.841 106.563L63.8191 105.536L66.4814 103.117L67.7701 101.132L70.7229 101.615L76.311 98.5803L71.0652 104.413L69.1814 106.412L66.0795 107.542L63.3783 108.233L61.2362 107.883Z" fill="#D173BD"/>
<path d="M51.4373 107.699L54.6971 109.077L53.7482 110.949L52.9741 112.476C52.9741 112.476 51.5078 113.861 50.3485 114.36L44.6293 114.952L45.164 111.199L46.2608 110.079L49.8381 108.789L51.4373 107.699Z" fill="#D173BD"/>
<path d="M46.2608 110.079L45.164 111.199C45.164 111.199 43.8767 111.689 43.0114 111.743C42.0444 111.803 41.4548 111.653 40.5832 111.38L33.5042 108.856L37.3032 107.128L38.3557 106.175L39.4452 107.478L42.854 109.083L46.2608 110.079Z" fill="#D173BD"/>
<path d="M54.6971 109.077L58.5794 107.06L61.2362 107.883L63.3783 108.233L67.0853 112.961L61.4589 115.214C60.0902 115.251 59.2938 115.093 57.9988 114.648C56.8016 114.237 56.0372 114.019 55.1337 113.133C54.4126 112.426 53.7482 110.949 53.7482 110.949L54.6971 109.077Z" fill="#D173BD"/>
<path d="M68.6566 101.003L73.0256 101.226L75.4197 98.62L75.4608 97.5111L75.5765 94.3833L73.2716 94.2421L72.0508 95.0596L70.8301 95.8771L68.1979 96.7774L66.0199 98.2359L68.1424 100.463L68.6566 101.003Z" fill="#EB8DD7"/>
<path d="M77.3268 98.9474L81.1167 98.6357L83.8027 96.3155L86.2381 93.4411L86.6882 91.8029L87.4055 90.5935L86.087 90.395L84.0755 91.742L81.6236 93.0615L79.7874 94.0103L75.4608 97.5111L75.4197 98.62L77.3268 98.9474Z" fill="#EB8DD7"/>
<path d="M75.4608 97.5111L79.7874 94.0103L81.6236 93.0615L83.2535 90.0044L84.3176 85.9825L84.2625 81.3462L83.0203 85.8155L81.4917 84.8964L79.5531 87.8093L79.6044 90.0012L79.235 92.6152L78.3534 94.5093L75.4608 97.5111Z" fill="#EB8DD7"/>
<path d="M73.2716 94.2421L75.5765 94.3833L75.4608 97.5111L78.3534 94.5093L79.235 92.6152L79.6044 90.0012L79.5531 87.8093L78.8761 86.7985L77.2004 86.4565L74.5237 88.7906L73.6391 90.1551L72.7546 91.5197L72.2762 93.9259L72.0508 95.0596L73.2716 94.2421Z" fill="#EB8DD7"/>
<path d="M74.5237 88.7906L77.2004 86.4565L78.8761 86.7985L79.5531 87.8093L79.8317 83.5834L78.3852 81.4233L78.689 77.5774L76.4126 80.7453L74.3824 76.7576L76.5163 83.2745L73.6363 82.1845L74.2435 86.7519L73.6391 90.1551L74.5237 88.7906Z" fill="#EB8DD7"/>
<path d="M72.7546 91.5197L73.6391 90.1551L74.2435 86.7519L72.6857 84.4256L70.9115 84.7714L70.7315 87.1485L68.3384 86.8755L69.683 88.8833L68.6755 90.0193L68.0169 92.6065L68.8631 92.0398L71.1389 91.0573L72.1581 91.9191L72.2762 93.9259L72.7546 91.5197Z" fill="#EB8DD7"/>
<path d="M68.1979 96.7774L70.8301 95.8771L72.0508 95.0596L72.2762 93.9259L72.1581 91.9191L68.9813 94.0465L65.7702 94.6525L68.1979 96.7774Z" fill="#EB8DD7"/>
<path d="M66.0199 98.2359L68.1979 96.7774L65.7702 94.6525L68.9813 94.0465L72.1581 91.9191L71.1389 91.0573L68.8631 92.0398L68.0169 92.6065L65.2213 92.3325L64.0453 90.5765L62.5108 92.0539L61.8286 90.0918L60.296 90.5887L59.8004 93.4192L61.2156 94.0323L63.4432 95.2883L65.3894 97.2943L66.0199 98.2359Z" fill="#EB8DD7"/>
<path d="M61.2156 94.0323L59.8004 93.4192L57.5038 88.4106L56.6206 90.5013L53.7495 90.9247L54.1619 93.3472L53.5434 95.1106L57.4978 96.522L59.492 96.1693L62.2876 96.4432L65.3894 97.2943L63.4432 95.2883L61.2156 94.0323Z" fill="#EB8DD7"/>
<path d="M66.0199 98.2359L65.3894 97.2943L62.2876 96.4432L59.492 96.1693L57.4978 96.522L56.0135 97.516L57.8346 99.4253L59.8308 100.696L63.2568 101.791L65.483 101.905L68.1424 100.463L66.0199 98.2359Z" fill="#EB8DD7"/>
<path d="M66.5809 102.854L68.6566 101.003L68.1424 100.463L65.483 101.905L63.2568 101.791L59.8308 100.696L57.8346 99.4253L55.3485 101.09L49.0049 100.649L56.1984 103.777L58.7422 104.814L62.0331 104.555L64.7775 104.062L66.5809 102.854Z" fill="#EB8DD7"/>
<path d="M75.4197 98.62L73.0256 101.226L74.6661 102.535L76.0043 103.604C76.0043 103.604 77.9134 104.255 79.1752 104.228L84.6239 102.392L82.5798 99.2002L81.1167 98.6357L77.3268 98.9474L75.4197 98.62Z" fill="#EB8DD7"/>
<path d="M81.1167 98.6357L82.5798 99.2002C82.5798 99.2002 83.954 99.1108 84.7637 98.8007C85.6685 98.4543 86.1428 98.0734 86.8223 97.4629L92.2148 92.2281L88.0415 92.2334L86.6882 91.8029L86.2381 93.4411L83.8027 96.3155L81.1167 98.6357Z" fill="#EB8DD7"/>
<path d="M73.0256 101.226L68.6566 101.003L66.5809 102.854L64.7775 104.062L63.3678 109.903L69.4215 109.617C70.682 109.082 71.3411 108.608 72.3347 107.666C73.2533 106.795 73.8583 106.279 74.3123 105.098C74.6747 104.155 74.6661 102.535 74.6661 102.535L73.0256 101.226Z" fill="#EB8DD7"/>
<path d="M37.1464 87.2435L40.3348 90.2389L43.8462 89.7992L44.5946 88.9798L46.7054 86.6689L45.0386 85.0707L43.5788 84.9049L42.1189 84.739L39.529 83.7236L36.9245 83.4278L37.1031 86.4994L37.1464 87.2435Z" fill="#F184DA"/>
<path d="M45.0892 91.2821L48.1816 93.4951L51.7308 93.4622L55.4472 92.8445L56.8499 91.886L58.1791 91.4273L57.3017 90.4233L54.8963 90.15L52.1728 89.571L50.1587 89.1074L44.5946 88.9798L43.8462 89.7992L45.0892 91.2821Z" fill="#F184DA"/>
<path d="M44.5946 88.9798L50.1587 89.1074L52.1728 89.571L55.3929 88.2931L58.8054 85.9133L61.7615 82.3412L57.9238 84.947L57.3522 83.2576L53.9898 84.2258L52.6115 85.9309L50.6394 87.686L48.7421 88.5607L44.5946 88.9798Z" fill="#F184DA"/>
<path d="M45.0386 85.0707L46.7054 86.6689L44.5946 88.9798L48.7421 88.5607L50.6394 87.686L52.6115 85.9309L53.9898 84.2258L54.1271 83.017L53.07 81.6726L49.5189 81.722L47.9618 82.1909L46.4047 82.6597L44.4838 84.1858L43.5788 84.9049L45.0386 85.0707Z" fill="#F184DA"/>
<path d="M49.5189 81.722L53.07 81.6726L54.1271 83.017L53.9898 84.2258L56.935 81.1826L57.2284 78.5994L59.9471 75.8623L56.1622 76.8067L57.1923 72.4521L54.6058 78.803L53.1139 76.1092L50.6235 79.9858L47.9618 82.1909L49.5189 81.722Z" fill="#F184DA"/>
<path d="M46.4047 82.6597L47.9618 82.1909L50.6235 79.9858L50.9395 77.204L49.3626 76.3204L47.6882 78.0172L46.0393 76.2616L45.7665 78.6626L44.2634 78.8776L42.0881 80.4251L43.1 80.54L45.4712 81.2622L45.6913 82.5787L44.4838 84.1858L46.4047 82.6597Z" fill="#F184DA"/>
<path d="M39.529 83.7236L42.1189 84.739L43.5788 84.9049L44.4838 84.1858L45.6913 82.5787L41.8925 82.1472L39.0513 80.533L39.529 83.7236Z" fill="#F184DA"/>
<path d="M36.9245 83.4278L39.529 83.7236L39.0513 80.533L41.8925 82.1472L45.6913 82.5787L45.4712 81.2622L43.1 80.54L42.0881 80.4251L40.1328 78.4084L40.3713 76.3085L38.2455 76.4431L38.9939 74.5053L37.5035 73.8932L35.2951 75.7319L35.9781 77.1146L36.8651 79.5131L37.0524 82.3018L36.9245 83.4278Z" fill="#F184DA"/>
<path d="M35.9781 77.1146L35.2951 75.7319L36.7821 70.4262L34.7565 71.4498L32.2926 69.9162L31.0407 72.0307L29.4286 72.9759L31.5323 76.6096L33.2815 77.6301L35.2368 79.6468L37.0524 82.3018L36.8651 79.5131L35.9781 77.1146Z" fill="#F184DA"/>
<path d="M36.9245 83.4278L37.0524 82.3018L35.2368 79.6468L33.2815 77.6301L31.5323 76.6096L29.7573 76.408L29.9117 79.042L30.6128 81.302L32.5179 84.3529L34.1424 85.8792L37.1031 86.4994L36.9245 83.4278Z" fill="#F184DA"/>
<path d="M34.366 87.3134L37.1464 87.2435L37.1031 86.4994L34.1424 85.8792L32.5179 84.3529L30.6128 81.302L29.9117 79.042L26.9388 78.7043L22.3855 74.2654L25.8494 81.3036L27.1192 83.7396L29.7974 85.6696L32.2094 87.0685L34.366 87.3134Z" fill="#F184DA"/>
<path d="M43.8462 89.7992L40.3348 90.2389L40.7393 92.2985L41.0694 93.9787C41.0694 93.9787 42.1042 95.7103 43.0844 96.5054L48.4278 98.6283L48.9326 94.8719L48.1816 93.4951L45.0892 91.2821L43.8462 89.7992Z" fill="#F184DA"/>
<path d="M48.1816 93.4951L48.9326 94.8719C48.9326 94.8719 50.0386 95.6923 50.8567 95.9794C51.7709 96.3002 52.379 96.3163 53.2921 96.2901L60.7905 95.7842L57.6038 93.0895L56.8499 91.886L55.4472 92.8445L51.7308 93.4622L48.1816 93.4951Z" fill="#F184DA"/>
<path d="M40.3348 90.2389L37.1464 87.2435L34.366 87.3134L32.2094 87.0685L27.3571 90.6122L32.1599 94.3084C33.4672 94.7155 34.2765 94.7801 35.6436 94.7041C36.9074 94.6339 37.7023 94.6318 38.8126 94.0242C39.6988 93.5393 40.7393 92.2985 40.7393 92.2985L40.3348 90.2389Z" fill="#F184DA"/>
<path d="M92.2855 118.715L89.4284 121.615L86.1474 121.332L85.4219 120.597L83.3759 118.525L84.8684 116.978L86.2199 116.772L87.5714 116.565L89.9433 115.528L92.3545 115.159L92.2989 118.021L92.2855 118.715Z" fill="#F184DA"/>
<path d="M85.0449 122.756L82.2489 124.925L78.9473 125.022L75.4692 124.582L74.1303 123.741L72.8778 123.362L73.6575 122.397L75.8845 122.056L78.3962 121.42L80.2525 120.916L85.4219 120.597L86.1474 121.332L85.0449 122.756Z" fill="#F184DA"/>
<path d="M85.4219 120.597L80.2525 120.916L78.3962 121.42L75.3559 120.347L72.097 118.257L69.2196 115.042L72.882 117.327L73.3528 115.735L76.5143 116.515L77.8573 118.051L79.7543 119.612L81.5501 120.357L85.4219 120.597Z" fill="#F184DA"/>
<path d="M84.8684 116.978L83.3759 118.525L85.4219 120.597L81.5501 120.357L79.7543 119.612L77.8573 118.051L76.5143 116.515L76.3431 115.396L77.2777 114.107L80.5816 114.026L82.0465 114.406L83.5113 114.786L85.3524 116.136L86.2199 116.772L84.8684 116.978Z" fill="#F184DA"/>
<path d="M80.5816 114.026L77.2777 114.107L76.3431 115.396L76.5143 116.515L73.666 113.791L73.3002 111.399L70.6736 108.952L74.2272 109.694L73.1126 105.682L75.7464 111.494L77.0368 108.936L79.492 112.451L82.0465 114.406L80.5816 114.026Z" fill="#F184DA"/>
<path d="M83.5113 114.786L82.0465 114.406L79.492 112.451L79.0981 109.875L80.5326 108.997L82.1507 110.515L83.6209 108.823L83.9609 111.046L85.3663 111.192L87.4449 112.552L86.508 112.696L84.329 113.452L84.1717 114.685L85.3524 116.136L83.5113 114.786Z" fill="#F184DA"/>
<path d="M89.9433 115.528L87.5714 116.565L86.2199 116.772L85.3524 116.136L84.1717 114.685L87.6887 114.147L90.2727 112.543L89.9433 115.528Z" fill="#F184DA"/>
<path d="M92.3545 115.159L89.9433 115.528L90.2727 112.543L87.6887 114.147L84.1717 114.685L84.329 113.452L86.508 112.696L87.4449 112.552L89.1905 110.607L88.8932 108.662L90.8748 108.711L90.1091 106.936L91.473 106.313L93.5928 107.944L93.0073 109.254L92.2689 111.516L92.195 114.116L92.3545 115.159Z" fill="#F184DA"/>
<path d="M93.0073 109.254L93.5928 107.944L92.019 103.063L93.9395 103.942L96.1755 102.428L97.4157 104.349L98.9488 105.17L97.1233 108.624L95.5335 109.636L93.7878 111.582L92.195 114.116L92.2689 111.516L93.0073 109.254Z" fill="#F184DA"/>
<path d="M92.3545 115.159L92.195 114.116L93.7878 111.582L95.5335 109.636L97.1233 108.624L98.7667 108.373L98.7178 110.828L98.1472 112.955L96.4855 115.86L95.0298 117.338L92.2989 118.021L92.3545 115.159Z" fill="#F184DA"/>
<path d="M94.8735 118.68L92.2855 118.715L92.2989 118.021L95.0298 117.338L96.4855 115.86L98.1472 112.955L98.7178 110.828L101.47 110.407L105.545 106.115L102.577 112.785L101.484 115.096L99.0626 116.987L96.8701 118.374L94.8735 118.68Z" fill="#F184DA"/>
<path d="M86.1474 121.332L89.4284 121.615L89.1263 123.545L88.8799 125.119C88.8799 125.119 87.9799 126.766 87.097 127.541L82.2046 129.707L81.6001 126.233L82.2489 124.925L85.0449 122.756L86.1474 121.332Z" fill="#F184DA"/>
<path d="M82.2489 124.925L81.6001 126.233C81.6001 126.233 80.6011 127.035 79.8506 127.332C79.0121 127.663 78.4472 127.7 77.5972 127.708L70.6062 127.508L73.4726 124.887L74.1303 123.741L75.4692 124.582L78.9473 125.022L82.2489 124.925Z" fill="#F184DA"/>
<path d="M89.4284 121.615L92.2855 118.715L94.8735 118.68L96.8701 118.374L101.51 121.495L97.1766 125.105C95.9756 125.531 95.2254 125.62 93.9514 125.598C92.7736 125.579 92.0344 125.605 90.9801 125.08C90.1386 124.661 89.1263 123.545 89.1263 123.545L89.4284 121.615Z" fill="#F184DA"/>
<path d="M53.9803 121.256L49.8866 122.799L46.8127 121.045L46.436 120.002L45.3733 117.058L47.5258 116.221L48.9375 116.628L50.3492 117.035L53.1305 117.091L55.6492 117.817L54.3057 120.585L53.9803 121.256Z" fill="#EB8DD7"/>
<path d="M45.0959 121.938L41.391 122.795L38.1261 121.403L34.9311 119.407L34.0035 117.983L32.9521 117.05L34.1475 116.459L36.4736 117.13L39.2109 117.64L41.2488 117.984L46.436 120.002L46.8127 121.045L45.0959 121.938Z" fill="#EB8DD7"/>
<path d="M46.436 120.002L41.2488 117.984L39.2109 117.64L36.7276 115.224L34.4893 111.717L33.13 107.284L35.6742 111.163L36.8503 109.822L39.5838 112.007L40.2024 114.11L41.3502 116.487L42.7667 118.023L46.436 120.002Z" fill="#EB8DD7"/>
<path d="M47.5258 116.221L45.3733 117.058L46.436 120.002L42.7667 118.023L41.3502 116.487L40.2024 114.11L39.5838 112.007L39.9208 110.838L41.4128 110.002L44.6731 111.41L45.9312 112.44L47.1893 113.471L48.3776 115.617L48.9375 116.628L47.5258 116.221Z" fill="#EB8DD7"/>
<path d="M44.6731 111.41L41.4128 110.002L39.9208 110.838L39.5838 112.007L38.0316 108.066L38.7518 105.568L37.2913 101.997L40.4242 104.322L41.1437 99.9053L41.0956 106.763L43.5069 104.847L44.3193 109.383L45.9312 112.44L44.6731 111.41Z" fill="#EB8DD7"/>
<path d="M47.1893 113.471L45.9312 112.44L44.3193 109.383L45.0948 106.693L46.89 106.482L47.7853 108.691L49.9816 107.702L49.3122 110.024L50.6178 110.8L52.0329 113.063L51.0543 112.781L48.5875 112.538L47.8791 113.67L48.3776 115.617L47.1893 113.471Z" fill="#EB8DD7"/>
<path d="M53.1305 117.091L50.3492 117.035L48.9375 116.628L48.3776 115.617L47.8791 113.67L51.5528 114.729L54.7959 114.328L53.1305 117.091Z" fill="#EB8DD7"/>
<path d="M55.6492 117.817L53.1305 117.091L54.7959 114.328L51.5528 114.729L47.8791 113.67L48.5875 112.538L51.0543 112.781L52.0329 113.063L54.6123 111.951L55.1978 109.92L57.1092 110.86L57.1616 108.784L58.7728 108.79L60.1067 111.336L58.9454 112.35L57.206 114.225L55.9631 116.728L55.6492 117.817Z" fill="#EB8DD7"/>
<path d="M58.9454 112.35L60.1067 111.336L60.7691 105.865L62.247 107.588L65.1107 107.117L65.4555 109.55L66.5816 111.041L63.2448 113.59L61.2379 113.861L58.6584 114.973L55.9631 116.728L57.206 114.225L58.9454 112.35Z" fill="#EB8DD7"/>
<path d="M55.6492 117.817L55.9631 116.728L58.6584 114.973L61.2379 113.861L63.2448 113.59L64.9613 114.085L63.808 116.458L62.2935 118.276L59.3637 120.362L57.2778 121.149L54.3057 120.585L55.6492 117.817Z" fill="#EB8DD7"/>
<path d="M56.5211 122.387L53.9803 121.256L54.3057 120.585L57.2778 121.149L59.3637 120.362L62.2935 118.276L63.808 116.458L66.683 117.287L72.5909 114.934L66.6917 120.105L64.5844 121.867L61.3707 122.622L58.6066 122.988L56.5211 122.387Z" fill="#EB8DD7"/>
<path d="M46.8127 121.045L49.8866 122.799L48.7228 124.545L47.7734 125.97C47.7734 125.97 46.1534 127.172 44.9432 127.531L39.1942 127.441L40.1693 123.778L41.391 122.795L45.0959 121.938L46.8127 121.045Z" fill="#EB8DD7"/>
<path d="M41.391 122.795L40.1693 123.778C40.1693 123.778 38.8331 124.112 37.9675 124.063C37.0002 124.008 36.4324 123.79 35.5993 123.415L28.8688 120.071L32.8456 118.805L34.0035 117.983L34.9311 119.407L38.1261 121.403L41.391 122.795Z" fill="#EB8DD7"/>
<path d="M49.8866 122.799L53.9803 121.256L56.5211 122.387L58.6066 122.988L61.7279 128.123L55.8745 129.693C54.511 129.568 53.7389 129.317 52.5056 128.722C51.3655 128.172 50.6322 127.865 49.84 126.878C49.2077 126.091 48.7228 124.545 48.7228 124.545L49.8866 122.799Z" fill="#EB8DD7"/>
<path d="M110.764 36.8445L98.8671 124.375L103.891 130.042L115.678 33.716L110.764 36.8445Z" fill="#8064BF" stroke="#5B3DA8" stroke-width="1.5"/>
<path d="M33.9277 128.881L18.0308 38.325L29.1867 37.9963L43.6891 128.593L33.9277 128.881Z" fill="#EB8DD7" fill-opacity="0.3"/>
<path d="M18.886 38.6218L34.0371 125.63L29.2362 131.486L13.7331 35.688L18.886 38.6218Z" fill="#8064BF" stroke="#5B3DA8" stroke-width="1.5"/>
<path d="M33.734 125.635L29.2329 131.304L103.402 129.869L98.8668 124.376L33.734 125.635Z" fill="#463477" stroke="#5B3DA8" stroke-width="1.5"/>
</svg>
