<svg width="227" height="280" viewBox="0 0 227 280" fill="none" xmlns="http://www.w3.org/2000/svg">
<path d="M90.3217 155.073L95.3403 153.334L132.594 99.4481L172.357 51.5492L203.819 15.4319L166.18 68.1593L149.387 92.3019L131.629 119.342L99.3938 156.038L98.4286 161.06L85.4961 175.932H80.4775L79.3193 171.103L90.3217 155.073Z" fill="#AE86DB" stroke="#5B3DA8" stroke-width="1.5"/>
<path d="M58.5279 278.642H121.732L98.1418 259.54L133.305 198.413L116.836 153.523L75.4417 150.18L63.8691 171.67L3.78058 167.85L25.5905 205.576L0.664886 253.332L49.6259 239.96L58.5279 278.642Z" fill="#95A7FB" fill-opacity="0.5" stroke="#5B3DA8" stroke-width="1.5" stroke-linejoin="bevel" stroke-dasharray="5 5"/>
<path d="M103.042 160.102L108.057 158.366L140.073 105.521L179.996 48.6254L213.941 1.18018L225.32 13.3308L189.061 58.0758L150.873 113.814L112.107 161.067L111.143 166.081L98.2206 180.932H93.206L92.0488 176.11L103.042 160.102Z" fill="#BF98EB" stroke="#5B3DA8" stroke-width="1.5"/>
<path d="M193.882 44.9609L183.319 45.1802L213.819 2.18018L224.319 13.1802L193.882 44.9609Z" fill="#AE86DB"/>
<path d="M218.183 9.08781L214.133 5.61621L200.632 23.5528L203.911 25.6743L218.183 9.08781Z" fill="#A7B7F7"/>
<rect x="139.11" y="111.907" width="7.27137" height="0.5786" transform="rotate(39.2148 139.11 111.907)" fill="#A168C9" stroke="#5B3DA8" stroke-width="0.5786"/>
<rect x="139.881" y="109.978" width="7.86672" height="0.5786" transform="rotate(39.2148 139.881 109.978)" fill="#A168C9" stroke="#5B3DA8" stroke-width="0.5786"/>
<rect x="140.931" y="108.419" width="8.28553" height="0.5786" transform="rotate(39.2148 140.931 108.419)" fill="#A168C9" stroke="#5B3DA8" stroke-width="0.5786"/>
<rect x="141.809" y="106.892" width="8.66284" height="0.5786" transform="rotate(39.2148 141.809 106.892)" fill="#A168C9" stroke="#5B3DA8" stroke-width="0.5786"/>
<rect x="142.967" y="105.35" width="8.63154" height="0.5786" transform="rotate(39.2148 142.967 105.35)" fill="#A168C9" stroke="#5B3DA8" stroke-width="0.5786"/>
<rect x="144.124" y="103.807" width="8.7543" height="0.5786" transform="rotate(39.2148 144.124 103.807)" fill="#A168C9" stroke="#5B3DA8" stroke-width="0.5786"/>
<rect x="145.281" y="102.264" width="8.67752" height="0.5786" transform="rotate(39.2148 145.281 102.264)" fill="#A168C9" stroke="#5B3DA8" stroke-width="0.5786"/>
<rect x="146.438" y="100.721" width="8.7156" height="0.5786" transform="rotate(39.2148 146.438 100.721)" fill="#A168C9" stroke="#5B3DA8" stroke-width="0.5786"/>
<rect x="147.595" y="99.1778" width="8.78513" height="0.5786" transform="rotate(39.2148 147.595 99.1778)" fill="#A168C9" stroke="#5B3DA8" stroke-width="0.5786"/>
<rect x="148.753" y="97.6348" width="8.50311" height="0.5786" transform="rotate(39.2148 148.753 97.6348)" fill="#A168C9" stroke="#5B3DA8" stroke-width="0.5786"/>
<rect x="149.653" y="95.8819" width="8.8352" height="0.5786" transform="rotate(39.2148 149.653 95.8819)" fill="#A168C9" stroke="#5B3DA8" stroke-width="0.5786"/>
<rect x="150.621" y="94.1849" width="9.07923" height="0.5786" transform="rotate(39.2148 150.621 94.1849)" fill="#A168C9" stroke="#5B3DA8" stroke-width="0.5786"/>
<rect x="151.868" y="92.7154" width="8.96273" height="0.5786" transform="rotate(39.2148 151.868 92.7154)" fill="#A168C9" stroke="#5B3DA8" stroke-width="0.5786"/>
<rect x="152.859" y="91.0364" width="9.17806" height="0.5786" transform="rotate(39.2148 152.859 91.0364)" fill="#A168C9" stroke="#5B3DA8" stroke-width="0.5786"/>
<rect x="154.195" y="89.6397" width="8.94673" height="0.5786" transform="rotate(39.2148 154.195 89.6397)" fill="#A168C9" stroke="#5B3DA8" stroke-width="0.5786"/>
<rect x="154.925" y="87.8453" width="9.17806" height="0.5786" transform="rotate(39.2148 154.925 87.8453)" fill="#A168C9" stroke="#5B3DA8" stroke-width="0.5786"/>
<rect x="155.966" y="86.2076" width="9.32801" height="0.5786" transform="rotate(39.2148 155.966 86.2076)" fill="#A168C9" stroke="#5B3DA8" stroke-width="0.5786"/>
<rect x="157.049" y="84.6385" width="8.92565" height="0.5786" transform="rotate(39.2148 157.049 84.6385)" fill="#A168C9" stroke="#5B3DA8" stroke-width="0.5786"/>
<rect x="162.592" y="77.3116" width="9.08949" height="0.923073" transform="rotate(39.2148 162.592 77.3116)" fill="#A168C9" stroke="#5B3DA8" stroke-width="0.75"/>
<rect x="158.415" y="82.9515" width="9.15375" height="0.5786" transform="rotate(39.2148 158.415 82.9515)" fill="#A168C9" stroke="#5B3DA8" stroke-width="0.5786"/>
<rect x="159.774" y="81.1647" width="9.29592" height="0.743954" transform="rotate(39.2148 159.774 81.1647)" fill="#A168C9" stroke="#5B3DA8" stroke-width="0.743954"/>
<rect x="161.109" y="79.2403" width="9.28987" height="0.754646" transform="rotate(39.2148 161.109 79.2403)" fill="#A168C9" stroke="#5B3DA8" stroke-width="0.75"/>
<rect x="180.773" y="50.2471" width="9.57489" height="1.98902" transform="rotate(39.7196 180.773 50.2471)" fill="#A168C9" stroke="#5B3DA8" stroke-width="0.75"/>
<rect x="178.709" y="53.011" width="9.57489" height="1.98902" transform="rotate(39.7196 178.709 53.011)" fill="#A168C9" stroke="#5B3DA8" stroke-width="0.75"/>
<rect x="176.78" y="56.0967" width="9.57489" height="1.98902" transform="rotate(39.7196 176.78 56.0967)" fill="#A168C9" stroke="#5B3DA8" stroke-width="0.75"/>
<rect x="174.852" y="59.1826" width="9.57489" height="1.98902" transform="rotate(39.7196 174.852 59.1826)" fill="#A168C9" stroke="#5B3DA8" stroke-width="0.75"/>
<rect x="172.923" y="62.2686" width="9.57489" height="1.98902" transform="rotate(39.7196 172.923 62.2686)" fill="#A168C9" stroke="#5B3DA8" stroke-width="0.75"/>
<rect x="170.609" y="64.9685" width="9.57489" height="1.52828" transform="rotate(39.7196 170.609 64.9685)" fill="#A168C9" stroke="#5B3DA8" stroke-width="0.75"/>
<rect x="168.771" y="67.6687" width="9.57489" height="1.52828" transform="rotate(39.7196 168.771 67.6687)" fill="#A168C9" stroke="#5B3DA8" stroke-width="0.75"/>
<rect x="167.228" y="70.3689" width="9.57489" height="1.13728" transform="rotate(39.7196 167.228 70.3689)" fill="#A168C9" stroke="#5B3DA8" stroke-width="0.75"/>
<rect x="165.436" y="72.2976" width="9.57489" height="1.13728" transform="rotate(39.7196 165.436 72.2976)" fill="#A168C9" stroke="#5B3DA8" stroke-width="0.75"/>
<rect x="163.893" y="74.6118" width="9.57489" height="1.13728" transform="rotate(39.7196 163.893 74.6118)" fill="#A168C9" stroke="#5B3DA8" stroke-width="0.75"/>
</svg>
