<svg width="80" height="85" viewBox="0 0 80 85" fill="none" xmlns="http://www.w3.org/2000/svg">
<g filter="url(#filter0_d_24_33459)">
<path d="M63.932 3.87686L36.5628 71.846L28.3447 70.3933L6.45116 30.9207L56.5287 1.81769L63.932 3.87686Z" fill="white"/>
<path d="M12.2842 33.6057C12.336 33.8658 12.5258 34.0961 12.7131 34.2624C12.7688 34.3091 12.868 34.221 12.9118 34.251C12.9969 34.3088 12.9835 34.4212 13.0773 34.4742C13.1087 34.491 13.273 34.3661 13.3018 34.3859C13.4589 34.4959 13.4904 34.6698 13.6079 34.8027C14.1934 35.4681 14.655 36.1741 15.1407 36.8853C15.3014 37.121 15.6256 37.3349 15.6955 37.6345C15.7035 37.6696 15.5368 37.736 15.527 37.7488C15.3769 37.9444 15.6777 37.7439 15.751 37.7792C16.0419 37.9206 16.1969 38.1728 16.2571 38.4283C16.2827 38.538 15.9193 38.6108 16.1464 38.6126C16.1618 38.6129 16.3151 38.4983 16.3471 38.515C16.4199 38.5539 16.4501 38.6807 16.488 38.719C16.5619 38.7925 16.5682 38.808 16.6155 38.8905C16.6817 39.0028 16.8389 39.0949 16.867 39.2361C16.8726 39.2667 16.6834 39.3252 16.677 39.3824C16.6706 39.4397 16.7452 39.5422 16.8058 39.5577C16.8664 39.5731 16.9916 39.4842 17.0259 39.4741C17.3148 39.3873 17.0259 39.7113 17.0256 39.7318C17.0364 40.1112 17.3824 40.2584 17.5347 40.5379C17.6516 40.7532 17.7074 41.0148 17.8285 41.2132C17.9739 41.4501 18.1764 41.6 18.2906 41.8446C18.3028 41.8703 18.0869 41.9513 18.1014 41.9829C18.254 42.3147 18.4527 42.623 18.7634 42.8662C18.7948 42.8906 18.9473 42.7524 18.9891 42.7709C19.2419 42.8877 19.7584 43.0036 19.0602 43.5432C19.1636 43.6594 19.2837 43.8031 19.503 43.8358C19.6444 43.8571 19.794 43.6769 19.7646 43.8159C19.7582 43.8471 19.5759 43.9125 19.579 43.9523C19.592 44.1197 19.7278 44.2359 19.7148 44.4156C19.7118 44.4524 19.5581 44.5285 19.5354 44.5511C19.3528 44.7366 19.7729 44.6421 19.812 44.6506C20.106 44.7184 20.1011 44.8903 20.1977 45.0521C20.2202 45.0896 19.9942 45.1567 20.0086 45.1968C20.0863 45.4034 20.214 45.5912 20.4075 45.7278C20.4511 45.7579 20.6007 45.624 20.6302 45.6335C20.7584 45.6764 20.4464 45.8767 20.5631 45.9214C20.5873 45.9311 20.728 45.8391 20.7459 45.8333C21.0265 45.7422 20.6935 45.9864 20.6929 46.0038C20.6771 46.2283 21.1092 46.124 21.1453 46.3119C21.1493 46.3346 20.9402 46.3959 20.9626 46.4533C20.992 46.5293 21.0259 46.6039 21.0639 46.6765L21.0473 46.6455C21.1934 46.9529 21.4071 47.2284 21.6738 47.4504C21.7253 47.4935 21.847 47.3815 21.8663 47.376C22.1686 47.2923 21.821 47.5164 21.8164 47.5413C21.7891 47.7328 22.1637 47.7067 21.7793 48.0313C22.2469 48.5703 22.3069 49.2897 23.0082 49.6932C23.0166 49.6984 23.1899 49.5922 23.2059 49.603C23.4004 49.7323 23.1022 49.8414 22.8208 50.1367C22.7499 50.2102 23.2115 50.0906 23.2464 50.0841C23.374 50.0573 23.6257 49.8875 23.6527 49.8867C23.8663 49.8842 22.9725 50.3268 23.0308 50.4409C23.0342 50.4437 23.1897 50.3447 23.2108 50.3459C23.277 50.3494 23.2273 50.4121 23.2983 50.4121C23.4624 50.4113 23.9054 50.2131 23.7062 50.4424C23.6801 50.4717 23.1673 50.7115 23.2425 50.7991C23.273 50.834 23.3544 51.0133 23.412 51.045C23.4695 51.0768 23.6144 50.96 23.6232 50.9598C23.9048 50.98 23.9681 50.8847 24.3189 50.7864C24.6692 50.6901 23.9063 51.0609 23.8364 51.1318C23.7669 51.203 23.9951 51.2116 24.0691 51.2042C24.1431 51.1969 24.2304 51.1135 24.2764 51.1172C24.5776 51.1434 23.9347 51.3729 23.8394 51.4818C23.6133 51.7387 24.2164 51.5362 24.3227 51.6078C24.3514 51.6272 24.2128 51.6708 24.2133 51.701C24.2169 51.8196 24.4206 51.7866 24.3158 51.9759C24.2988 52.0069 24.0069 52.2656 24.2845 52.1984C24.3243 52.1883 24.4514 52.0929 24.5042 52.1187C24.5833 52.1571 24.6714 52.2532 24.659 52.3433C24.6498 52.41 24.3915 52.4725 24.4945 52.4971C24.5404 52.5079 24.6485 52.3881 24.7236 52.4142C24.7985 52.4401 24.8593 52.5723 24.8798 52.6234C24.9002 52.6745 24.7124 52.7378 24.7027 52.7478C24.6479 52.8063 24.612 52.9426 24.6164 52.9507C24.8131 53.3834 25.3064 53.6183 25.4222 54.0796C25.4318 54.1162 25.2371 54.1893 25.2367 54.1959C25.2177 54.3475 25.6598 54.0069 25.8633 54.0002C25.4853 54.1817 25.5765 54.1928 25.576 54.2917C25.5754 54.3395 25.4207 54.3938 25.4077 54.4048C25.2176 54.5737 25.5201 54.4655 25.5831 54.4454C25.8147 54.3717 25.5838 54.5414 25.7388 54.4924C25.8927 54.4438 26.0726 54.2788 26.1078 54.3534C25.9853 54.443 25.609 54.5691 25.5814 54.6539C25.4728 54.9668 25.9619 55.2416 26.0752 55.3904C26.1901 55.5425 26.1945 55.6111 26.2957 55.6883C26.4776 55.8258 26.1847 55.8929 26.1248 56.0665C26.0648 56.2398 26.6717 55.8553 26.8165 55.8004C26.9612 55.7452 26.8296 55.8353 26.9147 55.8158C26.9998 55.7962 27.0708 55.706 27.1227 55.7369C27.1746 55.768 26.9959 56.0175 26.8614 56.1075C26.5769 56.2993 26.2286 56.4049 26.405 56.4716C26.4153 56.4754 26.5701 56.3651 26.6014 56.384C26.8439 56.5363 26.9666 56.7526 27.1879 56.9C27.2195 56.922 27.3911 56.7983 27.4116 56.8099C27.6253 56.9302 27.2782 57.028 26.9818 57.3079C27.4331 57.0446 27.745 56.9522 27.8174 57.0846C27.861 57.1639 27.6517 57.2553 27.536 57.3811C27.5012 57.4189 27.6691 57.4025 27.5793 57.4621C27.2866 57.6587 26.9085 57.782 27.1215 57.8527C27.1314 57.8555 27.2911 57.7469 27.3126 57.7632C27.4526 57.8672 27.1363 58.0532 27.1734 58.2204C27.2019 58.3504 27.5056 58.4492 27.6085 58.5676C28.1273 58.2934 28.0732 58.4802 27.7404 58.7169C27.7999 58.795 27.8232 58.889 27.9186 58.9509C27.9507 58.9711 28.0913 58.8733 28.1095 58.8685C28.3941 58.7913 28.0648 59.0111 28.0608 59.0368C28.0335 59.3083 28.3778 59.323 28.2224 59.655C28.2166 59.6666 27.8613 59.8666 28.1515 59.7795C28.1714 59.7732 28.303 59.6247 28.3623 59.7071C28.4212 59.7887 28.7016 59.8534 28.6011 60.0687C28.5767 60.1202 28.3233 60.3496 28.5836 60.2894C28.6188 60.2811 28.7179 60.2182 28.7815 60.1996C28.9846 60.1406 28.6301 60.3517 28.9627 60.2324C29.2969 60.1163 29.5795 60.091 29.4304 60.327C29.4263 60.3342 29.1523 60.515 29.177 60.5511C29.2159 60.607 29.324 60.667 29.3571 60.7349C29.3728 60.7673 29.1824 60.8409 29.182 60.8481C29.1905 61.1096 29.4324 61.1822 29.617 61.3663C29.6502 61.398 29.471 61.6525 29.7056 61.6296C29.9638 61.6074 30.7971 61.0523 30.6946 61.3692C30.6556 61.4999 29.5821 62.1727 30.2435 62.0272C30.2452 62.3834 30.6816 62.4995 30.6204 62.8926C30.6178 62.9102 30.3221 63.1068 30.3426 63.1371C30.3728 63.1799 30.5324 63.131 30.558 63.158C30.6691 63.2702 30.6048 63.4596 30.6851 63.5775C30.7162 63.6246 30.8623 63.5351 30.8991 63.5913C30.9347 63.6455 30.7509 63.7823 30.8849 63.8166C30.9599 63.836 31.2221 63.7788 31.3895 63.7716L31.3827 63.7563C31.4429 63.7507 31.4907 63.7514 31.5133 63.7657C31.1067 63.9635 31.1408 64.0141 31.0823 64.165C31.0709 64.1942 30.9199 64.2439 30.9073 64.2613C30.853 64.3345 30.9867 64.31 30.9255 64.3846C30.9108 64.4026 30.7733 64.4729 30.7536 64.4917C30.5815 64.6552 30.9409 64.5937 31.0029 64.5819C31.2394 64.5387 31.0768 64.6611 31.1821 64.6671C31.2874 64.6731 31.3498 64.5487 31.4278 64.5791C31.589 64.6416 31.6458 64.8026 31.7138 64.9172C31.7403 64.9639 31.5407 65.027 31.5402 65.0359C31.5447 65.1572 31.7906 65.1552 31.4533 65.3971C32.4325 64.9796 31.3922 65.5031 31.6522 65.5452C31.6729 65.5479 32.128 65.3353 32.1717 65.2586C32.2154 65.1822 32.0428 65.1893 32.1145 65.0775C32.1314 65.0513 32.5077 64.7546 32.5272 64.7304C32.6797 64.5407 32.0081 64.8757 31.9691 64.89C31.5484 65.0448 31.9465 64.7126 31.964 64.6708C32.0444 64.4788 31.8988 64.4292 31.9496 64.2795C31.9821 64.1823 32.4143 63.9482 32.3759 63.9071C32.2505 63.7738 31.6087 64.0248 32.0694 63.6147C32.1682 63.5279 32.6662 63.3245 32.2342 63.4003C32.2233 63.4022 32.1552 63.417 32.0897 63.4238L32.1083 63.4654C32.0061 63.4648 31.9097 63.4463 32.0276 63.3497C32.0523 63.3295 32.1955 63.2662 32.2029 63.2505C32.2521 63.1517 32.1166 63.1551 32.139 63.0611C32.1615 62.9675 32.2008 62.8422 32.1163 62.789C32.0646 62.7546 31.7731 62.8221 31.699 62.8332C31.4855 62.8647 31.7526 62.644 31.5124 62.7203C31.27 62.795 30.9648 63.0352 30.7725 63.0118C31.1349 62.8269 31.5043 62.6324 31.8674 62.4439C31.7454 62.2313 31.521 62.0807 31.4281 61.8605C31.417 61.8332 31.6253 61.76 31.6184 61.728C31.5864 61.5899 31.3964 61.5617 31.387 61.4084C31.3777 61.2841 31.5345 61.0836 31.5328 60.9538C31.0859 61.1032 31.1534 60.8906 31.0589 60.8014C31.0261 60.7703 30.9172 60.8302 30.867 60.8217C30.6797 60.7869 31.0706 60.6469 31.1136 60.5894C31.2987 60.3471 30.4685 60.7683 30.4152 60.6166C30.4121 60.6087 30.8035 60.2863 30.8255 60.2617C30.9642 60.092 30.6659 60.3291 30.6083 60.2981C30.5029 60.241 30.3653 60.2336 30.4374 60.0579C30.4579 60.0041 30.696 59.792 30.4531 59.8437C30.4213 59.8506 30.2782 59.9308 30.2664 59.9291C30.0655 59.8904 30.5202 59.6478 30.6403 59.5008C30.7596 59.3524 30.3917 59.4166 30.2909 59.4451C30.0285 59.5158 30.2114 59.5377 30.1897 59.5524C29.9324 59.7289 29.9427 59.6335 29.8906 59.5904C29.4387 59.8167 29.4249 59.7249 29.8383 59.5446C29.8835 59.525 29.8644 59.59 29.8906 59.5904C30.3046 59.3122 30.3161 59.1973 29.8547 59.3147C29.6388 59.3704 29.4357 59.5283 29.4469 59.35C29.4528 59.271 29.7732 59.1328 29.8295 59.0358C29.9583 58.8151 29.5834 58.7986 29.5621 58.6474C29.555 58.5938 29.7467 58.5495 29.7477 58.5097C29.7506 58.4039 29.5856 58.3967 29.6061 58.2779C29.6082 58.267 29.7947 58.1935 29.7832 58.1659C29.696 57.949 29.4975 57.8449 29.3844 57.6359C29.3294 57.5342 29.3324 57.3022 29.2603 57.2118C29.1363 57.0545 28.755 56.9503 28.7421 56.7733C28.7307 56.6539 28.9188 56.5832 29.0171 56.4778C29.2079 56.2741 28.7122 56.3436 28.6368 56.357C28.6344 56.3576 28.6383 56.4668 28.5232 56.4674C28.3198 56.5388 28.6365 56.3584 28.6368 56.357C28.5887 56.3668 28.4544 56.2069 28.4727 56.1595C28.4817 56.1318 28.6546 56.0547 28.6561 56.0418C28.6896 55.74 28.6082 55.4795 28.4078 55.2855C28.4023 55.2833 28.2179 55.3868 28.2074 55.3803C28.0552 55.2913 28.2398 55.0858 28.3178 54.9031C28.3957 54.7202 28.3031 54.6535 27.9459 54.7528C27.9398 54.6419 27.7386 54.6025 27.616 54.5775C27.4939 54.5537 27.854 54.3544 27.8581 54.3446C27.9905 54.0347 27.7237 54.0316 27.5854 53.8445C27.5209 53.7597 27.4793 53.5497 27.4662 53.4266C27.4567 53.3295 27.3458 53.325 27.3616 53.2215C27.3636 53.2075 27.5316 53.1336 27.5363 53.1272C27.6873 52.9424 27.3106 53.1887 27.2306 53.2081C26.9397 53.2786 26.7819 53.3109 26.8468 53.1385C26.8618 53.0995 27.3987 52.7341 27.4094 52.6728C27.4224 52.5937 27.2283 52.7215 27.247 52.6358C27.2484 52.6286 27.3756 52.5642 27.3508 52.5299C27.2373 52.3701 27.0647 52.217 26.9814 52.0247C26.9695 51.9987 27.1872 51.9274 27.1734 51.8881C27.1099 51.7068 27.0111 51.5338 26.8321 51.4179C26.7875 51.3899 26.6598 51.4878 26.6136 51.5006C26.3331 51.5775 26.6607 51.3112 26.6612 51.2948C26.6788 50.896 26.2328 50.8474 26.2334 50.4601C26.2342 50.4388 26.5618 50.1073 26.1942 50.2235C26.1697 50.2311 25.7946 50.3521 26.0047 50.1795C26.0179 50.1687 26.2142 50.1128 26.1639 50.0596C26.1138 50.0069 26.1791 49.8419 25.9422 49.8622C25.8671 49.8678 25.4905 49.9835 25.7248 49.7633C25.7414 49.7483 26.3002 49.3065 25.8488 49.4835C25.7745 49.5127 25.3247 49.754 25.5084 49.5391C25.5441 49.4976 25.6623 49.4786 25.7009 49.3981C25.7604 49.2744 25.5885 49.239 25.7435 49.0434C25.771 49.009 26.044 48.7824 25.782 48.8478C25.7409 48.858 25.5978 48.9523 25.566 48.932C25.4122 48.8331 25.4458 48.6493 25.2704 48.566C25.2089 48.5369 24.9765 48.6875 24.8851 48.671C24.7936 48.6545 24.6782 48.5853 24.7628 48.4745C24.8475 48.3638 25.2678 48.2213 25.2581 48.1255C25.2129 47.7037 24.8115 47.4859 24.6015 47.1593C24.5703 47.1107 24.7318 47.0815 24.6957 47.0046C24.5617 46.7179 24.4466 46.1706 24.0279 46.0857C23.6914 46.0151 23.6344 46.3503 23.4622 46.2527C23.3795 46.2052 23.7941 45.895 23.7995 45.8704C23.8582 45.627 23.5962 45.6115 23.5788 45.4253C23.5752 45.3868 23.7754 45.3238 23.7704 45.2921C23.7685 45.2794 23.7652 45.2675 23.7606 45.2561L23.7206 45.1817C23.6834 45.0987 23.5761 45.0517 23.5471 44.9695C23.5327 44.9275 23.6744 44.8571 23.6441 44.8281C23.5732 44.7578 23.4737 44.7163 23.2987 44.707C23.2827 44.7061 23.1396 44.8526 23.0983 44.7941C23.0322 44.6992 22.835 44.6462 22.9018 44.457C22.9222 44.4005 23.2365 44.2227 22.9777 44.2709C22.9236 44.2809 22.5563 44.5125 22.8351 44.2436C22.8813 44.1987 23.2416 43.8078 22.9178 43.8961C22.8325 43.9193 22.4962 44.0448 22.5218 43.9763C22.5264 43.9664 22.7083 43.8941 22.7057 43.8507C22.6936 43.6994 22.6051 43.5834 22.5891 43.4301C22.5851 43.3889 22.7879 43.3403 22.7764 43.2821C22.7451 43.1219 22.6062 42.9777 22.4776 42.876C22.4298 42.8386 22.3034 42.9533 22.2856 42.9585C21.9967 43.0446 22.3249 42.8176 22.3346 42.7874C22.39 42.6017 22.1769 42.6025 22.1596 42.4697C22.1543 42.4333 22.3317 42.3626 22.3432 42.3484C22.453 42.2063 22.1813 42.4177 22.1267 42.3967C21.9729 42.3385 21.9183 42.2089 21.8775 42.0855C21.8628 42.0401 22.0804 41.9795 22.065 41.9401C21.9774 41.7043 21.8348 41.4904 21.6111 41.3362C21.5687 41.3075 21.4347 41.4145 21.3963 41.4249C21.1281 41.4984 21.4042 41.236 21.4242 41.1997C21.516 41.0344 21.3664 41.073 21.348 40.9819C21.2594 40.5343 20.9146 40.1139 20.6646 39.7861C20.3382 39.3557 19.9992 39.0721 19.7916 38.6052C19.7782 38.5756 19.9913 38.4963 19.9823 38.4695C19.8585 38.1298 19.6105 37.8587 19.4967 37.5134C19.4868 37.4849 19.6947 37.4207 19.6851 37.3715C19.6668 37.2699 19.5977 37.1672 19.4913 37.1139C19.4398 37.0877 19.3094 37.2312 19.2608 37.203C19.1478 37.1387 19.0761 37.0384 19.051 36.9202C19.0407 36.8697 19.2679 36.8312 19.2396 36.7737C19.0538 36.3853 18.8825 35.9891 18.4259 35.7362C18.3947 35.7192 17.9918 35.906 18.0369 35.8103C18.143 35.7479 18.2706 35.6796 18.3855 35.6156C18.1483 35.0243 17.7183 34.5451 17.4029 33.9987C17.3899 33.9761 17.6186 33.9062 17.5946 33.862C17.4508 33.597 17.3744 33.3113 17.0297 33.1545C16.9952 33.1377 16.6355 33.3418 16.6495 33.2331C16.6521 33.2134 16.6401 33.0704 16.7048 33.0002C16.7148 32.99 16.8969 32.9222 16.8829 32.8829C16.7917 32.6424 16.6382 32.4388 16.4232 32.2725C16.3883 32.2461 16.2233 32.3753 16.1968 32.3573C16.0139 32.2353 16.0556 31.9658 15.82 31.8993C15.6628 31.8566 15.3566 32.0413 15.011 32.1227C14.9609 32.1312 14.935 32.0882 14.743 32.1546C14.2576 32.3165 13.7552 32.5707 13.2373 32.7422C13.1275 32.796 13.152 32.4524 12.9393 32.7238C12.9271 32.7534 12.9042 32.9571 12.8215 33.0059C12.7682 33.0511 12.562 33.0939 12.5009 33.1686C12.4397 33.2426 12.6219 33.2269 12.5514 33.314C12.483 33.4087 12.257 33.4809 12.2842 33.6057ZM27.0675 54.465C26.8583 54.4908 27.4956 54.1479 27.3785 54.2982C27.3721 54.3059 27.0779 54.4639 27.0675 54.465ZM31.0358 62.3313C30.708 62.391 31.0938 62.115 31.3455 62.0657C31.5968 62.0163 31.1352 62.3133 31.0358 62.3313ZM31.2725 63.3338C30.9969 63.34 31.9144 62.8802 31.7807 63.0821C31.7734 63.0942 31.2887 63.3339 31.2725 63.3338ZM15.0442 32.4345C15.0349 32.4374 15.0026 32.3912 15.0109 32.3863C15.2064 32.2622 15.2697 32.3524 15.0442 32.4345ZM31.4597 64.3159C31.3206 64.3492 31.4179 64.1879 31.5909 64.147C31.7297 64.1134 31.6325 64.274 31.4597 64.3159ZM24.638 51.4486C24.6279 51.4526 24.6 51.4197 24.6546 51.3925C24.8304 51.3051 24.8079 51.3824 24.638 51.4486ZM32.214 65.8049C32.0688 65.5991 31.2456 65.8495 31.4494 66.0428C31.4863 66.078 31.6453 65.83 31.7408 65.8502C31.9162 65.8899 31.4715 66.1911 31.7782 66.1686C31.8342 66.1641 32.2243 65.8166 32.2148 65.804C32.2145 65.8043 32.2142 65.8046 32.214 65.8049ZM26.2766 54.8276C26.2674 54.8308 26.2321 54.7824 26.2398 54.7767C26.429 54.6425 26.5002 54.7399 26.2766 54.8276ZM23.1131 49.4645C23.0936 49.4711 23.0146 49.3592 23.0293 49.3466C23.331 49.112 23.4916 49.3376 23.1131 49.4645ZM27.6235 58.5625C27.4484 58.7266 27.4596 58.8066 27.74 58.7168C27.6974 58.6684 27.6658 58.6129 27.6235 58.5625Z" fill="#686868"/>
<path d="M34.7698 65.1345C34.9396 64.8487 35.0331 64.4024 35.0649 64.0528C35.0745 63.9452 34.9358 63.95 34.9377 63.8719C34.9439 63.7129 35.0472 63.6166 35.043 63.4588C35.0402 63.4085 34.8298 63.3909 34.8314 63.3395C34.8446 63.0493 34.9837 62.8272 35.0406 62.5549C35.325 61.2018 35.7339 59.92 36.1446 58.592C36.1526 58.5664 36.1603 58.5402 36.1677 58.5134C36.2809 58.0958 36.3203 57.5511 36.5528 57.1617C36.5813 57.1147 36.7359 57.2092 36.7533 57.2049C37.0216 57.1352 36.6666 57.0553 36.6606 56.9384C36.641 56.4671 36.7954 56.0253 37.0086 55.6687C37.0993 55.5183 37.3659 55.8091 37.2444 55.5738C37.2364 55.5576 37.0439 55.5299 37.0425 55.478C37.0395 55.3609 37.1471 55.1787 37.1639 55.0946C37.1943 54.9351 37.2058 54.911 37.2595 54.7681C37.3312 54.5724 37.3368 54.3005 37.4573 54.1111C37.4838 54.0703 37.6413 54.2 37.6999 54.1413C37.7584 54.0826 37.8174 53.8876 37.8001 53.8065C37.7827 53.7256 37.63 53.6971 37.6019 53.6729C37.3649 53.4692 37.8294 53.4053 37.85 53.3805C38.2122 52.931 38.1673 52.4108 38.3592 51.9274C38.5024 51.5682 38.7312 51.1996 38.8572 50.8536C39.0091 50.4347 39.0497 50.048 39.2266 49.6526C39.2451 49.6107 39.4372 49.7449 39.4603 49.694C39.7032 49.1557 39.898 48.6003 39.973 47.9977C39.9804 47.937 39.7661 47.9334 39.7624 47.8683C39.7445 47.4694 39.5882 46.7959 40.4785 46.9194C40.538 46.6796 40.6153 46.3925 40.5339 46.1234C40.4815 45.95 40.2278 45.9961 40.379 45.8696C40.4128 45.841 40.5712 45.9595 40.6086 45.9112C40.7655 45.7083 40.808 45.436 40.991 45.246C41.0286 45.2076 41.1824 45.2842 41.2163 45.2826C41.4922 45.2661 41.1828 44.929 41.1709 44.8782C41.0852 44.4922 41.2562 44.3037 41.3653 44.0189C41.3904 43.953 41.5725 44.1164 41.6044 44.0561C41.7666 43.7423 41.8853 43.396 41.9201 43.0379C41.9273 42.958 41.7192 42.9499 41.7133 42.908C41.6898 42.724 42.0463 42.8297 42.0304 42.656C42.0275 42.6195 41.8651 42.5736 41.8503 42.5611C41.6173 42.366 42.0276 42.4447 42.045 42.4258C42.2737 42.1908 41.9502 41.85 42.1168 41.6008C42.1371 41.5712 42.304 41.7244 42.3491 41.6362C42.6507 41.0492 42.8587 40.3837 42.9476 39.7165C42.9617 39.613 42.7868 39.6195 42.771 39.6062C42.5258 39.3941 42.9322 39.4876 42.959 39.463C43.1604 39.2648 42.9335 38.9078 43.4541 38.9301C43.7143 37.845 44.3853 36.9364 44.3968 35.7588C44.3974 35.744 44.2006 35.6895 44.2026 35.6605C44.2255 35.3072 44.4921 35.4868 44.9326 35.4299C45.0433 35.4155 44.6782 35.0815 44.6524 35.0546C44.5571 34.9563 44.257 34.893 44.2415 34.8668C44.1228 34.654 45.0338 35.0606 45.1129 34.8708C45.1138 34.8643 44.9339 34.8188 44.9237 34.7959C44.8913 34.7245 44.9789 34.7035 44.9406 34.6311C44.8514 34.4647 44.4202 34.2394 44.7504 34.1798C44.793 34.1727 45.302 34.422 45.3468 34.2445C45.3637 34.1748 45.4972 33.8796 45.498 33.7824C45.4988 33.6851 45.3068 33.6721 45.302 33.6631C45.1728 33.3465 45.0452 33.393 44.7625 33.1437C44.481 32.895 45.2506 33.2527 45.3569 33.2437C45.4628 33.235 45.3478 32.9943 45.3012 32.9267C45.2543 32.8594 45.1263 32.8653 45.1053 32.8142C44.9692 32.4766 45.5374 32.8718 45.6944 32.8452C46.0656 32.7835 45.5454 32.3979 45.5587 32.2068C45.5628 32.1542 45.679 32.2473 45.7086 32.2113C45.824 32.0686 45.684 31.8951 45.9267 31.7821C45.9664 31.7634 46.3768 31.7629 46.1609 31.5606C46.1308 31.5327 45.9806 31.5105 45.9665 31.436C45.9659 31.4332 45.9656 31.4303 45.9655 31.4273C45.9608 31.3028 46.0077 31.1036 46.1024 31.014C46.1724 30.9479 46.3709 31.1414 46.3402 31.0082C46.3263 30.949 46.1517 30.974 46.1373 30.8677C46.1227 30.7618 46.2198 30.5497 46.2605 30.4669C46.3007 30.3858 46.4617 30.5078 46.4767 30.5062C46.5636 30.495 46.7179 30.3734 46.7235 30.3595C47.0439 29.6666 47.0199 28.884 47.4153 28.2434C47.4463 28.1927 47.6204 28.3106 47.627 28.3037C47.7861 28.1537 47.2192 28.0811 47.106 27.8797C47.4827 28.0646 47.4459 27.9586 47.5436 27.8486C47.5909 27.7958 47.7253 27.894 47.743 27.8949C48.0084 27.9023 47.7455 27.7084 47.6928 27.6662C47.4998 27.509 47.7886 27.5547 47.6599 27.4491C47.5322 27.344 47.2743 27.3462 47.3311 27.223C47.4839 27.248 47.8034 27.4964 47.9026 27.4276C48.2756 27.1722 48.2847 26.3837 48.3817 26.084C48.4766 25.7892 48.5436 25.7059 48.5674 25.5179C48.6101 25.1789 48.8269 25.4078 49.031 25.2761C49.2362 25.1418 48.5413 24.9431 48.4127 24.8535C48.2839 24.7646 48.4414 24.8 48.3787 24.7328C48.316 24.6657 48.1889 24.6941 48.1941 24.6042C48.1995 24.514 48.5421 24.4172 48.701 24.4561C49.0383 24.5367 49.3225 24.7775 49.299 24.5218C49.2974 24.507 49.1086 24.4684 49.1113 24.4157C49.1369 24.0028 49.2946 23.6295 49.3373 23.2233C49.3432 23.1669 49.1325 23.1246 49.1337 23.0908C49.1454 22.7397 49.4193 22.991 49.849 22.9928C49.3571 22.8138 49.1068 22.5922 49.2064 22.3656C49.2657 22.2301 49.4626 22.3477 49.6481 22.328C49.7039 22.3224 49.6044 22.1631 49.7102 22.1895C50.0551 22.2777 50.3712 22.5298 50.3345 22.2342C50.3323 22.221 50.1432 22.1734 50.1485 22.1337C50.182 21.8776 50.5275 22.0033 50.6801 21.7773C50.798 21.6037 50.7533 21.1667 50.8192 20.9377C50.2846 20.6958 50.5025 20.5447 50.9077 20.6327C50.9569 20.4873 51.0498 20.3418 51.0622 20.1828C51.0666 20.1281 50.8984 20.087 50.8845 20.0734C50.6656 19.8613 51.0499 19.9685 51.0786 19.9436C51.3693 19.6755 51.2244 19.2819 51.6355 19.093C51.6503 19.0862 52.0277 19.2415 51.798 19.0307C51.782 19.0165 51.5654 19.0411 51.622 18.8874C51.6773 18.7363 51.6128 18.3614 51.8798 18.2389C51.9447 18.2082 52.3033 18.2243 52.1169 18.0141C52.0914 17.9858 51.979 17.9502 51.9293 17.9032C51.7712 17.7528 52.1604 17.8936 51.8793 17.6698C51.5985 17.4453 51.4333 17.1822 51.7507 17.0776C51.7601 17.074 52.0782 17.1656 52.1041 17.0992C52.1454 16.9928 52.1555 16.8138 52.2082 16.7083C52.2336 16.6576 52.401 16.7777 52.4086 16.7704C52.6785 16.4687 52.6321 16.1466 52.7402 15.7381C52.759 15.6644 53.1034 15.5847 52.9686 15.3594C52.8303 15.1243 51.9589 14.862 52.1741 14.6406C52.1871 14.6271 52.2038 14.6138 52.2248 14.6006C52.3745 14.5065 53.5972 14.8756 53.1196 14.3549C53.489 13.952 53.3894 13.3755 53.8184 13.0002C53.8377 12.983 54.1889 13.0634 54.2076 13.0114C54.2346 12.9345 54.1042 12.8239 54.1189 12.7661C54.1757 12.5244 54.3985 12.3765 54.4759 12.1535C54.5061 12.0679 54.3381 12.026 54.3736 11.9249C54.4086 11.8251 54.6434 11.8502 54.6037 11.6748C54.5741 11.5397 54.2 11.2539 54.2106 11.0992C54.6256 11.279 54.6579 11.1844 54.839 11.071C54.8739 11.0494 55.003 11.1466 55.0269 11.1397C55.1275 11.1131 55.0334 11.0035 55.1393 10.9825C55.1648 10.9773 55.3063 11.0391 55.3351 11.0383C55.5861 11.0334 55.3382 10.7341 55.295 10.6822C55.1309 10.4844 55.3358 10.5173 55.2883 10.3999C55.2405 10.2834 55.0845 10.3581 55.0751 10.2426C55.0556 10.0032 55.1861 9.76418 55.2642 9.56375C55.2962 9.48421 55.4627 9.61909 55.4717 9.6096C55.5898 9.46652 55.4579 9.21615 55.8745 9.28535C54.9446 8.75831 56.0112 9.22682 55.9139 8.90982C55.9058 8.88464 55.4527 8.66704 55.3551 8.70899C55.2577 8.75077 55.3572 8.91884 55.21 8.97167C55.1754 8.9845 54.6862 8.93292 54.6524 8.93958C54.3875 8.99331 55.0692 9.30725 55.1038 9.33106C55.4765 9.59092 54.9412 9.55306 54.8907 9.58173C54.66 9.71207 54.6849 9.91969 54.5095 10.0353C54.3951 10.1122 53.9406 9.92486 53.9182 10.0136C53.8433 10.3077 54.4268 10.6833 53.7685 10.7004C53.6279 10.7043 53.1618 10.4308 53.459 10.8008C53.4777 10.8243 53.7641 11.1298 53.5027 11.115C53.4698 11.1131 53.3272 11.0485 53.3088 11.0572C53.1885 11.117 53.2743 11.2301 53.1728 11.3094C53.0724 11.3862 52.9344 11.4746 52.9296 11.6127C52.9261 11.6968 53.1498 11.909 53.1993 11.9724C53.3424 12.1538 52.9885 12.1162 53.1877 12.2791C53.3874 12.4438 53.7871 12.4851 53.861 12.7111C53.489 12.5466 53.1037 12.3851 52.728 12.2231C52.5827 12.572 52.5449 12.9648 52.3675 13.3009C52.3449 13.3428 52.1674 13.2063 52.1385 13.248C52.0172 13.4247 52.0791 13.6593 51.9281 13.8336C51.8115 13.966 51.5216 14.0372 51.3923 14.1736C51.4692 14.2351 51.5193 14.2915 51.5499 14.3439C51.6698 14.5421 51.4988 14.6858 51.4643 14.8366C51.4484 14.904 51.5625 14.9535 51.5783 15.0146C51.6345 15.2451 51.3007 14.9895 51.2208 15.0067C50.8803 15.0788 51.7106 15.5003 51.5822 15.7159C51.5757 15.7273 51.0569 15.6621 51.0192 15.6695C50.7763 15.7105 51.165 15.7649 51.1597 15.861C51.1499 16.037 51.207 16.1924 50.9937 16.3021C50.9309 16.3337 50.5926 16.3246 50.7626 16.5239C50.7847 16.5503 50.9362 16.6137 50.9399 16.6282C50.9951 16.8846 50.526 16.6711 50.3179 16.7023C50.1096 16.7338 50.3511 17.0546 50.4273 17.1331C50.6246 17.3358 50.5622 17.1132 50.5881 17.1193C50.8952 17.1948 50.7876 17.297 50.7684 17.3986C51.2186 17.6284 51.1299 17.7447 50.7457 17.505C50.7038 17.4786 50.7805 17.4269 50.7684 17.3986C50.2825 17.266 50.1561 17.3844 50.5006 17.7394C50.6621 17.9058 50.9243 17.9435 50.7343 18.1288C50.6482 18.2131 50.3514 18.0268 50.2239 18.0747C49.932 18.186 50.0994 18.5926 49.9536 18.783C49.9004 18.8528 49.7634 18.6962 49.7211 18.7413C49.6084 18.8598 49.6815 19.0408 49.5488 19.1519C49.5366 19.1619 49.3706 19.0461 49.3477 19.0891C49.1726 19.4095 49.1547 19.7509 48.9963 20.1017C48.9221 20.2659 48.6811 20.526 48.6233 20.7048C48.5183 21.0221 48.6136 21.5109 48.4316 21.7409C48.3149 21.8884 48.1499 21.7697 47.9935 21.7852C47.6904 21.8158 48.0079 22.258 48.0602 22.3199C48.062 22.3217 48.1695 22.1981 48.2282 22.3166C48.4025 22.4489 48.0617 22.3186 48.0602 22.3199C48.0936 22.3603 48.0041 22.6683 47.9429 22.7114C47.9097 22.7345 47.7454 22.6392 47.7313 22.6527C47.4047 22.966 47.1867 23.3348 47.0908 23.7671C47.0913 23.7754 47.2889 23.8512 47.2875 23.8698C47.2733 24.1326 46.9722 24.1737 46.7474 24.3019C46.525 24.4251 46.5061 24.5951 46.7886 24.8535C46.683 24.9794 46.7417 25.2442 46.7794 25.4004C46.8171 25.5563 46.4331 25.4076 46.4212 25.4146C46.0391 25.6374 46.1778 25.9078 46.0634 26.2619C46.0114 26.4264 45.8207 26.7154 45.7037 26.8723C45.6109 26.9953 45.6654 27.1122 45.5546 27.2131C45.5397 27.2267 45.379 27.137 45.3703 27.1393C45.1087 27.1921 45.5488 27.3026 45.6097 27.3632C45.8315 27.5831 45.9452 27.7105 45.7423 27.8356C45.6961 27.8639 45.0526 27.7281 44.9856 27.7885C44.8996 27.8674 45.1278 27.9216 45.0322 28.0023C45.0242 28.0093 44.894 27.9512 44.8725 28.0173C44.7688 28.3283 44.7124 28.671 44.5664 28.9772C44.5471 29.0189 44.362 28.8765 44.331 28.9346C44.1878 29.2023 44.0611 29.5221 44.0425 29.8377C44.0386 29.9155 44.2023 29.935 44.2394 29.9679C44.4634 30.1684 44.0286 30.1356 44.0123 30.1539C43.9057 30.269 43.8405 30.3928 43.7946 30.5211C43.6742 30.8595 43.6937 31.239 43.4173 31.5617C43.3961 31.5853 42.8971 31.6298 43.2071 31.8734C43.2277 31.8898 43.5464 32.1354 43.2656 32.1179C43.248 32.1168 43.0884 31.9796 43.0635 32.0921C43.0388 32.2041 42.8467 32.3173 42.9902 32.5446C43.0353 32.6164 43.3488 32.8721 43.0071 32.8885C42.9836 32.8887 42.2508 32.8303 42.6659 33.0882C42.7342 33.1307 43.2107 33.314 42.9025 33.3735C42.843 33.3846 42.761 33.2854 42.6618 33.3388C42.5092 33.4204 42.5672 33.6372 42.2935 33.7035C42.2452 33.715 41.8781 33.6957 42.0837 33.8864C42.1159 33.9163 42.2845 33.9547 42.2823 34.0097C42.2728 34.2715 42.0686 34.4669 42.0812 34.745C42.0857 34.8425 42.3576 34.9059 42.3907 35.0191C42.4238 35.1323 42.4185 35.331 42.2652 35.3725C42.1119 35.4139 41.7464 35.1487 41.6586 35.2695C41.2768 35.795 41.2774 36.4707 41.0739 37.066C41.0437 37.1546 40.9277 37.0233 40.8727 37.1497C40.6694 37.6145 40.2017 38.3693 40.3448 38.9024C40.4592 39.3299 40.8153 38.9958 40.8143 39.2864C40.8132 39.4265 40.2875 39.3641 40.2608 39.387C39.9942 39.6088 40.1233 39.8914 39.9551 40.1209C39.9203 40.1683 39.7497 40.0386 39.7222 40.0798C39.6266 40.2197 39.6467 40.4155 39.5715 40.5558C39.5373 40.6185 39.3959 40.547 39.3826 40.6121C39.3491 40.7672 39.3587 40.9202 39.4387 41.1171C39.446 41.135 39.6633 41.1221 39.6266 41.232C39.5667 41.4097 39.6149 41.6797 39.3944 41.8226C39.3283 41.8647 38.9927 41.7315 39.1724 41.9523C39.2098 41.9986 39.6256 42.127 39.2183 42.1348C39.1505 42.1364 38.5812 42.1963 38.8338 42.4406C38.9002 42.505 39.1959 42.7202 39.1155 42.7704C39.1034 42.7768 38.9391 42.6655 38.8978 42.7173C38.7552 42.9012 38.6862 43.1274 38.5437 43.3185C38.5053 43.3694 38.3534 43.2093 38.3021 43.2875C38.1606 43.5026 38.0907 43.8129 38.0566 44.066C38.0444 44.1592 38.2222 44.1629 38.2365 44.1758C38.4697 44.3845 38.0778 44.2945 38.0431 44.3186C37.8323 44.4709 37.9438 44.6939 37.822 44.8645C37.789 44.9116 37.628 44.8041 37.6082 44.8082C37.412 44.854 37.7597 44.9009 37.7672 44.9827C37.7894 45.2124 37.6904 45.4181 37.5913 45.6003C37.5546 45.6671 37.3824 45.5065 37.3519 45.5674C37.1655 45.9305 37.0306 46.3238 36.9959 46.7368C36.9898 46.8144 37.1642 46.8338 37.1943 46.8625C37.4056 47.062 37.0054 47.0701 36.9595 47.0903C36.7501 47.1823 36.8656 47.2964 36.7865 47.4192C36.3946 48.0259 36.1666 48.8664 35.977 49.5098C35.732 50.3403 35.631 51.0326 35.2907 51.7812C35.2689 51.8297 35.0793 51.6973 35.0578 51.7381C34.7916 52.2651 34.6631 52.8319 34.3887 53.3533C34.3664 53.3967 34.1934 53.2537 34.1509 53.3207C34.0624 53.4576 34.0002 53.6481 34.0061 53.8198C34.0086 53.9034 34.2166 53.8741 34.2157 53.9568C34.2117 54.1553 34.1539 54.3448 34.0542 54.506C34.0114 54.5744 33.8517 54.3837 33.8119 54.4787C33.5317 55.1371 33.2491 55.7603 33.2511 56.5391C33.2514 56.5919 33.6508 56.7884 33.5333 56.8568C33.4156 56.8201 33.2807 56.7676 33.1568 56.7236C33.0712 56.9076 32.9954 57.0897 32.9271 57.2688C32.6308 58.0449 32.4318 58.8554 32.1508 59.6459C32.136 59.6873 31.9436 59.5328 31.914 59.6122C31.7436 60.0685 31.5147 60.4873 31.555 61.0399C31.5589 61.094 31.9556 61.2133 31.8437 61.3324C31.8229 61.3551 31.6958 61.5354 31.5908 61.5594C31.5754 61.5621 31.4095 61.4553 31.3785 61.5216C31.2057 61.8963 31.0933 62.3206 31.0593 62.7497C31.0546 62.818 31.2714 62.8243 31.2698 62.8732C31.2556 63.2244 30.9803 63.519 31.0438 63.8955C31.0862 64.1512 31.4489 64.1909 31.7404 64.4168C31.7809 64.45 31.7425 64.5893 31.9341 64.6595C32.417 64.828 32.9671 64.9461 33.4788 65.1352C33.5349 65.1518 33.5194 65.1951 33.5437 65.178C33.5538 65.1797 33.5908 65.0843 33.6258 65.0302C33.6638 64.9888 33.6715 65.2178 33.7357 65.2329C33.7425 65.276 33.8589 65.2192 33.9601 65.2218C34.0288 65.2264 34.2141 65.3236 34.3067 65.3162C34.3992 65.3087 34.249 65.2127 34.3671 65.1788C34.4844 65.1511 34.6975 65.2535 34.7698 65.1345ZM46.9466 26.102C47.0806 26.2887 46.4106 26.0148 46.6202 25.9676C46.6311 25.9656 46.9402 26.0925 46.9466 26.102ZM53.0404 13.1929C53.2636 13.4691 52.7954 13.3625 52.6174 13.1613C52.4398 12.9598 52.9726 13.1093 53.0404 13.1929ZM53.9181 11.8457C54.0725 12.1139 53.1276 11.7129 53.3956 11.6251C53.4109 11.6197 53.9092 11.8301 53.9181 11.8457ZM32.0149 63.9432C32.0242 63.9456 31.9986 64.0437 31.9893 64.0415C31.7554 64.0123 31.8048 63.8217 32.0149 63.9432ZM54.7949 10.5077C54.8997 10.6143 54.6876 10.6979 54.558 10.5643C54.4536 10.4569 54.6649 10.3745 54.7949 10.5077ZM45.235 32.0656C45.244 32.0718 45.2269 32.1377 45.1712 32.1129C44.9919 32.0329 45.0797 31.9669 45.235 32.0656ZM55.8589 8.03915C55.7428 8.42052 56.4314 8.97063 56.5103 8.53218C56.5245 8.45286 56.1956 8.58513 56.1635 8.46332C56.1051 8.24108 56.6433 8.33232 56.451 8.05044C56.4156 7.99946 55.8637 8.01689 55.8575 8.03936C55.858 8.03929 55.8584 8.03922 55.8589 8.03915ZM47.7158 26.5122C47.7236 26.5181 47.6941 26.6082 47.6845 26.6065C47.4535 26.5614 47.5129 26.3797 47.7158 26.5122ZM44.1178 35.916C44.1347 35.9285 44.0687 36.1384 44.0485 36.1379C43.6577 36.1004 43.7902 35.6754 44.1178 35.916ZM50.8066 20.9277C51.0602 20.9299 51.1367 20.8295 50.9078 20.6333C50.8789 20.7322 50.8375 20.827 50.8066 20.9277Z" fill="#686868"/>
<path d="M54.4629 6.07187C54.1613 6.11297 53.833 6.30904 53.6032 6.49732C53.5311 6.55603 53.6196 6.65922 53.5718 6.70524C53.5072 6.76785 53.4268 6.77747 53.3533 6.81181C53.3133 6.82987 53.2749 6.85269 53.2402 6.88625C53.2025 6.92386 53.3364 7.08822 53.296 7.12305C53.08 7.31078 52.8408 7.36698 52.6343 7.51965C51.638 8.27096 50.7873 8.93263 49.9148 9.63668C49.6288 9.86898 49.3716 10.2735 49.0194 10.424C48.9782 10.4414 48.8965 10.2808 48.8812 10.2736C48.6448 10.1653 48.8882 10.434 48.8464 10.5223C48.6802 10.8718 48.3862 11.1028 48.0837 11.2361C47.9546 11.2924 47.8595 10.9243 47.8631 11.1668C47.8632 11.1833 48.0022 11.3165 47.9835 11.3549C47.9411 11.4415 47.7894 11.5093 47.7449 11.5601C47.6593 11.6589 47.6408 11.6699 47.5445 11.7423C47.4845 11.7884 47.4302 11.8538 47.3725 11.9178C47.3023 11.9947 47.2304 12.0681 47.138 12.1073C47.1015 12.1221 47.0272 11.9357 46.9585 11.9453C46.8891 11.9554 46.7699 12.064 46.7539 12.1329C46.7381 12.2015 46.8473 12.3105 46.8605 12.3443C46.9732 12.6282 46.5835 12.408 46.5591 12.4134C46.1169 12.5259 45.9705 12.9164 45.6455 13.1354C45.4 13.3002 45.092 13.4087 44.8564 13.5706C44.5791 13.7622 44.3846 14.0059 44.0919 14.1629C44.0612 14.1796 43.9776 13.9633 43.9399 13.9833C43.9055 14.0015 43.871 14.0203 43.8361 14.0396C43.4736 14.2405 43.1284 14.4842 42.8406 14.8177C42.8091 14.8545 42.9618 14.997 42.9364 15.0441C42.7778 15.3291 42.5903 15.8974 42.0062 15.2282C41.8583 15.3541 41.676 15.5011 41.6163 15.7392C41.5775 15.8927 41.7799 16.0275 41.6161 16.0149C41.5793 16.0123 41.5176 15.8271 41.4697 15.8356C41.2673 15.8722 41.1161 16.0316 40.9015 16.0416C40.8576 16.0433 40.7811 15.8897 40.7561 15.8685C40.551 15.6985 40.6244 16.1329 40.6103 16.1758C40.5007 16.4973 40.2946 16.5144 40.091 16.6377C40.0438 16.6664 39.9858 16.4344 39.9362 16.4549C39.6806 16.5637 39.4424 16.7231 39.259 16.9457C39.2184 16.9958 39.3638 17.1384 39.3493 17.171C39.2839 17.3131 39.0761 17.0055 39.0106 17.1351C38.9964 17.1621 39.0922 17.3005 39.0973 17.3189C39.1769 17.6065 38.9185 17.2821 38.8978 17.2835C38.6302 17.2939 38.7092 17.7413 38.4803 17.802C38.4527 17.8088 38.4016 17.5936 38.33 17.6245C37.8524 17.829 37.4096 18.1471 37.0481 18.5462C36.9924 18.6076 37.1197 18.7189 37.1251 18.7384C37.2071 19.0448 36.9566 18.7136 36.9269 18.7126C36.8827 18.7132 36.8475 18.7276 36.8172 18.748C36.6815 18.8386 36.63 19.041 36.3376 18.7497C35.6695 19.322 34.7864 19.487 34.2439 20.2993C34.2369 20.3092 34.3542 20.4756 34.3398 20.4945C34.1668 20.7242 34.056 20.4249 33.7114 20.1787C33.6278 20.1199 33.7328 20.5479 33.7467 20.6157C33.7473 20.6187 33.7478 20.6209 33.7481 20.6224C33.7747 20.7522 33.9638 20.9912 33.9638 21.0193C33.9576 21.2438 33.4736 20.3716 33.3333 20.4529C33.3299 20.4569 33.4403 20.6049 33.438 20.6274C33.4313 20.6976 33.3579 20.656 33.3542 20.7314C33.3477 20.9046 33.5639 21.3395 33.2972 21.169C33.2625 21.147 33.0013 20.6443 32.8902 20.7406C32.8468 20.779 32.6233 20.8998 32.5807 20.9676C32.5387 21.0351 32.6733 21.1672 32.673 21.1766C32.6307 21.4819 32.7454 21.53 32.8455 21.8857C32.9447 22.2403 32.5344 21.4978 32.4525 21.4364C32.371 21.3751 32.3521 21.6179 32.3585 21.6946C32.3646 21.7716 32.4607 21.8491 32.4546 21.8983C32.4121 22.2217 32.1624 21.5827 32.0359 21.5015C31.7361 21.3097 31.9552 21.9117 31.8642 22.0386C31.8393 22.073 31.7927 21.9339 31.7558 21.9404C31.6122 21.9674 31.6429 22.1781 31.4159 22.1054C31.3784 22.0939 31.0749 21.8358 31.1484 22.1159C31.1594 22.1561 31.2688 22.2729 31.2374 22.3332C31.1903 22.4235 31.0739 22.5348 30.9662 22.5393C30.8866 22.5427 30.8194 22.281 30.7871 22.3949C30.7728 22.4457 30.913 22.5369 30.8795 22.6216C30.8462 22.7062 30.6852 22.7974 30.6221 22.8303C30.5595 22.8626 30.4894 22.6758 30.4776 22.6675C30.4087 22.6212 30.2437 22.6122 30.2335 22.6188C29.7069 22.9169 29.4117 23.4924 28.8585 23.7167C28.8152 23.7346 28.7296 23.5441 28.7219 23.545C28.542 23.5575 28.9433 23.9526 28.9501 24.1666C28.8173 23.9417 28.762 23.8952 28.7105 23.8973C28.6792 23.8987 28.6495 23.9178 28.6048 23.926C28.5476 23.9361 28.4841 23.784 28.471 23.7726C28.2704 23.6087 28.3966 23.9063 28.42 23.9687C28.5061 24.1984 28.3041 23.992 28.3613 24.1458C28.4179 24.2986 28.6151 24.4515 28.5244 24.5068C28.4175 24.3973 28.2702 24.0254 28.1677 24.0163C27.7796 23.9816 27.4714 24.5525 27.2851 24.7143C27.0986 24.876 27.0176 24.8966 26.9289 25.0206C26.7688 25.2447 26.6864 24.9502 26.4795 24.9279C26.2723 24.9058 26.7338 25.4585 26.7999 25.5994C26.8663 25.7399 26.758 25.6218 26.7815 25.7077C26.805 25.7936 26.9135 25.8471 26.8762 25.91C26.8391 25.9729 26.5373 25.8451 26.4287 25.7241C26.1987 25.4678 26.0679 25.125 25.9924 25.3264C25.9882 25.3382 26.1197 25.4767 26.0982 25.5139C25.9247 25.8036 25.6662 25.9865 25.4834 26.2616C25.4585 26.2997 25.6054 26.4534 25.5922 26.4776C25.4544 26.7297 25.3351 26.3852 25.0027 26.1348C25.3169 26.5528 25.4288 26.8617 25.2695 26.9706C25.1735 27.0364 25.0649 26.8349 24.914 26.742C24.8686 26.7139 24.8861 26.8898 24.8147 26.8084C24.5813 26.5425 24.4302 26.1724 24.3506 26.4116C24.3474 26.4226 24.4758 26.5677 24.457 26.5939C24.3364 26.7639 24.1159 26.4702 23.9167 26.5472C23.7604 26.6076 23.6374 26.9538 23.4998 27.0856C23.8212 27.5766 23.5986 27.56 23.3202 27.2579C23.2267 27.3375 23.1045 27.3884 23.0352 27.4987C23.0114 27.5364 23.1249 27.6656 23.1304 27.6838C23.219 27.9688 22.9632 27.6648 22.9329 27.6658C22.8088 27.6758 22.7283 27.7371 22.6523 27.8038C22.5326 27.9091 22.4266 28.0265 22.1908 27.9624C22.177 27.9586 21.9488 27.6205 22.0444 27.9115C22.0512 27.9314 22.2251 28.0418 22.1243 28.1211C22.0234 28.2006 21.9331 28.5131 21.6831 28.4448C21.6226 28.4286 21.3577 28.2028 21.4182 28.4687C21.4266 28.5047 21.4984 28.5979 21.5179 28.6621C21.5796 28.8673 21.3399 28.5309 21.4676 28.863C21.5952 29.195 21.6171 29.4885 21.3384 29.3749C21.3298 29.3719 21.1245 29.1145 21.0789 29.148C21.0063 29.2019 20.9321 29.326 20.8503 29.3727C20.8112 29.3949 20.7314 29.2062 20.7228 29.2071C20.4053 29.2653 20.3138 29.5305 20.0753 29.7636C20.0313 29.8069 19.7443 29.6557 19.7564 29.9026C19.7696 30.1728 20.3885 30.9633 20.0165 30.9076C19.8669 30.8857 19.0987 29.8726 19.2487 30.5432C18.8147 30.61 18.6575 31.0895 18.1866 31.0955C18.1654 31.096 17.9379 30.8205 17.9034 30.8461C17.8519 30.885 17.9035 31.0456 17.8695 31.0779C17.728 31.2174 17.506 31.1832 17.356 31.2954C17.2992 31.3375 17.4069 31.4719 17.3379 31.5228C17.27 31.573 17.109 31.407 17.0654 31.5575C17.0321 31.6721 17.1889 32.1111 17.116 32.2151C17.0024 32.0232 16.9294 31.9374 16.8639 31.8953C16.7945 31.8532 16.7339 31.8566 16.6428 31.8395C16.6076 31.8331 16.5539 31.6823 16.5332 31.6723C16.4467 31.6286 16.4738 31.7637 16.3854 31.713C16.3644 31.7006 16.2863 31.5674 16.2648 31.5497C16.0806 31.3937 16.136 31.7634 16.146 31.8275C16.1857 32.0702 16.0472 31.9185 16.0331 32.0314C16.0194 32.1441 16.1646 32.1903 16.1236 32.2778C16.0375 32.4594 15.8408 32.5456 15.6993 32.637C15.6421 32.6728 15.5773 32.4718 15.5667 32.4728C15.4205 32.4981 15.4098 32.7591 15.1359 32.4437C15.5326 33.2871 15.1373 32.6224 14.9951 32.6251C14.9744 32.6256 14.9585 32.6399 14.9496 32.6749C14.9451 32.6967 15.1593 33.1517 15.2524 33.1854C15.2717 33.1923 15.2875 33.1898 15.3017 33.1819C15.3566 33.1515 15.3825 33.0444 15.4865 33.0891C15.5176 33.1022 15.8551 33.4495 15.8829 33.4662C16.0996 33.597 15.7342 32.9415 15.7187 32.9028C15.5552 32.4829 15.931 32.85 15.9803 32.8617C16.2049 32.9161 16.2729 32.7541 16.4508 32.783C16.5683 32.8001 16.821 33.2217 16.8761 33.1722C17.0546 33.0108 16.7831 32.3756 17.2746 32.7778C17.3562 32.8442 17.5113 33.1536 17.5487 33.0771C17.5587 33.0555 17.5587 33.0018 17.5447 32.9005C17.5413 32.8716 17.4569 32.474 17.6446 32.6478C17.6682 32.6697 17.7466 32.8052 17.7635 32.8106C17.8754 32.8441 17.8632 32.7071 17.9689 32.715C18.077 32.7214 18.2135 32.7453 18.2765 32.6474C18.3131 32.5895 18.2358 32.2972 18.226 32.2203C18.1935 32.0014 18.4418 32.2472 18.3608 32.0062C18.2798 31.7637 18.0013 31.4858 18.0378 31.2776C18.2464 31.6268 18.4661 31.982 18.6786 32.3316C18.9308 32.1686 19.1197 31.9064 19.3886 31.77C19.422 31.7535 19.4996 31.9615 19.5382 31.9487C19.7013 31.8936 19.7502 31.6842 19.9326 31.6492C20.0745 31.6225 20.32 31.7467 20.4724 31.7245C20.3105 31.2797 20.572 31.3087 20.6825 31.1937C20.721 31.1538 20.6545 31.0487 20.6666 30.9944C20.7138 30.792 20.8658 31.18 20.9329 31.2154C21.2195 31.3664 20.7566 30.5586 20.9388 30.4767C20.9482 30.4722 21.3141 30.8316 21.3451 30.849C21.5457 30.9638 21.2724 30.6912 21.3143 30.6234C21.3911 30.4993 21.4065 30.3518 21.6117 30.3979C21.6718 30.412 21.9226 30.622 21.8726 30.3726C21.8661 30.3399 21.7759 30.2028 21.7787 30.1899C21.8366 29.9677 22.1073 30.4062 22.2788 30.5063C22.4502 30.6064 22.3901 30.2265 22.3619 30.1235C22.29 29.8567 22.2522 30.0577 22.235 30.0376C22.0318 29.7987 22.1501 29.7891 22.2056 29.7246C21.9523 29.2872 22.0643 29.2542 22.2642 29.6594C22.2858 29.7037 22.2075 29.6964 22.2056 29.7246C22.5246 30.1107 22.6651 30.0992 22.54 29.6323C22.4811 29.4136 22.2967 29.2299 22.5115 29.2063C22.6088 29.1954 22.7624 29.5094 22.8791 29.5489C23.146 29.6383 23.1727 29.2394 23.3568 29.1844C23.4236 29.1644 23.4692 29.3606 23.5185 29.3524C23.5518 29.3471 23.5777 29.3315 23.6 29.3111C23.6657 29.2515 23.7009 29.1519 23.8072 29.1493C23.8203 29.1491 23.9038 29.3322 23.9376 29.3138C24.1946 29.1785 24.3387 28.9349 24.5902 28.7687C24.7116 28.6887 24.9904 28.6391 25.1044 28.5384C25.3035 28.3646 25.4126 27.9464 25.6367 27.883C25.7825 27.841 25.8656 28.025 25.9924 28.1041C26.2379 28.2577 26.1547 27.747 26.1379 27.6705C26.1373 27.668 26.0076 27.6975 26.0065 27.5755C25.9209 27.3764 26.1362 27.6705 26.1379 27.6705C26.1274 27.6209 26.3096 27.4458 26.3718 27.4502C26.4056 27.4527 26.4976 27.6184 26.5133 27.6167C26.8837 27.5737 27.1869 27.4294 27.4168 27.1701C27.4196 27.1636 27.2951 26.9927 27.3031 26.9797C27.4126 26.7939 27.6592 26.9403 27.877 26.9797C28.0948 27.019 28.1713 26.9065 28.0492 26.5521C28.1746 26.5237 28.2295 26.2949 28.2585 26.1591C28.2875 26.0232 28.5258 26.3589 28.5375 26.3609C28.9072 26.4288 28.9081 26.1463 29.1229 25.9621C29.2246 25.8738 29.4783 25.78 29.6235 25.7398C29.7161 25.7147 29.7375 25.6334 29.8057 25.6C29.8222 25.5919 29.8415 25.5867 29.8652 25.5858C29.8816 25.585 29.9685 25.7469 29.976 25.7505C30.1924 25.872 29.9035 25.5253 29.8806 25.445C29.7973 25.153 29.76 24.9929 29.9602 25.0275C30.0065 25.0352 30.4375 25.5251 30.5105 25.5235C30.6051 25.5201 30.4554 25.3414 30.5577 25.3429C30.5663 25.3429 30.6413 25.4641 30.6825 25.4307C30.8751 25.2766 31.0578 25.0641 31.2822 24.9411C31.3125 24.9239 31.3942 25.1395 31.4399 25.1178C31.6545 25.0157 31.8702 24.8725 32.0109 24.6618C32.0454 24.6092 31.9321 24.493 31.918 24.4464C31.8339 24.1642 32.1412 24.4607 32.1606 24.458C32.6241 24.4072 32.7067 23.9196 33.168 23.8498C33.1938 23.8465 33.5763 24.1337 33.4497 23.7666C33.4409 23.7424 33.3107 23.3672 33.5073 23.5594C33.5195 23.5715 33.5799 23.7685 33.6432 23.707C33.7077 23.6448 33.8958 23.6884 33.8851 23.439C33.8827 23.3598 33.7607 22.9812 34.0159 23.1895C34.0332 23.2043 34.5383 23.7178 34.3456 23.2716C34.3135 23.1984 34.047 22.763 34.2946 22.921C34.3423 22.9518 34.3595 23.0737 34.4542 23.1005C34.599 23.1426 34.6475 22.9558 34.8717 23.0883C34.9107 23.112 35.1658 23.3644 35.0992 23.099C35.0887 23.0575 34.9839 22.9213 35.0086 22.8849C35.0182 22.8707 35.0284 22.8577 35.039 22.8457C35.163 22.7096 35.3618 22.6956 35.4588 22.5158C35.497 22.4464 35.33 22.2245 35.3552 22.1253C35.3794 22.0267 35.4683 21.895 35.5943 21.9688C35.7199 22.0428 35.8645 22.4649 35.9772 22.4422C36.4661 22.3444 36.7804 21.8782 37.1943 21.6039C37.257 21.5625 37.2798 21.7297 37.3754 21.6797C37.603 21.5612 37.9542 21.4354 38.2202 21.2382C38.369 21.1272 38.4926 20.9911 38.5418 20.8235C38.6517 20.4542 38.2468 20.4493 38.3787 20.2497C38.4417 20.1545 38.7888 20.5445 38.8189 20.5459C39.1077 20.5699 39.1433 20.2897 39.3652 20.2435C39.4111 20.2339 39.4752 20.4355 39.5133 20.4253C39.6456 20.3913 39.7165 20.2448 39.8344 20.1971C39.8864 20.1768 39.9557 20.3191 39.9942 20.2832C40.0876 20.1985 40.1489 20.0871 40.1795 19.8991C40.1823 19.882 40.0209 19.7478 40.0964 19.6963C40.2185 19.6137 40.3049 19.3961 40.526 19.4435C40.592 19.458 40.7734 19.7703 40.7431 19.5003C40.7368 19.4438 40.4963 19.0819 40.7914 19.3447C40.8407 19.3882 41.2752 19.7216 41.2032 19.3874C41.1842 19.2994 41.0684 18.9568 41.1483 18.9753C41.1598 18.9789 41.228 19.1634 41.2807 19.155C41.4652 19.122 41.615 19.012 41.8025 18.9742C41.8527 18.9644 41.8904 19.1743 41.9621 19.1542C42.1595 19.0991 42.3485 18.931 42.4854 18.7793C42.5355 18.723 42.4095 18.6039 42.4049 18.5856C42.33 18.289 42.5717 18.6081 42.6075 18.6141C42.8268 18.6474 42.8472 18.4198 43.0098 18.3825C43.0544 18.3718 43.1226 18.5512 43.1387 18.5614C43.3 18.6585 43.0706 18.3984 43.1016 18.337C43.1879 18.1641 43.351 18.0867 43.5036 18.0256C43.5598 18.0034 43.6125 18.227 43.6618 18.2048C43.9561 18.0768 44.2323 17.8904 44.4396 17.6275C44.4783 17.5777 44.3606 17.4508 44.3514 17.4114C44.2853 17.1366 44.5811 17.3899 44.6231 17.4058C44.8149 17.4785 44.7842 17.3228 44.8961 17.2888C45.1343 17.2165 45.3702 17.0938 45.5966 16.9494C45.8999 16.7562 46.1828 16.5264 46.427 16.3314C46.9856 15.8858 47.3723 15.4368 47.9575 15.0668C47.9947 15.043 48.0903 15.2515 48.1241 15.2332C48.5459 14.9936 48.8439 14.6634 49.2178 14.4629C49.2272 14.4577 49.2366 14.4527 49.246 14.4477C49.2793 14.4296 49.3607 14.6341 49.4183 14.6109C49.5373 14.5648 49.6568 14.4639 49.7176 14.3359C49.7474 14.2738 49.5743 14.1731 49.6065 14.1137C49.6818 13.9746 49.7958 13.8735 49.9343 13.8158C49.9934 13.7918 50.0451 14.0233 50.1118 13.9784C50.5691 13.6758 51.0244 13.3966 51.3087 12.8531C51.3278 12.816 51.1015 12.4333 51.2157 12.4574C51.2909 12.555 51.3733 12.6739 51.4506 12.7804C52.1331 12.392 52.6811 11.8368 53.3048 11.4266C53.3308 11.4096 53.4078 11.6378 53.4583 11.6062C53.7543 11.422 54.0638 11.318 54.244 10.9605C54.2622 10.9254 54.0558 10.5665 54.1728 10.577C54.1937 10.5789 54.3478 10.564 54.4182 10.6301C54.4282 10.6404 54.4897 10.8247 54.5308 10.8114C54.6556 10.7689 54.7685 10.7143 54.8647 10.6503C54.9994 10.573 55.1277 10.4805 55.246 10.3744C55.2851 10.3386 55.1626 10.1656 55.1898 10.1385C55.3887 9.94555 55.6971 9.99713 55.8542 9.74338C55.9588 9.57326 55.7863 9.25767 55.7525 8.89955C55.7481 8.8488 55.8377 8.81037 55.7787 8.61586C55.6325 8.12564 55.4063 7.61077 55.255 7.08672C55.2393 7.03007 55.2774 7.0198 55.3051 6.99152C55.3201 6.97706 55.3252 6.96013 55.3434 6.92362C55.3386 6.8938 55.2851 6.86259 55.2416 6.80217C55.2232 6.78787 55.0821 6.73546 55.0248 6.65347C54.9843 6.59699 54.9515 6.38968 54.886 6.32201C54.8196 6.25479 54.8344 6.43307 54.7405 6.35997C54.6465 6.28572 54.5941 6.05449 54.4629 6.07187ZM28.3916 25.5502C28.3599 25.3347 28.7684 25.932 28.5906 25.8418C28.5815 25.8367 28.393 25.5609 28.3916 25.5502ZM18.8429 31.4358C18.7877 31.0985 19.0943 31.4629 19.1454 31.7185C19.1957 31.9742 18.8595 31.5381 18.8429 31.4358ZM17.6414 31.8641C17.6371 31.5758 18.1711 32.4523 17.936 32.3487C17.9226 32.343 17.6417 31.8808 17.6414 31.8641ZM55.342 8.93984C55.3396 8.93049 55.4057 8.89648 55.4101 8.90503C55.5245 9.10795 55.395 9.17478 55.342 8.93984ZM16.4398 32.2675C16.408 32.1254 16.5985 32.2 16.6375 32.3769C16.6689 32.5193 16.4791 32.4444 16.4398 32.2675ZM32.0432 22.343C32.0389 22.333 32.0798 22.297 32.1103 22.3498C32.2085 22.5198 32.1161 22.5109 32.0432 22.343ZM14.5558 33.2864C14.8432 33.1204 14.6316 32.2794 14.386 32.4981C14.3391 32.5381 14.6124 32.6926 14.5755 32.7931C14.5019 32.9789 14.2081 32.5255 14.1867 32.843C14.1816 32.9018 14.5391 33.2983 14.5568 33.2873C14.5564 33.287 14.5561 33.2867 14.5558 33.2864ZM27.9585 24.7949C27.9548 24.7858 28.0118 24.7376 28.0185 24.7445C28.178 24.9146 28.0635 25.0118 27.9585 24.7949ZM34.5151 20.3731C34.5086 20.3533 34.6504 20.2517 34.6643 20.2655C34.926 20.5493 34.6424 20.7542 34.5151 20.3731ZM23.5058 27.1003C23.313 26.9496 23.2176 26.9786 23.3204 27.2574C23.3792 27.2014 23.4459 27.1558 23.5058 27.1003Z" fill="#686868"/>
</g>
<defs>
<filter id="filter0_d_24_33459" x="-2.81334e-05" y="1.81763" width="70.3829" height="82.9307" filterUnits="userSpaceOnUse" color-interpolation-filters="sRGB">
<feFlood flood-opacity="0" result="BackgroundImageFix"/>
<feColorMatrix in="SourceAlpha" type="matrix" values="0 0 0 0 0 0 0 0 0 0 0 0 0 0 0 0 0 0 127 0" result="hardAlpha"/>
<feOffset dy="6.4512"/>
<feGaussianBlur stdDeviation="3.2256"/>
<feComposite in2="hardAlpha" operator="out"/>
<feColorMatrix type="matrix" values="0 0 0 0 0 0 0 0 0 0 0 0 0 0 0 0 0 0 0.25 0"/>
<feBlend mode="normal" in2="BackgroundImageFix" result="effect1_dropShadow_24_33459"/>
<feBlend mode="normal" in="SourceGraphic" in2="effect1_dropShadow_24_33459" result="shape"/>
</filter>
</defs>
</svg>
