<svg width="212" height="281" viewBox="0 0 212 281" fill="none" xmlns="http://www.w3.org/2000/svg">
<path d="M75.5756 155.073L80.5942 153.334L117.848 99.4481L157.61 51.5492L189.073 15.4319L151.434 68.1593L134.641 92.3019L116.883 119.342L84.6477 156.038L83.6825 161.06L70.75 175.932H65.7314L64.5732 171.103L75.5756 155.073Z" fill="#AE86DB" stroke="#5B3DA8" stroke-width="1.5"/>
<path d="M58.6394 147.483L0.718262 200.156L9.49419 229.365L22.6581 280.122L58.6394 258.096L100.325 272.94L124.02 271.503L58.6394 200.156L82.3344 192.015L105.591 216.436L127.092 185.79L109.101 157.06L58.6394 147.483Z" fill="#95A7FB" fill-opacity="0.5" stroke="#5B3DA8" stroke-width="1.5" stroke-linejoin="bevel" stroke-dasharray="5 5"/>
<path d="M88.2961 160.102L93.3107 158.366L125.327 105.521L165.25 48.6254L199.194 1.18018L210.574 13.3308L174.315 58.0758L136.127 113.814L97.3609 161.067L96.3965 166.081L83.4745 180.932H78.4599L77.3027 176.11L88.2961 160.102Z" fill="#BF98EB" stroke="#5B3DA8" stroke-width="1.5"/>
<path d="M179.136 44.9609L168.573 45.1802L199.073 2.18018L209.573 13.1802L179.136 44.9609Z" fill="#AE86DB"/>
<path d="M203.437 9.08781L199.387 5.61621L185.886 23.5528L189.165 25.6743L203.437 9.08781Z" fill="#A7B7F7"/>
<rect x="124.364" y="111.907" width="7.27137" height="0.5786" transform="rotate(39.2148 124.364 111.907)" fill="#A168C9" stroke="#5B3DA8" stroke-width="0.5786"/>
<rect x="125.135" y="109.978" width="7.86672" height="0.5786" transform="rotate(39.2148 125.135 109.978)" fill="#A168C9" stroke="#5B3DA8" stroke-width="0.5786"/>
<rect x="126.185" y="108.419" width="8.28553" height="0.5786" transform="rotate(39.2148 126.185 108.419)" fill="#A168C9" stroke="#5B3DA8" stroke-width="0.5786"/>
<rect x="127.063" y="106.892" width="8.66284" height="0.5786" transform="rotate(39.2148 127.063 106.892)" fill="#A168C9" stroke="#5B3DA8" stroke-width="0.5786"/>
<rect x="128.22" y="105.35" width="8.63154" height="0.5786" transform="rotate(39.2148 128.22 105.35)" fill="#A168C9" stroke="#5B3DA8" stroke-width="0.5786"/>
<rect x="129.378" y="103.807" width="8.7543" height="0.5786" transform="rotate(39.2148 129.378 103.807)" fill="#A168C9" stroke="#5B3DA8" stroke-width="0.5786"/>
<rect x="130.535" y="102.264" width="8.67752" height="0.5786" transform="rotate(39.2148 130.535 102.264)" fill="#A168C9" stroke="#5B3DA8" stroke-width="0.5786"/>
<rect x="131.692" y="100.721" width="8.7156" height="0.5786" transform="rotate(39.2148 131.692 100.721)" fill="#A168C9" stroke="#5B3DA8" stroke-width="0.5786"/>
<rect x="132.849" y="99.1778" width="8.78513" height="0.5786" transform="rotate(39.2148 132.849 99.1778)" fill="#A168C9" stroke="#5B3DA8" stroke-width="0.5786"/>
<rect x="134.007" y="97.6348" width="8.50311" height="0.5786" transform="rotate(39.2148 134.007 97.6348)" fill="#A168C9" stroke="#5B3DA8" stroke-width="0.5786"/>
<rect x="134.906" y="95.8819" width="8.8352" height="0.5786" transform="rotate(39.2148 134.906 95.8819)" fill="#A168C9" stroke="#5B3DA8" stroke-width="0.5786"/>
<rect x="135.875" y="94.1849" width="9.07923" height="0.5786" transform="rotate(39.2148 135.875 94.1849)" fill="#A168C9" stroke="#5B3DA8" stroke-width="0.5786"/>
<rect x="137.122" y="92.7154" width="8.96273" height="0.5786" transform="rotate(39.2148 137.122 92.7154)" fill="#A168C9" stroke="#5B3DA8" stroke-width="0.5786"/>
<rect x="138.113" y="91.0364" width="9.17806" height="0.5786" transform="rotate(39.2148 138.113 91.0364)" fill="#A168C9" stroke="#5B3DA8" stroke-width="0.5786"/>
<rect x="139.449" y="89.6397" width="8.94673" height="0.5786" transform="rotate(39.2148 139.449 89.6397)" fill="#A168C9" stroke="#5B3DA8" stroke-width="0.5786"/>
<rect x="140.178" y="87.8453" width="9.17806" height="0.5786" transform="rotate(39.2148 140.178 87.8453)" fill="#A168C9" stroke="#5B3DA8" stroke-width="0.5786"/>
<rect x="141.219" y="86.2076" width="9.32801" height="0.5786" transform="rotate(39.2148 141.219 86.2076)" fill="#A168C9" stroke="#5B3DA8" stroke-width="0.5786"/>
<rect x="142.302" y="84.6385" width="8.92565" height="0.5786" transform="rotate(39.2148 142.302 84.6385)" fill="#A168C9" stroke="#5B3DA8" stroke-width="0.5786"/>
<rect x="147.846" y="77.3116" width="9.08949" height="0.923073" transform="rotate(39.2148 147.846 77.3116)" fill="#A168C9" stroke="#5B3DA8" stroke-width="0.75"/>
<rect x="143.669" y="82.9515" width="9.15375" height="0.5786" transform="rotate(39.2148 143.669 82.9515)" fill="#A168C9" stroke="#5B3DA8" stroke-width="0.5786"/>
<rect x="145.028" y="81.1647" width="9.29592" height="0.743954" transform="rotate(39.2148 145.028 81.1647)" fill="#A168C9" stroke="#5B3DA8" stroke-width="0.743954"/>
<rect x="146.363" y="79.2403" width="9.28987" height="0.754646" transform="rotate(39.2148 146.363 79.2403)" fill="#A168C9" stroke="#5B3DA8" stroke-width="0.75"/>
<rect x="166.027" y="50.2471" width="9.57489" height="1.98902" transform="rotate(39.7196 166.027 50.2471)" fill="#A168C9" stroke="#5B3DA8" stroke-width="0.75"/>
<rect x="163.963" y="53.011" width="9.57489" height="1.98902" transform="rotate(39.7196 163.963 53.011)" fill="#A168C9" stroke="#5B3DA8" stroke-width="0.75"/>
<rect x="162.034" y="56.0967" width="9.57489" height="1.98902" transform="rotate(39.7196 162.034 56.0967)" fill="#A168C9" stroke="#5B3DA8" stroke-width="0.75"/>
<rect x="160.105" y="59.1826" width="9.57489" height="1.98902" transform="rotate(39.7196 160.105 59.1826)" fill="#A168C9" stroke="#5B3DA8" stroke-width="0.75"/>
<rect x="158.177" y="62.2686" width="9.57489" height="1.98902" transform="rotate(39.7196 158.177 62.2686)" fill="#A168C9" stroke="#5B3DA8" stroke-width="0.75"/>
<rect x="155.863" y="64.9685" width="9.57489" height="1.52828" transform="rotate(39.7196 155.863 64.9685)" fill="#A168C9" stroke="#5B3DA8" stroke-width="0.75"/>
<rect x="154.025" y="67.6687" width="9.57489" height="1.52828" transform="rotate(39.7196 154.025 67.6687)" fill="#A168C9" stroke="#5B3DA8" stroke-width="0.75"/>
<rect x="152.482" y="70.3689" width="9.57489" height="1.13728" transform="rotate(39.7196 152.482 70.3689)" fill="#A168C9" stroke="#5B3DA8" stroke-width="0.75"/>
<rect x="150.689" y="72.2976" width="9.57489" height="1.13728" transform="rotate(39.7196 150.689 72.2976)" fill="#A168C9" stroke="#5B3DA8" stroke-width="0.75"/>
<rect x="149.146" y="74.6118" width="9.57489" height="1.13728" transform="rotate(39.7196 149.146 74.6118)" fill="#A168C9" stroke="#5B3DA8" stroke-width="0.75"/>
</svg>
