<svg width="215" height="280" viewBox="0 0 215 280" fill="none" xmlns="http://www.w3.org/2000/svg">
<path d="M78.4506 155.073L83.4692 153.334L120.723 99.4481L160.485 51.5492L191.948 15.4319L154.309 68.1593L137.516 92.3019L119.758 119.342L87.5227 156.038L86.5575 161.06L73.625 175.932H68.6064L67.4482 171.103L78.4506 155.073Z" fill="#AE86DB" stroke="#5B3DA8" stroke-width="1.5"/>
<path d="M81.5786 198.463L59.3266 236.978L9.48211 255.273L55.3212 279.344L91.3694 248.533L118.517 279.344L113.621 227.349L130.088 198.463L102.94 176.317L113.621 153.208L72.2327 149.838L60.6617 171.503L0.581314 167.651L33.5143 208.092L81.5786 198.463Z" fill="#95A7FB" fill-opacity="0.5" stroke="#5B3DA8" stroke-width="1.5" stroke-linejoin="bevel" stroke-dasharray="5 5"/>
<path d="M91.1711 160.102L96.1857 158.366L128.202 105.521L168.125 48.6254L202.069 1.18018L213.449 13.3308L177.19 58.0758L139.002 113.814L100.236 161.067L99.2715 166.081L86.3495 180.932H81.3349L80.1777 176.11L91.1711 160.102Z" fill="#BF98EB" stroke="#5B3DA8" stroke-width="1.5"/>
<path d="M182.011 44.9609L171.448 45.1802L201.948 2.18018L212.448 13.1802L182.011 44.9609Z" fill="#AE86DB"/>
<path d="M206.312 9.08781L202.262 5.61621L188.761 23.5528L192.04 25.6743L206.312 9.08781Z" fill="#A7B7F7"/>
<rect x="127.239" y="111.907" width="7.27137" height="0.5786" transform="rotate(39.2148 127.239 111.907)" fill="#A168C9" stroke="#5B3DA8" stroke-width="0.5786"/>
<rect x="128.01" y="109.978" width="7.86672" height="0.5786" transform="rotate(39.2148 128.01 109.978)" fill="#A168C9" stroke="#5B3DA8" stroke-width="0.5786"/>
<rect x="129.06" y="108.419" width="8.28553" height="0.5786" transform="rotate(39.2148 129.06 108.419)" fill="#A168C9" stroke="#5B3DA8" stroke-width="0.5786"/>
<rect x="129.938" y="106.892" width="8.66284" height="0.5786" transform="rotate(39.2148 129.938 106.892)" fill="#A168C9" stroke="#5B3DA8" stroke-width="0.5786"/>
<rect x="131.095" y="105.35" width="8.63154" height="0.5786" transform="rotate(39.2148 131.095 105.35)" fill="#A168C9" stroke="#5B3DA8" stroke-width="0.5786"/>
<rect x="132.253" y="103.807" width="8.7543" height="0.5786" transform="rotate(39.2148 132.253 103.807)" fill="#A168C9" stroke="#5B3DA8" stroke-width="0.5786"/>
<rect x="133.41" y="102.264" width="8.67752" height="0.5786" transform="rotate(39.2148 133.41 102.264)" fill="#A168C9" stroke="#5B3DA8" stroke-width="0.5786"/>
<rect x="134.567" y="100.721" width="8.7156" height="0.5786" transform="rotate(39.2148 134.567 100.721)" fill="#A168C9" stroke="#5B3DA8" stroke-width="0.5786"/>
<rect x="135.724" y="99.1778" width="8.78513" height="0.5786" transform="rotate(39.2148 135.724 99.1778)" fill="#A168C9" stroke="#5B3DA8" stroke-width="0.5786"/>
<rect x="136.882" y="97.6348" width="8.50311" height="0.5786" transform="rotate(39.2148 136.882 97.6348)" fill="#A168C9" stroke="#5B3DA8" stroke-width="0.5786"/>
<rect x="137.781" y="95.8819" width="8.8352" height="0.5786" transform="rotate(39.2148 137.781 95.8819)" fill="#A168C9" stroke="#5B3DA8" stroke-width="0.5786"/>
<rect x="138.75" y="94.1849" width="9.07923" height="0.5786" transform="rotate(39.2148 138.75 94.1849)" fill="#A168C9" stroke="#5B3DA8" stroke-width="0.5786"/>
<rect x="139.997" y="92.7154" width="8.96273" height="0.5786" transform="rotate(39.2148 139.997 92.7154)" fill="#A168C9" stroke="#5B3DA8" stroke-width="0.5786"/>
<rect x="140.988" y="91.0364" width="9.17806" height="0.5786" transform="rotate(39.2148 140.988 91.0364)" fill="#A168C9" stroke="#5B3DA8" stroke-width="0.5786"/>
<rect x="142.324" y="89.6397" width="8.94673" height="0.5786" transform="rotate(39.2148 142.324 89.6397)" fill="#A168C9" stroke="#5B3DA8" stroke-width="0.5786"/>
<rect x="143.053" y="87.8453" width="9.17806" height="0.5786" transform="rotate(39.2148 143.053 87.8453)" fill="#A168C9" stroke="#5B3DA8" stroke-width="0.5786"/>
<rect x="144.094" y="86.2076" width="9.32801" height="0.5786" transform="rotate(39.2148 144.094 86.2076)" fill="#A168C9" stroke="#5B3DA8" stroke-width="0.5786"/>
<rect x="145.177" y="84.6385" width="8.92565" height="0.5786" transform="rotate(39.2148 145.177 84.6385)" fill="#A168C9" stroke="#5B3DA8" stroke-width="0.5786"/>
<rect x="150.721" y="77.3116" width="9.08949" height="0.923073" transform="rotate(39.2148 150.721 77.3116)" fill="#A168C9" stroke="#5B3DA8" stroke-width="0.75"/>
<rect x="146.544" y="82.9515" width="9.15375" height="0.5786" transform="rotate(39.2148 146.544 82.9515)" fill="#A168C9" stroke="#5B3DA8" stroke-width="0.5786"/>
<rect x="147.903" y="81.1647" width="9.29592" height="0.743954" transform="rotate(39.2148 147.903 81.1647)" fill="#A168C9" stroke="#5B3DA8" stroke-width="0.743954"/>
<rect x="149.238" y="79.2403" width="9.28987" height="0.754646" transform="rotate(39.2148 149.238 79.2403)" fill="#A168C9" stroke="#5B3DA8" stroke-width="0.75"/>
<rect x="168.902" y="50.2471" width="9.57489" height="1.98902" transform="rotate(39.7196 168.902 50.2471)" fill="#A168C9" stroke="#5B3DA8" stroke-width="0.75"/>
<rect x="166.838" y="53.011" width="9.57489" height="1.98902" transform="rotate(39.7196 166.838 53.011)" fill="#A168C9" stroke="#5B3DA8" stroke-width="0.75"/>
<rect x="164.909" y="56.0967" width="9.57489" height="1.98902" transform="rotate(39.7196 164.909 56.0967)" fill="#A168C9" stroke="#5B3DA8" stroke-width="0.75"/>
<rect x="162.98" y="59.1826" width="9.57489" height="1.98902" transform="rotate(39.7196 162.98 59.1826)" fill="#A168C9" stroke="#5B3DA8" stroke-width="0.75"/>
<rect x="161.052" y="62.2686" width="9.57489" height="1.98902" transform="rotate(39.7196 161.052 62.2686)" fill="#A168C9" stroke="#5B3DA8" stroke-width="0.75"/>
<rect x="158.738" y="64.9685" width="9.57489" height="1.52828" transform="rotate(39.7196 158.738 64.9685)" fill="#A168C9" stroke="#5B3DA8" stroke-width="0.75"/>
<rect x="156.9" y="67.6687" width="9.57489" height="1.52828" transform="rotate(39.7196 156.9 67.6687)" fill="#A168C9" stroke="#5B3DA8" stroke-width="0.75"/>
<rect x="155.357" y="70.3689" width="9.57489" height="1.13728" transform="rotate(39.7196 155.357 70.3689)" fill="#A168C9" stroke="#5B3DA8" stroke-width="0.75"/>
<rect x="153.564" y="72.2976" width="9.57489" height="1.13728" transform="rotate(39.7196 153.564 72.2976)" fill="#A168C9" stroke="#5B3DA8" stroke-width="0.75"/>
<rect x="152.021" y="74.6118" width="9.57489" height="1.13728" transform="rotate(39.7196 152.021 74.6118)" fill="#A168C9" stroke="#5B3DA8" stroke-width="0.75"/>
</svg>
