<svg width="212" height="253" viewBox="0 0 212 253" fill="none" xmlns="http://www.w3.org/2000/svg">
<path d="M75.745 155.073L80.7636 153.334L118.017 99.4481L157.78 51.5492L189.243 15.4319L151.603 68.1593L134.81 92.3019L117.052 119.342L84.8171 156.038L83.852 161.06L70.9194 175.932H65.9008L64.7427 171.103L75.745 155.073Z" fill="#AE86DB" stroke="#5B3DA8" stroke-width="1.5"/>
<path d="M50.5939 153.036L12.3153 122.224L0.742676 203.106L43.0272 213.697L58.6057 251.731L130.267 233.918L108.457 195.884L133.382 147.741L50.5939 153.036Z" fill="#95A7FB" fill-opacity="0.5" stroke="#5B3DA8" stroke-width="1.5" stroke-linejoin="bevel" stroke-dasharray="5 5"/>
<path d="M88.4656 160.102L93.4801 158.366L125.496 105.521L165.419 48.6254L199.364 1.18018L210.743 13.3308L174.484 58.0758L136.296 113.814L97.5303 161.067L96.566 166.081L83.6439 180.932H78.6294L77.4722 176.11L88.4656 160.102Z" fill="#BF98EB" stroke="#5B3DA8" stroke-width="1.5"/>
<path d="M179.305 44.9609L168.743 45.1802L199.242 2.18018L209.742 13.1802L179.305 44.9609Z" fill="#AE86DB"/>
<path d="M203.607 9.08781L199.556 5.61621L186.056 23.5528L189.334 25.6743L203.607 9.08781Z" fill="#A7B7F7"/>
<rect x="124.533" y="111.907" width="7.27137" height="0.5786" transform="rotate(39.2148 124.533 111.907)" fill="#A168C9" stroke="#5B3DA8" stroke-width="0.5786"/>
<rect x="125.304" y="109.978" width="7.86672" height="0.5786" transform="rotate(39.2148 125.304 109.978)" fill="#A168C9" stroke="#5B3DA8" stroke-width="0.5786"/>
<rect x="126.354" y="108.419" width="8.28553" height="0.5786" transform="rotate(39.2148 126.354 108.419)" fill="#A168C9" stroke="#5B3DA8" stroke-width="0.5786"/>
<rect x="127.233" y="106.892" width="8.66284" height="0.5786" transform="rotate(39.2148 127.233 106.892)" fill="#A168C9" stroke="#5B3DA8" stroke-width="0.5786"/>
<rect x="128.39" y="105.35" width="8.63154" height="0.5786" transform="rotate(39.2148 128.39 105.35)" fill="#A168C9" stroke="#5B3DA8" stroke-width="0.5786"/>
<rect x="129.547" y="103.807" width="8.7543" height="0.5786" transform="rotate(39.2148 129.547 103.807)" fill="#A168C9" stroke="#5B3DA8" stroke-width="0.5786"/>
<rect x="130.704" y="102.264" width="8.67752" height="0.5786" transform="rotate(39.2148 130.704 102.264)" fill="#A168C9" stroke="#5B3DA8" stroke-width="0.5786"/>
<rect x="131.862" y="100.721" width="8.7156" height="0.5786" transform="rotate(39.2148 131.862 100.721)" fill="#A168C9" stroke="#5B3DA8" stroke-width="0.5786"/>
<rect x="133.019" y="99.1778" width="8.78513" height="0.5786" transform="rotate(39.2148 133.019 99.1778)" fill="#A168C9" stroke="#5B3DA8" stroke-width="0.5786"/>
<rect x="134.176" y="97.6348" width="8.50311" height="0.5786" transform="rotate(39.2148 134.176 97.6348)" fill="#A168C9" stroke="#5B3DA8" stroke-width="0.5786"/>
<rect x="135.076" y="95.8819" width="8.8352" height="0.5786" transform="rotate(39.2148 135.076 95.8819)" fill="#A168C9" stroke="#5B3DA8" stroke-width="0.5786"/>
<rect x="136.044" y="94.1849" width="9.07923" height="0.5786" transform="rotate(39.2148 136.044 94.1849)" fill="#A168C9" stroke="#5B3DA8" stroke-width="0.5786"/>
<rect x="137.292" y="92.7154" width="8.96273" height="0.5786" transform="rotate(39.2148 137.292 92.7154)" fill="#A168C9" stroke="#5B3DA8" stroke-width="0.5786"/>
<rect x="138.282" y="91.0364" width="9.17806" height="0.5786" transform="rotate(39.2148 138.282 91.0364)" fill="#A168C9" stroke="#5B3DA8" stroke-width="0.5786"/>
<rect x="139.618" y="89.6397" width="8.94673" height="0.5786" transform="rotate(39.2148 139.618 89.6397)" fill="#A168C9" stroke="#5B3DA8" stroke-width="0.5786"/>
<rect x="140.348" y="87.8453" width="9.17806" height="0.5786" transform="rotate(39.2148 140.348 87.8453)" fill="#A168C9" stroke="#5B3DA8" stroke-width="0.5786"/>
<rect x="141.389" y="86.2076" width="9.32801" height="0.5786" transform="rotate(39.2148 141.389 86.2076)" fill="#A168C9" stroke="#5B3DA8" stroke-width="0.5786"/>
<rect x="142.472" y="84.6385" width="8.92565" height="0.5786" transform="rotate(39.2148 142.472 84.6385)" fill="#A168C9" stroke="#5B3DA8" stroke-width="0.5786"/>
<rect x="148.015" y="77.3116" width="9.08949" height="0.923073" transform="rotate(39.2148 148.015 77.3116)" fill="#A168C9" stroke="#5B3DA8" stroke-width="0.75"/>
<rect x="143.838" y="82.9515" width="9.15375" height="0.5786" transform="rotate(39.2148 143.838 82.9515)" fill="#A168C9" stroke="#5B3DA8" stroke-width="0.5786"/>
<rect x="145.198" y="81.1647" width="9.29592" height="0.743954" transform="rotate(39.2148 145.198 81.1647)" fill="#A168C9" stroke="#5B3DA8" stroke-width="0.743954"/>
<rect x="146.532" y="79.2403" width="9.28987" height="0.754646" transform="rotate(39.2148 146.532 79.2403)" fill="#A168C9" stroke="#5B3DA8" stroke-width="0.75"/>
<rect x="166.196" y="50.2471" width="9.57489" height="1.98902" transform="rotate(39.7196 166.196 50.2471)" fill="#A168C9" stroke="#5B3DA8" stroke-width="0.75"/>
<rect x="164.132" y="53.011" width="9.57489" height="1.98902" transform="rotate(39.7196 164.132 53.011)" fill="#A168C9" stroke="#5B3DA8" stroke-width="0.75"/>
<rect x="162.204" y="56.0967" width="9.57489" height="1.98902" transform="rotate(39.7196 162.204 56.0967)" fill="#A168C9" stroke="#5B3DA8" stroke-width="0.75"/>
<rect x="160.275" y="59.1826" width="9.57489" height="1.98902" transform="rotate(39.7196 160.275 59.1826)" fill="#A168C9" stroke="#5B3DA8" stroke-width="0.75"/>
<rect x="158.346" y="62.2686" width="9.57489" height="1.98902" transform="rotate(39.7196 158.346 62.2686)" fill="#A168C9" stroke="#5B3DA8" stroke-width="0.75"/>
<rect x="156.032" y="64.9685" width="9.57489" height="1.52828" transform="rotate(39.7196 156.032 64.9685)" fill="#A168C9" stroke="#5B3DA8" stroke-width="0.75"/>
<rect x="154.195" y="67.6687" width="9.57489" height="1.52828" transform="rotate(39.7196 154.195 67.6687)" fill="#A168C9" stroke="#5B3DA8" stroke-width="0.75"/>
<rect x="152.652" y="70.3689" width="9.57489" height="1.13728" transform="rotate(39.7196 152.652 70.3689)" fill="#A168C9" stroke="#5B3DA8" stroke-width="0.75"/>
<rect x="150.859" y="72.2976" width="9.57489" height="1.13728" transform="rotate(39.7196 150.859 72.2976)" fill="#A168C9" stroke="#5B3DA8" stroke-width="0.75"/>
<rect x="149.316" y="74.6118" width="9.57489" height="1.13728" transform="rotate(39.7196 149.316 74.6118)" fill="#A168C9" stroke="#5B3DA8" stroke-width="0.75"/>
</svg>
