<svg width="150" height="164" viewBox="0 0 150 164" fill="none" xmlns="http://www.w3.org/2000/svg">
<path d="M115.025 60.6603L111.273 83.6431L131.237 75.7064L115.025 60.6603Z" fill="#A7B7F7" stroke="#5B3DA8" stroke-width="1.5"/>
<path d="M119.418 84.2611L97.0787 77.6847L102.475 98.4794L119.418 84.2611Z" fill="#A7B7F7" stroke="#5B3DA8" stroke-width="1.5"/>
<path d="M143.007 89.6603L122.122 99.9588L140.179 111.597L143.007 89.6603Z" fill="#A7B7F7" stroke="#5B3DA8" stroke-width="1.5"/>
<path d="M123.388 57.1878L101.026 50.6895L106.494 71.4653L123.388 57.1878Z" fill="#A7B7F7" stroke="#5B3DA8" stroke-width="1.5"/>
<path d="M124.007 137.66L103.122 147.959L121.179 159.597L124.007 137.66Z" fill="#A7B7F7" stroke="#5B3DA8" stroke-width="1.5"/>
<path d="M3.68328 62.3144L45.7606 12.9995L55.2858 1.83588L61.644 5.52897C79.6339 20.4714 89.3889 28.7526 97.9129 37.0244C104.988 43.8899 104.731 48.2034 103.963 49.1029C96.148 42.2134 91.8453 43.8384 91.0813 45.0311L45.7265 98.1872C43.2601 98.8488 41.613 98.5502 38.205 96.7491C24.2919 87.6447 13.9805 78.7306 6.50749 69.7036C4.27656 67.0087 3.74444 64.0259 3.68328 62.3144Z" fill="#EB8DD7" stroke="#45269B" stroke-width="1.5"/>
<path d="M49.1792 11.2197L54.917 4.495C67.8755 19.9785 86.5842 33.3592 94.3187 38.114L88.5809 44.8388C67.3766 31.1733 53.478 16.7321 49.1792 11.2197Z" fill="#EEBFE7"/>
<path d="M5.6785 67.9981L58.189 6.45554L63.859 11.8468L10.7695 74.068C10.7695 74.068 9.13658 72.3282 8.0441 71.021C7.07799 69.8651 5.6785 67.9981 5.6785 67.9981Z" fill="#D275BE" fill-opacity="0.6"/>
<path d="M18.5043 81.4973L72.1362 18.6352L85.0703 30.2243L32.1377 92.2617C32.1377 92.2617 27.5872 88.9145 24.7493 86.6606C22.2724 84.6934 18.5043 81.4973 18.5043 81.4973Z" fill="#D275BE" fill-opacity="0.6"/>
<path d="M76.8946 18.4132C82.7292 23.3915 87.9377 27.9549 91.5435 31.4347C93.3502 33.1783 94.7326 34.629 95.5882 35.7125C95.9459 36.1654 96.1884 36.529 96.3348 36.804C96.0261 36.7143 95.6053 36.5453 95.0709 36.2737C93.8306 35.6433 92.1317 34.5662 90.0774 33.1184C85.9771 30.2286 80.5523 25.9258 74.7262 20.9547C68.8998 15.9834 63.8522 11.3507 60.4085 7.80373C58.683 6.0265 57.3804 4.54199 56.5838 3.43508C56.2379 2.95438 56.0107 2.57139 55.8798 2.28623C56.1679 2.38231 56.5587 2.55828 57.0565 2.83449C58.2394 3.49095 59.8611 4.60404 61.8397 6.09027C65.7884 9.05634 71.0597 13.4346 76.8946 18.4132Z" fill="#DFE9FF" stroke="#45269B" stroke-width="1.5"/>
</svg>
