<svg width="69" height="88" viewBox="0 0 69 88" fill="none" xmlns="http://www.w3.org/2000/svg">
<path d="M0.75 81.3193V16.8572V2.26461L7.908 0.954448C31.0465 0.646382 43.7081 0.614518 55.4371 1.37011C65.172 1.99723 67.7489 5.42605 67.7489 6.60188C57.4413 6.43445 55.2462 10.4408 55.4371 11.8361V81.3193C54.0055 83.4117 52.5739 84.2489 48.8517 85.086C32.5315 87.179 19.0446 87.0912 7.62168 85.086C4.21158 84.4874 1.89528 82.5745 0.75 81.3193Z" fill="#EB8DD7" stroke="#45269B" stroke-width="1.5"/>
<path d="M2.18164 13.3045V4.51422C21.8805 7.8629 44.557 5.9095 53.4329 4.51422V13.3045C28.6949 16.6532 8.95788 14.6998 2.18164 13.3045Z" fill="#EEBFE7"/>
<path d="M5.90234 84.331V3.88535L13.633 4.30393V85.6366C13.633 85.6366 11.2864 85.3746 9.6245 85.0909C8.15484 84.84 5.90234 84.331 5.90234 84.331Z" fill="#D275BE" fill-opacity="0.6"/>
<path d="M24.228 86.2642L24.2246 4.09653L41.4038 4.51511V85.6075C41.4038 85.6075 35.8288 86.0125 32.2449 86.1392C29.117 86.2498 24.228 86.2642 24.228 86.2642Z" fill="#D275BE" fill-opacity="0.6"/>
<path d="M27.6631 0.861786C35.2525 0.861786 42.1038 0.951354 47.0527 1.25632C49.5322 1.40912 51.5036 1.61515 52.8428 1.88229C53.3981 1.9931 53.8119 2.10982 54.0977 2.22214C53.8087 2.35229 53.3857 2.49392 52.8135 2.63229C51.4757 2.95576 49.5054 3.23753 47.0293 3.46823C42.0873 3.92865 35.2411 4.17526 27.6631 4.17526C20.085 4.17526 13.3111 3.92858 8.44141 3.46823C6.00128 3.23755 4.06761 2.95623 2.75781 2.63327C2.19375 2.49418 1.77978 2.35199 1.49902 2.22214C1.77652 2.11021 2.1807 1.99257 2.72754 1.88132C4.03875 1.61458 5.9733 1.4091 8.41699 1.25632C13.2939 0.95142 20.0734 0.861787 27.6631 0.861786Z" fill="#DFE9FF" stroke="#45269B" stroke-width="1.5"/>
</svg>
