<svg width="123" height="140" viewBox="0 0 123 140" fill="none" xmlns="http://www.w3.org/2000/svg">
<path d="M0.75 130.162V26.8345V3.44359L13.7287 1.34349C55.683 0.849679 78.6407 0.798604 99.9074 2.00976C117.558 3.015 122.231 8.51114 122.231 10.3959C103.541 10.1275 99.5613 16.5494 99.9074 18.7859V130.162C97.3116 133.516 94.7159 134.858 87.967 136.2C58.3755 139.555 33.9213 139.414 13.2096 136.2C7.02645 135.241 2.82659 132.174 0.75 130.162Z" fill="#6B51B1" stroke="#45269B" stroke-width="1.5"/>
<path d="M50.0684 121.859C62.7991 121.859 74.3069 122.722 82.6162 124.109C86.7768 124.804 90.1002 125.625 92.3662 126.52C93.5028 126.968 94.3296 127.419 94.8594 127.852C95.3981 128.291 95.5224 128.62 95.5225 128.825C95.5225 129.031 95.3983 129.36 94.8594 129.8C94.3296 130.232 93.5026 130.682 92.3662 131.131C90.1002 132.026 86.7769 132.847 82.6162 133.542C74.3069 134.93 62.799 135.791 50.0684 135.791C37.3377 135.791 25.8298 134.93 17.5205 133.542C13.3599 132.847 10.0365 132.026 7.77051 131.131C6.63412 130.682 5.80708 130.232 5.27734 129.8C4.73842 129.36 4.61426 129.031 4.61426 128.825C4.61435 128.62 4.73863 128.291 5.27734 127.852C5.80709 127.419 6.63386 126.968 7.77051 126.52C10.0365 125.625 13.3599 124.804 17.5205 124.109C25.8298 122.722 37.3377 121.86 50.0684 121.859Z" fill="#AE86DB" stroke="#45269B" stroke-width="1.5"/>
<path d="M3.34473 21.1364V7.04626C39.0622 12.414 80.1787 9.2828 96.2723 7.04626V21.1364C51.4179 26.5041 15.6312 23.373 3.34473 21.1364Z" fill="#AE86DB"/>
<path d="M10.0938 134.986V6.0376L24.1108 6.70856V137.079C24.1108 137.079 19.856 136.659 16.8427 136.204C14.1779 135.802 10.0938 134.986 10.0938 134.986Z" fill="#8870C7" fill-opacity="0.6"/>
<path d="M43.3196 138.081L43.3135 6.37268L74.4624 7.04364V137.029C74.4624 137.029 64.3539 137.678 57.8557 137.881C52.1843 138.058 43.3196 138.081 43.3196 138.081Z" fill="#8870C7" fill-opacity="0.6"/>
<path d="M49.5498 0.75C63.3116 0.750001 75.7534 0.893646 84.75 1.38379C89.2528 1.62911 92.8651 1.95985 95.3408 2.39648C96.5854 2.61599 97.4976 2.85555 98.082 3.10352C98.3165 3.20301 98.4685 3.29271 98.5615 3.3623C98.4661 3.44106 98.3075 3.54422 98.0586 3.66016C97.4718 3.9335 96.558 4.20976 95.3145 4.47559C92.8402 5.00451 89.2284 5.45944 84.7285 5.83008C75.7381 6.57056 63.3013 6.96582 49.5498 6.96582C35.798 6.96582 23.491 6.57055 14.6309 5.83008C10.196 5.45943 6.65019 5.00412 4.22559 4.47559C3.00699 4.20994 2.11451 3.93513 1.54297 3.66309C1.29415 3.54466 1.13893 3.4398 1.04785 3.36133C1.13664 3.29217 1.28598 3.20186 1.51953 3.10059C2.08849 2.85396 2.9789 2.61579 4.19824 2.39648C6.62435 1.96018 10.1714 1.62908 14.6094 1.38379C23.4759 0.893742 35.7878 0.75 49.5498 0.75Z" fill="#DFE9FF" stroke="#45269B" stroke-width="1.5"/>
</svg>
