<svg width="89" height="208" viewBox="0 0 89 208" fill="none" xmlns="http://www.w3.org/2000/svg">
<path d="M34.9596 12.7308C29.3631 9.08893 26.9583 4.71487 26.9583 2.27271H61.8139C59.3199 8.8011 56.1766 10.8442 53.0334 12.7308V106.082C61.1744 121.01 83.9943 164.549 86.8233 177.28C89.6523 190.01 83.597 196.519 80.8511 199.754C72.2069 209.939 21.4461 209.175 8.40177 199.754C3.84943 196.466 -2.68988 184.823 2.90915 173.193C6.8438 165.021 34.9596 106.082 34.9596 106.082V12.7308Z" fill="#F7B0CC" stroke="#45269B" stroke-width="1.5"/>
<path d="M45.02 192.175C54.1879 192.175 62.4682 192.894 68.438 194.049C71.4288 194.627 73.8017 195.307 75.4087 196.042C76.2145 196.411 76.787 196.775 77.147 197.115C77.5065 197.455 77.5883 197.706 77.5884 197.868C77.5884 198.031 77.5068 198.282 77.147 198.622C76.787 198.962 76.2144 199.326 75.4087 199.694C73.8017 200.429 71.4289 201.11 68.438 201.689C62.4682 202.843 54.1879 203.563 45.02 203.563C35.8523 203.563 27.5728 202.843 21.603 201.689C18.6121 201.11 16.2394 200.429 14.6323 199.694C13.8267 199.326 13.254 198.962 12.894 198.622C12.534 198.282 12.4517 198.031 12.4517 197.868C12.4518 197.706 12.5343 197.455 12.894 197.115C13.254 196.775 13.8265 196.411 14.6323 196.042C16.2394 195.307 18.6123 194.627 21.603 194.049C27.5728 192.894 35.8523 192.175 45.02 192.175Z" fill="#EB8DD7" stroke="#45269B" stroke-width="1.5"/>
<path d="M49.2711 18.6163V107.816L75.9888 199.757C75.9888 199.757 70.9596 201.643 66.4019 202.271C60.4236 203.096 50.2141 203.843 50.2141 203.843L45.342 108.917V19.0194L49.2711 18.6163Z" fill="#FFCEE1" fill-opacity="0.6"/>
<path d="M38.8981 108.129V18.389H42.67V109.386L26.4822 202.741C26.4822 202.741 20.1706 201.763 16.7381 200.698C12.1804 199.283 12.1804 197.749 12.1804 197.749L38.8981 108.129Z" fill="#FFCEE1" fill-opacity="0.6"/>
<path d="M36.9074 106.002V105H37.3415L37.6309 106.002C44.2283 110.069 49.1571 107.697 50.7968 106.002L51.0862 105H51.5926V106.002L52.75 108.007C46.1526 111.616 38.6677 109.511 35.75 108.007L36.9074 106.002Z" fill="#FFE5EF" fill-opacity="0.5"/>
<path d="M44.3916 0.75C49.3183 0.750014 53.7654 0.995275 56.9688 1.38867C58.5756 1.58601 59.841 1.81784 60.6904 2.06445C60.8493 2.11058 60.9872 2.15703 61.1064 2.2002C60.9872 2.24337 60.8493 2.29078 60.6904 2.33691C59.841 2.5835 58.5755 2.8144 56.9688 3.01172C53.7654 3.40512 49.3183 3.65038 44.3916 3.65039C39.4647 3.65039 35.0169 3.40513 31.8135 3.01172C30.2067 2.8144 28.9412 2.58351 28.0918 2.33691C27.9325 2.29066 27.7943 2.24347 27.6748 2.2002C27.7943 2.15693 27.9325 2.1107 28.0918 2.06445C28.9412 1.81784 30.2066 1.58601 31.8135 1.38867C35.0169 0.995263 39.4647 0.75 44.3916 0.75Z" fill="#FFE5EF" stroke="#45269B" stroke-width="1.5"/>
<path d="M52.1346 12.5726C46.0518 15.363 38.6105 13.7353 35.6502 12.5726C35.2609 15.301 36.8667 16.2415 37.7183 16.3707V18.386C42.4872 19.8122 48.0185 18.9802 50.1881 18.386V16.3707C52.3779 15.7506 52.3982 13.5803 52.1346 12.5726Z" fill="#EB8DD7"/>
</svg>
