<svg width="144" height="175" viewBox="0 0 144 175" fill="none" xmlns="http://www.w3.org/2000/svg">
<path d="M50.8119 19.9779C43.1545 14.9948 45.942 8.362 48.293 5.66846H95.9846C100.821 14.9612 95.4249 19.08 92.1223 19.9779V55.6673C103.261 76.0933 127.823 120.178 136.959 133.107C146.094 146.036 141.773 156.114 138.47 159.537C106.06 181.085 24.2798 174.183 8.66261 162.904C-3.83112 153.881 1.21787 139.279 5.30408 133.107L50.8119 55.6673V19.9779Z" fill="#95A7FB" stroke="#45269B" stroke-width="1.5"/>
<path d="M71.2388 142.437C89.4952 142.437 106.002 143.941 117.926 146.364C123.895 147.577 128.676 149.012 131.947 150.583C133.584 151.37 134.802 152.172 135.602 152.966C136.4 153.758 136.727 154.486 136.727 155.147C136.727 155.808 136.4 156.535 135.602 157.327C134.802 158.121 133.584 158.924 131.947 159.71C128.676 161.281 123.895 162.717 117.926 163.93C106.002 166.353 89.4951 167.857 71.2388 167.857C52.9822 167.857 36.4746 166.353 24.5503 163.93C18.5821 162.717 13.8014 161.281 10.5308 159.71C8.89368 158.924 7.67423 158.121 6.87451 157.327C6.07662 156.535 5.75049 155.807 5.75049 155.147C5.75055 154.486 6.07662 153.758 6.87451 152.966C7.67423 152.172 8.89374 151.37 10.5308 150.583C13.8014 149.012 18.5823 147.577 24.5503 146.364C36.4746 143.941 52.9822 142.437 71.2388 142.437Z" fill="#AAC3FA" stroke="#45269B" stroke-width="1.5"/>
<path d="M73.6009 61.0127V24.6554V21.9623L82.7489 22.9722V61.0127L84.4122 62.8642L115.515 164.025C115.515 164.025 98.6936 167.498 87.0734 168.233C73.7673 169.074 58.1326 168.233 58.1326 168.233L74.7652 62.8642L73.6009 61.0127Z" fill="#B8C4FF" fill-opacity="0.6"/>
<path d="M54.3337 57.3174V22.6707H59.5495V59.672L22.8707 162.939C22.8707 162.939 15.5522 160.464 11.2613 158.062C7.055 155.707 5.70898 152.175 5.70898 152.175L54.3337 57.3174Z" fill="#B8C4FF" fill-opacity="0.6"/>
<path d="M54.4097 56.5384V54.5499H55.4045L56.0677 56.5384C71.1889 64.6059 82.4855 59.8999 86.2437 56.5384L86.9069 54.5499H88.0676V56.5384L90.7204 60.5153C75.5992 67.6738 58.4442 63.4981 51.7568 60.5153L54.4097 56.5384Z" fill="#DFE9FF"/>
<path d="M72.1245 0.75C78.8803 0.750019 84.9718 1.42058 89.353 2.49219C91.5495 3.02946 93.2747 3.65782 94.4321 4.32715C95.6442 5.02814 95.9916 5.62702 95.9917 6.02148C95.9917 6.41594 95.6443 7.01477 94.4321 7.71582C93.2747 8.38515 91.5495 9.01351 89.353 9.55078C84.9718 10.6224 78.8804 11.293 72.1245 11.293C65.3684 11.293 59.2763 10.6225 54.895 9.55078C52.6986 9.01353 50.9743 8.38512 49.8169 7.71582C48.6045 7.0147 48.2563 6.41597 48.2563 6.02148C48.2564 5.627 48.6047 5.02818 49.8169 4.32715C50.9743 3.65788 52.6987 3.02941 54.895 2.49219C59.2763 1.42051 65.3684 0.75 72.1245 0.75Z" fill="#DFE9FF" stroke="#45269B" stroke-width="1.5"/>
<path d="M93.9448 9.9165C77.1313 16.2055 56.5628 12.5369 48.3802 9.9165C47.3041 16.0658 51.7429 18.1854 54.0968 18.4766V23.0187C67.2786 26.2331 82.5676 24.358 88.5644 23.0187V18.4766C94.6173 17.079 94.6733 12.1875 93.9448 9.9165Z" fill="#AAC3FA"/>
</svg>
