<svg width="436" height="399" viewBox="0 0 436 399" fill="none" xmlns="http://www.w3.org/2000/svg">
<path d="M395.353 385.661C397.514 375.277 218.259 238.523 136.474 159.662C153.833 151.856 165.723 131.808 169.498 122.76C187.858 139.191 361.464 306.708 425.557 351.909C424.948 377.946 405.167 385.259 395.353 385.661Z" fill="#7A7BE3" stroke="#5B3DA8" stroke-width="1.5" stroke-linejoin="bevel"/>
<path d="M94.0347 73.0563L105.714 60.0058L118.764 71.6848L107.085 84.7353L118.336 94.8033L130.015 81.7528L137.665 88.5991C133.551 106.961 138.065 113.81 140.836 114.939L128.352 128.89C120.014 126.615 108.912 133.104 104.404 136.633L9.90016 52.0616L19.3305 21.6009L48.5616 8.85997L88.6131 44.7023L76.9341 57.7528L94.0347 73.0563Z" fill="url(#paint0_linear_15_6834)" stroke="#5B3DA8" stroke-width="1.5" stroke-linejoin="bevel"/>
<path d="M68.7394 64.1921L70.2572 45.29L38.776 56.0172L22.2917 36.4028C14.3507 47.4497 20.932 53.0152 26.1985 52.8657L32.9487 58.9065C29.6696 67.642 36.3348 71.1215 40.0773 71.7693L68.7394 64.1921Z" fill="url(#paint1_linear_15_6834)"/>
<path d="M49.3671 60.2487C56.7077 61.1449 68.0105 56.3822 69.7591 50.1331C76.5221 25.9638 33.3961 9.61731 24.3555 25.7128C14.3592 43.5099 35.0358 58.4989 49.3671 60.2487Z" fill="#E6E6E6"/>
<ellipse cx="47.0399" cy="39.0988" rx="4.22733" ry="6.03905" transform="rotate(-43.9782 47.0399 39.0988)" fill="#626262"/>
<path d="M133.85 150.826L136.478 159.662C150.823 153.05 163.934 132.906 168.696 123.66L158.818 122.925L145.318 110.844L120.349 138.745L133.85 150.826Z" fill="#474747" stroke="#5B3DA8" stroke-width="1.5" stroke-linejoin="bevel"/>
<defs>
<linearGradient id="paint0_linear_15_6834" x1="19.3305" y1="21.6009" x2="133.185" y2="123.49" gradientUnits="userSpaceOnUse">
<stop stop-color="#8B8B8B"/>
<stop offset="1" stop-color="#5D5D5D"/>
</linearGradient>
<linearGradient id="paint1_linear_15_6834" x1="25.3554" y1="32.9793" x2="64.9568" y2="68.4189" gradientUnits="userSpaceOnUse">
<stop stop-color="#CBCACA"/>
<stop offset="1" stop-color="#A8A5A5"/>
</linearGradient>
</defs>
</svg>
