<svg width="66" height="534" viewBox="0 0 66 534" fill="none" xmlns="http://www.w3.org/2000/svg">
<path d="M8.5823 523.335C17.8343 518.148 3.30998 293.152 9.10656 179.687C26.3903 187.657 49.3185 183.464 58.6222 180.372C58.2815 205.009 45.8905 445.939 53.871 523.961C33.831 540.595 15.3285 530.474 8.5823 523.335Z" fill="#7A7BE3" stroke="#5B3DA8" stroke-width="1.5" stroke-linejoin="bevel"/>
<path d="M46.5739 90.8178L64.0855 91.06L63.8433 108.572L46.3318 108.329L46.123 123.426L63.6346 123.668L63.4926 133.933C46.9411 142.884 44.7381 150.786 45.7055 153.618L26.9863 153.359C23.2285 145.576 11.0451 141.462 5.42313 140.378L7.17665 13.5698L36.345 0.68596L65.146 14.3714L64.4028 68.1138L46.8912 67.8716L46.5739 90.8178Z" fill="url(#paint0_linear_15_6834)" stroke="#5B3DA8" stroke-width="1.5" stroke-linejoin="bevel"/>
<path d="M36.6544 65.9177L51.9093 54.6534L23.1501 37.9487L27.1238 12.6372C13.5776 13.8994 13.7 22.5176 17.2702 26.3921L17.145 35.4498C8.40281 38.7111 10.1539 46.0231 12.1221 49.2715L36.6544 65.9177Z" fill="url(#paint1_linear_15_6834)"/>
<path d="M26.9113 48.7156C31.0543 54.8411 42.0673 60.2405 47.9291 57.457C70.6006 46.6914 54.619 3.42875 36.5427 7.17588C16.5553 11.3192 18.8228 36.7563 26.9113 48.7156Z" fill="#E6E6E6"/>
<ellipse cx="41.3371" cy="33.0752" rx="4.22733" ry="6.03905" transform="rotate(4.98847 41.3371 33.0752)" fill="#626262"/>
<path d="M14.0485 171.907L9.1092 179.69C23.5147 186.171 47.3167 182.836 57.417 180.358L51.487 172.425L51.7375 154.309L14.299 153.792L14.0485 171.907Z" fill="#474747" stroke="#5B3DA8" stroke-width="1.5" stroke-linejoin="bevel"/>
<defs>
<linearGradient id="paint0_linear_15_6834" x1="36.345" y1="0.68596" x2="34.2324" y2="153.459" gradientUnits="userSpaceOnUse">
<stop stop-color="#8B8B8B"/>
<stop offset="1" stop-color="#5D5D5D"/>
</linearGradient>
<linearGradient id="paint1_linear_15_6834" x1="31.7176" y1="12.7008" x2="30.9828" y2="65.8393" gradientUnits="userSpaceOnUse">
<stop stop-color="#CBCACA"/>
<stop offset="1" stop-color="#A8A5A5"/>
</linearGradient>
</defs>
</svg>
