<svg width="1339" height="611" viewBox="0 0 1339 611" fill="none" xmlns="http://www.w3.org/2000/svg">
<rect x="147.189" y="184.637" width="1037" height="369" fill="#6B51B1"/>
<path d="M1258.19 202.637V578.137L1166.69 529.137V202.637H1258.19Z" fill="#8C87E3" stroke="#5B3DA8" stroke-width="1.5"/>
<path d="M80.1895 202.637V578.137L171.689 529.137V202.637H80.1895Z" fill="#8C87E3" stroke="#5B3DA8" stroke-width="1.5"/>
<path d="M1336.19 172.637L2.18945 172.021L175.476 37.6372H1176.89L1336.19 172.637Z" fill="#D9A1E4" stroke="#5B3DA8" stroke-width="1.5"/>
<path d="M1278.61 105.637L1159.19 2.63721H1177.33L1300.69 105.637H1278.61Z" fill="#F7B0CC" stroke="#5B3DA8" stroke-width="1.5"/>
<path d="M1305.76 172.637L1277.19 105.637H1300.17L1336.19 172.637H1305.76Z" fill="#AE86DB" stroke="#5B3DA8" stroke-width="1.5"/>
<path d="M1279.89 106.731L1307.19 171.637L1159.19 38.1517V2.63721L1279.89 106.731Z" fill="#8064BF" stroke="#5B3DA8" stroke-width="1.5"/>
<path d="M59.7657 105.637L181.189 2.63721H161.054L37.1895 105.637H59.7657Z" fill="#F7B0CC" stroke="#5B3DA8" stroke-width="1.5"/>
<path d="M32.1052 172.637L60.1895 105.637H37.6L2.18945 172.637H32.1052Z" fill="#AE86DB" stroke="#5B3DA8" stroke-width="1.5"/>
<path d="M60.4845 105.731L33.1895 170.637L181.189 37.1513V1.63721L60.4845 105.731Z" fill="#8064BF" stroke="#5B3DA8" stroke-width="1.5"/>
<mask id="path-11-inside-1_60_48549" fill="white">
<path d="M1.18945 376.637H1338.19V408.637H1.18945V376.637Z"/>
</mask>
<path d="M1.18945 376.637H1338.19V408.637H1.18945V376.637Z" fill="#E9A4D9"/>
<path d="M1.18945 376.637V375.137H-0.310547V376.637H1.18945ZM1338.19 376.637H1339.69V375.137H1338.19V376.637ZM1338.19 408.637V410.137H1339.69V408.637H1338.19ZM1.18945 408.637H-0.310547V410.137H1.18945V408.637ZM1.18945 376.637V378.137H1338.19V376.637V375.137H1.18945V376.637ZM1338.19 376.637H1336.69V408.637H1338.19H1339.69V376.637H1338.19ZM1338.19 408.637V407.137H1.18945V408.637V410.137H1338.19V408.637ZM1.18945 408.637H2.68945V376.637H1.18945H-0.310547V408.637H1.18945Z" fill="#5B3DA8" mask="url(#path-11-inside-1_60_48549)"/>
<path d="M80.1895 202.637H2.18945V608.637H80.1895V202.637Z" fill="#F7B0CC" stroke="#5B3DA8" stroke-width="1.5"/>
<path d="M1337.19 202.637H1258.19V609.637H1337.19V202.637Z" fill="#F7B0CC" stroke="#5B3DA8" stroke-width="1.5"/>
<path d="M171.689 529.137L80.6895 578.137H1258.19L1166.69 529.137H171.689Z" fill="#8064BF" stroke="#5B3DA8" stroke-width="1.5"/>
<path d="M172.151 317.637L81.1895 377.637H1258.19L1166.73 317.637H172.151Z" fill="#8064BF" stroke="#5B3DA8" stroke-width="1.5"/>
<path d="M709.189 202.637H630.189V609.637H709.189V202.637Z" fill="#F7B0CC" stroke="#5B3DA8" stroke-width="1.5"/>
<mask id="path-18-inside-2_60_48549" fill="white">
<path d="M1.18945 171.637H1338.19V203.637H1.18945V171.637Z"/>
</mask>
<path d="M1.18945 171.637H1338.19V203.637H1.18945V171.637Z" fill="#F7B0CC"/>
<path d="M1.18945 171.637V170.137H-0.310547V171.637H1.18945ZM1338.19 171.637H1339.69V170.137H1338.19V171.637ZM1338.19 203.637V205.137H1339.69V203.637H1338.19ZM1.18945 203.637H-0.310547V205.137H1.18945V203.637ZM1.18945 171.637V173.137H1338.19V171.637V170.137H1.18945V171.637ZM1338.19 171.637H1336.69V203.637H1338.19H1339.69V171.637H1338.19ZM1338.19 203.637V202.137H1.18945V203.637V205.137H1338.19V203.637ZM1.18945 203.637H2.68945V171.637H1.18945H-0.310547V203.637H1.18945Z" fill="#5B3DA8" mask="url(#path-18-inside-2_60_48549)"/>
<mask id="path-20-inside-3_60_48549" fill="white">
<path d="M1.18945 577.637H1338.19V610.637H1.18945V577.637Z"/>
</mask>
<path d="M1.18945 577.637H1338.19V610.637H1.18945V577.637Z" fill="#E9A4D9"/>
<path d="M1.18945 577.637V576.137H-0.310547V577.637H1.18945ZM1338.19 577.637H1339.69V576.137H1338.19V577.637ZM1338.19 610.637V612.137H1339.69V610.637H1338.19ZM1.18945 610.637H-0.310547V612.137H1.18945V610.637ZM1.18945 577.637V579.137H1338.19V577.637V576.137H1.18945V577.637ZM1338.19 577.637H1336.69V610.637H1338.19H1339.69V577.637H1338.19ZM1338.19 610.637V609.137H1.18945V610.637V612.137H1338.19V610.637ZM1.18945 610.637H2.68945V577.637H1.18945H-0.310547V610.637H1.18945Z" fill="#5B3DA8" mask="url(#path-20-inside-3_60_48549)"/>
</svg>
