<svg width="628" height="192" viewBox="0 0 628 192" fill="none" xmlns="http://www.w3.org/2000/svg">
<g filter="url(#filter0_d_1_66)">
<path d="M166.789 11.7156L18.1232 16.4581L4 43L18.1232 183.5H197.265L438.103 178.757L624 170L611.298 91.5V11.7156L292.156 0L166.789 11.7156Z" fill="white"/>
<path d="M27.2001 31.6865C27.2722 32.408 27.2435 33.3814 27.187 34.1026C27.1696 34.3295 27.0604 34.2173 27.0437 34.3783C27.011 34.6822 27.0712 34.9771 27.0304 35.2761C27.0164 35.3783 26.845 35.2561 26.8343 35.3636C26.7761 35.9415 26.8344 36.4971 26.8149 37.0795C26.7842 38.0103 26.7651 38.9345 26.7537 39.8663C26.7286 41.8069 26.7379 43.7635 26.7448 45.7527C26.7481 46.7153 26.6314 47.8975 26.7289 48.8903C26.7405 49.0059 26.8856 48.9323 26.8985 48.954C27.0952 49.295 26.7942 49.189 26.7618 49.4182C26.6339 50.3229 26.6524 51.3213 26.7378 52.1891C26.7747 52.5595 27.0551 52.1815 26.903 52.5544C26.8928 52.5803 26.7333 52.4929 26.7199 52.5935C26.6898 52.8214 26.7323 53.255 26.7259 53.4345C26.7129 53.7809 26.7163 53.8361 26.7255 54.1577C26.7365 54.5956 26.6773 55.1371 26.7291 55.6027C26.7406 55.7033 26.8963 55.5641 26.9292 55.7241C26.9621 55.8841 26.9636 56.3136 26.931 56.4607C26.8983 56.6075 26.7701 56.5501 26.7421 56.5769C26.5057 56.7957 26.861 57.2748 26.8717 57.3389C27.0561 58.5007 26.9005 59.5 26.9426 60.5874C26.9752 61.4202 27.0731 62.2973 27.0958 63.0849C27.1223 64.0226 27.0679 64.8188 27.1211 65.7324C27.1266 65.829 27.3103 65.7078 27.3174 65.8258C27.3915 67.0677 27.4249 68.3101 27.3536 69.5573C27.3462 69.6822 27.1735 69.5294 27.1563 69.6547C27.0545 70.4227 26.7838 71.643 27.5257 72.0624C27.522 72.5828 27.5227 73.2055 27.4001 73.6758C27.3211 73.9785 27.1267 73.6976 27.2216 74.0604C27.2428 74.1422 27.3953 74.027 27.4152 74.1502C27.4984 74.6664 27.4754 75.2377 27.5831 75.7497C27.6053 75.8539 27.7453 75.818 27.7723 75.8463C27.9911 76.0845 27.6714 76.5166 27.6513 76.6085C27.502 77.3075 27.6011 77.8071 27.6307 78.449C27.6375 78.598 27.818 78.4118 27.8314 78.5549C27.8984 79.2982 27.9239 80.0667 27.8803 80.8003C27.8701 80.9634 27.7 80.8234 27.6869 80.9018C27.631 81.2471 27.9408 81.3054 27.8933 81.6361C27.8837 81.7059 27.743 81.6749 27.7285 81.6883C27.5009 81.8988 27.849 82.0507 27.8593 82.1009C27.9981 82.7359 27.6687 83.1654 27.7553 83.7816C27.766 83.8552 27.9313 83.6779 27.9507 83.8856C28.0178 84.5965 28.0615 85.3301 28.0813 86.0621C28.1 86.7564 28.0971 87.4463 28.0721 88.1185C28.0644 88.3334 27.923 88.1895 27.9076 88.204C27.6684 88.4394 28.0171 88.559 28.0345 88.6277C28.1622 89.1701 27.9115 89.701 28.3409 90.0474C28.3561 92.3804 28.7477 94.6756 28.5586 97.0057C28.5566 97.0353 28.3856 96.9953 28.3823 97.0543C28.3415 97.765 28.5909 97.6077 28.944 98.0507C29.0327 98.1622 28.6766 98.5487 28.651 98.5824C28.5562 98.7053 28.2985 98.6051 28.2814 98.6452C28.1484 98.976 28.9664 98.8609 28.9999 99.2892C28.9996 99.3027 28.8439 99.2582 28.8316 99.2953C28.7931 99.4106 28.8618 99.5167 28.8183 99.6311C28.7175 99.8922 28.3251 100.013 28.5877 100.379C28.6217 100.425 29.0821 100.314 29.0903 100.699C29.0931 100.851 29.1552 101.529 29.1403 101.721C29.1253 101.913 28.9646 101.795 28.9592 101.809C28.8017 102.336 28.7038 102.149 28.4304 102.428C28.1581 102.706 28.8511 102.579 28.9375 102.676C29.0237 102.774 28.8905 103.164 28.8411 103.261C28.7917 103.357 28.6868 103.25 28.6613 103.335C28.4951 103.895 29.0276 103.544 29.1532 103.714C29.4504 104.112 28.9595 104.482 28.9411 104.874C28.9361 104.979 29.047 104.884 29.0658 104.976C29.1388 105.341 28.9956 105.574 29.1792 105.98C29.2092 106.047 29.5495 106.36 29.3397 106.598C29.3094 106.632 29.1728 106.555 29.1572 106.714C29.1339 106.953 29.1416 107.372 29.2068 107.623C29.2548 107.807 29.449 107.575 29.4033 107.815C29.3828 107.922 29.2416 107.739 29.2136 107.939C29.1855 108.138 29.2342 108.634 29.255 108.821C29.2759 109.008 29.4282 108.891 29.4404 108.905C29.5106 108.991 29.6206 109.349 29.6232 109.381C29.7851 110.988 29.649 112.506 29.8852 114.068C29.9035 114.19 30.0659 114.092 30.0704 114.111C30.181 114.525 29.6979 114.236 29.5741 114.544C29.9152 114.469 29.8687 114.647 29.9346 114.941C29.9667 115.083 30.0929 114.992 30.1078 115.004C30.3308 115.199 30.0828 115.371 30.0328 115.415C29.8489 115.574 30.0964 115.705 29.9737 115.813C29.8519 115.92 29.6371 115.72 29.6666 116.003C29.7977 116.071 30.1003 115.83 30.1731 116.04C30.4486 116.839 30.3436 118.389 30.3817 119.042C30.4206 119.705 30.4642 119.912 30.4573 120.294C30.4462 120.997 30.66 120.719 30.8126 121.135C30.9652 121.55 30.3555 121.402 30.2351 121.476C30.1147 121.55 30.2514 121.6 30.1897 121.684C30.1279 121.767 30.0251 121.611 30.0171 121.793C30.0092 121.975 30.2836 122.435 30.4223 122.483C30.7161 122.586 30.9882 122.341 30.9323 122.814C30.9289 122.841 30.7652 122.77 30.7601 122.875C30.7258 123.712 30.8069 124.56 30.7875 125.383C30.7848 125.498 30.6019 125.415 30.5984 125.482C30.561 126.179 30.8252 125.902 31.1871 126.238C30.7493 126.201 30.5084 126.432 30.5621 126.954C30.5939 127.265 30.7755 127.191 30.9291 127.375C30.9752 127.43 30.8705 127.663 30.9631 127.695C31.2655 127.796 31.5653 127.554 31.4953 128.101C31.4917 128.125 31.326 128.068 31.3252 128.15C31.3192 128.67 31.6284 128.71 31.7271 129.266C31.8043 129.7 31.7084 130.5 31.7373 131.017C31.3434 131.053 31.3801 131.368 31.5986 131.56C31.6488 131.595 31.7094 131.633 31.776 131.659C31.8132 131.992 31.8859 132.34 31.8879 132.656C31.8888 132.765 31.7392 132.717 31.7262 132.732C31.5223 132.972 31.8666 133.069 31.8901 133.138C32.1308 133.883 31.983 134.538 32.3338 135.222C32.3463 135.246 32.6856 135.235 32.4724 135.464C32.4577 135.479 32.2685 135.262 32.3106 135.608C32.3542 135.963 32.2728 136.609 32.5043 137.073C32.5598 137.183 32.8758 137.43 32.701 137.692C32.6772 137.727 32.5764 137.709 32.5303 137.761C32.3832 137.927 32.7332 137.96 32.4747 138.175C32.2167 138.395 32.0578 138.775 32.332 139.223C32.3403 139.237 32.6252 139.309 32.6452 139.46C32.6774 139.704 32.6745 140.038 32.7185 140.298C32.7391 140.418 32.8919 140.314 32.8984 140.335C33.1219 141.123 33.0674 141.713 33.1485 142.593C33.1624 142.751 33.4641 143.168 33.3379 143.504C33.2 143.874 32.3277 143.655 32.6547 144.405C32.785 144.701 33.8828 144.924 33.4464 145.567C33.7686 146.627 33.6772 147.678 34.0711 148.729C34.0888 148.777 34.4045 148.878 34.4223 148.992C34.448 149.16 34.3324 149.28 34.3473 149.405C34.4055 149.92 34.611 150.358 34.6937 150.855C34.7251 151.042 34.5731 151.002 34.6116 151.228C34.6504 151.454 34.8609 151.556 34.8375 151.879C34.8187 152.119 34.4963 152.424 34.5189 152.736C34.8866 152.667 34.9238 152.875 35.1017 153.219C35.136 153.285 35.2462 153.182 35.269 153.211C35.3641 153.33 35.2878 153.481 35.388 153.593C35.4122 153.62 35.537 153.593 35.5638 153.614C35.7956 153.786 35.5992 154.21 35.5647 154.281C35.4346 154.559 35.6226 154.632 35.5925 154.828C35.5626 155.024 35.4075 154.778 35.4137 154.998C35.427 155.457 35.5849 156.011 35.6909 156.454C35.734 156.63 35.8688 156.468 35.8788 156.492C35.9337 156.637 35.9525 156.792 35.982 156.932C36.0279 157.133 36.0971 157.306 36.3241 157.363C35.566 157.87 36.4604 157.561 36.4892 158.096C36.492 158.137 36.1372 158.365 36.0114 158.225C35.8857 158.084 35.9207 157.795 35.7623 157.602C35.7242 157.557 35.262 157.361 35.2283 157.325C35.1704 157.266 35.1527 157.211 35.1602 157.159L35.1562 157.144C35.1878 156.959 35.5558 156.832 35.5783 156.812C35.886 156.532 35.3886 156.273 35.3366 156.184C35.0986 155.778 35.0926 155.386 34.9124 155.039C34.7958 154.814 34.3948 154.884 34.3621 154.691C34.2548 154.052 34.7573 153.705 34.1459 153.22C34.0157 153.116 33.6084 153.334 33.8503 152.805C33.8656 152.772 34.1039 152.362 33.8651 152.21C33.835 152.191 33.7085 152.219 33.691 152.188C33.5755 151.982 33.6463 151.818 33.5486 151.59C33.45 151.358 33.3208 151.093 33.3082 150.808C33.3008 150.638 33.4961 150.384 33.5383 150.294C33.6605 150.036 33.3416 149.857 33.5169 149.68C33.6932 149.502 34.0543 149.714 34.1151 149.324C33.7824 149.374 33.4374 149.408 33.1012 149.45C32.96 148.654 32.9223 147.854 32.7634 147.058C32.7435 146.96 32.5838 147.093 32.5578 146.988C32.4477 146.538 32.5069 146.135 32.3742 145.675C32.2726 145.329 32.0139 144.957 31.9029 144.595C32.242 144.297 32.0195 143.769 31.9851 143.352C31.9729 143.206 32.0756 143.198 32.0921 143.094C32.1515 142.698 31.8456 142.929 31.7755 142.835C31.4755 142.424 32.2273 142.254 32.1224 141.736C32.1172 141.709 31.6557 141.431 31.6226 141.386C31.4088 141.112 31.7551 141.312 31.7547 141.122C31.7544 140.778 31.8114 140.518 31.6278 140.136C31.574 140.027 31.2767 139.79 31.435 139.529C31.4558 139.495 31.5923 139.49 31.5962 139.465C31.6555 138.999 31.2347 139.066 31.0523 138.839C30.8704 138.616 31.0987 138.179 31.1697 138.086C31.354 137.849 31.2873 138.229 31.3107 138.238C31.5848 138.332 31.4949 138.048 31.4835 137.838C31.8913 137.742 31.8194 137.449 31.4692 137.615C31.431 137.634 31.4957 137.793 31.4835 137.838C31.0493 137.717 30.9456 137.398 31.2655 136.968C31.4154 136.766 31.6481 136.899 31.4918 136.398C31.4209 136.17 31.151 136.305 31.0409 136.109C30.7875 135.649 30.9606 135.018 30.8409 134.523C30.7977 134.345 30.6692 134.544 30.6346 134.425C30.5435 134.117 30.6166 133.817 30.5065 133.501C30.4964 133.473 30.3446 133.57 30.3269 133.469C30.2208 132.879 30.2011 132.366 30.1402 131.775L30.1341 131.729C30.1233 131.557 30.1092 131.379 30.0885 131.192C30.0445 130.795 29.878 130.13 29.8505 129.72C29.8043 129.03 29.9487 128.15 29.8261 127.559C29.7476 127.182 29.5927 127.282 29.4632 127.129C29.2119 126.831 29.5393 126.224 29.5914 126.143C29.5932 126.141 29.667 126.466 29.7324 126.282C29.8968 126.161 29.5926 126.147 29.5914 126.143C29.6251 126.092 29.5909 125.416 29.546 125.29C29.5214 125.221 29.3703 125.277 29.3604 125.241C29.1281 124.372 28.9955 123.48 28.9764 122.576C28.9779 122.559 29.1542 122.565 29.1556 122.528C29.1797 121.999 28.9326 121.682 28.7635 121.269C28.5941 120.854 28.6013 120.499 28.875 120.22C28.8053 119.902 28.891 119.422 28.9444 119.143C28.9983 118.869 28.6563 118.865 28.6473 118.842C28.3613 118.131 28.5133 117.683 28.4703 116.919C28.4498 116.55 28.3328 115.842 28.2585 115.45C28.1992 115.141 28.2608 114.945 28.1835 114.666C28.1731 114.628 28.026 114.681 28.0191 114.67C27.8089 114.369 28.1918 114.487 28.2515 114.415C28.4686 114.154 28.5823 113.995 28.4315 113.593C28.3969 113.501 27.841 113.278 27.7942 113.109C27.7343 112.889 27.9323 112.956 27.8647 112.726C27.8591 112.706 27.7421 112.722 27.734 112.576C27.6946 111.898 27.6975 111.168 27.6232 110.468C27.6135 110.374 27.4382 110.512 27.4212 110.375C27.3418 109.735 27.2858 109.02 27.3185 108.387C27.3271 108.23 27.4659 108.316 27.5017 108.279C27.718 108.052 27.3521 107.788 27.3415 107.739C27.0786 106.604 27.312 105.697 27.0672 104.531C27.0532 104.467 26.6476 104.008 26.9427 103.762C26.9623 103.745 27.2648 103.502 27.03 103.327C27.0153 103.316 26.8615 103.466 26.8589 103.227C26.8562 102.988 26.7153 102.619 26.8704 102.279C26.9192 102.172 27.2192 101.904 26.9398 101.617C26.9204 101.598 26.3064 101.169 26.6907 100.97C26.7539 100.937 27.1768 100.933 26.9323 100.584C26.8849 100.517 26.8011 100.652 26.728 100.472C26.6155 100.197 26.6986 99.8111 26.4844 99.4801C26.4466 99.4224 26.1411 99.1873 26.3419 98.9639C26.3733 98.9289 26.5185 98.9796 26.5258 98.8692C26.5612 98.3438 26.4258 97.8064 26.4835 97.273C26.5036 97.0837 26.7378 97.1621 26.7841 96.9629C26.8303 96.764 26.8595 96.3648 26.7408 96.1703C26.6219 95.9748 26.2764 96.2237 26.2249 95.9211C26.0013 94.6023 26.1196 93.2702 26.0593 91.9443C26.0504 91.7472 25.932 91.9194 25.9096 91.6293C25.8262 90.562 25.5826 88.7244 25.7991 87.7781C25.9724 87.0218 26.1998 87.9451 26.2535 87.3723C26.2789 87.096 25.8392 86.8259 25.8218 86.7605C25.7673 86.562 25.7451 86.3805 25.7377 86.2072C25.7212 85.8241 25.7768 85.4817 25.7131 85.0834C25.694 84.9639 25.5304 85.0921 25.516 84.9903C25.4653 84.6428 25.5196 84.2711 25.4859 83.9382C25.4704 83.7888 25.3416 83.8241 25.3436 83.6857C25.3468 83.3547 25.3846 83.06 25.4883 82.7316C25.4977 82.7017 25.6714 82.8899 25.6633 82.6456C25.6498 82.2502 25.7425 81.7535 25.5925 81.3067C25.5475 81.1741 25.2491 81.1859 25.4388 80.8844C25.4784 80.8212 25.8406 80.8788 25.5127 80.5585C25.4581 80.5046 25.0097 79.9605 25.2636 79.6679C25.3303 79.5906 25.6131 79.3882 25.5583 79.2282C25.5498 79.2066 25.3944 79.3034 25.3716 79.1698C25.2938 78.6988 25.2845 78.202 25.209 77.7193C25.1885 77.5903 25.0329 77.7923 25.0076 77.5995C24.9378 77.0682 24.9459 76.4021 24.9715 75.8798C24.9813 75.6865 25.1253 75.8125 25.1395 75.7977C25.3711 75.5605 25.0365 75.4442 25.0136 75.3706C24.8759 74.9123 25.0126 74.5534 24.9509 74.128C24.9343 74.0103 24.782 74.1018 24.7669 74.0789C24.6187 73.8416 24.9085 74.0096 24.9319 73.8538C24.9985 73.417 24.9629 72.9378 24.9223 72.503C24.9071 72.3425 24.7343 72.5319 24.7227 72.3878C24.6511 71.5356 24.6276 70.6514 24.6901 69.8152C24.7022 69.6581 24.8463 69.7501 24.8768 69.7161C25.0898 69.4817 24.7708 69.1677 24.7383 69.092C24.5905 68.752 24.7081 68.6125 24.6717 68.3093C24.4915 66.8274 24.4965 64.9901 24.4906 63.5822C24.4822 61.7496 24.561 60.3314 24.4621 58.5848C24.456 58.4746 24.2742 58.5926 24.2666 58.4977C24.1764 57.2625 24.2061 56.0485 24.1099 54.8131C24.1023 54.7115 23.9311 54.8642 23.913 54.7014C23.8747 54.3654 23.8703 53.9538 23.915 53.6067C23.9365 53.4399 24.0952 53.6572 24.1138 53.4896C24.1574 53.0979 24.1565 52.6925 24.1151 52.2934C24.0971 52.1236 23.9253 52.3862 23.9159 52.1652C23.8493 50.6773 23.7718 49.2048 23.9593 47.688C23.9722 47.5845 24.3358 47.4845 24.2589 47.2682C24.1568 47.2544 24.0372 47.259 23.9283 47.2549C23.8038 45.0743 23.8694 42.9188 23.8283 40.7452C23.8265 40.6514 23.6369 40.8187 23.6324 40.6375C23.6265 40.4032 23.6179 40.1757 23.6101 39.9541C23.582 39.151 23.5615 38.3725 23.6885 37.5562C23.7044 37.4487 24.0474 37.4909 23.9871 37.1831C23.9762 37.1298 23.9178 36.6699 23.8402 36.5491C23.8286 36.5332 23.6715 36.6218 23.6628 36.4731C23.6143 35.6044 23.6256 34.702 23.6987 33.8259C23.7109 33.6873 23.8847 33.8293 23.8949 33.7311C23.9655 33.0267 23.8149 32.2528 23.9506 31.5783C24.042 31.1249 24.3399 31.2812 24.6222 31.0353C24.6619 30.9962 24.661 30.7224 24.8286 30.7002C25.2502 30.6518 25.7165 30.7757 26.1655 30.7086C26.2137 30.6979 26.2094 30.6066 26.223 30.5383C26.2298 30.5048 26.2416 30.485 26.2664 30.5004C26.2912 30.5051 26.3281 30.4793 26.3882 30.5393C26.4042 30.5558 26.4891 30.8185 26.5706 30.8866C26.6267 30.9293 26.7954 30.8434 26.8683 30.9344C26.9413 31.0305 26.8007 31.1322 26.8879 31.2925C26.9758 31.4431 27.1684 31.3707 27.2001 31.6865ZM29.1845 117.903C29.3227 117.637 28.7238 117.658 28.8925 117.915C28.9014 117.927 29.1778 117.917 29.1845 117.903ZM33.3679 147.775C33.5689 147.41 33.1464 147.254 32.9878 147.52C32.8293 147.786 33.3071 147.886 33.3679 147.775ZM34.1997 151.061C34.3278 150.647 33.4842 150.755 33.7339 151.123C33.7481 151.144 34.1923 151.085 34.1997 151.061ZM24.735 32.1449C24.7428 32.1381 24.7452 31.9459 24.7371 31.937C24.5443 31.8362 24.5399 32.2346 24.735 32.1449ZM35.1199 154.296C35.2047 154.155 34.9984 153.849 34.8927 154.026C34.8077 154.169 35.0144 154.472 35.1199 154.296ZM28.651 104.909C28.6595 104.904 28.6555 104.759 28.6055 104.766C28.4446 104.79 28.507 104.986 28.651 104.909ZM37.3719 159.543C36.9422 159.321 36.8338 158.893 36.9045 158.711C36.9769 158.517 37.1357 158.526 37.3691 158.777C37.4663 158.88 36.9993 158.746 37.0885 158.913C37.3087 159.256 37.6957 158.957 37.9501 159.265C38.0179 159.334 37.4361 159.592 37.37 159.543C37.3706 159.543 37.3713 159.543 37.3719 159.543ZM29.8856 117.69C29.8929 117.683 29.8814 117.486 29.8731 117.482C29.6737 117.393 29.6971 117.792 29.8856 117.69ZM28.3556 96.4843C28.3715 96.4717 28.3529 96.008 28.3364 95.9946C28.0088 95.7762 28.0454 96.7136 28.3556 96.4843ZM31.7253 131.026C31.891 131.177 31.9596 131.362 31.8813 131.528L31.8787 131.508C31.8578 131.56 31.824 131.61 31.7761 131.658C31.7719 131.614 31.7673 131.57 31.7623 131.526L31.7644 131.541C31.7523 131.372 31.7358 131.2 31.7253 131.026Z" fill="#686868"/>
<path d="M47.4182 157.775C50.5078 157.744 54.5854 157.842 57.6738 157.957C58.6392 157.993 58.1476 158.093 58.8265 158.123C60.1134 158.18 61.3453 158.145 62.6369 158.213C63.0607 158.236 62.5297 158.396 62.9753 158.416C65.4342 158.526 67.7629 158.52 70.2593 158.598C74.9073 158.743 79.5245 158.882 84.1684 159.02C91.7685 159.255 99.3248 159.774 107.004 160.136C111.098 160.338 116.078 160.673 120.277 160.733C120.767 160.74 120.479 160.584 120.573 160.575C122.048 160.433 121.582 160.717 122.517 160.783C126.321 161.049 130.56 161.162 134.238 161.177C135.79 161.183 134.232 160.86 135.807 161.054C135.917 161.067 135.514 161.216 135.946 161.241C136.959 161.298 138.734 161.3 139.516 161.325C140.992 161.374 141.186 161.375 142.574 161.397C144.471 161.428 146.703 161.535 148.695 161.522C149.122 161.518 148.558 161.352 149.241 161.332C149.92 161.312 151.774 161.344 152.359 161.387C152.965 161.431 152.706 161.555 152.813 161.585C153.433 161.762 154.668 161.656 155.453 161.575C155.768 161.541 156.005 161.512 156.084 161.51C161.046 161.405 165.207 161.619 169.858 161.636C173.368 161.649 177.145 161.595 180.463 161.608C184.473 161.626 187.829 161.714 191.687 161.698C192.097 161.696 191.617 161.508 192.117 161.506C197.404 161.481 202.689 161.493 207.947 161.607C208.477 161.618 207.794 161.786 208.324 161.807C211.561 161.935 216.682 162.244 218.598 161.515C220.798 161.534 223.447 161.551 225.413 161.687C226.679 161.775 225.453 161.961 227.004 161.877C227.353 161.858 226.898 161.702 227.422 161.686C229.63 161.617 232.051 161.655 234.236 161.56C234.68 161.541 234.558 161.4 234.684 161.374C235.742 161.161 237.508 161.492 237.893 161.514C240.823 161.681 242.958 161.593 245.688 161.578C246.321 161.575 245.572 161.39 246.18 161.38C249.334 161.33 252.61 161.321 255.705 161.38C256.394 161.393 255.762 161.561 256.091 161.575C257.543 161.638 257.861 161.329 259.248 161.384C259.541 161.395 259.377 161.535 259.431 161.549C260.265 161.781 260.997 161.436 261.211 161.426C263.938 161.3 265.671 161.637 268.308 161.561C268.623 161.552 267.912 161.383 268.795 161.367C274.69 161.26 280.92 161.24 286.743 161.307C287.659 161.317 287.007 161.457 287.065 161.473C288.006 161.715 288.605 161.367 288.901 161.35C291.222 161.229 293.419 161.484 294.994 161.057C303.195 161.06 311.462 160.79 319.583 160.79C321.27 160.788 322.838 160.8 324.501 160.824C324.627 160.826 324.405 160.998 324.656 161C327.664 161.028 327.041 160.781 329.044 160.416C329.547 160.324 331.053 160.672 331.181 160.697C331.681 160.788 331.171 161.05 331.338 161.066C332.718 161.19 332.483 160.371 334.289 160.324C334.345 160.324 334.113 160.482 334.264 160.493C334.724 160.529 335.217 160.455 335.686 160.495C336.772 160.587 337.128 160.978 338.768 160.698C338.973 160.662 338.654 160.204 340.28 160.179C340.9 160.17 343.822 160.073 344.605 160.078C345.424 160.082 344.867 160.251 344.925 160.255C347.116 160.384 346.287 160.493 347.372 160.752C348.487 161.009 348.154 160.318 348.598 160.225C349.045 160.132 350.618 160.241 351.027 160.283C351.422 160.326 350.935 160.439 351.286 160.459C353.592 160.586 352.276 160.075 353.03 159.935C354.829 159.604 356.236 160.069 357.867 160.054C358.306 160.05 357.939 159.947 358.338 159.919C359.913 159.812 360.853 159.935 362.621 159.709C362.899 159.672 364.348 159.295 365.272 159.483C365.406 159.51 365.035 159.657 365.708 159.655C366.71 159.653 368.503 159.598 369.567 159.504C370.352 159.434 369.438 159.264 370.438 159.283C370.882 159.291 370.068 159.455 370.901 159.461C371.726 159.467 373.84 159.358 374.641 159.315C375.444 159.271 374.996 159.131 375.061 159.117C375.45 159.035 376.984 158.882 377.12 158.875C383.975 158.518 390.323 158.484 397.001 158.122C397.526 158.093 397.169 157.937 397.25 157.931C399.026 157.788 397.637 158.298 398.897 158.4C398.695 158.061 399.467 158.093 400.707 158.007C401.314 157.965 400.978 157.844 401.033 157.828C401.929 157.59 402.588 157.829 402.741 157.877C403.337 158.053 403.98 157.795 404.396 157.913C404.812 158.03 403.87 158.258 405.099 158.212C405.41 158.088 404.672 157.836 405.236 157.727C405.291 157.716 405.358 157.706 405.441 157.699C408.911 157.374 415.396 157.426 418.201 157.372C420.993 157.317 421.885 157.27 423.52 157.269C426.459 157.269 425.368 157.059 427.199 156.9C429.024 156.741 428.149 157.356 428.415 157.476C428.676 157.597 428.953 157.459 429.276 157.52C429.597 157.581 428.907 157.686 429.66 157.693C430.42 157.699 432.467 157.42 432.73 157.281C433.288 156.985 432.348 156.712 434.352 156.766C434.467 156.769 434.097 156.934 434.539 156.939C438.016 156.972 441.648 156.892 445.128 156.917C445.608 156.921 445.183 157.104 445.462 157.108C448.361 157.152 447.319 156.884 448.904 156.523C448.556 156.963 449.442 157.206 451.642 157.16C452.966 157.132 452.737 156.948 453.589 156.797C453.844 156.751 454.783 156.86 454.95 156.767C455.504 156.465 454.613 156.16 456.889 156.24C456.989 156.244 456.675 156.409 457.019 156.411C459.243 156.426 459.505 156.117 461.908 156.029C463.792 155.96 467.148 156.074 469.296 156.059C469.261 156.545 471.286 156.392 472.099 156.041C473.496 156.026 474.997 155.976 476.344 155.995C476.809 156.001 476.507 156.148 476.566 156.162C477.468 156.382 478.066 156.044 478.367 156.025C481.621 155.835 484.288 156.028 487.385 155.725C487.495 155.714 487.669 155.373 488.507 155.603C488.561 155.619 487.536 155.792 489 155.775C490.456 155.758 493.223 155.883 495.252 155.686C495.746 155.639 496.981 155.341 497.978 155.535C498.113 155.561 497.968 155.66 498.162 155.71C498.79 155.869 499.124 155.522 499.858 155.797C500.585 156.071 502.121 156.257 504.155 156.017C504.221 156.01 504.69 155.73 505.344 155.721C506.389 155.707 507.812 155.734 508.909 155.71C509.426 155.699 509.092 155.538 509.181 155.533C512.195 155.389 514.517 155.447 517.515 155.454C517.934 155.453 518.364 155.451 518.81 155.447C519.513 155.441 521.385 155.165 522.75 155.312C524.204 155.473 522.749 156.332 526.038 156.055C527.41 155.942 529.014 154.858 531.47 155.341C536.128 155.095 540.446 155.273 545.114 154.984C545.327 154.971 545.962 154.666 546.465 154.66C547.213 154.651 547.618 154.779 548.14 154.777C550.32 154.775 552.36 154.619 554.446 154.601C555.257 154.594 554.984 154.739 555.944 154.731C556.884 154.723 557.545 154.526 558.833 154.596C559.792 154.65 560.807 155.015 562.099 155.042C562.156 154.668 563.02 154.663 564.63 154.548C564.936 154.525 564.606 154.399 564.751 154.381C565.34 154.308 565.864 154.411 566.439 154.333C566.576 154.314 566.582 154.187 566.693 154.164C567.612 153.968 569.206 154.246 569.447 154.295C570.508 154.48 570.931 154.314 571.748 154.388C572.531 154.462 571.364 154.556 572.273 154.601C574.17 154.695 576.603 154.691 578.534 154.742C579.286 154.761 578.777 154.578 578.885 154.577C580.479 154.571 582.081 154.827 582.979 154.556C583.543 155.075 583.777 155.034 584.219 154.951C584.61 154.873 585.151 154.767 586.186 154.898C586.362 154.919 586.578 155.347 585.881 155.374C585.425 155.39 584.823 155.305 584.195 155.242C583.876 155.201 583.53 155.175 583.199 155.182C582.977 155.182 581.673 155.493 581.497 155.511C580.127 155.632 579.939 155.013 579.873 154.975C579.062 154.579 577.473 154.968 577.057 154.992C575.147 155.096 573.542 155.004 571.951 155.098C570.89 155.16 570.817 155.567 569.991 155.557C567.275 155.528 566.325 154.971 563.754 155.49C563.211 155.602 563.787 156.038 561.787 155.714C561.661 155.694 560.222 155.394 559.355 155.609C559.252 155.636 559.257 155.765 559.121 155.778C558.21 155.862 557.538 155.769 556.541 155.835C555.537 155.901 554.285 155.996 553.134 155.973C552.426 155.96 551.512 155.736 551.185 155.683C550.252 155.53 549.185 155.83 548.624 155.635C548.033 155.44 549.18 155.103 547.628 155C547.578 155.338 547.452 155.685 547.365 156.025C543.967 156.083 540.577 156.048 537.171 156.141C536.74 156.153 537.186 156.324 536.722 156.341C534.848 156.413 533.115 156.325 531.156 156.423C529.585 156.501 527.954 156.732 526.316 156.821C525.308 156.461 522.952 156.65 521.198 156.66C520.598 156.663 520.635 156.559 520.205 156.536C518.574 156.454 519.344 156.774 518.897 156.839C518.334 156.92 517.916 156.913 517.551 156.863C516.687 156.738 516.139 156.368 514.516 156.415C514.398 156.419 512.953 156.859 512.749 156.889C511.464 157.082 512.534 156.75 511.724 156.737C510.261 156.711 509.239 156.634 507.521 156.79C507.025 156.835 505.83 157.115 504.84 156.937C504.711 156.914 504.779 156.777 504.676 156.771C502.823 156.676 502.776 157.103 501.706 157.269C500.642 157.435 498.998 157.173 498.655 157.096C497.769 156.894 499.329 156.988 499.375 156.966C499.928 156.699 498.727 156.767 497.801 156.764C497.662 156.349 496.384 156.399 496.855 156.762C496.909 156.801 497.618 156.748 497.801 156.764C497.012 157.189 495.601 157.27 494.03 156.918C493.299 156.753 493.988 156.53 491.772 156.651C490.765 156.706 491.152 156.986 490.273 157.082C488.254 157.301 485.615 157.086 483.518 157.17C482.761 157.201 483.502 157.343 482.985 157.37C481.617 157.44 480.392 157.347 479.015 157.435C478.89 157.443 479.198 157.602 478.77 157.613C475.511 157.698 472.673 157.65 469.273 157.718C467.629 157.751 464.694 157.904 462.991 157.922C460.042 157.954 456.404 157.793 453.887 157.907C452.246 157.98 452.607 158.137 451.906 158.265C450.552 158.513 448.138 158.178 447.811 158.125C447.801 158.123 449.217 158.052 448.459 157.985C448.016 157.819 447.827 158.124 447.811 158.125C447.597 158.091 444.775 158.119 444.211 158.164C443.906 158.188 444.081 158.34 443.922 158.35C440.148 158.578 436.369 158.709 432.531 158.734C432.464 158.732 432.561 158.555 432.402 158.554C430.192 158.533 428.769 158.784 426.944 158.959C425.111 159.135 423.672 159.132 422.573 158.863C421.206 158.939 419.202 158.864 418.074 158.816C416.944 158.769 416.778 159.115 416.681 159.124C413.578 159.433 411.746 159.295 408.513 159.373C407.717 159.392 406.481 159.443 405.299 159.502C404.152 159.557 403.053 159.618 402.251 159.666C400.908 159.747 400.16 159.696 398.919 159.796C398.754 159.809 398.927 159.954 398.876 159.962C397.528 160.197 398.166 159.801 397.884 159.746C396.885 159.546 396.212 159.445 394.503 159.631C394.096 159.674 392.952 160.256 392.234 160.319C391.278 160.401 391.629 160.194 390.639 160.285C390.555 160.292 390.577 160.409 389.97 160.431C387.121 160.538 384.017 160.617 381.06 160.773C380.657 160.794 381.184 160.955 380.599 160.989C377.862 161.145 374.858 161.286 372.182 161.328C371.526 161.337 371.93 161.187 371.786 161.155C370.904 160.962 369.668 161.363 369.469 161.379C364.582 161.774 360.84 161.631 355.841 161.976C355.573 161.995 353.494 162.442 352.552 162.162C352.488 162.143 351.564 161.856 350.745 162.105C350.693 162.12 351.283 162.265 350.264 162.284C349.294 162.302 347.627 162.47 346.277 162.332C345.851 162.289 344.76 162.004 343.5 162.299C343.433 162.319 341.385 162.96 340.69 162.581C340.57 162.519 340.691 162.094 339.135 162.355C338.836 162.405 339.385 162.484 338.593 162.565C337.399 162.69 335.812 162.62 334.336 162.847C334.085 162.887 333.01 163.201 332.114 163.006C331.974 162.975 332.236 162.828 331.765 162.824C329.58 162.803 327.248 162.951 325.022 162.903C324.22 162.886 324.627 162.649 323.783 162.606C322.969 162.563 321.32 162.539 320.439 162.66C319.681 162.766 320.303 163.037 319.63 163.144C319.529 163.161 319.398 163.173 319.226 163.181C313.596 163.418 307.997 163.3 302.386 163.355C301.547 163.363 302.229 163.482 301.015 163.503C296.47 163.582 288.668 163.808 284.727 163.579C281.571 163.396 285.539 163.18 283.126 163.119C281.955 163.09 280.706 163.526 280.428 163.543C277.7 163.709 275.776 163.543 273.32 163.626C272.81 163.644 273.312 163.809 272.878 163.822C271.39 163.867 269.838 163.807 268.426 163.835C267.791 163.848 267.909 163.977 267.324 163.973C265.921 163.964 264.687 163.92 263.326 163.811C263.202 163.801 264.037 163.63 263.004 163.634C261.33 163.64 259.247 163.538 257.327 163.679C256.756 163.721 256.737 164.02 255.505 163.824C255.247 163.783 255.572 163.422 254.143 163.743C253.904 163.797 251.508 164.234 250.324 163.973C250.012 163.905 249.213 163.618 248.527 163.669C248.434 163.677 248.808 163.834 248.24 163.854C246.238 163.922 244.13 163.919 242.071 163.983C241.521 164.001 242.342 164.161 241.522 164.182C239.267 164.239 236.448 164.214 234.242 164.175C233.429 164.16 233.99 164.02 233.931 164.005C232.978 163.767 232.418 164.099 232.102 164.12C230.137 164.245 228.64 164.099 226.832 164.149C226.333 164.162 226.687 164.317 226.588 164.331C225.557 164.473 226.324 164.188 225.67 164.16C223.835 164.081 221.805 164.103 219.951 164.131C219.27 164.141 220.036 164.319 219.425 164.327C215.816 164.373 212.063 164.368 208.54 164.278C207.875 164.26 208.293 164.119 208.155 164.088C207.199 163.867 205.806 164.175 205.486 164.205C204.036 164.341 203.455 164.218 202.164 164.244C195.863 164.371 188.077 164.293 182.131 164.234C174.373 164.158 168.352 164.006 160.964 163.997C160.498 163.996 160.966 164.185 160.565 164.186C158.868 164.191 157.096 164.18 155.433 164.165C151.888 164.133 148.504 164.077 144.937 164.066C144.51 164.065 145.122 164.249 144.439 164.253C143.039 164.261 141.214 164.224 139.803 164.145C139.093 164.107 140.047 163.971 139.334 163.935C137.689 163.851 135.938 163.808 134.262 163.803C133.556 163.801 134.615 164.003 133.701 163.987C127.329 163.877 121.15 163.745 114.742 163.284C114.31 163.252 113.915 162.871 112.99 162.907C112.916 163.007 112.916 163.126 112.881 163.234C103.665 162.974 94.5313 162.263 85.3615 161.977C84.9745 161.967 85.6381 162.178 84.8894 162.159C84.627 162.152 84.3651 162.146 84.1034 162.141C80.0056 162.058 76.0166 162.018 71.8305 161.764C71.3854 161.737 71.6103 161.399 70.3154 161.429C70.0912 161.434 68.1179 161.447 67.6091 161.513C67.5393 161.523 67.8985 161.689 67.259 161.683C63.577 161.648 59.7394 161.558 56.0517 161.417C55.4696 161.394 56.0905 161.232 55.6777 161.214C52.6658 161.089 49.4107 161.187 46.559 161.015C44.6447 160.899 45.3508 160.61 44.3412 160.316C44.1805 160.274 43.0037 160.264 42.9471 160.096C42.7928 159.673 43.3632 159.211 43.1272 158.76C43.0881 158.662 41.4975 158.765 42.4283 158.532C42.5004 158.516 43.6469 158.441 43.9349 158.363C44.1314 158.309 43.7733 158.136 44.1826 158.067C44.5888 157.999 45.0185 158.144 45.7059 158.065C46.3582 157.985 46.0762 157.789 47.4182 157.775ZM412.929 158.613C411.871 158.483 411.735 159.086 412.869 158.907C412.924 158.897 412.984 158.619 412.929 158.613ZM540.603 155.597C539.201 155.365 538.3 155.773 539.262 155.955C540.208 156.138 541.038 155.668 540.603 155.597ZM554.897 155.118C553.287 154.939 553.058 155.791 554.763 155.59C554.866 155.578 554.993 155.129 554.897 155.118ZM49.0588 160.264C49.0348 160.256 48.2043 160.242 48.1743 160.249C47.7212 160.436 49.4165 160.464 49.0588 160.264ZM569.089 154.733C568.602 154.621 567.12 154.764 567.756 154.902C568.286 155.013 569.704 154.873 569.089 154.733ZM357.923 160.344C357.906 160.336 357.301 160.352 357.314 160.402C357.363 160.563 358.202 160.483 357.923 160.344ZM593.201 155.035C589.63 155.245 587.462 154.57 591.322 154.498C592.021 154.477 589.826 154.796 590.719 154.816C592.359 154.85 593.411 154.331 595.093 154.434C595.394 154.455 593.409 155.027 593.195 155.036C593.197 155.036 593.199 155.035 593.201 155.035ZM412.3 157.914C412.278 157.907 411.438 157.926 411.419 157.934C410.971 158.139 412.662 158.1 412.3 157.914ZM322.245 161.036C322.204 161.02 320.229 161.045 320.159 161.061C319.134 161.393 323.131 161.344 322.245 161.036ZM469.33 156.072C470.251 155.861 471.355 155.816 472.095 156.041C471.178 156.047 470.254 156.064 469.33 156.072Z" fill="#686868"/>
<path d="M594.039 152.684C593.854 151.995 593.73 151.089 593.663 150.38C593.642 150.162 593.768 150.249 593.758 150.094C593.736 149.783 593.632 149.539 593.617 149.229C593.614 149.133 593.803 149.214 593.795 149.114C593.753 148.553 593.598 148.032 593.513 147.474C593.088 144.685 592.526 141.976 591.936 139.186C591.744 138.276 591.619 137.117 591.323 136.195C591.288 136.088 591.161 136.188 591.145 136.17C590.883 135.887 591.199 135.924 591.184 135.699C591.125 134.81 590.902 133.859 590.64 133.056C590.528 132.71 590.333 133.135 590.403 132.74C590.407 132.712 590.582 132.764 590.573 132.663C590.555 132.438 590.425 132.039 590.394 131.867C590.336 131.537 590.32 131.483 590.243 131.172C590.142 130.761 590.09 130.245 589.939 129.799C589.906 129.704 589.783 129.872 589.717 129.725C589.652 129.582 589.562 129.178 589.563 129.032C589.565 128.886 589.702 128.912 589.723 128.881C589.908 128.622 589.458 128.233 589.434 128.175C589.014 127.126 588.953 126.136 588.679 125.101C588.523 124.516 588.325 123.913 588.152 123.319C588.096 123.129 588.043 122.94 587.997 122.756C587.771 121.866 587.657 121.09 587.423 120.227C587.398 120.136 587.243 120.29 587.212 120.178C586.89 118.996 586.625 117.802 586.485 116.579C586.472 116.457 586.667 116.575 586.663 116.451C586.633 115.689 586.717 114.472 585.924 114.171C585.854 113.67 585.768 113.053 585.83 112.583C585.871 112.278 586.099 112.527 585.959 112.185C585.928 112.107 585.791 112.239 585.756 112.122C585.611 111.631 585.567 111.068 585.406 110.581C585.373 110.483 585.237 110.533 585.208 110.508C584.964 110.298 585.238 109.838 585.249 109.749C585.328 109.046 585.185 108.57 585.103 107.947C585.083 107.801 584.919 107.999 584.894 107.86C584.766 107.141 584.685 106.382 584.682 105.664C584.682 105.504 584.86 105.63 584.868 105.552C584.903 105.21 584.59 105.17 584.618 104.846C584.624 104.777 584.766 104.799 584.78 104.785C584.995 104.566 584.64 104.436 584.626 104.387C584.455 103.776 584.763 103.333 584.651 102.738C584.637 102.666 584.479 102.848 584.451 102.644C584.396 102.243 584.351 101.851 584.314 101.437C584.226 100.461 584.193 99.4578 584.216 98.5014C584.22 98.2893 584.364 98.429 584.379 98.4145C584.615 98.1809 584.265 98.0712 584.247 98.0041C584.113 97.4738 584.361 96.9532 583.93 96.6175C583.905 94.3341 583.542 92.0843 583.786 89.8104C583.789 89.7815 583.959 89.8241 583.964 89.7665C584.022 89.0723 583.769 89.2198 583.428 88.7795C583.342 88.6686 583.709 88.2995 583.735 88.2677C583.834 88.1503 584.088 88.2546 584.107 88.216C584.249 87.8973 583.428 87.9879 583.408 87.5668C583.409 87.5536 583.563 87.6017 583.576 87.5657C583.618 87.4537 583.553 87.3476 583.6 87.2377C583.71 86.9862 584.106 86.8809 583.856 86.5164C583.823 86.4703 583.359 86.564 583.365 86.1871C583.367 86.0366 583.33 85.3741 583.353 85.1869C583.375 85 583.531 85.1211 583.537 85.1076C583.715 84.5993 583.806 84.7853 584.09 84.5228C584.373 84.2605 583.676 84.3586 583.593 84.2597C583.511 84.1606 583.661 83.7875 583.714 83.6954C583.768 83.6032 583.868 83.7115 583.897 83.6303C584.088 83.0911 583.54 83.4109 583.422 83.2402C583.143 82.8376 583.651 82.4975 583.688 82.1175C583.697 82.0149 583.582 82.1026 583.568 82.012C583.512 81.6529 583.667 81.4324 583.504 81.0264C583.477 80.9601 583.153 80.6393 583.375 80.4174C583.407 80.3859 583.54 80.4676 583.563 80.3135C583.599 80.0836 583.614 79.6674 583.563 79.423C583.525 79.2423 583.318 79.4574 583.377 79.2266C583.403 79.1241 583.534 79.3083 583.573 79.1161C583.612 78.925 583.592 78.4367 583.582 78.2525C583.572 78.0683 583.413 78.1741 583.402 78.1595C583.337 78.0715 583.248 77.7193 583.247 77.6874C583.181 76.106 583.416 74.641 583.291 73.1032C583.282 72.9822 583.113 73.0667 583.11 73.0483C583.029 72.636 583.49 72.952 583.636 72.6606C583.29 72.7089 583.349 72.5407 583.305 72.2482C583.284 72.1072 583.151 72.187 583.137 72.1744C582.929 71.9691 583.189 71.819 583.242 71.7806C583.438 71.6389 583.201 71.4945 583.331 71.3989C583.461 71.3028 583.66 71.5152 583.652 71.2349C583.526 71.1583 583.206 71.3738 583.15 71.1609C582.935 70.3661 583.164 68.8599 583.182 68.2211C583.199 67.5724 583.174 67.3746 583.214 66.9941C583.254 66.6229 583.201 66.5334 583.126 66.4576C583.064 66.3932 582.987 66.3394 582.935 66.1486C582.821 65.7276 583.415 65.9274 583.541 65.8655C583.668 65.8052 583.536 65.7422 583.605 65.6687C583.675 65.5955 583.763 65.7516 583.787 65.581C583.812 65.4045 583.582 64.9319 583.448 64.8735C583.165 64.7455 582.871 64.9667 582.972 64.5016C582.978 64.4749 583.134 64.5602 583.149 64.4582C583.263 63.6623 583.267 62.8183 583.373 62.02C583.388 61.9095 583.561 62.0082 583.571 61.944C583.682 61.2833 583.39 61.5141 583.067 61.1485C583.498 61.229 583.762 61.0373 583.767 60.5237C583.77 60.2193 583.581 60.2745 583.449 60.0751C583.409 60.0147 583.54 59.799 583.452 59.7598C583.163 59.6288 582.837 59.8322 582.97 59.3085C582.976 59.2855 583.134 59.3603 583.145 59.2805C583.212 58.7703 582.909 58.7015 582.879 58.1511C582.855 57.7123 583.051 56.9455 583.09 56.4516C583.575 56.4729 583.473 55.9995 583.142 55.8067C583.162 55.4832 583.151 55.1379 583.205 54.8294C583.223 54.7239 583.362 54.7969 583.377 54.7839C583.62 54.583 583.298 54.435 583.287 54.3659C583.182 53.6126 583.446 53.0085 583.227 52.286C583.219 52.2602 582.884 52.2096 583.135 52.0251C583.153 52.0133 583.299 52.2546 583.321 51.918C583.343 51.5823 583.544 50.9531 583.403 50.4813C583.369 50.367 583.105 50.0726 583.326 49.8499C583.356 49.8202 583.451 49.8568 583.506 49.8144C583.682 49.6768 583.344 49.5889 583.639 49.4302C583.933 49.2714 584.161 48.9287 583.976 48.4523C583.97 48.4374 583.704 48.3164 583.713 48.1692C583.727 47.9337 583.793 47.5994 583.798 47.3521C583.8 47.2332 583.63 47.3047 583.628 47.2839C583.626 47.2627 583.624 47.2416 583.623 47.2207C583.564 46.4567 583.721 45.9022 583.802 45.0743C583.818 44.9199 583.599 44.465 583.785 44.167C583.99 43.8371 584.806 44.1972 584.624 43.4271C584.551 43.1186 583.514 42.7114 584.063 42.1662C583.945 41.0925 584.233 40.101 584.051 39.0242C584.043 38.9757 583.753 38.8203 583.758 38.7062C583.765 38.5374 583.902 38.4464 583.912 38.3258C583.957 37.8199 583.843 37.3582 583.863 36.8706C583.87 36.685 584.011 36.7511 584.02 36.5306C584.028 36.3103 583.843 36.1618 583.933 35.8641C584.002 35.6386 584.382 35.4135 584.426 35.1139C584.052 35.1023 584.06 34.8957 583.961 34.5308C583.942 34.4606 583.812 34.536 583.796 34.5027C583.729 34.3677 583.837 34.2412 583.764 34.1137C583.746 34.0825 583.619 34.0812 583.597 34.0557C583.409 33.8395 583.695 33.4801 583.745 33.4192C583.935 33.1836 583.768 33.0737 583.842 32.8924C583.917 32.7123 584.011 32.9811 584.056 32.7706C584.148 32.3338 584.125 31.7717 584.128 31.3284C584.128 31.1514 583.959 31.2732 583.955 31.2479C583.909 30.8815 584.088 30.5111 583.747 30.3102C584.622 30.049 583.66 30.091 583.831 29.5657C583.844 29.5244 584.259 29.4677 584.321 29.6258C584.384 29.7839 584.256 30.025 584.353 30.2435C584.376 30.2955 584.767 30.5909 584.791 30.6313C584.977 30.9483 584.357 30.9981 584.323 31.0151C583.957 31.2092 584.378 31.5692 584.408 31.6657C584.543 32.1041 584.457 32.4776 584.553 32.8436C584.615 33.0835 585.021 33.1063 585.009 33.2949C584.97 33.9221 584.403 34.1412 584.895 34.7318C584.999 34.8583 585.444 34.7325 585.094 35.187C585.072 35.2158 584.752 35.5514 584.954 35.7473C584.979 35.7718 585.109 35.7713 585.119 35.8036C585.189 36.0201 585.086 36.1633 585.134 36.3998C585.183 36.6354 585.255 36.9191 585.21 37.1881C585.183 37.3496 584.941 37.5566 584.881 37.634C584.71 37.8524 584.987 38.0876 584.781 38.2228C584.573 38.3582 584.26 38.0889 584.124 38.4462C584.46 38.4619 584.805 38.4949 585.143 38.5187C585.125 39.3056 585.009 40.0786 585.014 40.868C585.015 40.9657 585.197 40.868 585.203 40.9728C585.226 41.416 585.092 41.8018 585.136 42.2603C585.171 42.6175 585.356 43.0102 585.398 43.3822C585.01 43.603 585.13 44.1576 585.087 44.556C585.071 44.6967 584.969 44.6852 584.933 44.7845C584.801 45.158 585.145 44.9888 585.196 45.0929C585.415 45.5428 584.645 45.5617 584.651 46.0841C584.651 46.1105 585.053 46.4606 585.077 46.5074C585.236 46.8069 584.934 46.5528 584.898 46.7363C584.862 46.9267 584.814 47.0827 584.797 47.2528C584.784 47.3876 584.791 47.5311 584.839 47.7054C584.871 47.8214 585.119 48.1078 584.914 48.3254C584.888 48.3543 584.752 48.3338 584.744 48.3574C584.599 48.784 585.024 48.8074 585.161 49.0581C585.297 49.3074 584.991 49.6788 584.904 49.7525C584.678 49.9473 584.815 49.5951 584.794 49.5835C584.542 49.4472 584.577 49.7242 584.549 49.9352C584.13 49.9525 584.146 50.2484 584.521 50.1535C584.562 50.1426 584.529 49.9771 584.549 49.9352C584.953 50.1338 584.995 50.46 584.6 50.8058C584.416 50.9677 584.211 50.8025 584.272 51.3143C584.299 51.5463 584.589 51.4661 584.661 51.6727C584.825 52.1437 584.539 52.7395 584.567 53.2216C584.578 53.3951 584.74 53.2309 584.753 53.3497C584.786 53.6667 584.661 53.9399 584.713 54.2604C584.718 54.289 584.885 54.2236 584.884 54.3214C584.885 55.0676 584.765 55.7153 584.748 56.4942C584.739 56.8675 584.82 57.5492 584.797 57.9333C584.758 58.6071 584.511 59.4414 584.566 60.0175C584.601 60.3967 584.767 60.3111 584.878 60.4735C585.094 60.7896 584.703 61.3334 584.643 61.4111C584.641 61.4128 584.603 61.0875 584.518 61.2609C584.341 61.3616 584.642 61.4074 584.643 61.4111C584.604 61.4654 584.566 62.1032 584.598 62.2377C584.615 62.3087 584.772 62.2688 584.778 62.3058C584.919 63.1697 584.962 64.0343 584.896 64.916C584.893 64.9313 584.718 64.9096 584.713 64.9457C584.64 65.4562 584.857 65.778 584.988 66.1982C585.014 66.2805 585.033 66.3599 585.045 66.4363C585.094 66.7416 585.023 66.998 584.784 67.2033C584.826 67.5226 584.699 67.9718 584.623 68.2402C584.546 68.5034 584.887 68.5326 584.894 68.5559C585.12 69.2715 584.932 69.6865 584.915 70.4351C584.906 70.7859 584.969 71.4925 585.014 71.8727C585.051 72.1754 584.975 72.3627 585.032 72.6381C585.039 72.6756 585.19 72.6343 585.196 72.6457C585.384 72.9524 585.01 72.8113 584.946 72.877C584.711 73.1145 584.586 73.2676 584.708 73.6603C584.736 73.7513 585.275 74.0065 585.31 74.1741C585.355 74.3919 585.162 74.3149 585.214 74.5422C585.218 74.5615 585.336 74.5545 585.334 74.6948C585.328 75.3487 585.278 76.0627 585.309 76.7449C585.313 76.8372 585.497 76.7135 585.505 76.8469C585.545 77.4741 585.559 78.1645 585.49 78.7812C585.473 78.9333 585.339 78.8425 585.301 78.8766C585.073 79.0857 585.423 79.3587 585.431 79.4057C585.632 80.5244 585.353 81.3918 585.543 82.5315C585.554 82.5934 585.938 83.0581 585.633 83.2842C585.613 83.2995 585.3 83.5243 585.527 83.7023C585.541 83.7134 585.701 83.5751 585.693 83.8056C585.686 84.0361 585.811 84.4016 585.643 84.7253C585.59 84.8277 585.279 85.0779 585.547 85.3655C585.566 85.3844 586.163 85.8195 585.772 86.0015C585.708 86.031 585.285 86.0219 585.517 86.3687C585.562 86.4348 585.651 86.3071 585.717 86.4837C585.82 86.7542 585.724 87.1229 585.928 87.4519C585.964 87.5093 586.262 87.746 586.055 87.957C586.022 87.9901 585.879 87.9372 585.868 88.044C585.817 88.5526 585.938 89.0755 585.867 89.5931C585.842 89.7766 585.61 89.6956 585.559 89.8882C585.508 90.0811 585.47 90.4639 585.585 90.657C585.7 90.8498 586.05 90.6133 586.095 90.9085C586.293 92.189 586.157 93.4746 586.212 94.7626C586.22 94.9528 586.339 94.7858 586.36 95.0664C586.438 96.101 586.693 97.8727 586.493 98.791C586.332 99.5231 586.09 98.6392 586.046 99.1918C586.025 99.4606 586.471 99.7132 586.489 99.775C586.658 100.317 586.559 100.745 586.616 101.218C586.623 101.274 586.631 101.331 586.643 101.388C586.666 101.504 586.825 101.373 586.843 101.471C586.905 101.807 586.864 102.159 586.911 102.483C586.933 102.627 587.06 102.587 587.063 102.72C587.074 103.034 587.05 103.324 586.962 103.645C586.954 103.674 586.771 103.503 586.791 103.737C586.823 104.111 586.758 104.603 586.933 105.021C586.986 105.146 587.283 105.116 587.112 105.418C587.077 105.48 586.712 105.451 587.059 105.733C587.117 105.784 587.6 106.273 587.368 106.57C587.307 106.65 587.04 106.869 587.106 107.018C587.116 107.038 587.264 106.933 587.297 107.058C587.409 107.5 587.458 107.975 587.576 108.434C587.608 108.555 587.745 108.347 587.787 108.529C587.902 109.025 587.959 109.665 587.987 110.165C587.997 110.348 587.841 110.246 587.829 110.261C587.623 110.512 587.969 110.588 587.999 110.654C588.185 111.071 588.091 111.435 588.203 111.829C588.233 111.939 588.373 111.832 588.391 111.852C588.567 112.058 588.259 111.936 588.255 112.087C588.241 112.507 588.339 112.959 588.438 113.369C588.475 113.518 588.621 113.314 588.651 113.448C588.838 114.243 588.993 115.074 589.066 115.873C589.08 116.024 588.923 115.962 588.898 115.999C588.726 116.256 589.094 116.502 589.138 116.565C589.34 116.856 589.249 117.012 589.338 117.289C589.773 118.652 590.132 120.383 590.433 121.712C590.507 122.037 590.575 122.35 590.64 122.654C590.928 123.989 591.146 125.135 591.525 126.468C591.554 126.573 591.706 126.42 591.734 126.51C592.081 127.66 592.308 128.823 592.662 129.99C592.69 130.084 592.826 129.903 592.877 130.053C592.983 130.357 593.077 130.766 593.104 131.101C593.118 131.264 592.918 131.091 592.934 131.255C592.973 131.635 593.057 132.02 593.181 132.397C593.234 132.555 593.348 132.268 593.402 132.477C593.775 133.883 594.152 135.274 594.275 136.765C594.283 136.867 593.948 137.04 594.066 137.229C594.169 137.22 594.285 137.191 594.392 137.172C594.954 139.236 595.311 141.3 595.769 143.396C595.788 143.483 595.943 143.29 595.981 143.458C596.202 144.446 596.468 145.388 596.5 146.438C596.503 146.543 596.159 146.566 596.273 146.85C596.294 146.9 596.434 147.33 596.532 147.434C596.546 147.447 596.684 147.332 596.72 147.475C596.922 148.303 597.07 149.185 597.145 150.041C597.156 150.18 596.961 150.069 596.968 150.168C597.017 150.865 597.291 151.585 597.262 152.264C597.245 152.729 596.922 152.606 596.683 152.899C596.65 152.943 596.691 153.205 596.529 153.255C596.12 153.367 595.64 153.315 595.207 153.451C595.115 153.488 595.279 153.806 595.012 153.649C594.995 153.641 594.87 153.389 594.781 153.346C594.719 153.312 594.565 153.422 594.479 153.345C594.393 153.263 594.516 153.143 594.407 153.009C594.296 152.871 594.118 152.975 594.039 152.684ZM584.281 69.4241C584.122 69.6676 584.721 69.6932 584.573 69.4352C584.565 69.4227 584.289 69.4116 584.281 69.4241ZM584.557 40.0693C584.29 40.3848 584.675 40.6049 584.882 40.3839C585.088 40.1624 584.638 39.9729 584.557 40.0693ZM584.389 36.7719C584.179 37.1432 585.027 37.2058 584.857 36.806C584.848 36.7826 584.401 36.7504 584.389 36.7719ZM596.399 151.843C596.392 151.849 596.421 152.04 596.43 152.042C596.636 152.107 596.578 151.725 596.399 151.843ZM584.182 33.503C584.067 33.619 584.2 33.9531 584.343 33.8087C584.458 33.6923 584.324 33.3585 584.182 33.503ZM583.979 82.0966C583.97 82.1007 583.967 82.2418 584.018 82.2371C584.179 82.2215 584.126 82.0274 583.979 82.0966ZM584.132 27.9489C584.11 28.7705 583.414 29.2738 583.484 28.381C583.496 28.2191 583.711 28.727 583.772 28.5204C583.883 28.1417 583.44 27.8983 583.67 27.5102C583.712 27.44 584.135 27.9022 584.133 27.9504C584.133 27.9499 584.132 27.9494 584.132 27.9489ZM583.565 69.5747C583.557 69.5796 583.553 69.774 583.561 69.7786C583.753 69.8806 583.761 69.489 583.565 69.5747ZM583.977 90.3229C583.961 90.3345 583.97 90.7866 583.986 90.8011C584.309 91.0196 584.292 90.1051 583.977 90.3229ZM583.103 56.4441C582.916 56.227 582.899 55.9706 583.142 55.8076C583.125 56.0167 583.119 56.231 583.103 56.4441Z" fill="#686868"/>
<path d="M33.7021 32.4212C36.8358 32.4111 40.9418 32.546 44.0541 32.6899C45.0307 32.7348 44.5303 32.8299 45.206 32.8659C46.5216 32.9362 47.7558 32.9124 49.0542 32.9922C49.4859 33.0192 48.9436 33.1743 49.3971 33.1989C51.8826 33.3322 54.2209 33.348 56.7345 33.4493C60.8354 33.615 64.9132 33.7747 68.9903 33.9326C77.1753 34.2375 85.3821 34.3131 93.7522 34.3709C97.8797 34.3971 102.899 34.5333 107.164 34.4419C107.662 34.4311 107.365 34.2854 107.459 34.2727C108.939 34.0779 108.453 34.3784 109.422 34.4118C113.267 34.5432 117.556 34.5202 121.259 34.4255C122.834 34.3846 121.254 34.1083 122.841 34.2559C122.951 34.2658 122.555 34.4266 122.985 34.4387C123.965 34.4659 125.835 34.4169 126.582 34.4204C127.37 34.4242 127.802 34.4247 128.236 34.4221C128.627 34.4197 129.025 34.4147 129.671 34.4056C131.561 34.3808 133.809 34.4096 135.836 34.3155C136.269 34.2949 135.691 34.1513 136.381 34.1037C137.071 34.0568 138.898 34.0097 139.514 34.0244C140.131 34.0398 139.874 34.1753 139.984 34.2002C140.891 34.412 142.991 33.987 143.262 33.9661C148.212 33.6077 152.47 33.558 157.122 33.2623C160.654 33.0368 164.421 32.7107 167.784 32.4771C171.783 32.1999 175.187 32.0329 179.073 31.7304C179.484 31.6986 178.988 31.5461 179.49 31.5068C183.185 31.2182 186.854 30.9541 190.541 30.7403C192.169 30.6459 193.793 30.552 195.418 30.4607C195.95 30.4309 195.28 30.6511 195.812 30.6311C199.07 30.5088 204.236 30.3622 206.098 29.4608C208.299 29.2823 210.972 29.0562 212.956 29.0178C214.234 28.9931 213.017 29.2868 214.57 29.0664C214.92 29.0171 214.448 28.9015 214.974 28.8396C217.192 28.5788 219.624 28.4183 221.82 28.1601C222.268 28.1071 222.134 27.9758 222.26 27.9402C223.304 27.649 225.119 27.8554 225.501 27.8532C228.465 27.8241 230.611 27.6151 233.363 27.4657C234.004 27.4315 233.234 27.2833 233.853 27.2437C233.888 27.2415 233.922 27.2394 233.957 27.2372C237.094 27.0405 240.332 26.8233 243.421 26.6773C244.109 26.6451 243.489 26.8539 243.819 26.8467C245.29 26.8116 245.59 26.4817 246.984 26.4415C247.281 26.4325 247.125 26.5835 247.18 26.5946C248.054 26.7676 248.738 26.3752 248.961 26.3506C251.695 26.0384 253.468 26.257 256.111 26.0087C256.429 25.9786 255.702 25.8569 256.59 25.7834C262.504 25.2926 268.799 24.9061 274.676 24.6982C275.585 24.666 274.945 24.836 275.003 24.8488C275.949 25.0472 276.543 24.6724 276.841 24.6425C279.177 24.4161 281.399 24.5844 282.968 24.0994C286.536 23.9692 290.097 23.8135 293.653 23.6771C300.024 23.4329 306.385 23.2356 312.737 23.313C312.863 23.3142 312.642 23.4872 312.893 23.4887C315.913 23.5103 315.326 23.2643 317.317 22.9009C317.819 22.8096 319.357 23.1612 319.493 23.1867C319.988 23.2801 319.482 23.5402 319.647 23.5568C321.017 23.6862 320.778 22.8663 322.622 22.8292C322.679 22.8295 322.44 22.986 322.595 22.998C323.077 23.0359 323.553 22.9663 324.024 23.0095C325.105 23.1098 325.492 23.503 327.135 23.2402C327.342 23.2063 327.018 22.744 328.662 22.7373C329.321 22.7346 332.224 22.6782 333.041 22.696C333.853 22.7134 333.298 22.8729 333.356 22.8785C335.548 23.0435 334.723 23.1391 335.823 23.4174C336.924 23.6949 336.607 22.9986 337.055 22.9137C337.505 22.829 339.113 22.9704 339.505 23.0222C339.903 23.0739 339.41 23.1765 339.763 23.2039C342.097 23.3832 340.781 22.842 341.545 22.7203C343.351 22.4326 344.761 22.9345 346.42 22.965C346.866 22.9733 346.501 22.8593 346.898 22.8434C348.482 22.7819 349.42 22.933 351.225 22.7636C351.515 22.7361 352.968 22.4071 353.909 22.6263C354.042 22.6579 353.667 22.7915 354.336 22.8133C355.348 22.8458 357.146 22.855 358.237 22.8003C359.032 22.76 358.121 22.556 359.118 22.612C359.561 22.637 358.738 22.7704 359.578 22.807C360.422 22.8434 362.551 22.8163 363.358 22.8038C364.158 22.7914 363.719 22.6338 363.783 22.6223C364.19 22.5557 365.739 22.462 365.869 22.4608C368.5 22.4266 371.054 22.4353 373.572 22.4477C377.708 22.4676 381.747 22.4972 385.931 22.367C386.453 22.3509 386.102 22.1863 386.182 22.1821C388.001 22.0774 386.565 22.5579 387.844 22.686C387.655 22.3429 388.403 22.3919 389.676 22.3284C390.292 22.2974 389.953 22.17 390.009 22.1552C390.914 21.933 391.555 22.1827 391.72 22.2331C392.329 22.4185 392.979 22.1705 393.394 22.294C393.807 22.4165 392.867 22.6317 394.089 22.6028C394.43 22.4714 393.514 22.1669 394.443 22.0943C397.942 21.8175 404.492 21.938 407.308 21.9175C410.135 21.8944 411.015 21.858 412.679 21.8763C413.62 21.8878 414.169 21.8719 414.524 21.8404C415.231 21.7756 415.128 21.6433 416.39 21.5503C418.211 21.4137 417.338 22.0183 417.602 22.1417C417.865 22.2651 418.151 22.1301 418.482 22.1953C418.8 22.2607 418.114 22.3569 418.861 22.3726C419.612 22.3881 421.692 22.1334 421.958 21.9969C422.522 21.7075 421.599 21.4239 423.595 21.5014C423.711 21.5061 423.339 21.6666 423.78 21.6765C427.297 21.7501 430.953 21.7127 434.466 21.7781C434.953 21.7873 434.521 21.9654 434.802 21.9728C437.717 22.0502 436.687 21.7702 438.276 21.4282C437.919 21.8637 438.817 22.1175 441.032 22.0963C442.366 22.0838 442.141 21.8978 442.999 21.756C443.256 21.7132 444.202 21.8328 444.372 21.7425C444.933 21.4471 444.046 21.1316 446.332 21.2377C446.433 21.2429 446.114 21.4046 446.462 21.4108C448.711 21.4513 448.971 21.1457 451.398 21.0862C453.298 21.0395 456.684 21.1943 458.847 21.2067C458.806 21.6921 460.849 21.5643 461.676 21.2234C463.084 21.2261 464.6 21.1959 465.958 21.2325C466.424 21.245 466.118 21.3876 466.177 21.4023C467.078 21.634 467.695 21.3045 467.996 21.2897C471.283 21.1437 473.961 21.3747 477.094 21.1189C477.206 21.1097 477.389 20.7718 478.229 21.0141C478.282 21.0309 477.25 21.1886 478.721 21.1941C480.202 21.1995 482.976 21.3703 485.032 21.2102C485.522 21.1715 486.785 20.8957 487.786 21.1087C487.919 21.1376 487.774 21.2343 487.965 21.288C488.576 21.4589 488.945 21.1181 489.672 21.4076C490.172 21.6121 491.128 21.7806 492.318 21.7935C492.838 21.7989 493.402 21.7779 493.999 21.7223C494.061 21.7168 494.552 21.4491 495.209 21.4581C496.236 21.4721 497.71 21.5439 498.798 21.5586C499.319 21.5655 498.988 21.3929 499.079 21.3912C502.553 21.3546 505.04 21.565 508.771 21.7897C509.457 21.8309 511.423 21.6979 512.741 21.9592C514.19 22.2486 512.645 22.9646 515.98 22.9995C517.323 23.0177 519.116 22.1123 521.485 22.8593C524.836 23.0527 527.986 23.4341 531.251 23.6048C532.603 23.6333 533.873 23.6432 535.245 23.6179C535.461 23.614 536.143 23.3373 536.637 23.3522C537.372 23.3749 537.757 23.5198 538.302 23.5412C540.526 23.6329 542.534 23.5649 544.683 23.6386C545.494 23.6664 545.21 23.7997 546.161 23.8329C547.131 23.8667 547.797 23.6993 549.08 23.8255C550.104 23.9232 551.011 24.329 552.365 24.4151C552.44 24.0435 553.292 24.0769 554.932 24.0325C555.24 24.0236 554.915 23.8826 555.061 23.8716C555.651 23.8242 556.187 23.9504 556.765 23.8976C556.903 23.8849 556.914 23.7576 557.027 23.74C557.964 23.5845 559.554 23.9316 559.802 23.9915C560.831 24.2213 561.322 24.0751 562.101 24.1822C562.903 24.2906 561.699 24.3336 562.632 24.4183C564.535 24.5924 566.997 24.6878 568.936 24.8026C569.706 24.8474 569.19 24.6477 569.301 24.6502C570.906 24.6971 572.515 24.9859 573.419 24.7126C574.458 25.6736 574.395 24.6885 576.662 25.0764C576.835 25.108 577.017 25.5422 576.338 25.5376C575.641 25.5319 574.606 25.3138 573.647 25.3381C573.407 25.3413 572.091 25.6392 571.91 25.6518C570.511 25.745 570.361 25.1177 570.287 25.0785C569.456 24.6593 567.86 24.9926 567.439 25.0005C565.524 25.0344 563.876 24.8733 562.28 24.901C561.218 24.9181 561.126 25.3212 560.284 25.2756C557.558 25.1293 556.608 24.5297 554.013 24.9359C553.435 25.0223 554.008 25.484 552.025 25.0729C551.884 25.0463 550.452 24.6833 549.581 24.8604C549.472 24.8827 549.471 25.0122 549.328 25.0189C548.368 25.0617 547.777 24.942 546.723 24.9627C545.691 24.9841 544.462 25.0255 543.278 24.9518C542.586 24.9081 541.678 24.6447 541.334 24.5774C540.354 24.3836 539.367 24.6395 538.764 24.4196C538.163 24.1989 539.359 23.9117 537.766 23.7417C537.698 24.0765 537.562 24.4187 537.463 24.7547C535.398 24.7012 533.345 24.6151 531.238 24.5436L531.202 24.5423C529.851 24.453 528.498 24.3534 527.136 24.2593C526.706 24.2296 527.132 24.4426 526.671 24.4152C524.731 24.2975 523.053 24.0204 521.051 23.9008C519.499 23.8084 517.799 23.8593 516.181 23.7893C515.227 23.3314 512.82 23.3012 511.087 23.1767C510.482 23.1327 510.51 23.0315 510.09 22.977C508.458 22.7749 509.205 23.1516 508.759 23.1846C506.817 23.3308 506.698 22.5548 504.416 22.5023C504.301 22.4989 502.804 22.8685 502.61 22.8902C501.311 23.0261 502.398 22.7419 501.587 22.6934C500.132 22.6071 499.087 22.4911 497.368 22.5906C496.856 22.62 495.66 22.8639 494.668 22.6603C494.537 22.6336 494.61 22.4985 494.505 22.4899C493.251 22.3934 492.807 22.5591 492.317 22.7194C492.092 22.7962 491.857 22.872 491.51 22.9182C490.418 23.0608 488.785 22.7669 488.428 22.6824C487.542 22.4637 489.114 22.5884 489.162 22.567C489.734 22.3109 488.486 22.3549 487.587 22.3342C487.457 21.9164 486.151 21.9433 486.625 22.3146C486.68 22.3551 487.403 22.3152 487.587 22.3342C486.771 22.7448 485.361 22.7993 483.774 22.4204C483.043 22.2429 483.747 22.0311 481.498 22.1149C480.493 22.153 480.884 22.4392 479.988 22.521C477.947 22.7077 475.28 22.4523 473.178 22.5066C472.413 22.5263 473.16 22.6795 472.636 22.6984C471.242 22.7492 470.023 22.6387 468.63 22.7084C468.504 22.7149 468.813 22.8776 468.381 22.8826C465.096 22.9237 462.231 22.8397 458.803 22.865C457.148 22.8772 454.184 22.9941 452.467 22.9917C449.49 22.9882 445.831 22.7847 443.286 22.8695C441.633 22.924 441.992 23.0852 441.284 23.205C439.923 23.4371 437.483 23.0741 437.161 23.0174C437.155 23.0154 438.571 22.9608 437.813 22.8846C437.371 22.7132 437.177 23.0164 437.161 23.0174C436.938 22.9807 434.098 22.9756 433.525 23.014C433.218 23.0348 433.392 23.189 433.232 23.1969C429.424 23.3813 425.613 23.4685 421.739 23.4477C421.671 23.4455 421.771 23.2694 421.611 23.2663C419.381 23.2189 417.935 23.4532 416.103 23.607C415.541 23.6534 415.025 23.684 414.552 23.6963C413.393 23.7259 412.477 23.6565 411.698 23.4592C410.311 23.5191 408.315 23.4203 407.16 23.3605C406.026 23.3002 405.853 23.6437 405.756 23.6522C402.626 23.9252 400.783 23.7678 397.517 23.8071C395.961 23.8253 392.879 23.9424 391.196 24.0142C389.866 24.0718 389.06 24.0081 387.836 24.0824C387.67 24.0923 387.841 24.2406 387.79 24.2473C386.422 24.4541 387.077 24.0716 386.792 24.0107C385.756 23.789 385.13 23.6724 383.376 23.8139C382.969 23.8465 381.804 24.3977 381.062 24.4397C380.117 24.493 380.449 24.2971 379.462 24.3572C379.376 24.3622 379.401 24.4798 378.775 24.4831C377.115 24.4925 375.369 24.4855 373.595 24.4863C372.333 24.4865 371.04 24.491 369.768 24.5093C369.366 24.5147 369.885 24.6962 369.302 24.7071C366.535 24.758 363.502 24.7811 360.804 24.7212C360.142 24.7059 360.556 24.5707 360.411 24.5333C359.514 24.3073 358.277 24.6619 358.067 24.6706C353.121 24.8867 349.356 24.6192 344.324 24.8303C344.056 24.8422 341.943 25.2361 341.006 24.9348C340.943 24.9148 340.003 24.6061 339.186 24.8374C339.135 24.8519 339.715 25.0092 338.707 25.0066C337.695 25.0041 336.071 25.1383 334.676 24.978C334.23 24.9276 333.194 24.623 331.881 24.9C331.792 24.9191 329.783 25.5304 329.049 25.1445C328.93 25.081 329.046 24.6566 327.484 24.9007C327.186 24.948 327.731 25.0323 326.943 25.1052C325.734 25.2176 324.134 25.1345 322.652 25.3518C322.394 25.3902 321.298 25.6985 320.409 25.4995C320.27 25.4684 320.53 25.3221 320.063 25.316C317.841 25.2868 315.52 25.433 313.262 25.3902C312.463 25.3754 312.867 25.1377 312.032 25.0973C311.195 25.0569 309.522 25.0414 308.651 25.1691C307.782 25.2968 308.743 25.6336 307.44 25.6984C302.863 25.9269 298.3 25.9525 293.744 26.0611C292.65 26.0875 291.587 26.1176 290.493 26.1578C289.653 26.1888 290.352 26.2886 289.121 26.3445C284.559 26.5454 276.708 27.0908 272.743 27.066C269.556 27.0432 273.539 26.6256 271.109 26.6878C269.95 26.7179 268.697 27.2228 268.425 27.2541C265.681 27.5704 263.751 27.5172 261.279 27.7515C260.768 27.8001 261.281 27.9347 260.848 27.9741C259.365 28.1106 257.789 28.1502 256.377 28.2698C255.735 28.3245 255.863 28.4459 255.277 28.4799C253.874 28.5629 252.619 28.6035 251.252 28.5854C251.125 28.5838 251.955 28.3574 250.912 28.4312C249.238 28.55 247.13 28.5913 245.204 28.8622C244.645 28.942 244.621 29.2435 243.384 29.1291C243.124 29.1052 243.416 28.7247 242.007 29.1387C241.761 29.2089 239.382 29.7994 238.164 29.6096C237.856 29.5592 237.019 29.3205 236.335 29.409C236.241 29.4222 236.631 29.5588 236.052 29.6102C235.412 29.6662 234.743 29.7148 234.093 29.7569C232.679 29.8484 231.266 29.9344 229.853 30.0585C229.306 30.1073 230.136 30.2203 229.315 30.2883C227.052 30.4758 224.24 30.6395 222.021 30.7671C221.205 30.8135 221.757 30.631 221.696 30.6209C220.728 30.4554 220.184 30.831 219.874 30.8764C217.917 31.1572 216.405 31.1379 214.594 31.345C214.093 31.4019 214.463 31.5251 214.365 31.5482C213.343 31.7796 214.087 31.4284 213.431 31.4581C211.589 31.5411 209.545 31.7484 207.689 31.9438C207.007 32.0158 207.792 32.1241 207.179 32.1866C203.557 32.5605 199.78 32.8887 196.221 33.0769C195.553 33.1118 195.961 32.9385 195.819 32.9179C194.837 32.7735 193.455 33.1854 193.136 33.2382C192.071 33.4147 191.484 33.4185 190.733 33.4521C190.449 33.4647 190.145 33.4815 189.787 33.5134C183.465 34.0773 175.638 34.5877 169.65 34.972C161.847 35.4714 155.776 35.7566 148.319 36.1815C147.845 36.208 148.333 36.3691 147.924 36.3942C142.647 36.7086 137.439 36.8345 132.139 36.9979C131.705 37.0108 132.334 37.1745 131.637 37.2009C130.619 37.2401 129.411 37.2605 128.271 37.2529C127.819 37.2497 127.371 37.2427 126.947 37.2314C126.236 37.2127 127.181 37.0503 126.476 37.0343C124.82 36.997 123.065 37.0037 121.361 37.0493C120.645 37.069 121.729 37.2383 120.795 37.2499C114.399 37.3316 108.132 37.409 101.674 37.1989C101.231 37.1844 100.842 36.8193 99.9007 36.8923C99.8301 36.9942 99.8343 37.1139 99.8036 37.2227C90.5009 37.3021 81.2939 37.1685 71.9538 36.9541C71.555 36.9445 72.2408 37.1541 71.4672 37.1361C70.6087 37.1158 69.735 37.0949 68.898 37.0718C65.3818 36.9748 61.9119 36.8817 58.2921 36.6299C57.8443 36.5992 58.0889 36.2637 56.767 36.2807C56.5351 36.284 54.551 36.2783 54.0389 36.3397C53.9688 36.3491 54.3277 36.5177 53.6863 36.5061C49.9761 36.4367 46.0883 36.3088 42.3851 36.1347C41.7881 36.1063 42.4269 35.9496 42.0029 35.928C38.9819 35.7759 35.6988 35.8453 32.8182 35.6554C30.8838 35.529 31.6098 35.2441 30.583 34.9458C30.4417 34.9033 29.2375 34.8897 29.1807 34.722C29.0238 34.2986 29.6041 33.8381 29.3679 33.3865C29.3211 33.2881 27.7209 33.391 28.6609 33.1574C28.7333 33.1411 29.8998 33.068 30.1848 32.9911C30.3888 32.9375 30.0212 32.7639 30.4404 32.6965C30.8376 32.6293 31.2913 32.7765 31.9713 32.7012C32.6402 32.6251 32.3628 32.4266 33.7021 32.4212ZM401.985 23.0982C400.919 22.9561 400.779 23.5573 401.92 23.3913C401.976 23.3825 402.04 23.1051 401.985 23.0982ZM530.642 24.019C529.266 23.6779 528.286 23.998 529.26 24.2658C530.231 24.5308 531.063 24.1217 530.642 24.019ZM545.11 24.1751C543.481 23.9248 543.196 24.7661 544.958 24.64C545.059 24.633 545.205 24.1896 545.11 24.1751ZM35.3429 34.9223C35.3291 34.914 34.4704 34.8933 34.4476 34.901C33.9868 35.0841 35.7066 35.1253 35.3429 34.9223ZM559.419 24.4137C558.924 24.2797 557.44 24.3582 558.064 24.5237C558.589 24.6574 560.039 24.5801 559.419 24.4137ZM346.468 23.2564C346.452 23.2477 345.835 23.2473 345.848 23.2975C345.892 23.4593 346.749 23.4029 346.468 23.2564ZM583.617 26.3995C582.517 26.2515 581.563 26.0245 580.889 25.804C579.586 25.3671 579.271 25.0447 580.988 25.3347L580.976 25.3322C581.229 25.374 581.526 25.427 581.873 25.4903C582.565 25.6218 580.341 25.4539 581.213 25.6694C582.82 26.0651 583.96 25.75 585.605 26.174C585.904 26.2519 583.823 26.4338 583.611 26.3997C583.613 26.3996 583.615 26.3996 583.617 26.3995ZM401.359 22.392C401.344 22.3844 400.479 22.3945 400.462 22.4027C400.002 22.602 401.728 22.5821 401.359 22.392ZM310.455 23.534C310.409 23.518 308.425 23.5546 308.36 23.5721C307.335 23.9099 311.343 23.8367 310.455 23.534ZM458.881 21.2193C459.814 21.0205 460.925 20.9891 461.672 21.2232C460.744 21.2178 459.815 21.2234 458.881 21.2193Z" fill="#686868"/>
</g>
<defs>
<filter id="filter0_d_1_66" x="0" y="0" width="628" height="191.5" filterUnits="userSpaceOnUse" color-interpolation-filters="sRGB">
<feFlood flood-opacity="0" result="BackgroundImageFix"/>
<feColorMatrix in="SourceAlpha" type="matrix" values="0 0 0 0 0 0 0 0 0 0 0 0 0 0 0 0 0 0 127 0" result="hardAlpha"/>
<feOffset dy="4"/>
<feGaussianBlur stdDeviation="2"/>
<feComposite in2="hardAlpha" operator="out"/>
<feColorMatrix type="matrix" values="0 0 0 0 0 0 0 0 0 0 0 0 0 0 0 0 0 0 0.25 0"/>
<feBlend mode="normal" in2="BackgroundImageFix" result="effect1_dropShadow_1_66"/>
<feBlend mode="normal" in="SourceGraphic" in2="effect1_dropShadow_1_66" result="shape"/>
</filter>
</defs>
</svg>
