<svg width="595" height="120" viewBox="0 0 595 120" fill="none" xmlns="http://www.w3.org/2000/svg">
<path d="M153.662 7.66141L13.3314 10.7628L0 28.1199L13.3314 120H182.429L409.764 116.899L595 112.074L568.5 60.1635L573.249 7.66141L272 0L153.662 7.66141Z" fill="white"/>
<path d="M22.0097 20.6859C22.0808 21.161 22.0509 21.806 21.9935 22.2825C21.9758 22.4337 21.8668 22.3615 21.85 22.4689C21.8167 22.6685 21.8765 22.8616 21.8354 23.0619C21.8214 23.1302 21.6502 23.0526 21.6393 23.1243C21.5803 23.5053 21.638 23.8756 21.6177 24.258C21.5869 24.8538 21.5668 25.4451 21.5541 26.0418C21.5251 27.3454 21.532 28.6543 21.5364 29.9907C21.5382 30.6225 21.4202 31.4125 21.5162 32.0619C21.5276 32.1383 21.6728 32.086 21.6856 32.1C21.8817 32.3214 21.581 32.2584 21.5484 32.4113C21.4192 33.0089 21.4362 33.6685 21.5205 34.2423C21.5566 34.4816 21.8375 34.2262 21.685 34.4769C21.6747 34.4943 21.5154 34.4405 21.5019 34.5075C21.4716 34.6594 21.5134 34.9458 21.5068 35.065C21.4932 35.2931 21.4965 35.3275 21.5052 35.5411C21.5158 35.833 21.4555 36.1865 21.5067 36.4956C21.5181 36.562 21.6739 36.4654 21.7065 36.5706C21.7391 36.6755 21.7401 36.9615 21.7072 37.0579C21.6742 37.1542 21.5462 37.1205 21.5182 37.1387C21.2816 37.2885 21.636 37.5974 21.6466 37.6392C21.8289 38.399 21.6719 39.0637 21.7123 39.7837C21.7433 40.3279 21.8401 40.912 21.8613 41.4278C21.8863 42.0493 21.8304 42.5746 21.8821 43.1767C21.8873 43.2397 22.0711 43.1543 22.0779 43.2312C22.1499 44.051 22.1811 44.8711 22.1074 45.6958C22.0998 45.7788 21.9276 45.6838 21.9102 45.7673C21.8073 46.2806 21.5344 47.0947 22.2747 47.3459C22.2698 47.6866 22.2695 48.1013 22.1461 48.4168C22.0667 48.6195 21.8731 48.4419 21.967 48.677C21.988 48.73 22.1406 48.6482 22.1602 48.7286C22.2423 49.0666 22.2184 49.4474 22.3247 49.7795C22.3467 49.8472 22.4865 49.8179 22.5134 49.8356C22.7314 49.9844 22.4113 50.2831 22.3911 50.3448C22.2407 50.814 22.3384 51.1383 22.3667 51.5624C22.3732 51.6607 22.5539 51.5299 22.5669 51.6239C22.6321 52.1113 22.6561 52.6197 22.6109 53.1058C22.6004 53.2139 22.4309 53.129 22.4177 53.1814C22.3611 53.4122 22.6702 53.437 22.622 53.6579C22.6123 53.7045 22.472 53.6903 22.4575 53.6998C22.2299 53.8493 22.5769 53.9341 22.5872 53.9668C22.7242 54.38 22.3946 54.6795 22.4796 55.083C22.4901 55.1313 22.6555 55.0063 22.6744 55.1427C22.7248 55.5028 22.7612 55.8723 22.7835 56.2441C22.8176 56.8118 22.8187 57.3827 22.7857 57.9368C22.7775 58.0793 22.6368 57.9914 22.6214 58.0018C22.3822 58.1697 22.7298 58.2308 22.7469 58.2753C22.8729 58.6269 22.6217 58.9935 23.049 59.199C23.0583 60.7423 23.4424 62.2392 23.2471 63.7934C23.245 63.8131 23.0746 63.7969 23.0712 63.836C23.0284 64.3089 23.2777 64.1929 23.6282 64.4637C23.7162 64.532 23.3602 64.8088 23.3345 64.8326C23.2397 64.9196 22.9832 64.8691 22.966 64.8966C22.8325 65.1232 23.6479 64.9974 23.6802 65.2806C23.6798 65.2896 23.5248 65.2695 23.5125 65.2949C23.4738 65.3741 23.542 65.4405 23.4983 65.5186C23.3969 65.6972 23.0056 65.8017 23.266 66.0266C23.2998 66.0553 23.7586 65.9518 23.7659 66.208C23.7683 66.3102 23.8279 66.7547 23.8124 66.8823C23.7969 67.01 23.6372 66.9422 23.6318 66.9519C23.473 67.3092 23.3762 67.193 23.1031 67.3961C22.8311 67.5995 23.5218 67.4704 23.6076 67.53C23.6932 67.5897 23.5592 67.8551 23.5096 67.9222C23.46 67.9893 23.356 67.9254 23.3302 67.9829C23.1628 68.3635 23.6943 68.0972 23.8189 68.2015C24.1138 68.4483 23.6238 68.7263 23.604 68.9855C23.5986 69.0555 23.7094 68.9854 23.7278 69.0449C23.799 69.2793 23.6562 69.4481 23.8377 69.7047C23.8673 69.7469 24.205 69.9305 23.9951 70.1019C23.9648 70.1263 23.8291 70.0846 23.813 70.1907C23.7889 70.3499 23.7958 70.633 23.8596 70.7926C23.9067 70.9107 24.1009 70.7442 24.0545 70.9059C24.0337 70.9778 23.8939 70.8671 23.8652 71.0008C23.8363 71.1329 23.8833 71.46 23.9036 71.5842C23.9238 71.7079 24.0757 71.6194 24.0878 71.628C24.1576 71.681 24.2655 71.9086 24.268 71.9295C24.4241 72.9884 24.2824 73.9995 24.5118 75.0194C24.5295 75.0988 24.6915 75.0223 24.6959 75.0342C24.8047 75.3031 24.3249 75.1447 24.2009 75.36C24.5404 75.285 24.4939 75.4087 24.5582 75.5986C24.5895 75.6901 24.7155 75.6207 24.7302 75.6274C24.9512 75.7388 24.7037 75.8709 24.6538 75.9031C24.4701 76.021 24.716 76.0914 24.5936 76.1726C24.4722 76.2538 24.2591 76.135 24.2876 76.323C24.4178 76.3587 24.7195 76.1748 24.7913 76.3102C25.0619 76.8169 24.9512 77.8517 24.9875 78.2892C25.0225 78.7189 25.0661 78.8595 25.058 79.1156C25.0435 79.5783 25.257 79.3756 25.4075 79.6433C25.558 79.9102 24.9523 79.8587 24.8324 79.9179C24.7125 79.9763 24.8484 80.0006 24.7865 80.0602C24.7247 80.1196 24.6234 80.0258 24.6145 80.1452C24.6055 80.2636 24.8765 80.5485 25.0143 80.5708C25.306 80.6164 25.5772 80.4302 25.5203 80.7522C25.5168 80.7707 25.3544 80.7366 25.3489 80.8063C25.3104 81.3578 25.388 81.9186 25.366 82.4706C25.3626 82.5459 25.1815 82.507 25.1776 82.5511C25.137 83.0131 25.4013 82.8123 25.7596 83.0064C25.3248 83.0184 25.0847 83.1927 25.1354 83.5318C25.1662 83.7383 25.3467 83.6732 25.4987 83.7844C25.5445 83.8177 25.4394 83.981 25.531 83.9928C25.8309 84.0339 26.1287 83.842 26.0577 84.2168C26.0541 84.2332 25.8897 84.2091 25.8887 84.2639C25.8818 84.6182 26.1863 84.6033 26.2833 84.9722C26.3471 85.2121 26.286 85.654 26.2814 85.9757L26.2767 85.9512C26.2793 86.0078 26.2834 86.061 26.2897 86.1096C25.8147 86.208 25.9921 86.4951 26.3461 86.5461C26.3792 86.7578 26.4487 86.983 26.4498 87.1999C26.4502 87.274 26.3028 87.2582 26.29 87.2705C26.0882 87.459 26.4261 87.4791 26.4487 87.5216C26.6806 87.9894 26.5291 88.4394 26.873 88.8667C26.8852 88.8815 27.2201 88.8345 27.0086 89.0146C26.9939 89.0264 26.8093 88.9054 26.8478 89.1287C26.8846 89.3445 26.8075 89.8189 27.0283 90.083C27.0819 90.1485 27.3929 90.2805 27.2194 90.4789C27.1958 90.5055 27.0965 90.5052 27.0508 90.5464C26.9055 90.6787 27.2491 90.6529 26.9924 90.8269C26.7355 91.0003 26.5799 91.2886 26.8457 91.5488C26.8538 91.5579 27.1329 91.5659 27.1524 91.6678C27.1827 91.8282 27.18 92.0623 27.2195 92.2214C27.2385 92.2977 27.39 92.2101 27.3962 92.2227C27.6133 92.7318 27.5556 93.1328 27.6293 93.7102C27.643 93.8183 27.9354 94.0514 27.8103 94.2982C27.6727 94.5649 26.817 94.5354 27.1334 94.9933C27.2609 95.1791 28.3371 95.178 27.9058 95.673C28.2165 96.3429 28.1211 97.0629 28.5025 97.7176C28.5196 97.7474 28.8282 97.7689 28.845 97.8431C28.8693 97.9529 28.7558 98.0515 28.7697 98.1331C28.8238 98.4717 29.0237 98.7393 29.1015 99.0609C29.1311 99.1818 28.9834 99.1799 29.0198 99.3266C29.0564 99.4731 29.2618 99.5103 29.2372 99.7317C29.2174 99.8968 28.9028 100.159 28.9234 100.366C29.2813 100.258 29.3172 100.395 29.4882 100.598C29.5212 100.637 29.6288 100.548 29.6508 100.564C29.7431 100.63 29.6678 100.745 29.7646 100.804C29.7879 100.818 29.9092 100.778 29.9351 100.787C30.1595 100.865 29.966 101.186 29.9323 101.241C29.805 101.454 29.9865 101.47 29.9563 101.609C29.9265 101.749 29.7774 101.608 29.7823 101.758C29.7923 102.062 29.9357 102.405 30.035 102.686C30.0389 102.696 30.0413 102.702 30.0436 102.708C30.0871 102.821 30.2145 102.681 30.2244 102.695C30.3534 102.905 30.3007 103.223 30.6647 103.178C29.9895 103.759 30.8007 103.275 30.8565 103.617C30.8609 103.643 30.5861 103.961 30.4542 103.901C30.3206 103.838 30.3178 103.608 30.1551 103.511C30.1164 103.492 29.662 103.456 29.6268 103.433C29.3515 103.275 29.9161 103.007 29.942 102.983C30.078 102.857 30.0431 102.777 29.9625 102.719C29.8724 102.648 29.7272 102.611 29.701 102.584C29.4734 102.349 29.4694 102.08 29.2966 101.876C29.1845 101.741 28.7958 101.86 28.7647 101.733C28.6623 101.311 29.1523 100.99 28.5591 100.76C28.4327 100.711 28.0362 100.929 28.2725 100.524C28.2875 100.499 28.5203 100.179 28.2884 100.115C28.259 100.106 28.1357 100.146 28.1187 100.128C28.0069 100.006 28.0757 99.8802 27.9812 99.7407C27.886 99.5987 27.7598 99.4357 27.7485 99.2439C27.7412 99.1273 27.9333 98.9258 27.9748 98.8575C28.0955 98.6644 27.7836 98.5894 27.956 98.4432C28.1292 98.2963 28.4816 98.3855 28.5429 98.1131C28.217 98.1964 27.8793 98.2705 27.5499 98.3485C27.4141 97.8266 27.38 97.2889 27.2277 96.772C27.2085 96.7082 27.0512 96.8204 27.0261 96.7529C26.9196 96.4622 26.9793 96.1796 26.8518 95.8892C26.7527 95.6658 26.5016 95.4541 26.3933 95.2205C26.7274 94.9714 26.5125 94.6487 26.4802 94.3695C26.4696 94.2756 26.5709 94.2571 26.5875 94.184C26.6475 93.9073 26.3455 94.1035 26.2768 94.048C25.9822 93.8031 26.7262 93.6058 26.6242 93.2632C26.6191 93.245 26.1661 93.115 26.1344 93.0922C25.9262 92.9376 26.2657 93.0273 26.2662 92.8989C26.2672 92.664 26.3245 92.4809 26.1469 92.2515C26.0944 92.1839 25.8023 92.0586 25.9594 91.8618C25.9801 91.8367 26.1146 91.8164 26.1188 91.7992C26.1823 91.4898 25.7655 91.5778 25.5869 91.4473C25.4077 91.3136 25.6371 90.9999 25.7079 90.9301C25.8909 90.748 25.8227 91.0106 25.8453 91.0126C26.1141 91.0385 26.0296 90.8687 26.0184 90.7239C26.4208 90.61 26.3511 90.419 26.0051 90.5737C25.9674 90.591 26.0305 90.6916 26.0184 90.7239C25.591 90.6948 25.4884 90.483 25.8089 90.1666C25.9586 90.0158 26.1869 90.0755 26.0348 89.7536C25.9659 89.6068 25.6987 89.7288 25.5915 89.6112C25.3489 89.3518 25.516 88.8746 25.4054 88.5759C25.3645 88.4644 25.2361 88.6109 25.2029 88.5358C25.1145 88.338 25.186 88.1172 25.0811 87.9258C25.0714 87.9082 24.9208 87.9902 24.9043 87.9261C24.775 87.4361 24.7821 86.9824 24.6691 86.4597C24.6598 86.4165 24.6465 86.368 24.6308 86.3158L24.6184 86.2521C24.5572 86.0067 24.4382 85.6526 24.4189 85.4399C24.3745 84.9776 24.5209 84.3759 24.4027 84.001C24.3258 83.7533 24.1717 83.834 24.0434 83.7417C23.7947 83.5624 24.123 83.1363 24.1746 83.0748C24.1764 83.0732 24.2489 83.2861 24.3143 83.1563C24.478 83.0613 24.1758 83.0771 24.1746 83.0748C24.2077 83.034 24.1775 82.5938 24.1331 82.5123C24.1089 82.4679 23.9585 82.5179 23.9488 82.4943C23.7202 81.9268 23.5931 81.3519 23.5769 80.7474C23.5784 80.7364 23.7536 80.7265 23.7551 80.701C23.7804 80.3433 23.5376 80.1617 23.37 79.8934C23.2025 79.6258 23.2127 79.4005 23.485 79.1882C23.4163 78.9778 23.5037 78.6544 23.5582 78.4672C23.6126 78.2798 23.2724 78.3028 23.2635 78.2882C22.9809 77.8306 23.1348 77.5289 23.0942 77.0198C23.0761 76.7826 22.9606 76.309 22.8888 76.0588C22.8311 75.8596 22.8932 75.7256 22.817 75.5433C22.8067 75.5186 22.6602 75.5649 22.6534 75.5579C22.445 75.3707 22.8257 75.4224 22.8853 75.3698C23.102 75.179 23.2161 75.0676 23.0677 74.8135C23.0337 74.755 22.481 74.6447 22.4349 74.5346C22.3758 74.3916 22.5726 74.4217 22.5063 74.2747C22.5008 74.2621 22.3843 74.2804 22.3769 74.185C22.3406 73.7413 22.345 73.2491 22.2737 72.7918C22.2644 72.729 22.0895 72.8338 22.0729 72.7434C21.9954 72.3179 21.943 71.8549 21.9769 71.4264C21.986 71.3221 22.1239 71.3693 22.1597 71.3424C22.3759 71.1777 22.0126 71.0279 22.0021 70.9968C21.7434 70.2548 21.9787 69.6361 21.7391 68.882C21.7254 68.8413 21.3224 68.5585 21.617 68.3766C21.6366 68.3642 21.9387 68.1836 21.7054 68.0832C21.6909 68.0769 21.5372 68.1857 21.5354 68.0281C21.5336 67.8706 21.3941 67.6323 21.5494 67.3957C21.5983 67.3213 21.8981 67.1248 21.6207 66.9524C21.6015 66.9415 20.9911 66.6955 21.3743 66.5376C21.4374 66.5121 21.8587 66.4823 21.616 66.2654C21.5691 66.2243 21.4851 66.3184 21.4129 66.204C21.3016 66.0288 21.3858 65.7695 21.1731 65.561C21.1355 65.525 20.8316 65.3854 21.0323 65.2253C21.0638 65.2002 21.2083 65.225 21.2159 65.1514C21.2528 64.8019 21.1193 64.452 21.1781 64.0934C21.1987 63.9669 21.4319 64.0049 21.4786 63.8702C21.5252 63.7355 21.5556 63.4707 21.4376 63.3472C21.3196 63.2236 20.9746 63.4097 20.924 63.2107C20.7047 62.3493 20.826 61.4571 20.7689 60.5791C20.7605 60.4489 20.6421 60.5695 20.6205 60.3784C20.5396 59.6724 20.301 58.4659 20.519 57.8269C20.6934 57.3149 20.9184 57.9178 20.9731 57.5341C20.9992 57.3497 20.5611 57.1927 20.5439 57.1501C20.4357 56.8916 20.4571 56.6719 20.4664 56.4511C20.472 56.3182 20.4732 56.1849 20.439 56.0423C20.4201 55.9639 20.2566 56.0568 20.2425 55.99C20.1926 55.7617 20.2475 55.5125 20.2146 55.2931C20.1995 55.1947 20.0709 55.2241 20.0731 55.1322C20.077 54.9123 20.1153 54.7149 20.2194 54.4923C20.2289 54.4721 20.4018 54.5889 20.3943 54.4273C20.3817 54.166 20.4751 53.8321 20.3263 53.5424C20.2817 53.4565 19.9838 53.4772 20.1738 53.2692C20.2134 53.2256 20.5748 53.248 20.2481 53.0501C20.1938 53.0168 19.7473 52.6751 20.0012 52.47C20.068 52.4159 20.3507 52.2691 20.2963 52.1658C20.2879 52.1519 20.1326 52.2226 20.11 52.1352C20.0334 51.8271 20.025 51.4969 19.9505 51.1799C19.9302 51.0952 19.7745 51.2355 19.7497 51.1089C19.6811 50.7613 19.6903 50.3169 19.7169 49.97C19.727 49.842 19.8705 49.9194 19.8847 49.9091C20.1165 49.7434 19.7826 49.6796 19.7599 49.6315C19.6232 49.3329 19.7603 49.0885 19.6995 48.8097C19.6832 48.7327 19.5309 48.799 19.5159 48.7845C19.3684 48.6336 19.6574 48.7333 19.6811 48.6295C19.7484 48.3372 19.7136 48.02 19.6738 47.7336C19.659 47.6285 19.486 47.7597 19.4748 47.6652C19.4047 47.1029 19.383 46.5197 19.4467 45.9614C19.459 45.8567 19.6028 45.9127 19.6333 45.889C19.8465 45.7259 19.5283 45.5287 19.4961 45.4806C19.3492 45.2627 19.4668 45.1642 19.4309 44.9646C19.2536 43.9916 19.2612 42.7693 19.2578 41.8399C19.2524 40.6288 19.333 39.6825 19.2369 38.5315C19.231 38.4585 19.0492 38.5421 19.0417 38.4793C18.9536 37.6676 18.9847 36.8578 18.8905 36.0462C18.8831 35.9789 18.7118 36.085 18.694 35.9773C18.6562 35.7562 18.6521 35.4779 18.6975 35.2534C18.7192 35.1421 18.8775 35.2823 18.8963 35.1704C18.9405 34.9101 18.9399 34.6363 18.8993 34.3788C18.8816 34.2673 18.7095 34.4457 18.7005 34.2992C18.6358 33.3137 18.5603 32.3413 18.7497 31.3339C18.7627 31.265 19.1262 31.189 19.0497 31.0486C18.9476 31.0422 18.8281 31.048 18.7193 31.0481C18.5978 29.6109 18.6659 28.1804 18.6278 26.7474C18.6261 26.685 18.4364 26.8004 18.4321 26.68C18.4257 26.504 18.4159 26.3339 18.4076 26.1685C18.3823 25.6571 18.369 25.1662 18.4921 24.6402C18.5083 24.5737 18.8509 24.5909 18.7911 24.3882C18.7801 24.3515 18.7225 24.0528 18.6451 23.9725C18.6335 23.9622 18.4764 24.0246 18.4678 23.9259C18.4204 23.3516 18.433 22.759 18.5072 22.1758C18.5195 22.0833 18.6931 22.174 18.7033 22.1085C18.7749 21.644 18.6253 21.1331 18.7617 20.6845C18.8537 20.3839 19.1513 20.4799 19.4338 20.3116C19.4735 20.2844 19.4729 20.1034 19.6405 20.0852C20.062 20.0447 20.5279 20.1162 20.9768 20.0631C21.0251 20.055 21.0209 19.9948 21.0346 19.951C21.0414 19.929 21.0535 19.9201 21.0784 19.9457C21.1033 19.9559 21.1397 19.9041 21.1997 19.9483C21.2156 19.957 21.3001 20.1286 21.3815 20.1715C21.4376 20.1987 21.6063 20.1381 21.6791 20.1969C21.7519 20.2582 21.6113 20.3291 21.6981 20.4325C21.7859 20.5308 21.9784 20.4781 22.0097 20.6859ZM23.8012 77.6231C23.94 77.4376 23.3442 77.497 23.5108 77.6532C23.5196 77.6606 23.7945 77.6326 23.8012 77.6231ZM27.8176 97.1734C28.0163 96.8975 27.6025 96.8512 27.4458 97.0537C27.2893 97.2561 27.7575 97.2574 27.8176 97.1734ZM28.6183 99.2774C28.7452 98.9773 27.9207 99.1807 28.1633 99.3921C28.1771 99.4044 28.6109 99.2949 28.6183 99.2774ZM19.5452 21.0426C19.553 21.0383 19.5555 20.9089 19.5475 20.9053C19.3549 20.843 19.35 21.1059 19.5452 21.0426ZM29.501 101.329C29.5839 101.218 29.3854 101.046 29.2819 101.185C29.1988 101.297 29.3979 101.468 29.501 101.329ZM23.3149 69.0275C23.3235 69.0239 23.32 68.9285 23.2702 68.9365C23.1098 68.9625 23.1713 69.0884 23.3149 69.0275ZM31.644 104.448C31.3507 104.352 31.2149 104.063 31.2501 103.885C31.2854 103.703 31.4059 103.616 31.5984 103.743C31.6783 103.794 31.3256 103.864 31.4065 103.971C31.5927 104.181 31.8537 103.796 32.0347 104.067C32.0789 104.121 31.6868 104.468 31.6428 104.449C31.6432 104.449 31.6436 104.448 31.644 104.448ZM24.4994 77.4289C24.5068 77.4246 24.4958 77.2928 24.4876 77.2907C24.2896 77.2463 24.3117 77.5121 24.4994 77.4289ZM23.0463 63.4609C23.0623 63.4519 23.045 63.1457 23.0285 63.1373C22.7026 63.0116 22.7366 63.6314 23.0463 63.4609ZM26.2783 86.1176C26.4964 86.2187 26.5557 86.3821 26.3462 86.5454C26.3278 86.4039 26.2983 86.2624 26.2783 86.1176Z" fill="#686868"/>
<path d="M40.9797 102.492C43.8943 102.454 47.7418 102.537 50.6564 102.639C51.5674 102.67 51.1037 102.772 51.7446 102.799C52.959 102.851 54.1213 102.81 55.3404 102.871C55.7403 102.892 55.2399 103.055 55.6605 103.073C57.9811 103.171 60.1787 103.152 62.5347 103.215C66.9228 103.333 71.2823 103.442 75.6668 103.546C82.8284 103.723 89.9673 104.077 97.2185 104.33C101.086 104.471 105.789 104.743 109.754 104.759C110.217 104.761 109.944 104.608 110.032 104.598C111.424 104.441 110.985 104.729 111.869 104.786C115.462 105.014 119.463 105.093 122.936 105.083C124.4 105.078 122.929 104.766 124.416 104.95C124.52 104.962 124.14 105.114 124.548 105.136C125.504 105.186 127.18 105.178 127.918 105.198C129.311 105.238 129.495 105.239 130.805 105.254C132.596 105.276 134.703 105.372 136.583 105.351C136.986 105.346 136.453 105.182 137.098 105.159C137.738 105.137 139.489 105.163 140.041 105.204C140.612 105.246 140.368 105.37 140.47 105.4C141.055 105.575 142.219 105.466 142.96 105.383C143.258 105.348 143.483 105.317 143.557 105.315C148.24 105.198 152.168 105.404 156.558 105.415C159.87 105.423 163.435 105.366 166.567 105.378C170.351 105.393 173.519 105.481 177.16 105.465C177.547 105.464 177.094 105.275 177.566 105.273C182.556 105.249 187.544 105.264 192.506 105.383C193.007 105.395 192.362 105.561 192.862 105.583C195.917 105.714 200.749 106.029 202.559 105.303C204.635 105.325 207.135 105.347 208.99 105.486C210.185 105.575 209.028 105.76 210.492 105.678C210.822 105.659 210.392 105.503 210.887 105.487C212.971 105.422 215.256 105.465 217.318 105.375C217.737 105.356 217.622 105.215 217.741 105.189C218.74 104.979 220.406 105.313 220.769 105.336C223.535 105.509 225.549 105.427 228.126 105.419C228.724 105.417 228.016 105.23 228.591 105.222C231.568 105.18 234.66 105.179 237.58 105.247C238.231 105.262 237.634 105.428 237.944 105.444C239.314 105.511 239.615 105.203 240.925 105.261C241.201 105.273 241.046 105.413 241.096 105.428C241.883 105.662 242.575 105.319 242.777 105.31C245.351 105.192 246.986 105.535 249.475 105.468C249.772 105.459 249.101 105.289 249.935 105.276C255.498 105.189 261.379 105.192 266.874 105.285C267.738 105.299 267.123 105.436 267.177 105.452C268.065 105.698 268.631 105.353 268.91 105.338C271.102 105.226 273.174 105.492 274.662 105.072C282.41 105.115 290.22 104.89 297.892 104.946C299.477 104.956 300.951 104.979 302.512 105.016C302.631 105.018 302.42 105.189 302.658 105.193C305.498 105.244 304.909 104.992 306.803 104.643C307.278 104.555 308.697 104.916 308.819 104.942C309.288 105.038 308.806 105.295 308.963 105.313C310.265 105.448 310.048 104.628 311.754 104.597C311.807 104.597 311.587 104.753 311.729 104.766C312.164 104.805 312.627 104.736 313.071 104.78C314.095 104.882 314.429 105.277 315.978 105.013C316.171 104.979 315.874 104.517 317.41 104.509C317.995 104.506 320.754 104.44 321.491 104.454C322.265 104.467 321.738 104.629 321.793 104.634C323.861 104.787 323.077 104.888 324.098 105.159C325.147 105.429 324.84 104.735 325.26 104.646C325.683 104.558 327.166 104.687 327.552 104.734C327.925 104.782 327.464 104.889 327.795 104.913C329.97 105.07 328.734 104.541 329.445 104.412C331.148 104.104 332.469 104.588 334.01 104.596C334.425 104.598 334.078 104.489 334.455 104.468C335.944 104.383 336.828 104.519 338.5 104.32C338.762 104.288 340.135 103.933 341.005 104.135C341.131 104.164 340.778 104.305 341.414 104.314C342.36 104.328 344.053 104.302 345.058 104.225C345.8 104.169 344.939 103.983 345.883 104.019C346.302 104.034 345.531 104.185 346.318 104.204C347.096 104.223 349.092 104.151 349.849 104.121C350.607 104.091 350.187 103.943 350.248 103.93C350.616 103.855 352.066 103.727 352.195 103.723C358.668 103.483 364.659 103.555 370.965 103.287C371.461 103.266 371.126 103.104 371.202 103.1C372.879 102.981 371.563 103.472 372.752 103.591C372.564 103.25 373.293 103.292 374.464 103.223C375.037 103.189 374.721 103.063 374.773 103.048C375.62 102.822 376.24 103.069 376.384 103.119C376.945 103.303 377.554 103.054 377.945 103.176C378.337 103.298 377.446 103.515 378.607 103.484C378.902 103.363 378.204 103.102 378.743 103C378.795 102.99 378.858 102.981 378.934 102.975C382.211 102.694 388.331 102.816 390.979 102.789C393.614 102.763 394.456 102.724 395.999 102.739C398.772 102.767 397.745 102.546 399.473 102.404C401.197 102.262 400.367 102.869 400.618 102.992C400.862 103.115 401.125 102.979 401.429 103.043C401.732 103.108 401.08 103.206 401.791 103.22C402.507 103.233 404.442 102.972 404.691 102.835C405.219 102.544 404.334 102.263 406.224 102.334C406.333 102.339 405.983 102.5 406.4 102.509C409.681 102.572 413.11 102.522 416.393 102.575C416.847 102.583 416.444 102.762 416.708 102.769C419.444 102.836 418.462 102.56 419.96 102.212C419.629 102.648 420.464 102.899 422.54 102.869C423.79 102.852 423.575 102.667 424.379 102.521C424.62 102.478 425.506 102.593 425.665 102.502C426.189 102.205 425.35 101.893 427.497 101.99C427.591 101.994 427.294 102.157 427.619 102.162C429.717 102.193 429.967 101.887 432.235 101.816C434.013 101.761 437.18 101.9 439.207 101.901C439.172 102.386 441.084 102.248 441.853 101.902C443.172 101.897 444.588 101.858 445.86 101.886C446.298 101.896 446.012 102.04 446.068 102.055C446.918 102.281 447.485 101.947 447.768 101.931C450.84 101.763 453.356 101.975 456.28 101.693C456.385 101.683 456.551 101.344 457.34 101.579C457.391 101.595 456.423 101.762 457.805 101.755C459.178 101.748 461.79 101.892 463.706 101.709C464.172 101.665 465.339 101.376 466.279 101.576C466.406 101.604 466.269 101.702 466.452 101.753C467.044 101.917 467.361 101.572 468.052 101.851C468.737 102.131 470.185 102.328 472.106 102.101C472.168 102.095 472.613 101.818 473.23 101.814C474.216 101.807 475.559 101.845 476.595 101.828C477.082 101.82 476.768 101.657 476.852 101.653C479.699 101.53 481.891 101.605 484.724 101.634C485.117 101.637 485.522 101.638 485.94 101.639C486.603 101.639 488.373 101.379 489.66 101.538C491.03 101.712 489.652 102.558 492.758 102.309C494.054 102.208 495.574 101.138 497.889 101.641C502.287 101.434 506.361 101.646 510.768 101.39C510.969 101.379 511.57 101.079 512.045 101.076C512.751 101.073 513.133 101.203 513.625 101.206C515.682 101.218 517.608 101.076 519.578 101.07C520.342 101.068 520.085 101.212 520.99 101.209C521.878 101.206 522.502 101.014 523.718 101.091C524.622 101.149 525.58 101.519 526.798 101.552C526.853 101.178 527.67 101.178 529.189 101.068C529.478 101.047 529.167 100.919 529.303 100.902C529.86 100.831 530.353 100.935 530.897 100.859C531.026 100.841 531.031 100.713 531.136 100.691C532.004 100.498 533.508 100.779 533.735 100.828C534.736 101.015 535.135 100.849 535.906 100.923C536.646 100.998 535.544 101.091 536.402 101.137C538.193 101.231 540.489 101.22 542.313 101.256C543.023 101.269 542.541 101.09 542.643 101.088C544.145 101.07 545.663 101.3 546.505 101.005C547.049 101.511 547.271 101.459 547.69 101.358C548.057 101.269 548.565 101.147 549.539 101.26C549.706 101.279 549.912 101.702 549.257 101.741C548.83 101.765 548.265 101.696 547.674 101.652C547.37 101.624 547.04 101.608 546.725 101.624C546.516 101.632 545.284 101.97 545.119 101.99C543.824 102.133 543.639 101.513 543.578 101.477C542.808 101.091 541.313 101.49 540.919 101.515C539.115 101.63 537.6 101.539 536.098 101.634C535.096 101.695 535.027 102.102 534.247 102.091C531.682 102.058 530.788 101.498 528.359 102.007C527.846 102.116 528.389 102.555 526.501 102.223C526.384 102.202 525.025 101.895 524.207 102.106C524.109 102.132 524.114 102.261 523.985 102.274C523.125 102.353 522.49 102.257 521.55 102.317C520.601 102.377 519.42 102.465 518.333 102.435C517.664 102.417 516.803 102.187 516.495 102.132C515.614 101.973 514.607 102.266 514.078 102.067C513.52 101.868 514.605 101.538 513.141 101.425C513.091 101.762 512.971 102.109 512.888 102.448C509.68 102.481 506.48 102.421 503.265 102.487C502.858 102.496 503.278 102.67 502.84 102.684C501.071 102.741 499.436 102.639 497.586 102.721C496.103 102.786 494.563 103.003 493.016 103.078C492.067 102.709 489.841 102.878 488.187 102.872C487.62 102.87 487.656 102.766 487.25 102.74C485.711 102.643 486.435 102.971 486.013 103.031C485.485 103.107 485.092 103.096 484.749 103.044C483.932 102.914 483.419 102.538 481.882 102.573C481.771 102.576 480.405 103.006 480.212 103.034C478.998 103.218 480.01 102.894 479.246 102.875C477.865 102.839 476.901 102.755 475.279 102.898C474.811 102.94 473.681 103.212 472.749 103.027C472.626 103.003 472.691 102.866 472.595 102.859C470.845 102.752 470.799 103.178 469.789 103.337C468.784 103.495 467.233 103.222 466.91 103.142C466.075 102.934 467.547 103.039 467.59 103.017C468.114 102.754 466.98 102.814 466.106 102.804C465.977 102.388 464.771 102.43 465.213 102.796C465.264 102.836 465.934 102.787 466.106 102.804C465.359 103.224 464.027 103.295 462.546 102.933C461.857 102.763 462.509 102.544 460.416 102.65C459.465 102.698 459.83 102.98 458.999 103.07C457.093 103.276 454.604 103.042 452.624 103.112C451.909 103.137 452.608 103.285 452.12 103.308C450.828 103.368 449.672 103.266 448.372 103.345C448.255 103.352 448.545 103.513 448.14 103.521C445.065 103.583 442.386 103.516 439.177 103.559C437.625 103.58 434.854 103.711 433.247 103.717C430.463 103.727 427.031 103.539 424.655 103.634C423.106 103.695 423.446 103.854 422.783 103.977C421.503 104.215 419.227 103.86 418.919 103.805C418.91 103.803 420.246 103.743 419.531 103.67C419.114 103.5 418.934 103.804 418.919 103.805C418.717 103.769 416.053 103.774 415.521 103.814C415.233 103.836 415.397 103.99 415.247 103.998C411.684 104.196 408.117 104.295 404.494 104.286C404.43 104.284 404.523 104.108 404.373 104.105C402.287 104.064 400.942 104.303 399.219 104.461C397.487 104.62 396.129 104.604 395.094 104.324C393.804 104.386 391.912 104.291 390.848 104.233C389.782 104.174 389.622 104.517 389.531 104.526C386.6 104.802 384.871 104.645 381.818 104.685C381.068 104.695 379.903 104.732 378.787 104.776C377.703 104.817 376.664 104.864 375.905 104.902C374.636 104.965 373.931 104.904 372.758 104.987C372.602 104.998 372.764 105.145 372.717 105.153C371.441 105.369 372.048 104.982 371.782 104.923C370.84 104.709 370.206 104.599 368.591 104.759C368.207 104.797 367.121 105.362 366.442 105.414C365.539 105.481 365.872 105.28 364.937 105.355C364.858 105.361 364.877 105.479 364.304 105.491C361.613 105.553 358.683 105.581 355.889 105.687C355.509 105.701 356.004 105.872 355.452 105.895C352.866 106.005 350.03 106.095 347.504 106.092C346.885 106.091 347.268 105.947 347.133 105.913C346.302 105.705 345.131 106.086 344.943 106.098C340.327 106.413 336.799 106.213 332.078 106.489C331.827 106.505 329.859 106.924 328.974 106.632C328.914 106.612 328.045 106.313 327.269 106.552C327.22 106.567 327.775 106.719 326.814 106.726C325.898 106.732 324.325 106.88 323.051 106.727C322.65 106.678 321.624 106.381 320.432 106.662C320.369 106.682 318.431 107.301 317.778 106.915C317.666 106.852 317.783 106.428 316.313 106.673C316.03 106.721 316.548 106.805 315.8 106.878C314.674 106.991 313.174 106.906 311.782 107.12C311.545 107.157 310.528 107.462 309.684 107.259C309.552 107.227 309.8 107.082 309.355 107.074C307.294 107.034 305.094 107.164 302.992 107.098C302.236 107.075 302.621 106.842 301.825 106.793C301.059 106.743 299.501 106.707 298.669 106.822C297.961 106.921 298.525 107.192 297.925 107.297C297.827 107.315 297.697 107.328 297.522 107.334C292.209 107.533 286.925 107.382 281.63 107.407C280.837 107.411 281.482 107.534 280.336 107.549C276.045 107.604 268.683 107.793 264.964 107.548C261.987 107.352 265.732 107.152 263.455 107.081C262.35 107.047 261.17 107.479 260.908 107.494C258.332 107.65 256.518 107.476 254.199 107.551C253.718 107.566 254.191 107.734 253.782 107.745C252.377 107.785 250.913 107.719 249.58 107.742C248.981 107.753 249.092 107.882 248.54 107.876C247.216 107.862 246.051 107.815 244.768 107.701C244.651 107.69 245.439 107.523 244.464 107.523C242.885 107.524 240.919 107.415 239.107 107.551C238.568 107.591 238.549 107.89 237.387 107.69C237.143 107.649 237.451 107.289 236.101 107.606C235.876 107.659 233.613 108.089 232.497 107.826C232.203 107.756 231.449 107.467 230.802 107.516C230.714 107.524 231.067 107.683 230.531 107.701C228.641 107.763 226.652 107.756 224.708 107.815C224.189 107.831 224.963 107.994 224.19 108.012C222.062 108.064 219.402 108.033 217.32 107.99C216.553 107.973 217.083 107.834 217.027 107.819C216.128 107.579 215.598 107.91 215.301 107.93C213.445 108.052 212.033 107.903 210.326 107.95C209.856 107.962 210.19 108.117 210.096 108.132C209.123 108.271 209.847 107.988 209.23 107.959C207.499 107.877 205.582 107.895 203.833 107.921C203.19 107.93 203.913 108.109 203.337 108.116C199.931 108.157 196.388 108.148 193.064 108.054C192.437 108.036 192.831 107.895 192.7 107.864C191.798 107.642 190.484 107.949 190.182 107.978C188.814 108.113 188.265 107.99 187.047 108.015C181.101 108.138 173.753 108.058 168.142 108.002C160.821 107.93 155.139 107.785 148.167 107.791C147.727 107.791 148.169 107.979 147.791 107.981C146.189 107.989 144.516 107.983 142.946 107.972C139.602 107.95 136.409 107.906 133.044 107.912C132.642 107.912 133.219 108.094 132.575 108.1C131.254 108.115 129.532 108.088 128.2 108.017C127.53 107.982 128.43 107.841 127.757 107.809C126.204 107.735 124.552 107.702 122.971 107.708C122.305 107.712 123.305 107.906 122.443 107.896C116.43 107.83 110.601 107.755 104.552 107.373C104.145 107.347 103.768 106.971 102.895 107.019C102.827 107.119 102.828 107.238 102.796 107.346C94.0997 107.197 85.4772 106.688 76.8059 106.494C76.44 106.487 77.0687 106.692 76.3607 106.679C76.1141 106.675 75.8679 106.671 75.6218 106.668C71.7519 106.615 67.9852 106.601 64.0311 106.372C63.6109 106.348 63.8217 106.008 62.5997 106.046C62.3877 106.053 60.5258 106.077 60.0455 106.146C59.9797 106.156 60.3193 106.319 59.7158 106.317C56.2402 106.303 52.6175 106.231 49.136 106.105C48.5865 106.085 49.1721 105.92 48.7824 105.904C45.939 105.791 42.8666 105.9 40.1742 105.734C38.3668 105.622 39.033 105.332 38.0797 105.039C37.928 104.998 36.8171 104.989 36.7636 104.821C36.6178 104.398 37.1556 103.936 36.9326 103.485C36.8954 103.387 35.396 103.491 36.2733 103.257C36.3413 103.241 37.4226 103.165 37.6942 103.087C37.8796 103.032 37.5417 102.86 37.9276 102.791C38.3108 102.722 38.7162 102.866 39.3647 102.786C39.9799 102.705 39.7136 102.509 40.9797 102.492ZM385.993 103.975C384.995 103.833 384.863 104.435 385.934 104.268C385.986 104.259 386.045 103.982 385.993 103.975ZM506.507 101.97C505.186 101.727 504.332 102.128 505.24 102.318C506.132 102.508 506.917 102.044 506.507 101.97ZM520 101.59C518.482 101.401 518.262 102.252 519.872 102.061C519.969 102.05 520.091 101.601 520 101.59ZM42.5325 104.977C42.5098 104.969 41.7261 104.957 41.6976 104.965C41.2702 105.152 42.8705 105.176 42.5325 104.977ZM533.397 101.266C532.937 101.153 531.54 101.292 532.138 101.432C532.638 101.544 533.978 101.407 533.397 101.266ZM334.059 104.887C334.044 104.878 333.472 104.886 333.485 104.936C333.529 105.097 334.322 105.029 334.059 104.887ZM556.16 101.46C552.791 101.586 550.745 100.902 554.394 100.883C555.055 100.874 552.978 101.155 553.821 101.19C555.368 101.252 556.37 100.76 557.957 100.909C558.241 100.937 556.356 101.456 556.154 101.461C556.156 101.461 556.158 101.46 556.16 101.46ZM385.405 103.269C385.384 103.262 384.592 103.272 384.574 103.28C384.149 103.479 385.745 103.459 385.405 103.269ZM300.382 105.211C300.343 105.195 298.479 105.205 298.412 105.222C297.443 105.546 301.217 105.525 300.382 105.211ZM439.239 101.913C440.109 101.709 441.152 101.672 441.849 101.902C440.984 101.902 440.111 101.912 439.239 101.913Z" fill="#686868"/>
<path d="M556.885 100.137C556.712 99.7053 556.601 99.1163 556.542 98.6503C556.525 98.5069 556.647 98.5462 556.639 98.4441C556.619 98.2355 556.522 98.0912 556.51 97.883C556.507 97.8169 556.691 97.8435 556.685 97.7766C556.65 97.4066 556.505 97.0794 556.427 96.7134C556.044 94.8978 555.525 93.1414 554.985 91.3447C554.807 90.7516 554.702 89.9914 554.424 89.4061C554.391 89.3391 554.267 89.4299 554.251 89.4208C554.002 89.2746 554.307 89.2443 554.295 89.0938C554.246 88.4908 554.041 87.8788 553.799 87.3815C553.695 87.1668 553.502 87.4909 553.574 87.2094C553.579 87.1899 553.747 87.1933 553.74 87.126C553.724 86.9716 553.602 86.7206 553.575 86.6102C553.523 86.396 553.509 86.3622 553.438 86.1646C553.34 85.8878 553.301 85.5559 553.16 85.2776C553.129 85.2188 553.009 85.3562 552.947 85.2674C552.885 85.1776 552.801 84.9143 552.805 84.816C552.808 84.7166 552.94 84.7092 552.961 84.6838C553.143 84.4731 552.715 84.2919 552.692 84.2559C552.297 83.6067 552.249 82.936 552 82.2836C551.807 81.7813 551.555 81.2968 551.376 80.8148C551.374 80.8088 551.372 80.8027 551.37 80.7967C551.162 80.2264 551.058 79.7134 550.837 79.1627C550.814 79.1044 550.663 79.2391 550.634 79.1678C550.331 78.4123 550.078 77.6375 549.944 76.8225C549.931 76.7413 550.121 76.7889 550.117 76.7049C550.089 76.1872 550.174 75.3489 549.399 75.2661C549.331 74.9348 549.246 74.5277 549.308 74.1986C549.347 73.9862 549.571 74.1222 549.434 73.9107C549.404 73.8627 549.269 73.9717 549.235 73.8963C549.092 73.5837 549.049 73.2084 548.89 72.8998C548.858 72.8375 548.724 72.889 548.695 72.8761C548.455 72.765 548.725 72.4185 548.736 72.3566C548.813 71.8719 548.672 71.5701 548.59 71.1582C548.571 71.062 548.409 71.2147 548.384 71.1232C548.258 70.6539 548.176 70.1493 548.173 69.6686C548.173 69.5607 548.35 69.6274 548.358 69.5744C548.391 69.34 548.082 69.3476 548.11 69.1254C548.115 69.0786 548.256 69.0797 548.27 69.069C548.483 68.9015 548.13 68.8478 548.117 68.8163C547.947 68.4237 548.253 68.1013 548.141 67.7108C548.127 67.6636 547.971 67.7993 547.943 67.6647C547.856 67.2533 547.792 66.8245 547.752 66.3885C547.706 65.8996 547.692 65.4009 547.709 64.9197C547.714 64.7801 547.857 64.8622 547.872 64.8516C548.107 64.6812 547.758 64.6299 547.74 64.5862C547.607 64.239 547.854 63.8823 547.425 63.6821C547.402 62.1685 547.041 60.6894 547.287 59.1704C547.289 59.1512 547.459 59.1721 547.464 59.1338C547.522 58.6728 547.27 58.7795 546.929 58.5017C546.844 58.4318 547.211 58.1729 547.237 58.1505C547.335 58.0687 547.59 58.1277 547.608 58.1014C547.751 57.8845 546.931 57.9766 546.911 57.6983C546.912 57.6895 547.065 57.7154 547.079 57.691C547.121 57.6153 547.056 57.5476 547.103 57.4731C547.212 57.3023 547.608 57.2175 547.359 56.9853C547.327 56.956 546.863 57.0353 546.869 56.7853C546.871 56.6858 546.835 56.2474 546.857 56.1228C546.88 55.9982 547.036 56.073 547.042 56.0638C547.22 55.721 547.31 55.8412 547.594 55.6579C547.878 55.4749 547.181 55.5632 547.099 55.5005C547.017 55.4375 547.166 55.1854 547.22 55.1226C547.274 55.0598 547.373 55.1283 547.403 55.0736C547.593 54.7111 547.046 54.94 546.929 54.8309C546.65 54.5732 547.157 54.331 547.194 54.0794C547.204 54.0113 547.089 54.0727 547.075 54.0133C547.02 53.7775 547.174 53.6253 547.011 53.3626C546.985 53.3198 546.661 53.1166 546.883 52.9629C546.915 52.9411 547.048 52.9917 547.071 52.8887C547.107 52.7345 547.122 52.4618 547.071 52.3C547.033 52.181 546.827 52.3293 546.886 52.1745C546.912 52.1057 547.043 52.2246 547.082 52.096C547.121 51.9677 547.101 51.6483 547.091 51.5251C547.081 51.4029 546.923 51.4771 546.911 51.4677C546.846 51.4106 546.758 51.1796 546.757 51.159C546.692 50.1138 546.927 49.1395 546.803 48.1255C546.794 48.0464 546.625 48.1049 546.622 48.0928C546.541 47.8211 547.002 48.0222 547.148 47.8257C546.802 47.8647 546.861 47.7491 546.817 47.5583C546.796 47.4664 546.663 47.5209 546.649 47.5129C546.441 47.3825 546.701 47.2782 546.754 47.2516C546.95 47.1538 546.713 47.0613 546.843 46.9954C546.973 46.9296 547.172 47.0662 547.164 46.8821C547.038 46.8341 546.718 46.9802 546.662 46.8419C546.447 46.3156 546.677 45.3262 546.694 44.8959C546.712 44.474 546.686 44.3309 546.726 44.087C546.799 43.6348 546.562 43.8039 546.447 43.5298C546.437 43.5058 546.433 43.4849 546.433 43.4667C546.433 43.2715 546.938 43.3751 547.053 43.3362C547.18 43.2946 547.048 43.2534 547.117 43.2035C547.186 43.1537 547.274 43.2578 547.299 43.143C547.323 43.0291 547.093 42.7203 546.96 42.6799C546.677 42.5976 546.383 42.7413 546.483 42.4381C546.489 42.4207 546.645 42.475 546.66 42.4087C546.774 41.8737 546.778 41.327 546.883 40.7958C546.897 40.724 547.07 40.7878 547.081 40.7461C547.191 40.3003 546.899 40.4624 546.575 40.2198C547.007 40.2762 547.271 40.1371 547.275 39.8075C547.277 39.605 547.089 39.6385 546.957 39.5077C546.917 39.468 547.047 39.3296 546.959 39.3017C546.67 39.2138 546.344 39.3445 546.476 38.9998C546.483 38.9848 546.641 39.0343 546.651 38.9824C546.717 38.6425 546.415 38.6035 546.384 38.2313C546.359 37.9446 546.554 37.4339 546.592 37.108C547.077 37.1258 546.973 36.8173 546.643 36.6812C546.662 36.4713 546.65 36.2397 546.703 36.0359C546.721 35.9655 546.86 36.0167 546.876 36.0083C547.118 35.8795 546.796 35.7783 546.785 35.7309C546.678 35.2298 546.941 34.8358 546.721 34.3524C546.713 34.3353 546.377 34.2931 546.629 34.1775C546.646 34.1702 546.792 34.3326 546.814 34.1113C546.835 33.8885 547.035 33.4784 546.893 33.1625C546.859 33.0861 546.595 32.8844 546.815 32.7429C546.845 32.7241 546.941 32.7507 546.996 32.724C547.171 32.6378 546.834 32.5704 547.128 32.4732C547.422 32.3759 547.649 32.1552 547.463 31.8346C547.458 31.8244 547.191 31.7392 547.2 31.6413C547.214 31.4853 547.279 31.2652 547.284 31.103C547.286 31.025 547.117 31.0681 547.114 31.0544C547.106 30.9931 547.101 30.9336 547.098 30.8756C547.078 30.4377 547.214 30.0933 547.288 29.5975C547.303 29.4936 547.084 29.1911 547.27 28.9972C547.474 28.7839 548.291 29.0311 548.108 28.5207C548.035 28.3134 546.998 28.0318 547.547 27.6782C547.428 26.9669 547.716 26.3143 547.534 25.6005C547.526 25.5685 547.236 25.464 547.241 25.3888C547.248 25.2769 547.385 25.2176 547.395 25.1381C547.44 24.8039 547.326 24.4979 547.346 24.1764C547.353 24.0541 547.494 24.0974 547.502 23.952C547.511 23.8068 547.326 23.7075 547.416 23.5114C547.485 23.3628 547.865 23.2139 547.909 23.0161C547.535 23.0082 547.543 22.871 547.444 22.6302C547.425 22.5838 547.295 22.6336 547.279 22.6117C547.212 22.5224 547.32 22.4394 547.247 22.3545C547.229 22.334 547.102 22.3332 547.08 22.3164C546.892 22.174 547.179 21.9363 547.228 21.8958C547.418 21.7399 547.251 21.6677 547.326 21.5478C547.4 21.4281 547.494 21.6059 547.539 21.4666C547.631 21.1777 547.608 20.8061 547.612 20.5129C547.612 20.3959 547.442 20.4772 547.438 20.4605C547.393 20.2188 547.572 19.9726 547.231 19.8421C548.106 19.6637 547.144 19.6977 547.315 19.3496C547.329 19.3221 547.744 19.2817 547.806 19.3858C547.868 19.49 547.74 19.6501 547.837 19.7942C547.86 19.8284 548.251 20.0215 548.275 20.0482C548.461 20.257 547.841 20.2934 547.807 20.3048C547.441 20.4349 547.862 20.671 547.891 20.7348C548.026 21.0241 547.94 21.2718 548.036 21.5136C548.098 21.6726 548.505 21.6865 548.493 21.8115C548.453 22.2274 547.886 22.3726 548.377 22.7633C548.482 22.8469 548.927 22.7646 548.577 23.0651C548.555 23.084 548.235 23.3064 548.437 23.4361C548.462 23.4524 548.591 23.4523 548.602 23.4737C548.672 23.6169 548.569 23.7125 548.617 23.8689C548.666 24.0247 548.738 24.2139 548.693 24.3914C548.666 24.498 548.424 24.635 548.364 24.6856C548.193 24.8288 548.47 24.9872 548.263 25.0751C548.056 25.1634 547.743 24.9837 547.607 25.2189C547.943 25.2312 548.288 25.2551 548.626 25.273C548.608 25.7945 548.492 26.3059 548.498 26.8291C548.499 26.8937 548.681 26.8308 548.686 26.9004C548.71 27.1955 548.576 27.4486 548.62 27.7541C548.655 27.9906 548.84 28.2539 548.882 28.5017C548.494 28.6429 548.614 29.0113 548.571 29.2762C548.556 29.3691 548.454 29.3597 548.418 29.4247C548.286 29.6696 548.63 29.5642 548.681 29.6343C548.9 29.9355 548.13 29.936 548.137 30.2813C548.137 30.2998 548.539 30.5387 548.563 30.5703C548.722 30.7735 548.419 30.5976 548.384 30.7195C548.363 30.7934 548.337 30.8591 548.317 30.9237C548.275 31.056 548.252 31.1809 548.325 31.3607C548.358 31.4391 548.605 31.633 548.401 31.7736C548.374 31.792 548.239 31.7753 548.231 31.7907C548.086 32.0686 548.511 32.0961 548.648 32.2646C548.785 32.4344 548.479 32.6711 548.392 32.7183C548.167 32.8415 548.303 32.6118 548.282 32.6034C548.03 32.5066 548.066 32.6918 548.038 32.8301C547.62 32.8309 547.636 33.0271 548.011 32.9737C548.051 32.9676 548.018 32.8572 548.038 32.8301C548.442 32.9715 548.484 33.1884 548.091 33.407C547.906 33.5094 547.702 33.3952 547.763 33.7348C547.791 33.8892 548.081 33.8429 548.153 33.9808C548.318 34.2958 548.033 34.6825 548.062 34.9998C548.073 35.1152 548.235 35.0096 548.248 35.0887C548.282 35.2975 548.157 35.4774 548.21 35.6868C548.215 35.7059 548.381 35.6656 548.381 35.7305C548.383 36.2216 548.265 36.6448 548.249 37.1569C548.242 37.4055 548.323 37.8467 548.301 38.1051C548.263 38.5492 548.017 39.0912 548.073 39.4734C548.109 39.7211 548.274 39.6684 548.386 39.7762C548.603 39.9774 548.212 40.3449 548.152 40.391C548.15 40.3921 548.111 40.1817 548.027 40.2938C547.85 40.3591 548.151 40.3886 548.152 40.391C548.113 40.4213 548.076 40.8522 548.108 40.9343C548.125 40.9801 548.281 40.954 548.287 40.9779C548.429 41.5468 548.474 42.122 548.408 42.6979C548.405 42.7082 548.23 42.6949 548.225 42.7192C548.162 43.0129 548.315 43.2039 548.442 43.4345C548.462 43.4695 548.482 43.5053 548.5 43.5424C548.631 43.8133 548.593 44.0402 548.296 44.2057C548.338 44.4119 548.212 44.7189 548.135 44.8904C548.058 45.0644 548.399 45.0814 548.406 45.0964C548.632 45.5647 548.444 45.845 548.427 46.3343C548.418 46.5716 548.481 47.0276 548.526 47.283C548.562 47.4802 548.486 47.6028 548.543 47.7858C548.551 47.8105 548.701 47.7804 548.707 47.7879C548.895 47.9882 548.522 47.9013 548.457 47.9461C548.222 48.1079 548.097 48.2057 548.219 48.4658C548.247 48.5255 548.786 48.6858 548.821 48.7935C548.866 48.9351 548.673 48.888 548.725 49.0366C548.729 49.0493 548.847 49.0423 548.845 49.1354C548.838 49.5681 548.788 50.0413 548.819 50.4868C548.822 50.5479 549.006 50.4617 549.014 50.5499C549.054 50.965 549.067 51.4179 548.998 51.8253C548.981 51.9255 548.847 51.8694 548.809 51.8928C548.581 52.0362 548.931 52.2083 548.939 52.239C549.138 52.9689 548.859 53.5515 549.048 54.2957C549.059 54.3363 549.442 54.6308 549.137 54.7892C549.117 54.7999 548.804 54.9579 549.03 55.0681C549.045 55.0749 549.205 54.9785 549.197 55.1307C549.189 55.2831 549.314 55.5195 549.145 55.7385C549.092 55.8078 548.782 55.9836 549.05 56.1638C549.068 56.1757 549.664 56.4411 549.274 56.575C549.209 56.5968 548.787 56.6063 549.018 56.8262C549.063 56.8681 549.152 56.7806 549.218 56.8945C549.321 57.0691 549.224 57.3162 549.427 57.5244C549.463 57.5606 549.761 57.7048 549.553 57.8523C549.521 57.8754 549.378 57.8462 549.367 57.9171C549.315 58.2538 549.435 58.5942 549.364 58.9375C549.339 59.0591 549.107 59.016 549.056 59.1447C549.005 59.2743 548.967 59.5301 549.081 59.6515C549.196 59.7728 549.546 59.6017 549.591 59.7931C549.786 60.6273 549.649 61.4811 549.702 62.3249C549.709 62.45 549.828 62.334 549.849 62.5168C549.926 63.1936 550.177 64.3408 549.977 64.9559C549.816 65.4514 549.575 64.8832 549.531 65.2524C549.51 65.4298 549.953 65.5624 549.972 65.6025C550.053 65.7714 550.071 65.9228 550.075 66.0688C550.08 66.2649 550.06 66.4515 550.122 66.6507C550.144 66.7233 550.303 66.6251 550.321 66.6882C550.382 66.905 550.341 67.1409 550.387 67.3475C550.408 67.4404 550.534 67.4029 550.538 67.4902C550.548 67.6984 550.522 67.8857 550.435 68.1069C550.427 68.127 550.246 68.0306 550.266 68.1835C550.297 68.4273 550.231 68.7584 550.404 69.0141C550.457 69.092 550.751 69.042 550.581 69.2583C550.545 69.3033 550.184 69.3219 550.527 69.4722C550.584 69.4967 551.062 69.7706 550.831 69.9895C550.77 70.0477 550.506 70.2226 550.571 70.3134C550.581 70.3255 550.727 70.2396 550.759 70.3189C550.869 70.5961 550.917 70.9055 551.032 71.1925C551.063 71.2689 551.199 71.1152 551.24 71.2297C551.352 71.5416 551.405 71.9557 551.431 72.2817C551.44 72.4014 551.287 72.3546 551.275 72.3665C551.072 72.5602 551.411 72.5636 551.441 72.6034C551.622 72.8527 551.528 73.1058 551.636 73.3517C551.665 73.4201 551.803 73.329 551.82 73.3396C551.991 73.4501 551.69 73.4145 551.685 73.515C551.671 73.7957 551.764 74.0815 551.859 74.3379C551.894 74.4313 552.037 74.2735 552.066 74.3575C552.244 74.8557 552.39 75.3834 552.456 75.9062C552.468 76.0044 552.316 75.99 552.292 76.0192C552.123 76.2226 552.478 76.3232 552.521 76.3578C552.715 76.5196 552.625 76.6379 552.709 76.8105C553.12 77.6504 553.45 78.7604 553.726 79.6174C553.755 79.7049 553.782 79.7912 553.809 79.8763C554.128 80.8957 554.327 81.7254 554.727 82.6952C554.754 82.7615 554.902 82.6284 554.928 82.6846C555.25 83.4121 555.459 84.1812 555.785 84.9094C555.812 84.9689 555.945 84.8202 555.992 84.9135C556.093 85.1076 556.18 85.3729 556.202 85.596C556.213 85.7049 556.022 85.6234 556.035 85.7319C556.066 85.981 556.149 86.2439 556.263 86.475C556.312 86.5734 556.425 86.3571 556.475 86.4897C556.823 87.3961 557.17 88.2738 557.276 89.281C557.283 89.35 556.955 89.5212 557.07 89.6368C557.169 89.6135 557.282 89.5734 557.386 89.542C557.909 90.8597 558.238 92.2185 558.662 93.5726C558.68 93.6288 558.833 93.4716 558.868 93.58C559.075 94.2215 559.326 94.8242 559.348 95.5368C559.35 95.6081 559.014 95.6782 559.123 95.8532C559.142 95.8823 559.276 96.158 559.37 96.2119C559.384 96.2188 559.52 96.1189 559.553 96.2106C559.744 96.7452 559.881 97.3251 559.948 97.8982C559.958 97.991 559.768 97.9449 559.774 98.0111C559.817 98.4793 560.08 98.9305 560.048 99.3977C560.027 99.7184 559.712 99.6776 559.475 99.9103C559.442 99.9447 559.481 100.117 559.322 100.172C558.919 100.303 558.449 100.333 558.022 100.484C557.932 100.521 558.089 100.71 557.829 100.641C557.812 100.639 557.692 100.488 557.605 100.472C557.545 100.458 557.393 100.552 557.309 100.513C557.226 100.471 557.348 100.374 557.242 100.3C557.135 100.225 556.959 100.318 556.885 100.137ZM547.793 45.6764C547.634 45.8411 548.233 45.8497 548.085 45.6798C548.078 45.6716 547.801 45.668 547.793 45.6764ZM548.04 26.2961C547.773 26.5015 548.159 26.6528 548.365 26.507C548.571 26.3621 548.121 26.2332 548.04 26.2961ZM547.871 24.1131C547.662 24.3576 548.51 24.4024 548.34 24.1373C548.33 24.1218 547.884 24.0987 547.871 24.1131ZM559.205 99.2334C559.198 99.2383 559.225 99.3634 559.233 99.3635C559.434 99.3783 559.38 99.128 559.205 99.2334ZM547.665 21.9506C547.551 22.0278 547.683 22.2481 547.826 22.1526C547.941 22.0757 547.808 21.8546 547.665 21.9506ZM547.485 54.0568C547.477 54.0598 547.474 54.153 547.524 54.1484C547.686 54.1332 547.633 54.0066 547.485 54.0568ZM547.617 18.2782C547.595 18.822 546.899 19.1598 546.969 18.5698C546.981 18.4628 547.196 18.7963 547.257 18.6593C547.368 18.408 546.925 18.2515 547.156 17.9929C547.198 17.946 547.62 18.2472 547.618 18.2792C547.618 18.2789 547.618 18.2785 547.617 18.2782ZM547.078 45.7869C547.07 45.7903 547.065 45.9202 547.073 45.9232C547.265 45.9886 547.274 45.7269 547.078 45.7869ZM547.477 59.5021C547.461 59.5107 547.469 59.8104 547.485 59.8188C547.807 59.9489 547.791 59.3441 547.477 59.5021ZM546.605 37.1031C546.417 36.9575 546.399 36.7882 546.642 36.6819C546.626 36.8225 546.62 36.9624 546.605 37.1031Z" fill="#686868"/>
<path d="M28.0275 20.5167C30.9818 20.4919 34.8544 20.5994 37.7907 20.7199C38.7124 20.7575 38.2407 20.8564 38.8782 20.8872C40.1197 20.9474 41.2833 20.9139 42.5086 20.983C42.9159 21.0065 42.4054 21.1661 42.8332 21.1869C45.1783 21.2997 47.3845 21.2952 49.7559 21.3738C53.631 21.5025 57.4844 21.623 61.3371 21.7395C69.0618 21.9654 76.7987 22.0305 84.6909 22.086C88.5855 22.1119 93.3209 22.2537 97.3455 22.1709C97.8153 22.1611 97.5346 22.0149 97.6239 22.0024C99.0206 21.8107 98.5606 22.1101 99.4755 22.1456C103.102 22.2856 107.149 22.2754 110.643 22.1937C112.128 22.1585 110.638 21.8765 112.137 22.0299C112.24 22.0402 111.866 22.1995 112.272 22.2132C113.196 22.2441 114.96 22.2023 115.666 22.2089C116.435 22.2163 116.848 22.2184 117.274 22.2174C117.627 22.2165 117.997 22.2133 118.58 22.208C120.365 22.1932 122.486 22.2391 124.399 22.1655C124.808 22.1493 124.263 21.9998 124.915 21.9592C125.567 21.9192 127.292 21.8932 127.873 21.916C128.456 21.9392 128.212 22.0714 128.315 22.0977C129.17 22.3208 131.156 21.926 131.411 21.9094C136.087 21.626 140.106 21.6603 144.5 21.4668C147.837 21.3191 151.397 21.0837 154.574 20.9339C158.352 20.7563 161.567 20.6771 165.237 20.474C165.626 20.4526 165.161 20.2876 165.635 20.2612C169.135 20.0665 172.609 19.8951 176.1 19.7714C177.629 19.7172 179.155 19.6661 180.682 19.6201C181.185 19.605 180.547 19.8065 181.05 19.8013C184.127 19.7684 189.004 19.7854 190.782 18.9456C192.862 18.8384 195.39 18.7003 197.261 18.7255C198.467 18.7417 197.312 18.9964 198.783 18.8254C199.114 18.7872 198.672 18.6569 199.169 18.6116C201.267 18.4208 203.564 18.3335 205.64 18.1363C206.063 18.0958 205.94 17.9608 206.059 17.9287C207.049 17.6667 208.757 17.92 209.116 17.9272C211.913 17.9723 213.939 17.8105 216.536 17.7145C217.142 17.6925 216.418 17.5297 217.002 17.5018C217.027 17.5007 217.051 17.4995 217.076 17.4984C220.049 17.36 223.117 17.223 226.041 17.1561C226.691 17.1416 226.102 17.3344 226.414 17.3357C227.801 17.3387 228.092 17.0168 229.408 17.0135C229.688 17.0122 229.538 17.159 229.59 17.1715C230.409 17.3676 231.064 16.9934 231.275 16.9748C233.86 16.735 235.528 17.0005 238.026 16.8207C238.326 16.7988 237.643 16.6584 238.481 16.6079C244.07 16.27 250.013 16.0341 255.559 15.9469C256.417 15.9333 255.811 16.0901 255.865 16.1042C256.755 16.3219 257.322 15.9589 257.602 15.935C259.811 15.755 261.901 15.9641 263.389 15.5065C266.738 15.4394 270.082 15.3395 273.419 15.2508C279.449 15.0907 285.468 14.9572 291.476 15.089C291.594 15.0912 291.385 15.2624 291.621 15.2661C294.47 15.3128 293.918 15.0618 295.798 14.7139C296.272 14.6266 297.721 14.9896 297.849 15.016C298.316 15.1131 297.837 15.3694 297.993 15.3873C299.285 15.5266 299.064 14.7051 300.803 14.6808C300.857 14.6814 300.631 14.8363 300.777 14.8494C301.231 14.8905 301.68 14.8242 302.125 14.8705C303.144 14.978 303.507 15.3738 305.059 15.1212C305.254 15.0886 304.95 14.6244 306.501 14.6277C307.123 14.6291 309.862 14.5895 310.632 14.6116C311.398 14.6335 310.874 14.79 310.929 14.7959C312.996 14.9728 312.217 15.0639 313.254 15.348C314.291 15.6312 313.994 14.9333 314.418 14.8507C314.843 14.7683 316.359 14.9177 316.729 14.9713C317.104 15.0249 316.638 15.1251 316.971 15.1543C319.173 15.3447 317.933 14.7972 318.655 14.6791C320.359 14.3998 321.688 14.908 323.252 14.9456C323.673 14.9557 323.329 14.8402 323.703 14.826C325.199 14.7711 326.083 14.9261 327.786 14.7639C328.059 14.7375 329.432 14.4142 330.318 14.6369C330.443 14.669 330.09 14.8013 330.721 14.8255C331.675 14.8618 333.372 14.8777 334.401 14.827C335.151 14.7895 334.292 14.5822 335.232 14.6418C335.651 14.6684 334.873 14.7989 335.666 14.8384C336.462 14.8779 338.471 14.8583 339.232 14.8486C339.985 14.8389 339.574 14.6799 339.633 14.6686C340.018 14.6034 341.479 14.5151 341.602 14.5144C344.078 14.4895 346.482 14.507 348.853 14.5292C352.76 14.5655 356.576 14.6141 360.529 14.5094C361.021 14.4965 360.691 14.3298 360.766 14.3261C362.484 14.2329 361.126 14.7042 362.332 14.8405C362.155 14.4963 362.861 14.55 364.062 14.4953C364.643 14.4686 364.325 14.3389 364.378 14.3244C365.232 14.1086 365.835 14.363 365.991 14.4146C366.565 14.6044 367.18 14.3612 367.57 14.4878C367.959 14.6134 367.071 14.8215 368.224 14.8018C368.546 14.6729 367.684 14.3616 368.561 14.296C371.864 14.0462 378.041 14.2131 380.698 14.2088C383.365 14.2029 384.195 14.1711 385.765 14.1986C386.655 14.2153 387.173 14.2022 387.509 14.1724C388.173 14.1112 388.078 13.9786 389.267 13.8922C390.986 13.7648 390.16 14.3649 390.408 14.4897C390.656 14.6144 390.926 14.4808 391.238 14.5476C391.538 14.6146 390.891 14.7074 391.595 14.7267C392.303 14.746 394.267 14.5011 394.519 14.3658C395.051 14.0791 394.181 13.7913 396.065 13.8779C396.173 13.8831 395.822 14.0419 396.238 14.0538C399.556 14.1434 403.005 14.1216 406.319 14.201C406.778 14.2122 406.37 14.3885 406.636 14.397C409.384 14.486 408.414 14.2018 409.914 13.866C409.576 14.3001 410.422 14.5574 412.512 14.5445C413.77 14.5369 413.559 14.35 414.368 14.2113C414.611 14.1695 415.503 14.2925 415.665 14.2027C416.194 13.9093 415.358 13.5908 417.515 13.7049C417.609 13.7104 417.309 13.871 417.636 13.8784C419.758 13.9266 420.004 13.6219 422.294 13.5703C424.087 13.5298 427.28 13.695 429.32 13.7135C429.281 14.1988 431.209 14.0768 431.989 13.7381C433.318 13.7446 434.748 13.7183 436.029 13.7582C436.468 13.7718 436.18 13.9137 436.236 13.9286C437.085 14.1625 437.668 13.8344 437.952 13.8203C441.053 13.6819 443.578 13.9183 446.534 13.6676C446.64 13.6586 446.813 13.321 447.605 13.5646C447.656 13.5814 446.681 13.7377 448.07 13.7454C449.465 13.753 452.085 13.9272 454.023 13.7684C454.486 13.7301 455.676 13.4551 456.621 13.6683C456.747 13.6972 456.61 13.7939 456.79 13.8476C457.364 14.0187 457.715 13.678 458.4 13.9674C458.879 14.1744 459.795 14.3444 460.94 14.3527C461.418 14.356 461.936 14.3341 462.483 14.2791C462.543 14.2735 463.001 14.0049 463.623 14.0123C464.593 14.0238 465.985 14.0901 467.009 14.099C467.502 14.1032 467.188 13.9323 467.274 13.9301C470.553 13.8734 472.899 14.0625 476.42 14.2314C477.066 14.2624 478.92 14.096 480.168 14.3294C481.538 14.5869 480.09 15.3403 483.242 15.2951C484.51 15.2798 486.182 14.3256 488.432 15.0018C491.609 15.0957 494.599 15.3868 497.692 15.4991C498.954 15.5177 500.144 15.5181 501.424 15.4829C501.628 15.4774 502.27 15.1956 502.737 15.2067C503.432 15.2238 503.792 15.3657 504.308 15.3827C506.408 15.4569 508.302 15.3721 510.328 15.4265C511.094 15.4469 510.827 15.5829 511.725 15.6073C512.636 15.632 513.27 15.4584 514.477 15.5718C515.444 15.6593 516.307 16.0559 517.581 16.1274C517.651 15.7551 518.45 15.7794 520 15.7162C520.291 15.7038 519.983 15.5665 520.121 15.5539C520.679 15.4997 521.181 15.6195 521.727 15.5597C521.858 15.5453 521.867 15.4178 521.974 15.3989C522.858 15.2321 524.359 15.5584 524.595 15.6149C525.562 15.8307 526.033 15.6778 526.764 15.7736C527.523 15.8704 526.385 15.9308 527.268 16.002C529.064 16.1482 531.388 16.2033 533.22 16.2803C533.949 16.3101 533.458 16.1205 533.563 16.1208C535.077 16.1364 536.601 16.3879 537.447 16.0914C538.451 17.0242 538.363 16.0458 540.515 16.3603C540.676 16.3857 540.865 16.814 540.219 16.8319C539.564 16.8495 538.575 16.6617 537.675 16.7107C537.446 16.7205 536.208 17.0502 536.042 17.0668C534.716 17.1913 534.571 16.5665 534.499 16.529C533.712 16.1277 532.209 16.4908 531.81 16.506C530.002 16.5742 528.45 16.4389 526.94 16.4897C525.943 16.5222 525.856 16.9264 525.06 16.8923C522.486 16.7825 521.589 16.1943 519.139 16.63C518.599 16.7229 519.14 17.1785 517.265 16.7888C517.131 16.7638 515.78 16.4159 514.957 16.6016C514.855 16.625 514.855 16.7545 514.72 16.7627C513.818 16.8151 513.256 16.7011 512.262 16.7317C511.292 16.7629 510.126 16.8154 509.012 16.7521C508.358 16.7144 507.5 16.4587 507.175 16.3943C506.252 16.2087 505.319 16.4725 504.749 16.2575C504.18 16.0415 505.308 15.7449 503.803 15.5875C503.744 15.9229 503.616 16.266 503.524 16.6028C501.585 16.5656 499.66 16.4951 497.683 16.4384L497.658 16.4378C496.374 16.3722 495.086 16.3016 493.79 16.2414C493.384 16.2228 493.789 16.4247 493.355 16.4092C491.524 16.342 489.938 16.116 488.046 16.0554C486.58 16.009 484.975 16.1085 483.445 16.0795C482.535 15.6467 480.264 15.6724 478.623 15.5789C478.048 15.5459 478.078 15.4443 477.679 15.397C476.132 15.2219 476.847 15.5861 476.425 15.6262C474.593 15.8011 474.471 15.0272 472.317 14.9997C472.207 14.9977 470.799 15.3816 470.614 15.4045C469.388 15.5512 470.411 15.2582 469.647 15.2161C468.271 15.1405 467.285 15.0309 465.664 15.1377C465.179 15.1692 464.054 15.4173 463.114 15.2158C462.991 15.1894 463.06 15.054 462.96 15.0457C461.817 14.9547 461.385 15.1072 460.939 15.2628C460.714 15.3449 460.484 15.428 460.135 15.4775C459.102 15.6207 457.564 15.3268 457.226 15.2422C456.394 15.0232 457.872 15.1482 457.919 15.1268C458.458 14.8707 457.283 14.9147 456.433 14.8937C456.311 14.476 455.077 14.5022 455.524 14.8737C455.577 14.9143 456.26 14.8747 456.433 14.8937C455.663 15.3041 454.332 15.3579 452.836 14.9776C452.146 14.7994 452.809 14.5885 450.689 14.6698C449.74 14.7067 450.109 14.9934 449.263 15.074C447.339 15.258 444.821 14.9982 442.839 15.0483C442.116 15.0665 442.821 15.2212 442.327 15.2391C441.013 15.2871 439.861 15.1739 438.548 15.2404C438.429 15.2466 438.72 15.4101 438.312 15.4141C435.212 15.4476 432.51 15.3561 429.276 15.3717C427.714 15.3792 424.918 15.4871 423.298 15.4792C420.489 15.4663 417.038 15.2502 414.637 15.3258C413.077 15.3744 413.415 15.5368 412.747 15.6541C411.462 15.8812 409.162 15.5088 408.857 15.4508C408.852 15.4489 410.188 15.3997 409.473 15.3206C409.057 15.1475 408.873 15.45 408.857 15.4508C408.647 15.4134 405.968 15.3971 405.428 15.4331C405.138 15.4526 405.302 15.6075 405.151 15.6148C401.558 15.7837 397.961 15.8545 394.307 15.8156C394.242 15.8131 394.337 15.6375 394.186 15.6336C392.082 15.5757 390.718 15.8029 388.989 15.9474C388.459 15.9909 387.973 16.0187 387.528 16.0286C386.433 16.0523 385.568 15.9779 384.833 15.7761C383.524 15.8284 381.642 15.7179 380.552 15.6509C379.483 15.5836 379.318 15.926 379.226 15.9338C376.272 16.1868 374.533 16.0165 371.452 16.0317C369.983 16.0384 367.076 16.132 365.488 16.1919C364.232 16.2399 363.473 16.1706 362.319 16.2368C362.162 16.2457 362.322 16.395 362.274 16.4015C360.983 16.5994 361.602 16.2211 361.334 16.1585C360.357 15.9302 359.768 15.8097 358.113 15.9414C357.729 15.9716 356.628 16.5165 355.928 16.5548C355.036 16.6033 355.351 16.4091 354.419 16.4645C354.338 16.469 354.361 16.5867 353.77 16.5871C352.2 16.5887 350.547 16.5742 348.869 16.568C347.684 16.5633 346.47 16.5631 345.275 16.5767C344.895 16.5806 345.384 16.7641 344.834 16.7728C342.224 16.8137 339.363 16.8265 336.818 16.757C336.193 16.7393 336.584 16.6056 336.448 16.5677C335.603 16.3385 334.434 16.6887 334.236 16.6966C329.568 16.8947 326.018 16.6127 321.269 16.8017C321.016 16.8125 319.021 17.1968 318.138 16.8911C318.079 16.8707 317.194 16.5576 316.421 16.7849C316.373 16.7992 316.92 16.9593 315.968 16.9517C315.015 16.9443 313.481 17.0703 312.166 16.9025C311.745 16.8497 310.768 16.5395 309.529 16.8091C309.445 16.8278 307.546 17.4275 306.856 17.0372C306.744 16.9729 306.855 16.5494 305.38 16.7838C305.099 16.8293 305.612 16.917 304.869 16.985C303.728 17.0898 302.219 16.9964 300.819 17.2035C300.576 17.2401 299.54 17.5408 298.702 17.3355C298.571 17.3033 298.817 17.1589 298.376 17.1495C296.279 17.1041 294.089 17.2323 291.958 17.1706C291.205 17.149 291.587 16.9148 290.8 16.8672C290.01 16.8197 288.432 16.7892 287.608 16.9087C286.788 17.0282 287.692 17.3741 286.463 17.4265C282.125 17.6118 277.801 17.5861 273.483 17.6349C272.467 17.6467 271.48 17.6619 270.465 17.6856C269.671 17.7043 270.33 17.8145 269.167 17.8519C264.86 17.9864 257.443 18.3851 253.7 18.2734C250.692 18.1819 254.458 17.8506 252.164 17.8601C251.071 17.8648 249.878 18.3413 249.621 18.3663C247.026 18.62 245.206 18.5204 242.869 18.6936C242.386 18.7295 242.868 18.8768 242.458 18.9054C241.058 19.005 239.568 19.0045 238.235 19.0876C237.628 19.1257 237.746 19.2504 237.192 19.2691C235.868 19.3156 234.682 19.3232 233.392 19.269C233.273 19.2642 234.059 19.0597 233.075 19.1059C231.492 19.1805 229.504 19.1657 227.682 19.3862C227.152 19.4515 227.126 19.752 225.961 19.6058C225.717 19.5752 225.998 19.2022 224.662 19.5804C224.43 19.6441 222.175 20.1751 221.031 19.9576C220.741 19.9002 219.956 19.6425 219.311 19.7163C219.222 19.7275 219.588 19.8723 219.041 19.9114C218.429 19.9543 217.791 19.9898 217.171 20.02C215.842 20.0846 214.515 20.1417 213.186 20.2343C212.668 20.271 213.45 20.4023 212.674 20.4521C210.534 20.5892 207.875 20.6818 205.777 20.7475C205.005 20.7712 205.53 20.6041 205.473 20.5923C204.563 20.3998 204.041 20.7594 203.747 20.7957C201.894 21.0193 200.467 20.9533 198.753 21.1031C198.279 21.1442 198.626 21.279 198.532 21.299C197.563 21.4977 198.273 21.1704 197.653 21.1792C195.913 21.2033 193.979 21.3434 192.225 21.4783C191.58 21.5281 192.317 21.6618 191.738 21.7044C188.312 21.9601 184.745 22.1689 181.386 22.2572C180.756 22.2734 181.144 22.1116 181.011 22.0871C180.088 21.9152 178.777 22.2901 178.475 22.3347C177.48 22.4815 176.93 22.4728 176.233 22.4871C175.957 22.4927 175.662 22.5019 175.313 22.5257C169.338 22.9346 161.944 23.2404 156.289 23.4743C148.92 23.7785 143.191 23.9187 136.155 24.208C135.707 24.226 136.165 24.3958 135.78 24.4136C130.801 24.6343 125.891 24.6909 120.896 24.8159C120.487 24.8257 121.079 24.9938 120.422 25.0153C119.477 25.0469 118.358 25.0605 117.298 25.049C116.855 25.044 116.416 25.0349 116.001 25.0214C115.335 24.9997 116.219 24.8412 115.558 24.8224C113.993 24.7783 112.341 24.7783 110.733 24.8179C110.057 24.8351 111.08 25.0082 110.199 25.0165C104.166 25.076 98.2531 25.1373 92.1626 24.9191C91.7453 24.904 91.3779 24.5385 90.4904 24.6105C90.4238 24.7123 90.4276 24.832 90.3986 24.9408C81.6245 25.0129 72.9405 24.8814 64.1353 24.7344C63.758 24.7278 64.4063 24.9321 63.6772 24.9201C62.8744 24.9068 62.056 24.8937 61.2732 24.8793C57.9491 24.8178 54.6693 24.7588 51.2464 24.54C50.8237 24.5134 51.0525 24.1758 49.8052 24.2048C49.5864 24.2101 47.7146 24.2222 47.2316 24.288C47.1655 24.298 47.5051 24.4635 46.9 24.4575C43.3989 24.4205 39.7297 24.3243 36.2345 24.1768C35.6711 24.1527 36.2731 23.9915 35.8729 23.9729C33.0215 23.8422 29.924 23.9323 27.2042 23.7547C25.378 23.6362 26.0624 23.3483 25.0928 23.0532C24.9592 23.0113 23.8228 23.0002 23.769 22.8323C23.6207 22.4092 24.1674 21.9479 23.9442 21.4966C23.8999 21.3987 22.3924 21.5022 23.2778 21.2682C23.3459 21.2521 24.4451 21.1774 24.7135 21.0995C24.9057 21.0455 24.559 20.8728 24.9538 20.8044C25.3281 20.736 25.756 20.8819 26.3967 20.804C27.0273 20.7253 26.7647 20.5281 28.0275 20.5167ZM375.671 15.3548C374.666 15.2054 374.53 15.8056 375.608 15.6475C375.661 15.6391 375.723 15.3621 375.671 15.3548ZM497.09 15.9232C495.787 15.6086 494.868 15.9522 495.792 16.198C496.708 16.4419 497.488 16.0181 497.09 15.9232ZM510.735 15.9591C509.195 15.7234 508.931 16.5672 510.594 16.4254C510.69 16.4174 510.824 15.9728 510.735 15.9591ZM29.5841 23.0093C29.5712 23.0012 28.7607 22.985 28.7393 22.9927C28.3052 23.1782 29.9282 23.2104 29.5841 23.0093ZM524.237 16.0421C523.766 15.9147 522.371 16.0121 522.96 16.1697C523.453 16.2967 524.825 16.2004 524.237 16.0421ZM323.297 15.2372C323.281 15.2284 322.7 15.2253 322.712 15.2756C322.753 15.4376 323.561 15.3849 323.297 15.2372ZM547.121 17.3383C546.09 17.2387 545.19 17.0668 544.546 16.8906C543.275 16.5359 542.962 16.2285 544.616 16.4129C544.844 16.4375 545.121 16.4722 545.443 16.5153C546.102 16.607 543.993 16.5674 544.826 16.7315C546.359 17.0322 547.425 16.6734 548.99 17.0329C549.273 17.0989 547.315 17.362 547.115 17.3387C547.117 17.3386 547.119 17.3384 547.121 17.3383ZM375.084 14.6444C375.07 14.6367 374.254 14.6407 374.237 14.6488C373.802 14.8448 375.431 14.8371 375.084 14.6444ZM289.322 15.2901C289.278 15.2738 287.406 15.2922 287.346 15.3091C286.376 15.6374 290.158 15.601 289.322 15.2901ZM429.353 13.7262C430.234 13.5301 431.282 13.5018 431.985 13.7379C431.111 13.7299 430.234 13.7329 429.353 13.7262Z" fill="#686868"/>
<path d="M548.066 19.1707C547.689 19.1743 547.206 19.0582 546.842 18.9379C546.73 18.9006 546.801 18.8023 546.723 18.7718C546.57 18.7122 546.417 18.7467 546.267 18.6803C546.218 18.6577 546.301 18.4982 546.248 18.4783C545.96 18.3708 545.674 18.3823 545.377 18.315C544.091 18.0248 542.805 17.8384 541.526 17.7268C541.354 17.7121 541.178 17.6992 541 17.6871C540.509 17.6536 539.902 17.5 539.385 17.5685C539.325 17.5766 539.361 17.7239 539.35 17.7361C539.171 17.9228 539.229 17.625 539.111 17.586C538.643 17.4323 538.122 17.4236 537.671 17.4855C537.479 17.5122 537.675 17.8028 537.48 17.6407C537.466 17.6298 537.513 17.4727 537.46 17.4566C537.34 17.4204 537.114 17.4511 537.021 17.4398C536.843 17.4173 536.813 17.4193 536.644 17.4196C536.413 17.4186 536.137 17.3443 535.889 17.3827C535.836 17.3914 535.909 17.551 535.824 17.5793C535.739 17.6076 535.516 17.5966 535.439 17.5595C535.363 17.5225 535.394 17.3961 535.38 17.3673C535.366 17.3355 535.348 17.3137 535.33 17.2998C535.203 17.2081 535.009 17.4662 534.979 17.4738C534.375 17.6225 533.853 17.4357 533.282 17.4411C532.849 17.4455 532.384 17.5119 531.97 17.5036C531.477 17.4931 531.059 17.4042 530.58 17.4138C530.529 17.4146 530.586 17.6039 530.524 17.6053C530.046 17.6156 529.571 17.6003 529.098 17.5358C528.926 17.5117 528.75 17.4817 528.575 17.4442C528.51 17.4303 528.596 17.2659 528.532 17.2421C528.14 17.0999 527.512 16.7678 527.271 17.4874C527.002 17.4574 526.676 17.4264 526.435 17.2798C526.28 17.1854 526.432 17.0058 526.241 17.0818C526.198 17.0987 526.253 17.257 526.188 17.2705C525.916 17.3269 525.619 17.2741 525.349 17.3543C525.294 17.371 525.308 17.5127 525.292 17.5381C525.161 17.7439 524.945 17.4013 524.898 17.3762C524.538 17.1891 524.274 17.2601 523.938 17.2528C523.859 17.251 523.95 17.442 523.875 17.4471C523.484 17.4709 523.08 17.4502 522.698 17.3602C522.613 17.3396 522.694 17.1788 522.654 17.1607C522.476 17.0829 522.43 17.3882 522.26 17.319C522.224 17.3048 522.247 17.1665 522.24 17.1511C522.141 16.9102 522.045 17.2471 522.018 17.254C521.83 17.3065 521.682 17.221 521.535 17.1405C521.411 17.0747 521.292 17.0123 521.144 17.0303C521.104 17.0355 521.187 17.2136 521.077 17.2174C520.346 17.2434 519.574 17.1621 518.859 16.9805C518.747 16.9524 518.835 16.8255 518.829 16.8088C518.728 16.5486 518.637 16.884 518.598 16.8944C518.304 16.9691 518.053 16.6662 517.829 17.0567C516.841 16.875 515.825 16.9002 514.882 16.6875C514.662 16.6409 514.444 16.5795 514.229 16.4982C514.214 16.493 514.253 16.3277 514.223 16.3179C513.862 16.1986 513.914 16.4632 513.649 16.7641C513.583 16.8397 513.423 16.4432 513.409 16.414C513.356 16.3063 513.435 16.0618 513.416 16.0403C513.26 15.8714 513.232 16.6957 513.009 16.6812C513.002 16.6794 513.041 16.5299 513.023 16.5136C512.968 16.4625 512.907 16.5189 512.853 16.4631C512.73 16.3342 512.708 15.9313 512.494 16.1519C512.467 16.1806 512.477 16.6496 512.28 16.6159C512.201 16.6019 511.85 16.5908 511.753 16.5558C511.657 16.5207 511.732 16.3736 511.725 16.3667C511.469 16.1546 511.574 16.0771 511.454 15.7762C511.335 15.4807 511.339 16.159 511.283 16.2508C511.283 16.2521 511.282 16.2533 511.281 16.2543C511.224 16.33 511.034 16.157 510.989 16.0978C510.943 16.0385 511.008 15.9455 510.966 15.9113C510.692 15.6874 510.826 16.2533 510.727 16.3602C510.495 16.6135 510.347 16.0863 510.147 16.0264C510.094 16.0102 510.133 16.1305 510.084 16.1394C509.889 16.173 509.781 16.0059 509.556 16.1452C509.519 16.1678 509.329 16.4727 509.225 16.2389C509.21 16.2052 509.261 16.0776 509.181 16.0453C509.059 15.9967 508.841 15.9598 508.707 15.9983C508.609 16.0267 508.712 16.2441 508.593 16.1733C508.54 16.1418 508.644 16.0206 508.544 15.9718C508.444 15.9229 508.184 15.9194 508.086 15.9206C507.987 15.9219 508.036 16.0855 508.027 16.0961C507.977 16.157 507.786 16.2293 507.769 16.2286C506.927 16.2236 506.157 15.9366 505.334 16.0227C505.27 16.0292 505.312 16.2002 505.302 16.2029C505.082 16.2736 505.258 15.8202 505.104 15.6678C505.125 16.0144 505.033 15.9513 504.879 15.9893C504.804 16.0079 504.845 16.142 504.838 16.1558C504.727 16.3596 504.65 16.0966 504.63 16.0428C504.556 15.8449 504.477 16.0793 504.426 15.9471C504.375 15.816 504.489 15.6206 504.34 15.6239C504.299 15.7482 504.411 16.0716 504.299 16.1249C504.089 16.2239 503.793 16.2149 503.501 16.179C503.198 16.1418 502.907 16.075 502.732 16.0652C502.389 16.046 502.278 16.0718 502.078 16.0319C501.714 15.9603 501.854 16.1973 501.633 16.3136C501.413 16.4301 501.505 15.8355 501.468 15.7092C501.432 15.5831 501.401 15.715 501.36 15.6463C501.318 15.5777 501.401 15.4886 501.307 15.4652C501.215 15.4418 500.966 15.6762 500.939 15.8103C500.879 16.0943 501.005 16.3859 500.755 16.2905C500.741 16.2849 500.781 16.1278 500.727 16.1139C500.295 16.0093 499.851 16.0197 499.417 15.933C499.358 15.9208 499.403 15.7455 499.368 15.7365C499.005 15.6422 499.149 15.9278 498.967 16.261C498.991 15.8279 498.87 15.5692 498.6 15.58C498.434 15.5865 498.475 15.7732 498.375 15.9112C498.344 15.9528 498.224 15.8294 498.208 15.919C498.153 16.2119 498.278 16.5301 497.993 16.4156C497.98 16.4101 498.011 16.2497 497.968 16.2423C497.691 16.1937 497.676 16.4981 497.38 16.5498C497.151 16.5895 496.737 16.432 496.457 16.4005C496.453 16.4 496.449 16.3996 496.445 16.3992C496.444 15.9142 496.198 16.0269 496.095 16.361C495.921 16.3473 495.733 16.3646 495.567 16.3156C495.51 16.2989 495.55 16.1591 495.543 16.1438C495.436 15.9039 495.355 16.2275 495.317 16.2393C494.908 16.3533 494.591 16.093 494.19 16.31C494.176 16.3178 494.131 16.6528 494.043 16.4004C494.038 16.3831 494.175 16.2386 493.995 16.2146C493.812 16.1905 493.488 15.9834 493.222 16.1141C493.158 16.1457 492.975 16.4023 492.874 16.1762C492.86 16.1455 492.889 16.0514 492.871 15.9954C492.814 15.8168 492.733 16.1503 492.677 15.8526C492.621 15.5547 492.465 15.3181 492.191 15.4833C492.183 15.488 492.088 15.7477 492.01 15.7328C491.885 15.7087 491.715 15.6279 491.584 15.6106C491.521 15.6024 491.537 15.7741 491.526 15.7755C491.09 15.8065 490.813 15.6116 490.373 15.4791C490.292 15.4544 490.021 15.6447 489.888 15.4428C489.74 15.2216 490.04 14.4326 489.602 14.5692C489.506 14.5985 489.363 14.9019 489.216 15.0886L489.2 15.0873C489.09 15.2596 488.968 15.345 488.84 15.0896C488.262 15.2035 487.738 14.9114 487.157 15.088C487.131 15.0958 487.042 15.385 486.981 15.3795C486.891 15.3709 486.845 15.2335 486.781 15.223C486.511 15.1755 486.262 15.2865 486.001 15.2628C485.903 15.2541 485.941 15.1141 485.823 15.1037C485.704 15.0936 485.624 15.2774 485.464 15.1847C485.345 15.114 485.231 14.7327 485.072 14.6856C485.06 15.0592 484.948 15.0494 484.752 15.1445C484.715 15.163 484.752 15.2938 484.734 15.3093C484.66 15.375 484.595 15.266 484.525 15.3377C484.508 15.355 484.505 15.4826 484.491 15.5039C484.37 15.6898 484.187 15.3993 484.153 15.3487C484.029 15.1566 483.97 15.3217 483.873 15.2452C483.778 15.1688 483.924 15.0778 483.812 15.0305C483.579 14.9326 483.279 14.948 483.043 14.9377C482.947 14.9344 483.009 15.106 482.995 15.1095C482.8 15.1491 482.604 14.9638 482.488 15.3007C482.373 14.4199 482.373 15.384 482.091 15.1994C482.07 15.1845 482.055 14.7687 482.143 14.7107C482.224 14.6524 482.353 14.7856 482.469 14.6932C482.499 14.6716 482.663 14.2861 482.686 14.263C482.858 14.0823 482.872 14.7029 482.88 14.7371C482.973 15.1067 483.177 14.6913 483.228 14.6632C483.464 14.5348 483.665 14.6255 483.86 14.5342C483.991 14.4752 484.01 14.0692 484.11 14.0834C484.445 14.1304 484.551 14.6991 484.876 14.2136C484.946 14.11 484.888 13.6647 485.123 14.0184C485.138 14.0407 485.314 14.3636 485.421 14.1636C485.434 14.1384 485.436 14.009 485.454 13.9984C485.571 13.9304 485.646 14.035 485.773 13.9882C485.902 13.9415 486.053 13.871 486.197 13.9181C486.283 13.9462 486.389 14.1898 486.43 14.2497C486.544 14.4224 486.675 14.1466 486.743 14.3542C486.812 14.5628 486.661 14.8737 486.85 15.0119C486.865 14.676 486.89 14.3313 486.909 13.9936C487.331 14.0157 487.743 14.1355 488.167 14.1336C488.22 14.133 488.172 13.9507 488.228 13.9454C488.467 13.924 488.671 14.0596 488.92 14.017C489.023 13.999 489.135 13.9375 489.246 13.8783L489.372 13.8889C489.476 13.8475 489.577 13.8078 489.675 13.7988C489.746 14.1967 490.063 14.1098 490.272 14.1767C490.346 14.1999 490.325 14.3008 490.374 14.3419C490.556 14.4948 490.513 14.1445 490.576 14.0999C490.846 13.91 490.749 14.6739 491.027 14.6972C491.042 14.6987 491.281 14.3202 491.309 14.2986C491.488 14.1572 491.313 14.4437 491.405 14.4882C491.573 14.5694 491.682 14.6847 491.904 14.595C491.969 14.5684 492.146 14.335 492.234 14.5464C492.246 14.5741 492.22 14.7074 492.231 14.7169C492.436 14.8777 492.496 14.4555 492.639 14.3279C492.78 14.2002 492.937 14.5143 492.969 14.6029C493.048 14.8323 492.879 14.6872 492.871 14.7078C492.775 14.9546 492.924 14.9275 493.03 14.9606C493 15.3777 493.159 15.369 493.141 14.9932C493.139 14.9522 493.05 14.9819 493.03 14.9606C493.17 14.5635 493.337 14.5281 493.486 14.9263C493.556 15.1127 493.456 15.3148 493.728 15.2606C493.852 15.2359 493.827 14.9454 493.938 14.8751C494.189 14.7147 494.486 15.0011 494.736 14.9698C494.828 14.9584 494.747 14.7973 494.809 14.784C494.971 14.7482 495.111 14.8712 495.278 14.8151C495.293 14.8098 495.261 14.6441 495.312 14.6433C495.696 14.6336 496.032 14.7417 496.437 14.7412C496.439 14.7412 496.44 14.7412 496.442 14.7412C496.607 14.7403 496.951 14.6353 497.158 14.6432C497.516 14.6563 497.977 14.8717 498.284 14.7979C498.487 14.7504 498.432 14.5881 498.515 14.4715C498.671 14.2457 498.99 14.621 499.033 14.6795C499.035 14.6813 498.859 14.7286 498.958 14.8086C499.021 14.9821 499.031 14.6803 499.033 14.6795C499.06 14.7172 499.411 14.7386 499.481 14.7041C499.518 14.6853 499.49 14.5302 499.509 14.5233C499.97 14.3633 500.443 14.3053 500.92 14.3624C500.928 14.3653 500.921 14.5403 500.941 14.5449C501.221 14.6133 501.39 14.3944 501.612 14.2611C501.838 14.1278 502.02 14.1657 502.161 14.4622C502.331 14.4203 502.579 14.5474 502.723 14.6249C502.866 14.7025 502.879 14.3621 502.891 14.3552C503.117 14.2252 503.286 14.2364 503.472 14.273C503.605 14.2992 503.741 14.3384 503.912 14.3492C504.103 14.362 504.487 14.3103 504.695 14.2729C504.861 14.2426 504.958 14.3224 505.111 14.2718C505.132 14.265 505.112 14.1136 505.118 14.1078C505.288 13.9271 505.205 14.2971 505.24 14.3633C505.366 14.6043 505.443 14.7326 505.66 14.6213C505.711 14.5958 505.86 14.0641 505.953 14.034C506.073 13.9959 506.026 14.1864 506.15 14.1417C506.161 14.1381 506.16 14.0202 506.237 14.0265C506.594 14.0541 506.981 14.1304 507.352 14.128C507.402 14.1281 507.342 13.9396 507.415 13.9367C507.759 13.9233 508.135 13.9419 508.465 14.041C508.546 14.066 508.49 14.195 508.507 14.2345C508.608 14.4733 508.774 14.1375 508.8 14.132C509.416 13.9909 509.867 14.3203 510.489 14.201C510.523 14.1939 510.796 13.8396 510.896 14.1586C510.904 14.1798 511.001 14.506 511.112 14.2909C511.118 14.2775 511.056 14.1091 511.177 14.1313C511.231 14.1412 511.302 14.1266 511.375 14.1238C511.473 14.1205 511.578 14.1361 511.67 14.2416C511.723 14.3015 511.835 14.6279 512.012 14.3812C512.023 14.3639 512.308 13.8005 512.376 14.2039C512.387 14.2703 512.348 14.6905 512.555 14.486C512.594 14.4464 512.532 14.3484 512.634 14.2956C512.789 14.2143 512.981 14.3396 513.177 14.1641C513.211 14.133 513.366 13.8563 513.461 14.0806C513.476 14.1157 513.434 14.2541 513.49 14.2737C513.758 14.3677 514.049 14.2938 514.315 14.4099C514.409 14.4507 514.344 14.6745 514.441 14.7423C514.537 14.81 514.736 14.8822 514.847 14.785C514.958 14.6878 514.868 14.3184 515.025 14.2993C515.027 14.299 515.03 14.2987 515.032 14.2984C515.798 14.2261 516.437 14.5054 517.113 14.5902C517.213 14.6029 517.139 14.4667 517.289 14.4762C517.833 14.5114 518.776 14.4517 519.234 14.7513C519.601 14.992 519.115 15.135 519.401 15.24C519.542 15.2902 519.711 14.8758 519.747 14.8642C520.082 14.7448 520.305 14.9411 520.605 14.8949C520.667 14.8853 520.613 14.7122 520.666 14.7058C520.843 14.6826 521.029 14.7652 521.201 14.7564C521.278 14.7521 521.268 14.6211 521.338 14.6332C521.428 14.648 521.513 14.672 521.598 14.7109C521.669 14.7439 521.74 14.7877 521.815 14.8457C521.829 14.8572 521.724 15.0173 521.849 15.0262C522.051 15.0402 522.3 15.1658 522.537 15.0449C522.607 15.0085 522.615 14.7101 522.761 14.9184C522.792 14.9619 522.746 15.3198 522.925 15.0125C522.956 14.9615 523.253 14.5475 523.394 14.8183C523.431 14.8895 523.525 15.1839 523.609 15.1386C523.621 15.1314 523.577 14.9706 523.647 14.9556C523.892 14.9057 524.15 14.9249 524.402 14.8764C524.47 14.8632 524.371 14.6965 524.471 14.6821C524.748 14.642 525.093 14.6863 525.364 14.7396C525.463 14.7596 525.394 14.8967 525.401 14.9117C525.516 15.1556 525.587 14.8276 525.626 14.8086C525.868 14.6952 526.052 14.8504 526.275 14.8107C526.336 14.8001 526.294 14.6433 526.306 14.6294C526.434 14.4937 526.338 14.7744 526.418 14.8058C526.643 14.8948 526.895 14.8836 527.124 14.8651C527.208 14.858 527.115 14.6759 527.19 14.6716C527.636 14.6434 528.103 14.6646 528.543 14.7711C528.624 14.7915 528.571 14.9305 528.587 14.9627C528.705 15.1878 528.884 14.8862 528.925 14.858C529.026 14.7878 529.096 14.7931 529.16 14.8092C529.214 14.8227 529.267 14.8439 529.338 14.8349C530.107 14.7374 531.044 14.8305 531.765 14.8807C532.704 14.9458 533.443 15.0705 534.351 15.0269C534.408 15.0243 534.349 14.8389 534.398 14.8342C534.701 14.81 535.002 14.8117 535.304 14.8141C535.638 14.8169 535.976 14.8196 536.316 14.787C536.368 14.7822 536.29 14.6069 536.375 14.5934C536.548 14.5644 536.77 14.5712 536.947 14.6253C537.033 14.6514 536.919 14.8041 537.006 14.8273C537.209 14.8815 537.426 14.8915 537.633 14.861C537.721 14.8476 537.586 14.6688 537.701 14.6654C538.483 14.6392 539.256 14.6014 540.057 14.8366C540.113 14.8528 540.158 15.2193 540.276 15.1496C540.285 15.0479 540.285 14.9283 540.29 14.8196C540.728 14.7997 541.167 14.8088 541.622 14.8386C542.366 14.8886 543.084 14.9923 543.806 15.064C543.855 15.0689 543.786 14.8683 543.881 14.8768C544.431 14.9259 544.968 14.9232 545.504 15.1728C545.557 15.1973 545.494 15.5341 545.662 15.4997C545.691 15.4933 545.94 15.4741 546.011 15.4073C546.021 15.3971 545.993 15.2337 546.072 15.2377C546.533 15.2636 547.008 15.3551 547.451 15.5067C547.521 15.5314 547.423 15.6906 547.474 15.7097C547.835 15.8443 548.251 15.7665 548.586 15.9657C548.809 16.0996 548.683 16.3791 548.77 16.6821C548.784 16.725 548.926 16.7505 548.913 16.9183C548.876 17.3399 548.743 17.7891 548.713 18.2396C548.708 18.3369 548.909 18.2585 548.767 18.476C548.758 18.4906 548.606 18.5488 548.563 18.6234C548.532 18.6747 548.553 18.8499 548.494 18.9132C548.435 18.9762 548.404 18.8276 548.311 18.8988C548.217 18.9711 548.232 19.169 548.066 19.1707ZM503.365 14.9729C503.499 15.1341 503.509 14.5357 503.369 14.681C503.362 14.6887 503.358 14.965 503.365 14.9729ZM487.728 14.587C487.891 14.8555 488.019 14.4712 487.904 14.264C487.79 14.057 487.678 14.5056 487.728 14.587ZM485.959 14.7366C486.153 14.9488 486.203 14.1015 485.986 14.2684C485.973 14.2778 485.948 14.7243 485.959 14.7366ZM548.18 16.6882C548.18 16.6962 548.286 16.7176 548.289 16.71C548.369 16.5288 548.159 16.4864 548.18 16.6882ZM484.207 14.9131C484.266 15.0289 484.447 14.8996 484.372 14.7556C484.312 14.6397 484.132 14.769 484.207 14.9131ZM510.155 15.7344C510.156 15.7434 510.232 15.7548 510.233 15.7044C510.235 15.5421 510.128 15.5831 510.155 15.7344ZM481.27 14.7933C481.688 14.8851 481.888 15.6097 481.406 15.472C481.321 15.4465 481.624 15.2746 481.52 15.1977C481.335 15.058 481.139 15.4738 480.968 15.2097C480.938 15.1617 481.247 14.7869 481.27 14.7925C481.27 14.7927 481.27 14.793 481.27 14.7933ZM503.452 15.6901C503.453 15.6934 503.472 15.6963 503.494 15.698C503.524 15.7005 503.561 15.7006 503.562 15.696C503.593 15.5863 503.537 15.5357 503.492 15.55C503.458 15.5605 503.432 15.6065 503.452 15.6901ZM514.519 16.354C514.524 16.3713 514.765 16.4029 514.774 16.3879C514.919 16.0862 514.434 16.0215 514.519 16.354ZM496.44 16.3863C496.325 16.5784 496.188 16.6013 496.095 16.3613C496.211 16.3741 496.323 16.3755 496.44 16.3863Z" fill="#686868"/>
</svg>
