<svg width="22" height="27" viewBox="0 0 22 27" fill="none" xmlns="http://www.w3.org/2000/svg">
<path d="M2.96576 13.278C3.12166 13.4155 3.23793 13.6968 3.29608 13.9322C3.31478 14.0061 3.19968 14.039 3.20891 14.0938C3.22415 14.1965 3.324 14.2455 3.33135 14.3518C3.33377 14.388 3.16173 14.4554 3.16775 14.4911C3.20486 14.6909 3.33727 14.8072 3.40769 14.9834C3.7556 15.8534 4.1854 16.6444 4.60992 17.4727C4.74991 17.7454 4.80849 18.1484 5.03354 18.3757C5.06027 18.4026 5.18338 18.3004 5.19819 18.2995C5.42651 18.2884 5.13556 18.4263 5.137 18.5094C5.14202 18.8368 5.29425 19.1128 5.49042 19.3171C5.57299 19.4017 5.78176 19.1394 5.69108 19.3302C5.68507 19.3433 5.52611 19.4058 5.52718 19.4421C5.52982 19.5241 5.62679 19.6258 5.64478 19.6813C5.67898 19.789 5.68887 19.8021 5.7396 19.8898C5.80706 20.0094 5.82389 20.1996 5.93186 20.3054C5.95553 20.3281 6.08193 20.2034 6.1331 20.2317C6.18421 20.2599 6.24101 20.3833 6.22967 20.4436C6.21827 20.5039 6.09183 20.5567 6.06931 20.5796C5.87888 20.7723 6.26975 20.7185 6.28771 20.7311C6.40597 20.8182 6.47833 20.9264 6.53194 21.0437C6.62648 21.2484 6.66113 21.4739 6.76891 21.6713C6.90009 21.9105 7.0948 22.1409 7.19987 22.3805C7.32437 22.6663 7.3466 22.944 7.47821 23.2141C7.49176 23.2424 7.66444 23.1298 7.6814 23.1643C7.77212 23.3497 7.84892 23.5413 7.90205 23.7287C7.92836 23.8215 7.949 23.9138 7.9607 23.9955C7.9663 24.0693 7.99501 24.1714 7.91717 24.1113C7.87123 24.0732 7.77462 24.2397 7.72088 24.2113C7.68949 24.1976 7.64621 24.1522 7.49869 24.0972C7.41734 24.0634 7.26232 24.0325 7.11985 24.0673C6.98061 24.1005 6.90575 24.1608 6.86131 24.2014C6.78749 24.2768 6.78948 24.3051 6.7891 24.3202C6.79398 24.3493 6.82389 24.3385 6.848 24.3272C6.89923 24.3003 6.9471 24.2505 6.96852 24.1925C7.01082 24.0772 6.95099 23.9222 6.65627 23.7143C6.75209 23.5786 6.86392 23.412 7.06833 23.3446C7.19904 23.303 7.33537 23.4689 7.31061 23.3273C7.30535 23.2952 7.13721 23.2533 7.14017 23.2124C7.15531 23.0347 7.28131 22.8992 7.27446 22.7115C7.27216 22.6743 7.13125 22.616 7.11061 22.5957C6.94519 22.4276 7.33362 22.4682 7.36985 22.4548C7.64521 22.3441 7.64383 22.17 7.73989 21.9876C7.76157 21.9468 7.55407 21.9047 7.56846 21.8619C7.64906 21.6343 7.77157 21.4299 7.95864 21.2618C7.96184 21.259 7.96556 21.257 7.96972 21.2559C8.01962 21.2437 8.13655 21.345 8.16198 21.3333C8.28167 21.276 7.99921 21.1055 8.11005 21.0445C8.13309 21.0314 8.26032 21.1102 8.27675 21.114C8.53426 21.1749 8.23318 20.9634 8.2334 20.9453C8.22813 20.7138 8.62358 20.7758 8.66593 20.5751C8.6703 20.5516 8.47881 20.5115 8.5014 20.4507C8.65406 20.0388 8.91209 19.6516 9.24444 19.3383C9.29601 19.2892 9.39978 19.397 9.41729 19.4012C9.69092 19.4666 9.38655 19.2589 9.38436 19.2332C9.37588 19.0341 9.72241 19.0326 9.38982 18.7278C9.86226 18.1474 9.98187 17.392 10.666 16.9317C10.6743 16.9256 10.8259 17.0244 10.8418 17.0119C11.0343 16.864 10.7668 16.7709 10.5326 16.4812C10.4738 16.4083 10.8921 16.5019 10.9233 16.5076C11.0389 16.528 11.2583 16.6865 11.2831 16.6859C11.4799 16.6772 10.6888 16.2768 10.752 16.1571C10.7552 16.154 10.8911 16.2462 10.9107 16.2437C10.9723 16.2364 10.9314 16.1751 10.9972 16.1708C11.1492 16.1615 11.5426 16.3392 11.3777 16.1153C11.3561 16.0865 10.901 15.8713 10.9787 15.7757C11.0101 15.7377 11.1027 15.5455 11.1595 15.5082C11.2162 15.4709 11.34 15.5832 11.3482 15.5828C11.6128 15.5418 11.6625 15.6373 11.9803 15.7156C12.297 15.7934 11.6215 15.4581 11.5627 15.3896C11.5041 15.3212 11.7155 15.3007 11.7834 15.3041C11.8512 15.3076 11.925 15.3879 11.9678 15.3817C12.2486 15.3386 11.6732 15.1393 11.5942 15.0333C11.4071 14.7825 11.9485 14.9556 12.0541 14.8747C12.0826 14.8528 11.9578 14.8162 11.9611 14.7848C11.9758 14.6613 12.1623 14.6826 12.0838 14.4909C12.0711 14.4596 11.8256 14.2065 12.0755 14.2628C12.1114 14.2711 12.2209 14.3615 12.2717 14.3329C12.3479 14.2903 12.4377 14.1878 12.4344 14.0961C12.4318 14.0283 12.198 13.9782 12.2958 13.9473C12.3393 13.9337 12.4286 14.0508 12.5006 14.0199C12.5723 13.9894 12.6416 13.8489 12.6658 13.7945C12.6899 13.7401 12.5214 13.6857 12.5134 13.6759C12.4681 13.6183 12.4486 13.4782 12.4536 13.4694C12.6775 13.0123 13.1596 12.7416 13.3128 12.2618C13.3251 12.2241 13.1518 12.1583 13.152 12.1516C13.1488 11.9979 13.5258 12.3252 13.7137 12.3229C13.3809 12.1548 13.4664 12.1394 13.4757 12.0381C13.4798 11.9891 13.3417 11.9408 13.3308 11.9301C13.1715 11.7653 13.4419 11.8611 13.4984 11.8786C13.7062 11.9428 13.5094 11.7788 13.6485 11.8214C13.7867 11.8636 13.9365 12.0255 13.9774 11.9459C13.8729 11.8594 13.5359 11.7486 13.5194 11.6617C13.4572 11.3328 13.931 11.0448 14.0564 10.8798C14.183 10.7123 14.1938 10.6433 14.2947 10.5624C14.4783 10.4148 14.2137 10.3574 14.1773 10.1815C14.1409 10.0059 14.6618 10.3772 14.7902 10.428C14.8156 10.4381 14.8316 10.4428 14.8414 10.444C14.8815 10.4483 14.8218 10.3944 14.8837 10.4075C14.9608 10.424 15.0161 10.5147 15.0683 10.4801C15.1205 10.4453 14.9843 10.1933 14.8698 10.1055C14.6275 9.9189 14.3169 9.82132 14.4876 9.74806C14.4976 9.74392 14.6289 9.85122 14.6599 9.83116C14.9004 9.67047 15.0407 9.4435 15.2689 9.27789C15.3006 9.2552 15.4454 9.3763 15.4657 9.36419C15.6764 9.23913 15.366 9.14854 15.125 8.87011C15.5117 9.12773 15.7902 9.21361 15.8744 9.07593C15.9251 8.99324 15.7415 8.90584 15.6511 8.77792C15.6238 8.73946 15.779 8.75034 15.7033 8.69108C15.4563 8.49697 15.1232 8.37505 15.3281 8.30173C15.3375 8.29881 15.4722 8.40584 15.494 8.38938C15.6362 8.28226 15.3673 8.09712 15.4241 7.92517C15.4707 7.78698 15.7687 7.67726 15.879 7.55783C16.3231 7.83137 16.2985 7.64173 16.0236 7.40192C16.0899 7.32145 16.1306 7.21608 16.2257 7.15645C16.2581 7.13608 16.3749 7.23444 16.3911 7.2393C16.6437 7.31714 16.3689 7.09616 16.369 7.07004C16.3839 6.79218 16.7115 6.76791 16.6156 6.43378C16.612 6.42193 16.3127 6.21731 16.5693 6.3064C16.5868 6.31283 16.6858 6.46468 16.7541 6.38047C16.8233 6.29464 17.0961 6.22746 17.0363 6.00979C17.0214 5.95798 16.8244 5.72046 17.0579 5.78242C17.0895 5.79105 17.171 5.85643 17.2273 5.87585C17.4069 5.93721 17.1125 5.7181 17.4032 5.84159C17.6946 5.96394 17.9484 6.00085 17.8524 5.75552C17.8498 5.74812 17.6267 5.55902 17.6565 5.5221C17.7041 5.46334 17.815 5.40505 17.8564 5.33931C17.8768 5.30668 17.713 5.22756 17.714 5.22017C17.7712 4.95149 18.0074 4.88784 18.2187 4.70137C18.257 4.66834 18.1368 4.40871 18.3515 4.43958C18.5877 4.47183 19.2532 5.06479 19.2177 4.7461C19.203 4.61966 18.3554 3.87255 18.9337 4.06172C18.9733 3.88339 19.0959 3.77203 19.2145 3.65874C19.3409 3.54414 19.4618 3.42763 19.4854 3.22195C19.4876 3.20385 19.266 2.97742 19.2921 2.94985C19.3306 2.91031 19.4653 2.97492 19.496 2.95023C19.6297 2.84617 19.6172 2.65446 19.7275 2.54002C19.7685 2.49722 19.8769 2.6051 19.9267 2.55281C19.9758 2.50125 19.8447 2.34377 19.9789 2.32505C20.0811 2.31095 20.45 2.49814 20.5469 2.44761C20.2266 2.20466 20.2732 2.1561 20.2573 1.99944C20.254 1.96926 20.1273 1.90522 20.1201 1.88657C20.0885 1.80804 20.2054 1.84511 20.1663 1.76588C20.1572 1.74647 20.0471 1.66451 20.0334 1.6441C19.912 1.46827 20.2283 1.55929 20.2828 1.57584C20.4929 1.63456 20.3685 1.50202 20.4679 1.50208C20.5665 1.5031 20.5977 1.63125 20.6763 1.60597C20.841 1.5509 20.9284 1.3908 21.016 1.27544C21.0501 1.22909 20.877 1.15719 20.8784 1.14812C20.9058 1.02709 21.1365 1.03202 20.8641 0.780462C21.6879 1.21169 20.8581 0.690915 21.0546 0.638019C21.0637 0.62867 21.068 0.62776 21.0726 0.627047C21.0923 0.623051 21.4029 0.829311 21.4816 0.917628L21.4984 0.890739C21.5061 0.899503 21.5115 0.907588 21.5139 0.914764C21.5413 0.998824 21.3785 0.997997 21.4244 1.11571C21.4359 1.14259 21.7282 1.45983 21.7411 1.48588C21.8423 1.69086 21.282 1.32797 21.2489 1.31156C20.887 1.1409 21.1912 1.49223 21.197 1.53785C21.2305 1.73797 21.0827 1.78264 21.0949 1.93918C21.1022 2.04103 21.4504 2.30485 21.4031 2.34696C21.2452 2.48769 20.7143 2.18048 21.0245 2.64914C21.0906 2.74915 21.4972 3.00262 21.1087 2.89558C21.0836 2.88971 20.7444 2.76993 20.8799 2.95156C20.897 2.97447 21.0087 3.05745 21.0119 3.07268C21.0316 3.17258 20.913 3.14592 20.9111 3.237C20.9076 3.33019 20.9171 3.44938 20.8263 3.49166C20.7729 3.51571 20.5254 3.41332 20.4594 3.39544C20.2708 3.34194 20.4657 3.58159 20.2619 3.48409C20.0577 3.3853 19.8391 3.11379 19.6558 3.11806C19.9419 3.33911 20.2323 3.57033 20.5185 3.79474C20.3717 3.97021 20.1591 4.09136 20.0157 4.26986L20.0331 4.24628C20.0189 4.26485 20.0054 4.28421 19.9928 4.30447C19.9768 4.33089 20.1532 4.41838 20.14 4.44963C20.0847 4.58009 19.9015 4.59871 19.8638 4.74787C19.835 4.86413 19.9335 5.08219 19.9108 5.20562C19.5306 5.0276 19.547 5.2506 19.4461 5.33111C19.4104 5.35997 19.3209 5.29517 19.2733 5.30094C19.0969 5.32285 19.43 5.4833 19.4595 5.54223C19.5843 5.79524 18.8942 5.33848 18.8179 5.48829C18.8137 5.49582 19.121 5.82937 19.1357 5.85686C19.2327 6.03397 18.9995 5.78431 18.9399 5.81488C18.8326 5.86825 18.702 5.8744 18.7421 6.04806C18.7541 6.0993 18.9351 6.32432 18.7194 6.26539C18.6911 6.25783 18.572 6.1736 18.5607 6.17515C18.3673 6.21072 18.7484 6.46505 18.837 6.61333C18.9253 6.76189 18.5948 6.69056 18.5054 6.66099C18.273 6.58622 18.4471 6.56559 18.4294 6.55034C18.22 6.36716 18.213 6.46505 18.1571 6.50885C17.7745 6.27344 17.7457 6.36802 18.1006 6.55542C18.1395 6.57574 18.1326 6.50899 18.1571 6.50885C18.4953 6.79763 18.4886 6.91238 18.0804 6.78636C17.8893 6.72704 17.7253 6.56542 17.7088 6.74472C17.7008 6.8266 17.9772 6.96836 18.0136 7.06833C18.0975 7.29544 17.7511 7.30431 17.7092 7.45728C17.6938 7.51315 17.8661 7.55683 17.8606 7.5981C17.8458 7.70856 17.693 7.71398 17.6946 7.83501C17.695 7.84604 17.8575 7.92015 17.8429 7.94814C17.7369 8.15878 17.532 8.27606 17.4009 8.48599C17.3377 8.58729 17.3112 8.82054 17.2305 8.91709C17.0919 9.08386 16.7353 9.17937 16.6952 9.37057C16.668 9.49557 16.835 9.56139 16.913 9.66689C17.0654 9.86945 16.6135 9.81134 16.5463 9.7977C16.5439 9.79751 16.5601 9.68709 16.4535 9.68905C16.2739 9.62073 16.5462 9.79629 16.5463 9.7977C16.5025 9.7894 16.3639 9.94722 16.3722 10.0005C16.3769 10.0293 16.5284 10.1028 16.5281 10.1162C16.5206 10.4281 16.4196 10.6891 16.2127 10.8928C16.2073 10.8954 16.0479 10.7958 16.0373 10.803C15.9335 10.87 15.9687 10.9867 16.0181 11.1127C16.0418 11.171 16.0686 11.2314 16.0855 11.2898C16.1387 11.4724 16.0458 11.5442 15.7266 11.4536C15.7128 11.5607 15.5173 11.6174 15.4006 11.6487C15.2844 11.679 15.5978 11.8678 15.6005 11.8777C15.6908 12.19 15.4435 12.2037 15.2995 12.3957C15.2297 12.4879 15.1685 12.7078 15.1438 12.8352C15.1248 12.9363 15.0221 12.9449 15.027 13.0496C15.0276 13.0636 15.1761 13.1316 15.1798 13.1378C15.3024 13.3189 14.9769 13.085 14.9047 13.0687C14.6423 13.0092 14.4989 12.9843 14.5443 13.1542C14.5545 13.1934 15.0158 13.5441 15.0194 13.6072C15.0232 13.6888 14.8557 13.567 14.8642 13.655C14.8648 13.6625 14.9766 13.7222 14.95 13.7591C14.8288 13.93 14.6543 14.0959 14.5619 14.2923C14.5488 14.319 14.7436 14.3816 14.7276 14.4217C14.6522 14.6103 14.541 14.7998 14.3647 14.928C14.3208 14.9591 14.2114 14.8656 14.1696 14.8549C13.9166 14.7912 14.1964 15.0462 14.1955 15.0628C14.1802 15.4628 13.7572 15.5473 13.7235 15.9452C13.7223 15.9672 13.9971 16.2883 13.667 16.1894C13.6449 16.1829 13.3082 16.0798 13.4883 16.244C13.4996 16.2543 13.6764 16.3009 13.6257 16.3573C13.5751 16.4137 13.6241 16.5742 13.4039 16.5717C13.3344 16.571 12.9945 16.476 13.1921 16.6895C13.2061 16.704 13.6853 17.1262 13.282 16.9716C13.2157 16.946 12.8192 16.7252 12.971 16.9353C13.0006 16.9757 13.1085 16.9882 13.1374 17.0686C13.1822 17.1918 13.0201 17.238 13.1479 17.4285C13.1706 17.462 13.4051 17.6771 13.1685 17.6245C13.1315 17.6163 13.0066 17.5285 12.9757 17.5506C12.8283 17.6553 12.838 17.8537 12.6692 17.9492C12.6093 17.9838 12.4067 17.8431 12.3202 17.8664C12.2337 17.8898 12.1207 17.9688 12.1903 18.0769C12.2598 18.1851 12.6373 18.3057 12.6208 18.4041C12.5479 18.834 12.1547 19.0909 11.9342 19.4408C11.9012 19.4933 12.0487 19.5126 12.009 19.5943C11.8649 19.8927 11.7155 20.4642 11.3193 20.5845C11.0022 20.6802 10.9748 20.3394 10.808 20.4513C10.7286 20.5044 11.0881 20.7971 11.0915 20.8216C11.1285 21.0661 10.8848 21.1003 10.8577 21.2878C10.8522 21.3265 11.0323 21.3784 11.0258 21.4103C11.0041 21.5224 10.8785 21.5874 10.8454 21.6847C10.8309 21.7288 10.9593 21.7861 10.93 21.8196C10.8608 21.9013 10.7685 21.952 10.6054 21.982C10.5905 21.9848 10.4633 21.8498 10.4225 21.9154C10.357 22.0215 10.1731 22.0964 10.2282 22.2839C10.2436 22.3333 10.4729 22.4559 10.3525 22.4656C10.338 22.467 10.3185 22.4669 10.293 22.4648C10.2432 22.4607 9.90996 22.2655 10.1598 22.5092C10.201 22.5503 10.5246 22.906 10.2272 22.8532C10.1489 22.8392 9.84173 22.7482 9.86393 22.8146C9.86791 22.8243 10.0345 22.8767 10.0306 22.922C10.0154 23.0783 9.93112 23.2066 9.91493 23.3615C9.91023 23.4044 10.0969 23.4293 10.0849 23.4904C10.0542 23.6548 9.92438 23.8174 9.80594 23.9344C9.76216 23.9769 9.64628 23.877 9.63009 23.8736C9.36377 23.8236 9.66482 24.0124 9.6738 24.0413C9.72414 24.2214 9.52832 24.247 9.51329 24.3817C9.50831 24.4196 9.67162 24.4681 9.68211 24.481C9.78339 24.6102 9.53314 24.4319 9.48335 24.4595C9.34199 24.5384 9.29314 24.6755 9.25662 24.8059C9.243 24.8548 9.44373 24.8858 9.42969 24.9283C9.39222 25.047 9.34463 25.1615 9.27298 25.2883C9.23526 25.355 9.19566 25.4188 9.12333 25.5279C9.08279 25.5875 9.04839 25.6452 8.92878 25.8056C8.86386 25.8827 8.79488 26.0039 8.50977 26.2388C8.34046 26.3682 8.09353 26.5467 7.64147 26.643C7.18604 26.7435 6.68043 26.6306 6.41722 26.4997C6.06477 26.3294 5.89893 26.1535 5.78182 26.0263C5.52239 25.6982 5.81633 25.805 5.79051 25.7219C5.75022 25.2589 5.44532 25.3049 5.38453 25.2637C5.18097 25.1589 5.28753 25.0639 5.22312 24.972C4.92359 24.5491 4.82826 24.0845 4.70676 23.7044C4.55563 23.2265 4.49181 22.8135 4.21989 22.412C4.21476 22.4044 4.20956 22.3967 4.20432 22.3891C4.18472 22.3603 4.03052 22.4923 4.01144 22.4689C3.77426 22.163 3.65059 21.8035 3.40317 21.5047C3.38319 21.48 3.24416 21.6166 3.20668 21.5804C3.12827 21.5061 3.07213 21.3933 3.06855 21.2705C3.06687 21.2115 3.24172 21.1861 3.23717 21.1284C3.22688 20.9937 3.17239 20.8781 3.08363 20.7908C3.04466 20.7525 2.92067 20.9216 2.88298 20.8641C2.62671 20.4809 2.36019 20.1122 2.32744 19.5853C2.32508 19.549 2.64436 19.3162 2.54434 19.2988C2.44891 19.3524 2.33998 19.4209 2.23968 19.481C1.83261 18.9487 1.59021 18.3129 1.24238 17.7373C1.22757 17.7129 1.07913 17.8677 1.04965 17.8212C0.879996 17.5539 0.664085 17.3294 0.657837 16.9429C0.657116 16.905 0.973936 16.7181 0.873653 16.6671C0.855252 16.6576 0.736503 16.5669 0.649378 16.5798C0.636508 16.5821 0.508379 16.6992 0.478071 16.6625C0.308569 16.4538 0.184797 16.1979 0.120107 15.9123C0.109486 15.8653 0.287889 15.8037 0.281723 15.7695C0.238722 15.5301 -0.0110532 15.4068 0.000472248 15.1182C0.00975472 14.9248 0.303904 14.7991 0.52649 14.568C0.556735 14.5342 0.50726 14.435 0.662691 14.3409C1.05915 14.1186 1.51009 13.9059 1.92828 13.661C1.97396 13.6361 1.96711 13.6263 1.9935 13.6428C2.02021 13.6615 2.06518 13.6767 2.15282 13.5645C2.15412 13.5288 2.2305 13.4958 2.31254 13.4661C2.36696 13.4419 2.51876 13.3376 2.5907 13.3104C2.66296 13.2838 2.54149 13.3806 2.63768 13.3663C2.73355 13.3493 2.90111 13.2235 2.96576 13.278ZM14.8793 11.7885C14.6879 11.7711 15.2442 12.0941 15.1507 11.9458C15.1455 11.9383 14.8888 11.7891 14.8793 11.7885ZM19.7267 3.82317C19.4397 3.73231 19.7295 4.04075 19.948 4.11494C20.1662 4.18929 19.8137 3.85069 19.7267 3.82317ZM20.1982 2.85355C19.9482 2.81393 20.6657 3.37735 20.5951 3.16434C20.5912 3.15218 20.2127 2.85585 20.1982 2.85355ZM0.79952 14.8313C0.805737 14.8252 0.779341 14.7697 0.770323 14.7714C0.580552 14.8544 0.636955 14.9708 0.79952 14.8313ZM20.6454 1.87504C20.5241 1.83185 20.5749 2.00299 20.7258 2.05679C20.8476 2.09958 20.7965 1.92846 20.6454 1.87504ZM12.3323 15.0202C12.3233 15.0168 12.2943 15.0525 12.3425 15.0773C12.4977 15.1571 12.484 15.0784 12.3323 15.0202ZM21.6636 0.502784C21.4846 0.595883 20.7744 0.257071 21.1056 0.0522764C21.1612 0.0227652 21.1682 0.320349 21.2721 0.31719C21.4443 0.326541 21.2286 -0.103053 21.4885 0.0232884C21.5309 0.0495688 21.6711 0.500236 21.6639 0.503873C21.6638 0.503509 21.6637 0.503147 21.6636 0.502784ZM14.1827 11.4513C14.1745 11.4485 14.1372 11.4989 14.1439 11.5043C14.3059 11.6331 14.3811 11.5318 14.1827 11.4513ZM10.7432 17.1623C10.7256 17.157 10.643 17.2774 10.6556 17.2893C10.9159 17.5116 11.0835 17.269 10.7432 17.1623ZM15.8922 7.56292C15.7514 7.39886 15.7746 7.31434 16.0232 7.40205C15.976 7.45315 15.9379 7.51192 15.8922 7.56292Z" fill="#EB8DD7"/>
</svg>
